<?xml version="1.0" encoding="UTF-8" standalone="no"?>
<svg
   id="svg4773"
   viewBox="0 0 357.08 379.82"
   version="1.1"
   sodipodi:docname="laoliva2.svg"
   xml:space="preserve"
   inkscape:version="1.4 (86a8ad7, 2024-10-11)"
   xmlns:inkscape="http://www.inkscape.org/namespaces/inkscape"
   xmlns:sodipodi="http://sodipodi.sourceforge.net/DTD/sodipodi-0.dtd"
   xmlns="http://www.w3.org/2000/svg"
   xmlns:svg="http://www.w3.org/2000/svg"
   xmlns:rdf="http://www.w3.org/1999/02/22-rdf-syntax-ns#"
   xmlns:cc="http://creativecommons.org/ns#"
   xmlns:dc="http://purl.org/dc/elements/1.1/"><defs
     id="defs1" /><sodipodi:namedview
     id="namedview1"
     pagecolor="#ffffff"
     bordercolor="#000000"
     borderopacity="0.25"
     inkscape:showpageshadow="2"
     inkscape:pageopacity="0.0"
     inkscape:pagecheckerboard="0"
     inkscape:deskcolor="#d1d1d1"
     inkscape:zoom="3.0725079"
     inkscape:cx="170.21925"
     inkscape:cy="113.75072"
     inkscape:window-width="2560"
     inkscape:window-height="1369"
     inkscape:window-x="1912"
     inkscape:window-y="-8"
     inkscape:window-maximized="1"
     inkscape:current-layer="svg4773" /><g
     id="layer1"
     transform="translate(-189.9,-222.14)"
     sodipodi:insensitive="true"><path
       id="path4834"
       style="fill:#ffdf05;fill-opacity:1;stroke:#000000;stroke-opacity:1"
       d="m 345.79,601.06 c -10.725,-0.4181 -26.925,-1.4782 -36,-2.3556 -36.648,-3.5435 -34.346,-3.0691 -39,-8.0383 -2.317,-2.474 -2.5266,-3.524 -2.8627,-14.342 -0.1995,-6.4198 0.16063,-16.622 0.80029,-22.672 1.2282,-11.617 3.2325,-93.777 3.4396,-141 0.12597,-28.718 -0.84859,-40.024 -4.0946,-47.5 l -1.5197,-3.5 -10.779,11.314 c -8.651,9.0806 -11.342,11.329 -13.631,11.392 -2.7841,0.0763 -12.81,-4.3264 -22.853,-10.036 -2.75,-1.5633 -7.25,-4.1199 -10,-5.6812 -2.75,-1.5613 -7.1802,-3.9712 -9.845,-5.3553 -10.356,-5.3791 -12.211,-12.254 -5.9078,-21.899 2.0609,-3.154 3.9734,-5.9596 4.25,-6.2346 0.27655,-0.275 1.7633,-2.8572 3.3039,-5.7382 3.9894,-7.4605 16.324,-26.328 19.449,-29.75 0.6875,-0.75286 1.25,-1.6299 1.25,-1.9489 0,-0.92598 5.3864,-8.1413 15.812,-21.18 8.1974,-10.253 10.843,-12.824 17.188,-16.71 4.125,-2.5261 10.65,-5.7559 14.5,-7.1774 3.85,-1.4215 9.475,-3.7378 12.5,-5.1473 3.025,-1.4095 8.7521,-3.8555 12.727,-5.4356 7.2337,-2.8756 25.935,-12.331 27.723,-14.016 0.5225,-0.49255 1.9675,-0.89554 3.211,-0.89554 1.2436,0 3.1216,-0.92367 4.1734,-2.0526 3.239,-3.4767 6.9346,-3.8269 14.254,-1.3507 10.086,3.4123 31.272,5.1042 43.657,3.4864 5.3652,-0.70083 12.26,-2.1312 15.321,-3.1787 6.9889,-2.391 11.003,-2.412 14.049,-0.0733 1.3117,1.0071 8.0099,4.561 14.885,7.8976 13.095,6.355 35.078,16.773 38.5,18.245 24.772,10.658 28.188,13.639 41.208,35.96 3.0688,5.2612 6.4117,10.781 7.4286,12.265 1.0169,1.4847 4.0469,7.1097 6.7334,12.5 2.6865,5.3903 8.6,17.001 13.141,25.801 5.0261,9.7397 8.2291,17.127 8.1862,18.879 -0.0663,2.7077 -4.4587,8.6207 -6.4039,8.6207 -0.45803,0 -2.7363,1.2097 -5.0629,2.6882 -4.5225,2.874 -12.71,7.3733 -24.585,13.511 -10.176,5.2593 -14.99,5.2579 -20.013,-0.006 -1.9978,-2.0939 -4.7519,-5.3564 -6.1202,-7.25 -2.9538,-4.0876 -9.9078,-10.943 -11.101,-10.943 -1.5445,0 -2.8754,3.7483 -5.0303,14.167 -3.1668,15.311 -3.7738,26.78 -2.77,52.333 0.49696,12.65 1.3267,41.9 1.8438,65 0.5171,23.1 1.4181,53.283 2.0022,67.073 0.75847,17.906 0.75354,25.958 -0.0173,28.169 -1.6058,4.6063 -6.4522,6.4404 -20.94,7.9248 -48.703,4.9902 -52.257,5.256 -68.5,5.1236 -8.25,-0.067 -23.775,-0.4644 -34.5,-0.8826 z" /></g><metadata
     id="metadata1"><rdf:RDF><cc:Work><dc:format>image/svg+xml</dc:format><dc:type
           rdf:resource="http://purl.org/dc/dcmitype/StillImage" /><cc:license
           rdf:resource="http://creativecommons.org/licenses/publicdomain/" /><dc:publisher><cc:Agent
             rdf:about="http://openclipart.org/"><dc:title>Openclipart</dc:title></cc:Agent></dc:publisher><dc:title>Black T-Shirt</dc:title><dc:date>2011-02-08T23:40:04</dc:date><dc:description>A black t-shirt.</dc:description><dc:source>https://openclipart.org/detail/117511/black-t-shirt-by-körnerbrötchen</dc:source><dc:creator><cc:Agent><dc:title>Körnerbrötchen</dc:title></cc:Agent></dc:creator><dc:subject><rdf:Bag><rdf:li>black</rdf:li><rdf:li>shirt</rdf:li><rdf:li>t-shirt</rdf:li></rdf:Bag></dc:subject></cc:Work><cc:License
         rdf:about="http://creativecommons.org/licenses/publicdomain/"><cc:permits
           rdf:resource="http://creativecommons.org/ns#Reproduction" /><cc:permits
           rdf:resource="http://creativecommons.org/ns#Distribution" /><cc:permits
           rdf:resource="http://creativecommons.org/ns#DerivativeWorks" /></cc:License></rdf:RDF></metadata><path
     style="fill:#000000;stroke-width:0.868484"
     d="m 140.44531,243.90733 c -1.29085,-0.28546 -2.24642,-1.05531 -2.70033,-2.17549 -0.25189,-0.62162 -0.32069,-1.47229 -0.1765,-2.18233 0.14591,-0.71855 0.63214,-1.51206 1.21573,-1.98401 0.31871,-0.25773 0.9886,-0.5969 1.40357,-0.71063 0.43789,-0.12001 1.50857,-0.14551 1.99459,-0.0475 0.70453,0.14206 1.42878,0.52054 1.86187,0.97295 l 0.1574,0.16442 -0.32128,0.29908 c -0.1767,0.16449 -0.40442,0.3737 -0.50603,0.46492 l -0.18476,0.16583 -0.2751,-0.22821 c -0.47954,-0.39781 -0.91056,-0.55344 -1.53269,-0.55344 -0.66608,0 -1.20783,0.21421 -1.63674,0.6472 -0.43754,0.44169 -0.60808,0.89429 -0.60909,1.61649 -6.6e-4,0.46757 0.0656,0.77088 0.24536,1.12357 0.63502,1.24576 2.4946,1.53218 3.55123,0.54699 0.26931,-0.2511 0.21673,-0.27149 0.86066,0.33369 l 0.42142,0.39605 -0.27113,0.25618 c -0.4812,0.45468 -1.09527,0.75918 -1.80494,0.895 -0.41188,0.0788 -1.3352,0.0784 -1.69324,-7.6e-4 z m 72.78737,-0.007 c -0.50581,-0.0943 -1.22589,-0.34499 -1.54532,-0.53796 -0.21427,-0.12945 -0.25736,-0.17624 -0.23694,-0.25732 0.036,-0.14291 0.48505,-1.09199 0.51668,-1.09199 0.0146,0 0.10795,0.0513 0.20736,0.11374 0.8803,0.55394 2.359,0.74356 3.08109,0.39511 0.40048,-0.19324 0.51769,-0.63902 0.24842,-0.94473 -0.1898,-0.21548 -0.46718,-0.3253 -1.49253,-0.59093 -0.47983,-0.1243 -0.95819,-0.25692 -1.06304,-0.29469 -0.62976,-0.22693 -1.11055,-0.62998 -1.2754,-1.06918 -0.45084,-1.20113 0.25491,-2.38144 1.65674,-2.77074 0.42535,-0.11813 1.61919,-0.14361 2.14234,-0.0458 0.44408,0.0831 1.08688,0.29787 1.32609,0.44307 l 0.14736,0.0895 -0.23454,0.57537 c -0.129,0.31645 -0.24245,0.58384 -0.25212,0.59421 -0.01,0.0104 -0.16007,-0.0452 -0.33423,-0.12355 -0.77791,-0.34984 -1.53887,-0.46651 -2.1756,-0.33358 -0.53357,0.11141 -0.7866,0.36142 -0.7866,0.77723 0,0.42939 0.2427,0.57527 1.46175,0.87865 1.36274,0.33915 1.73138,0.49358 2.14314,0.89786 0.3748,0.36796 0.48221,0.66354 0.46095,1.2684 -0.0135,0.38431 -0.0357,0.48581 -0.16673,0.76149 -0.27059,0.56948 -0.80501,0.98145 -1.55826,1.20124 -0.46404,0.13541 -1.70194,0.17061 -2.27061,0.0646 z m -65.43515,-0.0553 c 4.9e-4,-0.0193 0.70109,-1.59975 1.55688,-3.51223 l 1.55599,-3.47722 0.79895,-0.0127 0.79895,-0.0127 1.57599,3.5133 1.57598,3.51329 -0.8263,0.0127 c -0.62989,0.01 -0.83514,-0.002 -0.86346,-0.0466 -0.0204,-0.0327 -0.16824,-0.37976 -0.32845,-0.77123 l -0.29129,-0.71178 h -1.64862 -1.64862 l -0.16101,0.38506 c -0.0885,0.21178 -0.23176,0.55833 -0.31824,0.77012 l -0.15725,0.38506 h -0.8102 c -0.44561,0 -0.8098,-0.0158 -0.8093,-0.035 z m 4.48957,-4.05614 c -0.30583,-0.73556 -0.56413,-1.34542 -0.57399,-1.35526 -0.01,-0.01 -0.23455,0.50273 -0.49931,1.13902 -0.26476,0.63628 -0.5196,1.24614 -0.56631,1.35525 l -0.0849,0.19836 h 1.1403 1.14031 z m 7.63685,0.56725 v -3.52389 l 0.66724,5e-5 0.66723,6e-5 1.72549,2.10043 c 0.94902,1.15523 1.74443,2.1121 1.76759,2.12637 0.0247,0.0153 0.0421,-0.85351 0.0421,-2.10049 v -2.12642 h 0.796 0.796 v 3.52389 3.5239 h -0.64943 -0.64944 l -1.77369,-2.15385 -1.77368,-2.15384 -0.0122,2.15384 -0.0122,2.15385 h -0.79554 -0.79553 z m 10.81717,3.48889 c 4.9e-4,-0.0193 0.70109,-1.59975 1.55688,-3.51223 l 1.55599,-3.47722 0.79895,-0.0127 0.79895,-0.0127 1.57599,3.5133 1.57598,3.51329 -0.8263,0.0127 c -0.62989,0.01 -0.83514,-0.002 -0.86346,-0.0466 -0.0204,-0.0327 -0.16824,-0.37976 -0.32845,-0.77123 l -0.29129,-0.71178 h -1.64862 -1.64862 l -0.16101,0.38506 c -0.0885,0.21178 -0.23176,0.55833 -0.31825,0.77012 l -0.15724,0.38506 h -0.8102 c -0.44561,0 -0.8098,-0.0158 -0.8093,-0.035 z m 4.48957,-4.05614 c -0.30583,-0.73556 -0.56413,-1.34542 -0.57399,-1.35526 -0.01,-0.01 -0.23455,0.50273 -0.49931,1.13902 -0.26476,0.63628 -0.5196,1.24614 -0.56631,1.35525 l -0.0849,0.19836 h 1.1403 1.14031 z m 7.68367,0.56356 v -3.52759 l 1.88466,0.0186 c 1.75179,0.0174 1.9104,0.0256 2.24989,0.11907 1.08556,0.29863 1.76335,0.97885 1.93753,1.94447 0.19398,1.07541 -0.23689,2.04638 -1.13136,2.54959 -0.14209,0.0799 -0.25835,0.15664 -0.25835,0.17044 0,0.0139 0.3331,0.50014 0.74021,1.08072 0.40712,0.58058 0.75603,1.08186 0.77536,1.11394 0.0276,0.0459 -0.14856,0.0581 -0.82216,0.0572 l -0.85729,-0.002 -0.67663,-0.979 -0.67662,-0.97901 h -0.7632 -0.76321 v 0.98016 0.98016 h -0.81941 -0.81942 z m 3.79599,0.13788 c 0.11769,-0.054 0.29202,-0.17826 0.38741,-0.27617 0.42334,-0.43451 0.39971,-1.29502 -0.0469,-1.70798 -0.31774,-0.2938 -0.65783,-0.36707 -1.70395,-0.36707 h -0.7937 v 1.24096 1.24093 l 0.97159,-0.0163 c 0.86768,-0.0145 0.99448,-0.0267 1.18557,-0.11442 z m 7.11392,-0.13419 v -3.52389 h 0.81942 0.81941 v 3.52389 3.5239 h -0.81941 -0.81942 z m 5.94751,3.48889 c 5e-4,-0.0193 0.7011,-1.59975 1.55689,-3.51223 l 1.55598,-3.47722 0.79895,-0.0127 0.79896,-0.0127 1.57598,3.5133 1.57599,3.51329 -0.82631,0.0127 c -0.62988,0.01 -0.83514,-0.002 -0.86346,-0.0466 -0.0204,-0.0327 -0.16824,-0.37976 -0.32845,-0.77123 l -0.29129,-0.71178 h -1.64862 -1.64862 l -0.161,0.38506 c -0.0886,0.21178 -0.23177,0.55833 -0.31825,0.77012 l -0.15725,0.38506 h -0.8102 c -0.44561,0 -0.8098,-0.0158 -0.8093,-0.035 z m 4.48957,-4.05614 c -0.30583,-0.73556 -0.56412,-1.34542 -0.57399,-1.35526 -0.01,-0.01 -0.23455,0.50273 -0.49931,1.13902 -0.26475,0.63628 -0.51959,1.24614 -0.56631,1.35525 l -0.0849,0.19836 h 1.14031 1.1403 z m -13.11154,-10.81304 c -0.42488,-0.1579 -0.72312,-0.43789 -0.92622,-0.86953 l -0.1218,-0.25883 v -5.62424 -5.62422 l 0.12399,-0.26362 c 0.15107,-0.3212 0.42229,-0.59994 0.75236,-0.77325 0.22282,-0.117 0.29397,-0.12992 0.71566,-0.12992 0.42169,0 0.49283,0.0129 0.71567,0.12993 0.13609,0.0715 0.32837,0.21305 0.42729,0.31465 l 0.17986,0.18475 0.34996,-0.16118 c 0.79764,-0.36736 1.67123,-0.52294 2.67745,-0.47683 1.40559,0.0644 2.53512,0.5483 3.55857,1.5245 1.11913,1.06745 1.67665,2.26923 1.74551,3.76263 0.0888,1.92659 -0.64695,3.56476 -2.12918,4.7404 -1.02981,0.81682 -2.08028,1.17228 -3.47489,1.17582 -0.93271,0.003 -1.58146,-0.12361 -2.34836,-0.456 -0.0701,-0.0303 -0.079,0.0473 -0.094,0.82151 -0.0157,0.80746 -0.0234,0.86967 -0.13962,1.11736 -0.15979,0.34073 -0.39591,0.59724 -0.70485,0.76571 -0.21637,0.11799 -0.30558,0.13721 -0.69316,0.14936 -0.29072,0.009 -0.5035,-0.008 -0.61422,-0.049 z m 5.20615,-5.61352 c 0.80455,-0.23556 1.48916,-0.90203 1.70535,-1.66013 0.23083,-0.80949 0.0203,-1.67811 -0.56254,-2.32119 -0.75165,-0.82933 -2.09845,-1.01434 -3.02737,-0.41587 -0.73857,0.47584 -1.16219,1.2206 -1.16219,2.04325 0,0.6978 0.21357,1.20455 0.72067,1.71004 0.50896,0.50732 0.98784,0.70954 1.69396,0.71528 0.2176,0.002 0.48564,-0.0285 0.63212,-0.0714 z m -89.48321,3.25348 c -0.46318,-0.1035 -0.89572,-0.44826 -1.1114,-0.88586 l -0.12942,-0.2626 4.9e-4,-2.59042 c 4.9e-4,-2.52422 0.003,-2.60278 0.10743,-3.07461 0.43472,-1.96861 1.97815,-3.62129 3.90048,-4.17658 1.10866,-0.32024 2.55026,-0.27406 3.60044,0.11532 1.49709,0.55513 2.85425,1.93874 3.35975,3.42528 0.26696,0.78503 0.26908,0.81418 0.26908,3.68726 v 2.66042 l -0.13036,0.24664 c -0.17427,0.32968 -0.4541,0.59984 -0.77577,0.74894 -0.37885,0.1756 -0.94553,0.17585 -1.32361,6e-4 -0.34029,-0.15775 -0.59801,-0.39274 -0.76987,-0.70196 l -0.13757,-0.24755 -0.0255,-2.47372 c -0.0247,-2.39319 -0.0289,-2.48384 -0.1292,-2.78411 -0.24919,-0.74611 -0.85955,-1.35094 -1.60115,-1.58665 -0.39402,-0.12524 -0.98772,-0.13209 -1.39704,-0.016 -0.56461,0.15998 -1.16865,0.6516 -1.44882,1.17915 -0.29085,0.54769 -0.29132,0.55259 -0.29132,3.04302 0,2.44551 -0.0132,2.60269 -0.2503,2.97704 -0.15431,0.24367 -0.4669,0.5145 -0.71733,0.6215 -0.2373,0.1014 -0.75148,0.15028 -0.99897,0.095 z m 15.75616,0.0115 c -0.83709,-0.0968 -1.38134,-0.24837 -1.99,-0.55444 -1.59744,-0.8033 -2.74141,-2.31783 -3.04857,-4.03607 -0.0991,-0.55438 -0.0759,-1.65386 0.0471,-2.23449 0.41298,-1.94936 1.97222,-3.62082 3.89613,-4.17656 0.65452,-0.18907 1.14492,-0.22461 2.87468,-0.20831 1.56004,0.0146 1.59695,0.0172 1.83832,0.12595 0.33055,0.14892 0.72362,0.57322 0.83565,0.90202 0.12683,0.37221 0.10889,0.89051 -0.0422,1.21949 -0.14541,0.3166 -0.44812,0.62745 -0.76003,0.78045 -0.23003,0.11282 -0.25341,0.11457 -1.89514,0.14203 -1.79754,0.0301 -1.92772,0.047 -2.38801,0.31111 -0.23663,0.13577 -0.6087,0.43267 -0.6087,0.48571 0,0.0191 1.03772,0.0409 2.30606,0.0485 2.25572,0.0134 2.31089,0.0159 2.52694,0.11545 0.99821,0.45967 1.2656,1.7624 0.52864,2.57552 -0.0964,0.10632 -0.31287,0.26033 -0.48421,0.34445 l -0.30992,0.15213 -2.29262,0.0234 -2.29261,0.0234 0.23127,0.20316 c 0.1272,0.11173 0.3135,0.24507 0.41401,0.29629 0.47246,0.24082 0.47063,0.2406 2.25325,0.26803 l 1.68681,0.026 0.30986,0.15215 c 0.36221,0.17783 0.61036,0.43231 0.77925,0.79907 0.17092,0.37118 0.17158,0.89878 0.002,1.26794 -0.1408,0.30575 -0.36489,0.5725 -0.61112,0.72745 -0.35756,0.22499 -0.59251,0.25114 -2.18909,0.24358 -0.81225,-0.004 -1.54003,-0.0143 -1.61729,-0.0233 z m 10.30121,0.004 c -0.96629,-0.13441 -1.37716,-0.24957 -1.99001,-0.55775 -1.59712,-0.80314 -2.73454,-2.30836 -3.04988,-4.03608 -0.0489,-0.26789 -0.0639,-0.94708 -0.0639,-2.89379 v -2.54374 l 0.12398,-0.26361 c 0.15107,-0.32118 0.42226,-0.59993 0.75236,-0.77329 0.22369,-0.11748 0.29235,-0.12981 0.71566,-0.12845 0.41812,0.002 0.49472,0.0152 0.71567,0.12995 0.31776,0.16497 0.58212,0.4382 0.7462,0.77123 l 0.13014,0.26417 0.0242,2.49706 c 0.0237,2.45339 0.026,2.50165 0.12959,2.75869 0.14953,0.37104 0.34725,0.65057 0.67244,0.95068 0.47242,0.43598 0.97783,0.63132 1.63339,0.63132 1.02046,0 1.97319,-0.69499 2.30338,-1.68026 0.0977,-0.29162 0.10267,-0.3993 0.12759,-2.77711 l 0.0259,-2.47373 0.10868,-0.203 c 0.16549,-0.30913 0.45791,-0.59775 0.75093,-0.74119 0.23236,-0.11375 0.3177,-0.12931 0.70898,-0.12931 0.37768,0 0.48016,0.0173 0.67894,0.11469 0.29919,0.14656 0.62757,0.4739 0.7746,0.77211 l 0.11505,0.23338 0.0147,2.40372 c 0.0157,2.58062 -0.007,2.99035 -0.20862,3.68229 -0.55647,1.91414 -2.25047,3.48613 -4.17881,3.87784 -0.45002,0.0914 -1.45594,0.15663 -1.76113,0.11418 z m 8.07708,-0.0148 c -0.46319,-0.1035 -0.89573,-0.44826 -1.1114,-0.88586 l -0.12943,-0.2626 5e-4,-2.59042 c 4.8e-4,-2.52421 0.003,-2.60278 0.10742,-3.07462 0.31294,-1.4171 1.17625,-2.65914 2.42315,-3.48615 0.94103,-0.62414 2.10576,-0.95425 3.17021,-0.89854 0.32586,0.0171 0.43187,0.0446 0.68237,0.17778 0.32668,0.17357 0.55797,0.42196 0.72094,0.77422 0.0864,0.18674 0.10579,0.30815 0.1038,0.64971 -0.003,0.48096 -0.0907,0.71723 -0.39503,1.06184 -0.28289,0.32037 -0.57667,0.45353 -1.11277,0.50442 -0.25099,0.0239 -0.58864,0.0775 -0.75034,0.11922 -0.55096,0.14224 -1.16884,0.64219 -1.45151,1.17445 -0.29085,0.54769 -0.29132,0.5526 -0.29132,3.04302 0,2.44551 -0.0132,2.60269 -0.25029,2.97704 -0.15432,0.24367 -0.46691,0.5145 -0.71734,0.6215 -0.23729,0.1014 -0.75148,0.15029 -0.99896,0.095 z m 10.32461,0.0148 c -0.96628,-0.13441 -1.37716,-0.24957 -1.99,-0.55775 -1.59744,-0.80331 -2.74141,-2.31783 -3.04857,-4.03608 -0.0991,-0.55438 -0.076,-1.65385 0.0471,-2.23448 0.41298,-1.94935 1.97222,-3.62082 3.89613,-4.17657 1.10867,-0.32024 2.55026,-0.27408 3.60045,0.11532 1.45996,0.54135 2.77806,1.85812 3.32351,3.32013 0.38616,1.03507 0.43107,2.47771 0.11137,3.57741 -0.55647,1.91414 -2.25047,3.48613 -4.17881,3.87784 -0.45003,0.0914 -1.45594,0.15663 -1.76114,0.11418 z m 1.15039,-3.26806 c 0.80455,-0.23557 1.48916,-0.90203 1.70534,-1.66012 0.23084,-0.80948 0.0203,-1.67811 -0.56253,-2.32121 -0.75165,-0.82932 -2.09845,-1.01432 -3.02738,-0.41586 -0.73856,0.47584 -1.16218,1.22061 -1.16218,2.04326 0,0.69779 0.21357,1.20454 0.72067,1.71002 0.50896,0.50734 0.98784,0.70955 1.69396,0.7153 0.2176,0.002 0.48563,-0.0285 0.63212,-0.0714 z m 6.92669,3.25145 c -0.45753,-0.0972 -0.89518,-0.44535 -1.1114,-0.88407 l -0.12943,-0.2626 v -4.43404 -4.43404 l 0.12399,-0.26361 c 0.15106,-0.32118 0.42226,-0.59993 0.75236,-0.77329 0.22368,-0.11748 0.29234,-0.12981 0.71566,-0.12845 0.41811,0.002 0.49472,0.0152 0.71567,0.12995 0.31776,0.16497 0.58212,0.4382 0.74619,0.77123 l 0.13014,0.26417 0.0134,3.41529 0.0134,3.41529 1.4147,0.0153 1.41469,0.0152 0.26345,0.12898 c 0.31168,0.15261 0.66316,0.51018 0.80371,0.81765 0.14309,0.31301 0.14309,0.96746 0,1.28048 -0.14055,0.30745 -0.49221,0.66522 -0.80379,0.81775 l -0.26337,0.12893 -2.31777,0.008 c -1.27477,0.004 -2.39151,-0.009 -2.48165,-0.0274 z m 7.67908,0.002 c -0.46319,-0.10349 -0.89573,-0.44825 -1.1114,-0.88585 l -0.12943,-0.26262 v -4.43403 -4.43403 l 0.12399,-0.26362 c 0.15106,-0.32118 0.42226,-0.59992 0.75236,-0.77329 0.22368,-0.11748 0.29234,-0.1298 0.71566,-0.12845 0.41811,0.002 0.49472,0.0152 0.71567,0.12996 0.31776,0.16495 0.58212,0.43819 0.74619,0.77123 l 0.13014,0.26417 0.0131,4.28739 c 0.0142,4.6491 0.0162,4.60814 -0.23937,5.01166 -0.15489,0.24459 -0.46717,0.51534 -0.71797,0.62249 -0.23729,0.1014 -0.75147,0.15028 -0.99896,0.095 z m 4.07366,0 c -0.46319,-0.10349 -0.89573,-0.44825 -1.1114,-0.88585 l -0.12943,-0.26262 5e-4,-2.59041 c 4.8e-4,-2.5242 0.003,-2.60278 0.10742,-3.07461 0.43473,-1.9686 1.97816,-3.62128 3.90048,-4.17657 1.10866,-0.32025 2.55026,-0.27406 3.60044,0.11532 0.62864,0.23311 1.48143,0.76998 1.86741,1.17565 l 0.15834,0.16642 0.33331,-0.28609 c 0.74333,-0.63803 1.62731,-1.08807 2.5106,-1.27817 0.5938,-0.1278 1.924,-0.11795 2.51396,0.0186 1.86314,0.43125 3.45691,1.87356 4.0607,3.6748 0.2528,0.75415 0.26582,0.94918 0.25141,3.76406 l -0.0132,2.58434 -0.13757,0.24754 c -0.17185,0.30923 -0.42958,0.54422 -0.76987,0.70196 -0.21782,0.10097 -0.33171,0.12216 -0.66115,0.123 -0.34164,7.5e-4 -0.43552,-0.0174 -0.663,-0.12872 -0.34838,-0.17053 -0.62824,-0.44743 -0.78144,-0.77317 l -0.12415,-0.26396 -0.0249,-2.47372 c -0.0243,-2.41085 -0.0276,-2.48075 -0.12897,-2.75 -0.41381,-1.09891 -1.5151,-1.77076 -2.64381,-1.61289 -0.85779,0.11997 -1.64768,0.76849 -1.96449,1.61289 -0.10093,0.26899 -0.10433,0.34205 -0.12897,2.77333 l -0.0253,2.49706 -0.13037,0.24665 c -0.17426,0.32968 -0.45409,0.59983 -0.77577,0.74893 -0.37884,0.17561 -0.94553,0.17586 -1.32361,6e-4 -0.34029,-0.15774 -0.59801,-0.39273 -0.76987,-0.70196 l -0.13757,-0.24754 -0.0255,-2.47372 c -0.0247,-2.3932 -0.0289,-2.48384 -0.1292,-2.78411 -0.2492,-0.74612 -0.85956,-1.35095 -1.60116,-1.58666 -0.39402,-0.12524 -0.98771,-0.13208 -1.39704,-0.016 -0.56461,0.15997 -1.16865,0.65159 -1.44881,1.17915 -0.29086,0.54768 -0.29133,0.55259 -0.29133,3.04302 0,2.44551 -0.0132,2.60268 -0.25029,2.97704 -0.15431,0.24367 -0.46691,0.5145 -0.71734,0.62151 -0.23729,0.10139 -0.75148,0.15027 -0.99896,0.095 z m 32.12102,0 c -0.46319,-0.10349 -0.89573,-0.44825 -1.1114,-0.88585 l -0.12942,-0.26262 v -4.43403 -4.43403 l 0.12398,-0.26362 c 0.15107,-0.32118 0.42226,-0.59992 0.75236,-0.77329 0.22369,-0.11748 0.29234,-0.1298 0.71566,-0.12845 0.41811,0.002 0.49472,0.0152 0.71567,0.12996 0.31776,0.16495 0.58212,0.43819 0.74619,0.77123 l 0.13014,0.26417 0.0131,4.28739 c 0.0142,4.6491 0.0162,4.60814 -0.23937,5.01166 -0.15489,0.24459 -0.46717,0.51534 -0.71796,0.62249 -0.2373,0.1014 -0.75148,0.15028 -0.99897,0.095 z m 7.79614,0.0115 c -0.83709,-0.0967 -1.38134,-0.24837 -1.99001,-0.55444 -1.59743,-0.8033 -2.7414,-2.31784 -3.04856,-4.03607 -0.0991,-0.55438 -0.076,-1.65387 0.0471,-2.23449 0.41298,-1.94936 1.97222,-3.62082 3.89613,-4.17657 1.24253,-0.35891 2.83017,-0.25717 3.91828,0.2511 l 0.39797,0.18591 0.22893,-0.21345 c 0.35439,-0.33045 0.58553,-0.41681 1.11551,-0.41685 0.37772,-4e-5 0.48014,0.0172 0.67894,0.11465 0.29918,0.14655 0.62756,0.47389 0.77459,0.77212 l 0.11506,0.23337 v 4.48072 4.4807 l -0.13037,0.24664 c -0.17426,0.32969 -0.45409,0.59985 -0.77576,0.74894 -0.2194,0.10171 -0.33245,0.12276 -0.66345,0.1236 -0.35714,7.5e-4 -0.43161,-0.015 -0.71005,-0.15163 -0.17109,-0.084 -0.37681,-0.22729 -0.45715,-0.3185 l -0.14608,-0.16585 -0.45114,0.19289 c -0.83731,0.358 -1.96351,0.53386 -2.7999,0.43721 z m 1.15039,-3.26474 c 0.80455,-0.23558 1.48916,-0.90204 1.70534,-1.66013 0.23084,-0.80949 0.0203,-1.6781 -0.56254,-2.3212 -0.75164,-0.82933 -2.09844,-1.01432 -3.02737,-0.41586 -0.73856,0.47583 -1.16218,1.2206 -1.16218,2.04325 0,0.69779 0.21357,1.20455 0.72067,1.71003 0.50896,0.50733 0.98784,0.70955 1.69396,0.71529 0.2176,0.002 0.48563,-0.0285 0.63212,-0.0714 z m 10.78964,3.26474 c -0.83709,-0.0967 -1.38134,-0.24837 -1.99,-0.55444 -1.59744,-0.8033 -2.74141,-2.31784 -3.04857,-4.03607 -0.0991,-0.55438 -0.076,-1.65387 0.0471,-2.23449 0.41298,-1.94936 1.97222,-3.62082 3.89613,-4.17657 1.16203,-0.33567 2.76976,-0.26036 3.75987,0.17612 0.18978,0.0837 0.27178,0.10106 0.28567,0.0607 0.0107,-0.0311 0.0256,-0.44526 0.033,-0.92017 0.0134,-0.85671 0.0146,-0.8654 0.15111,-1.11102 0.17185,-0.30922 0.42958,-0.5442 0.76987,-0.70195 0.37808,-0.17526 0.94476,-0.17501 1.32361,6e-4 0.32167,0.1491 0.6015,0.41925 0.77577,0.74893 l 0.13036,0.24664 v 5.69425 5.69423 l -0.13036,0.24663 c -0.17427,0.3297 -0.4541,0.59985 -0.77577,0.74895 -0.2194,0.10169 -0.33245,0.12275 -0.66345,0.12359 -0.35713,7.6e-4 -0.43161,-0.015 -0.71005,-0.15164 -0.17109,-0.084 -0.37681,-0.22728 -0.45715,-0.31849 l -0.14608,-0.16584 -0.45114,0.19287 c -0.83731,0.35802 -1.96351,0.53387 -2.7999,0.43723 z m 1.15039,-3.26474 c 0.80455,-0.23558 1.48916,-0.90204 1.70534,-1.66013 0.23084,-0.80949 0.0203,-1.6781 -0.56253,-2.3212 -0.75165,-0.82933 -2.09845,-1.01432 -3.02738,-0.41586 -0.73856,0.47583 -1.16218,1.2206 -1.16218,2.04325 0,0.69779 0.21357,1.20455 0.72067,1.71003 0.50896,0.50733 0.98784,0.70955 1.69396,0.71529 0.2176,0.002 0.48564,-0.0285 0.63212,-0.0714 z m 10.78964,3.26474 c -0.83709,-0.0967 -1.38134,-0.24837 -1.99,-0.55444 -1.59744,-0.8033 -2.74141,-2.31784 -3.04857,-4.03607 -0.0991,-0.55438 -0.0759,-1.65387 0.0471,-2.23449 0.41298,-1.94936 1.97222,-3.62082 3.89613,-4.17657 1.24253,-0.35891 2.83018,-0.25717 3.91828,0.2511 l 0.39798,0.18591 0.22892,-0.21345 c 0.35439,-0.33045 0.58553,-0.41681 1.11551,-0.41685 0.37772,-4e-5 0.48014,0.0172 0.67894,0.11465 0.29918,0.14655 0.62756,0.47389 0.77459,0.77212 l 0.11506,0.23337 v 4.48072 4.4807 l -0.13036,0.24664 c -0.17427,0.32969 -0.4541,0.59985 -0.77577,0.74894 -0.2194,0.10171 -0.33245,0.12276 -0.66345,0.1236 -0.35713,7.5e-4 -0.43161,-0.015 -0.71005,-0.15163 -0.17109,-0.084 -0.37681,-0.22729 -0.45715,-0.3185 l -0.14608,-0.16585 -0.45113,0.19289 c -0.83732,0.358 -1.96352,0.53386 -2.79991,0.43721 z m 1.15039,-3.26474 c 0.80455,-0.23558 1.48916,-0.90204 1.70535,-1.66013 0.23083,-0.80949 0.0203,-1.6781 -0.56254,-2.3212 -0.75165,-0.82933 -2.09845,-1.01432 -3.02737,-0.41586 -0.73857,0.47583 -1.16219,1.2206 -1.16219,2.04325 0,0.69779 0.21357,1.20455 0.72067,1.71003 0.50896,0.50733 0.98784,0.70955 1.69396,0.71529 0.2176,0.002 0.48564,-0.0285 0.63212,-0.0714 z m 7.11399,3.25208 c -0.46146,-0.0999 -0.89817,-0.44837 -1.10866,-0.88471 -0.10941,-0.22679 -0.12646,-0.31988 -0.12503,-0.68266 0.001,-0.32245 0.0244,-0.47072 0.0993,-0.63802 0.11608,-0.25904 0.38681,-0.56924 0.63075,-0.72275 0.37762,-0.23762 0.52471,-0.24949 3.09086,-0.24949 h 2.3803 l 0.11493,-0.11456 c 0.14267,-0.14223 0.15259,-0.38522 0.0224,-0.55013 l -0.0925,-0.11721 -1.69853,-0.0257 c -1.7718,-0.0268 -2.02696,-0.0524 -2.63125,-0.26303 -1.19567,-0.4169 -1.82493,-1.40884 -1.9264,-3.03669 -0.0546,-0.87612 0.0824,-1.66785 0.40082,-2.3164 0.31714,-0.64591 0.77767,-1.06016 1.48149,-1.33257 0.65969,-0.25534 0.98283,-0.27689 3.92671,-0.26191 l 2.66895,0.0136 0.24632,0.11098 c 0.33054,0.14892 0.72361,0.57321 0.83565,0.90201 0.12683,0.37222 0.10888,0.89051 -0.0422,1.2195 -0.14541,0.3166 -0.44813,0.62744 -0.76004,0.78043 l -0.2329,0.11424 -2.52847,0.0234 c -2.60485,0.0241 -2.68696,0.0303 -2.75709,0.21255 -0.0663,0.17214 -0.0282,0.39916 0.086,0.51301 l 0.11493,0.11457 h 1.4666 c 0.80663,0 1.64514,0.0214 1.86337,0.0477 1.26662,0.15229 2.11622,0.71892 2.55254,1.70236 0.35051,0.79003 0.42943,2.18891 0.18009,3.19209 -0.28865,1.16132 -1.06128,1.88937 -2.31245,2.17904 -0.30869,0.0715 -0.67974,0.0828 -3.06695,0.0936 -1.49367,0.007 -2.78952,-0.004 -2.87965,-0.0232 z"
     id="path2" /><path
     style="fill:#000000;stroke-width:0.922047"
     d="m 192.2153,206.42724 c -0.18525,-0.0486 -0.42892,-0.13461 -0.54149,-0.1913 -1.22853,-0.6188 -2.23884,-2.1554 -2.6383,-4.01263 -0.14679,-0.68249 -0.14916,-1.97983 -0.005,-2.59754 0.25518,-1.09152 0.8806,-2.3705 1.65459,-3.38362 0.29675,-0.38845 1.12334,-1.23346 1.6178,-1.65384 1.26217,-1.07315 3.13432,-2.16557 5.38134,-3.14004 0.9067,-0.39322 4.06319,-1.6743 4.12536,-1.6743 0.0205,0 -0.26604,0.44985 -0.63682,0.99964 -1.49002,2.20941 -2.26991,3.72688 -2.77425,5.39797 -0.33698,1.11655 -0.47943,2.02132 -0.54808,3.48103 -0.0843,1.79158 -0.3094,2.82461 -0.85461,3.92119 -0.32313,0.64993 -0.6109,1.06213 -1.09657,1.57071 -0.67532,0.7072 -1.48669,1.18255 -2.2613,1.32482 -0.41885,0.077 -1.0385,0.0586 -1.42291,-0.0421 z m -5.85081,-9.06117 c -0.42847,-1.01869 -1.16997,-2.24401 -1.94693,-3.21725 -0.52594,-0.65881 -1.61543,-1.85764 -2.13469,-2.34894 -1.77186,-1.6764 -3.93104,-2.82293 -6.16322,-3.27271 -1.07685,-0.21699 -1.28825,-0.23131 -3.46141,-0.23466 -2.23707,-0.004 -2.36978,-0.0149 -2.86081,-0.24448 -0.73104,-0.34197 -0.84067,-1.38847 -0.21793,-2.08044 0.48636,-0.54043 1.28561,-0.84102 3.33772,-1.25525 0.44025,-0.0889 1.12889,-0.2039 1.53029,-0.2556 1.1836,-0.15244 1.63941,-0.23523 2.22215,-0.40359 2.5264,-0.72989 4.22543,-2.26969 4.78105,-4.33293 0.11249,-0.41774 0.12413,-0.54198 0.12687,-1.35373 0.002,-0.70239 -0.0156,-0.97939 -0.084,-1.29364 -0.3132,-1.43899 -1.01247,-2.77417 -2.34304,-4.47383 -0.82309,-1.05141 -1.2136,-1.58768 -1.3455,-1.8477 -0.3407,-0.67171 -0.0787,-1.426 0.54094,-1.55696 0.40799,-0.0863 1.49388,0.40337 2.37505,1.0709 0.7857,0.5952 2.72007,2.52098 3.60569,3.58967 1.17072,1.4127 2.15889,3.02094 2.85127,4.64044 2.04735,4.78873 2.14447,10.44001 0.28805,16.76057 -0.22869,0.77861 -0.81258,2.51954 -0.86237,2.57124 -0.0173,0.0179 -0.12493,-0.18953 -0.23916,-0.46111 z m 8.61255,-7.63599 c -0.7656,-0.10627 -1.42047,-0.43028 -1.95408,-0.96683 -0.43866,-0.44104 -0.63938,-0.75977 -0.83428,-1.32467 -0.74102,-2.14779 0.90527,-4.44207 3.18435,-4.43772 0.58669,8.6e-4 1.00716,0.099 1.53453,0.35733 0.37944,0.18582 0.51229,0.28434 0.87541,0.64916 0.69073,0.69398 0.97772,1.3836 0.98051,2.35614 0.002,0.6083 -0.0776,0.95366 -0.34575,1.50533 -0.32505,0.66865 -0.79502,1.15073 -1.4652,1.50298 -0.56127,0.295 -1.37203,0.44204 -1.97549,0.35828 z m 8.26878,-1.2846 c -0.0538,-0.73386 -0.21601,-2.04014 -0.35869,-2.88876 -0.6707,-3.98911 -2.02546,-6.49902 -4.32926,-8.02063 -1.76705,-1.16711 -4.04877,-1.7624 -7.36661,-1.922 -1.07412,-0.0517 -1.19066,-0.065 -1.66675,-0.19147 -0.41396,-0.10991 -0.80964,-0.3033 -1.27201,-0.6217 -0.85927,-0.59169 -1.10487,-1.21467 -0.7548,-1.91455 0.29598,-0.59175 1.1714,-1.31789 2.12621,-1.76364 0.91498,-0.42717 1.76457,-0.62797 3.78754,-0.89516 2.1361,-0.28214 2.90259,-0.43311 3.82194,-0.7528 4.0195,-1.39777 6.19228,-5.29119 5.16252,-9.25076 -0.33134,-1.27401 -0.73293,-1.99039 -2.02604,-3.61405 -0.83768,-1.05182 -1.08936,-1.64209 -1.0521,-2.46755 0.0232,-0.51346 0.15502,-0.83957 0.4633,-1.1459 0.82424,-0.81903 2.33283,-0.85636 3.52304,-0.0871 0.57384,0.37086 0.98948,0.81749 1.90696,2.04916 3.69823,4.96466 5.76938,8.51638 6.86077,11.76528 0.47412,1.41138 0.68448,2.38007 0.82746,3.81033 0.11361,1.13653 0.11424,3.28385 10e-4,4.25723 -0.4016,3.45964 -1.70662,6.30727 -4.20898,9.18425 -0.62527,0.71887 -2.22252,2.29923 -2.97891,2.94738 -0.5026,0.43069 -1.87525,1.54048 -2.26512,1.83136 l -0.16978,0.12668 z m -41.88823,-1.14723 c -2.64923,-0.23428 -4.64547,-0.75021 -6.72295,-1.73758 -1.30387,-0.6197 -2.00394,-1.07374 -2.56708,-1.66495 -0.64316,-0.67519 -0.90114,-1.27745 -0.89751,-2.09523 0.002,-0.38428 0.0255,-0.5393 0.12996,-0.84674 0.36254,-1.06701 1.16313,-1.84689 2.12891,-2.0738 0.24481,-0.0575 0.4685,-0.0705 0.91285,-0.053 0.74327,0.0294 1.20794,0.15922 2.04824,0.57257 1.29157,0.63535 1.99366,1.18922 3.79043,2.99011 1.73793,1.74193 2.61023,2.48529 3.72877,3.17756 0.95704,0.59232 2.18433,1.09021 3.13723,1.2727 0.2366,0.0453 0.4231,0.0894 0.41443,0.0981 -0.0239,0.0239 -1.23728,0.19094 -2.00679,0.27625 -0.64835,0.0719 -3.55857,0.13152 -4.09649,0.084 z m 12.94867,-5.03616 c -1.73885,-0.28853 -3.09797,-1.47879 -3.53796,-3.09843 -0.13289,-0.48918 -0.14675,-1.4835 -0.0273,-1.96084 0.50706,-2.02682 2.15839,-3.32752 4.22449,-3.32752 1.99921,0 3.7061,1.23926 4.20139,3.05035 0.14062,0.51417 0.1397,1.52395 -0.002,2.04221 -0.12795,0.46843 -0.42022,1.09129 -0.6856,1.46109 -0.24241,0.33779 -0.84882,0.93441 -1.17502,1.15605 -0.38632,0.26249 -1.00795,0.52601 -1.4614,0.6195 -0.39989,0.0824 -1.20505,0.11263 -1.53672,0.0575 z m -8.96358,-0.23044 c -0.83698,-0.20241 -1.53629,-0.93358 -1.71926,-1.79758 -0.19479,-0.91989 0.19911,-1.87804 0.9886,-2.40474 0.39463,-0.26327 0.81452,-0.38773 1.31292,-0.38912 0.66922,-0.002 1.21385,0.23389 1.68082,0.7277 0.44871,0.47447 0.64512,0.96913 0.63923,1.60982 -0.014,1.52575 -1.41485,2.6136 -2.90231,2.25392 z m -18.8319,-1.07798 c -0.41947,-0.11517 -0.75152,-0.31848 -1.11536,-0.68287 -0.59786,-0.59874 -1.04183,-1.47696 -1.62559,-3.21559 -0.71663,-2.13434 -1.02325,-3.92223 -1.02558,-5.9801 -0.002,-1.53559 0.13211,-2.64734 0.49107,-4.07918 0.64287,-2.56426 1.93001,-5.07396 3.79508,-7.39977 2.73122,-3.40593 6.29818,-5.52138 10.70156,-6.34678 1.40826,-0.26398 3.30166,-0.43574 4.26129,-0.38655 1.70247,0.0871 3.74201,0.47459 5.23942,0.99502 2.65128,0.92149 4.43599,2.27247 4.78858,3.62483 0.21625,0.82949 -0.0534,1.93911 -0.63623,2.61785 -0.23184,0.27 -0.79155,0.65115 -1.16095,0.7906 -0.85788,0.32383 -1.76551,0.45555 -3.56869,0.51786 -1.5257,0.0528 -2.11822,0.10145 -3.13946,0.25817 -2.65577,0.40755 -4.97783,1.35094 -6.93756,2.81856 -0.67437,0.50502 -1.92211,1.72777 -2.46551,2.4161 -1.0062,1.27459 -1.85173,2.81524 -2.44955,4.46338 -0.50633,1.3959 -0.7766,2.44143 -1.32758,5.13565 -0.49137,2.40271 -0.6366,2.90201 -1.00562,3.45743 -0.34,0.51176 -0.77409,0.82008 -1.36831,0.97191 -0.42793,0.10935 -1.09885,0.12022 -1.45101,0.0234 z m 45.9233,-0.39666 c -0.37244,-0.1132 -0.74089,-0.46673 -0.84371,-0.80958 -0.24986,-0.83317 0.31188,-1.63966 1.14209,-1.63966 0.38488,0 0.61256,0.0785 0.86029,0.29626 0.56024,0.49267 0.59093,1.30052 0.0692,1.82174 -0.3208,0.3205 -0.82004,0.45518 -1.22788,0.33124 z m -31.28838,-4.28895 c -1.47416,-0.21224 -2.85896,-1.09871 -3.70894,-2.37423 -0.44619,-0.6696 -0.69355,-1.2567 -0.86462,-2.05213 -0.11643,-0.54136 -0.11562,-1.65341 0.002,-2.20133 0.58196,-2.72002 3.04937,-4.50413 5.9139,-4.27617 0.92393,0.0735 1.85528,0.39343 2.5955,0.89141 0.65512,0.44076 1.37084,1.29231 1.71454,2.03996 0.64461,1.40222 0.70777,3.11289 0.16922,4.58279 -0.46883,1.27957 -1.44778,2.33733 -2.70962,2.92778 -0.90074,0.42148 -2.12751,0.6036 -3.1116,0.46192 z m 23.38014,-7.08569 c -1.20382,-1.91584 -3.0345,-3.4092 -5.44035,-4.4379 -0.88313,-0.37762 -1.8806,-1.10377 -2.44529,-1.78016 -0.73508,-0.88045 -1.12446,-1.78493 -1.18636,-2.7557 -0.0699,-1.09688 0.43025,-2.03084 1.30991,-2.4459 0.58505,-0.27605 0.86368,-0.32994 1.68608,-0.32613 0.63169,0.003 0.79129,0.0198 1.18684,0.12612 0.54858,0.14733 1.16487,0.42808 1.56033,0.71081 0.37619,0.26897 1.1586,1.07534 1.53347,1.58045 1.11682,1.50482 1.71395,3.23076 1.9615,5.66954 0.064,0.63063 0.15666,4.07123 0.10957,4.06889 -0.0102,-5.1e-4 -0.13431,-0.18501 -0.2757,-0.41002 z m -13.01722,-0.58252 c -0.10139,-0.0237 -0.31328,-0.10663 -0.47086,-0.18418 -1.28382,-0.63172 -1.71642,-2.24762 -0.92759,-3.46486 0.43768,-0.6754 1.14324,-1.04947 1.97946,-1.04947 0.71109,0 1.28001,0.2392 1.74174,0.73233 0.90607,0.96767 0.88901,2.38604 -0.0399,3.31836 -0.49278,0.49457 -1.0026,0.70384 -1.69502,0.69574 -0.2219,-0.003 -0.48642,-0.0241 -0.58782,-0.048 z m 21.4908,-1.7771 c -1.22979,-0.27172 -2.28595,-0.94323 -3.02415,-1.92275 -1.57716,-2.09274 -1.37741,-4.81641 0.49006,-6.68209 0.68146,-0.68082 1.51639,-1.16571 2.41638,-1.40337 0.40726,-0.10754 0.56626,-0.12449 1.17715,-0.12559 0.77736,-0.002 1.09513,0.0519 1.77079,0.29599 0.73728,0.26653 1.52113,0.80644 2.03428,1.40121 0.86266,0.99987 1.30411,2.16472 1.30357,3.43977 -9.9e-4,2.38824 -1.50553,4.33867 -3.81378,4.94405 -0.57659,0.15122 -1.78604,0.17832 -2.3543,0.0528 z m -6.02701,-11.15739 c -1.41562,-0.0897 -2.90617,-0.48962 -5.10884,-1.3705 -3.00209,-1.20061 -5.53743,-1.9534 -8.73447,-2.59342 -3.15758,-0.63214 -6.43597,-0.94789 -8.61222,-0.82943 -0.47661,0.0259 -0.87339,0.0403 -0.88173,0.0321 -0.031,-0.031 1.01719,-0.81295 1.65413,-1.23392 1.25867,-0.83188 2.36284,-1.39327 3.81619,-1.94021 2.14924,-0.80883 4.365,-1.36807 6.65452,-1.67956 2.25808,-0.30721 5.16195,-0.34291 7.51616,-0.0924 2.14865,0.22859 4.75064,0.74148 5.73955,1.13131 1.55833,0.61431 2.81454,1.64644 3.37128,2.76994 0.27456,0.55406 0.38229,1.02056 0.38573,1.67039 0.0107,2.01227 -1.08145,3.40002 -3.06931,3.90015 -0.8607,0.21656 -1.78071,0.29596 -2.73099,0.23569 z"
     id="path3" /><path
     style="fill:#000000;stroke-width:0.883793"
     d="m 224.56898,95.455329 c -0.65142,-0.235796 -0.91717,-1.053143 -0.79942,-2.45881 0.0795,-0.949633 0.2098,-1.104173 1.48488,-1.761654 1.13357,-0.584515 1.20294,-0.666523 1.08025,-1.277189 -0.0517,-0.257565 -0.10463,-0.30488 -0.36962,-0.330714 -0.39452,-0.03846 -0.46796,0.04221 -0.54717,0.601014 l -0.0647,0.456317 h -0.73912 -0.73912 l 0.0141,-0.62794 c 0.0244,-1.086105 0.41201,-1.481051 1.61649,-1.647284 1.04786,-0.144615 2.16688,0.270199 2.4003,0.889774 0.0477,0.126695 0.0893,1.288652 0.0923,2.582128 0.005,2.061301 0.0455,2.776506 0.18952,3.332266 0.0303,0.116821 -0.10149,0.140074 -0.79376,0.140074 -0.77124,0 -0.83751,-0.01508 -0.93509,-0.21259 -0.0971,-0.196507 -0.11479,-0.200685 -0.23406,-0.05523 -0.17368,0.211792 -0.81462,0.498373 -1.10064,0.492125 -0.12723,-0.0032 -0.37707,-0.0578 -0.55519,-0.122279 z m 1.55246,-1.414638 c 0.1879,-0.132814 0.20566,-0.221715 0.20566,-1.029582 v -0.884217 l -0.27492,0.143466 c -0.51094,0.266638 -0.65041,0.499355 -0.65041,1.085245 0,0.294271 0.0253,0.601506 0.0562,0.682745 0.0717,0.188567 0.39841,0.189721 0.6635,0.0024 z m 6.77972,1.351689 c -0.6216,-0.222594 -0.9689,-0.547309 -1.18239,-1.105483 -0.14522,-0.379692 -0.16357,-0.794343 -0.16357,-3.695983 0,-3.191482 0.005,-3.277366 0.20414,-3.653432 0.291,-0.548985 0.68504,-0.844878 1.42865,-1.072813 0.53143,-0.162896 0.769,-0.186957 1.31244,-0.132923 0.36495,0.03629 0.70518,0.09862 0.75607,0.138533 0.0509,0.0399 0.20384,0.09935 0.33987,0.132094 0.3629,0.08736 0.81901,0.511887 1.01299,0.942844 0.15473,0.343754 0.16987,0.676956 0.16987,3.739076 0,3.7397 -0.0146,3.840414 -0.63489,4.367095 -0.63508,0.53928 -2.22319,0.706261 -3.24318,0.340992 z m 1.84995,-1.490031 c 0.18339,-0.185076 0.18786,-0.276754 0.16193,-3.322615 -0.0253,-2.9761 -0.0356,-3.138894 -0.20628,-3.264746 -0.26363,-0.194409 -0.84909,-0.168203 -1.06291,0.04758 -0.26527,0.267705 -0.29967,0.731558 -0.2674,3.606238 0.0344,3.063623 0.0493,3.123877 0.7718,3.123877 0.29347,0 0.46925,-0.05549 0.60286,-0.190327 z m 14.01517,1.61599 c -0.68452,-0.172965 -0.97159,-0.774989 -0.97159,-2.037525 0,-1.418238 0.1105,-1.56397 1.83722,-2.422998 l 0.75081,-0.373523 0.001,-0.480255 c 0.002,-0.508653 -0.0714,-0.593619 -0.50959,-0.593619 -0.27283,0 -0.35046,0.123188 -0.41189,0.653663 l -0.0487,0.420211 -0.71853,0.0273 c -0.60235,0.02289 -0.72814,0.002 -0.77795,-0.12897 -0.093,-0.2446 0.12244,-1.435049 0.29442,-1.626831 0.58206,-0.649055 2.38627,-0.77753 3.21207,-0.228725 0.65305,0.434012 0.66792,0.508197 0.7197,3.591383 0.0254,1.515096 0.0671,2.817749 0.0925,2.894788 0.0388,0.117594 -0.0874,0.140074 -0.78653,0.140074 -0.79319,0 -0.8342,-0.01 -0.86236,-0.210106 -0.0371,-0.263845 -0.0673,-0.262352 -0.39948,0.01976 -0.39641,0.336609 -0.94909,0.474768 -1.42161,0.355379 z m 1.41367,-1.477648 c 0.18918,-0.133723 0.20565,-0.220087 0.20565,-1.07836 v -0.932995 l -0.41561,0.288569 c -0.24715,0.171599 -0.44263,0.391066 -0.48226,0.541423 -0.0855,0.32435 -0.0883,0.952662 -0.005,1.163312 0.0799,0.20252 0.42385,0.211422 0.69742,0.01805 z m -31.07128,1.289273 c -4.8e-4,-0.03851 -0.0109,-2.160586 -0.0231,-4.715705 l -0.0223,-4.645674 h 0.90119 l 0.90119,10e-7 0.0241,3.94532 0.0241,3.945318 1.1104,0.01472 c 0.61071,0.0081 1.16244,0.0186 1.22606,0.02334 0.0822,0.006 0.11566,0.224887 0.11566,0.755664 v 0.747049 h -2.12825 c -1.17054,0 -2.12865,-0.03156 -2.12913,-0.07007 z m 18.7575,0.01117 c -0.0358,-0.03608 -0.065,-2.159671 -0.065,-4.71907 v -4.653453 h 0.87992 0.87992 l -0.024,4.692362 -0.024,4.692363 -0.79091,0.02671 c -0.435,0.01468 -0.82017,-0.0032 -0.85593,-0.03891 z m 2.77609,1.1e-4 c -0.0358,-0.03616 -0.0651,-1.592494 -0.0651,-3.458545 v -3.392843 h 0.83393 0.83393 l -0.0243,3.431727 -0.0243,3.431729 -0.74454,0.02679 c -0.40949,0.01476 -0.77384,-0.0032 -0.80966,-0.0389 z m 3.60983,-0.0078 c -0.0487,-0.08601 -0.34439,-1.355803 -0.62597,-2.688339 -0.10853,-0.513592 -0.2949,-1.354015 -0.41416,-1.867607 -0.11927,-0.513593 -0.25804,-1.165816 -0.30839,-1.449388 -0.0504,-0.283571 -0.10513,-0.577718 -0.12173,-0.653662 -0.0249,-0.113879 0.11576,-0.138078 0.80261,-0.138078 h 0.83279 l 0.11065,0.840423 c 0.0609,0.462232 0.17452,1.218613 0.25258,1.680845 0.078,0.462234 0.17127,1.05053 0.20714,1.307325 l 0.0652,0.466902 0.11039,-0.653661 c 0.0607,-0.359515 0.19866,-1.199939 0.30657,-1.867608 0.1079,-0.66767 0.23041,-1.340009 0.27223,-1.494086 l 0.0761,-0.28014 0.80324,-0.02698 c 0.91574,-0.03076 0.88673,-0.06549 0.66722,0.798778 -0.31174,1.227407 -0.83701,3.438189 -1.03157,4.341705 -0.0748,0.347186 -0.20858,0.872448 -0.29737,1.167254 l -0.16145,0.536008 -0.75215,0.02703 c -0.41369,0.01484 -0.77095,-0.0062 -0.79391,-0.04672 z m -3.67495,-8.520975 V 85.96841 h 0.83639 0.8364 l -0.0267,0.817079 -0.0267,0.817078 -0.80966,0.02698 -0.80966,0.02698 z M 221.7291,85.348746 c -0.0852,-0.224053 0.092,-0.447501 0.39766,-0.5015 0.18676,-0.03299 0.27647,-0.109331 0.29671,-0.252493 0.016,-0.112861 -0.14198,-0.909047 -0.35097,-1.769301 -0.20898,-0.860256 -0.36777,-1.650089 -0.35287,-1.755186 0.0185,-0.130351 0.10796,-0.200474 0.28152,-0.220627 0.30727,-0.03568 0.37252,0.101803 0.52447,1.105074 0.20489,1.352807 0.31599,1.368931 0.47112,0.06837 0.0628,-0.526431 0.15585,-1.009675 0.2068,-1.073873 0.12116,-0.152663 0.52562,-0.150475 0.58404,0.0032 0.0251,0.06594 -0.0402,0.538674 -0.14516,1.05053 -0.10491,0.511854 -0.22763,1.140749 -0.27271,1.397546 -0.24443,1.392382 -0.43509,1.871433 -0.80064,2.011688 -0.3653,0.140158 -0.77431,0.109289 -0.83997,-0.06339 z m 2.6831,-1.099745 -0.25962,-0.225324 v -1.57206 -1.572248 h 0.2776 0.2776 l 0.0463,1.400706 c 0.0255,0.770387 0.08,1.453232 0.12113,1.51743 0.0981,0.15294 0.38459,0.149339 0.5127,-0.0064 0.0606,-0.07366 0.11163,-0.683574 0.127,-1.517431 l 0.0257,-1.394262 h 0.2776 0.2776 l 0.0463,1.708422 0.0463,1.708421 -0.22217,0.05612 c -0.12219,0.03086 -0.28875,0.01577 -0.37013,-0.03355 -0.0995,-0.06032 -0.22369,-0.04995 -0.37929,0.03166 -0.3343,0.175325 -0.51153,0.153021 -0.80451,-0.101247 z m 5.2508,0.09206 c -0.32658,-0.182518 -0.36112,-0.339398 -0.36835,-1.673053 -0.006,-1.117933 -0.0191,-1.202657 -0.19157,-1.248181 -0.13109,-0.0346 -0.18507,-0.127373 -0.18507,-0.318089 0,-0.206997 0.0428,-0.269251 0.18507,-0.269251 0.15765,0 0.18506,-0.06225 0.18506,-0.420211 0,-0.417988 0.002,-0.420211 0.32387,-0.420211 0.32215,0 0.32386,0.0022 0.32386,0.420211 0,0.348824 0.0295,0.420211 0.17374,0.420211 0.4131,0 0.49082,0.518539 0.0864,0.576384 -0.20593,0.02946 -0.21486,0.06695 -0.24084,1.011082 -0.0327,1.189057 0.004,1.362917 0.30377,1.438848 0.28158,0.07132 0.31305,0.378493 0.0532,0.518854 -0.23295,0.125811 -0.37257,0.11794 -0.64909,-0.0366 z m 1.38509,0.01332 c -0.40752,-0.208083 -0.57469,-0.789322 -0.37754,-1.312635 0.0478,-0.126936 0.36012,-0.427508 0.694,-0.667939 0.33419,-0.240661 0.60641,-0.506913 0.60563,-0.592364 -0.002,-0.262975 -0.14808,-0.406471 -0.37918,-0.373495 -0.16811,0.02399 -0.2281,0.09843 -0.25112,0.311656 -0.0402,0.371947 -0.13739,0.456591 -0.4372,0.380654 -0.23322,-0.05907 -0.24623,-0.08904 -0.19756,-0.45525 0.0707,-0.532172 0.39724,-0.812518 0.94631,-0.812518 0.31897,0 0.47044,0.0569 0.68354,0.256797 l 0.27376,0.256796 0.0284,1.517442 0.0284,1.517442 -0.29527,-1.2e-5 c -0.1624,-7e-6 -0.31925,-0.03918 -0.34857,-0.08703 -0.0309,-0.05053 -0.15935,-0.03119 -0.30619,0.04612 -0.30804,0.162164 -0.37515,0.163606 -0.66747,0.01435 z m 0.77809,-0.58708 c 0.1531,-0.154496 0.21394,-1.160583 0.0702,-1.160583 -0.12313,0 -0.54688,0.497415 -0.6135,0.72017 -0.0727,0.243165 0.0848,0.587153 0.26897,0.587153 0.0709,0 0.19437,-0.06604 0.27434,-0.14674 z m 6.7979,0.561083 c -0.43082,-0.185244 -0.54533,-0.554557 -0.54533,-1.758846 0,-1.386789 0.22257,-1.737048 1.1038,-1.737048 0.50358,0 0.80967,0.334439 0.88845,0.970707 0.11302,0.912926 0.0945,0.939611 -0.67366,0.971026 l -0.67086,0.02743 v 0.409451 c 0,0.35571 0.16625,0.702931 0.33656,0.702931 0.1786,0 0.4037,-0.230062 0.4037,-0.412606 0,-0.265508 0.3495,-0.395277 0.54183,-0.201185 0.10277,0.103709 0.10567,0.191491 0.0154,0.467428 -0.18851,0.576407 -0.79678,0.82004 -1.39992,0.560705 z m 0.84266,-2.403343 c 0,-0.341935 -0.13781,-0.532268 -0.38538,-0.532268 -0.19528,0 -0.35488,0.270215 -0.35488,0.600832 0,0.217268 0.0345,0.239591 0.37013,0.239591 0.35705,0 0.37013,-0.0109 0.37013,-0.308155 z m 4.09323,2.45249 c -0.31714,-0.128578 -0.39192,-0.459125 -0.39192,-1.732514 0,-1.155129 -0.002,-1.164125 -0.23133,-1.252244 -0.12723,-0.04882 -0.23133,-0.113572 -0.23133,-0.143899 0,-0.151873 0.2078,-0.416384 0.32712,-0.416384 0.099,0 0.13554,-0.113428 0.13554,-0.420211 0,-0.417988 0.002,-0.420211 0.32387,-0.420211 0.32215,0 0.32386,0.0022 0.32386,0.420211 0,0.342395 0.0308,0.420211 0.16656,0.420211 0.39212,0 0.46309,0.523053 0.0785,0.57838 -0.19122,0.02751 -0.19876,0.07289 -0.19876,1.195848 0,1.122268 0.008,1.168354 0.19839,1.195796 0.22177,0.0319 0.34512,0.4128 0.18575,0.573622 -0.11638,0.117452 -0.39855,0.118026 -0.68622,0.0014 z m 1.48915,-0.03933 c -0.16139,-0.07085 -0.33696,-0.210879 -0.39015,-0.311177 -0.14341,-0.270412 -0.21536,-1.28409 -0.14356,-2.022452 0.0804,-0.827173 0.36439,-1.172079 0.96492,-1.172079 0.81425,0 1.0189,0.339193 1.0189,1.688721 0,1.228724 -0.12279,1.656241 -0.52432,1.825548 -0.37392,0.157665 -0.55084,0.156029 -0.92579,-0.0085 z m 0.70659,-0.604778 c 0.15457,-0.291464 0.12335,-2.107939 -0.0386,-2.243544 -0.25486,-0.213448 -0.45758,-0.07419 -0.53954,0.370605 -0.0817,0.443167 -0.0344,1.785678 0.0687,1.95414 0.0993,0.162217 0.40623,0.113295 0.50937,-0.0812 z m 2.57517,0.597456 c -0.33258,-0.183725 -0.4425,-0.61794 -0.44314,-1.750503 -7.9e-4,-1.383772 0.26221,-1.824587 1.02681,-1.721091 l 0.35293,0.04778 0.027,-0.667598 0.027,-0.667599 h 0.32386 0.32387 v 2.381199 2.381198 l -0.30074,0.02926 c -0.18651,0.01814 -0.30073,-0.0128 -0.30073,-0.08147 0,-0.07648 -0.0358,-0.08164 -0.11566,-0.01669 -0.21659,0.176076 -0.66353,0.207868 -0.9212,0.06552 z m 0.84019,-0.542786 c 0.14594,-0.177461 0.15264,-2.083752 0.008,-2.259701 -0.15725,-0.191211 -0.4351,-0.168403 -0.54827,0.045 -0.0527,0.09934 -0.0958,0.600594 -0.0958,1.113895 0,0.723922 0.0326,0.966188 0.14541,1.080012 0.17838,0.180017 0.35365,0.187441 0.49071,0.02079 z m 1.57466,0.424468 -0.31386,-0.282802 -0.0318,-1.055029 c -0.0381,-1.261498 0.0656,-1.702497 0.4472,-1.901621 0.3424,-0.178685 0.76879,-0.179357 1.10913,-0.0018 0.21191,0.110587 0.28809,0.238948 0.37408,0.630318 0.0594,0.270298 0.0937,0.638524 0.0763,0.818282 l -0.0317,0.326831 -0.67087,0.02744 -0.67086,0.02742 v 0.409451 c 0,0.753083 0.54685,0.959676 0.72728,0.27476 0.0809,-0.306954 0.37875,-0.409135 0.55786,-0.191355 0.16198,0.196972 0.008,0.706538 -0.27937,0.922851 -0.1294,0.09749 -0.40272,0.199922 -0.60739,0.227625 -0.32081,0.04342 -0.41541,0.01136 -0.68598,-0.232434 z m 1.01032,-2.320081 c -0.0339,-0.401644 -0.26507,-0.600758 -0.51452,-0.44308 -0.0944,0.05967 -0.17391,0.244498 -0.19065,0.44308 l -0.0287,0.340719 h 0.3813 0.38131 z m -32.6449,2.278361 c 8.9e-4,-0.115559 0.0656,-0.504254 0.14371,-0.863769 0.0781,-0.359514 0.20123,-0.94781 0.27351,-1.307324 0.0723,-0.359515 0.22621,-1.063073 0.34209,-1.563465 l 0.21068,-0.909803 0.33422,-6.56e-4 c 0.3281,-6.44e-4 0.33618,0.0083 0.4408,0.489591 0.0586,0.269636 0.21113,0.95248 0.33892,1.51743 0.36395,1.609099 0.57635,2.745356 0.52321,2.798984 -0.0945,0.09539 -0.56303,0.0476 -0.63164,-0.06444 -0.0383,-0.06246 -0.0933,-0.262055 -0.1223,-0.443556 -0.0518,-0.323983 -0.0616,-0.330517 -0.53443,-0.358125 -0.46155,-0.02695 -0.484,-0.01719 -0.5373,0.23345 -0.11788,0.554355 -0.21198,0.681785 -0.50349,0.681785 -0.22873,0 -0.27929,-0.03821 -0.27798,-0.210105 z m 1.60034,-1.610811 c -0.0588,-0.948446 -0.39902,-2.147868 -0.39902,-1.40681 0,0.125041 -0.0626,0.527931 -0.13923,0.895316 -0.0766,0.367384 -0.11432,0.708669 -0.0838,0.758411 0.0305,0.04974 0.18681,0.07757 0.34743,0.06184 0.26115,-0.02558 0.29021,-0.05825 0.27467,-0.308748 z m 5.95121,1.754949 c -0.0737,-0.07437 -0.0677,-3.16146 0.006,-3.356619 0.0575,-0.151261 0.4134,-0.166549 0.55481,-0.02383 0.0731,0.07379 0.1534,0.07379 0.29003,0 0.27335,-0.147634 0.72008,-0.12522 0.88833,0.04457 0.21138,0.213326 0.23751,0.406216 0.26211,1.935254 0.0219,1.363004 0.0195,1.382207 -0.18576,1.434121 -0.4603,0.116448 -0.4859,0.04352 -0.48742,-1.388641 -7.8e-4,-0.733481 -0.0379,-1.391816 -0.0826,-1.462966 -0.12055,-0.192097 -0.53007,-0.05617 -0.59766,0.198377 -0.0308,0.116122 -0.0566,0.767909 -0.0573,1.448417 l -0.001,1.237291 h -0.26218 c -0.1442,0 -0.29159,-0.02969 -0.32755,-0.06597 z m 6.46038,-0.05403 c -0.0251,-0.066 -0.0342,-0.84975 -0.0202,-1.741658 l 0.0254,-1.621653 0.22032,-0.03386 c 0.12118,-0.01861 0.27467,0.01166 0.34109,0.06728 0.086,0.07203 0.17398,0.0724 0.30565,0.0012 0.26649,-0.143926 0.71076,-0.12278 0.8448,0.04021 0.0633,0.07704 0.16745,0.14007 0.23133,0.14007 0.0639,0 0.16797,-0.06303 0.23133,-0.14007 0.18373,-0.223407 0.7141,-0.17496 0.9758,0.08913 0.22291,0.224954 0.22713,0.257976 0.22713,1.780144 v 1.550935 l -0.30074,-0.02926 -0.30073,-0.02926 -0.0226,-1.260634 c -0.0287,-1.605833 -0.0501,-1.701066 -0.37394,-1.66339 l -0.25124,0.02924 -0.0463,1.447394 -0.0463,1.447396 h -0.32386 -0.32387 l -0.0226,-1.260635 c -0.0286,-1.600564 -0.0509,-1.701157 -0.36859,-1.66339 -0.33917,0.04032 -0.41847,0.410901 -0.38006,1.775867 0.0325,1.154984 0.0193,1.194848 -0.39593,1.194848 -0.0992,0 -0.20093,-0.05401 -0.22603,-0.120006 z m 3.93781,-1.648303 v -1.780144 l 0.2082,0.0014 c 0.43488,0.003 0.4455,0.04929 0.4186,1.826371 l -0.0253,1.673962 -0.30074,0.02926 -0.30073,0.02926 z m 3.4854,1.706055 c -0.0339,-0.03424 -0.0617,-0.81083 -0.0617,-1.725757 v -1.663317 l 0.24573,-0.06224 c 0.16893,-0.04278 0.27775,-0.01805 0.34818,0.07915 0.0864,0.119285 0.12092,0.121438 0.22058,0.01377 0.065,-0.07019 0.28003,-0.127622 0.4779,-0.127622 0.27949,0 0.40306,0.05554 0.55377,0.248891 0.18144,0.232776 0.19236,0.346146 0.16865,1.750882 l -0.0254,1.501991 h -0.2776 -0.2776 l -0.0258,-1.347661 c -0.0264,-1.381002 -0.0804,-1.59382 -0.40424,-1.59382 -0.2784,0 -0.35651,0.379831 -0.35651,1.733615 v 1.254556 h -0.26217 c -0.1442,0 -0.28994,-0.02801 -0.32387,-0.06225 z m -3.4854,-4.332538 c 0,-0.371833 0.006,-0.378851 0.30073,-0.350177 0.27456,0.02671 0.30323,0.05974 0.32945,0.379438 0.0283,0.344505 0.0234,0.350176 -0.30073,0.350176 -0.32352,0 -0.32945,-0.0068 -0.32945,-0.379437 z m -2.08198,-3.492708 c -0.0509,-0.01584 -0.34237,-0.08261 -0.64773,-0.148372 -0.30536,-0.06576 -0.60235,-0.155575 -0.65998,-0.199591 -0.0576,-0.04401 -0.22419,-0.07094 -0.37013,-0.05982 -0.15213,0.01158 -0.44649,-0.08704 -0.68988,-0.23113 -0.23349,-0.138234 -0.49374,-0.251335 -0.57833,-0.251335 -0.0846,0 -0.1538,-0.03868 -0.1538,-0.08596 0,-0.04728 -0.12635,-0.113967 -0.28078,-0.148196 -0.15443,-0.03423 -0.37046,-0.184641 -0.48006,-0.334251 -0.10961,-0.149608 -0.2495,-0.272015 -0.31087,-0.272015 -0.15119,0 -1.42667,-1.205002 -1.42667,-1.347835 0,-0.06254 -0.1041,-0.212388 -0.23133,-0.333011 -0.12724,-0.120624 -0.23134,-0.298049 -0.23134,-0.394277 0,-0.09623 -0.10572,-0.267495 -0.23495,-0.38059 -0.14708,-0.128723 -0.28635,-0.405531 -0.37239,-0.740135 -0.0756,-0.293981 -0.2211,-0.731489 -0.32336,-0.972242 -0.10738,-0.252796 -0.22694,-0.848921 -0.283,-1.410981 -0.11797,-1.182877 -0.0738,-5.981841 0.057,-6.203471 0.19662,-0.332925 1.57871,-1.286423 1.86833,-1.288942 0.11151,-9.57e-4 0.22847,-0.04378 0.25993,-0.09515 0.0315,-0.05136 0.15883,-0.09338 0.28306,-0.09338 0.12423,0 0.22587,-0.03349 0.22587,-0.07441 0,-0.131881 1.16097,-0.283374 1.53953,-0.200891 1.17768,0.256603 1.38174,0.315205 1.49477,0.429276 0.0688,0.0694 0.21588,0.12617 0.32691,0.12617 0.11104,0 0.40687,0.147074 0.65741,0.326831 0.25054,0.179756 0.50493,0.32683 0.56531,0.32683 0.0604,0 0.26698,0.126064 0.4591,0.280142 0.19212,0.154077 0.39939,0.28014 0.46061,0.28014 0.0612,0 0.35952,0.125175 0.6629,0.278167 0.78248,0.394592 1.83167,0.603933 3.04046,0.606654 1.11448,0.0025 2.32843,-0.23442 2.71906,-0.53069 0.12138,-0.09205 0.31792,-0.16737 0.43676,-0.16737 0.1328,0 0.29519,-0.107978 0.42132,-0.28014 0.24093,-0.328862 0.31651,-0.347321 0.38231,-0.09338 0.0266,0.102719 0.11728,0.186761 0.20146,0.186761 0.13221,0 0.14627,0.0859 0.1032,0.630317 -0.0274,0.346676 -0.0744,1.869942 -0.10437,3.385039 -0.0594,3.002039 -0.11131,3.375468 -0.62015,4.461444 -0.36778,0.784897 -0.90933,1.738281 -1.0108,1.779475 -0.0422,0.01712 -0.0767,0.07908 -0.0767,0.137673 0,0.133955 -1.26371,1.371975 -1.40044,1.371975 -0.0555,0 -0.24225,0.115559 -0.41495,0.256797 -0.1727,0.141236 -0.45458,0.372354 -0.62638,0.513591 -0.17181,0.141238 -0.37633,0.256796 -0.45449,0.256796 -0.0782,0 -0.34937,0.105053 -0.60269,0.233451 -0.25331,0.128397 -0.62108,0.233905 -0.81726,0.234462 -0.19618,5.55e-4 -0.5611,0.06359 -0.81093,0.140071 -0.39075,0.119622 -1.67265,0.182355 -1.95161,0.09551 z m 3.87192,-14.894959 c -0.45943,-0.09915 -1.15448,-0.390641 -1.975,-0.828292 -2.74628,-1.464812 -3.45403,-1.706527 -4.99677,-1.706527 -0.75819,0 -1.19292,0.05102 -1.72955,0.202978 -0.78707,0.222875 -1.59622,0.570017 -2.00202,0.858906 -0.16209,0.115391 -0.29447,0.153051 -0.34803,0.099 -0.0516,-0.05206 -0.0767,-1.66605 -0.0623,-4.00349 l 0.0242,-3.916267 0.87133,-0.02706 c 0.6347,-0.01971 0.89189,0.0056 0.94705,0.09338 0.0416,0.06623 0.0763,0.46711 0.0771,0.890823 l 0.001,0.770388 h 0.78305 0.78306 l 0.0266,-0.863767 0.0266,-0.86377 h 0.92533 0.92532 v 0.840425 0.840423 h 0.81691 0.81691 l 0.0159,-0.840423 0.0159,-0.840425 h 0.91158 0.91157 l 0.0138,0.863398 0.0138,0.863398 0.80618,3.72e-4 0.80619,3.69e-4 0.0266,-0.863767 0.0266,-0.86377 h 0.92533 0.92533 l 0.0266,0.86377 0.0266,0.863767 h 0.77958 0.77959 l 0.0266,-0.863767 0.0266,-0.86377 h 0.92532 0.92533 l 0.0242,3.785143 0.0241,3.785143 -0.57935,0.496625 c -0.31864,0.273143 -0.91991,0.664183 -1.33615,0.868976 -0.6972,0.343031 -0.82835,0.375045 -1.66559,0.406572 -0.49983,0.01882 -1.08185,-0.0032 -1.29337,-0.04878 z"
     id="path4" /><path
     style="fill:#000000;stroke-width:0.889795"
     d="m 117.52659,95.061528 c -0.16641,-0.166349 -0.30105,-0.404525 -0.2992,-0.529284 0.007,-0.459995 0.56761,-3.65252 0.65735,-3.74223 0.0511,-0.05105 0.23738,-0.03736 0.41404,0.03041 0.25165,0.09653 0.29652,0.278816 0.20723,0.841763 -0.24852,1.56671 -0.32816,3.033045 -0.14356,2.643221 0.10025,-0.211714 0.18837,-0.618849 0.19581,-0.904745 0.0269,-1.031949 0.42899,-2.463431 0.69201,-2.463431 0.14382,0 0.30029,0.06496 0.34771,0.144351 0.154,0.257813 -0.40228,3.706013 -0.64504,3.998418 -0.30889,0.372059 -1.04521,0.362523 -1.42635,-0.0185 z m 2.73981,-0.733232 c -0.0473,-0.569626 -0.0476,-1.565643 -7e-4,-2.213371 l 0.0852,-1.177692 h 0.65074 c 0.52238,0 0.65074,0.07593 0.65074,0.384935 0,0.213852 -0.12836,0.384935 -0.28881,0.384935 -0.19254,0 -0.28881,0.192468 -0.28881,0.577401 0,0.384934 0.0963,0.577401 0.28881,0.577401 0.16045,0 0.28881,0.171083 0.28881,0.384935 0,0.213852 -0.12836,0.384934 -0.28881,0.384934 -0.19254,0 -0.28881,0.192467 -0.28881,0.577402 0,0.384931 0.0963,0.577407 0.28881,0.577407 0.15884,0 0.28881,0.129904 0.28881,0.288697 0,0.199611 -0.20059,0.288697 -0.65004,0.288697 -0.64719,0 -0.65042,-0.0044 -0.73596,-1.035681 z m 2.72919,0.02523 c -0.11657,-0.449893 -0.34702,-1.312763 -0.51212,-1.917491 -0.37801,-1.384614 -0.26877,-1.691269 0.60248,-1.691269 0.86496,0 1.27362,0.58341 1.32841,1.896439 0.0258,0.619381 0.1665,1.101111 0.39527,1.353811 0.38816,0.428757 0.29748,0.984029 -0.16071,0.984029 -0.15878,0 -0.42425,-0.238184 -0.58994,-0.529283 l -0.30123,-0.529288 0.11785,0.625518 c 0.10171,0.539871 0.064,0.625521 -0.27511,0.625521 -0.30069,0 -0.44271,-0.192056 -0.6049,-0.817987 z m 0.38871,-2.593399 c -0.18825,-0.294959 -0.20347,-0.275878 -0.11121,0.139442 0.0588,0.264642 0.12105,0.654388 0.13837,0.866103 0.0205,0.250892 0.0592,0.202336 0.11121,-0.139443 0.0438,-0.288408 -0.0184,-0.678153 -0.13837,-0.866102 z m -8.62258,2.862995 c -0.18703,-0.118475 -0.19888,-0.286689 -0.0481,-0.683029 0.11,-0.289215 0.2,-0.737909 0.2,-0.997096 0,-0.259187 0.0847,-0.621643 0.18811,-0.805456 0.10346,-0.183813 0.27685,-0.690269 0.3853,-1.125459 0.17472,-0.701126 0.25131,-0.780909 0.67243,-0.700438 0.54995,0.105091 0.95893,0.52187 0.78622,0.801218 -0.0655,0.105872 -0.23798,0.146861 -0.38337,0.09109 -0.40763,-0.156362 -0.63014,1.085023 -0.2342,1.306526 0.37635,0.210534 0.20074,0.736365 -0.24591,0.736365 -0.21999,0 -0.39016,0.236459 -0.50888,0.707133 -0.18864,0.74791 -0.40528,0.926538 -0.81156,0.669149 z m 11.08404,-2.001801 c -0.46327,-0.87332 -0.96695,-1.587855 -1.1193,-1.587855 -0.15235,0 -0.30591,-0.150077 -0.34124,-0.333505 -0.088,-0.45678 1.20843,-1.096519 1.54344,-0.76163 0.17699,0.176928 0.17705,0.281083 2.5e-4,0.457819 -0.1768,0.176736 -0.0287,0.598875 0.65102,1.855532 0.68652,1.269245 0.82355,1.662441 0.62357,1.789171 -0.43375,0.274866 -0.49027,0.21577 -1.35774,-1.419532 z m -14.8527,0.227037 -0.50677,-0.398481 0.48081,-0.630138 c 0.26444,-0.346577 0.4808,-0.738784 0.4808,-0.87157 0,-0.132787 0.24233,-0.471053 0.5385,-0.751701 0.29618,-0.280649 0.67777,-0.712575 0.84799,-0.959835 0.30076,-0.436897 0.32381,-0.44018 0.81801,-0.116484 0.59434,0.389287 0.58373,0.978488 -0.0161,0.895351 -0.44748,-0.06202 -1.16899,0.815089 -0.83846,1.019289 0.10472,0.06469 0.19039,0.251822 0.19039,0.415835 0,0.214374 -0.1235,0.267221 -0.43932,0.187984 -0.55917,-0.14029 -1.05874,0.521647 -0.71038,0.941247 0.22006,0.26506 0.10951,0.666985 -0.18346,0.666985 -0.0854,0 -0.38325,-0.179317 -0.66198,-0.398482 z m 17.25375,-0.678567 c -0.45006,-0.476575 -0.81828,-0.933435 -0.81828,-1.015243 0,-0.08181 -0.25019,-0.484157 -0.55596,-0.894106 l -0.55596,-0.745364 0.46535,-0.365912 c 0.25594,-0.201251 0.59277,-0.317037 0.7485,-0.257299 0.32495,0.124649 0.37181,0.428129 0.0927,0.600541 -0.2841,0.175519 0.37887,1.084467 0.74695,1.024092 0.50272,-0.08246 0.84749,0.217281 0.59697,0.51902 -0.33798,0.407092 0.16257,1.087007 0.62006,0.842253 0.58155,-0.311123 0.69542,0.380334 0.13372,0.812013 -0.2548,0.195814 -0.50659,0.353884 -0.55954,0.351266 -0.0529,-0.0027 -0.46449,-0.394686 -0.91455,-0.871261 z m -19.03728,-0.858639 c -0.20584,-0.07612 -0.48775,-0.275098 -0.62646,-0.442179 -0.21822,-0.262837 -0.0361,-0.508831 1.35128,-1.824952 1.53737,-1.458439 1.62149,-1.50938 2.03987,-1.235346 0.31355,0.205371 0.43637,0.472248 0.43637,0.948171 0,0.544241 -0.17314,0.828302 -0.97098,1.592983 -0.9964,0.954982 -1.57395,1.20395 -2.23008,0.961323 z m 1.99877,-1.870782 c 0.79686,-1.034545 0.3883,-0.88053 -0.73437,0.276837 -0.92716,0.955821 -0.97312,1.038297 -0.39957,0.71699 0.35646,-0.199689 0.86673,-0.646911 1.13394,-0.993827 z m 19.58963,0.592273 c -0.63537,-0.37497 -1.53285,-0.89696 -1.9944,-1.15998 -0.75242,-0.42877 -0.80879,-0.508594 -0.54527,-0.772017 0.26352,-0.263423 0.3697,-0.246975 1.02697,0.159089 l 0.73306,0.452891 -0.44644,-0.626734 c -0.44395,-0.623242 -0.43292,-1.29418 0.0188,-1.143661 0.29681,0.0989 2.62007,3.235812 2.63804,3.561947 0.0189,0.343549 -0.13636,0.292368 -1.43077,-0.471535 z m 2.13106,-1.68928 c -0.41635,-0.255798 -0.81485,-0.429355 -0.88554,-0.38568 -0.0707,0.04368 -0.30494,-0.123399 -0.52054,-0.371276 -0.21561,-0.247876 -0.66187,-0.610037 -0.9917,-0.804801 -0.69664,-0.411363 -0.74492,-0.657487 -0.22179,-1.130736 0.42003,-0.379984 1.20502,-0.260812 0.81964,0.124431 -0.15779,0.157734 -0.0946,0.308937 0.23884,0.571091 0.49876,0.392175 0.87407,0.462634 0.87407,0.164093 0,-0.23744 0.20177,-0.241625 0.56523,-0.01173 0.20405,0.129072 0.22157,0.241681 0.0669,0.430103 -0.15864,0.193291 -0.0997,0.33732 0.24279,0.593317 0.41731,0.311918 0.46601,0.313549 0.62974,0.02109 0.1935,-0.345642 0.61323,-0.203085 0.61323,0.208281 0,0.140811 -0.15162,0.436217 -0.33694,0.656456 l -0.33692,0.400444 z m -26.5352,0.07885 c -0.8995,-0.530313 -10e-4,-1.772064 1.92779,-2.665359 0.83824,-0.388151 1.08392,-0.428565 1.48758,-0.244711 0.59169,0.269491 0.64903,1.025365 0.11805,1.556148 -0.53098,0.530788 -1.94993,1.311466 -2.61887,1.44085 -0.31768,0.06144 -0.72923,0.02232 -0.91455,-0.08693 z m 1.86541,-1.195385 c 1.23302,-0.668713 1.73491,-1.26964 0.7504,-0.89847 -0.85269,0.321473 -2.1826,1.141041 -2.1826,1.345046 0,0.284248 0.19917,0.222146 1.4322,-0.446576 z m 24.70478,-1.424414 c -1.13838,-0.373613 -2.06978,-0.751578 -2.06978,-0.83992 0,-0.08834 0.38989,-0.21907 0.86642,-0.290504 1.01873,-0.152712 1.10312,-0.347563 0.25576,-0.590495 -0.6485,-0.185918 -0.8204,-0.413346 -0.58836,-0.778401 0.12403,-0.19514 1.93606,0.292312 4.46677,1.2016 0.46151,0.165823 -0.15598,0.459618 -0.97334,0.46311 -0.94406,0.0041 -1.10089,0.237994 -0.33217,0.495534 0.41899,0.140376 0.65808,0.356094 0.69855,0.630285 0.0761,0.515793 0.17144,0.527736 -2.32385,-0.291209 z M 104.7961,85.337803 c -0.16937,-0.327408 -0.2799,-0.623304 -0.24561,-0.657544 0.0343,-0.03425 0.97207,-0.415654 2.08397,-0.847585 1.86037,-0.722681 2.04085,-0.759416 2.26232,-0.460474 0.81973,1.10646 -0.8584,2.560889 -2.95477,2.560889 -0.74193,0 -0.87325,-0.06823 -1.14591,-0.595286 z m 2.88748,-0.663982 c 1.11153,-0.527265 0.77965,-0.67438 -0.44184,-0.195858 -1.66118,0.650775 -1.73373,0.69674 -0.95405,0.604468 0.39169,-0.04636 1.01985,-0.230232 1.39589,-0.40861 z m 2.8825,-0.0061 c -0.0747,-0.398336 -0.0451,-0.771945 0.0703,-0.887364 0.39361,-0.393466 2.48643,-0.72827 4.57078,-0.731224 l 2.1227,-0.003 1.00522,-0.973692 c 0.55287,-0.53553 1.0521,-1.206759 1.1094,-1.49162 0.32872,-1.634201 0.94984,-2.207462 2.63074,-2.428019 0.73556,-0.09651 1.18276,-0.285627 1.59881,-0.676097 0.31769,-0.298156 0.79422,-0.589543 1.05896,-0.647525 0.26474,-0.05799 1.07104,-0.321819 1.79179,-0.586296 1.01519,-0.372528 1.49237,-0.68628 2.11791,-1.392554 0.97147,-1.096852 1.03962,-1.256564 1.19886,-2.809876 0.0686,-0.668791 0.2589,-1.716373 0.42297,-2.32796 0.27999,-1.043693 0.27597,-1.161495 -0.0655,-1.918437 -0.52935,-1.173456 -0.4766,-2.408848 0.1428,-3.344479 l 0.50659,-0.765233 -0.34815,-0.916842 c -0.19149,-0.504264 -0.40842,-1.479352 -0.48207,-2.166863 -0.15391,-1.436618 -0.60017,-1.914964 -1.64369,-1.761864 -0.52065,0.07638 -0.65307,-0.0046 -1.05932,-0.647912 -0.25536,-0.404367 -0.46429,-0.818237 -0.46429,-0.919711 0,-0.271581 1.59971,-0.464217 2.60436,-0.313616 0.63629,0.09538 1.07118,0.322059 1.61128,0.83984 0.62783,0.601885 0.75972,0.872361 0.87163,1.787547 0.15336,1.254015 0.52698,2.573405 0.97275,3.435116 0.30623,0.591964 0.2993,0.631512 -0.27366,1.562352 -0.68595,1.114395 -0.74528,1.939774 -0.20333,2.828323 0.37987,0.622807 0.37999,0.639698 0.0149,2.020905 -0.20248,0.766067 -0.42367,1.825899 -0.49155,2.355184 -0.28087,2.190295 -0.65624,3.066091 -1.83809,4.288501 -0.89782,0.928643 -1.33274,1.222486 -2.16917,1.465554 -0.5754,0.167214 -1.29637,0.43445 -1.60215,0.593858 -0.30577,0.159408 -0.70558,0.290366 -0.88846,0.291019 -0.18287,6.52e-4 -0.46819,0.208197 -0.63403,0.461211 -0.23632,0.360543 -0.53915,0.488764 -1.40034,0.592914 -1.41151,0.170706 -1.89399,0.49318 -2.18359,1.459439 -0.16692,0.556925 -0.70168,1.254226 -1.85954,2.424762 -1.43324,1.448934 -1.68513,1.628177 -2.13225,1.517293 -0.27886,-0.06916 -1.24347,-0.172854 -2.14358,-0.230439 -1.34668,-0.08616 -1.84865,-0.03301 -2.83386,0.300062 -0.65851,0.222619 -1.28273,0.404761 -1.38717,0.404761 -0.10444,0 -0.24799,-0.309606 -0.31901,-0.688012 z m -6.30035,-0.996075 c -0.0446,-0.07939 -0.13649,-0.376638 -0.20429,-0.660545 -0.0939,-0.393029 -0.0428,-0.540378 0.21406,-0.617551 0.321,-0.09645 4.08107,-0.88716 4.21874,-0.88716 0.0361,0 0.0656,0.169882 0.0656,0.377516 0,0.395208 -0.2068,0.473018 -2.55112,0.959901 -0.88549,0.183903 -1.1071,0.304215 -1.1071,0.601058 0,0.356933 -0.46898,0.524188 -0.63589,0.226781 z m 31.15311,-0.647377 c -1.2156,-0.381426 -2.46343,-0.555633 -2.68186,-0.374414 -0.43734,0.362823 -0.76786,-0.09538 -0.56894,-0.788719 0.18083,-0.63028 0.84408,-1.024326 0.84408,-0.501478 0,0.25666 0.34782,0.36959 2.85204,0.92599 0.76748,0.170523 0.99587,0.297791 0.91456,0.509622 -0.0596,0.155286 -0.10839,0.318563 -0.10839,0.362833 0,0.129259 -0.62655,0.06225 -1.25149,-0.133834 z M 110.29019,82.17345 c -0.0863,-0.226994 -0.30715,-1.877367 -0.49069,-3.667497 -0.40538,-3.953642 -0.46857,-13.668349 -0.10631,-16.34292 0.20284,-1.497547 0.19395,-1.830009 -0.0655,-2.450838 l -0.30022,-0.718262 0.69621,-0.290791 c 0.38292,-0.159934 1.79143,-0.525021 3.13002,-0.811301 2.13148,-0.455854 2.87625,-0.521727 5.99575,-0.530312 2.87645,-0.0079 3.83985,0.06011 5.00598,0.35342 1.92622,0.48451 2.0791,0.58153 2.23631,1.419221 0.20146,1.073473 -0.28005,4.590865 -0.73366,5.359408 -0.27653,0.468513 -0.34359,0.809805 -0.24619,1.253084 0.11726,0.533668 0.0486,0.687228 -0.55334,1.238524 -0.37796,0.346127 -0.7482,0.875199 -0.82275,1.175713 -0.0746,0.300514 -0.33532,0.849634 -0.57947,1.220269 -0.24416,0.370634 -0.61043,1.157675 -0.81394,1.748981 -0.41322,1.200586 -0.91206,2.242582 -1.28184,2.677518 -0.135,0.158785 -0.39448,0.981583 -0.57664,1.828438 -0.72221,3.357576 -2.22496,5.305557 -4.68554,6.073732 -0.70456,0.219958 -2.2643,0.507114 -3.46609,0.638125 -2.16218,0.235705 -2.18672,0.233876 -2.34205,-0.174512 z m 3.71298,-2.027306 c 1.15857,-0.22352 2.66553,-0.980176 3.3256,-1.669819 0.70442,-0.735962 1.1359,-1.811663 1.43275,-3.571904 0.18029,-1.06907 0.3989,-1.684795 0.759,-2.137756 0.27818,-0.349914 0.75435,-1.363115 1.05817,-2.251558 0.30382,-0.888443 0.75634,-1.891057 1.00559,-2.228029 0.24926,-0.336972 0.45319,-0.800232 0.45319,-1.029466 0,-0.229235 0.25993,-0.659509 0.57762,-0.956163 0.43032,-0.401841 0.57761,-0.712226 0.57761,-1.217257 0,-0.441155 0.16706,-0.876348 0.47839,-1.246204 0.39561,-0.469991 0.50021,-0.852177 0.60453,-2.208906 l 0.12616,-1.640583 -1.13402,-0.253016 c -0.71935,-0.160496 -2.33088,-0.245435 -4.40716,-0.232286 -2.76238,0.0175 -3.5583,0.09228 -5.10057,0.479286 l -1.82743,0.458558 -0.17006,0.957414 c -0.22157,1.247388 -0.26615,14.84053 -0.0566,17.260728 l 0.16175,1.868275 0.6084,-0.102036 c 0.33462,-0.05612 1.02182,-0.181795 1.5271,-0.279278 z m -10.37479,1.084245 c -0.0672,-0.17492 -0.0715,-0.36862 -0.01,-0.430442 0.0619,-0.06182 1.07335,-0.250931 2.24778,-0.420242 1.87351,-0.270091 2.15676,-0.273188 2.31005,-0.02525 0.24997,0.404311 0.0837,0.479818 -1.63837,0.744079 -0.84716,0.130003 -1.82097,0.284413 -2.16401,0.343135 -0.46927,0.08034 -0.65395,0.02802 -0.7458,-0.211275 z m 30.5871,-0.438323 c -1.54786,-0.06933 -1.58844,-0.08347 -1.58844,-0.553254 0,-0.435528 0.0605,-0.472721 0.62575,-0.384974 1.60151,0.248598 3.225,0.323534 3.225,0.148859 0,-0.102864 -0.86641,-0.249017 -1.92537,-0.324783 -1.76294,-0.126133 -1.92538,-0.1708 -1.92538,-0.529442 0,-0.377108 0.0729,-0.386667 1.95881,-0.256826 2.19068,0.150826 2.66343,0.317479 2.65915,0.937391 -0.007,0.955644 -0.40033,1.080799 -3.02952,0.963029 z m -30.74225,-1.246479 c -0.16745,-0.23897 -0.30444,-0.617623 -0.30444,-0.841455 0,-0.37517 0.1617,-0.424472 2.06978,-0.631087 1.13837,-0.123268 2.17808,-0.223998 2.31045,-0.223845 0.33975,3.92e-4 0.31032,1.435094 -0.0353,1.721844 -0.15179,0.125931 -1.05449,0.269479 -2.00601,0.318998 -1.62885,0.08476 -1.74783,0.06462 -2.03446,-0.344455 z m 1.62093,-0.514617 c 0,-0.09117 -0.2166,-0.124386 -0.48134,-0.0738 -0.26474,0.0506 -0.48135,0.125189 -0.48135,0.165778 0,0.04058 0.21661,0.0738 0.48135,0.0738 0.26474,0 0.48134,-0.0746 0.48134,-0.165778 z m 1.94994,-0.15896 c 0.23261,-0.285862 0.22202,-0.308902 -0.0884,-0.192467 -0.19398,0.07275 -0.524,0.13227 -0.73338,0.13227 -0.20938,0 -0.32715,0.08662 -0.2617,0.192468 0.18567,0.300312 0.79171,0.226331 1.08352,-0.132271 z m 27.70086,-0.83876 c -1.11191,-0.07513 -2.04331,-0.147218 -2.06978,-0.160189 -0.0265,-0.01297 -0.0481,-0.281417 -0.0481,-0.596548 0,-0.816247 0.69938,-1.239293 1.77842,-1.075748 1.1391,0.172651 1.7051,0.197179 2.26013,0.09795 0.64813,-0.115876 0.81581,0.563437 0.18009,0.729621 l -0.43576,0.113912 0.41901,0.154946 c 0.44277,0.163729 0.59998,0.961491 0.17834,0.90494 -0.13237,-0.01775 -1.15041,-0.09375 -2.26231,-0.168883 z m 0.0963,-0.953642 c -0.0654,-0.105856 -0.3738,-0.192467 -0.68524,-0.192467 -0.31144,0 -0.56625,0.08662 -0.56625,0.192467 0,0.105858 0.30836,0.192468 0.68524,0.192468 0.40781,0 0.63707,-0.07793 0.56625,-0.192468 z m -31.67243,-0.08516 c 0,-0.294297 0.0825,-0.463991 0.19253,-0.396011 0.1059,0.06542 0.19254,-0.01608 0.19254,-0.181109 0,-0.165033 -0.0866,-0.300059 -0.19254,-0.300059 -0.10589,0 -0.19253,-0.202091 -0.19253,-0.449091 0,-0.489039 0.39827,-0.606082 1.05895,-0.311204 0.21179,0.09453 1.07298,0.331874 1.91375,0.527437 0.84077,0.195563 1.55688,0.440167 1.59136,0.543565 0.0345,0.103399 -0.74007,0.340674 -1.72121,0.527281 -0.98114,0.186607 -2.02216,0.387632 -2.31338,0.446721 -0.47246,0.09587 -0.52947,0.05198 -0.52947,-0.40753 z m 31.43176,-1.710064 c -1.08543,-0.104932 -1.97351,-0.246362 -1.97351,-0.314292 0,-0.06792 0.95592,-0.501644 2.12427,-0.96381 1.5731,-0.622276 2.18045,-0.784141 2.3408,-0.623851 0.16035,0.16029 0.14857,0.298307 -0.0454,0.531934 -0.22388,0.269651 -0.2143,0.34213 0.0659,0.498889 0.58882,0.329404 0.24099,1.25793 -0.40992,1.094264 -0.0708,-0.01779 -1.01674,-0.118203 -2.10217,-0.223134 z m -31.43176,-1.242757 c 0,-0.78694 0.80836,-1.196299 2.36232,-1.196299 0.96694,0 1.35693,0.08884 1.75127,0.398902 0.55849,0.439146 0.70502,1.333302 0.2185,1.333302 -0.15884,0 -0.2888,-0.126869 -0.2888,-0.28193 0,-0.434337 -0.64306,-0.680699 -1.76832,-0.677459 -1.11064,0.0032 -1.37063,0.10689 -1.56096,0.62257 -0.2039,0.552449 -0.71401,0.410217 -0.71401,-0.199086 z m 6.64254,-16.668281 c -1.19909,-0.523156 -2.72763,-2.659839 -2.51334,-3.513308 0.28103,-1.11933 1.73623,-1.017561 2.33476,0.163281 0.84227,1.661706 1.55319,1.743194 2.90358,0.332816 1.50573,-1.572624 2.73959,-2.29726 3.91161,-2.29726 0.54326,0 1.22172,0.122526 1.50767,0.27228 0.58065,0.304087 1.53159,1.280998 2.02998,2.085442 0.18036,0.291107 0.44811,0.529285 0.595,0.529285 0.14689,0 0.69256,-0.336198 1.21259,-0.747109 1.50667,-1.190521 2.24107,-1.490212 3.43065,-1.399963 0.217,0.01647 1.11103,0.503862 1.98673,1.083107 1.63888,1.084064 2.54761,1.44596 3.63551,1.447825 0.93475,0.0016 0.75487,0.343066 -0.26095,0.495342 -1.49405,0.223965 -2.99602,-0.01202 -4.23642,-0.665599 -1.60559,-0.846009 -1.99047,-0.794615 -3.66799,0.489787 -1.22683,0.939335 -1.54164,1.09084 -2.29952,1.106687 -0.94814,0.01982 -0.76807,0.161872 -2.64111,-2.083313 -1.08279,-1.297919 -1.405,-1.227824 -3.32676,0.723731 -2.14074,2.173927 -3.15342,2.608967 -4.60199,1.976969 z"
     id="path5" /><path
     style="fill:#000000;stroke-width:1.06304"
     d="m 176.77283,95.217525 c -1.97671,-0.316686 -4.07738,-0.9309 -6.17249,-1.804762 l -1.8824,-0.785141 V 81.355565 70.083506 h 11.90838 11.90835 l -0.0451,11.257577 -0.045,11.257576 -1.31329,0.577268 c -3.52061,1.547507 -7.0213,2.29052 -10.68148,2.267115 -1.30018,-0.0083 -2.95492,-0.1098 -3.67725,-0.225517 z m 6.30816,-4.514473 c -1.42866,-1.378761 -2.12841,-1.895605 -2.56645,-1.895605 -0.47336,0 -1.28057,0.596727 -2.52654,1.867727 l -0.89961,0.917653 h 3.45731 3.45729 z m -4.9159,-5.617882 c -1.55367,-1.523024 -2.06298,-1.796822 -2.74932,-1.478009 -0.4431,0.205811 -0.77562,0.49241 -2.48776,2.144105 l -0.60154,0.580289 h 3.55503 3.55504 z m 10.18989,0.82084 c -0.559,-0.681718 -2.53188,-2.319273 -2.91438,-2.419011 -0.20109,-0.05243 -0.55591,0.02806 -0.83323,0.189045 -0.44978,0.261059 -2.75646,2.422819 -2.75646,2.583262 0,0.03974 1.54193,0.07225 3.42651,0.07225 h 3.42649 z m -9.15984,-4.986512 c -0.032,-0.08292 -0.68147,-0.709641 -1.44306,-1.392689 -1.84804,-1.657505 -1.96451,-1.656439 -3.79551,0.03472 -0.76021,0.702147 -1.38312,1.328857 -1.38425,1.392689 -8.5e-4,0.06383 1.50168,0.11606 3.33957,0.11606 2.09243,0 3.31979,-0.05637 3.28325,-0.150783 z m 8.42996,-0.936729 c -1.33666,-1.332365 -1.8484,-1.697867 -2.37715,-1.697867 -0.47861,0 -1.28221,0.592743 -2.53211,1.867727 l -0.89958,0.917652 h 3.44994 3.44993 z m -9.46001,-5.265401 c -1.56231,-1.531481 -2.05992,-1.796676 -2.76595,-1.474035 -0.27398,0.125212 -1.0703,0.788524 -1.76961,1.474035 l -1.27145,1.246385 h 3.53922 3.53924 z m 10.18989,0.82084 c -0.1919,-0.234049 -0.85943,-0.869464 -1.48335,-1.412033 -1.59191,-1.384332 -1.85326,-1.353021 -3.71367,0.444888 -1.59634,1.542733 -1.82237,1.39269 2.09802,1.39269 h 3.44793 z m -16.83392,-7.309148 -0.70293,-1.235475 1.00741,-0.448147 c 1.34393,-0.597849 4.0201,-1.338782 5.68121,-1.572907 2.09237,-0.294912 5.96605,-0.122584 8.03431,0.357428 1.51964,0.352686 3.88874,1.134358 4.53018,1.494704 0.21179,0.118978 0.15247,0.33921 -0.36426,1.352312 -0.38362,0.752175 -0.71133,1.198999 -0.86587,1.180626 -0.13662,-0.01626 -0.95779,-0.271968 -1.82455,-0.568242 -2.48834,-0.850539 -4.09656,-1.077778 -6.98711,-0.987255 -2.59849,0.08138 -4.2165,0.395118 -6.58945,1.277734 -0.56884,0.211582 -1.07516,0.384696 -1.12515,0.384696 -0.05,0 -0.40719,-0.555964 -0.79379,-1.235474 z m -2.00177,-3.145465 c -0.94345,-1.093085 -1.23888,-1.930584 -1.23849,-3.51097 4e-4,-1.703309 0.29638,-2.36466 1.53285,-3.425071 1.16733,-1.001115 2.16545,-1.371972 3.69246,-1.371972 0.9955,0 1.35364,-0.05979 1.538,-0.25674 0.80184,-0.856616 3.1772,-1.225927 4.78411,-0.743811 0.68328,0.205004 0.85733,0.207982 1.27565,0.02183 1.26689,-0.563791 2.91314,-0.407088 4.47939,0.426386 0.81412,0.433222 1.16951,0.521473 2.34145,0.581426 2.31863,0.118609 3.8464,1.07966 4.62767,2.911034 0.53262,1.248544 0.41396,3.460767 -0.24637,4.592841 -0.25717,0.440896 -0.63444,0.904906 -0.83836,1.031132 -0.3392,0.209957 -0.4774,0.18436 -1.62296,-0.300578 -1.20089,-0.508365 -1.64205,-0.83584 -1.12602,-0.83584 0.28654,0 1.22588,-0.84399 1.54106,-1.384648 0.35303,-0.60557 0.29848,-1.876212 -0.10689,-2.489579 -0.3459,-0.523401 -1.33434,-1.232478 -1.71754,-1.232123 -0.12741,1.19e-4 -0.19298,0.513122 -0.19298,1.508748 0,1.377443 -0.0445,1.579413 -0.51103,2.323638 -0.28105,0.448289 -0.59672,0.877936 -0.70148,0.954771 -0.19443,0.14259 -3.60882,-0.424262 -3.59658,-0.597095 0.003,-0.04925 0.33827,-0.228812 0.74395,-0.39903 1.11096,-0.466137 1.52609,-1.128847 1.52609,-2.436215 0,-1.801466 -0.70441,-2.438198 -2.6974,-2.438198 h -1.15494 l -0.001,1.818234 c -8.5e-4,1.000027 -0.0513,2.183814 -0.11195,2.630636 l -0.11046,0.812402 h -1.11379 -1.1138 v -2.630636 -2.630636 h -1.06795 c -1.25817,0 -2.17357,0.333464 -2.51443,0.915987 -0.86568,1.479385 -0.18958,3.431763 1.42744,4.122024 l 0.66654,0.284521 -1.22575,0.255204 c -2.53521,0.527837 -2.39398,0.537564 -2.91661,-0.200881 -0.68234,-0.964078 -0.89752,-1.778885 -0.82143,-3.110514 0.0644,-1.126516 0.0511,-1.176828 -0.28606,-1.084555 -1.16882,0.31988 -1.90785,1.270737 -1.90785,2.45468 0,0.971671 0.40935,1.671679 1.29347,2.211898 0.37691,0.230307 0.6883,0.457089 0.69195,0.503962 0.006,0.08514 -1.15852,0.619734 -2.21786,1.017574 -0.54333,0.204056 -0.57482,0.194629 -1.0016,-0.299834 z m 10.40547,-10.861277 v -0.696345 h -0.70044 -0.70041 V 52.907 52.288026 h 0.70041 0.70044 v -0.696344 -0.696345 h 0.70041 0.70045 v 0.696345 0.696344 h 0.78796 0.78797 V 52.907 53.525973 h -0.78797 -0.78796 v 0.696345 0.696344 h -0.70045 -0.70041 z"
     id="path6" /></svg>
