<?xml version="1.0" encoding="UTF-8" standalone="no"?>
<!-- Uploaded to: SVG Repo, www.svgrepo.com, Generator: SVG Repo Mixer Tools -->

<svg
   fill="#000000"
   height="800px"
   width="800px"
   version="1.1"
   id="Capa_1"
   viewBox="0 0 481.758 481.758"
   xml:space="preserve"
   sodipodi:docname="laoliva3-1.svg"
   inkscape:version="1.4 (86a8ad7, 2024-10-11)"
   xmlns:inkscape="http://www.inkscape.org/namespaces/inkscape"
   xmlns:sodipodi="http://sodipodi.sourceforge.net/DTD/sodipodi-0.dtd"
   xmlns="http://www.w3.org/2000/svg"
   xmlns:svg="http://www.w3.org/2000/svg"><defs
   id="defs1" /><sodipodi:namedview
   id="namedview1"
   pagecolor="#ffffff"
   bordercolor="#000000"
   borderopacity="0.25"
   inkscape:showpageshadow="2"
   inkscape:pageopacity="0.0"
   inkscape:pagecheckerboard="0"
   inkscape:deskcolor="#d1d1d1"
   inkscape:zoom="1.45875"
   inkscape:cx="331.79092"
   inkscape:cy="386.97515"
   inkscape:window-width="2560"
   inkscape:window-height="1369"
   inkscape:window-x="1912"
   inkscape:window-y="-8"
   inkscape:window-maximized="1"
   inkscape:current-layer="Capa_1" />

<g
   id="g3"
   style="stroke:#000000;stroke-opacity:1;stroke-width:1.00025005;stroke-dasharray:none"><path
     style="fill:#ffdf05;fill-opacity:1;stroke:#000000;stroke-width:1.661;stroke-opacity:1;stroke-dasharray:none"
     d="M 380.57481,95.921237 C 363.28153,93.402212 345.74194,86.633843 331.44816,76.963702 323.43334,71.541455 309.78479,59.138378 310.75987,58.16329 c 0.18938,-0.189378 8.00655,0.749789 17.37149,2.087037 60.87645,8.692735 83.14706,8.694173 143.73728,0.0093 9.36494,-1.342354 17.21884,-2.248962 17.45311,-2.014686 0.6208,0.620795 -9.69341,10.411386 -16.01896,15.205737 -15.79664,11.97281 -34.37108,19.648498 -54.45413,22.502587 -8.94528,1.271255 -29.44454,1.254111 -38.27385,-0.03201 z"
     id="path5"
     transform="scale(0.6021975)" /><path
     d="M 479.832,173.064 C 474.594,162.535 427.951,69.714 403.533,53.111 380.043,37.136 322.498,12.504 320.059,11.463 l -2.809,-1.199 -3,0.575 c -0.486,0.093 -48.893,9.319 -73.372,9.319 -24.46,0 -72.886,-9.226 -73.372,-9.319 l -3,-0.575 -2.809,1.199 C 159.258,12.504 101.714,37.136 78.223,53.11 53.807,69.715 7.164,162.535 1.926,173.064 L 0,176.935 l 1.5,4.054 c 0.628,1.698 16.181,41.7 84.724,50.834 l 5.941,0.792 21.049,-29.278 c 9.468,54.128 -4.04,181.588 -20.761,242.943 l -2.404,8.822 8.573,3.182 c 1.453,0.54 36.8,13.209 142.256,13.209 105.457,0 140.803,-12.669 142.256,-13.209 l 8.573,-3.182 -2.404,-8.822 C 372.582,384.923 359.074,257.464 368.542,203.337 l 21.049,29.277 5.941,-0.792 c 68.543,-9.134 84.096,-49.135 84.724,-50.834 l 1.501,-4.054 z M 295.906,34.326 c -9.83,11.487 -27.107,24.458 -55.027,24.458 -27.927,0 -45.206,-12.978 -55.031,-24.459 16.873,2.703 39.72,5.833 55.031,5.833 15.31,0 38.154,-3.13 55.027,-5.832 z m 153.741,154.763 c -8.602,7.68 -24.27,17.473 -50.885,22.019 l -35.354,-49.177 -7.459,14.588 c -7.189,14.061 -14.467,47.952 -8.305,129.557 3.671,48.618 11.303,100.419 19.876,135.773 -15.403,3.477 -53.097,9.644 -126.641,9.644 -66.914,0 -108.029,-5.398 -126.654,-9.591 8.579,-35.354 16.217,-87.185 19.89,-135.826 C 140.277,224.472 133,190.58 125.811,176.519 L 118.352,161.931 82.994,211.11 C 42.435,204.22 26.931,185.408 22.081,177.484 41.423,139.167 74.904,79.554 89.47,69.649 c 16.771,-11.405 54.511,-28.546 71.503,-36.05 2.966,5.069 7.445,11.601 13.757,18.094 12.016,12.358 33.245,27.091 66.148,27.091 32.903,0 54.133,-14.732 66.148,-27.091 6.312,-6.492 10.791,-13.024 13.758,-18.094 16.991,7.504 54.73,24.646 71.502,36.051 14.556,9.897 48.027,69.486 67.375,107.807 -1.741,2.799 -4.872,7.039 -10.014,11.632 z"
     id="path1"
     style="fill:#000000;fill-opacity:1;stroke-width:1.00025005;stroke-dasharray:none;stroke:#000000;stroke-opacity:1" /></g><path
   style="stroke:#ffdf05;stroke-opacity:1;stroke-width:41.561;stroke-dasharray:none;fill:#ffdf05;fill-opacity:1;paint-order:normal;stroke-linecap:square;stroke-linejoin:round"
   d="M 355.29231,748.93114 C 291.17548,747.2726 238.5364,742.70773 199.76203,735.44356 l -9.66386,-1.81047 1.55128,-6.57661 c 6.30878,-26.74591 13.79002,-68.25579 19.09996,-105.97679 7.27069,-51.64983 11.70954,-97.37798 14.90575,-153.55613 1.12693,-19.80745 1.13743,-79.46203 0.0166,-94.25878 -2.49726,-32.96742 -6.75054,-56.74778 -12.9331,-72.3098 -3.28696,-8.27353 -16.03186,-32.82787 -16.66835,-32.11325 -0.27776,0.31186 -13.22838,18.3048 -28.77917,39.98432 -15.55078,21.67952 -28.69122,39.8556 -29.20097,40.39127 -0.79947,0.84014 -1.99055,0.75598 -8.66872,-0.61255 -39.799485,-8.15589 -71.816308,-25.89396 -89.043765,-49.33232 l -3.243024,-4.41221 3.699237,-7.37607 C 50.493834,268.22279 72.500264,227.79259 85.187201,205.99829 109.58,164.09503 129.44171,134.7866 141.88075,122.33986 c 8.71429,-8.71966 25.06311,-18.38039 61.37546,-36.267537 21.31349,-10.498837 62.35809,-29.517053 63.7029,-29.517053 0.13758,0 1.26652,1.619537 2.50874,3.598972 8.26289,13.166544 22.47265,29.199076 33.87405,38.219268 21.69909,17.16719 46.25878,27.42214 75.74979,31.62947 3.2048,0.45721 12.61354,0.83129 20.90831,0.83129 20.39637,0 33.27485,-1.92667 50.47831,-7.55174 31.66506,-10.35364 58.56522,-30.996205 77.54365,-59.50521 2.26775,-3.406575 4.34483,-6.44114 4.61574,-6.743478 1.06362,-1.187021 58.23042,25.418837 85.0144,39.566342 18.54847,9.797446 33.12977,18.695906 38.14915,23.281076 15.49875,14.15804 45.20221,59.93399 79.23361,122.10674 9.12555,16.6717 19.41457,36.07889 24.37703,45.98001 l 3.46105,6.90546 -3.54441,4.7419 c -13.23646,17.70822 -34.90179,32.15456 -63.04558,42.03849 -7.36623,2.58698 -27.14142,7.5086 -31.21975,7.76993 l -2.9745,0.19061 -29.07536,-40.39034 c -15.99144,-22.21468 -29.19371,-40.50869 -29.33837,-40.65335 -0.46135,-0.46135 -13.84645,25.95909 -16.40649,32.38427 -6.18135,15.51394 -10.44106,39.3171 -12.94023,72.3098 -1.12084,14.79675 -1.11034,74.45133 0.0166,94.25878 3.19841,56.21689 7.6566,102.12912 14.91066,153.55613 5.35186,37.9415 12.92754,80.09255 18.85055,104.88432 0.72062,3.01628 1.31238,5.98988 1.31502,6.60801 0.004,0.90293 -1.91544,1.48796 -9.76383,2.97614 -33.26002,6.30658 -77.99579,10.59594 -132.13368,12.66922 -26.05432,0.99777 -86.4132,1.38166 -112.23125,0.71376 z"
   id="path4"
   inkscape:label="path4"
   transform="scale(0.6021975)" /><path
   style="fill:#000000;stroke-width:0.914959"
   d="m 194.01826,333.77208 c -1.26484,-0.27058 -2.36242,-1.08833 -2.92723,-2.18092 -0.32913,-0.63665 -0.4681,-1.23315 -0.4681,-2.0091 0,-1.29021 0.43393,-2.31278 1.33604,-3.14841 0.43958,-0.40718 1.2425,-0.84141 1.866,-1.00914 0.51066,-0.13737 2.08545,-0.13726 2.5954,1.9e-4 0.61035,0.1645 1.3216,0.5505 1.7453,0.94718 l 0.38071,0.35642 -0.49283,0.45966 c -0.79978,0.746 -0.70153,0.70874 -1.04441,0.39607 -0.50802,-0.46326 -1.0821,-0.67971 -1.80585,-0.68085 -1.26855,-0.002 -2.21802,0.70113 -2.56658,1.9007 -0.13214,0.45477 -0.0925,1.37421 0.0782,1.81268 0.37762,0.97042 1.22626,1.56566 2.32502,1.63081 0.78354,0.0465 1.43072,-0.17884 1.99444,-0.69429 l 0.29799,-0.27248 0.60706,0.56921 0.60705,0.56921 -0.19327,0.20361 c -0.50494,0.53192 -1.36169,0.98844 -2.16511,1.15363 -0.53637,0.11029 -1.64464,0.10816 -2.16975,-0.004 z m 85.94723,0.009 c -0.85775,-0.16169 -2.05435,-0.63343 -2.13407,-0.84133 -0.016,-0.0417 0.0475,-0.24245 0.14095,-0.44608 0.0935,-0.20363 0.23244,-0.51191 0.30869,-0.68507 l 0.13865,-0.31482 0.31649,0.19068 c 0.38,0.22892 1.02783,0.48353 1.48211,0.58248 0.18223,0.0397 0.61709,0.0727 0.96637,0.0734 0.78675,10e-4 1.11783,-0.096 1.40468,-0.4137 0.3868,-0.42835 0.21047,-0.93939 -0.41737,-1.20961 -0.15596,-0.0671 -0.70905,-0.23029 -1.22906,-0.36258 -1.59325,-0.40532 -2.06318,-0.609 -2.48639,-1.07767 -0.27271,-0.30201 -0.40686,-0.59162 -0.4804,-1.03711 -0.17121,-1.03716 0.36939,-2.04451 1.35613,-2.52699 0.67345,-0.32931 0.98015,-0.38474 2.12852,-0.3847 0.89668,3e-5 1.08236,0.016 1.51857,0.13055 0.40111,0.10533 1.35292,0.4802 1.35292,0.53285 0,0.0264 -0.56274,1.38167 -0.58165,1.40079 -0.0109,0.011 -0.22618,-0.068 -0.47838,-0.17567 -0.71956,-0.30711 -1.0963,-0.38886 -1.81146,-0.39305 -0.78415,-0.005 -1.11466,0.0928 -1.40469,0.41401 -0.16472,0.1824 -0.19672,0.25873 -0.19672,0.46905 0,0.57178 0.23609,0.71978 1.79468,1.12502 1.69883,0.44171 2.06003,0.60035 2.5346,1.1132 0.39178,0.42337 0.49574,0.75444 0.4641,1.47794 -0.0195,0.44558 -0.0498,0.59047 -0.18204,0.86653 -0.31263,0.65324 -1.04494,1.19968 -1.93313,1.4425 -0.46249,0.12644 -2.00618,0.15609 -2.5721,0.0494 z m -77.19504,-0.0693 c -1.8e-4,-0.0228 0.82608,-1.89941 1.83611,-4.17027 l 1.83642,-4.12884 0.94371,-9.6e-4 0.94369,-9.5e-4 0.0698,0.15193 c 0.12292,0.26774 3.60274,8.04967 3.63221,8.12274 0.0224,0.0557 -0.18014,0.0672 -0.97581,0.0553 l -1.00416,-0.0151 -0.36894,-0.89762 -0.36896,-0.89763 -1.93977,-1.6e-4 -1.93979,-1.5e-4 -0.37328,0.91159 -0.37331,0.9116 h -0.95876 c -0.52733,0 -0.95893,-0.0186 -0.95911,-0.0414 z m 5.909,-3.26417 c 0,-0.0958 -1.25202,-3.05678 -1.2964,-3.06594 -0.0256,-0.005 -0.3377,0.69273 -0.69356,1.55115 l -0.64701,1.56076 h 1.31848 c 0.72517,0 1.31849,-0.0207 1.31849,-0.046 z m 8.39358,-0.86562 v -4.17123 h 0.79205 0.79203 l 2.06566,2.5223 2.06564,2.5223 0.0145,-2.5223 0.0144,-2.5223 h 0.9382 0.93821 v 4.17123 4.17123 h -0.77058 -0.77059 l -2.05233,-2.49998 c -1.12879,-1.37499 -2.0742,-2.50826 -2.10092,-2.51839 -0.0275,-0.0104 -0.0486,1.07367 -0.0486,2.49998 v 2.51839 h -0.93876 -0.93875 z m 12.75574,4.12979 c -1.7e-4,-0.0228 0.82607,-1.89941 1.83609,-4.17027 l 1.83644,-4.12884 0.9437,-9.6e-4 0.9437,-9.5e-4 0.0698,0.15193 c 0.12294,0.26774 3.60273,8.04967 3.63221,8.12274 0.0224,0.0557 -0.18015,0.0672 -0.97579,0.0553 l -1.00417,-0.0151 -0.36896,-0.89762 -0.36894,-0.89763 -1.93979,-1.6e-4 -1.93978,-1.5e-4 -0.37328,0.91159 -0.37329,0.9116 h -0.95878 c -0.52733,0 -0.95892,-0.0186 -0.9591,-0.0414 z m 5.90898,-3.26417 c 0,-0.0958 -1.25201,-3.05678 -1.29638,-3.06594 -0.0256,-0.005 -0.33771,0.69273 -0.69357,1.55115 l -0.647,1.56076 h 1.31847 c 0.72517,0 1.31848,-0.0207 1.31848,-0.046 z m 8.44882,-0.86952 v -4.17513 l 2.22266,0.021 c 2.07557,0.0196 2.2513,0.0289 2.65568,0.14105 1.15308,0.31978 1.85989,0.93009 2.19602,1.89622 0.16846,0.48419 0.17221,1.40934 0.007,1.9135 -0.212,0.64987 -0.70381,1.23915 -1.27657,1.52952 -0.15588,0.079 -0.28343,0.15591 -0.28343,0.17083 0,0.0149 0.36859,0.55523 0.8191,1.20071 0.45049,0.64548 0.86336,1.24196 0.91748,1.32553 l 0.0984,0.15193 h -1.01687 -1.01687 l -0.79796,-1.15885 -0.79797,-1.15886 -0.89735,-10e-4 -0.89734,-0.001 v 1.16021 1.16021 h -0.96637 -0.96637 z m 4.42943,0.18029 c 0.28865,-0.13133 0.58178,-0.4032 0.72069,-0.66839 0.0924,-0.17653 0.1185,-0.32332 0.1185,-0.66821 0,-0.5184 -0.11696,-0.7992 -0.44588,-1.07046 -0.36903,-0.30432 -0.59669,-0.35241 -1.79938,-0.38007 l -1.09063,-0.0251 v 1.47467 1.47467 l 1.14585,-0.0219 c 0.92357,-0.0177 1.18561,-0.04 1.35085,-0.11521 z m 8.43708,-0.17639 v -4.17123 h 0.96637 0.96637 v 4.17123 4.17123 h -0.96637 -0.96637 z m 7.01274,4.12979 c -1.8e-4,-0.0228 0.82607,-1.89941 1.83611,-4.17027 l 1.83642,-4.12884 0.94371,-9.6e-4 0.94369,-9.5e-4 0.0698,0.15193 c 0.12292,0.26774 3.60274,8.04967 3.63221,8.12274 0.0225,0.0557 -0.18015,0.0672 -0.97581,0.0553 l -1.00416,-0.0151 -0.36895,-0.89762 -0.36895,-0.89763 -1.93977,-1.6e-4 -1.93979,-1.5e-4 -0.37328,0.91159 -0.37331,0.9116 h -0.95877 c -0.52732,0 -0.95892,-0.0186 -0.95911,-0.0414 z m 5.909,-3.26417 c 0,-0.0958 -1.25203,-3.05678 -1.29641,-3.06594 -0.0256,-0.005 -0.33769,0.69273 -0.69355,1.55115 l -0.647,1.56076 h 1.31847 c 0.72516,0 1.31849,-0.0207 1.31849,-0.046 z m -15.82947,-14.2628 c -0.67072,-0.14086 -1.22887,-0.66359 -1.42341,-1.33307 -0.0792,-0.27236 -0.0868,-0.98522 -0.0737,-6.84752 l 0.0147,-6.54351 0.14806,-0.31604 c 0.17493,-0.37342 0.54404,-0.75079 0.91265,-0.93305 0.22499,-0.11125 0.34729,-0.13084 0.81681,-0.13084 0.47541,0 0.59061,0.0189 0.82831,0.13617 0.15186,0.0749 0.3824,0.24244 0.51231,0.37232 l 0.23617,0.23617 0.31603,-0.1593 c 1.36131,-0.68617 3.41722,-0.81013 4.98075,-0.30033 0.50624,0.16507 1.13908,0.47686 1.61027,0.79335 0.45294,0.30423 1.5085,1.3603 1.81258,1.81346 0.74741,1.11384 1.10673,2.32781 1.10673,3.73916 0,1.86688 -0.62859,3.37712 -1.95462,4.69607 -1.31578,1.30877 -2.88375,1.95974 -4.71731,1.9585 -0.84885,-5.8e-4 -1.97336,-0.23789 -2.72946,-0.57601 -0.0899,-0.0402 -0.0966,0.0204 -0.0966,0.86426 0,1.0105 -0.0635,1.33926 -0.33537,1.73453 -0.4265,0.6202 -1.23723,0.9485 -1.96492,0.79568 z m 5.85976,-6.71485 c 0.86727,-0.22601 1.61395,-0.88697 1.97255,-1.74612 0.10614,-0.25432 0.12393,-0.39816 0.12539,-1.01456 0.002,-0.62693 -0.0147,-0.75913 -0.12753,-1.04 -0.27509,-0.68507 -0.96176,-1.37208 -1.64649,-1.64731 -0.28073,-0.11284 -0.41287,-0.12906 -1.0395,-0.12758 -0.61609,0.001 -0.75986,0.0192 -1.01407,0.12545 -1.5723,0.6569 -2.2713,2.43702 -1.54418,3.93252 0.34291,0.70531 1.21308,1.40278 1.92322,1.54153 0.3991,0.078 1.0004,0.0673 1.35061,-0.0239 z m -105.6107,3.82502 c -0.49986,-0.14195 -1.00098,-0.58116 -1.23085,-1.07881 -0.11659,-0.2524 -0.11971,-0.32293 -0.13601,-3.07598 -0.0173,-2.92365 0.005,-3.35949 0.21541,-4.18955 0.4388,-1.73182 1.81333,-3.40008 3.50108,-4.24923 1.7381,-0.87448 4.12727,-0.87011 5.88845,0.0108 0.67605,0.33814 1.0841,0.64254 1.73714,1.29591 0.84975,0.85016 1.32006,1.58885 1.64325,2.58097 0.29619,0.90928 0.31911,1.24963 0.30102,4.46825 l -0.0166,2.95577 -0.13141,0.26474 c -0.41124,0.82846 -1.34569,1.25107 -2.23421,1.01044 -0.58418,-0.1582 -1.12715,-0.669 -1.31575,-1.23776 -0.0479,-0.1444 -0.0763,-1.05008 -0.0983,-3.13131 -0.0308,-2.90879 -0.0318,-2.93027 -0.1605,-3.24992 -0.27603,-0.68568 -0.9623,-1.37216 -1.64681,-1.64731 -0.28074,-0.11284 -0.41288,-0.12906 -1.03951,-0.12758 -0.61608,0.001 -0.75985,0.0192 -1.01406,0.12545 -0.77862,0.3253 -1.34485,0.90959 -1.68301,1.73669 -0.11471,0.28058 -0.11936,0.38351 -0.14645,3.24554 l -0.0279,2.95578 -0.15263,0.31084 c -0.18013,0.36684 -0.60587,0.78484 -0.95816,0.94075 -0.31555,0.13965 -0.95471,0.1819 -1.29404,0.0855 z m 18.22567,-0.0107 c -1.81514,-0.28942 -3.45786,-1.36472 -4.51615,-2.95622 -0.83709,-1.25886 -1.2142,-2.95663 -1.00231,-4.51254 0.20559,-1.50973 0.80037,-2.70242 1.899,-3.80803 0.8089,-0.81403 1.64265,-1.33852 2.61606,-1.64566 0.87391,-0.27576 1.24374,-0.30992 3.35546,-0.30992 2.33611,0 2.36421,0.006 2.93184,0.58045 0.29459,0.29835 0.35828,0.4009 0.4628,0.7452 0.21869,0.72035 0.0313,1.43892 -0.50727,1.94511 -0.51732,0.48623 -0.60769,0.50314 -2.89252,0.54141 -1.89635,0.0318 -2.00209,0.039 -2.29448,0.15819 -0.31073,0.12663 -1.0464,0.63855 -1.0464,0.72815 0,0.0275 1.19183,0.0558 2.71964,0.0647 l 2.71964,0.0158 0.31421,0.15438 c 1.43393,0.70451 1.43316,2.71559 -0.002,3.4224 l -0.3655,0.18009 -2.70377,0.0276 -2.70375,0.0276 0.26765,0.23564 c 0.32856,0.28927 0.84168,0.54643 1.2379,0.62041 0.1636,0.0306 1.06178,0.0555 1.99596,0.0555 1.54896,0 1.73035,0.01 2.0602,0.11178 1.34718,0.4163 1.73368,2.20197 0.68834,3.18024 -0.52547,0.49175 -0.51433,0.48974 -2.77787,0.50187 -1.45001,0.008 -2.11498,-0.01 -2.45734,-0.0642 z m 12.14865,-0.002 c -2.41087,-0.3764 -4.49813,-2.1646 -5.24971,-4.49755 -0.30817,-0.95655 -0.33307,-1.3092 -0.3157,-4.46997 l 0.0157,-2.85446 0.14804,-0.31604 c 0.17495,-0.37342 0.54406,-0.75079 0.91266,-0.93305 0.22463,-0.11107 0.34804,-0.13093 0.81681,-0.13143 0.49795,-5.4e-4 0.58089,0.0145 0.84402,0.15318 0.37937,0.19993 0.71095,0.54395 0.89008,0.92348 l 0.14342,0.30386 0.0285,2.95577 c 0.0276,2.86317 0.0321,2.96492 0.14722,3.24755 0.1792,0.4403 0.43335,0.80481 0.79423,1.13907 1.46676,1.35863 3.79218,0.81199 4.59124,-1.07926 0.12354,-0.29239 0.12559,-0.3357 0.15352,-3.25211 l 0.0283,-2.95577 0.16042,-0.34759 c 0.20345,-0.4408 0.62821,-0.84132 1.06844,-1.00745 0.40678,-0.1535 1.06505,-0.13393 1.46231,0.0435 0.33239,0.14843 0.78694,0.60125 0.9431,0.93949 0.11879,0.25732 0.12102,0.30997 0.1364,3.23752 0.0129,2.45972 8.5e-4,3.06001 -0.068,3.4605 -0.24431,1.41642 -0.82595,2.52276 -1.87473,3.56594 -1.10506,1.09918 -2.29716,1.69425 -3.80616,1.89994 -0.5643,0.0769 -1.38354,0.0665 -1.97016,-0.0251 z m 9.88183,0.0123 c -0.49987,-0.14195 -1.00098,-0.58116 -1.23086,-1.07881 -0.11659,-0.2524 -0.11971,-0.32293 -0.136,-3.07598 -0.0109,-1.84072 0.005,-2.98047 0.0446,-3.28726 0.19945,-1.52957 0.79268,-2.72873 1.90237,-3.84547 1.04805,-1.05469 2.14639,-1.63055 3.58436,-1.87928 0.70825,-0.12251 1.57422,-0.0855 1.92014,0.0822 0.40971,0.19851 0.68883,0.47482 0.88752,0.8786 0.16484,0.33502 0.18178,0.41589 0.18178,0.86784 0,0.43276 -0.0201,0.53944 -0.15299,0.81008 -0.33193,0.67626 -0.89369,1.00967 -1.8413,1.09287 -0.6664,0.0585 -1.03693,0.17611 -1.44951,0.46006 -0.51874,0.35703 -0.87378,0.80811 -1.1308,1.43674 -0.11471,0.28058 -0.11935,0.38351 -0.14645,3.24554 l -0.0279,2.95578 -0.15263,0.31084 c -0.18013,0.36684 -0.60588,0.78484 -0.95817,0.94075 -0.31554,0.13965 -0.9547,0.1819 -1.29403,0.0855 z m 11.82003,-0.0123 c -1.80589,-0.28195 -3.45737,-1.36241 -4.51615,-2.95466 -1.19048,-1.7903 -1.39254,-4.26138 -0.51497,-6.2979 0.57914,-1.34401 1.82268,-2.6452 3.18122,-3.32872 1.7381,-0.87448 4.12728,-0.87011 5.88844,0.0108 0.67607,0.33814 1.08412,0.64254 1.73716,1.29591 0.65304,0.65336 0.9573,1.06161 1.29528,1.738 0.88045,1.76203 0.88482,4.15237 0.0108,5.89133 -0.49731,0.9894 -1.42574,2.03529 -2.35143,2.64893 -1.35092,0.89552 -3.0644,1.25642 -4.73032,0.99633 z m 1.79239,-3.81273 c 0.86728,-0.22601 1.61396,-0.88697 1.97254,-1.74612 0.10617,-0.25432 0.12393,-0.39816 0.1254,-1.01456 0.002,-0.62693 -0.0147,-0.75913 -0.12752,-1.04 -0.27511,-0.68507 -0.96178,-1.37208 -1.6465,-1.64731 -0.28074,-0.11284 -0.41287,-0.12906 -1.0395,-0.12758 -0.6161,10e-4 -0.75987,0.0192 -1.01406,0.12545 -1.57229,0.6569 -2.27129,2.43702 -1.5442,3.93252 0.34293,0.70531 1.21309,1.40278 1.92322,1.54153 0.39911,0.078 1.00041,0.0673 1.35062,-0.0239 z m 8.08946,3.82245 c -0.49576,-0.13572 -1.00012,-0.57672 -1.23087,-1.07624 l -0.11933,-0.25832 v -5.24857 -5.24857 l 0.14806,-0.31604 c 0.17494,-0.37342 0.54406,-0.75079 0.91265,-0.93305 0.22463,-0.11107 0.34804,-0.13093 0.81682,-0.13143 0.49794,-5.4e-4 0.58088,0.0145 0.84402,0.15318 0.37936,0.19993 0.71095,0.54395 0.89007,0.92348 l 0.14342,0.30386 0.0155,4.04329 0.0156,4.04329 1.66873,0.0174 1.66874,0.0174 0.31059,0.1526 c 0.36647,0.18007 0.78108,0.60283 0.9493,0.96798 0.17516,0.38021 0.17016,1.14096 -0.0102,1.54248 -0.15517,0.34554 -0.61888,0.80229 -0.98743,0.97259 -0.25789,0.11916 -0.30919,0.12141 -3.0234,0.13229 -2.06104,0.008 -2.82474,-0.006 -3.01227,-0.0577 z m 9.05625,0.003 c -0.49987,-0.14195 -1.00098,-0.58116 -1.23087,-1.07881 l -0.11931,-0.25832 v -5.24857 -5.24857 l 0.14805,-0.31604 c 0.17493,-0.37342 0.54404,-0.75079 0.91264,-0.93305 0.22462,-0.11107 0.34803,-0.13093 0.81682,-0.13143 0.49795,-5.4e-4 0.58088,0.0145 0.84401,0.15318 0.37937,0.19993 0.71096,0.54395 0.89007,0.92348 l 0.14342,0.30386 v 5.24857 5.24857 l -0.15263,0.31084 c -0.18013,0.36684 -0.60587,0.78484 -0.95816,0.94075 -0.31555,0.13965 -0.9547,0.1819 -1.29404,0.0855 z m 4.80423,0 c -0.49987,-0.14195 -1.00099,-0.58116 -1.23086,-1.07881 -0.11659,-0.2524 -0.11971,-0.32293 -0.13601,-3.07598 -0.0109,-1.84072 0.005,-2.98047 0.0446,-3.28726 0.19943,-1.52957 0.79267,-2.72873 1.90237,-3.84547 1.31832,-1.32667 2.8278,-1.95558 4.69377,-1.95558 1.73019,0 3.24951,0.57003 4.40718,1.6535 l 0.34463,0.32254 0.24834,-0.22292 c 1.34283,-1.20532 2.75769,-1.75312 4.52798,-1.75312 1.90297,0 3.39477,0.62457 4.749,1.98826 1.1169,1.12468 1.72442,2.43374 1.88064,4.0523 0.0363,0.3755 0.0526,1.63277 0.042,3.2135 l -0.0175,2.59666 -0.14304,0.30386 c -0.26616,0.56545 -0.66435,0.91302 -1.23675,1.0795 -0.8684,0.25258 -1.78506,-0.15219 -2.22149,-0.98093 l -0.15375,-0.29194 -0.0303,-2.95577 c -0.0295,-2.87325 -0.0338,-2.9649 -0.1521,-3.2828 -0.17106,-0.45936 -0.40881,-0.80831 -0.79348,-1.16461 -0.57144,-0.52932 -1.12747,-0.7446 -1.92322,-0.7446 -0.78712,0 -1.34193,0.21176 -1.90674,0.72775 -0.38167,0.34868 -0.63633,0.72979 -0.80912,1.21089 -0.12456,0.34685 -0.12719,0.40258 -0.15497,3.281 l -0.0283,2.92814 -0.13142,0.26474 c -0.41123,0.82846 -1.34568,1.25107 -2.2342,1.01044 -0.58417,-0.1582 -1.12714,-0.669 -1.31576,-1.23776 -0.048,-0.1444 -0.0763,-1.05008 -0.0983,-3.13131 -0.0308,-2.90879 -0.0318,-2.93027 -0.16052,-3.24992 -0.27603,-0.68568 -0.96231,-1.37216 -1.64682,-1.64731 -0.28074,-0.11284 -0.41286,-0.12906 -1.03948,-0.12758 -0.6161,0.001 -0.75987,0.0192 -1.01408,0.12545 -0.77861,0.3253 -1.34485,0.90959 -1.683,1.73669 -0.11473,0.28058 -0.11938,0.38351 -0.14644,3.24554 l -0.0279,2.95578 -0.15264,0.31084 c -0.18013,0.36684 -0.60587,0.78484 -0.95816,0.94075 -0.31555,0.13965 -0.95471,0.1819 -1.29405,0.0855 z m 37.88164,0 c -0.49987,-0.14195 -1.00097,-0.58116 -1.23085,-1.07881 l -0.11933,-0.25832 v -5.24857 -5.24857 l 0.14804,-0.31604 c 0.17495,-0.37342 0.54406,-0.75079 0.91266,-0.93305 0.22461,-0.11107 0.34803,-0.13093 0.81681,-0.13143 0.49795,-5.4e-4 0.58088,0.0145 0.84402,0.15318 0.37936,0.19993 0.71094,0.54395 0.89007,0.92348 l 0.14343,0.30386 v 5.24857 5.24857 l -0.15265,0.31084 c -0.18012,0.36684 -0.60586,0.78484 -0.95815,0.94075 -0.31555,0.13965 -0.95471,0.1819 -1.29405,0.0855 z m 8.8381,-0.009 c -1.82752,-0.29937 -3.45851,-1.36773 -4.51616,-2.95827 -0.83709,-1.25886 -1.21419,-2.95663 -1.00233,-4.51254 0.20561,-1.50973 0.80039,-2.70242 1.89903,-3.80803 1.31898,-1.32736 2.82764,-1.95558 4.69626,-1.95558 1.02608,0 1.83853,0.16304 2.73804,0.54944 l 0.47398,0.20361 0.28453,-0.26177 c 0.40393,-0.3716 0.79414,-0.50867 1.3629,-0.47876 0.28756,0.0151 0.53304,0.064 0.70322,0.14 0.33239,0.14843 0.78695,0.60125 0.9431,0.93949 l 0.12077,0.26157 v 5.30382 5.30381 l -0.13141,0.26474 c -0.18333,0.36931 -0.56043,0.73828 -0.93323,0.91309 -0.265,0.12427 -0.39151,0.14813 -0.78526,0.14813 -0.55622,0 -0.93876,-0.1488 -1.34452,-0.523 l -0.24835,-0.22904 -0.26658,0.13407 c -0.36957,0.18588 -1.012,0.39879 -1.53665,0.50927 -0.59664,0.12564 -1.85674,0.15433 -2.45734,0.0559 z m 1.79239,-3.81634 c 0.86727,-0.22601 1.61395,-0.88697 1.97254,-1.74612 0.10617,-0.25432 0.12393,-0.39816 0.12539,-1.01456 0.002,-0.62693 -0.0146,-0.75913 -0.12753,-1.04 -0.27509,-0.68507 -0.96176,-1.37208 -1.64648,-1.64731 -0.28074,-0.11284 -0.41289,-0.12906 -1.03951,-0.12758 -0.61609,10e-4 -0.75986,0.0192 -1.01406,0.12545 -1.57229,0.6569 -2.27129,2.43702 -1.54419,3.93252 0.34291,0.70531 1.21309,1.40278 1.92321,1.54153 0.39912,0.078 1.00043,0.0673 1.35063,-0.0239 z m 12.28898,3.81634 c -1.82752,-0.29937 -3.45851,-1.36773 -4.51616,-2.95827 -0.8371,-1.25886 -1.21419,-2.95663 -1.00231,-4.51254 0.20559,-1.50973 0.80036,-2.70242 1.899,-3.80803 1.3143,-1.32264 2.82874,-1.95558 4.67913,-1.95558 0.9833,0 1.86848,0.16248 2.56559,0.47093 l 0.28491,0.12606 0.0251,-0.97528 c 0.0274,-1.06303 0.0648,-1.24877 0.33205,-1.64655 0.81347,-1.2109 2.65044,-1.07705 3.30461,0.24079 l 0.13141,0.26473 v 6.74027 6.74026 l -0.13141,0.26474 c -0.18332,0.36931 -0.56042,0.73828 -0.93324,0.91309 -0.26499,0.12427 -0.39149,0.14813 -0.78525,0.14813 -0.55623,0 -0.93874,-0.1488 -1.34451,-0.523 l -0.24836,-0.22904 -0.26657,0.13407 c -0.36957,0.18588 -1.012,0.39879 -1.53666,0.50927 -0.59663,0.12564 -1.85674,0.15433 -2.45733,0.0559 z m 1.79239,-3.81634 c 0.86728,-0.22601 1.61394,-0.88697 1.97255,-1.74612 0.10615,-0.25432 0.12392,-0.39816 0.12537,-1.01456 0.002,-0.62693 -0.0147,-0.75913 -0.12751,-1.04 -0.2751,-0.68507 -0.96177,-1.37208 -1.64649,-1.64731 -0.28075,-0.11284 -0.41289,-0.12906 -1.0395,-0.12758 -0.61609,10e-4 -0.75987,0.0192 -1.01407,0.12545 -1.57229,0.6569 -2.2713,2.43702 -1.5442,3.93252 0.34293,0.70531 1.21309,1.40278 1.92323,1.54153 0.39911,0.078 1.00041,0.0673 1.35062,-0.0239 z m 12.28897,3.81634 c -1.82751,-0.29937 -3.4585,-1.36773 -4.51615,-2.95827 -0.83709,-1.25886 -1.21421,-2.95663 -1.00232,-4.51254 0.20559,-1.50973 0.80038,-2.70242 1.89901,-3.80803 1.319,-1.32736 2.82765,-1.95558 4.69628,-1.95558 1.02605,0 1.83853,0.16304 2.73802,0.54944 l 0.47397,0.20361 0.28454,-0.26177 c 0.40395,-0.3716 0.79414,-0.50867 1.36292,-0.47876 0.28756,0.0151 0.53304,0.064 0.70321,0.14 0.33238,0.14843 0.78694,0.60125 0.94309,0.93949 l 0.12077,0.26157 v 5.30382 5.30381 l -0.13141,0.26474 c -0.18332,0.36931 -0.56042,0.73828 -0.93324,0.91309 -0.26498,0.12427 -0.39148,0.14813 -0.78525,0.14813 -0.55623,0 -0.93875,-0.1488 -1.34452,-0.523 l -0.24835,-0.22904 -0.26657,0.13407 c -0.36958,0.18588 -1.012,0.39879 -1.53666,0.50927 -0.59664,0.12564 -1.85674,0.15433 -2.45734,0.0559 z m 1.7924,-3.81634 c 0.86727,-0.22601 1.61395,-0.88697 1.97254,-1.74612 0.10615,-0.25432 0.12393,-0.39816 0.1254,-1.01456 0.002,-0.62693 -0.0147,-0.75913 -0.12753,-1.04 -0.2751,-0.68507 -0.96178,-1.37208 -1.64651,-1.64731 -0.28073,-0.11284 -0.41286,-0.12906 -1.03948,-0.12758 -0.6161,10e-4 -0.75987,0.0192 -1.01407,0.12545 -1.5723,0.6569 -2.2713,2.43702 -1.54419,3.93252 0.34291,0.70531 1.21309,1.40278 1.92321,1.54153 0.39911,0.078 1.00042,0.0673 1.35063,-0.0239 z m 8.31032,3.82309 c -0.49774,-0.13752 -1.00288,-0.58007 -1.22921,-1.07688 -0.16771,-0.36816 -0.16719,-1.14407 8.3e-4,-1.51341 0.16576,-0.36392 0.58027,-0.78719 0.94786,-0.96787 l 0.31069,-0.15271 3.00068,-0.0276 3.00067,-0.0276 0.10551,-0.13043 c 0.1382,-0.17083 0.13421,-0.45351 -0.009,-0.63559 l -0.11445,-0.14557 h -1.7231 c -1.74997,0 -2.39532,-0.0441 -2.99028,-0.20423 -1.02421,-0.27569 -1.77093,-0.86484 -2.22005,-1.75159 -0.51513,-1.01706 -0.59723,-2.94529 -0.17866,-4.19562 0.21805,-0.65127 0.38799,-0.93188 0.83078,-1.37171 0.41865,-0.41587 0.91722,-0.68716 1.62988,-0.88689 0.42293,-0.11853 0.52815,-0.12244 3.78032,-0.14042 3.31913,-0.0183 3.34783,-0.0175 3.6722,0.1015 0.24651,0.0905 0.41094,0.20507 0.66852,0.46595 0.29459,0.29835 0.35828,0.4009 0.4628,0.7452 0.0944,0.31113 0.1135,0.47305 0.0862,0.7337 -0.0738,0.70566 -0.5436,1.33971 -1.18399,1.59767 -0.31037,0.12503 -0.34934,0.12687 -3.27991,0.15463 -2.88417,0.0273 -2.9681,0.0311 -3.0492,0.13859 -0.11771,0.15594 -0.10818,0.48633 0.0186,0.64305 l 0.10545,0.13042 2.08958,0.0323 c 1.90743,0.0295 2.12808,0.0427 2.53134,0.15161 1.10901,0.29948 1.8771,0.88325 2.28786,1.73883 0.37144,0.77373 0.53995,1.7319 0.48038,2.73159 -0.12656,2.12407 -0.96638,3.27824 -2.73633,3.76056 l -0.5289,0.14413 -3.25804,0.0139 c -2.48131,0.0106 -3.31795,-0.003 -3.50927,-0.0555 z"
   id="path6" /><path
   style="fill:#000000;stroke-width:0.726401"
   d="m 254.90675,290.27021 c -0.22664,-0.0615 -0.52476,-0.16859 -0.66249,-0.23803 -1.50306,-0.75786 -2.73913,-2.63981 -3.22785,-4.91444 -0.17959,-0.83588 -0.1825,-2.4248 -0.006,-3.18132 0.31219,-1.33684 1.07738,-2.90328 2.02432,-4.1441 0.37731,-0.49439 1.38693,-1.52328 2.01574,-2.05423 1.56517,-1.32153 3.90783,-2.68028 6.69144,-3.88104 0.89731,-0.38708 4.85996,-1.98656 4.9216,-1.98656 0.0181,0 -0.12608,0.22684 -0.32048,0.50411 -2.00722,2.86281 -3.21181,5.14405 -3.87124,7.33131 -0.41228,1.36748 -0.58656,2.47562 -0.67055,4.26339 -0.0822,1.7489 -0.24175,2.70437 -0.64165,3.84167 -0.42575,1.21078 -1.01184,2.14612 -1.88884,3.01432 -0.70263,0.69559 -1.2822,1.07157 -2.06336,1.33856 -0.67936,0.23218 -1.66828,0.27789 -2.30082,0.10636 z m -7.09892,-10.96907 c -0.64884,-1.57146 -1.75482,-3.31395 -3.06035,-4.82158 -2.20896,-2.55094 -3.83608,-3.87903 -6.07734,-4.9605 -1.42426,-0.68723 -2.67419,-1.07269 -4.32059,-1.33241 -0.73921,-0.11661 -1.0228,-0.12768 -3.39886,-0.13263 -2.71944,-0.006 -2.81126,-0.0131 -3.44838,-0.27933 -0.51268,-0.21424 -0.8297,-0.82282 -0.77024,-1.47863 0.0803,-0.88595 0.71116,-1.53174 1.90609,-1.95128 1.01313,-0.35571 3.00955,-0.79045 4.53043,-0.98655 1.44808,-0.18671 2.00575,-0.2881 2.71871,-0.4943 3.09094,-0.89394 5.16964,-2.77979 5.84941,-5.30674 0.13763,-0.5116 0.15188,-0.66379 0.15522,-1.65795 0.004,-1.22051 -0.0545,-1.60459 -0.40869,-2.67904 -0.44284,-1.34326 -1.26568,-2.73044 -2.74134,-4.62143 -1.43522,-1.83917 -1.65743,-2.21497 -1.65471,-2.79845 0.002,-0.53567 0.39369,-1.05643 0.85171,-1.13383 0.5972,-0.10091 1.96319,0.56402 3.20838,1.56176 0.70574,0.5655 2.91247,2.75864 3.75994,3.7368 1.29804,1.49819 2.3958,3.12763 3.23479,4.80149 3.321,6.62561 3.42857,14.65746 0.31883,23.8056 -0.20967,0.61679 -0.39854,1.13927 -0.41972,1.16111 -0.0212,0.0218 -0.12616,-0.17262 -0.23329,-0.43211 z m 10.47779,-9.48444 c -0.93668,-0.13015 -1.73787,-0.52696 -2.39072,-1.18408 -0.53669,-0.5402 -0.78226,-0.93053 -1.02072,-1.62239 -0.9066,-2.6305 1.10757,-5.4404 3.89592,-5.43508 0.71779,9.7e-4 1.23222,0.12129 1.87745,0.43763 0.46422,0.22758 0.62675,0.34824 1.07102,0.79506 0.84508,0.84993 1.19619,1.69454 1.19962,2.88567 0.002,0.74501 -0.0949,1.16801 -0.42302,1.84364 -0.39769,0.81892 -0.97267,1.40934 -1.79261,1.84075 -0.68669,0.3613 -1.67862,0.54139 -2.41694,0.4388 z m 10.06364,-2.14993 c -0.12667,-1.36031 -0.33854,-2.81942 -0.58819,-4.05083 -0.72062,-3.55436 -2.06166,-6.20942 -3.98624,-7.89217 -2.27661,-1.99054 -5.36691,-2.97106 -10.06903,-3.19481 -2.02574,-0.0964 -2.54867,-0.23929 -3.64737,-0.99665 -0.76211,-0.52533 -1.10528,-1.03197 -1.10528,-1.63176 0,-0.46428 0.19555,-0.84546 0.71635,-1.39634 1.06185,-1.12317 2.56844,-1.86923 4.54513,-2.25072 0.33802,-0.0653 1.30802,-0.21031 2.15556,-0.32236 2.61343,-0.34554 3.5512,-0.53045 4.67599,-0.922 5.22103,-1.8175 7.83852,-7.03964 6.07983,-12.12982 -0.37425,-1.08319 -0.88303,-1.91349 -2.18681,-3.56868 -1.12018,-1.42211 -1.38973,-2.04028 -1.34287,-3.07972 0.0283,-0.62887 0.18966,-1.02827 0.56683,-1.40344 0.98865,-0.98343 2.73378,-1.05088 4.21868,-0.16307 0.70039,0.41876 1.24588,0.99 2.31842,2.42781 3.29549,4.41776 5.37535,7.65486 6.88538,10.71641 1.60046,3.24488 2.34214,5.644 2.62714,8.49797 0.13963,1.39829 0.13987,4.02441 4.8e-4,5.21403 -0.50763,4.33225 -2.14595,7.85014 -5.3394,11.46505 -0.79178,0.89629 -2.63371,2.68678 -3.69208,3.58899 -0.97453,0.83073 -2.62324,2.14355 -2.69199,2.14355 -0.0234,0 -0.0867,-0.47314 -0.14053,-1.05144 z m -51.48369,-0.85299 c -2.89539,-0.24722 -5.6148,-0.97766 -8.0363,-2.15852 -1.65387,-0.80651 -2.39666,-1.29597 -3.09752,-2.04108 -1.15834,-1.23143 -1.36572,-2.62218 -0.61696,-4.13759 0.39462,-0.79867 0.91437,-1.33699 1.61598,-1.67372 0.63757,-0.306 1.04397,-0.37955 1.8842,-0.34105 0.86102,0.0394 1.45908,0.20981 2.46101,0.70097 1.48616,0.72854 2.54008,1.55071 4.34939,3.39303 2.05829,2.09583 3.1296,3.03501 4.46461,3.914 1.30116,0.85667 2.7489,1.48438 4.14648,1.79785 l 0.5765,0.12931 -0.37402,0.0625 c -0.59674,0.0997 -1.17785,0.17707 -2.07345,0.27614 -0.9786,0.10826 -4.36307,0.15818 -5.29992,0.0781 z m 16.1302,-6.14344 c -2.12741,-0.35336 -3.79023,-1.81114 -4.32855,-3.79479 -0.16258,-0.59912 -0.17954,-1.81692 -0.0334,-2.40152 0.62038,-2.48233 2.6407,-4.07537 5.1685,-4.07537 2.44595,0 4.53427,1.51778 5.14023,3.73589 0.17204,0.62973 0.17091,1.86646 -0.002,2.5012 -0.15653,0.57371 -0.51412,1.33656 -0.83879,1.78946 -0.29659,0.4137 -1.03851,1.14441 -1.4376,1.41587 -0.47264,0.32148 -1.23318,0.64421 -1.78796,0.75872 -0.48925,0.10097 -1.47433,0.13794 -1.88012,0.0705 z m -10.8585,-0.25856 c -0.78077,-0.14889 -1.62515,-0.81056 -1.97637,-1.54869 -0.38166,-0.8021 -0.3768,-1.70733 0.0134,-2.50295 0.2513,-0.51235 0.51872,-0.82348 0.96266,-1.11995 0.5391,-0.36003 1.02322,-0.48489 1.75409,-0.45237 0.56019,0.0249 0.63039,0.0421 1.0774,0.2636 0.61455,0.30457 1.0538,0.75125 1.34802,1.37085 0.18884,0.39767 0.21242,0.50092 0.23612,1.03405 0.0217,0.48859 0.005,0.66174 -0.0942,0.98912 -0.42992,1.41558 -1.83794,2.24921 -3.32116,1.96634 z m -23.14813,-1.34391 c -0.51321,-0.14109 -0.91945,-0.39007 -1.3646,-0.83635 -0.73145,-0.7333 -1.27463,-1.8089 -1.98884,-3.93827 -0.87677,-2.61403 -1.2519,-4.80374 -1.25475,-7.3241 -0.002,-1.88072 0.16162,-3.24233 0.6008,-4.99596 0.78652,-3.14056 2.36129,-6.21431 4.64312,-9.06284 3.34155,-4.17138 7.70557,-6.76228 13.09293,-7.7732 1.72294,-0.3233 4.03944,-0.53365 5.21351,-0.47341 1.44829,0.0743 3.45237,0.38457 4.87585,0.75485 3.35393,0.87241 6.26199,2.57757 7.09016,4.15737 0.31598,0.60275 0.40972,1.03566 0.37294,1.72233 -0.0873,1.629 -0.98545,2.76735 -2.61153,3.30977 -1.02307,0.34128 -1.89986,0.44043 -5.11879,0.57889 -1.82843,0.0786 -3.16081,0.26163 -4.66112,0.64012 -2.5224,0.63636 -4.65055,1.63099 -6.57241,3.07176 -0.82506,0.61852 -2.35162,2.11606 -3.01645,2.95909 -1.23104,1.56104 -2.26551,3.44797 -2.99692,5.46651 -0.61948,1.70963 -0.95014,2.99011 -1.62425,6.28984 -0.60117,2.94272 -0.77884,3.55425 -1.23033,4.2345 -0.41598,0.62676 -0.94706,1.00438 -1.67407,1.19033 -0.52356,0.13391 -1.34439,0.14721 -1.77525,0.0288 z m 56.18529,-0.48585 c -0.91888,-0.27953 -1.37491,-1.35442 -0.9333,-2.19985 0.68854,-1.31813 2.7228,-0.92806 2.87547,0.55136 0.0953,0.92396 -0.63508,1.717 -1.5634,1.69739 -0.12891,-0.003 -0.29936,-0.0247 -0.37877,-0.0489 z m -38.28006,-5.25283 c -0.95305,-0.13736 -2.17003,-0.63927 -2.91814,-1.20353 -1.49422,-1.127 -2.45689,-2.75534 -2.73251,-4.62197 -0.41529,-2.81255 1.00426,-5.54162 3.54616,-6.81743 1.14519,-0.57478 2.42488,-0.81795 3.74632,-0.71187 3.86579,0.31032 6.44169,3.73067 5.84357,7.75926 -0.38885,2.61897 -2.14187,4.65473 -4.63381,5.38112 -0.85258,0.24852 -2.01064,0.3356 -2.85159,0.21442 z m 28.60975,-8.67394 c -0.51518,-0.81447 -0.97506,-1.39808 -1.64498,-2.08758 -1.34227,-1.38146 -2.65831,-2.27193 -4.84335,-3.27714 -1.43189,-0.65873 -2.42116,-1.36368 -3.16454,-2.25503 -0.89933,-1.07835 -1.37573,-2.1861 -1.45146,-3.37505 -0.0856,-1.34339 0.5264,-2.48726 1.60262,-2.9956 0.71578,-0.33809 1.05668,-0.40409 2.06285,-0.39941 0.77285,0.004 0.96811,0.0244 1.45205,0.15445 0.67101,0.18039 1.42416,0.52382 1.91158,0.87167 0.45913,0.32766 1.52402,1.4384 1.95162,2.03563 1.78452,2.49252 2.51815,5.64788 2.45063,10.54028 l -0.0176,1.27693 z m -15.93114,-0.71767 c -0.12405,-0.029 -0.38329,-0.13062 -0.57608,-0.22557 -1.5707,-0.7737 -2.09997,-2.75276 -1.13487,-4.24357 0.53548,-0.82719 1.39871,-1.28534 2.42178,-1.28534 0.87,0 1.56605,0.29296 2.13096,0.89692 1.10854,1.18514 1.08766,2.92229 -0.0488,4.06415 -0.6029,0.60574 -1.22664,0.86203 -2.07379,0.85209 -0.27149,-0.004 -0.59512,-0.0296 -0.71917,-0.0587 z m 26.43713,-2.15172 c -1.26555,-0.23253 -2.40881,-0.85681 -3.34336,-1.82561 -1.06428,-1.10326 -1.60025,-2.239 -1.76245,-3.73469 -0.15189,-1.40053 0.24086,-2.86935 1.09933,-4.11129 0.3307,-0.47842 1.01235,-1.17749 1.52934,-1.56842 0.50165,-0.37932 1.52084,-0.86457 2.1891,-1.04227 0.5057,-0.13446 0.68518,-0.15317 1.469,-0.15317 0.77491,0 0.96582,0.0194 1.44445,0.14705 1.16862,0.31161 1.97324,0.76299 2.82839,1.58664 1.34431,1.2948 2.01878,2.98495 1.93324,4.8445 -0.0516,1.1221 -0.33624,2.09392 -0.88356,3.01688 -0.3861,0.65107 -1.37445,1.63952 -2.02546,2.02565 -0.60478,0.35871 -1.37784,0.64922 -2.10043,0.7893 -0.66218,0.12839 -1.75379,0.14006 -2.37759,0.0254 z m -7.51782,-13.69189 c -1.8083,-0.10886 -3.37144,-0.54091 -6.67259,-1.8443 -2.73179,-1.07859 -4.82464,-1.74303 -7.68439,-2.43966 -4.70522,-1.14617 -9.67144,-1.74821 -13.12198,-1.59075 -0.58616,0.0268 -1.07253,0.0428 -1.08082,0.0358 -0.0305,-0.0262 1.70402,-1.29627 2.2776,-1.66782 1.31278,-0.85043 2.7243,-1.56509 4.21836,-2.13583 3.16019,-1.20718 6.39167,-1.96009 9.90856,-2.30862 1.27225,-0.12608 4.39579,-0.17415 5.76078,-0.0886 2.62374,0.16436 5.44779,0.59588 7.73296,1.18161 1.96742,0.50431 3.78374,1.61742 4.7656,2.92058 0.7757,1.02953 1.10382,2.17952 0.97605,3.42091 -0.19324,1.87748 -1.1553,3.22113 -2.80435,3.91668 -1.14132,0.4814 -2.67426,0.69656 -4.27578,0.60015 z"
   id="path7" /><path
   style="fill:#000000;stroke-width:0.941322"
   d="m 300.76299,152.50797 c -0.26033,-0.0909 -0.48267,-0.16632 -0.49408,-0.16734 -0.0114,-9e-4 -0.13483,-0.18724 -0.27427,-0.4138 -0.15844,-0.25745 -0.28375,-0.73837 -0.33409,-1.28226 -0.0443,-0.47868 -0.0408,-1.18964 0.008,-1.57987 0.0693,-0.55696 0.17209,-0.79851 0.47797,-1.12318 0.21433,-0.22748 0.97152,-0.71672 1.68266,-1.08715 l 1.29297,-0.67356 -0.0318,-0.59972 c -0.0211,-0.39831 -0.10384,-0.65353 -0.24628,-0.75983 -0.12366,-0.0922 -0.34474,-0.12732 -0.52208,-0.0827 -0.16918,0.0425 -0.32958,0.0995 -0.35645,0.12645 -0.0269,0.027 -0.0749,0.32097 -0.10667,0.6533 l -0.0578,0.60424 -0.85498,0.0719 c -0.47023,0.0396 -0.9405,0.0389 -1.04505,-8.8e-4 -0.15674,-0.0604 -0.17578,-0.21648 -0.10855,-0.88991 0.0466,-0.4668 0.17546,-0.94906 0.30081,-1.12577 0.12061,-0.17002 0.39708,-0.43069 0.61439,-0.57925 0.21734,-0.14858 0.70299,-0.30872 1.07947,-0.35596 0.37641,-0.0472 0.97937,-0.0553 1.33992,-0.0179 0.36056,0.0374 0.85437,0.16268 1.09737,0.27846 0.243,0.1158 0.5654,0.38453 0.71646,0.59717 0.26578,0.37417 0.27662,0.5067 0.33621,4.10828 0.0447,2.70335 0.10339,3.77222 0.21442,3.90648 0.0841,0.10166 0.1164,0.22145 0.0718,0.26621 -0.0446,0.0447 -0.54399,0.0814 -1.10984,0.0814 -0.97194,0 -1.03639,-0.0168 -1.16609,-0.30257 l -0.13729,-0.30256 -0.39528,0.30274 c -0.21741,0.16653 -0.64795,0.35017 -0.95677,0.40811 -0.39376,0.0739 -0.70289,0.0559 -1.03483,-0.0601 z m 2.02364,-1.84555 c 0.24996,-0.17581 0.27368,-0.2937 0.27368,-1.3602 0,-0.64224 -0.033,-1.16769 -0.0734,-1.16769 -0.0403,0 -0.24814,0.11991 -0.46177,0.26648 -0.21364,0.14656 -0.4577,0.35195 -0.54236,0.45642 -0.0887,0.10946 -0.15392,0.53795 -0.15392,1.01127 0,0.45173 0.0369,0.85844 0.0821,0.90378 0.0451,0.0454 0.19906,0.0824 0.34202,0.0824 0.14296,0 0.38308,-0.0866 0.53361,-0.19249 z m 9.10606,1.80749 c -0.39102,-0.12714 -0.86719,-0.38951 -1.05814,-0.58305 -0.19095,-0.1935 -0.439,-0.58945 -0.55122,-0.87989 -0.17617,-0.45588 -0.20404,-1.12386 -0.20404,-4.88905 0,-4.27711 0.005,-4.3716 0.27706,-4.9111 0.15479,-0.30731 0.49645,-0.70303 0.77417,-0.89667 0.32446,-0.22622 0.84012,-0.41447 1.48477,-0.542 0.9487,-0.1877 1.02858,-0.18501 2.02453,0.0679 0.67196,0.17063 1.18949,0.3871 1.47059,0.61512 0.24026,0.19489 0.52686,0.59426 0.64253,0.89534 0.18134,0.47201 0.20968,1.10653 0.21549,4.82492 0.006,3.52737 -0.0263,4.37672 -0.18079,4.82251 -0.10782,0.31116 -0.38253,0.71274 -0.64649,0.94508 -0.25244,0.2222 -0.65294,0.46457 -0.88998,0.53859 -0.23705,0.0739 -0.92971,0.15458 -1.53925,0.17904 -0.84116,0.0338 -1.27961,-0.0113 -1.81923,-0.18674 z m 2.42795,-2.01348 c 0.16403,-0.23516 0.19169,-0.85968 0.19169,-4.32789 0,-3.88819 -0.01,-4.06313 -0.24628,-4.30038 -0.16419,-0.16488 -0.41047,-0.24731 -0.73884,-0.24731 -0.32367,0 -0.57466,0.0825 -0.73197,0.24042 -0.13168,0.13222 -0.2732,0.42435 -0.31449,0.64918 -0.0413,0.22482 -0.0582,2.05844 -0.0377,4.07471 0.0347,3.40153 0.0543,3.68468 0.27201,3.926 0.17618,0.19535 0.38136,0.26009 0.82421,0.26009 0.46972,0 0.62862,-0.0559 0.78133,-0.27482 z m 18.0964,1.89506 c -0.22548,-0.13806 -0.46476,-0.44241 -0.58491,-0.74396 -0.13925,-0.34946 -0.20334,-0.88174 -0.20334,-1.68867 0,-0.84555 0.0565,-1.28801 0.19998,-1.56667 0.10999,-0.2136 0.31779,-0.48801 0.46177,-0.60983 0.14399,-0.12182 0.83,-0.50584 1.52447,-0.85339 0.92604,-0.46344 1.28122,-0.70612 1.33227,-0.91036 0.0383,-0.15317 0.0207,-0.46793 -0.039,-0.69946 -0.0754,-0.29237 -0.20859,-0.45629 -0.43577,-0.53652 -0.25632,-0.0905 -0.38126,-0.0664 -0.57715,0.11167 -0.17818,0.16193 -0.25001,0.38156 -0.25001,0.76448 0,0.34036 -0.0564,0.54211 -0.15392,0.55044 -0.0847,0.008 -0.52734,0.0212 -0.98373,0.0309 -0.57203,0.0121 -0.8485,-0.0312 -0.89001,-0.13972 -0.0331,-0.0866 -0.0302,-0.4205 0.007,-0.74193 0.0367,-0.32146 0.0914,-0.70726 0.12141,-0.85737 0.0301,-0.1501 0.23384,-0.44107 0.45286,-0.64663 0.2658,-0.24944 0.62283,-0.42055 1.07367,-0.51453 0.3715,-0.0775 1.04634,-0.11416 1.49966,-0.0816 0.47642,0.0343 1.0232,0.16289 1.29576,0.30489 0.25935,0.13511 0.58237,0.43499 0.71782,0.66639 0.22518,0.38467 0.25318,0.72801 0.32681,4.0067 0.0443,1.97228 0.12045,3.74126 0.16924,3.93104 l 0.0887,0.34511 -1.09279,-0.036 c -1.0269,-0.0338 -1.09516,-0.0527 -1.13214,-0.31417 -0.0216,-0.15302 -0.0841,-0.27822 -0.13885,-0.27822 -0.0547,0 -0.17554,0.092 -0.2685,0.20462 -0.0929,0.11256 -0.34731,0.2795 -0.56525,0.37096 -0.21794,0.0915 -0.66124,0.16614 -0.98512,0.16587 -0.35997,-2.8e-4 -0.73719,-0.0912 -0.97045,-0.23411 z m 2.63487,-1.80141 c 0.0272,-0.0272 0.0486,-0.54022 0.0477,-1.13985 -9.6e-4,-0.59963 -0.006,-1.1579 -0.0123,-1.24062 -0.007,-0.10133 -0.14554,-0.0704 -0.42423,0.0947 -0.22751,0.1348 -0.51744,0.36025 -0.64428,0.50099 -0.17303,0.19199 -0.23117,0.44914 -0.23283,1.02974 -0.001,0.4705 0.0629,0.85279 0.16394,0.97524 0.15031,0.18219 0.20837,0.18366 0.60938,0.0154 0.24377,-0.10228 0.46547,-0.20828 0.49265,-0.23557 z m -41.59653,-4.32988 v -6.24685 h 1.16984 1.16983 v 5.2553 5.25529 h 1.66757 1.66757 l -0.036,0.95832 -0.036,0.95834 -2.80144,0.0332 -2.80144,0.0332 z m 24.99743,-0.003 v -6.24454 h 1.07747 1.07748 l -0.0207,5.78083 c -0.0114,3.17945 -0.0252,5.98951 -0.0308,6.24455 l -0.0101,0.4637 h -1.04669 -1.04669 z m 3.62908,6.09435 c -0.0337,-0.0882 -0.0467,-2.13533 -0.0288,-4.54933 l 0.0324,-4.38907 h 1.04669 1.04669 v 4.51337 4.51339 l -1.01785,0.036 c -0.74658,0.0264 -1.03416,-0.008 -1.07908,-0.1243 z m 4.81015,6.5e-4 c -0.0294,-0.0878 -0.11005,-0.38218 -0.1791,-0.65422 -0.0691,-0.27204 -0.23499,-1.02324 -0.36876,-1.66932 -0.13376,-0.6461 -0.38661,-1.81464 -0.56188,-2.59675 -0.17527,-0.78212 -0.42766,-1.9421 -0.56087,-2.57777 -0.13321,-0.63567 -0.2422,-1.23385 -0.2422,-1.32928 0,-0.13425 0.21958,-0.17353 0.97004,-0.17353 0.62714,0 1.01432,0.0547 1.09531,0.15458 0.0689,0.085 0.19054,0.68317 0.27033,1.32927 0.0798,0.6461 0.25704,1.84244 0.3939,2.65857 0.13686,0.8161 0.25939,1.495 0.27229,1.50867 0.0129,0.0136 0.14539,-0.6819 0.29442,-1.54568 0.14903,-0.86377 0.3562,-2.09258 0.46038,-2.73066 0.10418,-0.63809 0.21913,-1.20845 0.25545,-1.26747 0.0363,-0.059 0.5028,-0.10728 1.03662,-0.10728 0.57722,0 1.00476,0.0555 1.0549,0.13699 0.0464,0.0753 -0.002,0.45095 -0.10738,0.83468 -0.10543,0.3837 -0.30381,1.17063 -0.44084,1.74872 -0.13703,0.57807 -0.42509,1.80226 -0.64014,2.72038 -0.21505,0.91813 -0.51027,2.1145 -0.65604,2.65858 l -0.26504,0.98923 -1.01392,0.036 c -0.74416,0.0264 -1.02817,-0.007 -1.06747,-0.12365 z m -4.7815,-10.1916 c -0.0477,-0.0478 -0.0867,-0.55074 -0.0867,-1.11748 v -1.03046 h 1.11305 1.11306 l -0.0356,1.08198 -0.0356,1.08198 -0.99081,0.0356 c -0.54494,0.0195 -1.02981,-0.004 -1.07747,-0.0516 z m -25.14531,-3.01241 c -0.0428,-0.13541 -0.0433,-0.30235 -0.001,-0.37096 0.0422,-0.0686 0.20527,-0.12477 0.36229,-0.12477 0.15703,0 0.35386,-0.0827 0.4374,-0.18378 0.0846,-0.10231 0.12602,-0.36261 0.0935,-0.58735 -0.0321,-0.22197 -0.23878,-1.15477 -0.45928,-2.07292 -0.2205,-0.91812 -0.42719,-1.84232 -0.4593,-2.05376 -0.0472,-0.31052 -0.01,-0.39718 0.19361,-0.45063 0.1386,-0.0365 0.34056,-8.9e-4 0.4488,0.0783 0.12615,0.0926 0.27187,0.58367 0.40592,1.36788 0.11503,0.67285 0.27185,1.2443 0.3485,1.26988 0.091,0.0304 0.19366,-0.38143 0.29604,-1.18811 0.0862,-0.67902 0.19725,-1.3005 0.24684,-1.38108 0.0496,-0.0806 0.2373,-0.14649 0.41714,-0.14649 0.17984,0 0.35482,0.0278 0.38884,0.0621 0.034,0.0343 -0.0577,0.6393 -0.20388,1.34474 -0.14615,0.70544 -0.33773,1.68499 -0.42574,2.17678 -0.088,0.49178 -0.25273,1.17451 -0.36606,1.51714 -0.14764,0.44636 -0.30603,0.67488 -0.55868,0.80608 -0.19394,0.10071 -0.51788,0.18311 -0.71986,0.18311 -0.25854,0 -0.39027,-0.0728 -0.44505,-0.2462 z m 3.7262,-1.31066 c -0.18539,-0.0993 -0.36193,-0.30433 -0.39231,-0.45564 -0.0304,-0.15132 -0.0836,-0.56438 -0.11816,-0.91796 -0.0346,-0.35358 -0.0298,-1.23074 0.0107,-1.94927 l 0.0737,-1.30641 0.31998,0.0428 0.31999,0.0429 0.0339,1.86294 c 0.0264,1.45208 0.0736,1.896 0.2139,2.01292 0.10224,0.0852 0.31361,0.1163 0.48942,0.0719 l 0.30945,-0.0779 v -1.89986 c 0,-1.70724 0.0218,-1.90511 0.21549,-1.9516 0.11852,-0.0284 0.3137,-0.0307 0.43373,-0.005 0.20069,0.0432 0.21554,0.2276 0.18471,2.294 -0.0334,2.24076 -0.0343,2.2472 -0.31737,2.28749 -0.15611,0.0222 -0.35414,-0.0182 -0.44007,-0.0898 -0.0863,-0.072 -0.20727,-0.0832 -0.27029,-0.0254 -0.0627,0.0576 -0.25259,0.13611 -0.4219,0.17447 -0.16932,0.0384 -0.45954,-0.0116 -0.64492,-0.11082 z m 8.53562,-0.0628 c -0.21543,-0.13156 -0.38843,-0.367 -0.43877,-0.59716 -0.0457,-0.20896 -0.0484,-0.53298 -0.006,-0.72 0.0425,-0.18704 0.14382,-0.4265 0.22528,-0.53218 0.0815,-0.10567 0.46955,-0.43444 0.86245,-0.73064 0.58979,-0.44462 0.70788,-0.59438 0.67727,-0.85893 -0.0307,-0.26532 -0.10062,-0.32041 -0.4065,-0.32041 -0.32469,0 -0.374,0.0474 -0.40723,0.39133 -0.0208,0.21564 -0.12538,0.42511 -0.23284,0.46653 -0.10727,0.0413 -0.29806,0.0423 -0.42397,0.002 -0.12591,-0.0402 -0.22893,-0.18229 -0.22893,-0.31591 0,-0.13362 0.0804,-0.43625 0.17875,-0.67255 0.1052,-0.25281 0.31119,-0.48016 0.50058,-0.55247 0.177,-0.0676 0.51642,-0.12287 0.75427,-0.12287 0.31378,0 0.53121,0.0992 0.79239,0.36146 l 0.35995,0.36145 0.002,1.64791 c 9.2e-4,0.90638 0.0349,1.77246 0.0755,1.92467 0.0523,0.19599 0.0106,0.30108 -0.14298,0.36027 -0.11926,0.0459 -0.37467,0.0238 -0.56757,-0.0494 -0.1929,-0.0731 -0.378,-0.0886 -0.41132,-0.0346 -0.0333,0.0541 -0.22842,0.12318 -0.43353,0.15341 -0.22508,0.0331 -0.51395,-0.0312 -0.7286,-0.16223 z m 1.21732,-0.72168 c 0.0701,-0.13155 0.12609,-0.56277 0.1244,-0.95831 l -0.003,-0.71914 -0.48948,0.52074 c -0.2832,0.30128 -0.48948,0.64262 -0.48948,0.80994 0,0.15905 0.0665,0.35597 0.14777,0.43758 0.0813,0.0816 0.24556,0.14837 0.36508,0.14837 0.11953,0 0.27469,-0.10762 0.34479,-0.23918 z m 15.66904,0.83129 c -0.26412,-0.0699 -0.44623,-0.21578 -0.52335,-0.41948 -0.065,-0.1718 -0.11827,-1.03213 -0.11827,-1.91184 0,-1.51701 -0.0127,-1.59945 -0.24628,-1.59945 -0.18298,0 -0.24628,-0.0824 -0.24628,-0.32071 0,-0.21384 0.0799,-0.3417 0.23982,-0.38369 0.18038,-0.0474 0.24905,-0.19005 0.27706,-0.57576 0.0348,-0.47907 0.0636,-0.51536 0.43745,-0.55156 0.39787,-0.0386 0.40021,-0.0355 0.40021,0.51693 0,0.48211 0.0367,0.5609 0.27706,0.59518 0.19838,0.0282 0.28814,0.13608 0.31603,0.37957 0.0336,0.29278 -0.005,0.34004 -0.27706,0.34004 h -0.31603 v 1.59891 c 0,1.56398 0.006,1.59976 0.27706,1.63842 0.19439,0.0277 0.28823,0.13615 0.31448,0.36338 0.0264,0.22866 -0.0279,0.34056 -0.18471,0.38053 -0.12217,0.0312 -0.4044,0.009 -0.62719,-0.0506 z m 2.07042,0.0117 c -0.23541,-0.0491 -0.53033,-0.21617 -0.65536,-0.37123 -0.20145,-0.24981 -0.22282,-0.47748 -0.18767,-1.99936 0.0394,-1.70754 0.0417,-1.71918 0.38516,-2.0156 0.24085,-0.20781 0.49507,-0.29812 0.83929,-0.29812 0.27159,0 0.60567,0.06 0.7424,0.13361 0.13674,0.0735 0.32704,0.3221 0.4229,0.55246 0.1105,0.26558 0.17428,0.86733 0.17428,1.64428 0,0.78772 -0.0634,1.37787 -0.1776,1.65223 -0.0977,0.23476 -0.25006,0.48449 -0.33863,0.55496 -0.0886,0.0705 -0.29957,0.15241 -0.46889,0.18209 -0.16932,0.0296 -0.50046,0.0138 -0.73588,-0.0354 z m 0.73155,-0.84291 c 0.0701,-0.13155 0.12747,-0.82029 0.12747,-1.53054 0,-0.97802 -0.0434,-1.3275 -0.17879,-1.44035 -0.0983,-0.082 -0.27601,-0.13022 -0.39483,-0.10723 -0.13886,0.0269 -0.25425,0.21824 -0.32301,0.53574 -0.0588,0.27167 -0.0857,0.94119 -0.0596,1.48782 0.026,0.54663 0.0889,1.06134 0.13965,1.1438 0.0508,0.0826 0.19789,0.14994 0.32697,0.14994 0.12907,0 0.29204,-0.10762 0.36215,-0.23918 z m -35.41633,0.27009 c 0.0424,-0.32304 0.18568,-1.06033 0.31834,-1.63841 0.13266,-0.57808 0.38255,-1.66766 0.5553,-2.42126 0.17275,-0.7536 0.3141,-1.46307 0.3141,-1.5766 0,-0.15717 0.11356,-0.20637 0.47624,-0.20637 0.46795,0 0.47849,0.0102 0.60526,0.58734 0.071,0.32305 0.27414,1.25509 0.45151,2.07121 0.17737,0.81611 0.42495,1.95682 0.55016,2.53493 0.12522,0.57807 0.18549,1.09712 0.13394,1.15344 -0.0516,0.0563 -0.25053,0.0842 -0.44217,0.0618 -0.30038,-0.035 -0.36694,-0.11733 -0.48266,-0.59703 l -0.13423,-0.55645 h -0.6693 -0.66929 l -0.0707,0.437 c -0.0389,0.24034 -0.11238,0.50465 -0.16328,0.58735 -0.0509,0.0827 -0.26305,0.15038 -0.47144,0.15038 h -0.37889 z m 2.17469,-1.54567 c 10e-4,-0.0851 -0.096,-0.66917 -0.21549,-1.29813 -0.11953,-0.62895 -0.25889,-1.14367 -0.30969,-1.14381 -0.0508,-1.2e-4 -0.0923,0.11341 -0.0923,0.2523 0,0.13888 -0.0856,0.66876 -0.19027,1.17749 -0.10465,0.50873 -0.15679,0.97937 -0.11587,1.04585 0.0409,0.0665 0.26507,0.12087 0.49811,0.12087 0.25591,0 0.42445,-0.0612 0.42556,-0.15457 z m 7.8739,2.0485 c -0.003,-0.0555 -5.3e-4,-1.0743 0.005,-2.26394 0.006,-1.23659 0.0623,-2.21504 0.13144,-2.28451 0.0793,-0.0796 0.20736,-0.0673 0.37123,0.0355 0.20042,0.12569 0.33436,0.12637 0.67285,0.004 0.29256,-0.10624 0.52643,-0.1168 0.75998,-0.0344 0.18555,0.0655 0.40774,0.25733 0.49375,0.42623 0.11091,0.21779 0.14747,0.86436 0.12576,2.2237 l -0.0306,1.91666 -0.33864,0.0391 c -0.18625,0.0215 -0.34169,-0.007 -0.34543,-0.0618 -0.004,-0.0556 -0.027,-0.83586 -0.0516,-1.73409 -0.0246,-0.89824 -0.0791,-1.74168 -0.12103,-1.87431 -0.0419,-0.13263 -0.15184,-0.27029 -0.24427,-0.30592 -0.0924,-0.0357 -0.27041,0.0103 -0.39552,0.10191 -0.19816,0.14519 -0.2354,0.403 -0.28903,2.0009 l -0.0616,1.83422 -0.33864,0.0392 c -0.18625,0.0215 -0.34098,-0.007 -0.34386,-0.0618 z m 3.761,-0.0851 c -0.22327,-0.16385 -0.25001,-0.34926 -0.28615,-1.98397 -0.0372,-1.6839 -0.0556,-1.80321 -0.27707,-1.80321 -0.16916,0 -0.23719,-0.0864 -0.23719,-0.3008 0,-0.18937 0.0887,-0.32908 0.2395,-0.37714 0.17793,-0.0567 0.24915,-0.20982 0.27706,-0.59569 0.035,-0.48426 0.0641,-0.52193 0.43073,-0.55758 0.38849,-0.0378 0.39361,-0.0312 0.43099,0.55645 0.023,0.36204 0.098,0.60071 0.19175,0.61012 0.0847,0.009 0.20934,0.0224 0.27707,0.0309 0.0677,0.009 0.12314,0.12814 0.12314,0.26583 0,0.15327 -0.11938,0.29595 -0.30785,0.3679 -0.30471,0.11634 -0.30785,0.13263 -0.30785,1.5977 v 1.48017 l 0.33863,0.16296 c 0.20131,0.0969 0.33864,0.26261 0.33864,0.40863 0,0.19808 -0.0954,0.25269 -0.49256,0.28205 -0.29103,0.0216 -0.59333,-0.0376 -0.73884,-0.14433 z m 4.83342,-0.34901 c -0.0333,-0.29276 -0.0539,-1.30731 -0.0458,-2.25455 l 0.0148,-1.72225 0.33247,-0.0893 c 0.21184,-0.0569 0.34943,-0.0383 0.3792,0.0515 0.0344,0.10349 0.13533,0.10022 0.38138,-0.0122 0.18405,-0.0842 0.4631,-0.15311 0.6201,-0.15311 0.15699,0 0.41884,0.10537 0.58187,0.23414 0.29087,0.22976 0.30183,0.22976 0.58438,0 0.15837,-0.12877 0.45057,-0.23414 0.64933,-0.23414 0.21949,0 0.48004,0.11917 0.66363,0.30352 0.29664,0.29788 0.30225,0.3416 0.30225,2.35728 v 2.05374 l -0.40021,-0.0387 -0.4002,-0.0387 -0.0616,-1.89055 c -0.0478,-1.46617 -0.10154,-1.91528 -0.23965,-2.00075 -0.10503,-0.0651 -0.26513,-0.0634 -0.3903,0.004 -0.14985,0.0806 -0.23631,0.34145 -0.29418,0.88787 -0.0451,0.42558 -0.0634,1.26022 -0.0407,1.85474 0.0312,0.81614 10e-4,1.09633 -0.12273,1.14379 -0.0902,0.0347 -0.26436,0.0629 -0.38703,0.0629 -0.12267,0 -0.25667,-0.088 -0.29778,-0.19559 -0.0411,-0.10759 -0.0747,-0.96812 -0.0747,-1.91229 0,-1.54768 -0.0226,-1.72883 -0.22927,-1.83991 -0.16371,-0.088 -0.29576,-0.0743 -0.46178,0.0473 -0.20447,0.1499 -0.23993,0.39162 -0.29407,2.00458 l -0.0616,1.83413 -0.32365,0.0377 c -0.29751,0.0348 -0.32853,-0.006 -0.38423,-0.49463 z m 5.20249,-1.7556 c 0,-1.9076 0.0298,-2.28585 0.18471,-2.34556 0.10159,-0.0391 0.26783,-0.0391 0.36942,0 0.10159,0.0392 0.19367,0.10696 0.20462,0.15069 0.011,0.0438 0.0309,0.99764 0.0443,2.1198 0.0142,1.1878 -0.0262,2.10488 -0.0966,2.19487 -0.0665,0.085 -0.25266,0.15457 -0.41369,0.15457 h -0.29277 z m 1.87928,2.08523 c -0.14789,-0.10402 -0.32615,-0.39615 -0.39613,-0.64918 -0.07,-0.25303 -0.12755,-0.94873 -0.12792,-1.546 -4.2e-4,-0.65053 0.0682,-1.25141 0.17101,-1.4986 0.0944,-0.22696 0.30071,-0.5034 0.45839,-0.6143 0.15768,-0.11091 0.49292,-0.20165 0.74498,-0.20165 0.30613,0 0.57229,0.0985 0.80163,0.29656 0.29929,0.25852 0.35164,0.40881 0.40808,1.17167 0.0356,0.48131 0.0458,0.93212 0.0227,1.00181 -0.0233,0.0703 -0.42175,0.12669 -0.89377,0.12669 h -0.85172 v 0.54762 c 0,0.34117 0.0756,0.62355 0.20059,0.74903 0.11032,0.1108 0.28109,0.17041 0.37949,0.13249 0.0984,-0.038 0.2261,-0.0689 0.28379,-0.0689 0.0577,0 0.12242,-0.15302 0.14385,-0.34005 0.0285,-0.2491 0.11687,-0.35112 0.33024,-0.38143 0.16019,-0.0228 0.33918,0.008 0.39775,0.0656 0.0599,0.0601 0.0516,0.30662 -0.019,0.56327 -0.069,0.25097 -0.24647,0.54143 -0.39437,0.64545 -0.14789,0.10403 -0.5213,0.18913 -0.82979,0.18913 -0.3085,0 -0.6819,-0.0851 -0.8298,-0.18913 z m 1.32236,-3.07887 c 0,-0.23317 -0.0871,-0.51139 -0.19351,-0.61827 -0.10642,-0.10688 -0.22674,-0.19431 -0.26737,-0.19431 -0.0406,0 -0.17519,0.092 -0.29905,0.20464 -0.13266,0.12057 -0.22519,0.3746 -0.22519,0.61828 0,0.40012 0.0161,0.41362 0.49256,0.41362 0.47888,0 0.49256,-0.0117 0.49256,-0.42396 z m 1.41231,3.11719 c -0.0352,-0.092 -0.0487,-1.10737 -0.0301,-2.25621 l 0.0339,-2.08879 0.34585,-0.0927 c 0.24976,-0.067 0.36442,-0.044 0.4127,0.0822 0.0571,0.14948 0.10486,0.14821 0.32803,-0.009 0.14366,-0.10105 0.41762,-0.1837 0.60881,-0.1837 0.20583,0 0.47214,0.12503 0.65293,0.30658 0.30312,0.3044 0.30507,0.32109 0.27147,2.31851 l -0.0338,2.01194 h -0.36942 -0.36942 l -0.0616,-1.89055 c -0.0478,-1.46618 -0.10154,-1.91529 -0.23965,-2.00076 -0.10605,-0.0657 -0.26791,-0.0619 -0.4002,0.009 -0.12217,0.0657 -0.23071,0.13131 -0.2412,0.14593 -0.0105,0.0146 -0.052,0.86123 -0.0924,1.88139 l -0.0733,1.8548 -0.33934,0.0391 c -0.20201,0.0234 -0.36522,-0.0285 -0.4033,-0.12818 z m 10.24119,-0.008 c -0.11826,-0.0867 -0.26606,-0.37897 -0.32845,-0.64919 -0.0624,-0.27021 -0.11445,-0.96429 -0.11568,-1.54238 -10e-4,-0.57807 0.0539,-1.254 0.12249,-1.50204 0.0686,-0.24804 0.2603,-0.54018 0.42597,-0.64919 0.16567,-0.10899 0.41764,-0.19818 0.55993,-0.19818 0.14229,0 0.36589,0.0576 0.4969,0.128 0.22265,0.11965 0.23829,0.0815 0.23986,-0.58736 9.3e-4,-0.39346 0.0351,-0.84056 0.0759,-0.99358 0.0552,-0.20696 0.1652,-0.27822 0.42931,-0.27822 h 0.35506 v 3.15707 c 0,2.80604 -0.0223,3.16565 -0.20102,3.23452 -0.11056,0.0425 -0.29561,0.0182 -0.41122,-0.0544 -0.12798,-0.0803 -0.27815,-0.0886 -0.3839,-0.0214 -0.0955,0.0606 -0.3709,0.11125 -0.61193,0.1123 -0.24103,8.9e-4 -0.53499,-0.0691 -0.65325,-0.15599 z m 1.25757,-0.56987 c 0.12201,-0.0775 0.17102,-0.48978 0.18471,-1.55346 0.0168,-1.3018 -0.005,-1.46545 -0.21996,-1.62326 -0.20253,-0.14895 -0.277,-0.14994 -0.49256,-0.007 -0.22787,0.15165 -0.25758,0.31351 -0.28906,1.57476 -0.0303,1.21437 -0.006,1.42698 0.17746,1.56181 0.1169,0.0859 0.27123,0.15521 0.34294,0.15418 0.0717,-8.8e-4 0.20512,-0.0495 0.29647,-0.10758 z m 2.19283,0.5877 c -0.12487,-0.0729 -0.30496,-0.3198 -0.40021,-0.54872 -0.10784,-0.25918 -0.17317,-0.86234 -0.17317,-1.59884 0,-0.73169 0.0655,-1.34 0.1717,-1.59532 0.0944,-0.22695 0.30072,-0.50338 0.45839,-0.6143 0.15768,-0.1109 0.50028,-0.20163 0.76132,-0.20163 0.35685,0 0.56112,0.0868 0.82311,0.34993 0.26321,0.26431 0.36931,0.51745 0.43367,1.03472 0.0469,0.37667 0.0653,0.78955 0.041,0.91754 -0.0377,0.19811 -0.1768,0.23811 -0.93571,0.26905 l -0.89146,0.0364 v 0.60851 c 0,0.48195 0.0512,0.63603 0.24628,0.74086 0.17498,0.094 0.31758,0.094 0.49256,0 0.13546,-0.0728 0.24628,-0.24348 0.24628,-0.37929 0,-0.14242 0.11728,-0.29158 0.27707,-0.35238 0.15895,-0.0605 0.3368,-0.0572 0.4172,0.009 0.0947,0.0763 0.10663,0.26232 0.0369,0.5731 -0.0568,0.25303 -0.22297,0.55745 -0.36927,0.67645 -0.17009,0.13837 -0.472,0.21506 -0.83728,0.21265 -0.3142,-0.002 -0.67343,-0.0633 -0.7983,-0.1363 z m 1.27372,-3.11763 c 0,-0.24181 -0.0924,-0.49759 -0.22244,-0.61576 -0.20105,-0.18272 -0.24841,-0.18388 -0.49256,-0.0122 -0.18914,0.13303 -0.27012,0.31764 -0.27012,0.61577 0,0.4143 0.0133,0.42578 0.49256,0.42578 0.47649,0 0.49256,-0.0134 0.49256,-0.41363 z m -19.57926,-2.55407 c 0,-0.46644 0.0209,-0.49461 0.36707,-0.49461 0.28876,0 0.38355,0.066 0.44427,0.30884 0.0425,0.16988 0.0453,0.39246 0.006,0.49463 -0.0415,0.10871 -0.22581,0.18575 -0.44427,0.18575 -0.3534,0 -0.37328,-0.0263 -0.37328,-0.49461 z m -2.77065,-4.63288 c -0.0677,-0.021 -0.45562,-0.10939 -0.86198,-0.19647 -0.40636,-0.087 -0.80159,-0.20602 -0.87829,-0.26431 -0.0767,-0.0583 -0.29834,-0.0939 -0.49256,-0.0793 -0.20244,0.0153 -0.59417,-0.11526 -0.91806,-0.30606 -0.31072,-0.18305 -0.65705,-0.33282 -0.76963,-0.33282 -0.11257,0 -0.20467,-0.0512 -0.20467,-0.11384 0,-0.0627 -0.16815,-0.15091 -0.37366,-0.19623 -0.20551,-0.0454 -0.49299,-0.24451 -0.63886,-0.44262 -0.14586,-0.1981 -0.33202,-0.36019 -0.41369,-0.36019 -0.0817,0 -0.54226,-0.36772 -1.02353,-0.81713 -0.48127,-0.44941 -0.87504,-0.88487 -0.87504,-0.96768 0,-0.0828 -0.13854,-0.28124 -0.30785,-0.44097 -0.16932,-0.15973 -0.30785,-0.39469 -0.30785,-0.52209 0,-0.12743 -0.1407,-0.35424 -0.31267,-0.504 -0.19573,-0.17045 -0.38107,-0.53699 -0.49557,-0.98008 -0.10059,-0.38928 -0.29423,-0.96864 -0.43032,-1.28744 -0.1429,-0.33475 -0.30201,-1.12414 -0.3766,-1.86842 -0.071,-0.70881 -0.11073,-2.8004 -0.0882,-4.64796 0.0237,-1.93907 0.093,-3.44689 0.16411,-3.56667 0.0677,-0.11411 0.36658,-0.39233 0.66413,-0.61827 0.29755,-0.22592 0.76856,-0.56275 1.04669,-0.74849 0.27813,-0.18575 0.62711,-0.33876 0.77549,-0.34005 0.14839,-8.9e-4 0.30405,-0.058 0.34591,-0.12599 0.0419,-0.0681 0.21136,-0.12366 0.37668,-0.12366 0.16532,0 0.30059,-0.0443 0.30059,-0.0986 0,-0.0543 0.35396,-0.15942 0.78658,-0.23385 0.47182,-0.0813 0.97689,-0.094 1.26218,-0.0322 0.26158,0.0567 0.77873,0.17023 1.14922,0.25225 0.37049,0.0821 0.74848,0.22432 0.83999,0.31621 0.0915,0.0918 0.28728,0.16706 0.43504,0.16706 0.14777,0 0.54145,0.19476 0.87486,0.43279 0.33341,0.23803 0.67764,0.43279 0.76495,0.43279 0.0873,0 0.34808,0.16694 0.57949,0.37096 0.23142,0.20404 0.50156,0.37096 0.60032,0.37096 0.0988,0 0.5099,0.16576 0.91363,0.36836 0.40374,0.20258 1.17452,0.46276 1.71285,0.57817 0.53833,0.11541 1.45679,0.23166 2.04102,0.25832 0.58423,0.0267 1.3323,-0.007 1.66239,-0.0723 0.33008,-0.0665 0.93245,-0.1954 1.33858,-0.28662 0.40614,-0.0912 0.83559,-0.26322 0.95434,-0.38225 0.11874,-0.11901 0.35277,-0.2164 0.52006,-0.2164 0.19518,0 0.40204,-0.13291 0.57729,-0.37095 0.15022,-0.20403 0.31812,-0.37096 0.37311,-0.37096 0.055,0 0.1,0.11127 0.1,0.24731 0,0.16729 0.0821,0.24729 0.25374,0.24729 0.23771,0 0.24954,0.0528 0.18737,0.83468 -0.0365,0.45907 -0.099,2.47617 -0.13889,4.48246 -0.0514,2.58682 -0.12508,3.85557 -0.25319,4.36216 -0.0993,0.3929 -0.3568,1.08846 -0.5721,1.54568 -0.2153,0.45723 -0.58307,1.16518 -0.81728,1.57322 -0.2342,0.40808 -0.47174,0.76049 -0.52786,0.78316 -0.0561,0.0227 -0.10203,0.1047 -0.10203,0.18229 0,0.0776 -0.3891,0.51813 -0.86467,0.97894 -0.47557,0.46081 -0.94231,0.83785 -1.03722,0.83785 -0.0949,0 -0.33948,0.15301 -0.54352,0.34004 -0.20403,0.18703 -0.56223,0.49308 -0.79599,0.6801 -0.23377,0.18703 -0.50985,0.34005 -0.61351,0.34005 -0.10366,0 -0.46429,0.13912 -0.80139,0.30913 -0.33711,0.17003 -0.82652,0.30974 -1.08759,0.31048 -0.26108,7.3e-4 -0.7467,0.0842 -1.07917,0.18548 -0.33246,0.10128 -1.02513,0.17974 -1.53925,0.17438 -0.51412,-0.006 -0.99017,-0.027 -1.0579,-0.0479 z m 5.13483,-19.75211 c -0.38654,-0.0707 -1.39097,-0.49809 -2.4628,-1.04793 -0.99553,-0.5107 -2.17024,-1.10934 -2.61046,-1.33033 -0.44023,-0.22096 -1.27142,-0.52937 -1.8471,-0.68533 -0.79489,-0.21534 -1.37256,-0.28326 -2.40123,-0.28237 -1.08721,8.9e-4 -1.56112,0.0627 -2.40123,0.31321 -0.57568,0.17163 -1.33534,0.44817 -1.68813,0.61456 -0.3528,0.16637 -0.72613,0.37307 -0.82963,0.45933 -0.1035,0.0863 -0.27201,0.12454 -0.37447,0.085 -0.16202,-0.0625 -0.18627,-0.72288 -0.18627,-5.07353 0,-2.750965 0.0336,-5.089775 0.0747,-5.197352 0.0608,-0.159108 0.29007,-0.195594 1.22906,-0.195594 1.11696,0 1.15671,0.0096 1.22876,0.297907 0.041,0.163851 0.0559,0.692596 0.0331,1.174994 l -0.0413,0.877084 1.07747,-2.79e-4 1.07748,-2.78e-4 v -0.978608 c 0,-0.538515 0.0336,-1.067136 0.0747,-1.174713 0.0608,-0.159071 0.28987,-0.195596 1.22678,-0.195596 h 1.15204 l 0.0354,1.143801 0.0354,1.143801 1.13904,0.03556 1.13905,0.03555 v -1.179353 -1.179355 h 1.16983 1.16983 v 1.174714 1.174714 h 1.10364 1.10364 l 0.0354,-1.143801 0.0354,-1.1438 1.15954,-0.03581 c 0.84464,-0.0261 1.1869,0.0075 1.2603,0.123654 0.0554,0.08771 0.10161,0.618546 0.10264,1.179627 l 0.002,1.020147 h 1.04669 1.04669 v -0.97912 c 0,-0.538515 0.0336,-1.067138 0.0747,-1.174715 0.0607,-0.158924 0.28912,-0.195594 1.21823,-0.195594 0.94505,0 1.1569,0.0351 1.22078,0.202284 0.0425,0.111256 0.0736,2.259281 0.0691,4.773391 -0.004,2.51411 -0.0399,4.71841 -0.0788,4.89846 -0.041,0.19011 -0.35896,0.57555 -0.75847,0.9194 -0.37834,0.32564 -1.0794,0.78372 -1.55791,1.01795 -0.47851,0.23426 -1.16737,0.48254 -1.53081,0.55176 -0.36344,0.0692 -0.94415,0.11922 -1.29047,0.11115 -0.34633,-0.009 -0.92342,-0.0684 -1.28243,-0.13412 z"
   id="path8" /><path
   style="fill:#000000;stroke-width:0.903396"
   d="m 162.38997,152.76575 c -0.25332,-0.30504 -0.25348,-0.82791 -8.3e-4,-2.67565 0.17271,-1.26307 0.36879,-2.43917 0.43575,-2.61355 0.0669,-0.17439 0.3343,-0.31705 0.5941,-0.31705 0.31049,0 0.47237,0.17593 0.47237,0.51335 0,0.28235 -0.12116,1.29384 -0.26925,2.24776 -0.14809,0.9539 -0.22161,1.87321 -0.16338,2.04289 0.0582,0.16968 0.26634,-0.75763 0.46246,-2.06069 0.3206,-2.13025 0.41259,-2.37727 0.91197,-2.44892 0.30547,-0.0439 0.5554,0.0225 0.5554,0.1474 0,0.12488 -0.1232,1.17078 -0.27379,2.3242 -0.15058,1.15343 -0.43389,2.34965 -0.62958,2.65828 -0.23322,0.36781 -0.6012,0.56112 -1.06809,0.56112 -0.39177,0 -0.85397,-0.17061 -1.02713,-0.37914 z m 3.49818,-0.30668 c 0.005,-0.37721 0.006,-1.56488 0.002,-2.63926 -0.004,-1.0744 0.0572,-2.05637 0.135,-2.18218 0.0778,-0.12581 0.52784,-0.22874 1.00009,-0.22874 0.69229,0 0.85865,0.0966 0.85865,0.49878 0,0.27711 -0.16636,0.49878 -0.3743,0.49878 -0.24617,0 -0.37431,0.24616 -0.37431,0.7191 0,0.50934 0.14557,0.75713 0.49907,0.84952 0.27449,0.0717 0.49907,0.30927 0.49907,0.52787 0,0.23117 -0.20878,0.39743 -0.49907,0.39743 -0.36598,0 -0.49907,0.16626 -0.49907,0.62348 0,0.36666 0.14319,0.62347 0.34761,0.62347 0.19118,0 0.41576,0.17752 0.49906,0.39449 0.0833,0.21697 0.15147,0.44142 0.15147,0.49879 0,0.0574 -0.50709,0.10429 -1.12687,0.10429 -1.065,0 -1.1264,-0.0376 -1.11841,-0.68582 z m 4.03907,0.35925 c -0.13143,-0.16329 -0.31782,-0.6897 -0.4142,-1.16977 -0.0964,-0.48009 -0.38984,-1.58538 -0.65214,-2.45621 -0.2623,-0.87083 -0.41436,-1.68447 -0.33792,-1.80809 0.0764,-0.12362 0.58317,-0.22475 1.12606,-0.22475 0.8432,0 1.06103,0.11813 1.49441,0.81052 0.35376,0.56516 0.46886,1.06718 0.38025,1.6584 -0.091,0.60698 0.0186,1.05234 0.38567,1.56755 0.28201,0.39582 0.44964,0.88402 0.37251,1.0849 -0.0771,0.20089 -0.2985,0.36525 -0.49193,0.36525 -0.19343,0 -0.53301,-0.25252 -0.75461,-0.56114 l -0.40292,-0.56113 0.14151,0.65202 c 0.0972,0.44767 0.0241,0.69705 -0.23311,0.79569 -0.20604,0.079 -0.48215,0.0101 -0.61358,-0.15324 z m 0.20172,-4.34235 c -0.24471,-0.38343 -0.26433,-0.35904 -0.14459,0.17987 0.0762,0.34292 0.15536,0.79182 0.17592,0.99758 0.0206,0.20575 0.0856,0.1248 0.14459,-0.17988 0.059,-0.30468 -0.0202,-0.75359 -0.17592,-0.99757 z m -11.34007,3.69228 c -0.0777,-0.12565 -0.0282,-0.52574 0.11004,-0.88911 0.13822,-0.36334 0.25132,-1.03949 0.25132,-1.50255 0,-0.46305 0.0985,-0.90275 0.21884,-0.97709 0.12036,-0.0743 0.34461,-0.63436 0.49832,-1.24448 0.27778,-1.10253 0.28444,-1.10788 1.08957,-0.87711 0.44554,0.12771 0.83889,0.23219 0.8741,0.23219 0.0352,0 0.064,0.22446 0.064,0.49879 0,0.32313 -0.16635,0.49878 -0.47237,0.49878 -0.2598,0 -0.54053,0.17752 -0.62383,0.39449 -0.0833,0.21696 -0.15146,0.55364 -0.15146,0.74817 0,0.19454 0.17666,0.3537 0.39259,0.3537 0.23926,0 0.36009,0.17046 0.30937,0.43643 -0.0458,0.24004 -0.32599,0.47115 -0.6227,0.51357 -0.4131,0.0591 -0.57838,0.30736 -0.7056,1.05992 -0.12354,0.73081 -0.28469,0.98276 -0.62854,0.98276 -0.25432,0 -0.52598,-0.1028 -0.60368,-0.22846 z m 15.22358,-1.20554 c -0.21314,-0.3772 -0.70259,-1.30305 -1.08767,-2.05748 -0.38508,-0.7544 -0.86117,-1.37165 -1.05798,-1.37165 -0.19681,0 -0.39531,-0.19446 -0.44111,-0.43215 -0.0562,-0.29178 0.20688,-0.57042 0.81007,-0.8579 0.69064,-0.32915 0.96071,-0.35842 1.19028,-0.12898 0.20522,0.2051 0.21693,0.37674 0.0379,0.55567 -0.17903,0.17892 0.0797,0.91099 0.83761,2.37014 0.60316,1.16118 1.02752,2.22306 0.94301,2.35971 -0.0845,0.13667 -0.30911,0.24848 -0.49911,0.24848 -0.19001,0 -0.51986,-0.30863 -0.733,-0.68584 z m -20.05566,-1.05847 -0.57706,-0.48075 0.63944,-0.9405 c 0.3517,-0.51727 0.63945,-1.04185 0.63945,-1.16574 0,-0.1239 0.25311,-0.46258 0.56247,-0.75264 0.30936,-0.29005 0.80109,-0.85779 1.09275,-1.26162 0.52485,-0.72674 0.53713,-0.72977 1.19953,-0.296 0.39073,0.25586 0.63296,0.61333 0.58204,0.85895 -0.0494,0.23824 -0.29375,0.40211 -0.56349,0.37785 -0.26195,-0.0236 -0.62192,0.14479 -0.79992,0.3741 -0.178,0.22931 -0.26474,0.67458 -0.19274,0.98952 0.072,0.31493 0.0645,0.67996 -0.0167,0.81119 -0.0922,0.14907 -0.3107,0.15132 -0.58237,0.005 -0.32693,-0.17487 -0.51248,-0.1083 -0.74778,0.26826 -0.23599,0.37767 -0.24279,0.58534 -0.0276,0.84445 0.15693,0.18899 0.2129,0.46076 0.12436,0.60394 -0.0885,0.14318 -0.29471,0.25658 -0.45816,0.25203 -0.16346,-0.005 -0.55687,-0.22464 -0.87426,-0.48906 z m 22.46994,-0.84193 c -0.58126,-0.59943 -1.05996,-1.18862 -1.06377,-1.3093 -0.004,-0.12068 -0.34431,-0.66512 -0.75665,-1.20985 l -0.7497,-0.99043 0.56949,-0.43803 c 0.31323,-0.24091 0.70323,-0.44052 0.86669,-0.44357 0.16345,-0.004 0.36963,0.11159 0.45816,0.25477 0.0885,0.14317 0.0488,0.39568 -0.0884,0.56113 -0.17232,0.20786 -0.11238,0.46974 0.19397,0.84751 0.29079,0.35856 0.61711,0.50127 0.94833,0.41471 0.27775,-0.0727 0.58348,-0.005 0.6794,0.15006 0.0959,0.15512 0.0387,0.44546 -0.12716,0.6452 -0.23635,0.28462 -0.23338,0.44528 0.0137,0.74288 0.17343,0.20883 0.50819,0.31853 0.74393,0.24375 0.23573,-0.0747 0.5614,0.0241 0.72371,0.21943 0.23776,0.28632 0.15226,0.45703 -0.43998,0.8785 -0.40429,0.28771 -0.77554,0.52312 -0.82501,0.52312 -0.0495,0 -0.5655,-0.49045 -1.14676,-1.08988 z m -25.07442,-1.29142 c -0.37742,-0.20786 -0.68622,-0.52889 -0.68622,-0.7134 0,-0.18451 0.96201,-1.20836 2.1378,-2.27523 l 2.13781,-1.93972 0.51349,0.51318 c 0.28241,0.28226 0.51348,0.80374 0.51348,1.15886 0,0.35511 -0.2945,1.03156 -0.65445,1.50321 -0.35995,0.47164 -0.97036,1.08235 -1.35646,1.35713 -0.38611,0.27478 -0.97589,0.5613 -1.31062,0.63675 -0.33474,0.0754 -0.91742,-0.033 -1.29483,-0.24078 z m 2.6201,-1.97094 c 0.51466,-0.49994 0.93575,-1.01581 0.93575,-1.14636 0,-0.13057 -0.0319,-0.23739 -0.0709,-0.23739 -0.039,0 -0.68467,0.63035 -1.43482,1.40077 -0.75015,0.77042 -1.13933,1.2863 -0.86484,1.14638 0.27449,-0.13992 0.92015,-0.66345 1.43482,-1.1634 z m 25.81421,0.48603 c -0.79602,-0.47971 -1.50024,-0.87222 -1.56493,-0.87222 -0.0647,0 -0.56988,-0.29912 -1.12263,-0.66471 -0.9077,-0.60034 -0.96756,-0.70213 -0.61828,-1.05121 0.34929,-0.34909 0.46151,-0.34237 1.15901,0.0695 0.76685,0.45273 0.77034,0.45233 0.49751,-0.0571 -0.15111,-0.2822 -0.39189,-0.58545 -0.53506,-0.67387 -0.17692,-0.10928 -0.1667,-0.27352 0.0319,-0.51267 0.16071,-0.19354 0.38399,-0.3519 0.49619,-0.3519 0.11219,0 0.99676,1.04954 1.96571,2.33232 0.96895,1.28278 1.76173,2.40504 1.76173,2.49392 0,0.0889 -0.14037,0.16131 -0.31192,0.16095 -0.17155,-3.5e-4 -0.96321,-0.39314 -1.75923,-0.87287 z m 2.8761,-2.11619 c -0.44936,-0.27598 -0.93984,-0.50178 -1.08996,-0.50178 -0.15012,0 -0.62729,-0.30861 -1.06038,-0.68582 -0.4331,-0.3772 -1.06448,-0.86717 -1.40308,-1.0888 -0.57581,-0.37692 -0.5925,-0.44619 -0.25793,-1.07097 0.24077,-0.44963 0.52551,-0.64399 0.87106,-0.59459 0.30752,0.044 0.48767,0.2323 0.44928,0.46964 -0.0352,0.21794 0.15916,0.59816 0.43201,0.84494 0.38426,0.34756 0.57438,0.38376 0.84344,0.16059 0.19104,-0.15845 0.53337,-0.21676 0.76072,-0.12958 0.25461,0.0976 0.36042,0.32523 0.27552,0.59257 -0.0758,0.23872 0.0331,0.57585 0.2421,0.74918 0.29777,0.24698 0.45851,0.24995 0.7433,0.0137 0.19986,-0.16577 0.48058,-0.22899 0.62384,-0.14051 0.14325,0.0885 0.26046,0.31017 0.26046,0.49262 0,0.18247 -0.19651,0.56998 -0.43668,0.86114 l -0.43669,0.52939 z m -34.69159,-0.0529 c -0.16469,-0.16459 -0.29944,-0.56275 -0.29944,-0.88478 0,-0.32203 0.3088,-0.87625 0.68621,-1.23162 0.37742,-0.35536 1.27895,-0.91113 2.00339,-1.23504 0.72444,-0.32392 1.53595,-0.58895 1.80336,-0.58895 0.26741,0 0.66761,0.27672 0.88934,0.61492 0.37706,0.57514 0.37065,0.66053 -0.099,1.31972 -0.27618,0.38765 -1.20067,1.06484 -2.05441,1.50491 -0.85374,0.44006 -1.79475,0.80012 -2.09114,0.80012 -0.29638,0 -0.67362,-0.13468 -0.83831,-0.29928 z m 2.67098,-1.62486 c 1.13289,-0.63775 1.50508,-0.95532 1.19403,-1.01878 -0.24855,-0.0508 -1.06265,0.27772 -1.80911,0.72986 -0.74647,0.45215 -1.35721,0.9106 -1.35721,1.01879 0,0.10818 0.0734,0.19669 0.16317,0.19669 0.0897,0 0.90385,-0.41694 1.80912,-0.92656 z m 31.88666,-1.68115 c -1.34649,-0.44793 -2.56715,-0.93334 -2.71259,-1.07869 -0.1862,-0.1861 0.0766,-0.31539 0.88858,-0.43708 0.63416,-0.095 1.15301,-0.26131 1.15301,-0.36948 0,-0.10817 -0.33687,-0.31405 -0.7486,-0.45749 -0.41173,-0.14344 -0.74688,-0.35083 -0.74478,-0.46084 0.002,-0.11001 0.0933,-0.34083 0.20261,-0.51295 0.15394,-0.24232 0.60247,-0.17197 1.98776,0.31174 0.98393,0.34358 1.88965,0.62467 2.01271,0.62467 0.12306,0 0.64973,0.17788 1.17037,0.39529 0.72118,0.30117 0.86214,0.44875 0.59192,0.61967 -0.19508,0.1234 -0.71301,0.22608 -1.15095,0.22819 -0.43794,0.003 -0.85305,0.0956 -0.92246,0.20791 -0.0694,0.11225 0.24948,0.33987 0.70867,0.50582 0.64979,0.23483 0.80635,0.41074 0.70621,0.79346 -0.0708,0.27047 -0.25593,0.48106 -0.41148,0.46798 -0.15555,-0.0131 -1.38449,-0.39027 -2.73098,-0.8382 z m -36.24086,-0.24894 c -0.33687,-0.3367 -0.61249,-0.77632 -0.61249,-0.97695 0,-0.20867 0.50726,-0.54853 1.18528,-0.79413 0.65191,-0.23613 1.78838,-0.69432 2.52549,-1.01819 0.73712,-0.32387 1.48306,-0.58886 1.65766,-0.58886 0.17459,0 0.3856,0.17751 0.46891,0.39448 0.0833,0.21696 0.15146,0.6559 0.15146,0.97539 0,0.34132 -0.31365,0.8447 -0.76043,1.22042 -0.41824,0.35173 -1.33694,0.8106 -2.04156,1.01974 -0.70462,0.20912 -1.43428,0.38023 -1.62148,0.38023 -0.18719,0 -0.61597,-0.27546 -0.95284,-0.61213 z m 3.03734,-1.11312 c 0.56636,-0.25703 1.10167,-0.58366 1.1896,-0.72585 0.0879,-0.14219 -0.49852,-6.6e-4 -1.3032,0.31452 -0.80468,0.31518 -1.62072,0.63543 -1.81343,0.71165 -0.19554,0.0774 -0.0747,0.14487 0.27347,0.15281 0.34311,0.008 1.08721,-0.19609 1.65356,-0.45313 z m 4.14207,-0.11071 c -0.1568,-0.76506 -0.12736,-1.08339 0.1138,-1.23048 0.17892,-0.10913 0.8595,-0.36042 1.51239,-0.55843 0.74917,-0.22719 2.29517,-0.36099 4.19086,-0.36269 l 3.00378,-0.003 1.14706,-1.18462 c 0.63089,-0.65153 1.27233,-1.42972 1.42544,-1.72933 0.15311,-0.2996 0.27838,-0.76796 0.27838,-1.04077 0,-0.27283 0.27916,-0.82762 0.62035,-1.23288 0.38798,-0.46083 1.03692,-0.84166 1.73246,-1.0167 0.61167,-0.15393 1.37826,-0.27988 1.70354,-0.27988 0.33139,0 0.90674,-0.32894 1.30862,-0.74817 0.39446,-0.4115 0.92525,-0.74818 1.17952,-0.74818 0.25428,0 0.90254,-0.22445 1.44058,-0.49879 0.53804,-0.27432 1.21848,-0.49877 1.5121,-0.49877 0.31182,0 1.15517,-0.60018 2.02777,-1.44308 l 1.49391,-1.44308 0.21639,-1.92842 c 0.11901,-1.06061 0.4076,-2.60952 0.64132,-3.44201 0.41619,-1.48242 0.41385,-1.53641 -0.11318,-2.62057 -0.29596,-0.60883 -0.53811,-1.50963 -0.53811,-2.00177 0,-0.49355 0.29305,-1.43293 0.65353,-2.09486 0.64255,-1.17991 0.6468,-1.21979 0.25296,-2.375 -0.22032,-0.64622 -0.4746,-1.89705 -0.56507,-2.77963 -0.13432,-1.31027 -0.27283,-1.67564 -0.75494,-1.99134 -0.37527,-0.24574 -0.86067,-0.33265 -1.33194,-0.23844 -0.6487,0.12967 -0.8201,0.0327 -1.36952,-0.77548 -0.34541,-0.50803 -0.62802,-1.05289 -0.62802,-1.2108 0,-0.1579 0.25265,-0.35477 0.56145,-0.43747 0.3088,-0.0828 1.09843,-0.15192 1.75475,-0.1538 0.65631,-0.002 1.55987,0.14969 2.00792,0.33678 0.44804,0.1871 1.10423,0.68417 1.4582,1.10459 0.39307,0.46688 0.71125,1.23242 0.81743,1.96671 0.0956,0.66124 0.34984,1.8195 0.56493,2.57392 0.21509,0.75441 0.55463,1.71546 0.75452,2.13566 0.34465,0.72449 0.32349,0.82696 -0.40918,1.98161 -0.42494,0.66968 -0.77262,1.47742 -0.77262,1.79496 0,0.31756 0.23229,1.07128 0.51619,1.67491 l 0.5162,1.09753 -0.49342,1.70542 c -0.27138,0.93796 -0.56937,2.36247 -0.66219,3.16557 -0.0928,0.8031 -0.32593,1.98907 -0.51801,2.63553 -0.25062,0.84347 -0.79966,1.6459 -1.94442,2.84182 -1.08602,1.13455 -1.78417,1.66726 -2.18725,1.66892 -0.32564,0.002 -1.19274,0.28189 -1.9269,0.62347 -0.73415,0.34157 -1.4711,0.62105 -1.63766,0.62105 -0.16656,0 -0.62558,0.33667 -1.02004,0.74817 -0.59007,0.61555 -0.91905,0.74882 -1.85581,0.75185 -0.62623,0.002 -1.41428,0.14312 -1.75123,0.31352 -0.38709,0.19579 -0.77299,0.75782 -1.04822,1.52668 -0.31725,0.88623 -0.97908,1.76365 -2.436,3.22954 l -2.00039,2.01271 -1.458,-0.30098 c -0.8019,-0.16552 -2.08615,-0.30096 -2.85389,-0.30096 -0.81348,0 -2.13085,0.2485 -3.15736,0.5956 l -1.76147,0.59561 z m -8.38343,-1.93052 c -0.0852,-0.42558 -0.0986,-0.86473 -0.0299,-0.97586 0.0687,-0.11115 0.6016,-0.27508 1.18417,-0.36429 0.58256,-0.0892 1.82765,-0.34115 2.76686,-0.55986 1.46122,-0.34027 1.73975,-0.347 1.93007,-0.0465 0.12232,0.19313 0.22412,0.43097 0.22622,0.52857 0.002,0.0976 -0.41726,0.2816 -0.93192,0.40892 -0.51467,0.12732 -1.63757,0.37144 -2.49534,0.54248 -1.24378,0.248 -1.55958,0.40507 -1.55958,0.77568 0,0.28811 -0.1778,0.4647 -0.46788,0.4647 -0.32367,0 -0.5156,-0.23848 -0.62272,-0.77379 z m 40.26735,-0.32852 c -0.6176,-0.17025 -1.54399,-0.3776 -2.05866,-0.4608 -0.5233,-0.0847 -0.93575,-0.0482 -0.93575,0.0825 0,0.12853 -0.0842,0.232 -0.18715,0.22989 -0.10293,-0.003 -0.33567,-0.0979 -0.51721,-0.21297 -0.23116,-0.14649 -0.27892,-0.48159 -0.15938,-1.11843 0.12599,-0.6712 0.29615,-0.9093 0.64981,-0.9093 0.26352,0 0.54025,0.15917 0.61495,0.35375 0.0747,0.19455 0.71685,0.48083 1.42699,0.63618 0.71014,0.15534 1.77419,0.40515 2.36455,0.55514 0.76887,0.19533 1.03434,0.3744 0.93575,0.63117 -0.0757,0.19716 -0.13764,0.40541 -0.13764,0.46277 0,0.0574 -0.1965,0.0943 -0.43668,0.082 -0.24018,-0.0123 -0.94199,-0.16159 -1.55958,-0.33183 z m -32.29948,-0.70578 c -0.0517,-0.17146 -0.29534,-2.2757 -0.54142,-4.67609 -0.32961,-3.21509 -0.44528,-6.40021 -0.43928,-12.09549 0.005,-4.64606 0.12683,-8.53446 0.30555,-9.74425 0.25599,-1.73294 0.24245,-2.1445 -0.0974,-2.9573 -0.21711,-0.5193 -0.36009,-0.97639 -0.31774,-1.01575 0.0423,-0.0393 0.86303,-0.29985 1.82374,-0.5789 0.9607,-0.27903 2.75734,-0.70918 3.99253,-0.95586 1.73803,-0.34712 3.34597,-0.4428 7.1117,-0.42318 3.90953,0.0204 5.23312,0.11897 6.73425,0.50169 1.47559,0.37622 1.93381,0.60565 2.17974,1.09138 0.17127,0.33826 0.31379,1.17617 0.31672,1.86199 0.003,0.68582 -0.12577,2.14476 -0.286,3.24209 -0.16022,1.09732 -0.44169,2.17231 -0.62548,2.38885 -0.18379,0.21655 -0.33416,0.87736 -0.33416,1.46845 0,0.90724 -0.15557,1.24342 -0.99813,2.15697 -0.54897,0.59523 -0.99813,1.25479 -0.99813,1.46568 0,0.21089 -0.33613,0.97869 -0.74696,1.70621 -0.41083,0.72754 -0.90384,1.84379 -1.09559,2.48055 -0.19175,0.63676 -0.67716,1.69515 -1.07869,2.35196 -0.40153,0.65682 -0.86961,1.75534 -1.04017,2.44116 -0.17057,0.68583 -0.42829,1.69586 -0.57273,2.24453 -0.14443,0.54865 -0.49002,1.44646 -0.76797,1.99513 -0.27795,0.54866 -0.78581,1.33424 -1.12858,1.74573 -0.34277,0.41151 -1.08538,1.05642 -1.65025,1.43314 -0.56487,0.37672 -1.62948,0.86057 -2.3658,1.07523 -0.73632,0.21464 -2.64099,0.55171 -4.23258,0.74903 -1.5916,0.19733 -2.92969,0.35878 -2.97352,0.35878 -0.0438,0 -0.122,-0.14028 -0.1737,-0.31173 z m 6.84707,-3.5788 c 0.75483,-0.34352 1.79136,-1.03217 2.30339,-1.53036 0.52747,-0.51319 1.09105,-1.39931 1.30031,-2.04444 0.20314,-0.62626 0.49875,-1.92425 0.65692,-2.88441 0.18697,-1.13498 0.47998,-1.96388 0.8375,-2.36922 0.30245,-0.34292 0.73501,-1.07238 0.96124,-1.62104 0.22623,-0.54867 0.59403,-1.57903 0.81733,-2.28973 0.2233,-0.71069 0.67632,-1.65836 1.00672,-2.10593 0.3304,-0.44757 0.60072,-1.06255 0.60072,-1.36663 0,-0.30812 0.33138,-0.83154 0.7486,-1.18241 0.58138,-0.48891 0.7486,-0.83399 0.7486,-1.54485 0,-0.59974 0.20441,-1.1581 0.59286,-1.6195 0.45893,-0.54508 0.63341,-1.13663 0.77235,-2.61842 0.0996,-1.06202 0.0804,-2.01321 -0.043,-2.13655 -0.12234,-0.12227 -0.89098,-0.35457 -1.70809,-0.51621 -0.81711,-0.16164 -3.05771,-0.29347 -4.97912,-0.29295 -1.9214,5.1e-4 -4.22335,0.13993 -5.11543,0.30982 -0.89208,0.16989 -2.1926,0.47211 -2.89004,0.67161 l -1.26808,0.36274 -0.29187,3.29894 c -0.16053,1.81441 -0.29252,5.93624 -0.29332,9.15963 -7.9e-4,3.2234 0.13509,7.52914 0.30198,9.56833 l 0.30342,3.70763 1.63227,-0.16575 c 0.89775,-0.0912 2.24987,-0.44679 3.00471,-0.7903 z m -15.47108,1.91607 c 0,-0.3722 0.27803,-0.5377 1.25501,-0.74712 0.69025,-0.14794 2.02016,-0.34007 2.95535,-0.42693 1.44926,-0.13463 1.7239,-0.0965 1.85995,0.25777 0.0903,0.23515 0.026,0.45954 -0.1481,0.5166 -0.16924,0.0555 -1.36618,0.2757 -2.65986,0.48935 -1.29369,0.21365 -2.55695,0.38845 -2.80725,0.38845 -0.28218,0 -0.4551,-0.18166 -0.4551,-0.47812 z m 39.42628,-0.50203 c -1.65774,-0.12589 -1.8715,-0.19908 -1.8715,-0.6409 0,-0.39009 0.16313,-0.49667 0.7486,-0.48909 0.41173,0.005 1.56271,0.0903 2.55772,0.18879 1.16673,0.1155 1.80912,0.0899 1.80912,-0.0721 0,-0.1415 -0.68083,-0.25233 -1.55958,-0.25388 -0.85778,-0.002 -1.98068,-0.0724 -2.49534,-0.15733 -0.72134,-0.11915 -0.93575,-0.26997 -0.93575,-0.65822 0,-0.48286 0.10382,-0.49683 2.5167,-0.3388 1.38418,0.0907 2.73166,0.27981 2.9944,0.42035 0.3037,0.16244 0.4777,0.52165 0.4777,0.98613 0,0.46712 -0.17408,0.82375 -0.48266,0.9888 -0.26546,0.142 -0.79884,0.23795 -1.18528,0.21323 -0.38644,-0.0247 -1.5448,-0.10888 -2.57413,-0.18704 z m -38.80244,-0.94312 c -0.27449,-0.0627 -0.63943,-0.29426 -0.81099,-0.51466 -0.17155,-0.22039 -0.31191,-0.70702 -0.31191,-1.08137 0,-0.6516 0.0666,-0.68749 1.55958,-0.84076 0.85777,-0.0881 2.23332,-0.18116 3.05678,-0.20689 1.43749,-0.045 1.50019,-0.0212 1.57201,0.59607 0.0421,0.36138 -0.13697,0.90425 -0.40886,1.23983 -0.39469,0.48715 -0.72982,0.60183 -1.82155,0.62338 -0.73582,0.0145 -1.56244,0.0876 -1.83693,0.16239 -0.27449,0.0747 -0.72365,0.0846 -0.99813,0.0221 z m 0.93575,-1.2346 c -0.17156,-0.0692 -0.45228,-0.0692 -0.62384,0 -0.17155,0.0692 -0.0312,0.12579 0.31192,0.12579 0.34311,0 0.48347,-0.0566 0.31192,-0.12579 z m 2.6201,-0.25613 c -0.24018,-0.0628 -0.63319,-0.0628 -0.87337,0 -0.24018,0.0627 -0.0437,0.11404 0.43668,0.11404 0.48036,0 0.67686,-0.0514 0.43669,-0.11404 z m 36.05758,-1.01167 -2.55772,-0.0808 v -0.8255 c 0,-0.483 0.18933,-0.99674 0.45633,-1.23824 0.25326,-0.22906 0.87131,-0.41273 1.38884,-0.41273 0.51288,0 1.14525,0.11379 1.40527,0.25287 0.31132,0.16651 0.83621,0.17126 1.53704,0.0139 0.77792,-0.17468 1.11519,-0.15884 1.25351,0.0588 0.10408,0.16382 0.15466,0.40699 0.11241,0.54037 -0.0423,0.13338 -0.34923,0.31859 -0.68216,0.41157 -0.58937,0.16461 -0.59053,0.16973 -0.0439,0.19393 0.42589,0.0188 0.56145,0.1754 0.56145,0.64834 0,0.44757 -0.12321,0.60863 -0.43668,0.57088 -0.24018,-0.0289 -1.58766,-0.089 -2.9944,-0.13342 z m 0.18715,-1.31033 c -0.20587,-0.13297 -0.65503,-0.24176 -0.99814,-0.24176 -0.49381,0 -0.54582,0.0504 -0.24953,0.24176 0.20587,0.13297 0.65503,0.24175 0.99814,0.24175 0.49381,0 0.54582,-0.0504 0.24953,-0.24175 z m -40.92348,-0.10392 c 0,-0.33148 0.14036,-0.66816 0.31191,-0.74818 0.24954,-0.11638 0.24954,-0.17457 0,-0.29095 -0.17155,-0.08 -0.31191,-0.4167 -0.31191,-0.74817 0,-0.49553 0.12572,-0.60271 0.70701,-0.60271 0.38885,0 0.78981,0.0841 0.89102,0.18705 0.1012,0.10288 1.13641,0.41461 2.30046,0.69274 1.16406,0.27813 2.13865,0.6148 2.16577,0.74817 0.0271,0.13336 -1.18589,0.48907 -2.69556,0.79045 -1.50968,0.30137 -2.88523,0.55388 -3.05679,0.56112 -0.17155,0.007 -0.31191,-0.25803 -0.31191,-0.58952 z m 41.54731,-2.05924 c -0.9607,-0.0433 -2.11167,-0.14043 -2.55772,-0.21599 -0.44604,-0.0755 -0.81098,-0.23645 -0.81098,-0.35754 0,-0.1211 0.58952,-0.44715 1.31005,-0.72455 0.72053,-0.27741 1.97896,-0.78276 2.79651,-1.123 0.81755,-0.34024 1.57551,-0.56362 1.68435,-0.49639 0.10884,0.0672 0.19789,0.34006 0.19789,0.60629 0,0.26624 -0.12969,0.48408 -0.2882,0.48408 -0.16716,0 -0.10557,0.2017 0.14663,0.48021 0.23917,0.26414 0.39579,0.68498 0.34805,0.93523 -0.0478,0.25056 -0.3099,0.46291 -0.58333,0.47262 -0.27308,0.01 -1.28254,-0.0177 -2.24325,-0.061 z m -36.27771,-1.37574 c -0.13236,-0.34792 -0.50191,-0.70251 -0.82124,-0.78796 -0.31933,-0.0854 -0.97361,-0.15538 -1.45396,-0.15538 -0.48035,0 -1.11564,0.0649 -1.41175,0.14434 -0.29611,0.0794 -0.59439,0.35843 -0.66286,0.62008 -0.0685,0.26165 -0.30342,0.47573 -0.52213,0.47573 -0.27473,0 -0.39766,-0.22932 -0.39766,-0.74178 0,-0.58328 0.17326,-0.83271 0.81098,-1.16744 0.44604,-0.23412 1.37243,-0.43339 2.05865,-0.44284 0.68622,-0.01 1.62206,0.14065 2.07964,0.33353 0.46273,0.19504 0.93796,0.62928 1.07078,0.9784 0.17908,0.47076 0.1452,0.72127 -0.13551,1.00182 -0.33271,0.33251 -0.40104,0.30379 -0.61494,-0.2585 z m 2.74137,-22.35264 c -0.57603,-0.38664 -1.4351,-1.24809 -1.90905,-1.91433 -0.48302,-0.67898 -0.86172,-1.51464 -0.86172,-1.901477 0,-0.430451 0.20868,-0.836218 0.55459,-1.078363 0.30502,-0.213526 0.80035,-0.388229 1.10072,-0.388229 0.3035,0 0.83313,0.34089 1.19214,0.767309 0.35531,0.42202 0.64602,0.870924 0.64602,0.99757 0,0.12664 0.22458,0.4547 0.49906,0.72903 0.27449,0.27434 0.73337,0.49879 1.01973,0.49879 0.29468,0 1.18822,-0.63709 2.05866,-1.467797 0.84589,-0.807288 1.97474,-1.76121 2.50855,-2.119827 0.78437,-0.526938 1.26442,-0.652033 2.5022,-0.652033 1.04001,0 1.72965,0.137188 2.14859,0.427409 0.33934,0.235076 0.85215,0.655924 1.13958,0.935218 0.28744,0.279296 0.77383,0.928658 1.08087,1.443027 0.30705,0.514373 0.66619,0.935213 0.7981,0.935213 0.13191,0 0.86199,-0.45935 1.6224,-1.020772 0.76041,-0.561427 1.89001,-1.245118 2.51023,-1.519313 0.76513,-0.338264 1.39124,-0.449118 1.94754,-0.344815 0.45094,0.08454 1.30969,0.52486 1.90834,0.97847 0.59865,0.453611 1.59696,1.120338 2.21848,1.48161 0.65737,0.38213 1.72717,0.72702 2.55771,0.82458 0.78524,0.0923 1.4277,0.25248 1.4277,0.35611 0,0.10362 -0.64926,0.3027 -1.4428,0.4424 -0.85385,0.15032 -1.8979,0.16897 -2.55771,0.0457 -0.61321,-0.11457 -1.84481,-0.55346 -2.73689,-0.97533 -0.89208,-0.42187 -1.84655,-0.76314 -2.12104,-0.75839 -0.27448,0.004 -0.72885,0.14495 -1.0097,0.31154 -0.28085,0.1666 -1.14657,0.78993 -1.92384,1.3852 -0.93924,0.71932 -1.75393,1.12798 -2.42912,1.21849 -0.95054,0.12742 -1.07564,0.0684 -1.94393,-0.91693 -0.5104,-0.57921 -1.34827,-1.50464 -1.86192,-2.0565 -0.7869,-0.845457 -1.04221,-0.978754 -1.62196,-0.846852 -0.39784,0.09052 -1.3813,0.882552 -2.33157,1.877752 -0.90392,0.94665 -2.07056,2.01085 -2.59253,2.36486 -0.64851,0.43984 -1.28171,0.64367 -1.99957,0.64367 -0.7382,0 -1.36191,-0.20901 -2.09786,-0.703 z"
   id="path9" /><path
   style="fill:#000000;stroke-width:0.994683"
   d="m 238.83905,150.77645 c -0.93948,-0.16401 -2.62955,-0.58729 -3.75572,-0.94062 -1.12617,-0.35333 -2.95174,-1.08766 -4.05681,-1.63186 l -2.00923,-0.98945 -0.0548,-15.32844 -0.0548,-15.32846 h 14.52051 14.5205 v 15.28823 15.28825 l -2.40206,1.13568 c -1.32113,0.62462 -3.2655,1.38097 -4.32084,1.68076 -1.05532,0.29979 -2.72533,0.68387 -3.71111,0.85351 -0.9858,0.16962 -2.95677,0.29992 -4.37997,0.28952 -1.42318,-0.0104 -3.35627,-0.1531 -4.29573,-0.31712 z m 8.64741,-4.88717 c 0,-0.0915 -0.80006,-0.99226 -1.77792,-2.00165 -1.43939,-1.4858 -1.89677,-1.8355 -2.40206,-1.83646 -0.50516,-9.5e-4 -0.95994,0.34342 -2.38565,1.80647 -0.96883,0.99421 -1.76151,1.89548 -1.76151,2.00284 0,0.11312 1.75073,0.1952 4.16357,0.1952 2.28997,0 4.16357,-0.075 4.16357,-0.1664 z m -6.88051,-8.7357 c -0.76134,-0.84016 -1.70075,-1.74091 -2.08757,-2.00166 -0.38682,-0.26072 -0.83295,-0.47406 -0.99139,-0.47406 -0.15845,0 -0.67352,0.34361 -1.14459,0.76359 -0.47109,0.41998 -1.34561,1.32072 -1.94339,2.00166 l -1.08689,1.23806 h 4.31905 4.31905 z m 12.64546,1.3964 c 0,-0.0722 -0.59247,-0.75955 -1.3166,-1.52757 -0.72413,-0.76802 -1.63364,-1.62259 -2.02113,-1.89902 -0.62103,-0.44306 -0.77801,-0.47258 -1.3247,-0.24913 -0.3411,0.13944 -1.30521,0.99853 -2.14245,1.90909 -0.83725,0.91058 -1.52226,1.7101 -1.52226,1.7767 0,0.0666 1.8736,0.12112 4.16356,0.12112 2.28997,0 4.16358,-0.0591 4.16358,-0.13119 z m -12.48754,-8.3495 c -0.67989,-0.72429 -1.53161,-1.57763 -1.8927,-1.89631 -0.3611,-0.31869 -0.87973,-0.57942 -1.15253,-0.57942 -0.2728,0 -0.71755,0.14325 -0.98836,0.31835 -0.27081,0.1751 -1.13894,1.02843 -1.92918,1.89631 l -1.43681,1.57795 h 4.31787 4.31788 z m 11.66599,0.30169 c -0.47372,-0.55833 -1.29722,-1.41168 -1.83,-1.8963 -0.60806,-0.55309 -1.17096,-0.88112 -1.51203,-0.88112 -0.34105,0 -0.90396,0.32803 -1.51202,0.88112 -0.53279,0.48462 -1.35628,1.33797 -1.83001,1.8963 l -0.86131,1.01519 h 4.20334 4.20334 z m -11.82391,-7.46551 c -0.76134,-0.84018 -1.70272,-1.74223 -2.09197,-2.00459 -0.45411,-0.30607 -0.86698,-0.42988 -1.15215,-0.34548 -0.24443,0.0724 -0.76526,0.42922 -1.15739,0.79306 -0.39213,0.36384 -1.19432,1.20672 -1.78263,1.87306 l -1.06969,1.21152 h 4.31905 4.31905 z m 12.45887,1.15885 c -0.11089,-0.2028 -0.96798,-1.10354 -1.90464,-2.00165 -0.93667,-0.89812 -1.83689,-1.63293 -2.00048,-1.63293 -0.16358,0 -0.60335,0.21333 -0.97724,0.47407 -0.3739,0.26074 -1.25994,1.10491 -1.96901,1.87594 -0.70905,0.77102 -1.28918,1.45843 -1.28918,1.52758 0,0.0691 1.87698,0.12571 4.17108,0.12571 3.90691,0 4.15831,-0.0234 3.96947,-0.36872 z m -20.63665,-10.17718 c -0.70676,-1.43048 -0.78878,-1.72747 -0.52316,-1.894 0.17327,-0.10864 1.02856,-0.49269 1.90065,-0.85347 0.87209,-0.36078 2.50549,-0.89357 3.62978,-1.18398 1.47245,-0.38033 2.83029,-0.55861 4.85498,-0.63741 1.70261,-0.0663 3.51054,-0.009 4.58556,0.14667 0.9761,0.14084 2.54565,0.49422 3.4879,0.7853 0.94225,0.29108 2.40978,0.81308 3.26118,1.16001 0.85139,0.34694 1.54798,0.71912 1.54798,0.82708 0,0.10796 -0.34754,0.88134 -0.77233,1.71861 -0.42478,0.83727 -0.79395,1.54688 -0.82037,1.57687 -0.0264,0.0299 -0.6637,-0.22 -1.4162,-0.55553 -0.7525,-0.33554 -2.0888,-0.80716 -2.96955,-1.04802 -0.88075,-0.24088 -2.48032,-0.54189 -3.55458,-0.66894 -1.42821,-0.1689 -2.53868,-0.16742 -4.1313,0.006 -1.19795,0.13007 -2.97458,0.46428 -3.94808,0.74267 -0.97349,0.27837 -2.3211,0.74667 -2.99469,1.04063 -0.67359,0.29397 -1.24154,0.53448 -1.26213,0.53448 -0.0206,0 -0.41463,-0.76342 -0.87564,-1.69649 z m -2.73141,-4.57185 c -0.30412,-0.43457 -0.71028,-1.16334 -0.90258,-1.61947 -0.19229,-0.45615 -0.40163,-1.50795 -0.46519,-2.33731 -0.0852,-1.11084 -0.0191,-1.79481 0.25096,-2.59699 0.22988,-0.68295 0.7606,-1.51446 1.42344,-2.23014 0.58128,-0.62764 1.55288,-1.385065 2.1591,-1.683173 0.8624,-0.42408 1.4214,-0.542013 2.56915,-0.542013 1.25328,0 1.57365,-0.08032 2.19958,-0.551432 0.40294,-0.303288 1.09312,-0.678388 1.53374,-0.833554 0.44062,-0.155166 1.24008,-0.286284 1.77657,-0.291368 0.5365,-0.0051 1.46123,0.13311 2.05497,0.307106 0.96004,0.28134 1.16444,0.28134 1.84679,0 0.42199,-0.173996 1.37086,-0.314273 2.10859,-0.311727 0.86762,0.0031 1.66709,0.150508 2.26371,0.417692 0.5073,0.227187 1.16882,0.604365 1.47002,0.838174 0.41876,0.325045 0.86703,0.425109 1.90443,0.425109 0.8142,0 1.78213,0.159488 2.42041,0.398819 0.585,0.219348 1.44568,0.697415 1.91263,1.062368 0.49387,0.385989 1.09934,1.166609 1.44748,1.866209 0.54024,1.08565 0.59847,1.41792 0.59847,3.41501 0,2.00725 -0.0566,2.32608 -0.61025,3.43879 -0.36404,0.7316 -0.82158,1.32143 -1.13399,1.46191 -0.44622,0.20062 -0.74799,0.12604 -2.03899,-0.50394 l -1.51527,-0.7394 0.73573,-0.44872 c 0.40467,-0.24679 0.9695,-0.85636 1.25519,-1.35459 0.37755,-0.65845 0.52017,-1.22817 0.52209,-2.08575 0.002,-0.96849 -0.10387,-1.31769 -0.59198,-1.9492 -0.32706,-0.42314 -0.87316,-0.91146 -1.21355,-1.08517 -0.34041,-0.17371 -0.70389,-0.31583 -0.80773,-0.31583 -0.10384,0 -0.14725,0.73483 -0.0965,1.63293 0.0743,1.31386 0.004,1.85934 -0.36117,2.79177 -0.24943,0.63737 -0.66718,1.41166 -0.92834,1.72066 l -0.47482,0.56179 -2.13516,-0.48312 c -2.05226,-0.46438 -2.11029,-0.49287 -1.49462,-0.73386 0.3523,-0.1379 0.86586,-0.45776 1.14124,-0.71076 0.27539,-0.25303 0.65235,-0.7445 0.83767,-1.09215 0.19832,-0.37203 0.33696,-1.15224 0.33696,-1.8963 0,-0.77776 -0.13886,-1.52632 -0.36087,-1.94542 -0.19847,-0.37466 -0.6715,-0.84035 -1.05117,-1.03485 -0.40353,-0.20673 -1.18491,-0.3541 -1.88084,-0.35474 -0.65479,-6e-4 -1.30335,0.0677 -1.44124,0.15181 -0.17549,0.10703 -0.2507,1.19231 -0.2507,3.61703 v 3.46412 h -1.38786 -1.38786 v -3.58191 -3.5819 l -0.69393,-0.0307 c -0.38165,-0.0168 -1.03021,-0.007 -1.44124,0.0222 -0.41101,0.029 -1.01063,0.18703 -1.33246,0.35107 -0.32183,0.16403 -0.72959,0.51577 -0.9061,0.78161 -0.17654,0.26586 -0.37951,0.90488 -0.45107,1.42003 -0.0715,0.51515 -0.0216,1.33432 0.11105,1.82036 0.13263,0.48605 0.49044,1.1761 0.79516,1.53345 0.30471,0.35736 0.88668,0.81816 1.29325,1.02399 l 0.73924,0.37423 -2.09956,0.43645 c -1.51992,0.31596 -2.17784,0.37404 -2.3831,0.21037 -0.15596,-0.12435 -0.53983,-0.70611 -0.85305,-1.29282 -0.50366,-0.94345 -0.5696,-1.30387 -0.57051,-3.11855 -9.8e-4,-1.95271 -0.0216,-2.04578 -0.42806,-1.92703 -0.23487,0.0686 -0.6478,0.26227 -0.91764,0.43032 -0.26983,0.16806 -0.6779,0.60856 -0.90682,0.9789 -0.22892,0.37032 -0.47697,0.99061 -0.55122,1.37841 -0.0743,0.38782 -0.0222,1.07679 0.11577,1.53108 0.13793,0.45429 0.5406,1.15172 0.89484,1.54985 0.35424,0.39813 0.83031,0.7822 1.05795,0.85351 0.22763,0.0713 0.41388,0.20092 0.41388,0.28805 0,0.0871 -0.69659,0.46024 -1.548,0.82912 -0.85139,0.36889 -1.65502,0.67047 -1.78584,0.67018 -0.13083,-2.8e-4 -0.48669,-0.35608 -0.79081,-0.79065 z m 13.03129,-13.667983 c -0.0839,-0.08276 -0.15247,-0.513909 -0.15247,-0.958136 0,-0.801832 -0.006,-0.807685 -0.85407,-0.807685 h -0.85406 v -0.842803 -0.842801 h 0.85406 0.85407 v -0.948151 -0.948152 h 0.85407 0.85406 v 0.948152 0.948151 h 0.97372 0.97372 l -0.0663,0.790127 c -0.0641,0.765142 -0.0945,0.792157 -0.962,0.854352 -0.88733,0.06363 -0.89636,0.07253 -0.96083,0.948152 -0.0599,0.813536 -0.1167,0.888916 -0.71331,0.946587 -0.35652,0.03447 -0.71684,-0.0051 -0.80068,-0.08779 z"
   id="path10" /></svg>
