<?xml version="1.0" encoding="UTF-8"?>
<!-- Creator: ESRI ArcMap 9.0.0.535 -->
<svg xmlns="http://www.w3.org/2000/svg" width="200" height="200" viewBox="0 0 777.74173 413.26299">
<g id="Tenerife" transform="matrix(3.333396,0,0,3.333396,-1478.717,-458.2248)" style="fill:#fff8dc;stroke:black;stroke-width:1.166 ">
	<!--Adeje-->
<path d="M521.74797,228.01566L519.34803,236.17622L517.66806,237.85634L513.82815,246.97696L514.54814,252.73736L512.62818,256.57762L512.86818,260.41789L504.22837,269.2985L501.10845,269.2985L500.14847,263.5381L499.18849,261.85799L494.3886,258.49776L494.6286,257.05766L493.66862,257.29767L493.18863,255.61756L491.50867,255.61756L491.74866,254.41748L490.3087,254.41748L482.62887,241.21657L489.10872,238.8164L497.74852,237.85634L505.18835,234.49611L516.2281,224.41541L519.58802,226.09553L521.74797,228.01566z"/>
	<!--Arafo-->
<path d="M581.74659,170.17169L580.78661,172.57185L588.70643,179.0523L591.10637,182.41253L597.58622,186.25279L602.38611,186.25279L598.06621,189.85304L591.10637,187.69289L583.42655,188.41294L578.86665,186.97284L570.22685,187.21286L570.94684,183.61261L575.02674,181.21245L575.98672,175.93208L577.66668,172.81187L581.74659,170.17169z"/>
	<!--Arico--> 
<path d="M538.30759,222.7353L539.98755,222.25527L544.06746,217.45494L548.86735,215.05477L551.26729,212.89462L552.22727,209.53439L553.66723,207.37424L553.18725,203.29396L555.58719,201.85386L572.6268,217.45494L576.7067,222.97532L580.78661,224.65543L581.50659,227.29561L585.10651,229.21574L586.30648,231.13588L585.10651,232.57598L585.5865,234.97614L584.62652,237.13629L585.82649,238.8164L585.3465,240.01649L584.14653,240.01649L583.18655,242.65667L585.5865,244.5768L583.42655,247.21698L581.98658,246.73695L581.0266,247.457L581.0266,249.13711L579.10665,249.13711L578.38666,251.53728L575.26674,253.45741L575.02674,256.33761L572.86679,257.05766L570.22685,260.89792L565.90695,255.37754L563.987,251.53728L559.90709,250.3372L558.94711,249.13711L555.58719,242.41665L550.06732,238.33637L544.30745,228.25568L541.18752,227.29561L538.30759,222.7353z"/>
	<!--Arona-->
<path d="M526.30787,258.01772L526.30787,268.09841L527.26784,271.21863L526.78785,287.29973L525.58788,288.97985L523.90792,287.77977L521.98797,288.2598L520.548,287.29973L518.62804,288.73983L517.66806,288.49982L515.50811,290.65996L512.38819,290.17993L509.50825,288.73983L507.82829,286.57968L508.78827,281.05931L507.5883,279.61921L507.10831,275.53893L505.18835,274.09883L505.42835,275.53893L503.74839,273.61879L501.82843,273.85881L499.90847,272.89874L501.10845,269.2985L504.22837,269.2985L512.86818,260.41789L512.62818,256.57762L514.54814,252.73736L517.90806,255.37754L521.50798,255.13752L526.30787,258.01772z"/>
	<!--Buenavista del Norte-->
<path d="M476.14902,168.25156L474.94905,175.45205L474.94905,185.53274L475.66903,189.13299L479.02896,192.49322L476.86901,194.65337L478.06898,199.21368L474.94905,199.4537L474.46906,200.41377L471.10914,202.09388L469.42918,204.97408L467.74922,204.73406L466.54924,201.85386L467.02923,200.41377L464.38929,196.81352L462.22934,195.85345L461.74935,192.49322L458.14944,189.37301L457.66945,186.97284L455.5095,184.81269L452.38957,183.3726L451.1896,183.61261L450.22962,180.97243L451.90958,177.6122L455.5095,176.41212L457.66945,177.13217L461.02937,175.21203L461.74935,175.93208L464.1493,174.97202L465.10928,173.2919L467.74922,173.2919L467.74922,172.09182L471.10914,169.69166L473.02909,169.93167L473.26909,168.97161L476.14902,168.25156z"/>
	<!--Candelaria-->
<path d="M591.58636,163.21121L594.2263,163.93126L598.78619,163.21121L602.38611,164.89133L602.62611,165.85139L605.26605,167.53151L610.54592,168.97161L607.90598,171.8518L604.30607,174.01195L603.1061,179.53233L601.66613,180.73241L602.38611,186.25279L597.58622,186.25279L591.10637,182.41253L588.70643,179.0523L580.78661,172.57185L581.74659,170.17169L586.78647,168.73159L586.78647,166.33142L588.22644,164.65131L591.58636,163.21121z"/>
	<!--Fasnia-->
<path d="M562.54703,198.0136L564.70698,202.81393L575.98672,207.85428L577.66668,210.97449L580.30662,213.13464L585.10651,215.05477L588.22644,217.69495L590.86638,218.65502L590.38639,221.53522L586.06649,227.53563L587.02647,229.45576L586.30648,231.13588L585.10651,229.21574L581.50659,227.29561L580.78661,224.65543L576.7067,222.97532L572.6268,217.45494L555.58719,201.85386L560.14709,197.05354L561.34706,196.81352L562.54703,198.0136z"/>
	<!--Garachico-->
<path d="M501.10845,172.33184L500.86845,180.25238L499.18849,182.89256L502.30842,195.85345L506.14833,201.61385L510.70823,206.17416L499.18849,200.8938L495.34858,196.33349L493.66862,191.77317L492.70864,187.21286L493.90861,179.29232L493.42862,176.1721L490.0687,176.1721L489.34872,177.6122L486.70878,178.57227L485.26881,176.65213L491.98866,174.01195L492.70864,174.97202L494.14861,173.77194L497.74852,175.21203L501.10845,172.33184z"/>
	<!--Granadilla-->
<path d="M533.02771,224.1754L538.30759,222.7353L541.18752,227.29561L544.30745,228.25568L550.06732,238.33637L555.58719,242.41665L558.94711,249.13711L559.90709,250.3372L563.987,251.53728L565.90695,255.37754L570.22685,260.89792L567.82691,262.81805L567.10693,266.17828L564.22699,266.65832L563.02702,269.53851L561.10706,270.7386L560.62707,272.1787L559.18711,272.1787L557.74714,275.05889L556.30717,275.05889L555.58719,277.21904L553.42724,277.45906L553.18725,279.13917L553.90723,280.33926L551.98727,282.73942L549.34733,280.81929L538.06759,281.77935L537.34761,278.17911L535.66765,276.01896L535.90764,271.45865L537.10762,269.53851L536.86762,264.01813L537.34761,259.45782L534.46768,254.65749L534.22768,251.29726L532.30773,248.65708L532.06773,246.0169L534.70767,243.1367L533.5077,240.73654L534.70767,237.85634L534.22768,229.69578L532.78772,228.25568L533.02771,224.1754z"/>
	<!--La Guancha-->
<path d="M515.9881,169.21162L518.14805,168.49157L518.86804,165.85139L519.58802,166.81146L520.308,166.33142L521.50798,166.81146L523.18794,166.33142L524.6279,168.01154L523.66793,170.17169L525.58788,173.77194L525.58788,175.45205L529.1878,180.01236L530.38777,184.81269L536.38763,195.61344L527.26784,197.53357L529.1878,195.61344L529.42779,192.97325L526.54786,186.25279L523.18794,182.89256L521.74797,177.37218L520.06801,175.93208L515.9881,169.21162z"/>
	<!--Guía de Isora-->
<path d="M472.54911,219.37507L481.18891,210.49446L491.50867,205.93415L497.98852,205.2141L509.98824,207.13423L516.94808,207.13423L514.54814,212.41459L516.2281,224.41541L505.18835,234.49611L497.74852,237.85634L489.10872,238.8164L482.62887,241.21657L481.4289,235.69619L479.98893,234.01607L478.06898,233.77606L477.109,230.65584L475.90903,229.69578L475.42904,227.29561L474.46906,227.0556L473.26909,225.37548L473.74908,222.25527L472.54911,219.37507z"/>
	<!--Güímar-->
<path d="M602.38611,186.25279L604.30607,192.25321L603.82608,196.5735L597.34623,203.29396L597.34623,207.13423L590.86638,218.65502L588.22644,217.69495L585.10651,215.05477L580.30662,213.13464L577.66668,210.97449L575.98672,207.85428L564.70698,202.81393L562.54703,198.0136L566.14695,195.1334L566.38694,193.45329L569.98686,188.89297L570.22685,187.21286L578.86665,186.97284L583.42655,188.41294L591.10637,187.69289L598.06621,189.85304L602.38611,186.25279z"/>
 	<!--Icod de los Vinos-->
<path d="M515.9881,169.21162L520.06801,175.93208L521.74797,177.37218L523.18794,182.89256L526.54786,186.25279L529.42779,192.97325L529.1878,195.61344L527.26784,197.53357L519.82802,199.4537L516.94808,207.13423L510.70823,206.17416L506.14833,201.61385L502.30842,195.85345L499.18849,182.89256L500.86845,180.25238L501.10845,172.33184L502.78841,171.8518L503.2684,173.2919L504.46837,173.53192L506.38832,170.17169L508.06829,171.37177L511.42821,171.37177L512.86818,170.41171L513.34816,167.77152L513.82815,168.73159L515.9881,169.21162z"/>
	<!--La Matanza-->
<path d="M578.62666,146.89009L585.5865,152.41047L586.30648,154.3306L589.18642,157.45081L591.34637,161.77111L591.58636,163.21121L588.22644,164.65131L589.18642,162.73118L586.06649,159.13093L582.70657,158.41088L573.34678,153.85057L574.54675,152.17045L573.58678,150.25032L575.26674,150.0103L575.50673,148.81022L578.14667,149.05024L578.62666,146.89009z"/>
	<!--La Orotava-->
<path d="M559.90709,161.77111L565.42696,159.37095L564.46699,161.5311L563.747,163.69124L569.50687,169.21162L572.6268,170.89174L575.98672,175.93208L575.02674,181.21245L570.94684,183.61261L570.22685,187.21286L569.98686,188.89297L566.38694,193.45329L566.14695,195.1334L562.54703,198.0136L561.34706,196.81352L560.14709,197.05354L555.58719,201.85386L553.18725,203.29396L553.66723,207.37424L552.22727,209.53439L551.26729,212.89462L548.86735,215.05477L544.06746,217.45494L539.98755,222.25527L538.30759,222.7353L533.02771,224.1754L532.30773,226.09553L527.98783,228.49569L521.74797,228.01566L519.58802,226.09553L516.2281,224.41541L514.54814,212.41459L516.94808,207.13423L519.82802,199.4537L527.26784,197.53357L536.38763,195.61344L540.70753,193.45329L541.42752,200.17375L547.90737,198.49363L550.06732,194.65337L551.0273,184.09264L549.10734,172.57185L550.54731,169.45164L551.50728,167.77152L555.58719,168.01154L557.02716,165.37136L560.62707,164.65131L559.90709,161.77111z"/>
 	<!--Puerto de la Cruz-->
<path d="M546.94739,164.41129L548.38736,162.97119L548.86735,163.69124L550.06732,162.97119L551.26729,161.29108L553.90723,161.5311L554.62721,160.81105L555.1072,161.5311L559.90709,161.77111L560.62707,164.65131L557.02716,165.37136L555.58719,168.01154L551.50728,167.77152L550.54731,169.45164L548.62735,168.97161L546.94739,164.41129z"/>
	 <!--Los Realejos-->
<path d="M532.30773,168.01154L538.30759,168.49157L539.74756,166.57144L540.70753,167.53151L542.38749,167.29149L544.78744,165.37136L546.22741,165.61138L546.94739,164.41129L548.62735,168.97161L550.54731,169.45164L549.10734,172.57185L551.0273,184.09264L550.06732,194.65337L547.90737,198.49363L541.42752,200.17375L540.70753,193.45329L532.30773,176.89215L531.58774,170.17169L532.30773,168.01154z"/>
	<!--El Rosario-->
<path d="M598.5462,151.93044L602.38611,146.17004L608.86596,148.09017L611.5059,150.49034L612.70587,150.97037L612.70587,152.8905L611.26591,155.05065L608.62597,158.6509L611.26591,161.77111L615.34581,162.25114L615.34581,161.29108L618.70574,164.65131L615.10582,167.77152L612.46588,167.29149L611.26591,168.73159L610.54592,168.97161L605.26605,167.53151L602.62611,165.85139L602.38611,164.89133L598.78619,163.21121L594.2263,163.93126L591.58636,163.21121L591.82636,161.77111L594.46629,158.17086L597.82622,153.61055L597.58622,151.93044L598.5462,151.93044z"/>
	<!--San Cristóbal de la Laguna-->
<path d="M591.10637,128.1688L594.46629,126.24867L594.70629,124.80857L598.5462,122.16839L603.34609,122.64842L606.22602,121.44834L606.46602,120.48828L611.7459,119.04818L612.70587,114.24785L615.10582,112.80775L616.30579,113.04776L617.02577,114.9679L619.42572,114.00783L622.06566,115.68795L623.26563,114.9679L624.22561,115.20791L625.42558,113.28778L628.30551,114.72788L629.98548,123.84851L629.50549,125.76864L626.86555,126.96872L625.18559,133.44917L628.7855,136.32936L629.0255,137.52945L625.90557,147.61014L623.74562,149.29025L622.78564,154.81063L620.62569,155.53068L620.62569,153.61055L613.90585,152.17045L612.70587,150.97037L611.5059,150.49034L608.86596,148.09017L602.38611,146.17004L598.5462,151.93044L599.98617,145.69001L601.18614,145.44999L600.46616,139.20956L593.98631,133.44917L591.10637,128.1688 z M605.98603,139.68959L611.5059,135.3693L614.62583,133.20915L615.8258,134.64925L619.18572,133.20915L621.10568,131.049L623.26563,126.7287L619.90571,125.04859L611.7459,122.64842L609.82594,122.88844L607.186,127.92879L601.66613,131.28902L601.18614,136.32936L605.98603,139.68959z"/>
	<!--San Juan de la Rambla-->
<path d="M524.6279,168.01154L527.02785,167.05147L528.9478,168.49157L532.30773,168.01154L531.58774,170.17169L532.30773,176.89215L540.70753,193.45329L536.38763,195.61344L530.38777,184.81269L529.1878,180.01236L525.58788,175.45205L525.58788,173.77194L523.66793,170.17169L524.6279,168.01154z"/>
 	<!--San Miguel de Abona-->
<path d="M532.30773,248.65708L534.22768,251.29726L534.46768,254.65749L537.34761,259.45782L536.86762,264.01813L537.10762,269.53851L535.90764,271.45865L535.66765,276.01896L537.34761,278.17911L538.06759,281.77935L530.62777,284.41954L528.22782,287.53975L526.78785,287.29973L527.26784,271.21863L526.30787,268.09841L526.30787,258.01772L526.30787,254.41748L531.58774,250.81723L532.30773,248.65708z"/>
	<!--Santa Cruz de Tenerife"-->
<path d="M659.75,108.25L659.03125,108.96875L659.5,109.21875L659.75,109.4375L659.75,108.25 z M660,110.15625L657.59375,111.125L655.90625,111.125L652.78125,113.78125L642,117.125L636.9375,114.96875L632.875,115.4375L628.78125,113.0625L628.3125,114.71875L630,123.84375L629.5,125.78125L626.875,126.96875L625.1875,133.4375L628.78125,136.34375L629.03125,137.53125L625.90625,147.625L623.75,149.28125L622.78125,154.8125L620.625,155.53125L620.625,153.625L613.90625,152.15625L612.71875,150.96875L612.71875,152.875L611.28125,155.0625L608.625,158.65625L611.28125,161.78125L615.34375,162.25L615.34375,161.28125L618.71875,164.65625L621.59375,162.25L623.03125,159.84375L627.09375,156.5L629.25,153.125L634.78125,150.96875L635.5,147.125L635.75,146.15625L638.375,141.625L641.5,140.40625L641.25,139.9375L643.1875,140.15625L643.65625,139.21875L647.5,137.78125L645.34375,139.6875L649.4375,137.53125L652.0625,134.40625L654.46875,134.15625L655.65625,132.5L660.21875,130.34375L663.8125,131.0625L665.03125,127.6875L666.21875,126.71875L668.625,127.6875L667.65625,126.25L668.15625,123.125L670.3125,121.21875L670.3125,119.0625L668.875,118.34375L669.09375,116.40625L667.90625,114.96875L666.46875,114.71875L666.21875,113.0625L666.9375,112.5625L660,110.15625z"/>
	<!--Santa Úrsula-->
<path d="M569.74686,155.53068L571.90681,159.13093L572.86679,158.6509L574.54675,159.37095L576.7067,161.77111L577.90668,165.37136L580.78661,168.01154L581.74659,170.17169L577.66668,172.81187L575.98672,175.93208L572.6268,170.89174L569.50687,169.21162L563.747,163.69124L564.46699,161.5311L565.42696,159.37095L567.10693,155.29067L568.0669,154.81063L569.74686,155.53068z"/>
	<!--Santiago del Teide-->
<path d="M482.14888,192.73324L485.50881,193.21327L499.18849,200.8938L510.70823,206.17416L516.94808,207.13423L509.98824,207.13423L497.98852,205.2141L491.50867,205.93415L481.18891,210.49446L472.54911,219.37507L471.82912,218.89504L472.54911,218.17499L472.06912,216.01484L471.10914,215.29479L472.06912,215.05477L471.82912,213.61467L473.02909,211.69454L472.54911,207.85428L469.90917,206.41418L470.14916,205.2141L469.42918,204.97408L471.10914,202.09388L474.46906,200.41377L474.94905,199.4537L478.06898,199.21368L476.86901,194.65337L479.02896,192.49322L480.70892,193.45329L482.14888,192.73324z"/>
	<!--El Sauzal-->
<path d="M585.5865,140.40964L588.70643,143.52986L591.10637,148.09017L592.06635,152.65049L594.46629,158.17086L591.82636,161.77111L591.58636,163.21121L591.34637,161.77111L589.18642,157.45081L586.30648,154.3306L585.5865,152.41047L578.62666,146.89009L578.38666,145.93002L580.30662,144.48992L579.58664,143.52986L581.2666,144.48992L581.74659,142.56979L585.5865,140.40964z"/>
	<!--Los Silos-->
<path d="M485.26881,176.65213L485.9888,180.73241L481.66889,190.33307L482.14888,192.73324L480.70892,193.45329L479.02896,192.49322L475.66903,189.13299L474.94905,185.53274L474.94905,175.45205L476.14902,168.25156L477.34899,168.49157L477.34899,169.93167L481.18891,172.81187L482.62887,173.2919L483.10886,172.33184L485.26881,176.65213z"/>
	<!--Tacoronte-->
<path d="M591.10637,128.1688L593.98631,133.44917L600.46616,139.20956L601.18614,145.44999L599.98617,145.69001L598.5462,151.93044L597.58622,151.93044L597.82622,153.61055L594.46629,158.17086L592.06635,152.65049L591.10637,148.09017L588.70643,143.52986L585.5865,140.40964L587.02647,136.56938L586.78647,135.84933L587.98644,134.16922L588.22644,131.049L591.10637,128.1688z"/>
	<!--El Tanque-->
<path d="M485.26881,176.65213L486.70878,178.57227L489.34872,177.6122L490.0687,176.1721L493.42862,176.1721L493.90861,179.29232L492.70864,187.21286L493.66862,191.77317L495.34858,196.33349L499.18849,200.8938L485.50881,193.21327L482.14888,192.73324L481.66889,190.33307L485.9888,180.73241L485.26881,176.65213z"/>
 	<!--Tegueste--> 
<path d="M605.98603,139.68959L601.18614,136.32936L601.66613,131.28902L607.186,127.92879L609.82594,122.88844L611.7459,122.64842L619.90571,125.04859L623.26563,126.7287L621.10568,131.049L619.18572,133.20915L615.8258,134.64925L614.62583,133.20915L611.5059,135.3693L605.98603,139.68959z"/>
	<!--La Victoria--> 
<path d="M573.34678,153.85057L582.70657,158.41088L586.06649,159.13093L589.18642,162.73118L588.22644,164.65131L586.78647,166.33142L586.78647,168.73159L581.74659,170.17169L580.78661,168.01154L577.90668,165.37136L576.7067,161.77111L574.54675,159.37095L572.86679,158.6509L571.90681,159.13093L569.74686,155.53068L573.34678,153.85057z"/>
	<!--Vilaflor--> 
<path d="M533.02771,224.1754L532.78772,228.25568L534.22768,229.69578L534.70767,237.85634L533.5077,240.73654L534.70767,243.1367L532.06773,246.0169L532.30773,248.65708L531.58774,250.81723L526.30787,254.41748L526.30787,258.01772L521.50798,255.13752L517.90806,255.37754L514.54814,252.73736L513.82815,246.97696L517.66806,237.85634L519.34803,236.17622L521.74797,228.01566L527.98783,228.49569L532.30773,226.09553L533.02771,224.1754z"/>
 	 <!--Contorno de Tenerife-->  
<path style="fill:none;stroke-width:2.33;stroke-linejoin:round"
d="M659.74999,108.25L659.03124,108.96875L659.74999,109.4375L659.74999,108.25 z M659.99999,110.15625L657.59374,111.125L655.90624,111.125L652.78124,113.78125L641.99999,117.125L636.93749,114.96875L632.87499,115.4375L628.78124,113.0625L628.31249,114.71875L625.43749,113.28125L624.21874,115.21875L623.24999,114.96875L622.06249,115.6875L619.43749,114L617.03124,114.96875L616.31249,113.0625L615.09374,112.8125L612.71874,114.25L611.74999,119.0625L606.46874,120.5L606.21874,121.4375L603.34374,122.65625L598.53124,122.15625L594.71874,124.8125L594.46874,126.25L592.78124,127.21875L591.09374,128.15625L588.21874,131.0625L587.99999,134.15625L586.78124,135.84375L587.03124,136.5625L585.59374,140.40625L581.74999,142.5625L581.28124,144.5L579.59374,143.53125L580.31249,144.5L578.37499,145.9375L578.62499,146.875L578.15624,149.0625L575.49999,148.8125L575.28124,150L573.59374,150.25L574.53124,152.15625L573.34374,153.84375L569.74999,155.53125L568.06249,154.8125L567.09374,155.28125L565.43749,159.375L559.90624,161.78125L555.09374,161.53125L554.62499,160.8125L553.90624,161.53125L551.28124,161.28125L550.06249,162.96875L548.87499,163.6875L548.37499,162.96875L547.65624,163.6875L546.93749,164.40625L546.21874,165.625L544.78124,165.375L542.37499,167.28125L540.71874,167.53125L539.74999,166.5625L538.31249,168.5L535.18749,168.25L532.31249,168L528.93749,168.5L527.03124,167.0625L525.81249,167.53125L524.62499,168L523.18749,166.34375L521.49999,166.8125L520.31249,166.34375L519.59374,166.8125L518.87499,165.84375L518.15624,168.5L515.99999,169.21875L513.84374,168.71875L513.34374,167.78125L512.87499,170.40625L511.43749,171.375L508.06249,171.375L506.37499,170.15625L504.46874,173.53125L503.28124,173.28125L502.78124,171.84375L501.09374,172.34375L497.74999,175.21875L494.15624,173.78125L492.71874,174.96875L491.99999,174L485.28124,176.65625L483.09374,172.34375L482.62499,173.28125L481.18749,172.8125L477.34374,169.9375L477.34374,168.5L476.15624,168.25L473.28124,168.96875L473.03124,169.9375L471.09374,169.6875L467.74999,172.09375L467.74999,173.28125L465.09374,173.28125L464.15624,174.96875L461.74999,175.9375L461.03124,175.21875L457.65624,177.125L455.49999,176.40625L451.90624,177.625L450.21874,180.96875L451.18749,183.625L452.37499,183.375L455.49999,184.8125L457.65624,186.96875L458.15624,189.375L461.74999,192.5L462.21874,195.84375L464.37499,196.8125L467.03124,200.40625L466.56249,201.84375L467.74999,204.71875L469.43749,204.96875L470.15624,205.21875L469.90624,206.40625L472.56249,207.84375L473.03124,211.6875L471.84374,213.625L472.06249,215.0625L471.09374,215.28125L472.06249,216L472.56249,218.1875L471.84374,218.90625L472.56249,219.375L473.74999,222.25L473.28124,225.375L474.46874,227.0625L475.43749,227.28125L475.90624,229.6875L477.09374,230.65625L478.06249,233.78125L479.99999,234.03125L481.43749,235.6875L482.62499,241.21875L490.31249,254.40625L491.74999,254.40625L491.49999,255.625L493.18749,255.625L493.65624,257.3125L494.62499,257.0625L494.37499,258.5L499.18749,261.84375L500.15624,263.53125L501.09374,269.3125L499.90624,272.90625L501.84374,273.84375L503.74999,273.625L505.43749,275.53125L505.18749,274.09375L507.09374,275.53125L507.59374,279.625L508.78124,281.0625L507.84374,286.59375L509.49999,288.75L512.37499,290.1875L515.49999,290.65625L517.65624,288.5L518.62499,288.75L520.56249,287.3125L521.99999,288.25L523.90624,287.78125L525.59374,288.96875L526.78124,287.3125L528.21874,287.53125L530.62499,284.40625L538.06249,281.78125L549.34374,280.8125L551.99999,282.75L553.90624,280.34375L553.18749,279.125L553.43749,277.46875L555.59374,277.21875L556.31249,275.0625L557.74999,275.0625L559.18749,272.1875L560.62499,272.1875L561.09374,270.75L563.03124,269.53125L564.21874,266.65625L567.09374,266.1875L567.81249,262.8125L570.21874,260.90625L572.87499,257.0625L575.03124,256.34375L575.28124,253.46875L578.37499,251.53125L579.09374,249.125L581.03124,249.125L581.03124,247.46875L581.99999,246.75L583.43749,247.21875L585.59374,244.5625L583.18749,242.65625L584.15624,240.03125L585.34374,240.03125L585.81249,238.8125L584.62499,237.125L585.59374,234.96875L585.09374,232.5625L586.31249,231.125L587.03124,229.46875L586.06249,227.53125L590.37499,221.53125L590.87499,218.65625L597.34374,207.125L597.34374,203.28125L603.81249,196.5625L604.31249,192.25L603.34374,189.125L602.37499,186.25L601.65624,180.71875L603.09374,179.53125L604.31249,174L607.90624,171.84375L610.53124,168.96875L611.28124,168.71875L612.46874,167.28125L615.09374,167.78125L618.71874,164.65625L621.59374,162.25L623.03124,159.84375L627.09374,156.5L629.24999,153.125L634.78124,150.96875L635.49999,147.125L635.74999,146.15625L638.37499,141.625L641.49999,140.40625L641.24999,139.9375L643.18749,140.15625L643.65624,139.21875L647.49999,137.78125L645.34374,139.6875L649.43749,137.53125L652.06249,134.40625L654.46874,134.15625L655.65624,132.5L660.21874,130.34375L663.81249,131.0625L665.03124,127.6875L666.21874,126.71875L668.62499,127.6875L667.65624,126.25L668.15624,123.125L670.31249,121.21875L670.31249,119.0625L668.87499,118.34375L669.09374,116.40625L667.90624,114.96875L666.46874,114.71875L666.21874,113.0625L666.93749,112.5625L659.99999,110.15625z"/>
</g></svg>