<?xml version="1.0" encoding="UTF-8" standalone="no"?>
<svg
   id="svg4773"
   viewBox="0 0 357.08 379.82"
   version="1.1"
   sodipodi:docname="pajara2.svg"
   xml:space="preserve"
   inkscape:version="1.4 (86a8ad7, 2024-10-11)"
   xmlns:inkscape="http://www.inkscape.org/namespaces/inkscape"
   xmlns:sodipodi="http://sodipodi.sourceforge.net/DTD/sodipodi-0.dtd"
   xmlns="http://www.w3.org/2000/svg"
   xmlns:svg="http://www.w3.org/2000/svg"
   xmlns:rdf="http://www.w3.org/1999/02/22-rdf-syntax-ns#"
   xmlns:cc="http://creativecommons.org/ns#"
   xmlns:dc="http://purl.org/dc/elements/1.1/"><defs
     id="defs1" /><sodipodi:namedview
     id="namedview1"
     pagecolor="#ffffff"
     bordercolor="#000000"
     borderopacity="0.25"
     inkscape:showpageshadow="2"
     inkscape:pageopacity="0.0"
     inkscape:pagecheckerboard="0"
     inkscape:deskcolor="#d1d1d1"
     inkscape:zoom="3.0725079"
     inkscape:cx="125.95574"
     inkscape:cy="135.88248"
     inkscape:window-width="2560"
     inkscape:window-height="1369"
     inkscape:window-x="1912"
     inkscape:window-y="-8"
     inkscape:window-maximized="1"
     inkscape:current-layer="svg4773" /><g
     id="layer1"
     transform="translate(-189.9,-222.14)"><path
       id="path4834"
       style="fill:#a4e8fc;fill-opacity:1;stroke:#000000;stroke-opacity:1"
       d="m 345.79,601.06 c -10.725,-0.4181 -26.925,-1.4782 -36,-2.3556 -36.648,-3.5435 -34.346,-3.0691 -39,-8.0383 -2.317,-2.474 -2.5266,-3.524 -2.8627,-14.342 -0.1995,-6.4198 0.16063,-16.622 0.80029,-22.672 1.2282,-11.617 3.2325,-93.777 3.4396,-141 0.12597,-28.718 -0.84859,-40.024 -4.0946,-47.5 l -1.5197,-3.5 -10.779,11.314 c -8.651,9.0806 -11.342,11.329 -13.631,11.392 -2.7841,0.0763 -12.81,-4.3264 -22.853,-10.036 -2.75,-1.5633 -7.25,-4.1199 -10,-5.6812 -2.75,-1.5613 -7.1802,-3.9712 -9.845,-5.3553 -10.356,-5.3791 -12.211,-12.254 -5.9078,-21.899 2.0609,-3.154 3.9734,-5.9596 4.25,-6.2346 0.27655,-0.275 1.7633,-2.8572 3.3039,-5.7382 3.9894,-7.4605 16.324,-26.328 19.449,-29.75 0.6875,-0.75286 1.25,-1.6299 1.25,-1.9489 0,-0.92598 5.3864,-8.1413 15.812,-21.18 8.1974,-10.253 10.843,-12.824 17.188,-16.71 4.125,-2.5261 10.65,-5.7559 14.5,-7.1774 3.85,-1.4215 9.475,-3.7378 12.5,-5.1473 3.025,-1.4095 8.7521,-3.8555 12.727,-5.4356 7.2337,-2.8756 25.935,-12.331 27.723,-14.016 0.5225,-0.49255 1.9675,-0.89554 3.211,-0.89554 1.2436,0 3.1216,-0.92367 4.1734,-2.0526 3.239,-3.4767 6.9346,-3.8269 14.254,-1.3507 10.086,3.4123 31.272,5.1042 43.657,3.4864 5.3652,-0.70083 12.26,-2.1312 15.321,-3.1787 6.9889,-2.391 11.003,-2.412 14.049,-0.0733 1.3117,1.0071 8.0099,4.561 14.885,7.8976 13.095,6.355 35.078,16.773 38.5,18.245 24.772,10.658 28.188,13.639 41.208,35.96 3.0688,5.2612 6.4117,10.781 7.4286,12.265 1.0169,1.4847 4.0469,7.1097 6.7334,12.5 2.6865,5.3903 8.6,17.001 13.141,25.801 5.0261,9.7397 8.2291,17.127 8.1862,18.879 -0.0663,2.7077 -4.4587,8.6207 -6.4039,8.6207 -0.45803,0 -2.7363,1.2097 -5.0629,2.6882 -4.5225,2.874 -12.71,7.3733 -24.585,13.511 -10.176,5.2593 -14.99,5.2579 -20.013,-0.006 -1.9978,-2.0939 -4.7519,-5.3564 -6.1202,-7.25 -2.9538,-4.0876 -9.9078,-10.943 -11.101,-10.943 -1.5445,0 -2.8754,3.7483 -5.0303,14.167 -3.1668,15.311 -3.7738,26.78 -2.77,52.333 0.49696,12.65 1.3267,41.9 1.8438,65 0.5171,23.1 1.4181,53.283 2.0022,67.073 0.75847,17.906 0.75354,25.958 -0.0173,28.169 -1.6058,4.6063 -6.4522,6.4404 -20.94,7.9248 -48.703,4.9902 -52.257,5.256 -68.5,5.1236 -8.25,-0.067 -23.775,-0.4644 -34.5,-0.8826 z" /></g><metadata
     id="metadata1"><rdf:RDF><cc:Work><dc:format>image/svg+xml</dc:format><dc:type
           rdf:resource="http://purl.org/dc/dcmitype/StillImage" /><cc:license
           rdf:resource="http://creativecommons.org/licenses/publicdomain/" /><dc:publisher><cc:Agent
             rdf:about="http://openclipart.org/"><dc:title>Openclipart</dc:title></cc:Agent></dc:publisher><dc:date>2011-02-08T23:40:04</dc:date><dc:description>A black t-shirt.</dc:description><dc:source>https://openclipart.org/detail/117511/black-t-shirt-by-körnerbrötchen</dc:source><dc:creator><cc:Agent><dc:title>Körnerbrötchen</dc:title></cc:Agent></dc:creator><dc:subject><rdf:Bag><rdf:li>black</rdf:li><rdf:li>shirt</rdf:li><rdf:li>t-shirt</rdf:li></rdf:Bag></dc:subject></cc:Work><cc:License
         rdf:about="http://creativecommons.org/licenses/publicdomain/"><cc:permits
           rdf:resource="http://creativecommons.org/ns#Reproduction" /><cc:permits
           rdf:resource="http://creativecommons.org/ns#Distribution" /><cc:permits
           rdf:resource="http://creativecommons.org/ns#DerivativeWorks" /></cc:License></rdf:RDF></metadata><path
     style="fill:#000000;stroke-width:0.868484"
     d="m 140.44531,243.90733 c -1.29085,-0.28546 -2.24642,-1.05531 -2.70033,-2.17549 -0.25189,-0.62162 -0.32069,-1.47229 -0.1765,-2.18233 0.14591,-0.71855 0.63214,-1.51206 1.21573,-1.98401 0.31871,-0.25773 0.9886,-0.5969 1.40357,-0.71063 0.43789,-0.12001 1.50857,-0.14551 1.99459,-0.0475 0.70453,0.14206 1.42878,0.52054 1.86187,0.97295 l 0.1574,0.16442 -0.32128,0.29908 c -0.1767,0.16449 -0.40442,0.3737 -0.50603,0.46492 l -0.18476,0.16583 -0.2751,-0.22821 c -0.47954,-0.39781 -0.91056,-0.55344 -1.53269,-0.55344 -0.66608,0 -1.20783,0.21421 -1.63674,0.6472 -0.43754,0.44169 -0.60808,0.89429 -0.60909,1.61649 -6.6e-4,0.46757 0.0656,0.77088 0.24536,1.12357 0.63502,1.24576 2.4946,1.53218 3.55123,0.54699 0.26931,-0.2511 0.21673,-0.27149 0.86066,0.33369 l 0.42142,0.39605 -0.27113,0.25618 c -0.4812,0.45468 -1.09527,0.75918 -1.80494,0.895 -0.41188,0.0788 -1.3352,0.0784 -1.69324,-7.6e-4 z m 72.78737,-0.007 c -0.50581,-0.0943 -1.22589,-0.34499 -1.54532,-0.53796 -0.21427,-0.12945 -0.25736,-0.17624 -0.23694,-0.25732 0.036,-0.14291 0.48505,-1.09199 0.51668,-1.09199 0.0146,0 0.10795,0.0513 0.20736,0.11374 0.8803,0.55394 2.359,0.74356 3.08109,0.39511 0.40048,-0.19324 0.51769,-0.63902 0.24842,-0.94473 -0.1898,-0.21548 -0.46718,-0.3253 -1.49253,-0.59093 -0.47983,-0.1243 -0.95819,-0.25692 -1.06304,-0.29469 -0.62976,-0.22693 -1.11055,-0.62998 -1.2754,-1.06918 -0.45084,-1.20113 0.25491,-2.38144 1.65674,-2.77074 0.42535,-0.11813 1.61919,-0.14361 2.14234,-0.0458 0.44408,0.0831 1.08688,0.29787 1.32609,0.44307 l 0.14736,0.0895 -0.23454,0.57537 c -0.129,0.31645 -0.24245,0.58384 -0.25212,0.59421 -0.01,0.0104 -0.16007,-0.0452 -0.33423,-0.12355 -0.77791,-0.34984 -1.53887,-0.46651 -2.1756,-0.33358 -0.53357,0.11141 -0.7866,0.36142 -0.7866,0.77723 0,0.42939 0.2427,0.57527 1.46175,0.87865 1.36274,0.33915 1.73138,0.49358 2.14314,0.89786 0.3748,0.36796 0.48221,0.66354 0.46095,1.2684 -0.0135,0.38431 -0.0357,0.48581 -0.16673,0.76149 -0.27059,0.56948 -0.80501,0.98145 -1.55826,1.20124 -0.46404,0.13541 -1.70194,0.17061 -2.27061,0.0646 z m -65.43515,-0.0553 c 4.9e-4,-0.0193 0.70109,-1.59975 1.55688,-3.51223 l 1.55599,-3.47722 0.79895,-0.0127 0.79895,-0.0127 1.57599,3.5133 1.57598,3.51329 -0.8263,0.0127 c -0.62989,0.01 -0.83514,-0.002 -0.86346,-0.0466 -0.0204,-0.0327 -0.16824,-0.37976 -0.32845,-0.77123 l -0.29129,-0.71178 h -1.64862 -1.64862 l -0.16101,0.38506 c -0.0885,0.21178 -0.23176,0.55833 -0.31824,0.77012 l -0.15725,0.38506 h -0.8102 c -0.44561,0 -0.8098,-0.0158 -0.8093,-0.035 z m 4.48957,-4.05614 c -0.30583,-0.73556 -0.56413,-1.34542 -0.57399,-1.35526 -0.01,-0.01 -0.23455,0.50273 -0.49931,1.13902 -0.26476,0.63628 -0.5196,1.24614 -0.56631,1.35525 l -0.0849,0.19836 h 1.1403 1.14031 z m 7.63685,0.56725 v -3.52389 l 0.66724,5e-5 0.66723,6e-5 1.72549,2.10043 c 0.94902,1.15523 1.74443,2.1121 1.76759,2.12637 0.0247,0.0153 0.0421,-0.85351 0.0421,-2.10049 v -2.12642 h 0.796 0.796 v 3.52389 3.5239 h -0.64943 -0.64944 l -1.77369,-2.15385 -1.77368,-2.15384 -0.0122,2.15384 -0.0122,2.15385 h -0.79554 -0.79553 z m 10.81717,3.48889 c 4.9e-4,-0.0193 0.70109,-1.59975 1.55688,-3.51223 l 1.55599,-3.47722 0.79895,-0.0127 0.79895,-0.0127 1.57599,3.5133 1.57598,3.51329 -0.8263,0.0127 c -0.62989,0.01 -0.83514,-0.002 -0.86346,-0.0466 -0.0204,-0.0327 -0.16824,-0.37976 -0.32845,-0.77123 l -0.29129,-0.71178 h -1.64862 -1.64862 l -0.16101,0.38506 c -0.0885,0.21178 -0.23176,0.55833 -0.31825,0.77012 l -0.15724,0.38506 h -0.8102 c -0.44561,0 -0.8098,-0.0158 -0.8093,-0.035 z m 4.48957,-4.05614 c -0.30583,-0.73556 -0.56413,-1.34542 -0.57399,-1.35526 -0.01,-0.01 -0.23455,0.50273 -0.49931,1.13902 -0.26476,0.63628 -0.5196,1.24614 -0.56631,1.35525 l -0.0849,0.19836 h 1.1403 1.14031 z m 7.68367,0.56356 v -3.52759 l 1.88466,0.0186 c 1.75179,0.0174 1.9104,0.0256 2.24989,0.11907 1.08556,0.29863 1.76335,0.97885 1.93753,1.94447 0.19398,1.07541 -0.23689,2.04638 -1.13136,2.54959 -0.14209,0.0799 -0.25835,0.15664 -0.25835,0.17044 0,0.0139 0.3331,0.50014 0.74021,1.08072 0.40712,0.58058 0.75603,1.08186 0.77536,1.11394 0.0276,0.0459 -0.14856,0.0581 -0.82216,0.0572 l -0.85729,-0.002 -0.67663,-0.979 -0.67662,-0.97901 h -0.7632 -0.76321 v 0.98016 0.98016 h -0.81941 -0.81942 z m 3.79599,0.13788 c 0.11769,-0.054 0.29202,-0.17826 0.38741,-0.27617 0.42334,-0.43451 0.39971,-1.29502 -0.0469,-1.70798 -0.31774,-0.2938 -0.65783,-0.36707 -1.70395,-0.36707 h -0.7937 v 1.24096 1.24093 l 0.97159,-0.0163 c 0.86768,-0.0145 0.99448,-0.0267 1.18557,-0.11442 z m 7.11392,-0.13419 v -3.52389 h 0.81942 0.81941 v 3.52389 3.5239 h -0.81941 -0.81942 z m 5.94751,3.48889 c 5e-4,-0.0193 0.7011,-1.59975 1.55689,-3.51223 l 1.55598,-3.47722 0.79895,-0.0127 0.79896,-0.0127 1.57598,3.5133 1.57599,3.51329 -0.82631,0.0127 c -0.62988,0.01 -0.83514,-0.002 -0.86346,-0.0466 -0.0204,-0.0327 -0.16824,-0.37976 -0.32845,-0.77123 l -0.29129,-0.71178 h -1.64862 -1.64862 l -0.161,0.38506 c -0.0886,0.21178 -0.23177,0.55833 -0.31825,0.77012 l -0.15725,0.38506 h -0.8102 c -0.44561,0 -0.8098,-0.0158 -0.8093,-0.035 z m 4.48957,-4.05614 c -0.30583,-0.73556 -0.56412,-1.34542 -0.57399,-1.35526 -0.01,-0.01 -0.23455,0.50273 -0.49931,1.13902 -0.26475,0.63628 -0.51959,1.24614 -0.56631,1.35525 l -0.0849,0.19836 h 1.14031 1.1403 z m -13.11154,-10.81304 c -0.42488,-0.1579 -0.72312,-0.43789 -0.92622,-0.86953 l -0.1218,-0.25883 v -5.62424 -5.62422 l 0.12399,-0.26362 c 0.15107,-0.3212 0.42229,-0.59994 0.75236,-0.77325 0.22282,-0.117 0.29397,-0.12992 0.71566,-0.12992 0.42169,0 0.49283,0.0129 0.71567,0.12993 0.13609,0.0715 0.32837,0.21305 0.42729,0.31465 l 0.17986,0.18475 0.34996,-0.16118 c 0.79764,-0.36736 1.67123,-0.52294 2.67745,-0.47683 1.40559,0.0644 2.53512,0.5483 3.55857,1.5245 1.11913,1.06745 1.67665,2.26923 1.74551,3.76263 0.0888,1.92659 -0.64695,3.56476 -2.12918,4.7404 -1.02981,0.81682 -2.08028,1.17228 -3.47489,1.17582 -0.93271,0.003 -1.58146,-0.12361 -2.34836,-0.456 -0.0701,-0.0303 -0.079,0.0473 -0.094,0.82151 -0.0157,0.80746 -0.0234,0.86967 -0.13962,1.11736 -0.15979,0.34073 -0.39591,0.59724 -0.70485,0.76571 -0.21637,0.11799 -0.30558,0.13721 -0.69316,0.14936 -0.29072,0.009 -0.5035,-0.008 -0.61422,-0.049 z m 5.20615,-5.61352 c 0.80455,-0.23556 1.48916,-0.90203 1.70535,-1.66013 0.23083,-0.80949 0.0203,-1.67811 -0.56254,-2.32119 -0.75165,-0.82933 -2.09845,-1.01434 -3.02737,-0.41587 -0.73857,0.47584 -1.16219,1.2206 -1.16219,2.04325 0,0.6978 0.21357,1.20455 0.72067,1.71004 0.50896,0.50732 0.98784,0.70954 1.69396,0.71528 0.2176,0.002 0.48564,-0.0285 0.63212,-0.0714 z m -89.48321,3.25348 c -0.46318,-0.1035 -0.89572,-0.44826 -1.1114,-0.88586 l -0.12942,-0.2626 4.9e-4,-2.59042 c 4.9e-4,-2.52422 0.003,-2.60278 0.10743,-3.07461 0.43472,-1.96861 1.97815,-3.62129 3.90048,-4.17658 1.10866,-0.32024 2.55026,-0.27406 3.60044,0.11532 1.49709,0.55513 2.85425,1.93874 3.35975,3.42528 0.26696,0.78503 0.26908,0.81418 0.26908,3.68726 v 2.66042 l -0.13036,0.24664 c -0.17427,0.32968 -0.4541,0.59984 -0.77577,0.74894 -0.37885,0.1756 -0.94553,0.17585 -1.32361,6e-4 -0.34029,-0.15775 -0.59801,-0.39274 -0.76987,-0.70196 l -0.13757,-0.24755 -0.0255,-2.47372 c -0.0247,-2.39319 -0.0289,-2.48384 -0.1292,-2.78411 -0.24919,-0.74611 -0.85955,-1.35094 -1.60115,-1.58665 -0.39402,-0.12524 -0.98772,-0.13209 -1.39704,-0.016 -0.56461,0.15998 -1.16865,0.6516 -1.44882,1.17915 -0.29085,0.54769 -0.29132,0.55259 -0.29132,3.04302 0,2.44551 -0.0132,2.60269 -0.2503,2.97704 -0.15431,0.24367 -0.4669,0.5145 -0.71733,0.6215 -0.2373,0.1014 -0.75148,0.15028 -0.99897,0.095 z m 15.75616,0.0115 c -0.83709,-0.0968 -1.38134,-0.24837 -1.99,-0.55444 -1.59744,-0.8033 -2.74141,-2.31783 -3.04857,-4.03607 -0.0991,-0.55438 -0.0759,-1.65386 0.0471,-2.23449 0.41298,-1.94936 1.97222,-3.62082 3.89613,-4.17656 0.65452,-0.18907 1.14492,-0.22461 2.87468,-0.20831 1.56004,0.0146 1.59695,0.0172 1.83832,0.12595 0.33055,0.14892 0.72362,0.57322 0.83565,0.90202 0.12683,0.37221 0.10889,0.89051 -0.0422,1.21949 -0.14541,0.3166 -0.44812,0.62745 -0.76003,0.78045 -0.23003,0.11282 -0.25341,0.11457 -1.89514,0.14203 -1.79754,0.0301 -1.92772,0.047 -2.38801,0.31111 -0.23663,0.13577 -0.6087,0.43267 -0.6087,0.48571 0,0.0191 1.03772,0.0409 2.30606,0.0485 2.25572,0.0134 2.31089,0.0159 2.52694,0.11545 0.99821,0.45967 1.2656,1.7624 0.52864,2.57552 -0.0964,0.10632 -0.31287,0.26033 -0.48421,0.34445 l -0.30992,0.15213 -2.29262,0.0234 -2.29261,0.0234 0.23127,0.20316 c 0.1272,0.11173 0.3135,0.24507 0.41401,0.29629 0.47246,0.24082 0.47063,0.2406 2.25325,0.26803 l 1.68681,0.026 0.30986,0.15215 c 0.36221,0.17783 0.61036,0.43231 0.77925,0.79907 0.17092,0.37118 0.17158,0.89878 0.002,1.26794 -0.1408,0.30575 -0.36489,0.5725 -0.61112,0.72745 -0.35756,0.22499 -0.59251,0.25114 -2.18909,0.24358 -0.81225,-0.004 -1.54003,-0.0143 -1.61729,-0.0233 z m 10.30121,0.004 c -0.96629,-0.13441 -1.37716,-0.24957 -1.99001,-0.55775 -1.59712,-0.80314 -2.73454,-2.30836 -3.04988,-4.03608 -0.0489,-0.26789 -0.0639,-0.94708 -0.0639,-2.89379 v -2.54374 l 0.12398,-0.26361 c 0.15107,-0.32118 0.42226,-0.59993 0.75236,-0.77329 0.22369,-0.11748 0.29235,-0.12981 0.71566,-0.12845 0.41812,0.002 0.49472,0.0152 0.71567,0.12995 0.31776,0.16497 0.58212,0.4382 0.7462,0.77123 l 0.13014,0.26417 0.0242,2.49706 c 0.0237,2.45339 0.026,2.50165 0.12959,2.75869 0.14953,0.37104 0.34725,0.65057 0.67244,0.95068 0.47242,0.43598 0.97783,0.63132 1.63339,0.63132 1.02046,0 1.97319,-0.69499 2.30338,-1.68026 0.0977,-0.29162 0.10267,-0.3993 0.12759,-2.77711 l 0.0259,-2.47373 0.10868,-0.203 c 0.16549,-0.30913 0.45791,-0.59775 0.75093,-0.74119 0.23236,-0.11375 0.3177,-0.12931 0.70898,-0.12931 0.37768,0 0.48016,0.0173 0.67894,0.11469 0.29919,0.14656 0.62757,0.4739 0.7746,0.77211 l 0.11505,0.23338 0.0147,2.40372 c 0.0157,2.58062 -0.007,2.99035 -0.20862,3.68229 -0.55647,1.91414 -2.25047,3.48613 -4.17881,3.87784 -0.45002,0.0914 -1.45594,0.15663 -1.76113,0.11418 z m 8.07708,-0.0148 c -0.46319,-0.1035 -0.89573,-0.44826 -1.1114,-0.88586 l -0.12943,-0.2626 5e-4,-2.59042 c 4.8e-4,-2.52421 0.003,-2.60278 0.10742,-3.07462 0.31294,-1.4171 1.17625,-2.65914 2.42315,-3.48615 0.94103,-0.62414 2.10576,-0.95425 3.17021,-0.89854 0.32586,0.0171 0.43187,0.0446 0.68237,0.17778 0.32668,0.17357 0.55797,0.42196 0.72094,0.77422 0.0864,0.18674 0.10579,0.30815 0.1038,0.64971 -0.003,0.48096 -0.0907,0.71723 -0.39503,1.06184 -0.28289,0.32037 -0.57667,0.45353 -1.11277,0.50442 -0.25099,0.0239 -0.58864,0.0775 -0.75034,0.11922 -0.55096,0.14224 -1.16884,0.64219 -1.45151,1.17445 -0.29085,0.54769 -0.29132,0.5526 -0.29132,3.04302 0,2.44551 -0.0132,2.60269 -0.25029,2.97704 -0.15432,0.24367 -0.46691,0.5145 -0.71734,0.6215 -0.23729,0.1014 -0.75148,0.15029 -0.99896,0.095 z m 10.32461,0.0148 c -0.96628,-0.13441 -1.37716,-0.24957 -1.99,-0.55775 -1.59744,-0.80331 -2.74141,-2.31783 -3.04857,-4.03608 -0.0991,-0.55438 -0.076,-1.65385 0.0471,-2.23448 0.41298,-1.94935 1.97222,-3.62082 3.89613,-4.17657 1.10867,-0.32024 2.55026,-0.27408 3.60045,0.11532 1.45996,0.54135 2.77806,1.85812 3.32351,3.32013 0.38616,1.03507 0.43107,2.47771 0.11137,3.57741 -0.55647,1.91414 -2.25047,3.48613 -4.17881,3.87784 -0.45003,0.0914 -1.45594,0.15663 -1.76114,0.11418 z m 1.15039,-3.26806 c 0.80455,-0.23557 1.48916,-0.90203 1.70534,-1.66012 0.23084,-0.80948 0.0203,-1.67811 -0.56253,-2.32121 -0.75165,-0.82932 -2.09845,-1.01432 -3.02738,-0.41586 -0.73856,0.47584 -1.16218,1.22061 -1.16218,2.04326 0,0.69779 0.21357,1.20454 0.72067,1.71002 0.50896,0.50734 0.98784,0.70955 1.69396,0.7153 0.2176,0.002 0.48563,-0.0285 0.63212,-0.0714 z m 6.92669,3.25145 c -0.45753,-0.0972 -0.89518,-0.44535 -1.1114,-0.88407 l -0.12943,-0.2626 v -4.43404 -4.43404 l 0.12399,-0.26361 c 0.15106,-0.32118 0.42226,-0.59993 0.75236,-0.77329 0.22368,-0.11748 0.29234,-0.12981 0.71566,-0.12845 0.41811,0.002 0.49472,0.0152 0.71567,0.12995 0.31776,0.16497 0.58212,0.4382 0.74619,0.77123 l 0.13014,0.26417 0.0134,3.41529 0.0134,3.41529 1.4147,0.0153 1.41469,0.0152 0.26345,0.12898 c 0.31168,0.15261 0.66316,0.51018 0.80371,0.81765 0.14309,0.31301 0.14309,0.96746 0,1.28048 -0.14055,0.30745 -0.49221,0.66522 -0.80379,0.81775 l -0.26337,0.12893 -2.31777,0.008 c -1.27477,0.004 -2.39151,-0.009 -2.48165,-0.0274 z m 7.67908,0.002 c -0.46319,-0.10349 -0.89573,-0.44825 -1.1114,-0.88585 l -0.12943,-0.26262 v -4.43403 -4.43403 l 0.12399,-0.26362 c 0.15106,-0.32118 0.42226,-0.59992 0.75236,-0.77329 0.22368,-0.11748 0.29234,-0.1298 0.71566,-0.12845 0.41811,0.002 0.49472,0.0152 0.71567,0.12996 0.31776,0.16495 0.58212,0.43819 0.74619,0.77123 l 0.13014,0.26417 0.0131,4.28739 c 0.0142,4.6491 0.0162,4.60814 -0.23937,5.01166 -0.15489,0.24459 -0.46717,0.51534 -0.71797,0.62249 -0.23729,0.1014 -0.75147,0.15028 -0.99896,0.095 z m 4.07366,0 c -0.46319,-0.10349 -0.89573,-0.44825 -1.1114,-0.88585 l -0.12943,-0.26262 5e-4,-2.59041 c 4.8e-4,-2.5242 0.003,-2.60278 0.10742,-3.07461 0.43473,-1.9686 1.97816,-3.62128 3.90048,-4.17657 1.10866,-0.32025 2.55026,-0.27406 3.60044,0.11532 0.62864,0.23311 1.48143,0.76998 1.86741,1.17565 l 0.15834,0.16642 0.33331,-0.28609 c 0.74333,-0.63803 1.62731,-1.08807 2.5106,-1.27817 0.5938,-0.1278 1.924,-0.11795 2.51396,0.0186 1.86314,0.43125 3.45691,1.87356 4.0607,3.6748 0.2528,0.75415 0.26582,0.94918 0.25141,3.76406 l -0.0132,2.58434 -0.13757,0.24754 c -0.17185,0.30923 -0.42958,0.54422 -0.76987,0.70196 -0.21782,0.10097 -0.33171,0.12216 -0.66115,0.123 -0.34164,7.5e-4 -0.43552,-0.0174 -0.663,-0.12872 -0.34838,-0.17053 -0.62824,-0.44743 -0.78144,-0.77317 l -0.12415,-0.26396 -0.0249,-2.47372 c -0.0243,-2.41085 -0.0276,-2.48075 -0.12897,-2.75 -0.41381,-1.09891 -1.5151,-1.77076 -2.64381,-1.61289 -0.85779,0.11997 -1.64768,0.76849 -1.96449,1.61289 -0.10093,0.26899 -0.10433,0.34205 -0.12897,2.77333 l -0.0253,2.49706 -0.13037,0.24665 c -0.17426,0.32968 -0.45409,0.59983 -0.77577,0.74893 -0.37884,0.17561 -0.94553,0.17586 -1.32361,6e-4 -0.34029,-0.15774 -0.59801,-0.39273 -0.76987,-0.70196 l -0.13757,-0.24754 -0.0255,-2.47372 c -0.0247,-2.3932 -0.0289,-2.48384 -0.1292,-2.78411 -0.2492,-0.74612 -0.85956,-1.35095 -1.60116,-1.58666 -0.39402,-0.12524 -0.98771,-0.13208 -1.39704,-0.016 -0.56461,0.15997 -1.16865,0.65159 -1.44881,1.17915 -0.29086,0.54768 -0.29133,0.55259 -0.29133,3.04302 0,2.44551 -0.0132,2.60268 -0.25029,2.97704 -0.15431,0.24367 -0.46691,0.5145 -0.71734,0.62151 -0.23729,0.10139 -0.75148,0.15027 -0.99896,0.095 z m 32.12102,0 c -0.46319,-0.10349 -0.89573,-0.44825 -1.1114,-0.88585 l -0.12942,-0.26262 v -4.43403 -4.43403 l 0.12398,-0.26362 c 0.15107,-0.32118 0.42226,-0.59992 0.75236,-0.77329 0.22369,-0.11748 0.29234,-0.1298 0.71566,-0.12845 0.41811,0.002 0.49472,0.0152 0.71567,0.12996 0.31776,0.16495 0.58212,0.43819 0.74619,0.77123 l 0.13014,0.26417 0.0131,4.28739 c 0.0142,4.6491 0.0162,4.60814 -0.23937,5.01166 -0.15489,0.24459 -0.46717,0.51534 -0.71796,0.62249 -0.2373,0.1014 -0.75148,0.15028 -0.99897,0.095 z m 7.79614,0.0115 c -0.83709,-0.0967 -1.38134,-0.24837 -1.99001,-0.55444 -1.59743,-0.8033 -2.7414,-2.31784 -3.04856,-4.03607 -0.0991,-0.55438 -0.076,-1.65387 0.0471,-2.23449 0.41298,-1.94936 1.97222,-3.62082 3.89613,-4.17657 1.24253,-0.35891 2.83017,-0.25717 3.91828,0.2511 l 0.39797,0.18591 0.22893,-0.21345 c 0.35439,-0.33045 0.58553,-0.41681 1.11551,-0.41685 0.37772,-4e-5 0.48014,0.0172 0.67894,0.11465 0.29918,0.14655 0.62756,0.47389 0.77459,0.77212 l 0.11506,0.23337 v 4.48072 4.4807 l -0.13037,0.24664 c -0.17426,0.32969 -0.45409,0.59985 -0.77576,0.74894 -0.2194,0.10171 -0.33245,0.12276 -0.66345,0.1236 -0.35714,7.5e-4 -0.43161,-0.015 -0.71005,-0.15163 -0.17109,-0.084 -0.37681,-0.22729 -0.45715,-0.3185 l -0.14608,-0.16585 -0.45114,0.19289 c -0.83731,0.358 -1.96351,0.53386 -2.7999,0.43721 z m 1.15039,-3.26474 c 0.80455,-0.23558 1.48916,-0.90204 1.70534,-1.66013 0.23084,-0.80949 0.0203,-1.6781 -0.56254,-2.3212 -0.75164,-0.82933 -2.09844,-1.01432 -3.02737,-0.41586 -0.73856,0.47583 -1.16218,1.2206 -1.16218,2.04325 0,0.69779 0.21357,1.20455 0.72067,1.71003 0.50896,0.50733 0.98784,0.70955 1.69396,0.71529 0.2176,0.002 0.48563,-0.0285 0.63212,-0.0714 z m 10.78964,3.26474 c -0.83709,-0.0967 -1.38134,-0.24837 -1.99,-0.55444 -1.59744,-0.8033 -2.74141,-2.31784 -3.04857,-4.03607 -0.0991,-0.55438 -0.076,-1.65387 0.0471,-2.23449 0.41298,-1.94936 1.97222,-3.62082 3.89613,-4.17657 1.16203,-0.33567 2.76976,-0.26036 3.75987,0.17612 0.18978,0.0837 0.27178,0.10106 0.28567,0.0607 0.0107,-0.0311 0.0256,-0.44526 0.033,-0.92017 0.0134,-0.85671 0.0146,-0.8654 0.15111,-1.11102 0.17185,-0.30922 0.42958,-0.5442 0.76987,-0.70195 0.37808,-0.17526 0.94476,-0.17501 1.32361,6e-4 0.32167,0.1491 0.6015,0.41925 0.77577,0.74893 l 0.13036,0.24664 v 5.69425 5.69423 l -0.13036,0.24663 c -0.17427,0.3297 -0.4541,0.59985 -0.77577,0.74895 -0.2194,0.10169 -0.33245,0.12275 -0.66345,0.12359 -0.35713,7.6e-4 -0.43161,-0.015 -0.71005,-0.15164 -0.17109,-0.084 -0.37681,-0.22728 -0.45715,-0.31849 l -0.14608,-0.16584 -0.45114,0.19287 c -0.83731,0.35802 -1.96351,0.53387 -2.7999,0.43723 z m 1.15039,-3.26474 c 0.80455,-0.23558 1.48916,-0.90204 1.70534,-1.66013 0.23084,-0.80949 0.0203,-1.6781 -0.56253,-2.3212 -0.75165,-0.82933 -2.09845,-1.01432 -3.02738,-0.41586 -0.73856,0.47583 -1.16218,1.2206 -1.16218,2.04325 0,0.69779 0.21357,1.20455 0.72067,1.71003 0.50896,0.50733 0.98784,0.70955 1.69396,0.71529 0.2176,0.002 0.48564,-0.0285 0.63212,-0.0714 z m 10.78964,3.26474 c -0.83709,-0.0967 -1.38134,-0.24837 -1.99,-0.55444 -1.59744,-0.8033 -2.74141,-2.31784 -3.04857,-4.03607 -0.0991,-0.55438 -0.0759,-1.65387 0.0471,-2.23449 0.41298,-1.94936 1.97222,-3.62082 3.89613,-4.17657 1.24253,-0.35891 2.83018,-0.25717 3.91828,0.2511 l 0.39798,0.18591 0.22892,-0.21345 c 0.35439,-0.33045 0.58553,-0.41681 1.11551,-0.41685 0.37772,-4e-5 0.48014,0.0172 0.67894,0.11465 0.29918,0.14655 0.62756,0.47389 0.77459,0.77212 l 0.11506,0.23337 v 4.48072 4.4807 l -0.13036,0.24664 c -0.17427,0.32969 -0.4541,0.59985 -0.77577,0.74894 -0.2194,0.10171 -0.33245,0.12276 -0.66345,0.1236 -0.35713,7.5e-4 -0.43161,-0.015 -0.71005,-0.15163 -0.17109,-0.084 -0.37681,-0.22729 -0.45715,-0.3185 l -0.14608,-0.16585 -0.45113,0.19289 c -0.83732,0.358 -1.96352,0.53386 -2.79991,0.43721 z m 1.15039,-3.26474 c 0.80455,-0.23558 1.48916,-0.90204 1.70535,-1.66013 0.23083,-0.80949 0.0203,-1.6781 -0.56254,-2.3212 -0.75165,-0.82933 -2.09845,-1.01432 -3.02737,-0.41586 -0.73857,0.47583 -1.16219,1.2206 -1.16219,2.04325 0,0.69779 0.21357,1.20455 0.72067,1.71003 0.50896,0.50733 0.98784,0.70955 1.69396,0.71529 0.2176,0.002 0.48564,-0.0285 0.63212,-0.0714 z m 7.11399,3.25208 c -0.46146,-0.0999 -0.89817,-0.44837 -1.10866,-0.88471 -0.10941,-0.22679 -0.12646,-0.31988 -0.12503,-0.68266 0.001,-0.32245 0.0244,-0.47072 0.0993,-0.63802 0.11608,-0.25904 0.38681,-0.56924 0.63075,-0.72275 0.37762,-0.23762 0.52471,-0.24949 3.09086,-0.24949 h 2.3803 l 0.11493,-0.11456 c 0.14267,-0.14223 0.15259,-0.38522 0.0224,-0.55013 l -0.0925,-0.11721 -1.69853,-0.0257 c -1.7718,-0.0268 -2.02696,-0.0524 -2.63125,-0.26303 -1.19567,-0.4169 -1.82493,-1.40884 -1.9264,-3.03669 -0.0546,-0.87612 0.0824,-1.66785 0.40082,-2.3164 0.31714,-0.64591 0.77767,-1.06016 1.48149,-1.33257 0.65969,-0.25534 0.98283,-0.27689 3.92671,-0.26191 l 2.66895,0.0136 0.24632,0.11098 c 0.33054,0.14892 0.72361,0.57321 0.83565,0.90201 0.12683,0.37222 0.10888,0.89051 -0.0422,1.2195 -0.14541,0.3166 -0.44813,0.62744 -0.76004,0.78043 l -0.2329,0.11424 -2.52847,0.0234 c -2.60485,0.0241 -2.68696,0.0303 -2.75709,0.21255 -0.0663,0.17214 -0.0282,0.39916 0.086,0.51301 l 0.11493,0.11457 h 1.4666 c 0.80663,0 1.64514,0.0214 1.86337,0.0477 1.26662,0.15229 2.11622,0.71892 2.55254,1.70236 0.35051,0.79003 0.42943,2.18891 0.18009,3.19209 -0.28865,1.16132 -1.06128,1.88937 -2.31245,2.17904 -0.30869,0.0715 -0.67974,0.0828 -3.06695,0.0936 -1.49367,0.007 -2.78952,-0.004 -2.87965,-0.0232 z"
     id="path2" /><path
     style="fill:#000000;stroke-width:0.922047"
     d="m 192.2153,206.42724 c -0.18525,-0.0486 -0.42892,-0.13461 -0.54149,-0.1913 -1.22853,-0.6188 -2.23884,-2.1554 -2.6383,-4.01263 -0.14679,-0.68249 -0.14916,-1.97983 -0.005,-2.59754 0.25518,-1.09152 0.8806,-2.3705 1.65459,-3.38362 0.29675,-0.38845 1.12334,-1.23346 1.6178,-1.65384 1.26217,-1.07315 3.13432,-2.16557 5.38134,-3.14004 0.9067,-0.39322 4.06319,-1.6743 4.12536,-1.6743 0.0205,0 -0.26604,0.44985 -0.63682,0.99964 -1.49002,2.20941 -2.26991,3.72688 -2.77425,5.39797 -0.33698,1.11655 -0.47943,2.02132 -0.54808,3.48103 -0.0843,1.79158 -0.3094,2.82461 -0.85461,3.92119 -0.32313,0.64993 -0.6109,1.06213 -1.09657,1.57071 -0.67532,0.7072 -1.48669,1.18255 -2.2613,1.32482 -0.41885,0.077 -1.0385,0.0586 -1.42291,-0.0421 z m -5.85081,-9.06117 c -0.42847,-1.01869 -1.16997,-2.24401 -1.94693,-3.21725 -0.52594,-0.65881 -1.61543,-1.85764 -2.13469,-2.34894 -1.77186,-1.6764 -3.93104,-2.82293 -6.16322,-3.27271 -1.07685,-0.21699 -1.28825,-0.23131 -3.46141,-0.23466 -2.23707,-0.004 -2.36978,-0.0149 -2.86081,-0.24448 -0.73104,-0.34197 -0.84067,-1.38847 -0.21793,-2.08044 0.48636,-0.54043 1.28561,-0.84102 3.33772,-1.25525 0.44025,-0.0889 1.12889,-0.2039 1.53029,-0.2556 1.1836,-0.15244 1.63941,-0.23523 2.22215,-0.40359 2.5264,-0.72989 4.22543,-2.26969 4.78105,-4.33293 0.11249,-0.41774 0.12413,-0.54198 0.12687,-1.35373 0.002,-0.70239 -0.0156,-0.97939 -0.084,-1.29364 -0.3132,-1.43899 -1.01247,-2.77417 -2.34304,-4.47383 -0.82309,-1.05141 -1.2136,-1.58768 -1.3455,-1.8477 -0.3407,-0.67171 -0.0787,-1.426 0.54094,-1.55696 0.40799,-0.0863 1.49388,0.40337 2.37505,1.0709 0.7857,0.5952 2.72007,2.52098 3.60569,3.58967 1.17072,1.4127 2.15889,3.02094 2.85127,4.64044 2.04735,4.78873 2.14447,10.44001 0.28805,16.76057 -0.22869,0.77861 -0.81258,2.51954 -0.86237,2.57124 -0.0173,0.0179 -0.12493,-0.18953 -0.23916,-0.46111 z m 8.61255,-7.63599 c -0.7656,-0.10627 -1.42047,-0.43028 -1.95408,-0.96683 -0.43866,-0.44104 -0.63938,-0.75977 -0.83428,-1.32467 -0.74102,-2.14779 0.90527,-4.44207 3.18435,-4.43772 0.58669,8.6e-4 1.00716,0.099 1.53453,0.35733 0.37944,0.18582 0.51229,0.28434 0.87541,0.64916 0.69073,0.69398 0.97772,1.3836 0.98051,2.35614 0.002,0.6083 -0.0776,0.95366 -0.34575,1.50533 -0.32505,0.66865 -0.79502,1.15073 -1.4652,1.50298 -0.56127,0.295 -1.37203,0.44204 -1.97549,0.35828 z m 8.26878,-1.2846 c -0.0538,-0.73386 -0.21601,-2.04014 -0.35869,-2.88876 -0.6707,-3.98911 -2.02546,-6.49902 -4.32926,-8.02063 -1.76705,-1.16711 -4.04877,-1.7624 -7.36661,-1.922 -1.07412,-0.0517 -1.19066,-0.065 -1.66675,-0.19147 -0.41396,-0.10991 -0.80964,-0.3033 -1.27201,-0.6217 -0.85927,-0.59169 -1.10487,-1.21467 -0.7548,-1.91455 0.29598,-0.59175 1.1714,-1.31789 2.12621,-1.76364 0.91498,-0.42717 1.76457,-0.62797 3.78754,-0.89516 2.1361,-0.28214 2.90259,-0.43311 3.82194,-0.7528 4.0195,-1.39777 6.19228,-5.29119 5.16252,-9.25076 -0.33134,-1.27401 -0.73293,-1.99039 -2.02604,-3.61405 -0.83768,-1.05182 -1.08936,-1.64209 -1.0521,-2.46755 0.0232,-0.51346 0.15502,-0.83957 0.4633,-1.1459 0.82424,-0.81903 2.33283,-0.85636 3.52304,-0.0871 0.57384,0.37086 0.98948,0.81749 1.90696,2.04916 3.69823,4.96466 5.76938,8.51638 6.86077,11.76528 0.47412,1.41138 0.68448,2.38007 0.82746,3.81033 0.11361,1.13653 0.11424,3.28385 10e-4,4.25723 -0.4016,3.45964 -1.70662,6.30727 -4.20898,9.18425 -0.62527,0.71887 -2.22252,2.29923 -2.97891,2.94738 -0.5026,0.43069 -1.87525,1.54048 -2.26512,1.83136 l -0.16978,0.12668 z m -41.88823,-1.14723 c -2.64923,-0.23428 -4.64547,-0.75021 -6.72295,-1.73758 -1.30387,-0.6197 -2.00394,-1.07374 -2.56708,-1.66495 -0.64316,-0.67519 -0.90114,-1.27745 -0.89751,-2.09523 0.002,-0.38428 0.0255,-0.5393 0.12996,-0.84674 0.36254,-1.06701 1.16313,-1.84689 2.12891,-2.0738 0.24481,-0.0575 0.4685,-0.0705 0.91285,-0.053 0.74327,0.0294 1.20794,0.15922 2.04824,0.57257 1.29157,0.63535 1.99366,1.18922 3.79043,2.99011 1.73793,1.74193 2.61023,2.48529 3.72877,3.17756 0.95704,0.59232 2.18433,1.09021 3.13723,1.2727 0.2366,0.0453 0.4231,0.0894 0.41443,0.0981 -0.0239,0.0239 -1.23728,0.19094 -2.00679,0.27625 -0.64835,0.0719 -3.55857,0.13152 -4.09649,0.084 z m 12.94867,-5.03616 c -1.73885,-0.28853 -3.09797,-1.47879 -3.53796,-3.09843 -0.13289,-0.48918 -0.14675,-1.4835 -0.0273,-1.96084 0.50706,-2.02682 2.15839,-3.32752 4.22449,-3.32752 1.99921,0 3.7061,1.23926 4.20139,3.05035 0.14062,0.51417 0.1397,1.52395 -0.002,2.04221 -0.12795,0.46843 -0.42022,1.09129 -0.6856,1.46109 -0.24241,0.33779 -0.84882,0.93441 -1.17502,1.15605 -0.38632,0.26249 -1.00795,0.52601 -1.4614,0.6195 -0.39989,0.0824 -1.20505,0.11263 -1.53672,0.0575 z m -8.96358,-0.23044 c -0.83698,-0.20241 -1.53629,-0.93358 -1.71926,-1.79758 -0.19479,-0.91989 0.19911,-1.87804 0.9886,-2.40474 0.39463,-0.26327 0.81452,-0.38773 1.31292,-0.38912 0.66922,-0.002 1.21385,0.23389 1.68082,0.7277 0.44871,0.47447 0.64512,0.96913 0.63923,1.60982 -0.014,1.52575 -1.41485,2.6136 -2.90231,2.25392 z m -18.8319,-1.07798 c -0.41947,-0.11517 -0.75152,-0.31848 -1.11536,-0.68287 -0.59786,-0.59874 -1.04183,-1.47696 -1.62559,-3.21559 -0.71663,-2.13434 -1.02325,-3.92223 -1.02558,-5.9801 -0.002,-1.53559 0.13211,-2.64734 0.49107,-4.07918 0.64287,-2.56426 1.93001,-5.07396 3.79508,-7.39977 2.73122,-3.40593 6.29818,-5.52138 10.70156,-6.34678 1.40826,-0.26398 3.30166,-0.43574 4.26129,-0.38655 1.70247,0.0871 3.74201,0.47459 5.23942,0.99502 2.65128,0.92149 4.43599,2.27247 4.78858,3.62483 0.21625,0.82949 -0.0534,1.93911 -0.63623,2.61785 -0.23184,0.27 -0.79155,0.65115 -1.16095,0.7906 -0.85788,0.32383 -1.76551,0.45555 -3.56869,0.51786 -1.5257,0.0528 -2.11822,0.10145 -3.13946,0.25817 -2.65577,0.40755 -4.97783,1.35094 -6.93756,2.81856 -0.67437,0.50502 -1.92211,1.72777 -2.46551,2.4161 -1.0062,1.27459 -1.85173,2.81524 -2.44955,4.46338 -0.50633,1.3959 -0.7766,2.44143 -1.32758,5.13565 -0.49137,2.40271 -0.6366,2.90201 -1.00562,3.45743 -0.34,0.51176 -0.77409,0.82008 -1.36831,0.97191 -0.42793,0.10935 -1.09885,0.12022 -1.45101,0.0234 z m 45.9233,-0.39666 c -0.37244,-0.1132 -0.74089,-0.46673 -0.84371,-0.80958 -0.24986,-0.83317 0.31188,-1.63966 1.14209,-1.63966 0.38488,0 0.61256,0.0785 0.86029,0.29626 0.56024,0.49267 0.59093,1.30052 0.0692,1.82174 -0.3208,0.3205 -0.82004,0.45518 -1.22788,0.33124 z m -31.28838,-4.28895 c -1.47416,-0.21224 -2.85896,-1.09871 -3.70894,-2.37423 -0.44619,-0.6696 -0.69355,-1.2567 -0.86462,-2.05213 -0.11643,-0.54136 -0.11562,-1.65341 0.002,-2.20133 0.58196,-2.72002 3.04937,-4.50413 5.9139,-4.27617 0.92393,0.0735 1.85528,0.39343 2.5955,0.89141 0.65512,0.44076 1.37084,1.29231 1.71454,2.03996 0.64461,1.40222 0.70777,3.11289 0.16922,4.58279 -0.46883,1.27957 -1.44778,2.33733 -2.70962,2.92778 -0.90074,0.42148 -2.12751,0.6036 -3.1116,0.46192 z m 23.38014,-7.08569 c -1.20382,-1.91584 -3.0345,-3.4092 -5.44035,-4.4379 -0.88313,-0.37762 -1.8806,-1.10377 -2.44529,-1.78016 -0.73508,-0.88045 -1.12446,-1.78493 -1.18636,-2.7557 -0.0699,-1.09688 0.43025,-2.03084 1.30991,-2.4459 0.58505,-0.27605 0.86368,-0.32994 1.68608,-0.32613 0.63169,0.003 0.79129,0.0198 1.18684,0.12612 0.54858,0.14733 1.16487,0.42808 1.56033,0.71081 0.37619,0.26897 1.1586,1.07534 1.53347,1.58045 1.11682,1.50482 1.71395,3.23076 1.9615,5.66954 0.064,0.63063 0.15666,4.07123 0.10957,4.06889 -0.0102,-5.1e-4 -0.13431,-0.18501 -0.2757,-0.41002 z m -13.01722,-0.58252 c -0.10139,-0.0237 -0.31328,-0.10663 -0.47086,-0.18418 -1.28382,-0.63172 -1.71642,-2.24762 -0.92759,-3.46486 0.43768,-0.6754 1.14324,-1.04947 1.97946,-1.04947 0.71109,0 1.28001,0.2392 1.74174,0.73233 0.90607,0.96767 0.88901,2.38604 -0.0399,3.31836 -0.49278,0.49457 -1.0026,0.70384 -1.69502,0.69574 -0.2219,-0.003 -0.48642,-0.0241 -0.58782,-0.048 z m 21.4908,-1.7771 c -1.22979,-0.27172 -2.28595,-0.94323 -3.02415,-1.92275 -1.57716,-2.09274 -1.37741,-4.81641 0.49006,-6.68209 0.68146,-0.68082 1.51639,-1.16571 2.41638,-1.40337 0.40726,-0.10754 0.56626,-0.12449 1.17715,-0.12559 0.77736,-0.002 1.09513,0.0519 1.77079,0.29599 0.73728,0.26653 1.52113,0.80644 2.03428,1.40121 0.86266,0.99987 1.30411,2.16472 1.30357,3.43977 -9.9e-4,2.38824 -1.50553,4.33867 -3.81378,4.94405 -0.57659,0.15122 -1.78604,0.17832 -2.3543,0.0528 z m -6.02701,-11.15739 c -1.41562,-0.0897 -2.90617,-0.48962 -5.10884,-1.3705 -3.00209,-1.20061 -5.53743,-1.9534 -8.73447,-2.59342 -3.15758,-0.63214 -6.43597,-0.94789 -8.61222,-0.82943 -0.47661,0.0259 -0.87339,0.0403 -0.88173,0.0321 -0.031,-0.031 1.01719,-0.81295 1.65413,-1.23392 1.25867,-0.83188 2.36284,-1.39327 3.81619,-1.94021 2.14924,-0.80883 4.365,-1.36807 6.65452,-1.67956 2.25808,-0.30721 5.16195,-0.34291 7.51616,-0.0924 2.14865,0.22859 4.75064,0.74148 5.73955,1.13131 1.55833,0.61431 2.81454,1.64644 3.37128,2.76994 0.27456,0.55406 0.38229,1.02056 0.38573,1.67039 0.0107,2.01227 -1.08145,3.40002 -3.06931,3.90015 -0.8607,0.21656 -1.78071,0.29596 -2.73099,0.23569 z"
     id="path3" /><path
     style="fill:#000000;stroke-width:0.889795"
     d="m 117.52659,95.061528 c -0.16641,-0.166349 -0.30105,-0.404525 -0.2992,-0.529284 0.007,-0.459995 0.56761,-3.65252 0.65735,-3.74223 0.0511,-0.05105 0.23738,-0.03736 0.41404,0.03041 0.25165,0.09653 0.29652,0.278816 0.20723,0.841763 -0.24852,1.56671 -0.32816,3.033045 -0.14356,2.643221 0.10025,-0.211714 0.18837,-0.618849 0.19581,-0.904745 0.0269,-1.031949 0.42899,-2.463431 0.69201,-2.463431 0.14382,0 0.30029,0.06496 0.34771,0.144351 0.154,0.257813 -0.40228,3.706013 -0.64504,3.998418 -0.30889,0.372059 -1.04521,0.362523 -1.42635,-0.0185 z m 2.73981,-0.733232 c -0.0473,-0.569626 -0.0476,-1.565643 -7e-4,-2.213371 l 0.0852,-1.177692 h 0.65074 c 0.52238,0 0.65074,0.07593 0.65074,0.384935 0,0.213852 -0.12836,0.384935 -0.28881,0.384935 -0.19254,0 -0.28881,0.192468 -0.28881,0.577401 0,0.384934 0.0963,0.577401 0.28881,0.577401 0.16045,0 0.28881,0.171083 0.28881,0.384935 0,0.213852 -0.12836,0.384934 -0.28881,0.384934 -0.19254,0 -0.28881,0.192467 -0.28881,0.577402 0,0.384931 0.0963,0.577407 0.28881,0.577407 0.15884,0 0.28881,0.129904 0.28881,0.288697 0,0.199611 -0.20059,0.288697 -0.65004,0.288697 -0.64719,0 -0.65042,-0.0044 -0.73596,-1.035681 z m 2.72919,0.02523 c -0.11657,-0.449893 -0.34702,-1.312763 -0.51212,-1.917491 -0.37801,-1.384614 -0.26877,-1.691269 0.60248,-1.691269 0.86496,0 1.27362,0.58341 1.32841,1.896439 0.0258,0.619381 0.1665,1.101111 0.39527,1.353811 0.38816,0.428757 0.29748,0.984029 -0.16071,0.984029 -0.15878,0 -0.42425,-0.238184 -0.58994,-0.529283 l -0.30123,-0.529288 0.11785,0.625518 c 0.10171,0.539871 0.064,0.625521 -0.27511,0.625521 -0.30069,0 -0.44271,-0.192056 -0.6049,-0.817987 z m 0.38871,-2.593399 c -0.18825,-0.294959 -0.20347,-0.275878 -0.11121,0.139442 0.0588,0.264642 0.12105,0.654388 0.13837,0.866103 0.0205,0.250892 0.0592,0.202336 0.11121,-0.139443 0.0438,-0.288408 -0.0184,-0.678153 -0.13837,-0.866102 z m -8.62258,2.862995 c -0.18703,-0.118475 -0.19888,-0.286689 -0.0481,-0.683029 0.11,-0.289215 0.2,-0.737909 0.2,-0.997096 0,-0.259187 0.0847,-0.621643 0.18811,-0.805456 0.10346,-0.183813 0.27685,-0.690269 0.3853,-1.125459 0.17472,-0.701126 0.25131,-0.780909 0.67243,-0.700438 0.54995,0.105091 0.95893,0.52187 0.78622,0.801218 -0.0655,0.105872 -0.23798,0.146861 -0.38337,0.09109 -0.40763,-0.156362 -0.63014,1.085023 -0.2342,1.306526 0.37635,0.210534 0.20074,0.736365 -0.24591,0.736365 -0.21999,0 -0.39016,0.236459 -0.50888,0.707133 -0.18864,0.74791 -0.40528,0.926538 -0.81156,0.669149 z m 11.08404,-2.001801 c -0.46327,-0.87332 -0.96695,-1.587855 -1.1193,-1.587855 -0.15235,0 -0.30591,-0.150077 -0.34124,-0.333505 -0.088,-0.45678 1.20843,-1.096519 1.54344,-0.76163 0.17699,0.176928 0.17705,0.281083 2.5e-4,0.457819 -0.1768,0.176736 -0.0287,0.598875 0.65102,1.855532 0.68652,1.269245 0.82355,1.662441 0.62357,1.789171 -0.43375,0.274866 -0.49027,0.21577 -1.35774,-1.419532 z m -14.8527,0.227037 -0.50677,-0.398481 0.48081,-0.630138 c 0.26444,-0.346577 0.4808,-0.738784 0.4808,-0.87157 0,-0.132787 0.24233,-0.471053 0.5385,-0.751701 0.29618,-0.280649 0.67777,-0.712575 0.84799,-0.959835 0.30076,-0.436897 0.32381,-0.44018 0.81801,-0.116484 0.59434,0.389287 0.58373,0.978488 -0.0161,0.895351 -0.44748,-0.06202 -1.16899,0.815089 -0.83846,1.019289 0.10472,0.06469 0.19039,0.251822 0.19039,0.415835 0,0.214374 -0.1235,0.267221 -0.43932,0.187984 -0.55917,-0.14029 -1.05874,0.521647 -0.71038,0.941247 0.22006,0.26506 0.10951,0.666985 -0.18346,0.666985 -0.0854,0 -0.38325,-0.179317 -0.66198,-0.398482 z m 17.25375,-0.678567 c -0.45006,-0.476575 -0.81828,-0.933435 -0.81828,-1.015243 0,-0.08181 -0.25019,-0.484157 -0.55596,-0.894106 l -0.55596,-0.745364 0.46535,-0.365912 c 0.25594,-0.201251 0.59277,-0.317037 0.7485,-0.257299 0.32495,0.124649 0.37181,0.428129 0.0927,0.600541 -0.2841,0.175519 0.37887,1.084467 0.74695,1.024092 0.50272,-0.08246 0.84749,0.217281 0.59697,0.51902 -0.33798,0.407092 0.16257,1.087007 0.62006,0.842253 0.58155,-0.311123 0.69542,0.380334 0.13372,0.812013 -0.2548,0.195814 -0.50659,0.353884 -0.55954,0.351266 -0.0529,-0.0027 -0.46449,-0.394686 -0.91455,-0.871261 z m -19.03728,-0.858639 c -0.20584,-0.07612 -0.48775,-0.275098 -0.62646,-0.442179 -0.21822,-0.262837 -0.0361,-0.508831 1.35128,-1.824952 1.53737,-1.458439 1.62149,-1.50938 2.03987,-1.235346 0.31355,0.205371 0.43637,0.472248 0.43637,0.948171 0,0.544241 -0.17314,0.828302 -0.97098,1.592983 -0.9964,0.954982 -1.57395,1.20395 -2.23008,0.961323 z m 1.99877,-1.870782 c 0.79686,-1.034545 0.3883,-0.88053 -0.73437,0.276837 -0.92716,0.955821 -0.97312,1.038297 -0.39957,0.71699 0.35646,-0.199689 0.86673,-0.646911 1.13394,-0.993827 z m 19.58963,0.592273 c -0.63537,-0.37497 -1.53285,-0.89696 -1.9944,-1.15998 -0.75242,-0.42877 -0.80879,-0.508594 -0.54527,-0.772017 0.26352,-0.263423 0.3697,-0.246975 1.02697,0.159089 l 0.73306,0.452891 -0.44644,-0.626734 c -0.44395,-0.623242 -0.43292,-1.29418 0.0188,-1.143661 0.29681,0.0989 2.62007,3.235812 2.63804,3.561947 0.0189,0.343549 -0.13636,0.292368 -1.43077,-0.471535 z m 2.13106,-1.68928 c -0.41635,-0.255798 -0.81485,-0.429355 -0.88554,-0.38568 -0.0707,0.04368 -0.30494,-0.123399 -0.52054,-0.371276 -0.21561,-0.247876 -0.66187,-0.610037 -0.9917,-0.804801 -0.69664,-0.411363 -0.74492,-0.657487 -0.22179,-1.130736 0.42003,-0.379984 1.20502,-0.260812 0.81964,0.124431 -0.15779,0.157734 -0.0946,0.308937 0.23884,0.571091 0.49876,0.392175 0.87407,0.462634 0.87407,0.164093 0,-0.23744 0.20177,-0.241625 0.56523,-0.01173 0.20405,0.129072 0.22157,0.241681 0.0669,0.430103 -0.15864,0.193291 -0.0997,0.33732 0.24279,0.593317 0.41731,0.311918 0.46601,0.313549 0.62974,0.02109 0.1935,-0.345642 0.61323,-0.203085 0.61323,0.208281 0,0.140811 -0.15162,0.436217 -0.33694,0.656456 l -0.33692,0.400444 z m -26.5352,0.07885 c -0.8995,-0.530313 -10e-4,-1.772064 1.92779,-2.665359 0.83824,-0.388151 1.08392,-0.428565 1.48758,-0.244711 0.59169,0.269491 0.64903,1.025365 0.11805,1.556148 -0.53098,0.530788 -1.94993,1.311466 -2.61887,1.44085 -0.31768,0.06144 -0.72923,0.02232 -0.91455,-0.08693 z m 1.86541,-1.195385 c 1.23302,-0.668713 1.73491,-1.26964 0.7504,-0.89847 -0.85269,0.321473 -2.1826,1.141041 -2.1826,1.345046 0,0.284248 0.19917,0.222146 1.4322,-0.446576 z m 24.70478,-1.424414 c -1.13838,-0.373613 -2.06978,-0.751578 -2.06978,-0.83992 0,-0.08834 0.38989,-0.21907 0.86642,-0.290504 1.01873,-0.152712 1.10312,-0.347563 0.25576,-0.590495 -0.6485,-0.185918 -0.8204,-0.413346 -0.58836,-0.778401 0.12403,-0.19514 1.93606,0.292312 4.46677,1.2016 0.46151,0.165823 -0.15598,0.459618 -0.97334,0.46311 -0.94406,0.0041 -1.10089,0.237994 -0.33217,0.495534 0.41899,0.140376 0.65808,0.356094 0.69855,0.630285 0.0761,0.515793 0.17144,0.527736 -2.32385,-0.291209 z M 104.7961,85.337803 c -0.16937,-0.327408 -0.2799,-0.623304 -0.24561,-0.657544 0.0343,-0.03425 0.97207,-0.415654 2.08397,-0.847585 1.86037,-0.722681 2.04085,-0.759416 2.26232,-0.460474 0.81973,1.10646 -0.8584,2.560889 -2.95477,2.560889 -0.74193,0 -0.87325,-0.06823 -1.14591,-0.595286 z m 2.88748,-0.663982 c 1.11153,-0.527265 0.77965,-0.67438 -0.44184,-0.195858 -1.66118,0.650775 -1.73373,0.69674 -0.95405,0.604468 0.39169,-0.04636 1.01985,-0.230232 1.39589,-0.40861 z m 2.8825,-0.0061 c -0.0747,-0.398336 -0.0451,-0.771945 0.0703,-0.887364 0.39361,-0.393466 2.48643,-0.72827 4.57078,-0.731224 l 2.1227,-0.003 1.00522,-0.973692 c 0.55287,-0.53553 1.0521,-1.206759 1.1094,-1.49162 0.32872,-1.634201 0.94984,-2.207462 2.63074,-2.428019 0.73556,-0.09651 1.18276,-0.285627 1.59881,-0.676097 0.31769,-0.298156 0.79422,-0.589543 1.05896,-0.647525 0.26474,-0.05799 1.07104,-0.321819 1.79179,-0.586296 1.01519,-0.372528 1.49237,-0.68628 2.11791,-1.392554 0.97147,-1.096852 1.03962,-1.256564 1.19886,-2.809876 0.0686,-0.668791 0.2589,-1.716373 0.42297,-2.32796 0.27999,-1.043693 0.27597,-1.161495 -0.0655,-1.918437 -0.52935,-1.173456 -0.4766,-2.408848 0.1428,-3.344479 l 0.50659,-0.765233 -0.34815,-0.916842 c -0.19149,-0.504264 -0.40842,-1.479352 -0.48207,-2.166863 -0.15391,-1.436618 -0.60017,-1.914964 -1.64369,-1.761864 -0.52065,0.07638 -0.65307,-0.0046 -1.05932,-0.647912 -0.25536,-0.404367 -0.46429,-0.818237 -0.46429,-0.919711 0,-0.271581 1.59971,-0.464217 2.60436,-0.313616 0.63629,0.09538 1.07118,0.322059 1.61128,0.83984 0.62783,0.601885 0.75972,0.872361 0.87163,1.787547 0.15336,1.254015 0.52698,2.573405 0.97275,3.435116 0.30623,0.591964 0.2993,0.631512 -0.27366,1.562352 -0.68595,1.114395 -0.74528,1.939774 -0.20333,2.828323 0.37987,0.622807 0.37999,0.639698 0.0149,2.020905 -0.20248,0.766067 -0.42367,1.825899 -0.49155,2.355184 -0.28087,2.190295 -0.65624,3.066091 -1.83809,4.288501 -0.89782,0.928643 -1.33274,1.222486 -2.16917,1.465554 -0.5754,0.167214 -1.29637,0.43445 -1.60215,0.593858 -0.30577,0.159408 -0.70558,0.290366 -0.88846,0.291019 -0.18287,6.52e-4 -0.46819,0.208197 -0.63403,0.461211 -0.23632,0.360543 -0.53915,0.488764 -1.40034,0.592914 -1.41151,0.170706 -1.89399,0.49318 -2.18359,1.459439 -0.16692,0.556925 -0.70168,1.254226 -1.85954,2.424762 -1.43324,1.448934 -1.68513,1.628177 -2.13225,1.517293 -0.27886,-0.06916 -1.24347,-0.172854 -2.14358,-0.230439 -1.34668,-0.08616 -1.84865,-0.03301 -2.83386,0.300062 -0.65851,0.222619 -1.28273,0.404761 -1.38717,0.404761 -0.10444,0 -0.24799,-0.309606 -0.31901,-0.688012 z m -6.30035,-0.996075 c -0.0446,-0.07939 -0.13649,-0.376638 -0.20429,-0.660545 -0.0939,-0.393029 -0.0428,-0.540378 0.21406,-0.617551 0.321,-0.09645 4.08107,-0.88716 4.21874,-0.88716 0.0361,0 0.0656,0.169882 0.0656,0.377516 0,0.395208 -0.2068,0.473018 -2.55112,0.959901 -0.88549,0.183903 -1.1071,0.304215 -1.1071,0.601058 0,0.356933 -0.46898,0.524188 -0.63589,0.226781 z m 31.15311,-0.647377 c -1.2156,-0.381426 -2.46343,-0.555633 -2.68186,-0.374414 -0.43734,0.362823 -0.76786,-0.09538 -0.56894,-0.788719 0.18083,-0.63028 0.84408,-1.024326 0.84408,-0.501478 0,0.25666 0.34782,0.36959 2.85204,0.92599 0.76748,0.170523 0.99587,0.297791 0.91456,0.509622 -0.0596,0.155286 -0.10839,0.318563 -0.10839,0.362833 0,0.129259 -0.62655,0.06225 -1.25149,-0.133834 z M 110.29019,82.17345 c -0.0863,-0.226994 -0.30715,-1.877367 -0.49069,-3.667497 -0.40538,-3.953642 -0.46857,-13.668349 -0.10631,-16.34292 0.20284,-1.497547 0.19395,-1.830009 -0.0655,-2.450838 l -0.30022,-0.718262 0.69621,-0.290791 c 0.38292,-0.159934 1.79143,-0.525021 3.13002,-0.811301 2.13148,-0.455854 2.87625,-0.521727 5.99575,-0.530312 2.87645,-0.0079 3.83985,0.06011 5.00598,0.35342 1.92622,0.48451 2.0791,0.58153 2.23631,1.419221 0.20146,1.073473 -0.28005,4.590865 -0.73366,5.359408 -0.27653,0.468513 -0.34359,0.809805 -0.24619,1.253084 0.11726,0.533668 0.0486,0.687228 -0.55334,1.238524 -0.37796,0.346127 -0.7482,0.875199 -0.82275,1.175713 -0.0746,0.300514 -0.33532,0.849634 -0.57947,1.220269 -0.24416,0.370634 -0.61043,1.157675 -0.81394,1.748981 -0.41322,1.200586 -0.91206,2.242582 -1.28184,2.677518 -0.135,0.158785 -0.39448,0.981583 -0.57664,1.828438 -0.72221,3.357576 -2.22496,5.305557 -4.68554,6.073732 -0.70456,0.219958 -2.2643,0.507114 -3.46609,0.638125 -2.16218,0.235705 -2.18672,0.233876 -2.34205,-0.174512 z m 3.71298,-2.027306 c 1.15857,-0.22352 2.66553,-0.980176 3.3256,-1.669819 0.70442,-0.735962 1.1359,-1.811663 1.43275,-3.571904 0.18029,-1.06907 0.3989,-1.684795 0.759,-2.137756 0.27818,-0.349914 0.75435,-1.363115 1.05817,-2.251558 0.30382,-0.888443 0.75634,-1.891057 1.00559,-2.228029 0.24926,-0.336972 0.45319,-0.800232 0.45319,-1.029466 0,-0.229235 0.25993,-0.659509 0.57762,-0.956163 0.43032,-0.401841 0.57761,-0.712226 0.57761,-1.217257 0,-0.441155 0.16706,-0.876348 0.47839,-1.246204 0.39561,-0.469991 0.50021,-0.852177 0.60453,-2.208906 l 0.12616,-1.640583 -1.13402,-0.253016 c -0.71935,-0.160496 -2.33088,-0.245435 -4.40716,-0.232286 -2.76238,0.0175 -3.5583,0.09228 -5.10057,0.479286 l -1.82743,0.458558 -0.17006,0.957414 c -0.22157,1.247388 -0.26615,14.84053 -0.0566,17.260728 l 0.16175,1.868275 0.6084,-0.102036 c 0.33462,-0.05612 1.02182,-0.181795 1.5271,-0.279278 z m -10.37479,1.084245 c -0.0672,-0.17492 -0.0715,-0.36862 -0.01,-0.430442 0.0619,-0.06182 1.07335,-0.250931 2.24778,-0.420242 1.87351,-0.270091 2.15676,-0.273188 2.31005,-0.02525 0.24997,0.404311 0.0837,0.479818 -1.63837,0.744079 -0.84716,0.130003 -1.82097,0.284413 -2.16401,0.343135 -0.46927,0.08034 -0.65395,0.02802 -0.7458,-0.211275 z m 30.5871,-0.438323 c -1.54786,-0.06933 -1.58844,-0.08347 -1.58844,-0.553254 0,-0.435528 0.0605,-0.472721 0.62575,-0.384974 1.60151,0.248598 3.225,0.323534 3.225,0.148859 0,-0.102864 -0.86641,-0.249017 -1.92537,-0.324783 -1.76294,-0.126133 -1.92538,-0.1708 -1.92538,-0.529442 0,-0.377108 0.0729,-0.386667 1.95881,-0.256826 2.19068,0.150826 2.66343,0.317479 2.65915,0.937391 -0.007,0.955644 -0.40033,1.080799 -3.02952,0.963029 z m -30.74225,-1.246479 c -0.16745,-0.23897 -0.30444,-0.617623 -0.30444,-0.841455 0,-0.37517 0.1617,-0.424472 2.06978,-0.631087 1.13837,-0.123268 2.17808,-0.223998 2.31045,-0.223845 0.33975,3.92e-4 0.31032,1.435094 -0.0353,1.721844 -0.15179,0.125931 -1.05449,0.269479 -2.00601,0.318998 -1.62885,0.08476 -1.74783,0.06462 -2.03446,-0.344455 z m 1.62093,-0.514617 c 0,-0.09117 -0.2166,-0.124386 -0.48134,-0.0738 -0.26474,0.0506 -0.48135,0.125189 -0.48135,0.165778 0,0.04058 0.21661,0.0738 0.48135,0.0738 0.26474,0 0.48134,-0.0746 0.48134,-0.165778 z m 1.94994,-0.15896 c 0.23261,-0.285862 0.22202,-0.308902 -0.0884,-0.192467 -0.19398,0.07275 -0.524,0.13227 -0.73338,0.13227 -0.20938,0 -0.32715,0.08662 -0.2617,0.192468 0.18567,0.300312 0.79171,0.226331 1.08352,-0.132271 z m 27.70086,-0.83876 c -1.11191,-0.07513 -2.04331,-0.147218 -2.06978,-0.160189 -0.0265,-0.01297 -0.0481,-0.281417 -0.0481,-0.596548 0,-0.816247 0.69938,-1.239293 1.77842,-1.075748 1.1391,0.172651 1.7051,0.197179 2.26013,0.09795 0.64813,-0.115876 0.81581,0.563437 0.18009,0.729621 l -0.43576,0.113912 0.41901,0.154946 c 0.44277,0.163729 0.59998,0.961491 0.17834,0.90494 -0.13237,-0.01775 -1.15041,-0.09375 -2.26231,-0.168883 z m 0.0963,-0.953642 c -0.0654,-0.105856 -0.3738,-0.192467 -0.68524,-0.192467 -0.31144,0 -0.56625,0.08662 -0.56625,0.192467 0,0.105858 0.30836,0.192468 0.68524,0.192468 0.40781,0 0.63707,-0.07793 0.56625,-0.192468 z m -31.67243,-0.08516 c 0,-0.294297 0.0825,-0.463991 0.19253,-0.396011 0.1059,0.06542 0.19254,-0.01608 0.19254,-0.181109 0,-0.165033 -0.0866,-0.300059 -0.19254,-0.300059 -0.10589,0 -0.19253,-0.202091 -0.19253,-0.449091 0,-0.489039 0.39827,-0.606082 1.05895,-0.311204 0.21179,0.09453 1.07298,0.331874 1.91375,0.527437 0.84077,0.195563 1.55688,0.440167 1.59136,0.543565 0.0345,0.103399 -0.74007,0.340674 -1.72121,0.527281 -0.98114,0.186607 -2.02216,0.387632 -2.31338,0.446721 -0.47246,0.09587 -0.52947,0.05198 -0.52947,-0.40753 z m 31.43176,-1.710064 c -1.08543,-0.104932 -1.97351,-0.246362 -1.97351,-0.314292 0,-0.06792 0.95592,-0.501644 2.12427,-0.96381 1.5731,-0.622276 2.18045,-0.784141 2.3408,-0.623851 0.16035,0.16029 0.14857,0.298307 -0.0454,0.531934 -0.22388,0.269651 -0.2143,0.34213 0.0659,0.498889 0.58882,0.329404 0.24099,1.25793 -0.40992,1.094264 -0.0708,-0.01779 -1.01674,-0.118203 -2.10217,-0.223134 z m -31.43176,-1.242757 c 0,-0.78694 0.80836,-1.196299 2.36232,-1.196299 0.96694,0 1.35693,0.08884 1.75127,0.398902 0.55849,0.439146 0.70502,1.333302 0.2185,1.333302 -0.15884,0 -0.2888,-0.126869 -0.2888,-0.28193 0,-0.434337 -0.64306,-0.680699 -1.76832,-0.677459 -1.11064,0.0032 -1.37063,0.10689 -1.56096,0.62257 -0.2039,0.552449 -0.71401,0.410217 -0.71401,-0.199086 z m 6.64254,-16.668281 c -1.19909,-0.523156 -2.72763,-2.659839 -2.51334,-3.513308 0.28103,-1.11933 1.73623,-1.017561 2.33476,0.163281 0.84227,1.661706 1.55319,1.743194 2.90358,0.332816 1.50573,-1.572624 2.73959,-2.29726 3.91161,-2.29726 0.54326,0 1.22172,0.122526 1.50767,0.27228 0.58065,0.304087 1.53159,1.280998 2.02998,2.085442 0.18036,0.291107 0.44811,0.529285 0.595,0.529285 0.14689,0 0.69256,-0.336198 1.21259,-0.747109 1.50667,-1.190521 2.24107,-1.490212 3.43065,-1.399963 0.217,0.01647 1.11103,0.503862 1.98673,1.083107 1.63888,1.084064 2.54761,1.44596 3.63551,1.447825 0.93475,0.0016 0.75487,0.343066 -0.26095,0.495342 -1.49405,0.223965 -2.99602,-0.01202 -4.23642,-0.665599 -1.60559,-0.846009 -1.99047,-0.794615 -3.66799,0.489787 -1.22683,0.939335 -1.54164,1.09084 -2.29952,1.106687 -0.94814,0.01982 -0.76807,0.161872 -2.64111,-2.083313 -1.08279,-1.297919 -1.405,-1.227824 -3.32676,0.723731 -2.14074,2.173927 -3.15342,2.608967 -4.60199,1.976969 z"
     id="path5" /><path
     style="fill:#000000;stroke-width:1.06304"
     d="m 176.77283,95.217525 c -1.97671,-0.316686 -4.07738,-0.9309 -6.17249,-1.804762 l -1.8824,-0.785141 V 81.355565 70.083506 h 11.90838 11.90835 l -0.0451,11.257577 -0.045,11.257576 -1.31329,0.577268 c -3.52061,1.547507 -7.0213,2.29052 -10.68148,2.267115 -1.30018,-0.0083 -2.95492,-0.1098 -3.67725,-0.225517 z m 6.30816,-4.514473 c -1.42866,-1.378761 -2.12841,-1.895605 -2.56645,-1.895605 -0.47336,0 -1.28057,0.596727 -2.52654,1.867727 l -0.89961,0.917653 h 3.45731 3.45729 z m -4.9159,-5.617882 c -1.55367,-1.523024 -2.06298,-1.796822 -2.74932,-1.478009 -0.4431,0.205811 -0.77562,0.49241 -2.48776,2.144105 l -0.60154,0.580289 h 3.55503 3.55504 z m 10.18989,0.82084 c -0.559,-0.681718 -2.53188,-2.319273 -2.91438,-2.419011 -0.20109,-0.05243 -0.55591,0.02806 -0.83323,0.189045 -0.44978,0.261059 -2.75646,2.422819 -2.75646,2.583262 0,0.03974 1.54193,0.07225 3.42651,0.07225 h 3.42649 z m -9.15984,-4.986512 c -0.032,-0.08292 -0.68147,-0.709641 -1.44306,-1.392689 -1.84804,-1.657505 -1.96451,-1.656439 -3.79551,0.03472 -0.76021,0.702147 -1.38312,1.328857 -1.38425,1.392689 -8.5e-4,0.06383 1.50168,0.11606 3.33957,0.11606 2.09243,0 3.31979,-0.05637 3.28325,-0.150783 z m 8.42996,-0.936729 c -1.33666,-1.332365 -1.8484,-1.697867 -2.37715,-1.697867 -0.47861,0 -1.28221,0.592743 -2.53211,1.867727 l -0.89958,0.917652 h 3.44994 3.44993 z m -9.46001,-5.265401 c -1.56231,-1.531481 -2.05992,-1.796676 -2.76595,-1.474035 -0.27398,0.125212 -1.0703,0.788524 -1.76961,1.474035 l -1.27145,1.246385 h 3.53922 3.53924 z m 10.18989,0.82084 c -0.1919,-0.234049 -0.85943,-0.869464 -1.48335,-1.412033 -1.59191,-1.384332 -1.85326,-1.353021 -3.71367,0.444888 -1.59634,1.542733 -1.82237,1.39269 2.09802,1.39269 h 3.44793 z m -16.83392,-7.309148 -0.70293,-1.235475 1.00741,-0.448147 c 1.34393,-0.597849 4.0201,-1.338782 5.68121,-1.572907 2.09237,-0.294912 5.96605,-0.122584 8.03431,0.357428 1.51964,0.352686 3.88874,1.134358 4.53018,1.494704 0.21179,0.118978 0.15247,0.33921 -0.36426,1.352312 -0.38362,0.752175 -0.71133,1.198999 -0.86587,1.180626 -0.13662,-0.01626 -0.95779,-0.271968 -1.82455,-0.568242 -2.48834,-0.850539 -4.09656,-1.077778 -6.98711,-0.987255 -2.59849,0.08138 -4.2165,0.395118 -6.58945,1.277734 -0.56884,0.211582 -1.07516,0.384696 -1.12515,0.384696 -0.05,0 -0.40719,-0.555964 -0.79379,-1.235474 z m -2.00177,-3.145465 c -0.94345,-1.093085 -1.23888,-1.930584 -1.23849,-3.51097 4e-4,-1.703309 0.29638,-2.36466 1.53285,-3.425071 1.16733,-1.001115 2.16545,-1.371972 3.69246,-1.371972 0.9955,0 1.35364,-0.05979 1.538,-0.25674 0.80184,-0.856616 3.1772,-1.225927 4.78411,-0.743811 0.68328,0.205004 0.85733,0.207982 1.27565,0.02183 1.26689,-0.563791 2.91314,-0.407088 4.47939,0.426386 0.81412,0.433222 1.16951,0.521473 2.34145,0.581426 2.31863,0.118609 3.8464,1.07966 4.62767,2.911034 0.53262,1.248544 0.41396,3.460767 -0.24637,4.592841 -0.25717,0.440896 -0.63444,0.904906 -0.83836,1.031132 -0.3392,0.209957 -0.4774,0.18436 -1.62296,-0.300578 -1.20089,-0.508365 -1.64205,-0.83584 -1.12602,-0.83584 0.28654,0 1.22588,-0.84399 1.54106,-1.384648 0.35303,-0.60557 0.29848,-1.876212 -0.10689,-2.489579 -0.3459,-0.523401 -1.33434,-1.232478 -1.71754,-1.232123 -0.12741,1.19e-4 -0.19298,0.513122 -0.19298,1.508748 0,1.377443 -0.0445,1.579413 -0.51103,2.323638 -0.28105,0.448289 -0.59672,0.877936 -0.70148,0.954771 -0.19443,0.14259 -3.60882,-0.424262 -3.59658,-0.597095 0.003,-0.04925 0.33827,-0.228812 0.74395,-0.39903 1.11096,-0.466137 1.52609,-1.128847 1.52609,-2.436215 0,-1.801466 -0.70441,-2.438198 -2.6974,-2.438198 h -1.15494 l -0.001,1.818234 c -8.5e-4,1.000027 -0.0513,2.183814 -0.11195,2.630636 l -0.11046,0.812402 h -1.11379 -1.1138 v -2.630636 -2.630636 h -1.06795 c -1.25817,0 -2.17357,0.333464 -2.51443,0.915987 -0.86568,1.479385 -0.18958,3.431763 1.42744,4.122024 l 0.66654,0.284521 -1.22575,0.255204 c -2.53521,0.527837 -2.39398,0.537564 -2.91661,-0.200881 -0.68234,-0.964078 -0.89752,-1.778885 -0.82143,-3.110514 0.0644,-1.126516 0.0511,-1.176828 -0.28606,-1.084555 -1.16882,0.31988 -1.90785,1.270737 -1.90785,2.45468 0,0.971671 0.40935,1.671679 1.29347,2.211898 0.37691,0.230307 0.6883,0.457089 0.69195,0.503962 0.006,0.08514 -1.15852,0.619734 -2.21786,1.017574 -0.54333,0.204056 -0.57482,0.194629 -1.0016,-0.299834 z m 10.40547,-10.861277 v -0.696345 h -0.70044 -0.70041 V 52.907 52.288026 h 0.70041 0.70044 v -0.696344 -0.696345 h 0.70041 0.70045 v 0.696345 0.696344 h 0.78796 0.78797 V 52.907 53.525973 h -0.78797 -0.78796 v 0.696345 0.696344 h -0.70045 -0.70041 z"
     id="path6" /><path
     style="fill:#000000;stroke-width:0.299591"
     d="m 235.56074,96.78238 c 0,-0.187341 0.0189,-0.214591 0.14871,-0.214591 0.0818,0 0.17739,-0.03867 0.21244,-0.08586 0.074,-0.09978 0.0858,-0.343345 0.0165,-0.343345 -0.026,0 -0.0639,-0.119617 -0.0842,-0.265824 -0.0203,-0.146206 -0.0854,-0.35729 -0.14448,-0.469073 -0.0591,-0.111784 -0.0936,-0.221904 -0.0767,-0.244706 0.0169,-0.02284 -0.018,-0.133663 -0.0776,-0.246368 -0.0596,-0.112695 -0.10071,-0.277275 -0.0914,-0.365726 0.0137,-0.129235 0.0562,-0.16519 0.21669,-0.183073 0.24007,-0.02675 0.33676,0.08355 0.38656,0.441163 0.02,0.143351 0.0546,0.260634 0.0768,0.260634 0.0223,0 0.0578,0.104611 0.0787,0.232484 0.0226,0.1376 0.0487,0.188683 0.064,0.125177 0.0142,-0.05901 0.0396,-0.155583 0.0565,-0.2146 0.0169,-0.05901 0.0263,-0.145104 0.0209,-0.191308 -0.005,-0.04618 0.0147,-0.104451 0.0448,-0.129406 0.03,-0.02495 0.0545,-0.107866 0.0545,-0.184225 0,-0.07634 0.0239,-0.138843 0.0531,-0.138843 0.0292,0 0.0531,-0.04829 0.0531,-0.107295 0,-0.08105 0.0649,-0.107296 0.26555,-0.107296 0.23015,0 0.26555,0.01904 0.26555,0.143061 0,0.07864 -0.025,0.14306 -0.0555,0.14306 -0.0305,0 -0.0518,0.04027 -0.0474,0.08946 0.0121,0.133834 -0.0629,0.411299 -0.11118,0.411299 -0.0232,0 -0.0584,0.128764 -0.0782,0.28613 -0.0198,0.157367 -0.055,0.286121 -0.0785,0.286121 -0.0234,0 -0.0582,0.112665 -0.0774,0.250366 -0.0191,0.13769 -0.0577,0.250356 -0.0856,0.250356 -0.0279,0 -0.0507,0.03777 -0.0507,0.08385 0,0.187491 -0.19285,0.624046 -0.2921,0.661234 -0.0584,0.02184 -0.2317,0.04027 -0.38505,0.04077 -0.27457,9.01e-4 -0.27884,-0.002 -0.27884,-0.213619 z m 1.97945,-0.404857 c -0.0651,-0.01863 -0.1667,-0.125238 -0.22572,-0.236871 -0.0922,-0.174327 -0.10731,-0.314943 -0.10731,-0.996654 v -0.793685 h 0.239 0.23899 v 0.460729 c 0,0.256807 0.0258,0.482178 0.0582,0.509167 0.032,0.02665 0.0486,0.158869 0.0369,0.293845 -0.0204,0.235829 -0.0149,0.244565 0.14097,0.224027 l 0.16226,-0.02134 0.0265,-0.715311 0.0266,-0.715322 h 0.26554 0.26555 v 0.965677 0.965678 l -0.22571,0.02204 c -0.18404,0.01793 -0.22573,-6.71e-4 -0.22573,-0.100503 0,-0.11526 -0.006,-0.11532 -0.0996,-0.001 -0.10595,0.129135 -0.38067,0.195696 -0.57645,0.139654 z m 3.44361,-0.004 c -0.2297,-0.122633 -0.27136,-0.254553 -0.27136,-0.859314 0,-0.478631 -0.0153,-0.592108 -0.0796,-0.592108 -0.0575,0 -0.0797,-0.07944 -0.0797,-0.286131 0,-0.206646 0.0221,-0.28613 0.0797,-0.28613 0.0439,0 0.0796,-0.06342 0.0796,-0.141267 0,-0.09778 0.0727,-0.185889 0.23608,-0.286131 0.12985,-0.07964 0.24935,-0.144844 0.26556,-0.144844 0.0162,0 0.0295,0.12651 0.0295,0.281142 0,0.237111 0.0187,0.284738 0.1195,0.304013 0.096,0.01833 0.12274,0.07564 0.13599,0.2911 0.0151,0.245908 0.005,0.268248 -0.1195,0.268248 -0.1321,0 -0.13599,0.01342 -0.13599,0.469765 0,0.454387 0.004,0.468112 0.1193,0.418782 0.12795,-0.0547 0.24804,-0.228626 0.25079,-0.363221 0.002,-0.104881 0.46776,-0.323048 0.50699,-0.237552 0.0412,0.08986 0.18513,0.002 0.18513,-0.112385 0,-0.157947 -0.10687,-0.196778 -0.20669,-0.07514 -0.10837,0.13209 -0.23504,0.145474 -0.38101,0.04027 -0.30587,-0.220461 0.0939,-0.712797 0.57882,-0.712797 0.28605,0 0.5931,0.169368 0.5931,0.327135 0,0.0561 0.0239,0.102056 0.0531,0.102056 0.0316,0 0.0531,0.272796 0.0531,0.675329 0,0.380282 0.0235,0.694955 0.054,0.720261 0.0297,0.02474 0.0403,0.07484 0.0234,0.111513 -0.0429,0.09367 -0.4687,0.08325 -0.54029,-0.01322 -0.0436,-0.05871 -0.0916,-0.04929 -0.18178,0.03576 -0.0674,0.06352 -0.18425,0.11558 -0.2597,0.11558 -0.15331,0 -0.48359,-0.297571 -0.53915,-0.485744 -0.0243,-0.08255 -0.0373,-0.04628 -0.0398,0.111974 -0.003,0.183263 -0.0333,0.249424 -0.13996,0.304003 -0.1471,0.07534 -0.27218,0.08145 -0.38907,0.01904 z m 1.32195,-0.633042 c 0,-0.06131 -0.0243,-0.09127 -0.054,-0.06662 -0.0297,0.02475 -0.0403,0.07494 -0.0235,0.111513 0.0456,0.09918 0.0774,0.08075 0.0774,-0.04488 z m 4.74405,0.63217 c -0.0928,-0.01553 -0.19726,-0.07464 -0.23222,-0.131359 -0.035,-0.0567 -0.0965,-0.103158 -0.13673,-0.103158 -0.0403,0 -0.0731,-0.04829 -0.0731,-0.107305 0,-0.05901 -0.0239,-0.107295 -0.0531,-0.107295 -0.0292,0 -0.0531,-0.06251 -0.0531,-0.138843 0,-0.07634 -0.021,-0.156384 -0.0468,-0.177813 -0.0268,-0.02224 -0.0243,-0.181431 0.005,-0.371246 0.0538,-0.339959 0.26806,-0.742722 0.39505,-0.742722 0.039,0 0.0709,-0.03216 0.0709,-0.07153 0,-0.08215 0.51315,-0.09918 0.53995,-0.01793 0.01,0.02945 0.0894,0.104901 0.17704,0.167535 0.0876,0.06261 0.15335,0.151155 0.14606,0.196708 -0.007,0.04558 0.0106,0.08285 0.0398,0.08285 0.0292,0 0.0531,0.06251 0.0531,0.138843 0,0.07634 0.0243,0.159119 0.0541,0.183894 0.0297,0.02474 0.0477,0.176281 0.0398,0.336693 -0.0107,0.218418 -0.0609,0.359434 -0.20017,0.561592 -0.19327,0.280671 -0.38154,0.358713 -0.72631,0.301068 z m 0.35454,-0.63217 c 0,-0.06131 -0.0243,-0.09127 -0.054,-0.06662 -0.0297,0.02475 -0.0403,0.07494 -0.0235,0.111513 0.0456,0.09918 0.0774,0.08075 0.0774,-0.04488 z m 0.0302,-0.611794 c 0.0527,-0.114669 -0.0842,-0.211104 -0.26878,-0.189465 -0.10215,0.01202 -0.16519,0.06332 -0.17651,0.143822 -0.0144,0.102366 0.0212,0.125178 0.19559,0.125178 0.11726,0 0.22963,-0.03576 0.2497,-0.07954 z m 2.66512,1.246258 c -0.0511,-0.01793 -0.0929,-0.07864 -0.0929,-0.134765 0,-0.0561 -0.0239,-0.102046 -0.0531,-0.102046 -0.0313,0 -0.0531,-0.250365 -0.0531,-0.608016 0,-0.492777 -0.0151,-0.608017 -0.0797,-0.608017 -0.0575,0 -0.0797,-0.07944 -0.0797,-0.286131 0,-0.206646 0.0221,-0.28613 0.0797,-0.28613 0.0438,0 0.0797,-0.06221 0.0797,-0.138242 0,-0.08075 0.0497,-0.15911 0.11949,-0.188463 0.0657,-0.02765 0.13169,-0.07554 0.14658,-0.106454 0.0149,-0.03096 0.0954,-0.07934 0.1789,-0.107525 0.15081,-0.05099 0.15166,-0.04939 0.13084,0.244685 -0.0191,0.268569 -0.01,0.295999 0.0999,0.295999 0.10564,0 0.1209,0.03606 0.1209,0.28613 0,0.234187 -0.0184,0.286131 -0.10169,0.286131 -0.088,0 -0.10408,0.06301 -0.1195,0.468373 -0.0173,0.454958 -0.0144,0.46721 0.1017,0.427818 0.10864,-0.03687 0.11949,-0.01523 0.11949,0.238605 0,0.229016 -0.0215,0.286892 -0.11949,0.322276 -0.1323,0.04779 -0.33544,0.04598 -0.478,-0.004 z m 1.23947,2.21e-4 c -0.0705,-0.01954 -0.15995,-0.07844 -0.19887,-0.130828 -0.0389,-0.0524 -0.13417,-0.162486 -0.21167,-0.244595 -0.2142,-0.226923 -0.24002,-0.766305 -0.0547,-1.143412 0.0911,-0.185357 0.19154,-0.295287 0.29889,-0.327035 0.089,-0.02635 0.16173,-0.07744 0.16173,-0.113697 0,-0.03617 0.11949,-0.06582 0.26555,-0.06582 0.14605,0 0.26555,0.03216 0.26555,0.07153 0,0.03937 0.0298,0.07253 0.0664,0.07373 0.0365,10e-4 0.13716,0.08606 0.22366,0.188393 0.13701,0.162155 0.16003,0.244765 0.17879,0.641377 0.0249,0.525727 -0.0473,0.733605 -0.31769,0.915276 -0.1931,0.129736 -0.48611,0.188142 -0.67759,0.135046 z m 0.35384,-0.568335 c 0.0678,-0.02444 0.11949,-0.09878 0.11949,-0.171892 0,-0.07083 0.0298,-0.145084 0.0664,-0.165041 0.0471,-0.02575 0.0494,-0.0535 0.008,-0.09537 -0.032,-0.03246 -0.0743,-0.147619 -0.094,-0.255806 -0.0279,-0.153049 -0.067,-0.196708 -0.17661,-0.196708 -0.29484,0 -0.4491,0.498628 -0.24721,0.799094 0.0946,0.140777 0.13878,0.152478 0.32372,0.08576 z m -18.17848,0.277566 c 0.0203,-0.147539 0.0588,-0.278978 0.0856,-0.292092 0.0268,-0.01312 0.0487,-0.06943 0.0487,-0.125178 0,-0.0557 0.0253,-0.101334 0.0563,-0.101334 0.0309,0 0.0421,-0.03086 0.0247,-0.06862 -0.0312,-0.06792 -0.0191,-0.111874 0.15042,-0.550432 0.048,-0.124096 0.0873,-0.276994 0.0873,-0.339778 0,-0.06282 0.0228,-0.114138 0.0507,-0.114138 0.0279,0 0.0664,-0.112665 0.0856,-0.250356 0.0191,-0.1377 0.0561,-0.250365 0.082,-0.250365 0.026,0 0.0472,-0.04829 0.0472,-0.107296 0,-0.08325 0.0704,-0.107295 0.31444,-0.107295 0.31167,0 0.31477,0.002 0.35189,0.232473 0.0206,0.127863 0.0524,0.248572 0.0706,0.268248 0.0756,0.08155 0.16727,0.368411 0.13804,0.432097 -0.0173,0.03777 -0.006,0.06862 0.0247,0.06862 0.0309,0 0.0563,0.04829 0.0563,0.107295 0,0.05901 0.0213,0.107305 0.0472,0.107305 0.026,0 0.0629,0.112655 0.0821,0.250356 0.0192,0.137701 0.0577,0.250356 0.0855,0.250356 0.0279,0 0.0507,0.05139 0.0507,0.114147 0,0.06282 0.0395,0.204042 0.0876,0.313922 0.13799,0.314632 0.0665,0.442255 -0.23314,0.416377 -0.16745,-0.01443 -0.24833,-0.05199 -0.23953,-0.111242 0.007,-0.04919 -0.008,-0.08936 -0.0336,-0.08936 -0.0258,0 -0.0594,-0.06442 -0.0747,-0.14306 -0.0245,-0.12633 -0.0724,-0.14307 -0.40949,-0.14307 -0.33705,0 -0.38497,0.01673 -0.40949,0.14307 -0.0153,0.07864 -0.0489,0.14306 -0.0747,0.14306 -0.0258,0 -0.0469,0.04829 -0.0469,0.107296 0,0.08135 -0.0656,0.107295 -0.27147,0.107295 h -0.27145 z m 1.09024,-0.947795 c 0,-0.169419 -0.0337,-0.179497 -0.13657,-0.04087 -0.10292,0.138622 -0.0954,0.183935 0.0304,0.183935 0.0708,0 0.10622,-0.04769 0.10622,-0.14306 z m 4.35505,0.21467 V 94.34983 h 0.2098 c 0.14362,0 0.22601,0.03897 0.26119,0.123695 0.0487,0.117233 0.0567,0.117233 0.15287,0 0.10066,-0.122694 0.46605,-0.173847 0.5003,-0.07003 0.01,0.02945 0.0894,0.103168 0.17704,0.163688 l 0.15933,0.11004 v 0.819873 0.819872 h -0.26555 -0.26555 l -0.0152,-0.697439 c -0.0146,-0.670801 -0.0198,-0.69743 -0.13543,-0.69743 -0.207,0 -0.2477,0.13165 -0.2477,0.801158 v 0.629476 h -0.26555 -0.26555 z m 4.24882,0 V 94.34983 h 0.21244 c 0.15343,0 0.21244,0.02985 0.21244,0.107295 0,0.05901 0.0329,0.107305 0.0731,0.107305 0.0403,0 0.10292,-0.04829 0.13928,-0.107305 0.0364,-0.05901 0.13013,-0.107295 0.20836,-0.107295 0.15504,0 0.42789,0.147238 0.42855,0.231261 2.2e-4,0.02885 0.0848,-0.01142 0.18792,-0.08936 0.26055,-0.197109 0.47122,-0.18101 0.66436,0.05079 l 0.16052,0.192621 -0.0149,0.790939 -0.0149,0.79093 -0.22572,0.02204 -0.22571,0.02204 V 95.7275 c 0,-0.675219 -0.0404,-0.805266 -0.24962,-0.805266 -0.11933,0 -0.12216,0.01663 -0.12216,0.715312 v 0.715312 h -0.26555 -0.26555 v -0.715312 c 0,-0.698731 -0.003,-0.715312 -0.12216,-0.715312 -0.20904,0 -0.24962,0.130227 -0.24962,0.801149 v 0.629475 h -0.26555 -0.26555 z m 2.55322,-0.289627 0.006,-1.29107 0.2612,0.02134 c 0.14365,0.01172 0.26087,0.04548 0.26049,0.07504 -2.2e-4,0.02945 -6.7e-4,0.600863 -6.7e-4,1.269681 v 1.216033 h -0.26669 -0.26667 z m 2.40921,1.19769 c -0.0146,-0.05139 -0.0199,-0.493969 -0.0116,-0.98356 l 0.015,-0.89018 0.22572,-0.02204 c 0.1702,-0.01663 0.22572,0.004 0.22572,0.08275 0,0.06953 0.0357,0.09217 0.10622,0.06732 0.0584,-0.02054 0.10623,-0.06582 0.10623,-0.100603 0,-0.103899 0.34303,-0.07153 0.52293,0.04939 0.0921,0.06191 0.16749,0.158458 0.16749,0.21459 0,0.0561 0.0239,0.102066 0.0531,0.102066 0.0322,0 0.0531,0.309974 0.0531,0.786842 v 0.786842 h -0.26555 -0.26555 V 95.63744 94.922128 h -0.18588 c -0.15048,0 -0.18589,0.02725 -0.18589,0.143061 0,0.07864 -0.0239,0.14306 -0.0531,0.14306 -0.031,0 -0.0531,0.238444 -0.0531,0.572252 v 0.572251 h -0.21411 c -0.12714,0 -0.22492,-0.03787 -0.24071,-0.09337 z m -17.83881,-0.186499 c -0.0208,-0.04538 -0.0514,-0.322898 -0.0678,-0.616653 -0.0165,-0.293754 -0.0504,-0.534102 -0.0754,-0.534102 -0.0612,0 -0.0582,-0.481586 0.004,-0.53282 0.0268,-0.02234 0.16421,-0.06031 0.30539,-0.08445 0.38537,-0.06602 0.74874,-0.30741 0.78916,-0.524315 0.0184,-0.09918 0.0616,-0.20355 0.0958,-0.232002 0.046,-0.03827 0.0661,-1.068935 0.0772,-3.952824 l 0.015,-3.901111 h 0.98512 0.9851 l -0.0176,3.946183 c -0.0137,3.076369 -0.0323,3.952734 -0.0839,3.975956 -0.0365,0.01643 -0.0664,0.123655 -0.0664,0.238414 0,0.114739 -0.0253,0.20863 -0.0563,0.20863 -0.0309,0 -0.0417,0.03166 -0.024,0.07023 0.0177,0.03867 -0.0287,0.190977 -0.10308,0.338506 -0.0744,0.147528 -0.13533,0.309042 -0.13533,0.358913 0,0.04989 -0.018,0.09067 -0.0401,0.09067 -0.022,0 -0.15946,0.159921 -0.30538,0.355377 -0.14592,0.195456 -0.28455,0.356399 -0.30806,0.357651 -0.0529,0.003 -0.50339,0.26401 -0.64769,0.375503 -0.1505,0.116282 -1.27583,0.169128 -1.32489,0.06221 z m -4.06581,-2.948116 c -0.10223,-0.04108 -0.22361,-0.120179 -0.26973,-0.17585 -0.0461,-0.0557 -0.10587,-0.101946 -0.13278,-0.102857 -0.074,-0.002 -0.42195,-0.445822 -0.46194,-0.588471 -0.0193,-0.06883 -0.057,-0.125188 -0.0837,-0.125188 -0.0534,0 -0.13034,-0.269491 -0.11751,-0.411299 0.004,-0.04919 -0.0169,-0.08936 -0.0474,-0.08936 -0.0346,0 -0.0554,-0.255184 -0.0554,-0.679556 0,-0.424363 0.0208,-0.679547 0.0554,-0.679547 0.0305,0 0.0518,-0.04027 0.0474,-0.08946 -0.0127,-0.139764 0.0638,-0.411309 0.11585,-0.411309 0.0258,0 0.0469,-0.04057 0.0469,-0.09006 0,-0.04959 0.0478,-0.130297 0.10622,-0.179436 0.0584,-0.04909 0.10622,-0.123565 0.10622,-0.165381 0,-0.140907 0.16641,-0.293304 0.736,-0.673977 0.15651,-0.1046 0.37161,-0.20867 0.478,-0.231261 0.10638,-0.02254 0.20759,-0.07003 0.22491,-0.105462 0.0173,-0.03546 0.25034,-0.08345 0.51782,-0.106824 0.26749,-0.02334 0.48634,-0.06983 0.48634,-0.103378 0,-0.03356 0.0717,-0.06091 0.15933,-0.06091 0.10622,0 0.15933,-0.03576 0.15933,-0.107295 0,-0.05901 -0.0222,-0.107296 -0.0494,-0.107296 -0.0271,0 -0.0571,-0.06883 -0.0664,-0.152918 -0.01,-0.08656 -0.0976,-0.213078 -0.20287,-0.291611 -0.16096,-0.120098 -0.26242,-0.134314 -0.75696,-0.106033 -0.3141,0.01793 -0.6009,0.06372 -0.63733,0.101685 -0.0364,0.03797 -0.17977,0.110391 -0.31851,0.160943 -0.13875,0.05059 -0.25228,0.119939 -0.25228,0.154171 0,0.111793 -0.14072,0.06542 -0.2372,-0.07814 -0.0519,-0.07724 -0.0803,-0.189886 -0.063,-0.250366 0.0173,-0.06051 0.008,-0.10996 -0.0201,-0.10996 -0.0283,0 -0.0514,-0.06251 -0.0514,-0.138843 0,-0.07634 -0.0225,-0.157587 -0.05,-0.180498 -0.0819,-0.06812 -0.12918,-0.670932 -0.0613,-0.781132 0.0332,-0.0538 0.1733,-0.138923 0.31149,-0.189275 0.1382,-0.05039 0.27949,-0.12084 0.31398,-0.156645 0.0345,-0.03576 0.19652,-0.08365 0.36005,-0.106413 0.16354,-0.02274 0.31,-0.06893 0.32547,-0.102637 0.0401,-0.08746 1.49514,-0.07774 1.53551,0.01022 0.0181,0.03937 0.0925,0.07153 0.16537,0.07153 0.12505,0 0.53623,0.208369 0.71095,0.360275 0.0438,0.03807 0.12746,0.09828 0.18588,0.133644 0.0584,0.03536 0.14207,0.135847 0.18589,0.223186 0.0439,0.08736 0.10954,0.200845 0.14605,0.252229 0.0365,0.05139 0.0664,0.125228 0.0664,0.164098 0,0.03887 0.0179,0.08145 0.0398,0.09447 0.0219,0.01312 0.0875,0.136509 0.14582,0.274209 0.0982,0.232013 0.10723,0.407502 0.12313,2.39511 0.009,1.179607 0.0369,2.161384 0.061,2.181711 0.0241,0.02034 0.0524,0.334719 0.0627,0.698661 l 0.0189,0.661695 -0.85999,-3.1e-5 -0.86,-4e-5 -0.0163,-0.304003 -0.0164,-0.304013 -0.1195,0.160943 c -0.0657,0.08856 -0.13276,0.160953 -0.14896,0.160953 -0.0162,0 -0.14168,0.07123 -0.27884,0.158218 -0.20914,0.132701 -0.3564,0.161053 -0.91323,0.17584 -0.36513,0.01002 -0.74753,-0.01593 -0.84977,-0.057 z m 1.88763,-1.863201 c 0.10102,-0.123816 0.18367,-0.284328 0.18367,-0.35669 0,-0.07233 0.0179,-0.131639 0.0398,-0.131719 0.0219,-9e-5 0.0398,-0.256046 0.0398,-0.568806 0,-0.359223 -0.0186,-0.543569 -0.0504,-0.500561 -0.0278,0.03747 -0.16654,0.06812 -0.30843,0.06812 -0.39456,0 -0.69029,0.128925 -0.90586,0.394909 -0.1697,0.209381 -0.19579,0.284197 -0.19579,0.561322 0,0.396962 0.14034,0.743633 0.31832,0.786301 0.0732,0.01753 0.25959,0.01853 0.41415,0.002 0.22306,-0.02364 0.31895,-0.07624 0.46472,-0.254924 z m 7.21137,1.897263 c -0.0636,-0.01843 -0.1442,-0.07995 -0.17911,-0.136579 -0.035,-0.0566 -0.0927,-0.102997 -0.1284,-0.102997 -0.0357,0 -0.10819,-0.06442 -0.16106,-0.143061 -0.0528,-0.07874 -0.12827,-0.14307 -0.16756,-0.14307 -0.0393,0 -0.0714,-0.02765 -0.0714,-0.06151 0,-0.03386 -0.0838,-0.18129 -0.18637,-0.327676 -0.1025,-0.146377 -0.17278,-0.295739 -0.15619,-0.331894 0.0166,-0.03617 0.004,-0.06572 -0.0261,-0.06572 -0.0309,0 -0.0563,-0.09658 -0.0563,-0.214591 0,-0.118034 -0.0239,-0.2146 -0.0531,-0.2146 -0.0299,0 -0.0531,-0.202669 -0.0531,-0.464956 0,-0.262278 0.0232,-0.464947 0.0531,-0.464947 0.0292,0 0.0531,-0.09658 0.0531,-0.2146 0,-0.118025 0.0279,-0.214591 0.062,-0.214591 0.0341,0 0.0467,-0.02054 0.0281,-0.04558 -0.0824,-0.111042 0.58555,-1.09893 0.74308,-1.09893 0.0384,0 0.0697,-0.03156 0.0697,-0.07013 0,-0.03857 0.0598,-0.09036 0.13278,-0.115059 0.0731,-0.02464 0.13277,-0.07133 0.13277,-0.103588 0,-0.03226 0.13743,-0.09668 0.30539,-0.143051 0.16796,-0.04638 0.33226,-0.113657 0.36513,-0.149472 0.0329,-0.03577 0.28977,-0.08546 0.57093,-0.110331 0.28116,-0.02484 0.51119,-0.07253 0.51119,-0.105963 0,-0.03336 0.0508,-0.06071 0.11287,-0.06071 0.0968,0 0.10836,-0.03015 0.0813,-0.212357 -0.0173,-0.116792 -0.0861,-0.28579 -0.1527,-0.375543 -0.11362,-0.153039 -0.16377,-0.163177 -0.80717,-0.163177 -0.5016,0 -0.69196,0.02404 -0.70814,0.08936 -0.0122,0.04919 -0.0749,0.08946 -0.13924,0.08946 -0.0644,0 -0.21157,0.06482 -0.327,0.144123 -0.11543,0.07924 -0.2376,0.129786 -0.27149,0.112274 -0.0339,-0.01753 -0.078,-0.162836 -0.0981,-0.322948 -0.02,-0.160101 -0.0569,-0.2911 -0.0817,-0.2911 -0.0249,0 -0.0614,-0.145244 -0.0811,-0.322777 -0.0198,-0.177523 -0.0571,-0.34037 -0.0829,-0.361879 -0.14557,-0.12117 0.0987,-0.36274 0.506,-0.50042 0.0756,-0.02555 0.13746,-0.07203 0.13746,-0.103228 0,-0.03116 0.14344,-0.07914 0.31876,-0.106574 0.17531,-0.02735 0.33207,-0.07884 0.34834,-0.114318 0.038,-0.08275 1.60097,-0.08496 1.63888,-0.002 0.0156,0.03416 0.11954,0.08175 0.23079,0.105692 0.37752,0.08135 0.99989,0.610822 1.09011,0.927478 0.019,0.06642 0.0563,0.12073 0.083,0.12073 0.0468,0 0.13159,0.265594 0.11981,0.375534 -0.004,0.02945 0.0182,0.0537 0.0474,0.0537 0.0292,0 0.0531,0.05791 0.0531,0.128755 0,0.07083 0.0298,0.168967 0.0664,0.218097 0.05,0.06722 0.0707,0.718006 0.0839,2.625208 0.0101,1.482308 0.0377,2.535865 0.0664,2.535865 0.027,0 0.049,0.09658 0.049,0.214591 v 0.2146 h -0.8479 c -0.78394,0 -0.85205,-0.01042 -0.90287,-0.138362 -0.0302,-0.07614 -0.055,-0.210463 -0.055,-0.298593 v -0.160242 l -0.1195,0.148911 c -0.0657,0.08185 -0.22705,0.224319 -0.3585,0.316476 -0.21297,0.149332 -0.31705,0.168808 -0.95598,0.178966 -0.39435,0.006 -0.76903,-0.004 -0.83263,-0.02214 z m 1.73189,-1.773097 c 0.0504,-0.06141 0.11366,-0.112535 0.14057,-0.113547 0.0269,-9.02e-4 0.0908,-0.124226 0.14187,-0.273798 0.11273,-0.329851 0.13786,-1.458685 0.0292,-1.312359 -0.0351,0.04719 -0.15129,0.08586 -0.2583,0.08586 -0.43388,0 -0.74928,0.133754 -0.94038,0.398766 -0.17179,0.238224 -0.18254,0.28038 -0.16099,0.630498 0.0225,0.364643 0.12708,0.601645 0.31472,0.712907 0.12881,0.07644 0.63853,-0.01282 0.7333,-0.128303 z m 8.3615,1.745276 c -0.0915,-0.03767 -0.22482,-0.109269 -0.2963,-0.15921 -0.19482,-0.136137 -0.62615,-0.64865 -0.62615,-0.744024 0,-0.04588 -0.0179,-0.09417 -0.0398,-0.107295 -0.0848,-0.05079 -0.22571,-0.511932 -0.22571,-0.738995 0,-0.131229 -0.0298,-0.253171 -0.0664,-0.270983 -0.0531,-0.02585 -0.0531,-0.06271 0,-0.183815 0.0365,-0.08325 0.0664,-0.275261 0.0664,-0.426616 0,-0.151346 0.0176,-0.298904 0.0392,-0.327907 0.0215,-0.02905 0.0394,-0.09387 0.0398,-0.144102 0.002,-0.243333 0.45975,-0.90075 0.80899,-1.161364 0.13964,-0.10421 0.26585,-0.209792 0.28045,-0.234627 0.0146,-0.02484 0.158,-0.08846 0.31866,-0.141438 0.16066,-0.053 0.31899,-0.124937 0.35184,-0.159941 0.0329,-0.03496 0.28978,-0.08395 0.57095,-0.108868 0.28115,-0.02484 0.51119,-0.07253 0.51119,-0.105963 0,-0.03336 0.0765,-0.06071 0.16995,-0.06071 0.13219,0 0.15579,-0.01904 0.10622,-0.08586 -0.035,-0.04719 -0.0637,-0.138162 -0.0637,-0.202128 0,-0.06392 -0.0617,-0.194324 -0.13721,-0.289698 -0.13109,-0.165681 -0.16798,-0.173225 -0.82708,-0.169208 -0.43626,0.003 -0.70309,0.03276 -0.72583,0.08205 -0.0198,0.04278 -0.14352,0.116472 -0.27496,0.163738 -0.13145,0.04729 -0.26857,0.118566 -0.30471,0.158468 -0.11732,0.129506 -0.21228,0.003 -0.24954,-0.331203 -0.02,-0.180168 -0.0581,-0.327576 -0.0845,-0.327576 -0.0264,0 -0.0639,-0.160953 -0.0833,-0.357661 -0.0193,-0.196708 -0.0561,-0.357651 -0.0815,-0.357651 -0.19481,0 0.18493,-0.292372 0.51998,-0.400348 0.083,-0.02675 0.17897,-0.07844 0.21346,-0.1149 0.0345,-0.03647 0.19652,-0.08495 0.36006,-0.107655 0.16353,-0.02274 0.30999,-0.06893 0.32545,-0.102637 0.0402,-0.08746 1.49515,-0.07774 1.53552,0.01022 0.0181,0.03937 0.0971,0.07263 0.17574,0.07394 0.0786,10e-4 0.23852,0.06462 0.35536,0.140626 0.11684,0.07604 0.23634,0.140255 0.26555,0.14276 0.0777,0.007 0.66388,0.758079 0.66388,0.851089 0,0.04348 0.022,0.07914 0.0489,0.07914 0.0269,0 0.0657,0.10461 0.0864,0.232473 0.0206,0.127863 0.0643,0.255415 0.0972,0.283456 0.0417,0.03557 0.0651,0.775301 0.0774,2.449959 0.0102,1.391803 0.0381,2.398966 0.0664,2.398966 0.0268,0 0.0488,0.193933 0.0488,0.430954 v 0.430965 l -0.86304,-0.01964 c -0.84185,-0.01913 -0.86267,-0.02334 -0.84781,-0.169649 0.0248,-0.244014 -0.10945,-0.339818 -0.26,-0.185557 -0.32349,0.331463 -0.53009,0.402863 -1.21577,0.420144 -0.36513,0.009 -0.73872,-0.01402 -0.8302,-0.05169 z m 1.66919,-1.731802 c 0.13192,-0.08856 0.25085,-0.217275 0.26428,-0.286121 0.0134,-0.06883 0.0456,-0.125187 0.0713,-0.125187 0.0258,0 0.0469,-0.277836 0.0469,-0.617424 v -0.617424 l -0.38505,0.03416 c -0.41451,0.03677 -0.8896,0.27467 -0.8896,0.445431 0,0.0547 -0.0298,0.112996 -0.0664,0.129426 -0.0428,0.01923 -0.0654,0.169017 -0.0638,0.420785 0.003,0.38973 0.0965,0.620129 0.29613,0.726933 0.16951,0.09067 0.50157,0.04007 0.72613,-0.110591 z M 219.14963,88.126603 V 83.1194 h 0.23457 c 0.13177,0 0.24364,-0.03667 0.25527,-0.08365 0.0286,-0.11557 2.8067,-0.130407 2.91428,-0.01563 0.0411,0.04378 0.17949,0.101224 0.30767,0.127612 0.35111,0.07223 0.7398,0.342373 1.0947,0.760785 0.17525,0.206636 0.32821,0.411338 0.3399,0.454908 0.0117,0.04358 0.0356,0.09527 0.0531,0.114969 0.075,0.08425 0.21775,0.498878 0.21775,0.632722 0,0.08015 0.0239,0.165581 0.0531,0.189895 0.0301,0.02505 0.0531,0.380833 0.0531,0.822607 0,0.441774 -0.0229,0.797522 -0.0531,0.822618 -0.0292,0.02434 -0.0531,0.122783 -0.0531,0.218808 0,0.09607 -0.0239,0.174608 -0.0531,0.174608 -0.0292,0 -0.0493,0.02414 -0.0447,0.0537 0.0151,0.09587 -0.0798,0.335671 -0.20486,0.517873 -0.0672,0.09798 -0.12224,0.218668 -0.12224,0.268248 0,0.04959 -0.0179,0.09046 -0.0398,0.09077 -0.0219,2.21e-4 -0.12348,0.106134 -0.22571,0.235108 -0.17891,0.225691 -0.71558,0.622644 -0.84179,0.622644 -0.0336,0 -0.0611,0.02745 -0.0611,0.06101 0,0.06612 -0.63556,0.225079 -0.89983,0.225079 -0.0893,0 -0.16238,0.03216 -0.16238,0.07153 0,0.04208 -0.18588,0.07153 -0.45143,0.07153 h -0.45144 v 1.788284 1.788285 h -0.92944 -0.92942 z m 2.62706,-0.496594 c 0.017,-0.03707 0.13386,-0.08816 0.25966,-0.113597 0.14858,-0.02995 0.28307,-0.118125 0.38381,-0.251487 0.31348,-0.414996 0.31442,-0.418382 0.31442,-1.147138 v -0.688644 l -0.18163,-0.205774 c -0.31663,-0.358733 -0.42982,-0.408834 -1.00008,-0.442676 l -0.54438,-0.03226 v 1.474504 1.474514 h 0.36864 c 0.20274,0 0.38256,-0.03036 0.39956,-0.06742 z m 18.67018,1.978942 c 0,-2.532439 -0.017,-3.551023 -0.0601,-3.609179 -0.0331,-0.04458 -0.0458,-0.131479 -0.0282,-0.193142 0.0271,-0.09527 0.15907,-0.112104 0.88083,-0.112104 h 0.8489 l 0.0165,0.447074 c 0.0125,0.337965 0.0286,0.412872 0.0656,0.306939 0.0744,-0.212677 0.29452,-0.454177 0.56025,-0.614669 0.13144,-0.07934 0.28419,-0.178525 0.33942,-0.220281 0.12653,-0.09567 0.81791,-0.105682 0.88683,-0.01282 0.0298,0.04017 0.0452,0.502324 0.0367,1.100853 -0.0147,1.027891 -0.0153,1.031668 -0.14222,1.055842 -0.0701,0.01332 -0.18279,-0.01563 -0.25046,-0.06442 -0.0845,-0.06091 -0.14439,-0.06592 -0.19124,-0.01603 -0.0375,0.03997 -0.16911,0.08996 -0.29245,0.111012 -0.12334,0.02114 -0.29134,0.113176 -0.37332,0.204622 -0.15515,0.173045 -0.33186,0.597448 -0.33186,0.796991 0,0.06352 -0.0245,0.135857 -0.0546,0.160852 -0.0355,0.02955 -0.0529,0.762388 -0.0499,2.096516 l 0.004,2.051073 -0.93262,0.01954 -0.93264,0.01954 z M 226.90374,85.01498 c 0,-0.05901 0.0239,-0.107296 0.0531,-0.107296 0.0292,0 0.0531,-0.04488 0.0531,-0.09968 0,-0.0548 0.0358,-0.118175 0.0797,-0.140826 0.0438,-0.02264 0.0796,-0.09046 0.0796,-0.150715 0,-0.06021 0.022,-0.109539 0.0489,-0.109539 0.0269,0 0.0642,-0.09387 0.0829,-0.20862 0.0187,-0.114739 0.0684,-0.226392 0.11045,-0.248111 0.042,-0.02174 0.0764,-0.08876 0.0764,-0.149042 0,-0.06021 0.0239,-0.109539 0.0531,-0.109539 0.0292,0 0.0531,-0.04829 0.0531,-0.107295 0,-0.05901 0.0254,-0.107306 0.0563,-0.107306 0.0309,0 0.0425,-0.02995 0.0257,-0.06662 -0.0168,-0.03667 0.0117,-0.109349 0.0633,-0.161564 0.0516,-0.05219 0.13056,-0.191208 0.17546,-0.308902 l 0.0816,-0.21398 0.87034,-0.01974 c 1.00157,-0.02274 1.09359,0.01874 0.78542,0.353634 -0.10954,0.119037 -0.19917,0.247581 -0.19917,0.28565 0,0.03807 -0.0717,0.150464 -0.15933,0.249785 -0.0876,0.09928 -0.15933,0.206686 -0.15933,0.238604 0,0.03196 -0.1539,0.270482 -0.34199,0.530125 -0.18809,0.259652 -0.32551,0.473161 -0.30538,0.474473 0.0201,0.001 -0.0199,0.06572 -0.0888,0.143061 -0.1104,0.123875 -0.20714,0.140686 -0.80993,0.140686 -0.57309,0 -0.68455,-0.01743 -0.68455,-0.107296 z m 5.15169,0.02765 c -0.10224,-0.04158 -0.27551,-0.208349 -0.38504,-0.370655 -0.18044,-0.267346 -0.19917,-0.332815 -0.19917,-0.696387 0,-0.355798 0.0212,-0.434701 0.1873,-0.695997 0.10301,-0.162095 0.26203,-0.344928 0.35337,-0.406299 0.18547,-0.124617 0.8402,-0.155834 0.8402,-0.04007 0,0.03937 0.0339,0.07153 0.0753,0.07153 0.0414,0 0.17554,0.129676 0.29802,0.288164 l 0.22268,0.288165 -0.0215,0.511631 c -0.0131,0.3131 -0.0464,0.522791 -0.0856,0.540404 -0.0352,0.01583 -0.0643,0.06632 -0.0645,0.112234 -2e-4,0.04588 -0.0802,0.156635 -0.1777,0.246068 -0.20823,0.190947 -0.75191,0.269731 -1.04347,0.151205 z m -0.5464,-2.396903 c -0.0208,-0.02805 -0.0378,-1.960818 -0.0378,-4.295127 0,-4.196518 -9e-4,-4.244205 -0.10622,-4.244205 -0.0584,0 -0.10621,-0.02915 -0.10621,-0.06482 0,-0.03566 -0.1249,-0.08796 -0.27755,-0.116231 -0.15265,-0.02825 -0.32592,-0.09207 -0.38505,-0.141748 -0.0591,-0.04969 -0.19713,-0.111493 -0.30667,-0.13737 -0.10954,-0.02585 -0.19917,-0.07734 -0.19917,-0.114479 0,-0.03707 -0.0956,-0.08806 -0.21244,-0.113196 -0.11684,-0.02515 -0.21244,-0.07033 -0.21244,-0.100372 0,-0.03006 -0.0896,-0.108277 -0.19916,-0.173857 -0.31067,-0.185978 -0.64317,-0.437326 -0.74868,-0.56593 -0.0529,-0.06452 -0.12,-0.117223 -0.14912,-0.117223 -0.0291,0 -0.10908,-0.08045 -0.17768,-0.178826 -0.0686,-0.09838 -0.15045,-0.179116 -0.18187,-0.179456 -0.0315,-2.31e-4 -0.20053,-0.178986 -0.3758,-0.396963 -0.17526,-0.217987 -0.37243,-0.446733 -0.43815,-0.508315 -0.0657,-0.06161 -0.1195,-0.136108 -0.1195,-0.165581 0,-0.02945 -0.13144,-0.240809 -0.29211,-0.469635 -0.16066,-0.228827 -0.2921,-0.444729 -0.2921,-0.479773 0,-0.03506 -0.0298,-0.108598 -0.0664,-0.163438 -0.15825,-0.237672 -0.19916,-0.317788 -0.19916,-0.39002 0,-0.04228 -0.0359,-0.09537 -0.0797,-0.117974 -0.0438,-0.02264 -0.0797,-0.08606 -0.0797,-0.140817 0,-0.0548 -0.0212,-0.09968 -0.0472,-0.09968 -0.026,0 -0.0625,-0.110321 -0.0813,-0.245156 -0.0188,-0.134836 -0.0513,-0.255545 -0.0723,-0.268248 -0.0565,-0.03416 -0.22404,-0.483731 -0.22404,-0.601135 0,-0.0558 -0.0264,-0.101494 -0.0588,-0.101494 -0.0324,0 -0.0453,-0.04729 -0.0289,-0.105011 0.0164,-0.05781 0.007,-0.124036 -0.0208,-0.147288 -0.028,-0.02324 -0.0508,-0.104751 -0.0508,-0.18111 0,-0.07634 -0.0211,-0.138843 -0.047,-0.138843 -0.0259,0 -0.064,-0.185087 -0.0847,-0.411308 -0.0208,-0.226222 -0.0653,-0.456491 -0.0991,-0.511712 -0.084,-0.137781 -0.0828,-2.953966 0.002,-3.091987 0.0329,-0.0539 0.0768,-0.283146 0.0976,-0.509357 0.0208,-0.226222 0.059,-0.411309 0.0847,-0.411309 0.0259,0 0.047,-0.06251 0.047,-0.138843 0,-0.07634 0.0228,-0.157867 0.0508,-0.181119 0.028,-0.02324 0.0383,-0.08626 0.0229,-0.140045 -0.0153,-0.0538 -0.003,-0.119027 0.0289,-0.144994 0.0312,-0.02595 0.0567,-0.1097 0.0567,-0.186069 0,-0.07634 0.0223,-0.138843 0.0495,-0.138843 0.0272,0 0.0647,-0.07243 0.0833,-0.160943 0.0571,-0.271784 0.20757,-0.655673 0.30435,-0.776222 0.0506,-0.06302 0.0765,-0.135437 0.0575,-0.160943 -0.019,-0.02555 -0.006,-0.04639 0.0275,-0.04639 0.0341,0 0.062,-0.04829 0.062,-0.107295 0,-0.05901 0.022,-0.107295 0.0489,-0.107295 0.0269,0 0.0646,-0.09658 0.0838,-0.214591 0.0192,-0.118025 0.0556,-0.2146 0.0808,-0.2146 0.056,0 0.52998,-0.819993 0.52998,-0.916819 0,-0.03807 0.0359,-0.08786 0.0797,-0.110481 0.0439,-0.02264 0.0797,-0.09047 0.0797,-0.150724 0,-0.06021 0.0236,-0.10954 0.0525,-0.10954 0.0288,0 0.0678,-0.128754 0.0865,-0.286131 0.0187,-0.157366 0.0548,-0.28612 0.0803,-0.28612 0.0643,0 0.0584,-0.410708 -0.007,-0.464957 -0.0292,-0.02434 -0.0531,-0.112174 -0.0531,-0.195255 0,-0.157376 -0.54685,-0.913483 -0.66067,-0.913483 -0.0341,0 -0.14312,-0.112655 -0.2422,-0.250355 -0.0991,-0.137701 -0.20535,-0.250516 -0.23614,-0.250707 -0.0308,-1.8e-4 -0.14494,-0.1104 -0.25368,-0.244915 -0.10874,-0.134515 -0.24301,-0.263941 -0.29838,-0.287604 -0.0554,-0.02364 -0.14338,-0.106594 -0.19557,-0.184275 -0.0522,-0.07764 -0.11669,-0.141237 -0.14333,-0.141237 -0.0266,0 -0.13645,-0.112385 -0.24404,-0.249735 -0.10759,-0.13736 -0.22257,-0.250025 -0.2555,-0.250365 -0.0329,-2.21e-4 -0.0918,-0.0524 -0.13077,-0.115651 -0.0599,-0.09728 -0.0568,-0.128884 0.02,-0.204602 0.05,-0.04929 0.0909,-0.120109 0.0909,-0.157447 0,-0.08155 0.55652,-0.738955 0.62556,-0.738955 0.0266,0 0.0917,-0.06442 0.14454,-0.14306 0.0529,-0.07864 0.11781,-0.143061 0.1443,-0.143061 0.0467,0 0.55771,-0.297641 0.74482,-0.433829 0.16168,-0.117674 0.7893,-0.207077 1.46406,-0.20854 0.66102,-0.002 1.3911,0.114248 1.3911,0.220421 0,0.03176 0.0896,0.07894 0.19916,0.104841 0.10955,0.02585 0.25891,0.09938 0.33195,0.163318 0.22152,0.194023 0.33999,0.287473 0.45361,0.357861 0.0596,0.03697 0.14023,0.118786 0.17911,0.181901 0.0389,0.06311 0.0977,0.114769 0.1306,0.114799 0.0769,7e-5 0.45821,0.455389 0.45821,0.547186 0,0.03827 0.0717,0.141036 0.15933,0.228295 0.0876,0.08726 0.15933,0.191238 0.15933,0.231061 0,0.06822 0.0422,0.149903 0.19916,0.385642 0.0365,0.0548 0.0664,0.134194 0.0664,0.176341 0,0.04218 0.0212,0.07664 0.0472,0.07664 0.026,0 0.0629,0.112665 0.0821,0.250366 0.0191,0.1377 0.0546,0.250356 0.0788,0.250356 0.0242,0 0.0599,0.135206 0.0796,0.300456 0.0196,0.165261 0.0638,0.34615 0.0982,0.402002 0.0816,0.132351 0.0837,2.14834 0.003,2.217987 -0.0309,0.02645 -0.0741,0.160773 -0.0961,0.298473 -0.0219,0.137691 -0.0548,0.266455 -0.0731,0.286121 -0.0182,0.01964 -0.0809,0.164529 -0.13926,0.321896 -0.0583,0.157366 -0.13602,0.328658 -0.1726,0.380643 -0.0366,0.05199 -0.0665,0.140515 -0.0665,0.196718 0,0.0562 -0.022,0.102186 -0.0489,0.102186 -0.0269,0 -0.0646,0.09657 -0.0838,0.21459 -0.0192,0.118025 -0.057,0.214601 -0.0838,0.214601 -0.0269,0 -0.0489,0.05821 -0.0489,0.129385 0,0.07113 -0.035,0.191879 -0.078,0.268248 -0.0429,0.07634 -0.0787,0.195176 -0.0796,0.264031 -9e-4,0.06882 -0.0223,0.125178 -0.0474,0.125178 -0.0252,0 -0.0349,0.07674 -0.0216,0.17044 0.0133,0.09377 -0.002,0.19222 -0.0339,0.218818 -0.032,0.02665 -0.0581,0.141137 -0.0581,0.254524 0,0.113386 -0.0239,0.226041 -0.0531,0.250365 -0.0701,0.05831 -0.0701,1.251799 0,1.251799 0.0292,0 0.0531,0.160943 0.0531,0.357651 0,0.215652 0.0236,0.357661 0.0593,0.357661 0.0346,0 0.0487,0.07443 0.034,0.178825 -0.014,0.09838 -0.004,0.178836 0.0203,0.178836 0.0252,0 0.0457,0.04568 0.0457,0.101494 0,0.0558 0.0338,0.192631 0.075,0.304014 0.0412,0.111382 0.11896,0.331262 0.17261,0.488629 0.0537,0.157366 0.12743,0.311868 0.16395,0.343325 0.0365,0.03146 0.0664,0.09617 0.0664,0.143741 0,0.04759 0.0487,0.127522 0.10828,0.177614 0.0596,0.05009 0.0968,0.116021 0.0829,0.146516 -0.014,0.03046 0.0329,0.114409 0.10416,0.18651 0.0713,0.07213 0.1296,0.158839 0.1296,0.192771 0,0.06802 0.38133,0.548428 0.52894,0.666393 0.0512,0.04097 0.19174,0.162996 0.31217,0.271193 0.12044,0.108187 0.24043,0.196708 0.26664,0.196708 0.0263,0 0.0761,0.04618 0.11095,0.102707 0.0348,0.0565 0.1393,0.124497 0.23222,0.151155 0.0929,0.02665 0.26921,0.109199 0.39175,0.183424 0.12254,0.07424 0.28187,0.134966 0.35407,0.134966 0.0722,0 0.14122,0.04027 0.15339,0.08946 0.0297,0.120089 2.3611,0.130027 2.41845,0.01032 0.0208,-0.04348 0.13047,-0.102035 0.2436,-0.130076 0.11314,-0.02805 0.24459,-0.07864 0.29211,-0.112495 0.0805,-0.0573 0.38835,-0.246649 0.69718,-0.428781 0.24758,-0.146015 0.36017,-0.256016 0.77245,-0.754653 0.51737,-0.625729 0.55529,-0.67595 0.55533,-0.735369 1e-5,-0.02675 0.11875,-0.186239 0.26386,-0.354555 0.19889,-0.23069 0.33348,-0.323358 0.54677,-0.376465 0.37529,-0.09347 0.79131,0.01312 0.98232,0.251708 0.0794,0.09928 0.17297,0.180418 0.20782,0.180418 0.0349,0 0.0802,0.07243 0.10064,0.160943 0.0205,0.08856 0.052,0.177043 0.07,0.196708 0.14821,0.162236 0.23025,0.867519 0.11234,0.965678 -0.0292,0.02434 -0.0531,0.106684 -0.0531,0.183053 0,0.07634 -0.0239,0.138833 -0.0531,0.138833 -0.0292,0 -0.0531,0.04228 -0.0531,0.09387 0,0.05159 -0.0717,0.16524 -0.15933,0.252499 -0.0876,0.08726 -0.15933,0.205975 -0.15933,0.26381 0,0.05781 -0.0197,0.105162 -0.0437,0.105162 -0.024,0 -0.23137,0.242381 -0.4608,0.53863 l -0.41715,0.53863 0.18198,0.209542 c 0.10008,0.11525 0.20702,0.210854 0.23764,0.212447 0.0306,0.002 0.13816,0.114548 0.239,0.250996 0.10083,0.136449 0.20476,0.249114 0.23096,0.250356 0.0262,0.001 0.14973,0.114939 0.2745,0.25263 0.12476,0.1377 0.24822,0.250366 0.27435,0.250366 0.0262,0 0.11621,0.09658 0.20017,0.21459 0.0839,0.118035 0.17805,0.214881 0.2091,0.215222 0.0311,2.2e-4 0.14448,0.112995 0.25206,0.250355 0.1076,0.13736 0.21989,0.249745 0.24954,0.249745 0.0297,0 0.11839,0.08045 0.1972,0.178825 0.0788,0.09838 0.16527,0.178826 0.19215,0.178826 0.0269,0 0.13694,0.112384 0.24453,0.249745 0.10759,0.13736 0.21951,0.250165 0.24873,0.250686 0.0292,6.81e-4 0.13568,0.105422 0.23659,0.233104 0.10092,0.127682 0.22486,0.264331 0.27542,0.303673 0.23047,0.179316 0.66592,0.606524 0.75758,0.743242 0.0556,0.08305 0.12917,0.150905 0.16336,0.150905 0.0342,0 0.11831,0.08045 0.18691,0.178826 0.0686,0.09838 0.15045,0.178855 0.18187,0.178885 0.0315,3e-5 0.15109,0.112695 0.26594,0.250356 0.11484,0.13767 0.22996,0.250305 0.25581,0.250305 0.0259,0 0.13504,0.112385 0.24263,0.249745 0.1076,0.13735 0.21952,0.250165 0.24873,0.250686 0.0292,6.81e-4 0.12949,0.09738 0.22284,0.215212 0.0933,0.117844 0.19059,0.21427 0.21607,0.21427 0.0255,0 0.14031,0.112635 0.25516,0.250306 0.11485,0.13766 0.23384,0.250325 0.26442,0.250355 0.0306,3e-5 0.14895,0.128815 0.26305,0.286181 0.11409,0.157366 0.23395,0.286131 0.26634,0.286131 0.0324,0 0.11465,0.101555 0.18279,0.225691 0.14364,0.261666 0.21018,1.050622 0.11369,1.347993 -0.11715,0.361047 -0.33688,0.707317 -0.45242,0.712938 -0.0269,0.001 -0.0951,0.05871 -0.15163,0.127562 -0.13696,0.166934 -1.03288,0.182662 -1.17781,0.02064 -0.10279,-0.114889 -0.26349,-0.246408 -0.42737,-0.349756 -0.0584,-0.03687 -0.17793,-0.166083 -0.26557,-0.287213 -0.0876,-0.12112 -0.18554,-0.221122 -0.21759,-0.222214 -0.032,-10e-4 -0.11568,-0.07013 -0.18588,-0.1535 -0.0702,-0.08335 -0.21127,-0.224008 -0.31351,-0.312609 -0.10224,-0.08856 -0.23141,-0.229658 -0.28707,-0.31345 -0.0556,-0.08375 -0.12914,-0.152338 -0.16335,-0.152338 -0.0341,0 -0.1183,-0.08045 -0.18691,-0.178825 -0.0686,-0.09838 -0.15044,-0.178856 -0.18186,-0.178886 -0.0315,-3e-5 -0.1511,-0.112695 -0.26594,-0.250365 -0.11485,-0.137661 -0.22967,-0.250296 -0.25515,-0.250296 -0.0255,0 -0.12272,-0.09637 -0.21608,-0.21427 -0.0934,-0.117844 -0.19543,-0.21441 -0.22685,-0.21459 -0.0315,-1.81e-4 -0.11327,-0.08085 -0.18187,-0.179156 -0.0686,-0.09838 -0.15045,-0.178986 -0.18186,-0.179177 -0.0315,-1.8e-4 -0.14809,-0.112845 -0.25926,-0.250355 -0.11116,-0.137511 -0.22598,-0.250015 -0.25515,-0.250015 -0.0291,0 -0.12942,-0.09638 -0.22276,-0.21427 -0.0933,-0.117845 -0.19249,-0.214411 -0.22031,-0.214591 -0.0279,-1.8e-4 -0.12745,-0.100673 -0.2214,-0.223306 -0.0939,-0.122633 -0.21713,-0.259442 -0.27375,-0.304004 -0.20521,-0.161514 -0.51993,-0.46183 -0.67581,-0.644853 -0.0876,-0.102908 -0.18473,-0.187131 -0.21578,-0.187181 -0.031,-5e-5 -0.12515,-0.09668 -0.2091,-0.214681 -0.0839,-0.118024 -0.17921,-0.2146 -0.21166,-0.2146 -0.0324,0 -0.1415,-0.111633 -0.24233,-0.248082 -0.10084,-0.136448 -0.2115,-0.249113 -0.24593,-0.250365 -0.0344,-0.001 -0.0942,-0.04398 -0.13278,-0.09507 -0.0385,-0.05109 -0.1791,-0.193182 -0.31223,-0.315855 -0.13313,-0.122674 -0.27348,-0.274039 -0.31189,-0.336373 -0.10253,-0.166392 -0.28645,-0.138281 -0.42859,0.06552 -0.0687,0.09838 -0.15277,0.178825 -0.18702,0.178825 -0.0342,0 -0.11288,0.05911 -0.17472,0.131329 -0.0856,0.09988 -0.0976,0.151275 -0.0506,0.214601 0.034,0.04578 0.0884,0.08325 0.12092,0.08325 0.0325,0 0.1278,0.09658 0.21176,0.214591 0.0839,0.118025 0.17805,0.214751 0.2091,0.214941 0.031,1.8e-4 0.14542,0.110391 0.25416,0.244916 0.10873,0.134515 0.24301,0.26394 0.29838,0.287603 0.0553,0.02364 0.14337,0.106594 0.19557,0.184276 0.0522,0.07764 0.11669,0.141237 0.14332,0.141237 0.0266,0 0.13646,0.112384 0.24405,0.249744 0.10758,0.13735 0.21951,0.250166 0.24873,0.250687 0.0292,6.71e-4 0.12948,0.09738 0.22284,0.215211 0.0933,0.117845 0.19057,0.21427 0.21606,0.21427 0.0255,0 0.14031,0.112635 0.25516,0.250306 0.11484,0.13766 0.23452,0.250325 0.26594,0.250355 0.0315,3.1e-5 0.11326,0.08055 0.18186,0.178886 0.0686,0.09838 0.15272,0.178826 0.18692,0.178826 0.0342,0 0.1077,0.06852 0.16334,0.152337 0.0556,0.08375 0.18483,0.224839 0.28707,0.31344 0.10224,0.08856 0.24331,0.229288 0.31351,0.312619 0.0702,0.08335 0.15385,0.152538 0.18588,0.15378 0.0321,10e-4 0.14077,0.113917 0.2416,0.250366 0.10083,0.136448 0.20838,0.248492 0.239,0.248973 0.0723,0.001 0.5071,0.544761 0.5071,0.634064 0,0.03767 0.0298,0.08185 0.0664,0.09828 0.0456,0.02054 0.0657,0.200254 0.0642,0.574716 -0.002,0.475776 -0.0174,0.562764 -0.12298,0.686008 -0.0665,0.07764 -0.11329,0.166504 -0.10407,0.19748 0.009,0.03096 -0.0541,0.105833 -0.14067,0.166363 -0.0866,0.06051 -0.18987,0.150273 -0.22952,0.199453 -0.0396,0.04919 -0.10422,0.08936 -0.14351,0.08936 -0.0393,0 -0.0814,0.04027 -0.0936,0.08936 -0.0335,0.135597 -0.66702,0.105512 -0.86304,-0.04098 -0.0876,-0.06552 -0.1892,-0.119277 -0.22572,-0.119517 -0.0365,-2.31e-4 -0.0664,-0.02895 -0.0664,-0.06382 0,-0.03486 -0.0777,-0.113096 -0.17261,-0.173857 -0.0949,-0.06081 -0.24281,-0.209281 -0.3286,-0.33004 -0.0858,-0.12076 -0.18339,-0.21956 -0.21687,-0.21956 -0.0335,0 -0.13059,-0.09567 -0.21578,-0.212617 -0.0852,-0.116933 -0.18214,-0.213499 -0.21543,-0.214591 -0.0332,-0.001 -0.15279,-0.113897 -0.26555,-0.250686 -0.11277,-0.136779 -0.23022,-0.249444 -0.261,-0.250365 -0.0308,-9.02e-4 -0.13704,-0.114319 -0.23614,-0.252019 -0.0991,-0.137691 -0.20535,-0.250506 -0.23614,-0.250686 -0.0308,-1.81e-4 -0.13234,-0.09678 -0.22569,-0.214591 -0.0934,-0.117855 -0.19359,-0.21427 -0.22276,-0.21427 -0.0292,0 -0.14399,-0.112505 -0.25516,-0.250015 -0.11116,-0.13751 -0.22782,-0.250175 -0.25925,-0.250356 -0.0315,-1.9e-4 -0.11326,-0.08085 -0.18186,-0.179176 -0.0686,-0.09838 -0.15045,-0.179567 -0.18187,-0.180488 -0.0315,-9.02e-4 -0.14939,-0.113577 -0.26216,-0.250356 -0.11276,-0.136789 -0.22481,-0.248703 -0.249,-0.248703 -0.0242,0 -0.12246,-0.09657 -0.21841,-0.21459 -0.096,-0.118035 -0.20028,-0.214601 -0.23186,-0.214601 -0.0315,0 -0.13848,-0.112655 -0.23757,-0.250355 -0.0991,-0.137701 -0.20157,-0.250366 -0.22773,-0.250366 -0.0262,0 -0.11111,-0.06622 -0.18876,-0.147048 -0.60527,-0.630457 -0.79963,-0.749965 -0.94048,-0.578302 -0.0662,0.08075 -0.87135,0.224839 -1.25558,0.224729 -0.16623,-6e-5 -0.31702,0.03206 -0.33507,0.07143 -0.0181,0.03937 -0.0912,0.07153 -0.16247,0.07153 h -0.12964 v 4.108838 c 0,2.259853 -0.02,4.125559 -0.0447,4.146006 -0.0245,0.02044 -0.0967,-0.05761 -0.16024,-0.173375 -0.13585,-0.247481 -0.51572,-0.499139 -0.75341,-0.499139 -0.2386,0 -0.52921,0.193613 -0.71667,0.477479 -0.0887,0.134385 -0.17836,0.221403 -0.19917,0.193392 z m -2.17909,-27.155384 c 0.29903,-0.274099 0.2898,-0.830191 -0.0164,-0.986977 -0.37538,-0.192219 -0.76481,0.04077 -0.76173,0.45569 0.002,0.270262 0.0859,0.435793 0.29545,0.582971 0.20671,0.145194 0.27595,0.137781 0.48265,-0.05169 z m 5.78403,12.474574 c -0.0154,-0.03376 -0.16369,-0.08015 -0.32936,-0.103177 -0.16568,-0.02304 -0.32651,-0.07594 -0.3574,-0.117524 -0.0309,-0.04158 -0.1148,-0.07564 -0.18647,-0.07564 -0.14414,0 -0.67672,-0.3185 -0.79183,-0.473522 -0.0404,-0.0543 -0.10745,-0.09878 -0.14918,-0.09878 -0.0417,0 -0.0759,-0.03286 -0.0759,-0.07303 0,-0.04017 -0.0657,-0.111172 -0.14605,-0.157747 -0.21078,-0.122222 -0.81384,-0.988008 -0.96926,-1.391552 -0.0731,-0.189605 -0.14994,-0.355137 -0.17092,-0.36784 -0.0209,-0.01272 -0.0536,-0.133403 -0.0723,-0.268238 -0.0188,-0.134845 -0.0554,-0.245156 -0.0813,-0.245156 -0.026,0 -0.0472,-0.09658 -0.0472,-0.214601 0,-0.118025 -0.0263,-0.21459 -0.0584,-0.21459 -0.0367,0 -0.0514,-0.119849 -0.0395,-0.321896 0.0104,-0.177032 9e-4,-0.321886 -0.0212,-0.321886 -0.0221,0 -0.0403,-0.177042 -0.0403,-0.393426 0,-0.216384 0.0186,-0.393416 0.0412,-0.393416 0.0226,0 0.0319,-0.13155 0.0206,-0.292332 -0.0114,-0.160783 0.006,-0.328168 0.0385,-0.371967 0.0325,-0.04378 0.0591,-0.132632 0.0591,-0.1974 0,-0.09798 0.13304,-0.534703 0.19278,-0.632771 0.009,-0.01543 0.0561,0.01553 0.1037,0.06873 0.0476,0.0533 0.12845,0.130257 0.17958,0.171131 0.20464,0.163618 0.51506,0.46114 0.66581,0.638142 0.0876,0.102907 0.18473,0.18713 0.21578,0.18718 0.031,5.1e-5 0.12515,0.09668 0.2091,0.214681 0.0839,0.118025 0.1792,0.214601 0.21166,0.214601 0.0324,0 0.1415,0.111633 0.24233,0.248081 0.10083,0.136449 0.21057,0.249114 0.24385,0.250366 0.0333,10e-4 0.15279,0.114188 0.26556,0.250967 0.11277,0.136789 0.23043,0.249454 0.26148,0.250365 0.031,9.02e-4 0.12514,0.09828 0.2091,0.216254 0.0839,0.118025 0.17805,0.214871 0.20909,0.215212 0.0311,2.3e-4 0.14449,0.113005 0.25208,0.250365 0.10758,0.13735 0.21988,0.249735 0.24954,0.249735 0.0297,0 0.11839,0.08045 0.19718,0.178825 0.0788,0.09838 0.16527,0.178826 0.19217,0.178826 0.0269,0 0.13693,0.112384 0.24452,0.249744 0.10759,0.13736 0.21952,0.250166 0.24872,0.250697 0.0292,6.71e-4 0.12949,0.09738 0.22284,0.215211 0.0934,0.117845 0.19059,0.21426 0.21608,0.21426 0.0255,0 0.1403,0.112635 0.25515,0.250306 0.11485,0.13767 0.23452,0.250326 0.26594,0.250356 0.0315,4e-5 0.11326,0.08055 0.18187,0.178885 0.0686,0.09838 0.15044,0.179908 0.18186,0.18121 0.0315,0.001 0.11303,0.06512 0.18136,0.141808 0.11106,0.124647 0.11569,0.150925 0.0436,0.247971 -0.0443,0.05971 -0.0956,0.108558 -0.11386,0.108558 -0.0183,0 -0.13435,0.06201 -0.25791,0.137841 -0.12356,0.07584 -0.29551,0.160722 -0.38214,0.188693 -0.0866,0.02795 -0.18647,0.08155 -0.22188,0.119067 -0.0354,0.03747 -0.20938,0.08596 -0.38657,0.107556 -0.17719,0.02164 -0.33483,0.06702 -0.35033,0.100753 -0.0368,0.08005 -1.01613,0.08015 -1.05287,1e-4 z"
     id="path13" /></svg>
