<?xml version="1.0" encoding="UTF-8" standalone="no"?>
                <svg
                version="1.0"
                width="1174.000000pt"
                height="1280.000000pt"
                viewBox="0 0 1174.000000 1280.000000"
                preserveAspectRatio="xMidYMid meet"
                id="svg3"
                sodipodi:docname="nombre.svg"
                xml:space="preserve"
                inkscape:version="1.4 (86a8ad7, 2024-10-11)"
                xmlns:inkscape="http://www.inkscape.org/namespaces/inkscape"
                xmlns:sodipodi="http://sodipodi.sourceforge.net/DTD/sodipodi-0.dtd"
                xmlns="http://www.w3.org/2000/svg"
                xmlns:svg="http://www.w3.org/2000/svg"><defs
                    id="defs3" /><sodipodi:namedview
                    id="namedview3"
                    pagecolor="#ffffff"
                    bordercolor="#000000"
                    borderopacity="0.25"
                    inkscape:showpageshadow="2"
                    inkscape:pageopacity="0.0"
                    inkscape:pagecheckerboard="0"
                    inkscape:deskcolor="#d1d1d1"
                    inkscape:document-units="pt"
                    showgrid="false"
                    showguides="true"
                    inkscape:zoom="0.68378906"
                    inkscape:cx="473.83034"
                    inkscape:cy="765.58698"
                    inkscape:window-width="2560"
                    inkscape:window-height="1369"
                    inkscape:window-x="1912"
                    inkscape:window-y="-8"
                    inkscape:window-maximized="1"
                    inkscape:current-layer="svg3"><inkscape:grid
                    id="grid22"
                    units="pt"
                    originx="0"
                    originy="0"
                    spacingx="0.99999997"
                    spacingy="1"
                    empcolor="#0099e5"
                    empopacity="0.30196078"
                    color="#e6ba38"
                    opacity="0.14901961"
                    empspacing="5"
                    enabled="true"
                    visible="false" /></sodipodi:namedview><metadata
                    id="metadata1">
                Created by potrace 1.15, written by Peter Selinger 2001-2017
                </metadata><g
                    transform="translate(0.000000,1280.000000) scale(0.100000,-0.100000)"
                    fill="#000000"
                    stroke="none"
                    id="g3"><path
                    d="M4425 12777 c-33 -13 -100 -45 -150 -71 -379 -205 -660 -325 -1163 -497 -373 -127 -591 -189 -982 -279 -288 -67 -505 -172 -631 -306 -96 -103 -206 -267 -284 -424 -74 -146 -225 -631 -225 -720 0 -46 -33 -122 -85 -197 -57 -80 -108 -180 -125 -243 -7 -25 -18 -91 -25 -147 -11 -93 -16 -106 -45 -140 -74 -83 -112 -218 -125 -443 -14 -224 -31 -299 -160 -715 -208 -666 -337 -1170 -379 -1470 -23 -170 -40 -450 -41 -665 0 -177 2 -198 20 -229 14 -24 33 -38 60 -47 22 -7 101 -34 175 -60 494 -172 676 -225 830 -243 47 -6 171 -15 275 -21 553 -30 550 -30 628 -94 23 -19 75 -50 115 -69 40 -20 79 -41 87 -47 31 -25 13 -119 -73 -390 -68 -214 -77 -270 -76 -495 0 -192 16 -350 44 -445 18 -61 11 -118 -29 -243 -52 -160 -59 -187 -76 -282 -33 -180 -11 -367 65 -555 23 -58 55 -138 71 -177 48 -120 48 -167 0 -310 -67 -202 -76 -331 -33 -468 25 -76 39 -266 52 -720 13 -415 25 -626 45 -738 27 -155 83 -358 110 -399 49 -73 47 -73 525 -73 550 -1 623 -10 1165 -155 339 -91 577 -141 775 -164 74 -9 172 -21 216 -27 120 -17 1068 -5 1274 16 501 50 805 136 1575 445 578 232 843 312 1155 350 140 17 267 39 295 52 28 13 47 56 66 153 21 108 18 684 -4 880 -22 184 -49 322 -82 414 -14 37 -25 85 -25 105 0 22 29 111 70 218 122 312 150 436 150 668 0 179 -9 228 -60 346 -52 118 -52 173 -5 435 53 291 63 427 71 987 l7 502 119 0 c216 0 330 38 475 159 45 37 105 78 135 89 29 12 139 40 244 61 246 51 330 72 543 133 452 128 734 261 757 354 25 99 -230 1009 -571 2044 -63 190 -121 372 -129 405 -11 44 -15 109 -14 250 2 218 -8 268 -82 385 -78 124 -99 179 -115 296 -71 508 -233 1141 -356 1388 -152 305 -399 488 -961 709 -91 37 -382 142 -645 235 -750 265 -940 346 -1193 509 -161 103 -181 113 -229 113 -22 0 -97 -21 -168 -46 -241 -86 -481 -136 -808 -170 -239 -25 -777 -25 -955 -1 -299 42 -516 107 -849 256 -62 28 -127 51 -145 50 -17 0 -58 -10 -91 -22z m135 -344 c131 -219 259 -382 441 -559 197 -191 322 -277 501 -344 298 -112 466 -120 743 -33 113 35 332 142 444 217 163 109 511 444 670 645 36 46 73 92 81 103 14 18 19 16 111 -46 110 -73 139 -105 139 -150 0 -61 -147 -315 -287 -494 -295 -378 -737 -627 -1229 -693 -146 -19 -423 -7 -573 26 -494 106 -925 402 -1218 835 -116 172 -195 331 -197 399 -1 40 3 47 41 79 37 31 228 149 245 151 4 1 43 -61 88 -136z m378 -47 c324 -106 392 -118 769 -137 172 -8 291 -8 483 0 451 21 624 40 870 101 68 16 133 30 143 30 17 0 17 -2 -3 -29 -50 -72 -271 -288 -320 -315 -66 -36 -292 -93 -423 -106 -170 -18 -717 -25 -847 -11 -214 22 -545 107 -644 165 -25 14 -65 52 -89 84 -63 82 -164 227 -182 262 -14 27 -14 30 0 30 9 0 118 -33 243 -74z m-813 -236 c43 -80 96 -171 118 -204 62 -92 202 -249 353 -397 220 -214 291 -268 472 -359 306 -153 573 -219 879 -220 460 0 900 161 1259 463 203 170 366 373 525 656 35 62 73 120 85 128 19 12 47 4 285 -86 145 -54 433 -158 639 -231 980 -346 1165 -433 1380 -649 79 -80 104 -113 147 -196 46 -89 143 -347 143 -380 0 -35 -291 -516 -338 -558 -19 -18 -20 -17 -30 42 -22 126 -94 235 -163 246 -100 17 -204 -27 -197 -84 3 -26 4 -26 93 -26 118 -1 112 1 135 -44 24 -48 35 -132 26 -195 -6 -41 -13 -50 -49 -73 -23 -14 -106 -91 -183 -170 -78 -78 -146 -143 -153 -143 -24 0 -13 80 52 390 33 153 37 184 26 201 -23 37 -85 -58 -118 -181 -30 -112 -87 -424 -111 -605 -30 -232 -47 -548 -80 -1440 -40 -1105 -60 -1613 -70 -1773 -16 -234 -49 -351 -417 -1452 -421 -1263 -610 -1736 -937 -2342 l-48 -88 40 0 c33 0 45 6 72 37 152 172 440 835 776 1783 48 135 122 340 166 455 44 116 118 316 165 445 86 236 126 330 142 330 15 0 21 -103 21 -400 0 -412 -15 -600 -80 -975 -57 -327 -108 -468 -317 -875 -179 -349 -366 -677 -633 -1115 -144 -234 -212 -357 -225 -402 -8 -31 35 -54 61 -32 78 65 633 1013 956 1634 173 334 181 343 223 260 18 -35 20 -59 19 -195 0 -129 -5 -173 -26 -266 -45 -193 -175 -510 -287 -702 -61 -104 -160 -219 -408 -474 -209 -215 -303 -325 -303 -354 0 -31 58 -4 152 73 95 77 433 425 551 568 55 66 103 121 107 123 17 7 69 -193 90 -343 37 -272 54 -759 30 -846 -13 -48 -41 -59 -166 -69 -291 -24 -630 -128 -1299 -397 -691 -279 -1160 -400 -1704 -443 -204 -15 -760 -13 -916 5 -295 33 -612 98 -1025 210 -151 41 -331 86 -400 99 -263 53 -624 86 -951 86 -179 0 -198 4 -215 47 -22 51 -51 239 -68 433 -21 242 -25 318 -37 695 -11 356 -24 478 -64 595 -31 89 -29 125 16 256 81 240 78 367 -16 584 -124 286 -124 451 1 831 30 91 54 175 54 186 0 12 -13 76 -29 144 -41 174 -55 299 -48 448 6 140 22 227 74 405 20 67 47 164 60 216 13 52 29 99 34 105 15 15 35 -15 54 -85 35 -133 246 -715 381 -1050 190 -474 688 -1350 990 -1740 119 -154 344 -383 367 -374 37 14 7 77 -96 201 -218 263 -307 387 -454 633 -316 531 -717 1335 -858 1721 -159 434 -498 1522 -551 1769 -80 372 -124 685 -128 923 -2 120 -11 225 -29 347 -60 403 -82 737 -74 1155 6 285 16 418 62 825 23 205 30 426 16 501 -28 140 -82 227 -189 306 -43 31 -96 74 -118 95 -48 46 -95 60 -145 44 -48 -16 -66 -59 -79 -196 -13 -134 -28 -220 -39 -220 -25 0 -103 114 -176 260 -72 141 -67 180 46 419 112 235 245 403 386 487 112 66 177 88 495 164 502 121 1189 344 1593 518 77 33 143 57 146 54 4 -4 41 -72 84 -152z m1273 -326 c118 -31 278 -43 552 -44 274 0 504 15 603 41 43 11 82 17 86 14 16 -17 -178 -130 -324 -188 -146 -58 -233 -72 -445 -72 -177 1 -188 2 -252 27 -163 65 -371 186 -403 235 l-17 26 51 -7 c29 -4 95 -18 149 -32z m-3590 -1191 c51 -36 118 -118 147 -178 34 -68 49 -186 41 -320 -9 -144 -24 -230 -45 -257 l-18 -21 -50 27 c-131 72 -293 216 -349 312 -35 60 -24 75 52 67 54 -6 54 -6 68 28 8 19 19 77 26 129 12 95 35 214 46 231 10 17 46 9 82 -18z m8664 -214 c41 -112 106 -460 133 -719 22 -209 27 -223 90 -289 29 -31 63 -76 76 -101 23 -43 24 -52 21 -226 -3 -217 -1 -222 142 -659 207 -630 479 -1522 480 -1574 1 -33 -2 -35 -59 -58 -117 -46 -352 -115 -682 -198 -332 -85 -405 -109 -417 -140 -22 -58 68 -49 449 46 110 28 277 72 372 100 188 54 328 89 356 89 20 0 57 -72 78 -151 17 -64 0 -88 -96 -135 -88 -42 -396 -145 -611 -204 -198 -54 -525 -120 -597 -120 l-57 0 0 33 c0 17 7 145 15 282 30 524 46 1207 66 2890 l10 900 51 80 c82 131 139 206 151 202 7 -2 19 -24 29 -48z m-9186 -81 c31 -51 88 -130 126 -175 102 -120 310 -317 427 -403 l102 -75 -5 -65 c-3 -36 -11 -126 -17 -200 -22 -251 0 -1003 41 -1400 11 -107 31 -330 45 -495 14 -165 32 -351 40 -413 23 -181 117 -568 239 -985 60 -206 60 -257 -1 -257 -45 0 -91 28 -175 108 -112 106 -120 108 -318 92 -289 -24 -526 -1 -851 80 -289 72 -680 220 -732 277 -21 24 -25 96 -7 118 23 28 48 22 514 -126 47 -15 103 -11 110 7 23 59 -88 119 -488 264 l-118 43 6 61 c14 126 92 527 146 754 70 287 223 815 314 1081 74 217 129 489 146 730 5 70 14 140 20 155 6 16 35 62 65 103 66 91 90 161 100 298 8 119 19 147 85 231 66 84 89 129 96 189 8 74 13 95 24 95 5 0 34 -42 66 -92z m8849 -410 c16 -72 -34 -3172 -55 -3404 -14 -159 -52 -232 -163 -316 -83 -64 -190 -116 -273 -133 -78 -16 -284 -34 -284 -25 0 4 7 51 15 106 35 239 54 795 65 1854 11 1072 24 1279 85 1405 40 82 338 445 366 445 36 0 8 -214 -100 -770 -85 -438 -138 -660 -207 -872 -62 -191 -104 -361 -104 -418 0 -39 4 -52 22 -64 25 -18 41 -9 63 35 26 50 135 459 239 894 67 281 107 498 167 889 41 274 52 308 117 379 33 35 39 34 47 -5z m-97 -3826 c8 -57 -133 -218 -235 -268 -75 -37 -199 -44 -329 -19 -93 18 -134 36 -134 59 0 26 30 38 112 47 116 13 289 70 431 145 67 35 129 62 137 61 8 -1 16 -12 18 -25z"
                    id="path1" /><path
                    d="M2403 2124 c-8 -22 16 -40 172 -123 195 -105 980 -467 1320 -609 370 -155 635 -231 708 -203 73 28 -1 71 -298 176 -403 142 -868 335 -1414 587 -415 191 -473 211 -488 172z"
                    id="path3" /></g><path
                    style="display:inline;fill:#e6ba38;fill-opacity:1;stroke:#f5deb3;stroke-width:2.92488"
                    d="m 680.03428,1678.2954 c -28.15834,-2.5608 -83.58359,-13.6088 -141.85662,-28.2763 -67.97198,-17.1088 -98.15435,-21.6662 -163.78753,-24.7312 l -42.40506,-1.9803 -3.34704,-10.238 c -4.79066,-14.6539 -9.38469,-64.7956 -12.69272,-138.5351 -1.87066,-41.699 -4.50541,-69.784 -7.57197,-80.7131 -4.48696,-15.9915 -4.4224,-17.7039 1.40526,-37.2721 9.03357,-30.333 8.04136,-49.1775 -4.502,-85.5045 -9.50101,-27.5159 -10.4394,-32.8778 -8.97577,-51.2865 0.89899,-11.3069 5.54091,-33.1217 10.31538,-48.4773 l 8.68086,-27.9192 -5.8366,-27.6535 c -4.1865,-19.8353 -5.43761,-34.2688 -4.42532,-51.0525 1.48475,-24.617 19.11238,-96.89797 22.67202,-92.96521 1.14197,1.26171 6.36889,15.45594 11.61537,31.54281 37.9734,116.4346 84.80622,213.8056 150.52615,312.962 25.47122,38.4302 66.61628,86.2839 74.18777,86.2839 8.44359,0 1.32833,-13.5816 -24.52233,-46.808 -30.57677,-39.3011 -54.30859,-77.6599 -89.56725,-144.7716 -51.60101,-98.2178 -70.89096,-144.0372 -102.20395,-242.76488 -44.00028,-138.72986 -55.06041,-188.49456 -61.10471,-274.93859 -1.79971,-25.73893 -4.54248,-53.37904 -6.09505,-61.42245 -1.55257,-8.04342 -3.62293,-47.5833 -4.60079,-87.86637 -1.41342,-58.22556 -0.73829,-83.71464 3.29292,-124.32187 2.78898,-28.09396 4.60841,-64.40164 4.04318,-80.68376 -1.20853,-34.81293 -4.84046,-41.81676 -33.03973,-63.71397 -27.58646,-21.42134 -35.03134,-18.00108 -40.15237,18.44642 l -3.44873,24.54539 -5.65792,-6.98724 c -8.70182,-10.7463 -22.56088,-39.6881 -22.5728,-47.13868 -0.006,-3.66541 6.59719,-19.97296 14.67345,-36.239 16.06591,-32.35765 35.23002,-55.12547 54.80659,-65.11269 6.51233,-3.32234 37.30935,-12.74567 68.43783,-20.94072 75.99035,-20.00565 156.52444,-46.628613 217.86971,-72.023386 1.85051,-0.766047 10.19662,10.721107 18.79205,25.864447 12.75955,22.479589 22.40498,34.176619 55.16853,66.903099 43.76087,43.71131 61.99353,55.4658 111.36505,71.79638 23.33099,7.71718 27.92238,8.22341 74.5844,8.22341 46.57159,0 51.2986,-0.51853 74.58441,-8.18158 66.57415,-21.90867 116.90944,-62.47196 155.59985,-125.39193 10.4993,-17.074475 19.4325,-28.517568 22.2624,-28.517568 5.6675,0 179.8901,62.747738 221.3705,79.728448 69.2085,28.3317 93.8075,51.63726 112.9414,107.00272 6.2263,18.01631 6.6407,16.71833 -18.5694,58.16597 -18.843,30.97951 -21.4624,33.16431 -23.9383,19.96661 -2.7247,-14.52365 -14.8075,-27.94858 -25.1545,-27.94858 -13.1188,0 -23.3294,5.01872 -23.3294,11.46686 0,4.7988 2.3222,5.9109 13.8931,6.65337 13.2522,0.85035 14.0619,1.40802 17.5481,12.08657 2.0102,6.1573 2.8097,14.05448 1.7767,17.54927 -1.8492,6.2557 -47.0559,50.52634 -49.3016,48.28068 -0.6339,-0.634 2.0294,-17.42406 5.9186,-37.31124 3.8892,-19.88717 6.409,-37.23 5.5996,-38.53963 -2.9432,-4.76222 -9.7088,1.00054 -14.1211,12.02815 -5.2037,13.00518 -14.8692,60.90989 -19.1713,95.01819 -4.0425,32.04933 -7.9509,108.147 -13.3697,260.31419 -2.5205,70.78207 -5.7824,143.41774 -7.2485,161.41262 -3.2011,39.28904 -8.0585,56.54495 -56.656,201.27234 -53.9808,160.7596 -70.2402,202.6865 -107.4723,277.1322 -22.4249,44.8389 -22.8452,46.0669 -15.7684,46.0669 19.6255,0 51.0716,-68.6079 128.6978,-280.7884 22.0701,-60.3256 41.9917,-112.97341 44.2702,-116.99511 3.6392,-6.42353 3.9948,1.04119 2.9258,61.42241 -1.2401,70.0479 -6.2423,112.0354 -18.1197,152.0937 -10.0324,33.8356 -51.1229,112.8913 -110.7995,213.1718 -40.2105,67.5695 -41.9946,71.7019 -30.2283,70.0137 4.3587,-0.6254 11.1752,-7.998 20.601,-22.2816 18.1293,-27.4726 73.4191,-123.7465 104.4831,-181.9322 13.312,-24.9345 25.5565,-47.0431 27.2099,-49.1301 5.3684,-6.776 7.8178,2.2797 7.8652,29.0791 0.05,28.349 -5.1972,48.7431 -23.2533,90.3735 -14.925,34.4114 -23.79,46.5954 -70.9404,97.4999 -38.5936,41.6664 -45.4909,51.5435 -35.9937,51.5435 6.9935,0 41.7675,-31.7367 73.1971,-66.8037 16.0868,-17.9486 30.1304,-32.6357 31.208,-32.6379 4.2236,-0.01 11.1289,41.8804 14.3445,87.0171 3.3853,47.5191 2.3993,66.0351 -3.718,69.8158 -1.801,1.1131 -14.5829,3.7213 -28.4043,5.7961 -32.4801,4.8757 -67.4994,15.152 -120.1883,35.2687 -145.11012,55.4033 -183.96151,66.5873 -256.96798,73.9726 -28.24374,2.8571 -101.04168,3.4369 -127.65354,1.0167 z m -63.49046,-134.9439 c -0.51408,-2.6693 -8.94911,-7.6848 -19.88651,-11.8245 -75.46474,-28.5627 -136.80955,-53.6569 -196.61809,-80.43 -38.17209,-17.0876 -72.16063,-31.0684 -75.53009,-31.0684 -24.31177,0 28.33341,29.1396 149.3212,82.6507 67.04179,29.6516 101.60508,42.5497 122.84491,45.8422 15.75246,2.4418 21.0681,1.0587 19.86858,-5.17 z"
                    id="path81"
                    transform="scale(0.75)" />
                    <path transform="translate(710.763,260.621) scale(0.5, 0.5)" fill="#000000" d="M 166.5,259.49361973535576 C 163.2,258.796230656975 159.01452903552675,257.67284164892834 157.19895341228164,256.99719971747436 C 155.38337778903653,256.3215577860203 153.64378535053163,256.02288131613506 153.33319243782628,256.3334742288404 C 153.02259952512094,256.6440671415457 150.6830704895942,255.8356732180686 148.13423902554464,254.53704328778008 C 145.5854075614951,253.2384133574916 140.88894562429812,250.9674983883785 137.6976569428847,249.4905655786398 C 134.5063682614713,248.01363276890115 131.3606222065242,245.949055727905 130.7071101541134,244.9026165986484 C 130.0535981017026,243.85617746939178 129.01723346220024,243.0 128.40407762188596,243.0 C 127.7909217815717,243.0 124.25285962184381,240.21770068676784 120.54171726693511,236.81711263726189 C 114.14826146405389,230.95867140297048 110.60309663136157,226.56251814550058 106.84250136317121,219.82950967314838 C 105.93087711291538,218.19732823302016 104.51437131014019,216.10547796741844 103.69471069033746,215.18095352736674 C 100.97670656103872,212.11521975293837 94.9008183251304,192.0167113089564 93.85190517723169,182.62181121982982 C 92.59766023069204,171.38779629339103 93.11421087083512,118.14703693434667 94.5,115.82282227405595 C 95.53349116474675,114.08947391258273 100.7411551124741,109.86841289240681 107.2163002670283,105.51565193495784 C 115.87318635094687,99.69626798915374 132.44405760183727,95.47570872516059 140.05196551714988,97.15249051377835 C 142.49838448271746,97.69168089495217 146.525,98.56377849428847 149.0,99.09048517897011 C 154.64764910429267,100.29236579956294 159.09706462465726,102.27571249400124 172.0,109.34283714818854 C 175.025,110.99967347705751 177.85986055110718,112.95033179870696 178.2996901135715,113.67763341852061 C 178.73951967603585,114.40493503833427 180.65201967603585,115.0 182.5496901135715,115.0 C 184.44736055110718,115.0 186.0,115.47489567699908 186.0,116.05532372666462 C 186.0,117.63755563972744 195.53307671416977,121.69114370164907 204.0093345750884,123.71312674509849 C 214.4310664662085,126.19919613007792 231.03076560039526,126.11218299520425 241.5,123.51660629609812 C 245.9,122.42573975895208 250.1167410714283,120.94114154466642 250.8705357142851,120.2174991532411 C 251.62433035714193,119.49385676181579 253.51339285714175,118.64732142857167 255.06845238095144,118.33630952380973 C 256.6235119047611,118.02529761904779 259.1567708333328,116.4848958333335 260.6979166666663,114.91319444444463 C 263.8321684434164,111.71680136852773 265.0,111.31488667231183 265.0,113.43261232944295 C 265.0,114.22054911063657 265.93149917395556,115.16087101183348 267.06999816434575,115.52221655432498 C 268.95127797739593,116.11931157185501 269.0906620529196,116.74084166955768 268.5988626255505,122.33960422488204 C 268.30123908882297,125.72782190119692 267.77734236522065,142.1807307424556 267.43464768421205,158.90162387212357 C 267.02146810997726,179.06164352520958 266.3635476723021,191.02077279097261 265.48164801187534,194.40162387212357 C 263.8376585262252,200.704022976429 255.97363596960898,217.67992918874103 251.82285467337948,223.88658440197082 C 248.45111981056644,228.92833299588418 234.43901162858086,243.0 232.79033727451684,243.0 C 232.22586828275604,243.0 230.2586683600634,244.2375 228.41878189075544,245.75 C 221.6592332086795,251.30676535057378 219.14979378739082,253.0 217.67400070492988,253.0 C 216.8436780975913,253.0 213.9244984012672,254.125 211.1869347130986,255.5 C 208.44937102492997,256.875 204.69989829659562,258.00534099392394 202.8547730945778,258.01186887538654 C 201.00964789256003,258.0183967568491 197.025,258.68805576292516 194.0,259.5 C 187.45169367444524,261.2576395317801 174.83337447123225,261.2547119602935 166.5,259.49361973535576 Z M 212.5,100.60380623662508 C 207.69598971255084,99.42576363026011 199.2463291033046,95.47722096770744 177.30334423138123,84.15634126631667 C 152.738621329487,71.48284791554775 130.30277010144496,70.50027878901078 106.5,81.05553713857441 C 103.75,82.27501538995399 100.22782977355341,84.16672677380146 98.67295505234091,85.25934021379103 C 96.92126897795654,86.49025336801766 95.49060289292782,86.89060289292736 94.91183173994284,86.31183173994276 C 94.35432298987506,85.75432298987535 94.08302409856428,68.47027833866699 94.23887668760192,43.43887668760219 L 94.5,1.5 L 104.5,1.5 L 114.5,1.5 L 114.78752581378873,10.749999999999993 L 115.07505162757747,19.999999999999986 L 123.5,19.999999999999986 L 131.92494837242253,19.999999999999986 L 132.21247418621127,10.749999999999993 L 132.5,1.5 L 142.5,1.5 L 152.5,1.5 L 152.78752581378885,10.75 L 153.0750516275777,20.0 L 161.5,20.0 L 169.9249483724223,20.0 L 170.21247418621115,10.75 L 170.5,1.5 L 180.5,1.5 L 190.5,1.5 L 190.78752581378885,10.75 L 191.0750516275777,20.0 L 199.50000000000003,19.999999999999993 L 207.92494837242236,19.999999999999986 L 208.21247418621118,10.749999999999993 L 208.5,1.5 L 218.5,1.5 L 228.5,1.5 L 228.78752581378882,10.75 L 229.07505162757764,20.0 L 237.49999999999997,20.000000000000007 L 245.9249483724223,20.000000000000014 L 246.21247418621115,10.750000000000007 L 246.5,1.5 L 256.5,1.5 L 266.5,1.5 L 266.76119112657966,42.218775210206196 L 267.0223822531593,82.93755042041239 L 260.26119112657966,88.51451647758864 C 253.09948741611564,94.4218451948314 243.82115673425122,99.33925081315874 236.76524250496806,100.96709159281689 C 231.01622747282917,102.29342306568884 218.63423287173256,102.10804691220085 212.5,100.60380623662508 Z "/>
                    <path transform="translate(340.635, 450) scale(0.75, 0.75)" fill="#000000" d="M 304.2985485148422,635.099889959469 C 299.6300197491955,632.1666928630463 298.0,628.2589482792561 298.0,620.0 C 298.0,612.039294018234 299.4944183996996,608.1890982281745 303.73491125294925,605.2246658854656 C 307.5544128714769,602.5545389632338 311.00577888404496,601.8866970644965 315.11777358536455,603.0220735305945 C 326.9565170970313,606.2909081832757 330.03538685359996,626.7519374227471 319.8244916639651,634.3011804245223 C 315.88199626989325,637.2159939849867 308.28833470964304,637.6066388453391 304.2985485148422,635.099889959469 Z M 255.0,633.2708875864377 C 255.0,631.1931092526427 256.93656101027017,628.5951016412317 263.11425788534916,622.3851454717868 L 271.22851577069827,614.2285157706983 L 269.0631053870655,612.0631053870654 C 266.7868402600324,609.7868402600324 263.8324899878169,609.9521340319629 261.1364410427954,612.5065965535036 C 260.0171248951507,613.5671303966275 259.17641733547117,613.4466236706425 256.4429381902185,611.8338315049998 C 252.47163729048603,609.4907066307452 252.78330479210754,607.9374138368848 257.83930431735973,604.8746027384625 C 265.4656729839931,600.2547196715904 275.6933056751093,602.6283923687179 278.64985192326196,609.7044035492902 C 279.8419737291648,612.5575526358107 279.8173022314838,613.5034529076983 278.46608475280925,616.75 C 277.60766934390466,618.8125 275.0329367466404,622.4125 272.74445675888876,624.75 L 268.58358405388566,629.0 L 274.29179202694286,629.0 L 280.0,629.0 L 280.0,632.5 L 280.0,636.0 L 267.5,636.0 L 255.0,636.0 L 255.0,633.2708875864377 Z M 343.0,633.2977509579484 C 343.0,631.2407546302722 344.79087688903047,628.878581579757 350.5,623.4052240135331 C 356.0773909351558,618.0581585743471 358.0,615.5465259334354 358.0,613.6074730555847 C 358.0,611.8511915742308 357.4287245838596,610.9482771317433 356.25,610.8415562495921 C 352.8518094275917,610.5338865016533 350.5879369867139,611.0629367776062 348.94662893661143,612.5483001485434 C 347.4695303817099,613.885055968743 347.14738600287535,613.8825155564945 346.02093764046515,612.5252283133896 C 345.32473275122294,611.6863527410253 344.13521069106463,611.0 343.37755528455784,611.0 C 340.2575550417672,611.0 342.11901047513845,607.2558512515689 346.25,605.2223380192444 C 352.5406747627949,602.1257021421969 354.4826464646603,601.7836030137303 358.94676832961306,602.985666199706 C 369.3842188689554,605.7961797628072 370.1267630123409,615.9313407867496 360.5596301869951,625.0 L 356.8672469910553,628.5 L 362.6836234955276,629.0 C 368.3952419102384,629.4909945573777 368.50564386369734,629.558535377045 368.8133584840881,632.75 L 369.12671696817625,636.0 L 356.0633584840881,636.0 L 343.0,636.0 L 343.0,633.2977509579484 Z M 402.0,633.0404423428307 L 402.0,630.0808846856614 L 393.75,629.7904423428307 C 385.59321699080346,629.5032817165092 385.4964502812846,629.4691924133407 385.1858386100042,626.7734306509068 C 384.973685931563,624.9321827802706 385.94779078470174,622.5442187386068 388.1858386100042,619.4190969753192 C 390.0086273745019,616.8738265957473 392.175,613.777777242301 393.0,612.538987300994 C 393.825,611.300197359687 395.900566821455,608.6471475137014 397.6123707143445,606.6433209765815 C 400.26281958769914,603.5407227118103 401.33882680359454,603.0 404.8623707143445,603.0 C 407.138066821455,603.0 408.97715686204833,603.3375 408.94923747121857,603.75 C 408.92131808038874,604.1625 406.90563282479314,607.2 404.46993690322836,610.5 C 402.0342409816636,613.8 399.345528053811,617.7375 398.4950192857782,619.25 C 396.95718757130555,621.9847989292573 396.9653646449724,622.0 399.9743198537684,622.0 C 402.6827824835467,622.0 403.0,621.6791460363139 403.0,618.939634738274 C 403.0,616.0147032781948 403.1659529868959,615.8930044211379 406.75,616.189634738274 C 410.0056826837043,616.4590882871339 410.5417101452643,616.8624993652835 410.8164223456972,619.25 C 411.0387493777838,621.1822255414385 411.70217202131306,622.0 413.0473703174823,622.0 C 414.2550846032604,622.0 415.19333668179274,622.9221333503174 415.58879480466317,624.4977640130662 C 416.4431967943414,627.9019726900285 415.46804486465305,630.0 413.03138479633867,630.0 C 411.44095724485123,630.0 411.0,630.6512167152861 411.0,633.0 C 411.0,635.8888888888889 410.8333333333333,636.0 406.5,636.0 C 402.18033166242463,636.0 402.0,635.8813995661425 402.0,633.0404423428307 Z M 314.95413270907835,627.5552667045567 C 316.8365785450985,625.2870582323999 317.1163236742337,615.6110877955701 315.37147629136217,613.1199692012065 C 313.58917814928674,610.5753821582312 308.5119624606718,610.2234639224845 307.6069888041843,612.5817874682358 C 306.328247848532,615.9141329823987 306.9723443726009,625.8294872297438 308.57142857142856,627.4285714285714 C 310.53557782750977,629.3927206846525 313.3822851075122,629.4492271992444 314.95413270907835,627.5552667045567 Z M 59.0,566.3170877985633 C 58.175,566.0054540028179 56.2625,564.5974316531916 54.75,563.1881492438381 L 52.0,560.625817590468 L 52.0,543.3425442252617 C 52.0,527.1487038148458 52.15332708219144,525.7264745948333 54.432452464515194,520.7796354300276 C 56.980791046503775,515.2484693079983 64.05454782132853,507.8417810546454 70.0,504.47939001093846 C 72.87269198842587,502.85476777482614 75.38192403472239,502.5 84.0,502.5 C 92.61807596527761,502.5 95.12730801157413,502.85476777482614 98.0,504.47939001093846 C 104.12158571035883,507.9413916127063 111.07064569124702,515.2485055794335 113.5916712583992,520.8744303660665 C 115.83425004752375,525.8789728665877 116.0,527.4318343991249 116.0,543.4373391613005 L 116.0,560.6258175904679 L 113.25,563.1663164043237 C 109.54452349717468,566.5895013716683 107.27900729105173,567.2538410383034 103.59737727099434,565.9968501911095 C 97.41427516016873,563.8858008140045 96.5083435204642,561.2130557238837 96.4286323447052,544.8471000727493 C 96.34956641860553,528.6136243054929 95.7436868136659,526.6437091089928 89.69566595529824,522.9559971211353 C 85.63159899982145,520.4779784796433 82.35030981602468,520.4890359087789 78.24085995762766,522.9945980180653 C 71.91777297196656,526.8498311297728 71.00792532530905,529.7499685837406 71.00373806043757,546.0629087952341 L 71.0,560.625817590468 L 68.25,563.2415856761518 C 65.35723561138035,565.9931495914805 61.51998882796128,567.268983172737 59.0,566.3170877985633 Z M 146.0,566.3286086110272 C 135.92270138128458,564.7201617827321 125.74755192978631,557.2590010850312 121.31136962361376,548.2251065914836 C 118.83098676354584,543.1740253881076 118.51007327922404,541.4404164977484 118.58556146148345,533.5 C 118.64209151505376,527.5537424991129 119.21573655152334,523.286702857186 120.27621001149247,520.9241666451908 C 122.79494214687891,515.3129032776574 130.24506077317443,507.7606040606595 136.23154450313143,504.75 C 141.37146501843148,502.1651327769598 142.49233330738699,502.0 154.89766186260601,502.0 C 167.88506301090615,502.0 168.13459806831744,502.04218988888033 170.5477488994624,504.6460227268351 C 171.8964870047581,506.1013352265945 173.05625,507.67633522659446 173.125,508.1460227268351 C 173.93323988695317,513.6677706846223 172.3756387337539,518.193412975172 169.05539100557922,519.9703556334478 C 167.99724155200892,520.5366600350515 162.93939925383845,521.0202967651211 157.81574145408933,521.0451039224913 C 152.13156190700067,521.0726249518137 147.33050793383498,521.625709372794 145.5,522.4638850420431 C 142.75575757448587,523.7204527897547 143.55286868163353,523.8444863537256 154.84999999999997,523.9187811195518 L 167.19999999999996,524.0 L 170.46264441511826,527.2626444151183 C 173.08185558696206,529.881855586962 173.6783613636849,531.225641303007 173.4873346395559,534.0765524737974 C 173.2019111274744,538.336255312286 171.56622514365253,541.1956857396392 168.65146324342385,542.5303987191246 C 167.46815845954075,543.0722516415236 161.2125,543.493572621931 154.75,543.4666675644744 C 148.2875,543.4397625070178 143.0,543.7203339472882 143.0,544.0901596539641 C 143.0,545.4455717276629 152.10357876482644,547.0 160.04161025286874,547.0 C 167.72555453253608,547.0 168.35219334275092,547.1655136975223 170.86908346511296,549.8598533907718 C 175.67523548025508,555.0048559600681 174.16338256008527,562.2709938021367 167.64292177016395,565.3651550398688 C 164.36772791966231,566.9193362833088 152.89955078466573,567.4298522077632 146.0,566.3286086110272 Z M 200.19740275532234,565.4792784692311 C 191.0853865862961,562.961453612774 184.73338330584826,558.412304779506 180.08798273519255,551.0774054563728 C 176.2365126123115,544.9960901493916 175.04630880012076,538.1434569117594 175.12449851865694,522.5 C 175.1794815283289,511.4995211802193 175.48563517590648,509.01538120984924 177.1149737673723,506.34922353697243 C 179.34744478089226,502.6961340236281 180.75945326502546,502.0 185.9367528000808,502.0 C 188.96083791078226,502.0 190.23505202629954,502.6338654504592 192.35496533184516,505.1927783000097 C 194.94209225195684,508.3156570998047 195.0,508.69775449475804 195.0,522.6457252788839 C 195.0,538.3910476527786 195.6709845317537,541.0255526348757 200.42170545380748,543.9331162000825 C 206.46091469409575,547.629267802718 213.6679283113759,546.676148122503 217.20864751098776,541.7130614457856 C 219.29860271885946,538.7835354759598 219.54394724995527,537.1236765440954 220.0,522.8283879616259 C 220.47437888386057,507.95865405134595 220.62422726247362,507.02345170959643 222.92431402670948,504.5777712308857 C 226.23839690843278,501.0539094641523 232.70122610554515,500.97782386977195 236.69423629867367,504.41566069250075 L 239.5,506.8313213850015 L 239.5,524.6656606925008 C 239.5,542.1748060589331 239.44893774848197,542.60398226932 236.69963565006958,548.2026126222779 C 230.0312557535816,561.7819839525845 214.10197957027145,569.321379764244 200.19740275532234,565.4792784692311 Z M 249.08673595924,566.2832979513256 C 248.30944073682198,565.9759539298178 246.396940736822,564.5870961850092 244.83673595924,563.1969474073064 L 242.0,560.6694041751196 L 242.0,543.7700835631897 C 242.0,523.9981044361896 243.16375195806265,519.80523293568 250.90675337975583,511.68002163090677 C 256.72608632091357,505.57343489216964 262.6288509980176,502.8439912207557 271.3865507363742,502.21014499772764 C 278.1727446798879,501.7189882410061 278.314830140062,501.75951868481036 281.1365507363742,504.99137135689836 C 282.918965803271,507.0328572872378 284.0,509.4005274462474 284.0,511.26286895969304 L 284.0,514.2547200354247 L 288.5596911558081,510.05174349235676 C 295.3975103111891,503.74886188617614 299.9506065692463,502.04790215729 310.05365567639825,502.02196200049093 C 317.3758692457237,502.00316179808766 319.3900961825221,502.39007813780347 324.04457215760726,504.7095013711953 C 334.51590304952015,509.9275857023304 341.4807719038745,520.1420355209696 342.7439629983321,532.1334189460811 C 344.0527057513674,544.5572210337765 333.48693014533444,560.2923795992385 320.973236228337,564.5556329495303 C 304.7800673897252,570.0724357226326 287.63848796937106,562.3734782036391 280.2674804801304,546.2730770310342 C 278.04496037865965,541.4184536569445 277.812351105869,539.8080123829517 278.1906917751735,531.8946895845684 C 278.42952348616194,526.8993174850892 279.14040365863974,522.4595963413601 279.8083765761772,521.7916234238228 C 281.66454289629974,519.9354571037006 281.2099720463197,518.8172588540972 279.06574145408933,519.9648162415119 C 278.0018992538384,520.5341673086804 275.8643992538384,521.0016821271969 274.31574145408933,521.0037380604375 C 270.5165454824993,521.0087817139076 265.4161017496598,524.2692768425943 262.99459801806523,528.2408599576278 C 261.2525117423871,531.0981095034953 261.00701517383214,533.2955975177358 261.00373806043757,546.0614385533679 C 261.00029848180645,559.4601552737108 260.83263345196485,560.8025240082133 258.9039718392811,562.8726992420633 C 255.82974269888638,566.1724968777769 252.09124369544736,567.4712860717525 249.08673595924,566.2832979513256 Z M 350.5,566.076177239114 C 344.86693933406394,563.7099589331589 343.2522031346203,558.7456865856282 343.5741231085025,544.7835728206901 C 344.1062764499032,521.7033476223984 347.5999303537468,513.8123679531765 361.0,505.4244250476696 C 364.8804220698187,502.9954258237732 366.7609567321834,502.5498943774877 374.6583399253172,502.18852620327743 C 382.84727352433475,501.81381727615087 384.40201186744366,502.03743307842365 389.3465277933162,504.30110735147775 C 392.38794416179127,505.6935138256763 395.65722772019967,507.7447242343369 396.6116023675571,508.85935270405696 L 398.34682899911604,510.8859499217297 L 401.2759474112243,508.4212592721434 C 407.4010541047509,503.267321782676 412.56750059839607,501.7425253916728 422.4420762117643,502.1744052988621 C 430.45011660379254,502.524649387995 432.1706741334811,502.9508686117319 437.20586910754434,505.8317153503259 C 444.08876131321824,509.7697073575765 448.3139705354878,514.8702378539448 451.56478834190466,523.1653198174683 C 453.7448177777803,528.728080922624 454.0,530.8888203502948 454.0,543.7853214719767 C 454.0,560.0552664122333 453.15753729559384,562.7482986320895 447.1805277933423,565.5845753486074 C 444.0245518871544,567.0821839733286 443.49493289372555,567.0759951506792 440.0015203917413,565.50068560115 C 437.9271072325141,564.5652556003862 435.7281415792339,562.6987515712175 435.1149300511187,561.3528988696639 C 434.4778967325746,559.9547630332792 434.0,553.3400556157375 434.0,545.9208283479775 C 434.0,531.9241194023684 432.92460840435893,527.4114531748207 428.7704703401999,523.9761507278483 C 423.4418950669418,519.5696366947606 415.7951862957373,520.7805176341963 411.23896049147913,526.7523217251389 C 408.5857699024136,530.2298347138553 408.48434261781426,530.833263596652 408.0,546.0221101111364 C 407.45399765534637,563.1445880935999 407.12850534050756,564.1424257240765 401.4812390644498,566.0061916670877 C 398.81078819878303,566.8875199297581 397.5314208791772,566.8090486118225 395.2383983417301,565.6232805737163 C 389.8247407876475,562.8237694515841 389.53698697509026,561.8692188378072 389.0,544.9289693040848 C 388.52097815116707,529.8173371272126 388.3951092441647,529.0434022756183 386.0,526.4827572086767 C 380.6383829857746,520.7505768533316 375.25629760469155,519.8202859038769 369.4531649186181,523.6226444775716 C 364.8942747823839,526.609744020831 364.0999432127209,529.628466636611 363.92911400486713,544.615864514307 C 363.84207429741684,552.2521390314381 363.3966219150121,559.4862661576052 362.9392198217454,560.691702572456 C 361.4038015300476,564.7381403743079 354.4649735582651,567.7417004018465 350.5,566.076177239114 Z M 481.34374563837525,565.9954980461619 C 472.5626879713329,564.1802387162805 462.51415846575475,556.67677435915 458.3930292747234,548.8576788150319 C 456.1729513055983,544.6454833338133 455.3000260909866,529.3016717562292 456.93534767004684,523.2353328134707 C 458.72186696628376,516.6081154407387 465.43975822304714,509.0456970380642 472.91218254271956,505.25 C 478.5230443696461,502.3999033370758 480.27955449635436,502.0 487.1872770031597,502.0 C 491.9592715312674,502.0 496.49260781759716,502.5968113249071 498.68785796461054,503.51404540216924 C 501.92379431335564,504.866105938395 502.4904699295461,504.866105938395 503.9844800052981,503.51404540216924 C 506.4442001018426,501.28802930851936 513.2133884217585,501.59341096723983 516.3651413081988,504.0725801490329 L 519.0,506.14516029806583 L 519.0,533.8982661223234 C 519.0,561.4072424828724 518.9802079343183,561.6693438034338 516.75,563.6944471146298 C 513.3494150699582,566.7822918379228 509.8590302407048,567.2223600919475 505.6774606247815,565.0904745754511 C 502.46251380861173,563.4514014083804 501.56776978001363,563.3823615429025 498.26072944842036,564.5181878584283 C 492.79828014536673,566.3943045801875 486.1017461708645,566.9790930965163 481.34374563837525,565.9954980461619 Z M 526.4486605453244,565.4730950068683 C 522.1023142248445,563.2930801621354 519.742492015282,558.8895568308417 520.5665653430997,554.4968683424495 C 521.3843729121239,550.1375792198581 524.6150074396362,547.4770856865182 530.1691518586331,546.5889421718014 C 536.4935997145268,545.5776221693606 540.4737037517098,542.6999862494198 541.835730881361,538.1539448589193 C 542.4760788966124,536.0166536711855 543.0,528.2405714502565 543.0,520.8737621457437 C 543.0,507.91535595308534 543.082656489061,507.39042209919324 545.5404689903563,504.739781705133 C 550.1956089780655,499.71942230630805 559.5741916556734,501.47116628227735 561.7704059096496,507.77123061442444 C 563.4685316778748,512.6424773812305 563.1282338116165,535.7520926656711 561.2590352899226,542.4983901455527 C 558.3735868835788,552.9125291929166 552.0481781858787,560.0485405644436 542.3194474518473,563.8650908037534 C 534.9785529778885,566.7449004446279 529.991648507577,567.2501660874736 526.4486605453244,565.4730950068683 Z M 589.0242441569874,565.4349639732006 C 578.2302134269403,562.4593297263536 571.6462514734274,557.0511197144776 566.984445998449,547.3309928533288 C 564.4969069469234,542.1443338898285 564.2173545392635,540.5607366187361 564.4545959984284,533.0 C 564.6756106983448,525.9564000288202 565.1871726516425,523.643294100694 567.4402294212407,519.5 C 571.3339001287319,512.3396731542318 576.361872395278,507.55950179731144 583.2522141623867,504.46730042474735 C 588.6787595167489,502.0320117902793 590.1386239266183,501.8112409115841 598.4204220933123,502.17345822234626 C 607.1367706763691,502.5546812707559 607.8736039286067,502.7677351308343 613.5118861856721,506.5371248583829 C 624.5544549665143,513.9194699469242 629.8130306032797,524.390523454604 628.6629525562698,536.706440206013 C 626.828333335673,556.352948240965 607.3331599287205,570.4822570702411 589.0242441569874,565.4349639732006 Z M 496.256037278234,542.2055011833045 C 501.5912944916404,536.870243969898 500.9210549762644,528.9461091533839 494.71617878606827,524.0 C 488.2438695320628,518.8407112304112 478.24138287192466,522.1245941344276 475.82090007243687,530.203445687321 C 472.0183931356805,542.8950826935431 486.85345901965394,551.6080794418845 496.256037278234,542.2055011833045 Z M 600.3288100938353,545.6359743770761 C 608.1536737522732,542.3665375854586 611.0312972998329,534.5571128852052 606.9561834640983,527.6503093169522 C 602.7610178001682,520.5400330535107 594.1531274134918,519.288437577413 588.3652409963861,524.9471685421817 C 585.1905335352812,528.0510330826368 582.5521917959296,534.6052053206936 584.0939020715455,535.5580346718291 C 584.5922559321955,535.8660342961356 585.0,536.9416235582418 585.0,537.9482330320652 C 585.0,540.8024891911591 588.1184282794036,543.9398105149137 592.5,545.4936718941892 C 594.7,546.2738702459216 596.6269533839034,546.9319661227104 596.7821186308964,546.9561071759422 C 596.9372838778895,546.980248229174 598.5332950362119,546.3861884696843 600.3288100938353,545.6359743770761 Z M 318.50361175755165,542.9966069299568 C 324.0886159554824,537.7497679148676 323.8447261491029,530.0996030287612 317.9112221968055,524.4149454665671 C 313.755016475711,520.4330476752451 307.83330061095495,520.3642957272766 302.7533532239054,524.2389604914792 C 295.71339731766705,529.6085966339675 295.8309982318381,538.9365000194964 303.0,543.8025609445899 C 307.50329365234256,546.8592349397343 314.7955528159201,546.4801474315756 318.50361175755165,542.9966069299568 Z M 420.870863372657,416.4670278497611 C 409.7917603698433,412.979777513786 401.99584653748735,397.51753229687654 403.3247451310811,381.66644017136366 C 404.22137527889237,370.97144271709374 408.3280946411408,363.4743324056923 419.14375259505874,352.78770911792463 C 427.47480451620345,344.5560496246753 428.8660343051255,343.63200153309936 444.36224411826646,336.03770911792463 C 453.3827967984229,331.6169691030661 461.2531820247281,328.0 461.8519890656114,328.0 C 462.45079610649475,328.0 465.4002304236321,326.875 468.4062875481389,325.5 C 476.85380804564505,321.6360213053248 477.65276546350424,322.10346797726567 473.3709726925697,328.4046924105381 C 468.5937088579294,335.43506805210717 461.0,348.1305310347858 461.0,349.0869741277584 C 461.0,349.60406408637346 460.5898962148302,350.8085317088794 460.08865825517825,351.76356884443834 C 456.7262367016409,358.17018148658855 454.0700928220646,371.3756404969809 454.0069074057098,382.0 C 453.9725849191782,387.77118039234836 450.9732209912057,398.8627379708828 448.37344090341105,402.83238965910664 C 440.6921780396304,414.5610501862215 430.64314533546826,419.5429441535811 420.870863372657,416.4670278497611 Z M 386.86578465843365,362.2330253618889 C 381.62834058939245,352.5297358113226 375.10572453424317,344.24795562390574 365.8244582785885,335.51680621665747 C 351.07202479842516,321.63877521444124 335.64953396632126,316.0 312.4444682095615,316.0 C 300.63012352715435,316.0 298.99764560030474,315.7859883040677 296.63485869180107,313.92741985096694 C 294.6161952673176,312.33953896984707 294.0,310.96825291652385 294.0,308.0637834873306 C 294.0,300.01735095632404 302.16268725410976,296.32449488970354 328.5,292.45574530918503 C 339.54571810035634,290.83321389606857 348.53149435790766,286.4747422540116 354.53802541698906,279.82623037999485 C 360.02937631271163,273.7479613632378 361.9524289964388,268.6977032846409 361.97803799950907,260.2875126071103 C 362.0130766830034,248.78054341863904 358.5566915490747,241.20769308006513 345.9604863073141,225.19347156270607 C 341.9958490413056,220.15301864889162 341.0,218.12638096955448 341.0,215.09845912481816 C 341.0,211.08578209791895 343.3215525471487,208.03333260548925 346.0,208.52430361802448 C 352.33208673093264,209.68500252605688 358.1734808104992,213.84408739315472 369.57933700433375,225.31284114436133 C 385.6165536706986,241.438494990559 392.27537525457785,251.58311437721835 398.0733288616493,268.72302995297 C 402.1363267169303,280.73406780243505 403.4156233436761,290.4999921766448 403.2839511902143,308.5 C 403.165310522155,324.7185617618494 401.7404642764125,336.1528154882763 398.1748555314025,349.5 C 395.8476043343962,358.21162635974713 391.9368507230863,369.0056443092861 391.1160094048307,368.9830253618889 C 390.7772042321738,368.9736893109278 388.8646030962951,365.93618931092783 386.86578465843365,362.2330253618889 Z M 434.03653501004675,323.82590546349223 C 428.7004535754711,322.2949068254798 425.1784839235939,319.28573360969165 422.4723703209107,313.94547545269893 C 416.0023443007506,301.17749365184005 423.8664579504453,286.75205884133413 438.054534525406,285.3625347741555 C 444.65787614785137,284.715829629895 450.62937654843165,287.4612265094778 455.3763101137772,293.3262198547974 C 457.8719706285619,296.40969092299287 458.481035796619,298.19076260623757 458.8107991145628,303.3695968635798 C 459.4652137137227,313.6469823707544 454.15910150660403,321.2577784320136 444.5,323.89622149629395 C 439.83493581016603,325.1705125105953 438.6963054937687,325.1628607464088 434.03653501004675,323.82590546349223 Z M 482.69868265382337,316.75 C 482.41370928056415,315.5125 481.6534363865182,311.125 481.00918733372123,307.0 C 479.3013235260192,296.06488387342404 476.8921767387421,284.65025701610597 476.0493274794575,283.5 C 475.6463157298088,282.95 474.5336417652746,280.475 473.5767186693814,278.0 C 468.1259047015648,263.90193441014725 456.3836782658709,253.84275967078747 440.747773703583,249.8765350226976 C 430.31981180346423,247.23136413713542 423.24266183933685,246.19120354667024 414.9463443236017,246.08438279266704 C 404.05862708158674,245.9441959973859 394.0,239.63537948913586 394.0,232.9467406687101 C 394.0,229.15724711367116 400.4462771841612,222.59900963289437 407.20492910663114,219.5124655787572 C 410.5633217963696,217.97875336707963 419.0835204792069,215.98184790189003 430.5,214.05272736013427 C 451.40794835642856,210.51976848372283 458.2003849336964,207.75613680543353 466.58611473568106,199.37040700344943 C 482.675022760807,183.28149897832446 482.82660269977384,159.88446252494143 466.96380573116016,141.07212525475808 C 462.47996995060225,135.75456170434072 459.7610411847361,128.96560019140833 460.58510252516646,125.14498103841676 C 462.1390779113311,117.94024052655398 464.95368848358936,116.00000000000009 473.85127234357844,116.0 C 481.99947143295793,115.99999999999991 487.13426206365017,119.49367962667039 495.18769619941065,130.5171701618293 C 498.6594632897348,135.26930335312542 503.2123940689043,141.48449455406222 505.30532015312065,144.32870616391114 C 513.5142673745976,155.4843715111197 523.6233900528115,173.62886451741318 531.3080216216238,191.0 C 535.52102569085,200.5235098546872 537.3364483537586,210.37709421369476 537.7564155143209,226.0 C 538.1360639651306,240.12303755125788 537.944258444123,242.41993306786662 535.5973257160958,251.85537502490232 C 529.9839467931956,274.42300569337783 518.6432576142674,290.67420885277056 493.8006464998574,311.75 C 489.100471254871,315.7375 484.7963104419887,319.0 484.2358446934521,319.0 C 483.6753789449155,319.0 482.9836560270826,317.9875 482.69868265382337,316.75 Z M 244.0,310.0458618097216 C 233.9602560737462,308.5726593789805 230.52993258047965,307.8225148919597 227.3488708774668,306.4045863619517 C 225.61574986007352,305.6320638628783 223.64165486575678,305.0 222.96199311231842,305.0 C 221.44984675270794,305.0 206.6047460037387,297.78330054809965 202.5862492596266,295.09467015547244 C 197.56652926408424,291.7361576066522 194.0,285.3763672426546 194.0,279.78377789554986 C 194.00000000000003,274.15265029511414 194.9921018741212,271.8182142867994 199.33488710741213,267.2306793794637 C 203.57443137513718,262.75220386787475 208.64727811568122,261.5182977669614 216.62845269122047,263.02423728259134 C 225.328933184555,264.665900079949 232.39489171494404,269.52363105346143 248.52924607342493,284.95551121037977 C 262.7308348279993,298.53877651056405 271.10630306768246,303.9716019510883 281.1737736298361,306.1306878962713 C 286.5887753297003,307.2919978788671 287.35108668463835,308.4767152909771 283.25,309.3573767239815 C 278.47103868942384,310.3836039753607 249.73661090614596,310.8876351849419 244.0,310.0458618097216 Z M 317.25,281.80330230109337 C 315.4625,281.2023596204046 314.0,280.3257764151041 314.0,279.85533962264776 C 314.0,279.3849028301915 313.41327505265286,279.0 312.69616678367305,279.0 C 310.594960352876,279.0 305.4327681384334,272.855461474382 303.6478012327294,268.22976355547206 C 298.43547078092496,254.72213714148384 305.5335744605872,239.92106723270817 319.2940725704158,235.60392906050618 C 325.17045507014706,233.7603071943813 333.26475416054757,234.0013302473042 334.53570850564154,236.05777757581544 C 334.85598752135115,236.57599990911694 335.94280724445895,237.0 336.95086344588105,237.0 C 337.95891964730316,237.0 341.0695418752522,239.0551747721505 343.8633572857677,241.5670550492233 C 349.45529466207427,246.59468756685592 351.0132381356865,250.31698575821207 350.95053024153947,258.5 C 350.879174445092,267.8115150254524 347.2777839429597,274.15553895068814 339.0,279.5514382505007 C 335.2397026371764,282.00259982308614 333.3493514532812,282.5185692186644 327.5,282.6903513263892 C 323.65,282.80341704316527 319.0375,282.40424498178214 317.25,281.80330230109337 Z M 269.5,280.158321224578 C 261.2491605309093,275.113750672429 260.1634344731698,265.30380770325837 267.0737032509795,258.2358182464968 C 272.53217252465186,252.65276431373775 279.51211191527057,252.69310479130058 285.6775849153929,258.3433391616316 C 292.22987589990277,264.34806576157825 291.2180653261101,275.4573363839692 283.7014514851578,280.0404844880994 C 279.6747848685063,282.4956870381526 273.408015956312,282.54768563827105 269.5,280.158321224578 Z M 162.20238095238096,271.21333686365847 C 158.7150109707984,267.66346170410264 156.80106806818486,264.4982812257443 154.79496746764463,258.96333686365847 C 149.32281022455484,243.86534732468374 147.0,232.14517169441797 147.0,219.6323632063026 C 147.0,194.70937210375754 158.67028415112196,167.87753971137192 178.06276306710055,148.2141490936069 C 193.29030231182878,132.7738820904171 207.03351675630554,125.56623243290906 231.10371658595673,120.3967405820395 C 240.99537666398987,118.27233544511276 244.94047858709408,117.89905421931573 253.78887027947872,118.25029616991417 C 279.23017039367824,119.26020307599771 304.26330238467614,129.64956406093563 310.04803262708833,141.59922216725778 C 314.13112739148625,150.03377043582523 310.5309597152633,159.38886035957157 301.4601464652163,163.91497368900275 C 297.2834296629643,165.9990529298398 294.4882652305198,166.44468615622782 281.06014097038684,167.16734773951407 C 272.50206343667406,167.62791793834376 264.825,168.26885792359607 264.0,168.5916588178526 C 263.175,168.91445971210908 261.375,169.3865085133479 260.0,169.6406561539389 C 231.98338611194941,174.81909711175484 211.24491223595325,191.38236621161568 200.30781806596144,217.3152188263496 C 196.61482148833426,226.07165215917087 194.03090797314428,235.55792076881477 190.9564521062892,251.64669657861833 C 187.37160967646957,270.40634988463165 183.15719674924742,276.0 172.6079900747351,276.0 C 167.11960276502722,276.0 166.72762300395064,275.8196861855491 162.20238095238096,271.21333686365847 Z M 422.30829742754395,273.0119375300866 C 413.9938912298466,269.5811806200997 417.16857477341426,257.0079131500052 426.0,258.39102705931793 C 430.7688049815757,259.1378827854992 433.3501317390922,262.45496511935335 432.6275616504739,266.90764263435176 C 432.3192961843718,268.807260029514 431.48948621324615,270.92554441593376 430.7835394924169,271.6149412708401 C 428.95773087170716,273.3979465368744 424.8747970498791,274.0709471700345 422.30829742754395,273.0119375300866 Z M 241.5,247.05406618221082 C 228.886400083774,240.86424469142537 223.9814646010595,232.6052379027967 224.0219620004909,217.62427347676856 C 224.04823463118552,207.90539396004743 225.77632243102414,203.44952318926266 232.1139712215389,196.75904465659193 C 235.94716474933935,192.7124494827312 246.0,186.90380555941397 246.0,188.73553739005087 C 246.0,189.10099182552278 246.54000000000005,188.85999999999984 247.2000000000001,188.1999999999999 C 248.56390786120957,186.83609213879066 261.07461822720995,186.53837437281558 262.54999999999995,187.83471556977787 C 263.0725,188.2938091331557 265.60889061590785,189.44510160750298 268.18642359090643,190.39314329054963 C 273.75759190444444,192.4422731506655 279.2120646427638,198.11124199597617 282.58740253235,205.36043800035378 C 284.46446740414166,209.39180067089768 284.9825685554456,212.18488188560542 284.990231084296,218.31407702183353 C 285.0068447775523,231.60323650026072 279.0900182710619,241.35372567763875 267.61774587625507,246.94263809580676 C 258.8406703673689,251.21853955792835 250.06266752546273,251.25598980588458 241.5,247.05406618221082 Z M 379.75,211.61367264618008 C 378.7875,210.6475812622096 378.0,209.4755500526995 378.0,209.00915884726874 C 378.0,207.252471701168 367.4327148702807,196.6909254313338 362.0752603274189,193.09306755017536 C 359.0088671473385,191.03379727892647 353.0054807161045,187.63834230122248 348.7344015913433,185.54761204416653 C 339.21361838464463,180.88710612993148 331.998476481799,173.52220836952128 329.4567758413976,165.86986424328057 C 326.0832950530793,155.71326456937237 330.47730491707364,146.5039159506192 339.88592140877836,144.01155251923143 C 349.59463381980163,141.4396930114676 359.2102312875599,144.99394579930322 367.5152912396601,154.22430997677162 C 371.8484801301027,159.04027900519887 373.74866950172884,162.369571266697 378.36957152252455,173.24192574153432 C 380.27748852999457,177.730995174392 382.25440058389484,196.7750614032939 381.8152636303524,206.43510121760863 C 381.5148849243918,213.04276708481473 381.4173751261554,213.28726926251815 379.75,211.61367264618008 Z M 303.97633383652305,205.8394135369671 C 299.6939077536905,203.23511475216245 298.3020312582308,201.45592679573696 297.03650776374326,196.96847203558116 C 295.7106033924017,192.26691105421236 297.16952632320266,187.22910450642797 300.98803999775873,183.3234366865408 C 306.12337524818696,178.0708920209096 314.0710323155427,177.9091374063618 320.09078369351874,182.93464827794105 C 323.08234077377995,185.432110662319 323.4233550407208,186.28490359045176 323.8007942529009,192.21247350420222 C 324.1162978804308,197.16736358947804 323.8122322249048,199.35693643525423 322.5387362273526,201.30053699415612 C 318.5443596489712,207.39672619705016 309.98049439109275,209.49076156576845 303.97633383652305,205.8394135369671 Z M 420.6245265463485,195.54915399994798 C 414.7415803826636,192.6673314052788 408.5257401717707,186.8468423395921 405.901219524901,181.76230546112862 C 403.25865718860985,176.64281605321065 402.3994277162229,167.2449839409194 404.02878187290196,161.28249737757304 C 409.0178880441417,143.02527663327763 429.7408232218736,133.74716373895492 445.8936936008396,142.53865756958822 C 456.03500659305485,148.05825182830776 461.0073413473777,156.8975562587835 460.990231084296,169.37572652323144 C 460.97324780592004,181.76128939926565 455.97677901456757,189.555601225021 444.5,195.09989463416173 C 436.5985274183612,198.91700066201858 427.83622331419855,199.08187894986924 420.6245265463485,195.54915399994798 Z M 387.0,135.02934946189674 C 382.28185296776667,134.12940476860277 371.3172979742104,130.50644156872573 357.0,125.11659914415132 C 342.5332096646306,119.67047932199982 322.0036202203642,114.08446304781232 311.0,112.6001896314229 C 309.625,112.4147164956127 307.825,112.01002707478283 307.0,111.70087980735653 C 303.83388208389187,110.5144595623695 285.6548264440712,109.0 274.57956071300936,109.0 C 268.2108023208542,109.0 263.0,108.62628390692079 263.0,108.16951979315732 C 263.0,107.43415661083661 269.67222755104154,102.21916256644803 274.09205654423454,99.5 C 288.4769807599928,90.65012198233845 313.59886965336074,82.27631763321003 331.87832827512835,80.23827427571257 C 340.5532750872975,79.27107288900785 367.6074673319388,79.2913547502792 376.5,80.2717260434621 C 388.8174772568143,81.6296857561529 401.7484569302182,84.90067391106547 409.5710248037132,88.63728945288086 C 414.4233850737027,90.95512230426007 421.24512657579527,97.21563653909647 423.6287225469375,101.53845505751237 C 427.2967373073218,108.19065716054435 425.83664499538304,120.83858445737525 420.72915789183685,126.65569089959243 C 414.60213922785925,133.63397963909068 399.43086385512225,137.400426472225 387.0,135.02934946189674 Z "/>
                    <path transform="translate(330.834,234.621) scale(0.9, 0.9)" fill="#000000" d="M 34.72075533426727,173.75 C 34.442321473221725,171.9625 34.53312478931567,170.1556219723591 34.922540481142704,169.73471549413136 C 36.52049658980897,168.00753784778215 50.904454674338986,165.90103391306292 59.86602176083413,166.0817890080777 L 69.33616417343688,166.27280208370075 L 74.6124208572516,160.7822637178084 C 77.5143620333497,157.76246761656762 80.16986849438156,153.98858714773493 80.5135463262113,152.39586267595803 C 82.19363765096438,144.60972600980284 84.880622163242,142.25373726522858 93.12351660171163,141.33924962041345 C 96.94550088501055,140.91522897671308 99.29125924551397,140.0067236428602 101.23669644210564,138.19703886093714 C 103.8983867265597,135.72108106059903 105.53005047051957,134.9549976528357 116.97352238643816,130.80843242076762 C 122.56510568077779,128.7823108860725 129.07101023128328,123.47867666223073 131.4600614864512,118.99895935527638 C 132.19365975507966,117.62338700067839 133.09520159385374,113.79838700067839 133.46348779483807,110.49895935527638 C 133.8317739958224,107.19953170987438 134.8561094978694,101.5467837969943 135.7397889104981,97.937297326654 C 137.31147056050963,91.51758948880448 137.29620735216847,91.2533058574269 135.03928879917135,85.80808379148317 C 132.36478844097752,79.3553704906546 132.7043792187929,75.3343957664557 136.37643749594145,69.97537730046287 C 138.59653635366973,66.73535498139064 138.65682698553815,66.2787970745978 137.35270069753693,62.58250928786809 C 136.5882195318252,60.41573876724923 135.47622699081134,55.460768055407556 134.8816061619506,51.57146326155326 C 133.55495207955232,42.89406443523934 132.0584625920339,41.000000000000036 126.52915344478473,41.000000000000014 C 122.7354388167537,41.0 122.17527289846383,40.65658662041868 120.18097101363772,37.10820524473455 C 117.5679350321416,32.45893510099112 118.14746343551332,31.999999999999993 126.63144739511904,32.000000000000014 C 136.80159163808318,32.00000000000004 141.59096090785587,36.32877429642766 143.48437754575832,47.23217917565994 C 144.19010402534943,51.296166671566596 145.8722005244741,57.35616913162531 147.22236976603534,60.698851309123754 C 149.60276952295254,66.5921272021281 149.62288338159308,66.84808562380358 147.88555725290814,69.13822763410592 C 146.90014112912698,70.43720243534766 145.3314945046656,73.18290514939575 144.39967586521627,75.23978922087946 C 142.74096399128848,78.90120775043268 142.7593532199784,79.0834549687109 145.2771957399423,83.93648655655693 L 147.84893132275806,88.89339467135493 L 145.93913470430894,95.19669733567747 C 144.88874656416192,98.66351380105486 143.53962924527718,105.1 142.9410962178984,109.5 C 142.3425631905196,113.9 141.02609044529163,119.3 140.01560122850287,121.5 C 137.22000671261827,127.58646567698285 128.7793733169988,135.63120688587446 124.30907626402438,136.46983966816998 C 122.26524863868262,136.85326404191096 118.90252230828436,138.029405542194 116.83635108536157,139.08348744657678 C 114.7701798624388,140.13756935095955 112.19239139909666,141.0 111.10793227793462,141.0 C 110.02347315677258,141.0 108.21384356753552,142.29531390286687 107.08653319074116,143.87847533970415 C 105.30273354152753,146.38359094389952 104.26110210710614,146.81306523860093 99.05591255363173,147.18957465964064 C 92.06836469481303,147.69500824121988 89.34804138079275,149.62785867900587 88.38279528319971,154.77306272606756 C 87.90087612086784,157.3419127121692 85.53186299082043,160.53638512128177 79.46752508640519,166.79477096492136 L 71.20857490597942,175.31799274233404 L 65.43750600656833,174.158996371167 C 57.04945103584299,172.4744340410912 50.034798258162745,172.7314809260722 42.8390943779996,174.9870988444819 C 39.35259247009982,176.08000320894692 36.21357471154695,176.98000320894693 35.86349935899321,176.9870988444819 C 35.51342400643948,176.99419448001686 34.9991891953128,175.5375 34.72075533426727,173.75 Z M 32.64297788941648,159.04278041354354 C 29.94487188260173,141.54758741666572 28.71046611778934,95.98093505302987 29.919262599508766,58.5 C 30.149857029238586,51.349999999999994 30.149857029238586,44.6 29.919262599508766,43.5 C 29.54637620167892,41.72122746809879 30.662266261271192,41.20749822337179 40.007431751216025,38.855646844924465 C 63.98597250254562,32.821086603070164 92.58781899701219,32.315064094069335 109.21775457407014,37.631181102464325 C 113.45833336023765,38.986773426086074 114.00489229212175,39.50915689585795 114.6214883054665,42.79589621671425 C 115.67228258045887,48.39711125379096 113.25735295140385,66.52970282080784 110.95811733048541,70.30245742189089 C 109.59121643106899,72.54536876624361 109.18872834972255,74.46070157914265 109.60998128404313,76.71787523343198 C 110.12829154820615,79.49510520075191 109.71706914440256,80.40114255434003 106.60697072113064,83.33434291138943 C 104.62501393535814,85.20356875587844 102.72341339381663,88.13293303091686 102.38119173992726,89.8440413003637 C 102.03897008603788,91.55514956981054 101.15505615329113,93.45635167875473 100.41693855604557,94.06893487579524 C 99.6788209588,94.68151807283573 97.66725465304577,98.85410994275291 95.94679120992505,103.34136125338898 C 94.22632776680433,107.82861256402504 91.5542074458577,113.75 90.00874605226588,116.5 C 88.46328465867406,119.25 86.65391556496701,124.2 85.98792584402798,127.5 C 83.33717656804612,140.63454597828718 78.6496424548298,149.05647691699275 71.2688017664784,153.94534278904783 C 64.8034466835084,158.22781617527534 58.55738644402456,160.0003064138422 45.09839443078718,161.3719108596857 L 33.18934494671692,162.58556082708708 L 32.64297788941648,159.04278041354354 Z M 56.75147634227721,149.99608016502748 C 69.43901845625679,145.5367682571833 74.00043171798714,139.79308151382574 76.53966845576477,125.0789831611626 C 77.42999229218789,119.91982950685801 78.82878722622434,115.02835563091853 79.64810164251244,114.20904121463042 C 82.41232066103107,111.44482219611179 83.8665979220932,108.53133816383469 86.45435257600282,100.57346844915068 C 87.87201280481035,96.21387609618355 90.1497353869946,91.18140095452605 91.51595831419007,89.39019035657844 C 92.88218124138554,87.59897975863083 94.0,85.24342109540997 94.0,84.15561554942096 C 94.0,83.06781000343193 95.35,81.04183717586261 97.0,79.65345371037802 C 99.35405239247612,77.67264921425783 100.0,76.31935817409878 100.0,73.3683106535907 C 100.0,71.05795903417209 100.92309337943341,68.2369011692126 102.39343618451122,66.05375058520588 C 105.31528043964926,61.71542487643096 106.94046181933584,49.00601205651968 104.79482103348896,47.2741904901817 C 102.44045342356546,45.37389821905776 88.68414277766439,43.65447824605244 76.5,43.737582334848405 C 65.02485469143224,43.81585058170595 46.35837541061294,46.66746826684644 41.97898685025787,49.01124589645665 C 39.93506146545145,50.10512156596639 39.2522523486275,55.77681556126073 38.00750635902348,82.0 C 37.18949057193697,99.23321789162321 37.82163397949884,124.416262251827 39.58565590867748,144.86961097839594 L 40.30750236531203,153.23922195679188 L 45.72862570893625,152.60207534825867 C 48.710243547929565,152.25164471356538 53.670526332933,151.07894688111136 56.75147634227721,149.99608016502748 Z M 26.923681718622056,30.75 C 21.515610502829308,26.59662693057671 17.417268112898206,19.457924781964227 18.337024789682456,15.79332229083234 C 19.62270972371499,10.670745493086994 25.9371852629659,10.994446347239796 28.62794063677063,16.32086859756999 C 31.05905774901692,21.133329962839696 34.08229972356762,24.0 36.726491248795114,24.0 C 38.30117868589725,24.0 41.621069192944574,21.61792218023094 46.555280736106,16.947676622707128 C 50.65329019667011,13.068898765196051 55.565357062828184,9.24389876519605 57.47098488312393,8.447676622707126 C 66.12740472894482,4.830793471382525 74.75644125419234,7.912924958172637 80.5933115576246,16.706542010842806 C 82.52578998542899,19.617943904879265 84.67658162990851,22.000000000000004 85.3728485453569,22.000000000000004 C 86.06911546080528,22.000000000000004 89.08256100351068,20.163846331131406 92.06939419581335,17.919658513625343 C 99.72799209342823,12.165292268701396 102.29077715089701,11.0 107.28754840297046,11.000000000000002 C 110.81324961193114,11.000000000000004 112.77904118637602,11.791004215668906 117.30148086769505,15.02945200192835 C 124.90825822012877,20.476545388118662 132.66777156667905,23.95753011110554 137.5,24.090682183041512 L 141.5,24.200902197491004 L 137.5,25.170271780248797 C 130.39018088595057,26.893282377266157 123.16926482840815,25.75108450763952 114.69240164712232,21.562586821392884 C 105.70316355776097,17.120919882432226 105.55946188987252,17.144162711663455 95.85855156042803,24.608842078996332 C 89.35235035918647,29.61524912918967 85.00573316756562,31.30759650482141 81.74836442199899,30.102617380724368 C 80.57291342108454,29.667789755074477 77.08728583529953,26.20431681573654 74.00252534247676,22.406010848862284 C 69.37353015239577,16.7062684889529 67.81105700322034,15.443445582684543 65.05720627124064,15.176220159020598 C 62.064960342426346,14.885861579759734 60.9866049201717,15.602950529626995 54.61027132075023,22.123263275209183 C 44.924600602911745,32.027638767226165 41.82374173273971,34.0 35.93819248964673,34.0 C 32.07703779793661,34.0 30.340073164170107,33.37377244277235 26.923681718622056,30.75 Z "/>
                    <path transform="translate(545.635,229.621) scale(0.3, 0.3)" fill="#000000" d="M 163.5,557.3925634972709 C 135.45470351036388,555.2674838819105 115.3257832028964,551.7915606957841 94.48812837667275,545.4753835875017 C 78.64268439111132,540.6724136080671 68.16811861542325,536.5593707557863 49.51963581905162,527.817626611908 L 34.00000000000003,520.5425744257478 L 34.000000000000014,379.7712872128739 L 34.0,239.0 L 175.0,239.0 L 316.0,239.0 L 316.0,379.8161240028246 L 316.0,520.6322480056492 L 302.75,526.9337532527337 C 259.7573965600446,547.380403529164 225.87607818845413,555.9102940813 182.0,557.33352320484 C 174.575,557.5743714455805 166.25,557.6009395771745 163.5,557.3925634972709 Z M 205.96169155479632,520.1738941840545 L 216.42338310959263,519.5 L 212.46169155479632,515.4689684388205 C 198.02029627532147,500.774810816036 181.54751685150924,486.0057712601009 178.4649580198159,484.98843510363236 C 173.2402276261268,483.26411857716397 167.86294292913516,486.36594433244073 155.20674040218466,498.40467443136623 C 149.3180331809831,504.0060826513025 141.92059911244866,511.0224639644314 138.76799802766368,513.996632904986 C 134.91232024688915,517.6340855328208 133.4301353940694,519.6478043045494 134.24005635429114,520.1483629861673 C 135.7346269288789,521.0720583998481 191.7090502207584,521.0919839644798 205.96169155479632,520.1738941840545 Z M 144.0,435.8103548260726 C 133.5385148561657,425.60770675101287 125.94462496129066,419.0210224359566 123.25,417.8125037340182 C 119.07021069149908,415.9379001724651 118.92884165787825,415.93788793198394 114.6926367258275,417.8117627920932 C 109.97250523213357,419.89970137965366 105.51096016575612,423.6559721095242 87.53809628183245,440.6737543074414 L 75.57619256366489,452.0 L 118.03809628183245,451.95105669900477 L 160.5,451.90211339800953 L 144.0,435.8103548260726 Z M 257.0,435.8260226020533 C 247.7336871623485,426.80003256411163 238.80199413259004,418.9771618496771 236.626858103832,417.98209821173407 C 229.16150243014903,414.5669076779102 225.6585249686292,416.7709444425971 200.59273194095917,440.6543933431681 L 188.68546388191834,452.0 L 231.09273194095917,451.94904668183636 L 273.5,451.89809336367273 L 257.0,435.8260226020533 Z M 148.41256928241282,371.71201034164847 C 124.36917029314532,348.92921406081945 124.46328385071703,349.0 118.21577995386619,349.0 C 113.01480659711308,349.0 109.65449808545515,351.53571590812794 91.92892227193995,368.83627484426063 L 77.5,382.91922609937535 L 118.91256928241282,382.9596130496877 L 160.32513856482564,383.0 L 148.41256928241282,371.71201034164847 Z M 256.61878092245286,367.476228626723 C 247.31300594472162,358.43786219192015 238.9346431608181,351.17859053343255 236.38309602231575,349.94340775533897 C 228.93970279119233,346.34012291261485 225.7734147568979,348.2843385604458 202.73708038549574,370.6032812032854 L 189.9418972139945,383.0 L 231.22094860699724,382.9505443795164 L 272.5,382.9010887590328 L 256.61878092245286,367.476228626723 Z M 152.97497247095637,308.39489360426285 C 138.65793782193091,293.82860962123135 125.05663222626836,282.0972504604605 121.11710931610884,280.91694068749365 C 115.00210580735383,279.0848410734777 112.26033299339309,281.00280403436375 88.61245153136221,303.6550499028082 L 75.72490306272441,316.0 L 118.08742400231858,316.0 L 160.44994494191275,316.0 L 152.97497247095637,308.39489360426285 Z M 273.0,315.50605595225556 C 273.0,314.7928651342455 251.66082290428722,294.2805302444389 244.0026995968771,287.6323317640496 C 230.34072409248708,275.77204679063874 230.9609102154552,275.4855599354614 194.0,310.7304238163604 L 188.5,315.97506606718594 L 230.75,315.98753303359297 C 253.9875,315.99438986511683 273.0,315.777725178515 273.0,315.50605595225556 Z M 75.5432892566813,227.06857461882248 C 69.95880770967962,218.22218355634058 59.903174536045135,197.69117785452096 60.1937218919256,195.72872265280654 C 60.57228675638326,193.1717674012609 63.50400300422149,191.53943272344233 77.5,186.0928522234589 C 83.55,183.73847818102098 89.4,181.450061343755 90.5,181.00748147397888 C 93.12831031818251,179.94999307547673 104.98485826919047,176.45103624240463 112.34218003985987,174.5616892066637 C 117.8075487709344,173.15819231837312 124.04299100623899,172.0611830029749 145.0,168.81615723556652 C 156.09323080468783,167.0984588838725 194.75808052340753,167.12469457908657 205.5,168.85720898080797 C 224.68273941141342,171.95110410515363 238.36766824756063,174.9823161565086 255.5,179.9322101285975 C 268.60098212423327,183.71736169945436 290.0,193.3835189071462 290.0,195.51621616109026 C 290.0,199.37965633434814 272.6348615298971,231.0 270.5131523451719,231.0 C 269.8207485946973,231.0 267.12339332450756,230.0574267770224 264.519029522528,228.90539283782758 C 259.0200179489374,226.47291855754986 244.86233661889332,221.1887608417739 240.5,219.9406240160023 C 212.19412000388962,211.84184249235614 199.41275626300956,209.87607078152953 175.11570580028683,209.88452996564166 C 144.5575703438019,209.89516898926908 123.06000664255953,214.13991506224443 91.0,226.49338001178353 C 85.775,228.50669382924406 80.74578250505402,230.3880922496582 79.82396112234227,230.67426539048162 C 78.6546945879226,231.03725618554242 77.3603772896115,229.94702827633114 75.5432892566813,227.06857461882248 Z M 40.5,174.46140681216187 C 35.324595957715076,167.30914792528486 32.86471009484298,162.88217766217412 29.963923680248836,155.5 C 27.893020127540588,150.22978159632657 27.602244618613224,147.79717627523797 27.57327274804386,135.5 C 27.542642884395367,122.49908479605307 27.738494842567526,121.00045760197347 30.31771188398344,114.5 C 36.30805655138491,99.40240219943871 47.26950071673077,86.82072727792806 59.99781119050586,80.43283188967133 C 71.97674968037998,74.42102018117026 77.13787441803666,73.16356784366134 94.0676237380311,72.13208978324673 C 106.09572779503843,71.39925403897884 106.88992042102676,71.21258175740897 112.5676237380311,67.78372756476736 C 121.883505816706,62.157720086012255 130.3353121331542,59.99999999999999 143.05654499518738,60.00000000000003 C 154.08750795968504,60.00000000000006 160.32512759190885,61.133973378301846 169.6085119505185,64.82703746688061 L 174.71702390103704,66.85927714389436 L 183.6085119505185,63.72564543199148 C 191.24919849593675,61.03283433825914 194.20979750798466,60.53627864750951 204.65432189671424,60.19581357948748 C 215.2347170302028,59.85091946897055 217.75987410138399,60.09703092719149 224.15432189671424,62.09635810009561 C 230.8486192731494,64.18943807769458 241.09489247669978,68.98880691940387 243.449999999998,71.13448097939417 C 243.9724999999969,71.61051644072738 249.63801685975275,72.0 256.04003746612216,71.99999999999999 C 274.4448372405976,71.99999999999996 285.95112282458695,75.66635013591895 298.2418074977512,85.44712541350292 C 312.5765339504895,96.85452392938836 321.02092359929395,113.3807570250427 322.5398432089082,133.0 C 323.17574867961105,141.2137223457085 321.6950411092592,151.70486041997526 319.08194043260187,157.5 C 315.01914830790236,166.5101570358846 313.47530034402746,169.2096887108939 309.50270354707254,174.25 C 306.7125403119942,177.79007516267293 304.2093299150784,180.0 302.9896043053468,180.0 C 301.8999714406413,180.0 297.5190515727406,178.36933592084378 293.254226821123,176.37630204631955 C 288.98940206950533,174.3832681717953 283.25,171.944528000076 280.5,170.95687944249892 C 274.1597632767128,168.67981556815272 273.75218538028525,166.86643467666633 279.0442575582262,164.48004262191404 C 293.53327066099155,157.94640804796273 298.28270087332675,136.1482380135648 289.1215142584436,118.22907246109375 C 285.47735679997317,111.10114640274696 274.3639611976522,102.0 269.3042193224528,102.0 C 266.6303652954521,102.0 266.59858566880723,102.35564507320187 268.5,111.0 C 271.54118002541213,124.82604469982077 269.50542512221324,138.13505989714594 262.1083333440371,152.7863606894809 C 258.2653666311318,160.398063090122 256.0207000139524,161.70330099463422 249.29286234837144,160.23835306095316 C 233.12665267460025,156.71825393932846 224.4457758492784,154.69378848458044 224.06780501733738,154.35562275751704 C 223.83009777687292,154.14294909328984 226.13952019713003,151.7372444622173 229.19985484013094,149.00961246624473 C 239.35001327727878,139.96292308517522 242.99836408206912,128.31833852449654 239.69925604329245,115.4982612589608 C 234.27537105024467,94.421465994009 215.84543891245556,83.62844404794052 195.41890603312788,89.5665982519459 L 190.02999735836067,91.1331965038918 L 189.76499867918034,120.31659825194589 L 189.5,149.5 L 174.75,149.7767330755237 L 160.0,150.05346615104742 L 160.0,120.59769156179598 L 160.0,91.14191697254455 L 154.59609264605245,89.57095848627227 C 147.05553138536882,87.37885785836761 138.22361265341635,87.57025836594272 131.54085346171024,90.07059900789343 C 124.27580445234902,92.78880219055698 116.22963521805916,100.2057800821851 112.45585290867332,107.6631978014084 C 109.8015228191487,112.90845219593385 109.5020633956206,114.46280530801342 109.50108676868717,123.0 C 109.49971955042744,134.95155291157138 111.62956041707358,139.93218406805173 120.26742878761493,148.17708216634784 C 123.61295546067664,151.3704078019406 126.15890853153398,154.1704016590574 125.92510227840901,154.39929073771856 C 125.69129602528406,154.6281798163797 123.025,155.29877784068927 120.0,155.8895085695176 C 116.975,156.4802392983459 110.0,158.02999273423532 104.5,159.33340509371627 C 99.0,160.6368174531972 94.02337132627284,161.5298224119963 93.4408251694952,161.3178605577142 C 91.88877780710796,160.75314163709686 86.39167215009,151.13675820152255 84.97034916961123,146.5 C 84.29597487163154,144.3 83.4013035393845,141.57504938542525 82.98219065350668,140.4445541898339 C 82.56307776762887,139.31405899424254 81.63405822957712,134.24801141865967 80.91770279116946,129.1866706885386 C 79.76418188866879,121.03657924810724 79.81484869439683,118.94295672121034 81.3607681058525,110.87859875904036 C 82.32080946733582,105.87049992793736 82.83069243359176,101.49735910025866 82.49384136419903,101.16050803086546 C 81.27439890953205,99.94106557619679 70.38569536815885,106.5748097903201 65.59297197414372,111.45705473212627 C 59.04860049037557,118.12366616516378 56.75364629458023,123.54431683911042 56.20432364579226,133.63291470430707 C 55.48418575071999,146.85862394259038 59.70325569140691,155.94149495426208 70.11810856368714,163.5866996545529 C 73.39156957131735,165.98964089516917 74.79232618739414,167.6076738126059 74.15278778896621,168.2472122110338 C 72.54530960184162,169.85469039815825 48.665668598663146,179.9983514973795 46.5,179.99364121901687 C 45.22632104823629,179.9908709971966 43.04735790352742,177.9817818504587 40.5,174.46140681216187 Z M 165.7910617204601,47.78833399834862 L 165.5,39.5 L 158.25,39.20619044727939 L 151.0,38.91238089455878 L 151.0,30.45619044727939 L 151.0,22.0 L 158.5,22.0 L 166.0,22.0 L 166.0,14.561272899561573 L 166.0,7.122545799123145 L 170.55540216655442,6.439421056542923 C 174.74042111299974,5.8118387079472935 181.65870274058656,6.325369407252703 182.67215778527782,7.338824451944479 C 182.90555154396748,7.57221821063427 183.36357131157501,10.94868111489177 183.6899794910723,14.842075350294476 L 184.28344890834012,21.92097396011758 L 191.89172445417006,22.21048698005879 L 199.5,22.5 L 199.81489220806665,27.497326287348663 C 199.9880829225033,30.24585574539043 199.8588270236848,33.9389796490919 199.52765687735885,35.70426829557416 L 198.9255293385844,38.91388401645099 L 191.7127646692922,39.2069420082255 L 184.5,39.5 L 184.0,47.5 L 183.5,55.5 L 174.7910617204601,55.78833399834862 L 166.0821234409202,56.07666799669724 L 165.7910617204601,47.78833399834862 Z "/>
                    <path
                    style="fill:#e6ba38;fill-opacity:1;stroke:#f5deb3;stroke-width:2.92488"
                    d="m 298.85512,921.46156 c -2.27502,-0.95053 -10.11657,-6.94101 -17.42568,-13.31221 -8.26916,-7.20809 -15.30063,-11.66153 -18.61381,-11.78926 -2.92849,-0.11291 -21.61163,-0.0427 -41.51807,0.1561 -40.51836,0.40454 -62.84663,-2.36093 -101.13537,-12.52618 -38.410612,-10.19762 -87.462479,-29.3393 -91.692749,-35.78159 -2.162674,-3.29352 -1.941484,-13.22333 0.325766,-14.62456 1.049724,-0.64877 17.373702,3.4844 36.275509,9.18484 36.866654,11.1183 43.964534,12.21269 45.933244,7.08233 C 113.9214,842.2483 92.221178,830.10413 48.091058,814.6429 27.842823,807.54882 28.628205,810.58445 36.280065,768.99159 47.03665,710.52254 65.852113,638.20858 88.775229,567.2356 102.4872,524.78152 107.54573,501.05378 111.68603,459.7693 c 1.82353,-18.18306 2.77483,-21.23508 10.19938,-32.72229 9.88179,-15.28906 11.82593,-20.98032 14.37697,-42.08707 1.75345,-14.50773 3.03586,-17.822 11.83279,-30.58066 6.76453,-9.81098 10.59134,-17.94105 12.17283,-25.86121 l 2.30663,-11.5517 9.1675,14.21164 c 11.32348,17.55389 47.03552,54.77094 69.27304,72.19242 l 16.61534,13.01688 -1.47372,16.20621 c -2.23976,24.63045 -2.01571,115.33666 0.37974,153.74161 2.73571,43.86012 13.84849,164.51407 16.76319,182.00173 3.4681,20.80803 11.13683,52.63358 24.80898,102.95828 10.07374,37.07956 12.02726,46.67608 9.99918,49.11978 -2.83038,3.41038 -3.43233,3.47847 -9.25276,1.04664 z"
                    id="path2"
                    transform="scale(0.75)" /><path
                    style="fill:#e6ba38;fill-opacity:1;stroke:#f5deb3;stroke-width:2.92488"
                    d="m 245.13795,383.4757 c -18.43709,-11.69245 -47.18321,-42.28887 -40.95616,-43.59237 0.88234,-0.1847 4.86168,-0.41737 8.84297,-0.51705 8.02824,-0.201 7.51825,1.07878 14.84345,-37.24807 1.50494,-7.87414 3.83495,-14.67765 5.1778,-15.11891 3.64696,-1.19838 18.72463,13.28732 25.07658,24.09204 5.04088,8.57458 5.63088,11.75126 6.17813,33.26421 0.6032,23.71243 -2.41636,43.38705 -6.88313,44.84864 -1.17794,0.38544 -6.70378,-2.19238 -12.27964,-5.72849 z"
                    id="path4"
                    transform="scale(0.75)" /><path
                    style="fill:#e6ba38;fill-opacity:1;stroke:#f5deb3;stroke-width:2.92488"
                    d="M 774.54147,228.39178 C 714.60526,223.47934 659.63962,196.16728 614.19442,148.7164 590.70005,124.18513 566.00929,86.486975 560.22341,66.312786 c -2.48524,-8.665543 1.39251,-13.508838 19.7286,-24.640947 l 15.51171,-9.417388 19.48472,29.373207 c 20.3807,30.723918 43.70827,57.415372 69.2258,79.208322 34.2957,29.28983 84.61961,45.95492 121.39025,40.19915 29.18749,-4.56876 67.93051,-21.24864 93.99969,-40.46931 17.51116,-12.91088 68.41892,-62.923453 82.75208,-81.296921 12.66723,-16.237953 11.14115,-16.084946 29.42394,-2.950064 5.4857,3.941087 10.5144,9.318663 11.1749,11.950172 1.7146,6.831721 -5.1546,21.043144 -23.45219,48.518863 -51.89707,77.92901 -134.67148,119.0009 -224.92144,111.60391 z"
                    id="path5"
                    transform="scale(0.75)" /><path
                    style="fill:#e6ba38;fill-opacity:1;stroke:#f5deb3;stroke-width:2.92488"
                    d="m 729.04103,113.66455 c -23.00165,-4.22701 -52.00663,-12.58391 -63.08014,-18.174627 -7.23405,-3.652275 -12.7102,-9.410057 -24.5873,-25.851769 -8.40422,-11.634128 -14.91905,-21.494046 -14.47741,-21.910929 0.44164,-0.416882 15.69403,3.844873 33.8942,9.470568 18.20018,5.625695 41.68275,11.52874 52.18349,13.117877 57.93792,8.768077 166.3577,4.808526 223.92412,-8.177833 11.94238,-2.694068 22.14508,-4.470975 22.67268,-3.948682 0.5276,0.522292 -8.77931,10.45447 -20.68201,22.071506 -23.2756,22.716979 -25.12921,23.710359 -58.86892,31.549049 -20.93892,4.86471 -127.47782,6.17358 -150.97871,1.85484 z"
                    id="path6"
                    transform="scale(0.75)" /><path
                    style="fill:#e6ba38;fill-opacity:1;stroke:#f5deb3;stroke-width:2.92488"
                    d="m 749.25232,158.31324 c -13.34239,-4.80218 -40.30479,-19.54114 -47.76315,-26.10966 -5.01942,-4.42056 -5.15111,-4.8823 -1.40296,-4.91928 2.27502,-0.0225 9.2552,1.35587 15.51151,3.06293 20.85785,5.69115 74.45347,8.21295 115.32667,5.4264 20.17738,-1.37561 39.47822,-2.99905 42.89075,-3.60766 6.04167,-1.0775 6.09598,-1.015 2.0682,2.38015 -7.90627,6.66444 -42.30409,21.79968 -56.26943,24.75887 -20.65599,4.37691 -56.86325,3.86656 -70.36159,-0.99175 z"
                    id="path7"
                    transform="scale(0.75)" /><path
                    style="fill:#e6ba38;fill-opacity:1;stroke:#f5deb3;stroke-width:2.92488"
                    d="m 1249.9304,892.946 c 4.7486,-25.35056 7.2224,-87.9611 9.6222,-243.53073 2.104,-136.38614 3.7695,-173.45398 8.504,-189.25617 2.6873,-8.96955 23.7271,-37.95291 40.3443,-55.5763 l 10.9608,-11.62451 0.076,7.70019 c 0.2264,23.1204 -25.1833,148.5554 -41.5932,205.32456 -13.7288,47.49397 -17.0708,68.30256 -11.324,70.5078 8.2448,3.16382 11.0443,-3.96962 29.2938,-74.6442 14.4157,-55.82771 21.9221,-91.48001 32.0461,-152.20586 4.4977,-26.97855 8.7991,-50.76879 9.5586,-52.8672 2.0988,-5.79855 9.0171,-15.1904 11.1897,-15.1904 2.5031,0 2.4548,59.65239 -0.1781,220.14841 -2.7147,165.47909 -5.3334,241.87697 -8.6527,252.43563 -7.4482,23.69222 -45.6367,44.40576 -81.9582,44.45436 -8.6497,0.0116 -8.9179,-0.1814 -7.8888,-5.67558 z"
                    id="path8"
                    transform="scale(0.75)" /><path
                    style="fill:#e6ba38;fill-opacity:1;stroke:#f5deb3;stroke-width:2.92488"
                    d="m 1354.7368,885.7073 c 0.036,-4.83442 0.9095,-23.21557 1.9419,-40.84698 2.7544,-47.04118 6.1197,-192.3686 8.1975,-353.99988 l 1.8255,-142.00921 11.6954,-17.75935 c 6.4325,-9.76764 12.5314,-17.75935 13.553,-17.75935 4.3602,0 13.9743,44.89112 20.3979,95.24389 4.0017,31.36869 5.5847,35.90596 17.8776,51.24215 l 7.1744,8.95063 0.036,23.10649 c 0.046,29.6576 1.9742,38.1742 24.4295,107.90275 33.953,105.43135 58.2626,186.13321 58.2626,193.41704 0,5.85353 -20.6819,12.6823 -114.7852,37.89992 -35.2387,9.4432 -38.2617,10.6901 -38.2617,15.78193 0,8.51923 18.8331,5.26223 109.01,-18.85222 53.6861,-14.35633 49.3412,-14.51714 55.7583,2.06341 4.151,10.72546 2.838,13.76452 -8.8174,20.40893 -23.1561,13.2006 -136.095,43.9997 -161.3449,43.9997 -6.8846,0 -7.014,-0.1637 -6.9504,-8.78985 z"
                    id="path9"
                    transform="scale(0.75)" /><path
                    style="fill:#e6ba38;fill-opacity:1;stroke:#f5deb3;stroke-width:2.92488"
                    d="m 1257.4665,928.97309 c -14.8831,-3.86804 -12.1244,-7.83784 8.2728,-11.90464 19.3917,-3.86632 37.8207,-10.36223 57.3126,-20.20172 7.0357,-3.55159 13.258,-5.70361 13.8275,-4.78227 3.3037,5.34547 -17.1766,28.90402 -30.9044,35.54957 -9.7406,4.7153 -33.0426,5.35855 -48.5085,1.33906 z"
                    id="path10"
                    transform="scale(0.75)" /></svg>