<?xml version="1.0" standalone="no"?>
<!DOCTYPE svg PUBLIC "-//W3C//DTD SVG 20010904//EN"
 "http://www.w3.org/TR/2001/REC-SVG-20010904/DTD/svg10.dtd">
<svg version="1.0" xmlns="http://www.w3.org/2000/svg"
 width="1104.000000pt" height="757.000000pt" viewBox="0 0 1104.000000 757.000000"
 preserveAspectRatio="xMidYMid meet">

<g transform="translate(0.000000,757.000000) scale(0.100000,-0.100000)"
fill="#000000" stroke="none">
<path d="M5405 7550 c-174 -37 -319 -146 -399 -300 -51 -98 -69 -170 -68 -280
1 -164 -1 -160 354 -763 123 -208 590 -1004 1038 -1769 744 -1270 821 -1398
880 -1458 113 -114 250 -170 415 -170 167 0 288 51 405 169 117 117 170 245
170 409 0 105 -20 187 -69 277 -21 39 -469 806 -996 1705 -527 899 -998 1705
-1047 1790 -50 85 -108 176 -130 202 -52 63 -173 142 -256 169 -74 23 -231 34
-297 19z"/>
<path d="M5380 3955 c-216 -61 -375 -224 -425 -436 -72 -308 135 -628 450
-694 88 -18 142 -18 230 0 283 59 484 325 462 611 -17 225 -174 428 -390 504
-82 29 -248 37 -327 15z"/>
<path d="M645 1675 c-176 -33 -312 -108 -433 -240 -148 -161 -218 -412 -192
-683 22 -230 81 -365 223 -510 125 -127 241 -187 420 -218 110 -19 274 -14
357 11 66 20 160 67 207 102 18 14 35 24 37 22 1 -2 8 -19 16 -37 48 -121 256
-152 370 -55 74 64 70 16 70 768 0 752 4 704 -70 768 -108 92 -292 70 -362
-44 l-30 -47 -61 47 c-152 114 -344 155 -552 116z m333 -429 c110 -30 176 -87
235 -205 27 -56 32 -77 35 -161 7 -157 -34 -260 -139 -354 -68 -61 -130 -81
-249 -81 -88 0 -101 3 -162 33 -119 59 -198 169 -217 307 -24 168 43 334 167
414 89 57 221 76 330 47z"/>
<path d="M2882 1671 c-71 -24 -179 -100 -219 -152 -18 -24 -33 -46 -33 -51 0
-4 -4 -8 -8 -8 -4 0 -13 20 -20 44 -14 54 -52 100 -106 129 -53 28 -184 31
-231 5 -53 -29 -102 -86 -114 -133 -15 -61 -15 -1269 0 -1330 27 -107 169
-177 296 -146 58 15 103 48 135 98 23 38 23 43 29 398 5 297 9 373 24 435 30
127 77 199 160 243 35 19 52 22 145 19 247 -9 233 -10 274 22 55 41 86 114 86
199 0 37 -6 82 -14 100 -16 38 -96 114 -128 122 -91 20 -119 25 -168 24 -30 0
-79 -8 -108 -18z"/>
<path d="M4105 1680 c-270 -43 -513 -214 -621 -436 -63 -131 -78 -206 -78
-404 -1 -202 10 -261 76 -399 32 -67 56 -100 121 -165 176 -176 357 -252 627
-263 231 -9 459 34 600 114 114 65 200 170 200 243 -1 41 -34 103 -78 142 -71
64 -157 63 -254 -2 -136 -90 -336 -130 -504 -99 -85 16 -205 64 -257 104 -53
40 -87 104 -87 163 0 31 5 44 19 52 13 6 187 10 498 10 314 0 492 4 518 11 95
26 151 108 161 240 7 95 -15 220 -54 302 -80 171 -267 319 -463 367 -97 24
-328 35 -424 20z m257 -371 c153 -32 280 -160 238 -238 -11 -21 -13 -21 -373
-19 l-362 3 -3 40 c-2 29 4 50 20 75 34 51 136 116 210 133 76 18 198 21 270
6z"/>
<path d="M6155 1673 c-92 -19 -180 -63 -248 -124 -52 -46 -56 -48 -62 -28 -11
35 -77 101 -120 120 -110 50 -270 -3 -316 -105 -18 -39 -19 -78 -19 -696 0
-735 -2 -705 74 -763 125 -96 301 -66 368 62 l28 53 0 392 c0 465 0 463 90
560 81 86 136 111 250 111 67 0 95 -5 135 -23 69 -32 131 -95 157 -162 22 -53
23 -71 28 -485 6 -483 3 -468 82 -525 55 -40 109 -53 191 -47 85 6 141 40 175
107 l23 45 -4 485 c-4 544 -6 556 -78 708 -118 247 -441 382 -754 315z"/>
<path d="M8193 1679 c-103 -17 -224 -81 -292 -152 l-23 -26 -32 47 c-17 25
-51 60 -74 77 -40 27 -51 30 -125 30 -88 -1 -140 -19 -184 -67 -54 -57 -53
-45 -53 -750 0 -620 1 -655 19 -695 37 -80 137 -130 242 -120 91 8 153 50 190
132 17 37 19 73 19 437 0 463 1 468 93 560 77 76 142 103 247 103 106 0 170
-26 234 -95 77 -83 79 -93 85 -580 6 -459 6 -455 63 -506 50 -46 89 -59 178
-59 103 0 150 20 195 84 l30 43 3 426 c3 451 -4 573 -40 691 -58 189 -185 320
-375 386 -122 43 -272 55 -400 34z"/>
<path d="M9962 1679 c-247 -43 -461 -201 -561 -413 -52 -111 -72 -205 -78
-366 -12 -342 90 -579 322 -745 130 -93 248 -132 430 -142 175 -9 319 28 437
113 28 19 51 34 53 32 1 -2 12 -22 24 -45 26 -52 66 -81 133 -95 114 -24 229
17 280 100 l23 37 3 658 c2 444 -1 671 -8 697 -12 44 -62 100 -112 126 -42 22
-142 29 -196 15 -50 -14 -114 -68 -132 -111 -14 -34 -22 -37 -41 -13 -28 34
-149 103 -225 129 -63 22 -101 28 -189 30 -60 2 -134 -1 -163 -7z m376 -454
c246 -110 296 -473 94 -680 -63 -65 -133 -96 -231 -102 -140 -10 -253 41 -336
150 -152 200 -93 515 117 623 70 35 113 44 209 40 67 -3 99 -9 147 -31z"/>
</g>
</svg>
