<?xml version="1.0" encoding="UTF-8" standalone="no"?>
<svg
   version="1.0"
   width="1174.000000pt"
   height="1280.000000pt"
   viewBox="0 0 1174.000000 1280.000000"
   preserveAspectRatio="xMidYMid meet"
   id="svg3"
   sodipodi:docname="BreñaAltaLaPalma.svg"
   xml:space="preserve"
   inkscape:version="1.4 (86a8ad7, 2024-10-11)"
   xmlns:inkscape="http://www.inkscape.org/namespaces/inkscape"
   xmlns:sodipodi="http://sodipodi.sourceforge.net/DTD/sodipodi-0.dtd"
   xmlns="http://www.w3.org/2000/svg"
   xmlns:svg="http://www.w3.org/2000/svg"><defs
   id="defs3" /><sodipodi:namedview
   id="namedview3"
   pagecolor="#ffffff"
   bordercolor="#000000"
   borderopacity="0.25"
   inkscape:showpageshadow="2"
   inkscape:pageopacity="0.0"
   inkscape:pagecheckerboard="0"
   inkscape:deskcolor="#d1d1d1"
   inkscape:document-units="pt"
   showgrid="false"
   showguides="true"
   inkscape:zoom="0.68378906"
   inkscape:cx="499.42302"
   inkscape:cy="875.26993"
   inkscape:window-width="2560"
   inkscape:window-height="1369"
   inkscape:window-x="1912"
   inkscape:window-y="-8"
   inkscape:window-maximized="1"
   inkscape:current-layer="svg3"><inkscape:grid
     id="grid22"
     units="pt"
     originx="0"
     originy="0"
     spacingx="0.99999997"
     spacingy="1"
     empcolor="#0099e5"
     empopacity="0.30196078"
     color="#d55ea7"
     opacity="0.14901961"
     empspacing="5"
     enabled="true"
     visible="false" /></sodipodi:namedview><metadata
   id="metadata1">
                Created by potrace 1.15, written by Peter Selinger 2001-2017
                </metadata><g
   transform="translate(0.000000,1280.000000) scale(0.100000,-0.100000)"
   fill="#000000"
   stroke="none"
   id="g3"><path
     d="M4425 12777 c-33 -13 -100 -45 -150 -71 -379 -205 -660 -325 -1163 -497 -373 -127 -591 -189 -982 -279 -288 -67 -505 -172 -631 -306 -96 -103 -206 -267 -284 -424 -74 -146 -225 -631 -225 -720 0 -46 -33 -122 -85 -197 -57 -80 -108 -180 -125 -243 -7 -25 -18 -91 -25 -147 -11 -93 -16 -106 -45 -140 -74 -83 -112 -218 -125 -443 -14 -224 -31 -299 -160 -715 -208 -666 -337 -1170 -379 -1470 -23 -170 -40 -450 -41 -665 0 -177 2 -198 20 -229 14 -24 33 -38 60 -47 22 -7 101 -34 175 -60 494 -172 676 -225 830 -243 47 -6 171 -15 275 -21 553 -30 550 -30 628 -94 23 -19 75 -50 115 -69 40 -20 79 -41 87 -47 31 -25 13 -119 -73 -390 -68 -214 -77 -270 -76 -495 0 -192 16 -350 44 -445 18 -61 11 -118 -29 -243 -52 -160 -59 -187 -76 -282 -33 -180 -11 -367 65 -555 23 -58 55 -138 71 -177 48 -120 48 -167 0 -310 -67 -202 -76 -331 -33 -468 25 -76 39 -266 52 -720 13 -415 25 -626 45 -738 27 -155 83 -358 110 -399 49 -73 47 -73 525 -73 550 -1 623 -10 1165 -155 339 -91 577 -141 775 -164 74 -9 172 -21 216 -27 120 -17 1068 -5 1274 16 501 50 805 136 1575 445 578 232 843 312 1155 350 140 17 267 39 295 52 28 13 47 56 66 153 21 108 18 684 -4 880 -22 184 -49 322 -82 414 -14 37 -25 85 -25 105 0 22 29 111 70 218 122 312 150 436 150 668 0 179 -9 228 -60 346 -52 118 -52 173 -5 435 53 291 63 427 71 987 l7 502 119 0 c216 0 330 38 475 159 45 37 105 78 135 89 29 12 139 40 244 61 246 51 330 72 543 133 452 128 734 261 757 354 25 99 -230 1009 -571 2044 -63 190 -121 372 -129 405 -11 44 -15 109 -14 250 2 218 -8 268 -82 385 -78 124 -99 179 -115 296 -71 508 -233 1141 -356 1388 -152 305 -399 488 -961 709 -91 37 -382 142 -645 235 -750 265 -940 346 -1193 509 -161 103 -181 113 -229 113 -22 0 -97 -21 -168 -46 -241 -86 -481 -136 -808 -170 -239 -25 -777 -25 -955 -1 -299 42 -516 107 -849 256 -62 28 -127 51 -145 50 -17 0 -58 -10 -91 -22z m135 -344 c131 -219 259 -382 441 -559 197 -191 322 -277 501 -344 298 -112 466 -120 743 -33 113 35 332 142 444 217 163 109 511 444 670 645 36 46 73 92 81 103 14 18 19 16 111 -46 110 -73 139 -105 139 -150 0 -61 -147 -315 -287 -494 -295 -378 -737 -627 -1229 -693 -146 -19 -423 -7 -573 26 -494 106 -925 402 -1218 835 -116 172 -195 331 -197 399 -1 40 3 47 41 79 37 31 228 149 245 151 4 1 43 -61 88 -136z m378 -47 c324 -106 392 -118 769 -137 172 -8 291 -8 483 0 451 21 624 40 870 101 68 16 133 30 143 30 17 0 17 -2 -3 -29 -50 -72 -271 -288 -320 -315 -66 -36 -292 -93 -423 -106 -170 -18 -717 -25 -847 -11 -214 22 -545 107 -644 165 -25 14 -65 52 -89 84 -63 82 -164 227 -182 262 -14 27 -14 30 0 30 9 0 118 -33 243 -74z m-813 -236 c43 -80 96 -171 118 -204 62 -92 202 -249 353 -397 220 -214 291 -268 472 -359 306 -153 573 -219 879 -220 460 0 900 161 1259 463 203 170 366 373 525 656 35 62 73 120 85 128 19 12 47 4 285 -86 145 -54 433 -158 639 -231 980 -346 1165 -433 1380 -649 79 -80 104 -113 147 -196 46 -89 143 -347 143 -380 0 -35 -291 -516 -338 -558 -19 -18 -20 -17 -30 42 -22 126 -94 235 -163 246 -100 17 -204 -27 -197 -84 3 -26 4 -26 93 -26 118 -1 112 1 135 -44 24 -48 35 -132 26 -195 -6 -41 -13 -50 -49 -73 -23 -14 -106 -91 -183 -170 -78 -78 -146 -143 -153 -143 -24 0 -13 80 52 390 33 153 37 184 26 201 -23 37 -85 -58 -118 -181 -30 -112 -87 -424 -111 -605 -30 -232 -47 -548 -80 -1440 -40 -1105 -60 -1613 -70 -1773 -16 -234 -49 -351 -417 -1452 -421 -1263 -610 -1736 -937 -2342 l-48 -88 40 0 c33 0 45 6 72 37 152 172 440 835 776 1783 48 135 122 340 166 455 44 116 118 316 165 445 86 236 126 330 142 330 15 0 21 -103 21 -400 0 -412 -15 -600 -80 -975 -57 -327 -108 -468 -317 -875 -179 -349 -366 -677 -633 -1115 -144 -234 -212 -357 -225 -402 -8 -31 35 -54 61 -32 78 65 633 1013 956 1634 173 334 181 343 223 260 18 -35 20 -59 19 -195 0 -129 -5 -173 -26 -266 -45 -193 -175 -510 -287 -702 -61 -104 -160 -219 -408 -474 -209 -215 -303 -325 -303 -354 0 -31 58 -4 152 73 95 77 433 425 551 568 55 66 103 121 107 123 17 7 69 -193 90 -343 37 -272 54 -759 30 -846 -13 -48 -41 -59 -166 -69 -291 -24 -630 -128 -1299 -397 -691 -279 -1160 -400 -1704 -443 -204 -15 -760 -13 -916 5 -295 33 -612 98 -1025 210 -151 41 -331 86 -400 99 -263 53 -624 86 -951 86 -179 0 -198 4 -215 47 -22 51 -51 239 -68 433 -21 242 -25 318 -37 695 -11 356 -24 478 -64 595 -31 89 -29 125 16 256 81 240 78 367 -16 584 -124 286 -124 451 1 831 30 91 54 175 54 186 0 12 -13 76 -29 144 -41 174 -55 299 -48 448 6 140 22 227 74 405 20 67 47 164 60 216 13 52 29 99 34 105 15 15 35 -15 54 -85 35 -133 246 -715 381 -1050 190 -474 688 -1350 990 -1740 119 -154 344 -383 367 -374 37 14 7 77 -96 201 -218 263 -307 387 -454 633 -316 531 -717 1335 -858 1721 -159 434 -498 1522 -551 1769 -80 372 -124 685 -128 923 -2 120 -11 225 -29 347 -60 403 -82 737 -74 1155 6 285 16 418 62 825 23 205 30 426 16 501 -28 140 -82 227 -189 306 -43 31 -96 74 -118 95 -48 46 -95 60 -145 44 -48 -16 -66 -59 -79 -196 -13 -134 -28 -220 -39 -220 -25 0 -103 114 -176 260 -72 141 -67 180 46 419 112 235 245 403 386 487 112 66 177 88 495 164 502 121 1189 344 1593 518 77 33 143 57 146 54 4 -4 41 -72 84 -152z m1273 -326 c118 -31 278 -43 552 -44 274 0 504 15 603 41 43 11 82 17 86 14 16 -17 -178 -130 -324 -188 -146 -58 -233 -72 -445 -72 -177 1 -188 2 -252 27 -163 65 -371 186 -403 235 l-17 26 51 -7 c29 -4 95 -18 149 -32z m-3590 -1191 c51 -36 118 -118 147 -178 34 -68 49 -186 41 -320 -9 -144 -24 -230 -45 -257 l-18 -21 -50 27 c-131 72 -293 216 -349 312 -35 60 -24 75 52 67 54 -6 54 -6 68 28 8 19 19 77 26 129 12 95 35 214 46 231 10 17 46 9 82 -18z m8664 -214 c41 -112 106 -460 133 -719 22 -209 27 -223 90 -289 29 -31 63 -76 76 -101 23 -43 24 -52 21 -226 -3 -217 -1 -222 142 -659 207 -630 479 -1522 480 -1574 1 -33 -2 -35 -59 -58 -117 -46 -352 -115 -682 -198 -332 -85 -405 -109 -417 -140 -22 -58 68 -49 449 46 110 28 277 72 372 100 188 54 328 89 356 89 20 0 57 -72 78 -151 17 -64 0 -88 -96 -135 -88 -42 -396 -145 -611 -204 -198 -54 -525 -120 -597 -120 l-57 0 0 33 c0 17 7 145 15 282 30 524 46 1207 66 2890 l10 900 51 80 c82 131 139 206 151 202 7 -2 19 -24 29 -48z m-9186 -81 c31 -51 88 -130 126 -175 102 -120 310 -317 427 -403 l102 -75 -5 -65 c-3 -36 -11 -126 -17 -200 -22 -251 0 -1003 41 -1400 11 -107 31 -330 45 -495 14 -165 32 -351 40 -413 23 -181 117 -568 239 -985 60 -206 60 -257 -1 -257 -45 0 -91 28 -175 108 -112 106 -120 108 -318 92 -289 -24 -526 -1 -851 80 -289 72 -680 220 -732 277 -21 24 -25 96 -7 118 23 28 48 22 514 -126 47 -15 103 -11 110 7 23 59 -88 119 -488 264 l-118 43 6 61 c14 126 92 527 146 754 70 287 223 815 314 1081 74 217 129 489 146 730 5 70 14 140 20 155 6 16 35 62 65 103 66 91 90 161 100 298 8 119 19 147 85 231 66 84 89 129 96 189 8 74 13 95 24 95 5 0 34 -42 66 -92z m8849 -410 c16 -72 -34 -3172 -55 -3404 -14 -159 -52 -232 -163 -316 -83 -64 -190 -116 -273 -133 -78 -16 -284 -34 -284 -25 0 4 7 51 15 106 35 239 54 795 65 1854 11 1072 24 1279 85 1405 40 82 338 445 366 445 36 0 8 -214 -100 -770 -85 -438 -138 -660 -207 -872 -62 -191 -104 -361 -104 -418 0 -39 4 -52 22 -64 25 -18 41 -9 63 35 26 50 135 459 239 894 67 281 107 498 167 889 41 274 52 308 117 379 33 35 39 34 47 -5z m-97 -3826 c8 -57 -133 -218 -235 -268 -75 -37 -199 -44 -329 -19 -93 18 -134 36 -134 59 0 26 30 38 112 47 116 13 289 70 431 145 67 35 129 62 137 61 8 -1 16 -12 18 -25z"
     id="path1" /><path
     d="M2403 2124 c-8 -22 16 -40 172 -123 195 -105 980 -467 1320 -609 370 -155 635 -231 708 -203 73 28 -1 71 -298 176 -403 142 -868 335 -1414 587 -415 191 -473 211 -488 172z"
     id="path3" /></g><path
   style="display:inline;fill:#d55ea7;fill-opacity:1;stroke:#f5deb3;stroke-width:2.92488"
   d="m 680.03428,1678.2954 c -28.15834,-2.5608 -83.58359,-13.6088 -141.85662,-28.2763 -67.97198,-17.1088 -98.15435,-21.6662 -163.78753,-24.7312 l -42.40506,-1.9803 -3.34704,-10.238 c -4.79066,-14.6539 -9.38469,-64.7956 -12.69272,-138.5351 -1.87066,-41.699 -4.50541,-69.784 -7.57197,-80.7131 -4.48696,-15.9915 -4.4224,-17.7039 1.40526,-37.2721 9.03357,-30.333 8.04136,-49.1775 -4.502,-85.5045 -9.50101,-27.5159 -10.4394,-32.8778 -8.97577,-51.2865 0.89899,-11.3069 5.54091,-33.1217 10.31538,-48.4773 l 8.68086,-27.9192 -5.8366,-27.6535 c -4.1865,-19.8353 -5.43761,-34.2688 -4.42532,-51.0525 1.48475,-24.617 19.11238,-96.89797 22.67202,-92.96521 1.14197,1.26171 6.36889,15.45594 11.61537,31.54281 37.9734,116.4346 84.80622,213.8056 150.52615,312.962 25.47122,38.4302 66.61628,86.2839 74.18777,86.2839 8.44359,0 1.32833,-13.5816 -24.52233,-46.808 -30.57677,-39.3011 -54.30859,-77.6599 -89.56725,-144.7716 -51.60101,-98.2178 -70.89096,-144.0372 -102.20395,-242.76488 -44.00028,-138.72986 -55.06041,-188.49456 -61.10471,-274.93859 -1.79971,-25.73893 -4.54248,-53.37904 -6.09505,-61.42245 -1.55257,-8.04342 -3.62293,-47.5833 -4.60079,-87.86637 -1.41342,-58.22556 -0.73829,-83.71464 3.29292,-124.32187 2.78898,-28.09396 4.60841,-64.40164 4.04318,-80.68376 -1.20853,-34.81293 -4.84046,-41.81676 -33.03973,-63.71397 -27.58646,-21.42134 -35.03134,-18.00108 -40.15237,18.44642 l -3.44873,24.54539 -5.65792,-6.98724 c -8.70182,-10.7463 -22.56088,-39.6881 -22.5728,-47.13868 -0.006,-3.66541 6.59719,-19.97296 14.67345,-36.239 16.06591,-32.35765 35.23002,-55.12547 54.80659,-65.11269 6.51233,-3.32234 37.30935,-12.74567 68.43783,-20.94072 75.99035,-20.00565 156.52444,-46.628613 217.86971,-72.023386 1.85051,-0.766047 10.19662,10.721107 18.79205,25.864447 12.75955,22.479589 22.40498,34.176619 55.16853,66.903099 43.76087,43.71131 61.99353,55.4658 111.36505,71.79638 23.33099,7.71718 27.92238,8.22341 74.5844,8.22341 46.57159,0 51.2986,-0.51853 74.58441,-8.18158 66.57415,-21.90867 116.90944,-62.47196 155.59985,-125.39193 10.4993,-17.074475 19.4325,-28.517568 22.2624,-28.517568 5.6675,0 179.8901,62.747738 221.3705,79.728448 69.2085,28.3317 93.8075,51.63726 112.9414,107.00272 6.2263,18.01631 6.6407,16.71833 -18.5694,58.16597 -18.843,30.97951 -21.4624,33.16431 -23.9383,19.96661 -2.7247,-14.52365 -14.8075,-27.94858 -25.1545,-27.94858 -13.1188,0 -23.3294,5.01872 -23.3294,11.46686 0,4.7988 2.3222,5.9109 13.8931,6.65337 13.2522,0.85035 14.0619,1.40802 17.5481,12.08657 2.0102,6.1573 2.8097,14.05448 1.7767,17.54927 -1.8492,6.2557 -47.0559,50.52634 -49.3016,48.28068 -0.6339,-0.634 2.0294,-17.42406 5.9186,-37.31124 3.8892,-19.88717 6.409,-37.23 5.5996,-38.53963 -2.9432,-4.76222 -9.7088,1.00054 -14.1211,12.02815 -5.2037,13.00518 -14.8692,60.90989 -19.1713,95.01819 -4.0425,32.04933 -7.9509,108.147 -13.3697,260.31419 -2.5205,70.78207 -5.7824,143.41774 -7.2485,161.41262 -3.2011,39.28904 -8.0585,56.54495 -56.656,201.27234 -53.9808,160.7596 -70.2402,202.6865 -107.4723,277.1322 -22.4249,44.8389 -22.8452,46.0669 -15.7684,46.0669 19.6255,0 51.0716,-68.6079 128.6978,-280.7884 22.0701,-60.3256 41.9917,-112.97341 44.2702,-116.99511 3.6392,-6.42353 3.9948,1.04119 2.9258,61.42241 -1.2401,70.0479 -6.2423,112.0354 -18.1197,152.0937 -10.0324,33.8356 -51.1229,112.8913 -110.7995,213.1718 -40.2105,67.5695 -41.9946,71.7019 -30.2283,70.0137 4.3587,-0.6254 11.1752,-7.998 20.601,-22.2816 18.1293,-27.4726 73.4191,-123.7465 104.4831,-181.9322 13.312,-24.9345 25.5565,-47.0431 27.2099,-49.1301 5.3684,-6.776 7.8178,2.2797 7.8652,29.0791 0.05,28.349 -5.1972,48.7431 -23.2533,90.3735 -14.925,34.4114 -23.79,46.5954 -70.9404,97.4999 -38.5936,41.6664 -45.4909,51.5435 -35.9937,51.5435 6.9935,0 41.7675,-31.7367 73.1971,-66.8037 16.0868,-17.9486 30.1304,-32.6357 31.208,-32.6379 4.2236,-0.01 11.1289,41.8804 14.3445,87.0171 3.3853,47.5191 2.3993,66.0351 -3.718,69.8158 -1.801,1.1131 -14.5829,3.7213 -28.4043,5.7961 -32.4801,4.8757 -67.4994,15.152 -120.1883,35.2687 -145.11012,55.4033 -183.96151,66.5873 -256.96798,73.9726 -28.24374,2.8571 -101.04168,3.4369 -127.65354,1.0167 z m -63.49046,-134.9439 c -0.51408,-2.6693 -8.94911,-7.6848 -19.88651,-11.8245 -75.46474,-28.5627 -136.80955,-53.6569 -196.61809,-80.43 -38.17209,-17.0876 -72.16063,-31.0684 -75.53009,-31.0684 -24.31177,0 28.33341,29.1396 149.3212,82.6507 67.04179,29.6516 101.60508,42.5497 122.84491,45.8422 15.75246,2.4418 21.0681,1.0587 19.86858,-5.17 z"
   id="path81"
   transform="scale(0.75)" />
                    
                    
                    
                    <path
   fill="#000000"
   d="m 454.22273,432.80191 c -11.91,-1.24953 -21.05,-3.65879 -30.89,-8.1351 l -5.66,-2.57948 v -41.08137 -41.08137 l 12.16,-0.48026 c 15.62,-0.61534 43.4,-0.61534 58.99,0 l 12.18,0.48026 v 41.07707 41.07708 l -6.41,2.95722 c -7.04,3.25235 -14.27,5.54807 -21,6.66008 -5.31,0.87374 -15.86,1.47603 -19.37,1.10587 z m 11.16,-16.42846 -5.26,-5.16182 -2.22,1.30852 c -1.22,0.7197 -3.92,3.04804 -6.04,5.17409 l -3.8,3.86559 11.3,-0.0131 11.31,-0.0131 z m -14.67,-18.41447 c -2.09,-2.12605 -4.77,-4.43345 -5.94,-5.12758 l -2.15,-1.26205 -4.26,3.56135 c -2.34,1.95877 -4.87,4.26617 -5.63,5.12761 l -1.41,1.56624 h 11.62 11.6 z m 34.53,1.60441 c -1.2,-1.24364 -3.73,-3.58074 -5.63,-5.19357 -3.36,-2.81808 -3.56,-2.88739 -5.26,-1.77751 -0.95,0.63523 -3.68,2.96034 -6.02,5.16693 l -4.24,4.01201 11.65,0.0266 11.64,0.0266 z m -34.72,-21.55367 c -1.78,-1.84172 -4.17,-4.0045 -5.27,-4.80612 -2.02,-1.45668 -2.02,-1.45666 -4.38,0.015 -1.32,0.8099 -3.85,2.97263 -5.63,4.80613 l -3.26,3.33354 h 10.91 10.89 z m 32.89,0 c -1.78,-1.84172 -4.17,-4.0045 -5.26,-4.80612 -2.02,-1.45668 -2.02,-1.45666 -4.39,0.015 -1.31,0.8099 -3.85,2.97263 -5.63,4.80613 l -3.26,3.33354 h 10.91 10.9 z m -34.5,-21.16202 c -2.73,-2.59972 -5.43,-4.72676 -6.02,-4.72676 -0.61,0 -3.31,2.12704 -6.04,4.72676 l -4.92,4.72678 h 10.96 10.97 z m 32.89,0 c -2.73,-2.59972 -5.43,-4.72676 -6.02,-4.72676 -0.6,0 -3.31,2.12704 -6.04,4.72676 l -4.92,4.72678 h 10.96 10.97 z m -51.48,-20.20038 c -0.44,-0.53483 -1.83,-3.04127 -3.1,-5.56985 l -2.29,-4.59745 4.22,-1.87877 c 2.34,-1.03332 7.36,-2.70916 11.18,-3.7241 9.14,-2.43123 25.46,-2.74661 35.06,-0.67772 6.32,1.35623 17.23,5.20543 17.91,6.30723 0.66,1.0676 -4.97,10.99556 -6.23,10.99556 -0.64,0 -3.12,-0.79247 -5.51,-1.76109 -12.96,-5.26872 -29.43,-5.43329 -43.05,-0.43019 -6.17,2.2574 -7.29,2.44403 -8.19,1.33638 z m -11.55,-17.22856 c -1.78,-2.82744 -2.24,-4.41806 -2.46,-8.67719 -0.56,-11.14834 6.33,-18.88249 17.66,-19.80254 2.49,-0.20223 6,-1.07372 7.82,-1.93676 3.68,-1.76392 13.04,-2.14758 15.77,-0.64854 1.19,0.64446 2.36,0.58093 5.12,-0.27996 4.55,-1.41099 10.74,-0.9474 14.76,1.10561 1.93,0.98358 4.44,1.54877 6.9,1.55901 10.3,0.0428 18.1,8.24576 18.1,19.08752 0,3.90123 -0.39,5.61703 -2.02,8.76829 -1.15,2.15488 -2.56,4.01282 -3.15,4.12876 -0.6,0.11599 -3.02,-0.64168 -5.38,-1.68361 l -4.29,-1.89438 2.66,-2.18154 c 3.09,-2.55993 4.04,-5.97898 2.77,-10.17716 -0.73,-2.43572 -4.38,-6.55924 -5.79,-6.56312 -0.27,-7.3e-4 -0.39,1.96554 -0.25,4.36946 0.27,4.87791 -1.53,11.55063 -3.31,12.23477 -0.61,0.23 -3.39,0.007 -6.21,-0.49449 l -5.1,-0.91257 2.56,-2.35552 c 1.41,-1.29554 2.8,-3.23662 3.07,-4.3135 1.8,-7.21283 -5.72,-14.73764 -12.28,-12.24807 l -2,0.76134 v 8.42383 8.42387 h -4.38 -4.39 v -8.70698 -8.70698 l -2.85,-0.47829 c -5.41,-0.91522 -10.62,2.98195 -11.52,8.63546 -0.44,2.70207 0.85,5.85144 3.33,8.09266 0.83,0.7649 1.54,1.64534 1.54,1.95653 0,0.31121 -1.9,0.95672 -4.19,1.43445 -2.32,0.47773 -4.58,1.02172 -5.07,1.20886 -0.49,0.18933 -1.63,-1.06412 -2.56,-2.82685 -1.31,-2.48843 -1.68,-4.38085 -1.68,-8.83094 0,-3.1151 -0.32,-5.66423 -0.66,-5.66475 -1.19,-0.002 -5.5,4.90716 -5.99,6.83158 -0.83,3.35197 0.29,6.88336 3.09,9.60339 l 2.64,2.55555 -4.15,1.83378 c -2.26,1.00855 -4.55,1.83317 -5.04,1.83244 -0.49,-6.9e-4 -1.88,-1.55925 -3.07,-3.46342 z m 37.64,-34.90938 c 0,-2.35525 -0.24,-2.55829 -2.19,-2.55829 -2.07,0 -2.19,-0.16257 -2.19,-2.92372 0,-2.76133 0,-2.92375 2.19,-2.92375 1.95,0 2.19,-0.24366 2.19,-2.19282 0,-2.07097 0.25,-2.1928 2.93,-2.1928 2.75,0 2.92,0.12179 2.92,2.1928 0,1.93796 0.25,2.19282 2.15,2.19282 2.33,0 3.41,1.80339 2.6,4.3856 -0.34,1.02407 -1.12,1.46187 -2.6,1.46187 -1.98,0 -2.15,0.21612 -2.15,2.55829 0,2.49737 0,2.55826 -2.92,2.55826 -2.85,0 -2.93,-0.061 -2.93,-2.55826 z"
   id="path4"
   style="stroke-width:0.730946" />
                    <path
   fill="#000000"
   d="m 708.02268,428.16913 c 0.5207,-0.76978 2.9227,-5.80783 2.769,-5.80783 -0.0378,0 -0.53493,0.28628 -1.10477,0.63618 -0.87424,0.53682 -1.1084,0.57369 -1.49928,0.23606 -0.39494,-0.34111 -0.54356,-0.29689 -1.00787,0.29988 -0.33903,0.43571 -0.48313,0.95504 -0.38172,1.37554 0.21709,0.90019 -1.07743,2.49232 -2.61894,3.22105 -0.7168,0.33887 -1.85527,0.55643 -2.93291,0.56048 -1.47107,0.006 -1.86519,-0.10844 -2.39166,-0.69166 -0.34667,-0.38405 -0.63032,-1.00416 -0.63032,-1.378 0,-0.8431 -0.51786,-0.71961 -3.1164,0.7432 l -1.81187,1.01997 0.006,-0.82399 c 0.004,-0.45318 0.25803,-1.40099 0.56563,-2.10623 l 0.55924,-1.28224 h -2.16004 c -2.76475,0 -2.86491,-0.5242 -0.33989,-1.77837 2.03568,-1.01111 5.21103,-1.65242 6.82609,-1.37862 2.6985,0.45746 2.65974,0.4375 2.65974,1.37073 0,0.7308 0.11968,0.88114 0.70104,0.88114 1.2558,0 1.60629,-0.28805 1.43499,-1.17936 -0.12921,-0.6726 0.033,-0.99777 0.88751,-1.77858 1.16827,-1.06754 2.11731,-1.40934 3.27412,-1.1792 0.60115,0.11961 1.14564,-0.13499 2.38629,-1.11581 0.88409,-0.69892 2.06402,-1.55324 2.62208,-1.89849 1.41875,-0.87773 5.01843,-2.17648 6.75211,-2.43615 0.79998,-0.11981 1.42322,-0.33844 1.38498,-0.48582 -0.0381,-0.14738 0.0933,-0.37266 0.2922,-0.5006 0.28129,-0.18093 0.26504,-0.33322 -0.0732,-0.68519 -0.51866,-0.5398 -1.20168,-0.2055 -0.95378,0.46683 0.19556,0.53036 -0.30722,1.01012 -0.579,0.55248 -0.0959,-0.1614 -0.35311,-0.22203 -0.57172,-0.13472 -0.21859,0.0873 -0.94901,-0.15623 -1.62313,-0.54116 -0.67412,-0.38495 -1.54389,-0.8816 -1.93285,-1.10367 -0.61764,-0.35265 -0.65022,-0.44814 -0.25732,-0.75426 0.26867,-0.20934 0.35695,-0.50339 0.21922,-0.73015 -0.32562,-0.53603 -7.05804,-0.71353 -9.08234,-0.23944 l -1.54739,0.36239 -0.22736,1.89815 c -0.25595,2.13657 -0.68565,3.15332 -1.98233,4.6903 -1.29398,1.53378 -1.88148,1.40644 -2.41731,-0.52391 -0.63714,-2.29532 -0.98393,-5.36112 -0.71627,-6.33235 0.12745,-0.46242 0.63166,-1.56835 1.12056,-2.45763 0.48888,-0.88929 0.88888,-1.70219 0.88888,-1.80645 0,-0.10425 -0.33576,-0.18955 -0.7461,-0.18955 -1.2794,0 -4.72599,-1.36671 -9.47299,-3.75645 -3.65639,-1.8407 -4.67536,-2.23783 -5.11443,-1.99326 -0.78916,0.43954 -2.031,2.05334 -2.23681,2.90676 -0.19938,0.82673 -0.83186,0.97304 -1.09707,0.25377 -0.0967,-0.26247 -0.17597,-1.28033 -0.17597,-2.26191 0,-1.62435 0.0935,-1.89239 1.04057,-2.9834 0.57233,-0.65929 1.77904,-1.57611 2.68157,-2.03739 1.44905,-0.74057 1.9631,-0.83791 4.39501,-0.8322 1.51472,0.004 3.14539,0.11498 3.62372,0.24762 0.68644,0.19035 0.79586,0.16301 0.51931,-0.12974 -0.1927,-0.20401 -0.77031,-0.41876 -1.28357,-0.47724 -0.51328,-0.0585 -0.96805,-0.14258 -1.01063,-0.18689 -0.0426,-0.0444 0.0321,-0.58588 0.16595,-1.20349 0.14044,-0.64809 0.13364,-1.12293 -0.016,-1.12293 -0.14264,0 -0.25936,0.3314 -0.25936,0.73645 0,0.40506 -0.13042,0.82037 -0.2899,0.92293 -0.15945,0.10256 -0.28989,-0.0252 -0.28989,-0.2839 0,-0.56346 -0.45681,-0.61986 -0.76856,-0.0949 -0.21145,0.35607 -0.29027,0.13436 -0.88429,-2.48741 -0.16686,-0.73648 -0.15707,-0.74152 0.41494,-0.21355 0.56861,0.52481 0.58977,0.51931 0.71946,-0.18676 0.11968,-0.65163 -0.0289,-0.78076 -1.42493,-1.23876 -1.39566,-0.45787 -1.72219,-0.74157 -3.1241,-2.71445 -0.86105,-1.21172 -2.01647,-2.48003 -2.5676,-2.81845 l -1.00208,-0.61532 -1.61375,1.0117 c -0.88756,0.55644 -2.10771,1.10454 -2.71144,1.21801 -0.60373,0.11346 -1.32869,0.33048 -1.61101,0.48224 -0.85204,0.45804 -0.98384,0.0779 -0.75289,-2.17136 0.41991,-4.08998 1.3076,-5.51095 3.66563,-5.86774 0.75309,-0.11395 1.80067,-0.46824 2.32797,-0.7873 0.52733,-0.31908 1.2122,-0.58013 1.52197,-0.58013 0.30977,0 0.56323,-0.0934 0.56323,-0.20765 0,-0.1142 -0.89694,-1.43794 -1.99316,-2.94163 -1.09627,-1.50369 -2.4701,-3.51475 -3.05299,-4.46901 -1.46327,-2.39559 -2.73987,-3.84653 -3.3843,-3.84653 -0.29874,0 -1.40961,0.33942 -2.46862,0.75427 -2.51226,0.98413 -2.72612,0.96794 -2.72612,-0.20632 0,-1.46234 2.33203,-3.69017 4.32943,-4.13598 3.84234,-0.8576 5.92447,-0.30727 8.19217,2.16527 l 1.68339,1.83546 v -1.12968 c 0,-1.01017 -0.23916,-1.37515 -2.26041,-3.44969 -1.4628,-1.50135 -2.56247,-2.95355 -3.11641,-4.11546 -0.47079,-0.9875 -1.42542,-2.41306 -2.12138,-3.16791 -0.69598,-0.75484 -1.5749,-2.08522 -1.95315,-2.9564 -0.8022,-1.84748 -1.25447,-1.95885 -3.88395,-0.9564 -2.63122,1.00312 -2.60909,0.99955 -2.60909,0.4205 0,-0.86393 2.61324,-3.35299 3.91361,-3.72765 2.95111,-0.85025 5.78608,-0.15335 8.93204,2.19571 l 2.16997,1.62029 0.10581,-3.66068 0.10581,-3.66069 -0.79254,-0.69823 c -0.43591,-0.38403 -0.92611,-1.19863 -1.08931,-1.81023 -0.3741,-1.40177 -0.3798,-3.98626 -0.0108,-4.58162 0.24709,-0.39791 0.28155,-0.39562 0.28547,0.019 0.002,0.25934 0.3958,0.86176 0.87413,1.33869 l 0.86969,0.86716 v -0.9068 c 0,-0.49874 -0.20621,-1.62945 -0.45822,-2.51267 -0.34674,-1.21512 -0.37472,-1.65959 -0.11498,-1.82663 0.26406,-0.16984 0.26326,-0.37625 -0.004,-0.89493 -0.25071,-0.48755 -0.259,-0.76542 -0.03,-1.00382 0.43626,-0.45404 0.3967,-0.81239 -0.0897,-0.81239 -0.22358,0 -0.55133,-0.43242 -0.72836,-0.96095 -0.17704,-0.52853 -0.53616,-1.20736 -0.79804,-1.50853 -0.26188,-0.30116 -0.37625,-0.54757 -0.25415,-0.54757 0.12209,0 -0.0859,-0.26131 -0.46239,-0.58069 -0.67557,-0.57319 -0.69215,-0.57316 -1.2857,0.003 -0.72101,0.6996 -1.04983,0.46551 -0.80018,-0.56966 0.15944,-0.66119 0.10408,-0.73498 -0.44013,-0.58687 -0.34239,0.0932 -0.62251,0.062 -0.62251,-0.0693 0,-0.38056 1.37403,-1.21328 2.00198,-1.21328 0.31507,0 0.65306,-0.13503 0.75108,-0.30008 0.098,-0.16505 0.45163,-0.45237 0.78581,-0.63851 0.52435,-0.29205 0.58103,-0.26635 0.41366,0.18757 -0.12169,0.33019 -0.002,0.68722 0.31843,0.95916 0.35336,0.29876 0.40495,0.48016 0.16626,0.58457 -0.41539,0.18171 -0.21171,0.80561 0.72616,2.22435 l 0.69809,1.05597 -0.19974,-0.98055 c -0.10987,-0.53929 -0.0851,-0.98054 0.055,-0.98054 0.14009,0 0.20142,-0.47518 0.13625,-1.05597 -0.0985,-0.87796 -0.23526,-1.05597 -0.81148,-1.05597 -0.84518,0 -0.88089,-0.33294 -0.11323,-1.05597 0.31888,-0.30035 0.57979,-0.79657 0.57979,-1.10273 0,-0.56511 0.70615,-0.77443 0.99151,-0.29391 0.0858,0.1445 0.55873,0.34656 1.05097,0.44902 0.62376,0.12983 0.82593,0.30162 0.66724,0.56695 -0.12519,0.20936 -0.18978,0.68615 -0.14343,1.05951 0.054,0.4349 -0.0684,0.67884 -0.3403,0.67884 -0.57555,0 -0.7779,0.66234 -0.58339,1.90972 l 0.16205,1.03941 0.61965,-0.63962 c 0.6556,-0.67675 1.42052,-2.84232 1.1593,-3.28219 -0.21782,-0.36679 0.45681,-1.13926 0.99496,-1.13926 0.24695,0 0.68485,-0.22214 0.9731,-0.49363 0.48733,-0.45899 0.53668,-0.45369 0.70312,0.0754 0.0984,0.31298 0.37193,0.97636 0.60772,1.47418 0.30223,0.63807 0.35014,1.12253 0.16236,1.64203 l -0.26634,0.73691 -0.19334,-0.80169 c -0.13176,-0.54649 -0.33082,-0.74679 -0.62523,-0.6292 -0.23755,0.0948 -0.43189,0.33279 -0.43189,0.52873 0,0.19593 -0.38605,0.82631 -0.85791,1.40082 -0.47185,0.57451 -0.86322,1.17462 -0.8697,1.33356 -0.006,0.15893 -0.50005,0.80938 -1.09682,1.44544 -0.8953,0.95421 -1.00938,1.20544 -0.65228,1.43661 0.37396,0.24209 0.3778,0.3724 0.0284,0.95889 -0.47007,0.78876 -0.63518,3.00848 -0.39972,5.3738 l 0.16519,1.65938 0.35669,-1.07088 c 0.19618,-0.58899 0.45075,-1.65031 0.56571,-2.3585 0.17229,-1.0614 0.11484,-1.36186 -0.32708,-1.71029 -0.51738,-0.40794 -0.51585,-0.42469 0.0437,-0.47982 0.31889,-0.0314 0.74287,-0.0508 0.94217,-0.0431 0.1993,0.008 0.36237,-0.31034 0.36237,-0.70674 0,-0.91374 0.24659,-0.90786 1.15646,0.0276 0.40033,0.41158 1.11924,1.09806 1.59756,1.52552 0.76041,0.67952 0.78773,0.75354 0.21743,0.58901 -0.57889,-0.167 -0.65227,-0.0788 -0.65227,0.78403 0,0.9413 -0.0177,0.95546 -0.55942,0.44531 -0.53995,-0.50852 -0.58639,-0.48247 -1.33231,0.74728 -0.60105,0.99091 -0.6887,1.32829 -0.39427,1.51769 0.29897,0.19229 0.26591,0.37311 -0.15719,0.85969 -0.41933,0.48221 -0.462,0.70872 -0.19629,1.04193 0.27065,0.33939 0.18732,0.54116 -0.41084,0.99463 -0.94113,0.71349 -1.28385,2.18734 -1.28587,5.53015 l -10e-4,2.5645 0.97334,-2.20766 c 1.3909,-3.15475 2.19006,-4.31799 3.50938,-5.10815 1.79737,-1.07649 2.71153,-0.7164 5.72508,2.25512 0.97467,0.96107 1.3776,2.36695 1.20479,4.20363 -0.19251,2.04569 -0.51857,2.4865 -0.98061,1.32564 -0.37711,-0.94756 -1.2665,-1.68196 -1.69956,-1.40342 -0.12746,0.082 -0.61394,1.13909 -1.08112,2.34915 -1.01023,2.61666 -2.23473,3.96557 -4.72368,5.20364 l -1.77873,0.88478 2.2e-4,3.64042 2.3e-4,3.64042 0.83246,-1.83128 c 0.45784,-1.0072 1.25396,-2.33094 1.76917,-2.94163 0.81092,-0.96118 1.10693,-1.11035 2.20351,-1.11035 1.43143,0 3.89135,1.1041 3.89135,1.74657 0,0.23072 0.25043,0.64491 0.55654,0.92042 0.8784,0.79059 0.95023,2.09743 0.2338,4.25366 -0.74371,2.23836 -1.37014,2.7446 -1.37014,1.10724 0,-1.05026 -0.0204,-1.06932 -0.94217,-0.87766 -0.51819,0.10775 -1.30179,0.57001 -1.74134,1.02724 -0.53016,0.55151 -1.35958,0.95651 -2.46412,1.20324 -0.91573,0.20454 -1.88096,0.56295 -2.14494,0.79646 -0.44272,0.39158 -0.41542,0.57281 0.3515,2.33311 0.45735,1.0497 1.0527,2.825 1.32306,3.94511 l 0.49155,2.03656 0.71134,-1.47706 c 1.02379,-2.12584 1.73706,-2.83472 2.85234,-2.83472 1.26606,0 2.311,0.4422 2.54507,1.07704 0.67564,1.8324 0.78411,7.37072 0.14437,7.37072 -0.13311,0 -0.44914,-0.41675 -0.70223,-0.9261 l -0.46017,-0.9261 -1.72641,1.90664 c -1.72632,1.90653 -1.72642,1.90672 -1.5577,3.40951 0.17857,1.59056 0.5341,2.05713 1.36304,1.78868 0.37761,-0.12229 0.51592,0.0145 0.54095,0.53486 0.0238,0.49477 0.0718,0.54775 0.16435,0.18124 0.19946,-0.79029 1.24818,0.0124 1.26424,0.96764 0.006,0.41641 0.1905,1.27591 0.40777,1.90999 0.34953,1.02 0.34381,1.1324 -0.0496,0.9753 -0.2495,-0.0997 -0.61522,0.0564 -0.83342,0.35566 -0.36844,0.50531 -0.38926,0.50559 -0.398,0.005 -0.005,-0.29039 -0.13967,-0.52799 -0.29912,-0.52799 -0.44187,0 -0.34795,0.46196 0.25022,1.23074 l 0.54011,0.69418 0.37282,-0.725 0.37282,-0.725 0.23731,0.66765 c 0.13055,0.36722 0.43721,0.66767 0.68152,0.66767 0.2443,0 0.44418,0.13577 0.44418,0.3017 0,0.16594 -0.13042,0.30171 -0.28989,0.30171 -0.15945,0 -0.2899,0.27955 -0.2899,0.62122 0,0.34166 -0.13042,0.53731 -0.2899,0.43475 -0.46282,-0.29768 -0.32423,0.23775 0.26972,1.04208 l 0.54671,0.74037 0.19623,-1.49463 c 0.28354,-2.15984 1.46436,-4.57598 2.51187,-5.13974 0.78627,-0.42315 0.93435,-0.42203 1.57077,0.012 0.38646,0.26353 0.70266,0.42117 0.70266,0.35032 0,-0.0709 -0.51739,-1.26196 -1.14975,-2.64689 -0.63235,-1.38491 -1.51205,-3.73995 -1.95489,-5.23339 l -0.80516,-2.71535 -0.0841,-24.51358 -0.0841,-24.51358 h 30.605 30.60502 l -0.087,24.96614 -0.0871,24.96614 -0.77449,2.56449 c -1.52713,5.05666 -3.78628,9.20826 -6.99786,12.85982 l -1.62494,1.84757 1.2819,-0.15037 c 1.13822,-0.13352 1.38092,-0.0474 2.16543,0.76915 0.68669,0.71466 0.88354,1.18517 0.88354,2.11183 0,1.98011 0.30597,3.13798 0.73198,2.77002 0.20228,-0.17469 0.29821,-0.59438 0.21321,-0.93262 -0.11994,-0.47756 -0.0324,-0.59306 0.39232,-0.51689 0.45124,0.081 0.53011,-0.0601 0.45123,-0.80702 -0.12088,-1.14481 0.81522,-4.4268 1.22235,-4.28555 0.16796,0.0582 0.44217,0.69076 0.60941,1.40557 0.27531,1.17679 0.34287,1.25095 0.71478,0.78456 0.35468,-0.44475 0.35392,-0.55395 -0.005,-0.79991 -0.3485,-0.2385 -0.31959,-0.36974 0.1777,-0.80669 0.32663,-0.28702 0.68044,-0.75716 0.78623,-1.04476 0.10987,-0.29876 0.37223,-0.45106 0.61199,-0.35532 0.68378,0.27309 0.96418,-1.1396 0.30258,-1.5244 -0.29572,-0.17201 -0.88588,-0.68427 -1.31146,-1.13838 -0.82833,-0.88387 -1.14649,-0.76061 -1.54709,0.59937 -0.11,0.37336 -0.32163,0.67884 -0.47033,0.67884 -0.35105,0 -0.31571,-1.38486 0.11081,-4.34435 0.26512,-1.83934 0.47556,-2.45907 0.92207,-2.71535 0.31821,-0.18266 0.92539,-0.56968 1.34929,-0.86008 1.00007,-0.68508 2.349,-0.6737 2.95651,0.0249 0.26443,0.3041 0.76641,0.53102 1.11549,0.50425 0.69821,-0.0535 1.01869,-0.58739 0.53816,-0.89646 -0.16785,-0.10797 -0.3052,-0.0568 -0.3052,0.11373 0,0.17052 -0.19568,0.23189 -0.43483,0.13638 -0.5638,-0.22516 -0.56664,-1.31593 -0.004,-1.31593 0.23728,0 0.4123,-0.23759 0.38891,-0.52798 -0.12331,-1.53137 0.40131,-2.22158 0.72114,-0.94876 0.16706,0.66484 0.98742,0.63442 0.83832,-0.0311 -0.0512,-0.22862 0.0912,-0.30638 0.36237,-0.19804 0.24569,0.0981 0.44671,0.0469 0.44671,-0.11385 0,-0.16072 -0.19569,-0.29223 -0.43485,-0.29223 -0.32855,0 -0.43485,-0.36875 -0.43485,-1.50853 0,-1.13977 0.10624,-1.50852 0.43485,-1.50852 0.23916,0 0.43485,0.16292 0.43485,0.36204 0,0.26585 0.0857,0.27284 0.32261,0.0262 0.40308,-0.4195 0.09,-0.99174 -0.54265,-0.99174 -0.3516,0 -0.39086,-0.0883 -0.1505,-0.33848 0.17888,-0.18615 0.25624,-0.52557 0.17192,-0.75426 -0.0897,-0.24356 0.0338,-0.41579 0.29815,-0.41579 0.24831,0 0.58443,-0.2376 0.74694,-0.52799 0.28142,-0.50284 0.29592,-0.50284 0.30431,0 0.005,0.29039 0.13926,0.52799 0.29871,0.52799 0.15945,0 0.2899,-0.27154 0.2899,-0.60341 0,-0.33188 -0.13042,-0.60342 -0.2899,-0.60342 -0.15945,0 -0.29276,-0.37336 -0.29627,-0.82969 -0.01,-1.23597 -0.96083,-3.19043 -2.2754,-4.67467 -0.64132,-0.72409 -1.48281,-1.89695 -1.87,-2.60636 l -0.70396,-1.28983 -0.20208,1.68322 c -0.18652,1.55369 -0.61586,2.20466 -0.86139,1.30609 -0.0567,-0.20742 -0.31351,-1.1055 -0.57072,-1.99573 -0.58658,-2.0303 -0.59373,-3.33962 -0.0228,-4.18783 0.48025,-0.71356 3.75926,-1.88706 5.27289,-1.88706 1.0013,0 2.20885,0.8885 3.03894,2.23603 l 0.57405,0.93187 -0.16392,-2.06919 c -0.14666,-1.85129 -0.27926,-2.20455 -1.25902,-3.35445 -0.6023,-0.70689 -1.59862,-2.03768 -2.21405,-2.95732 -0.61543,-0.91962 -1.54032,-2.09708 -2.05531,-2.61656 l -0.93634,-0.9445 -0.84367,1.9653 c -0.46403,1.08091 -0.94475,1.96895 -1.06828,1.97341 -0.60649,0.0219 -1.50028,-4.97008 -1.18428,-6.61444 0.13217,-0.68778 0.37505,-0.97085 0.93855,-1.09384 0.41812,-0.0912 1.54295,-0.42258 2.49961,-0.73626 0.95667,-0.31368 2.42981,-0.66282 3.27366,-0.77585 1.36412,-0.18271 1.61746,-0.12573 2.28445,0.5139 0.41262,0.39568 1.1898,1.66595 1.7271,2.82284 l 0.97689,2.10342 v -1.98848 c 0,-3.53756 -0.75182,-7.03817 -1.88904,-8.7956 -0.84688,-1.30876 -1.00994,-1.82672 -1.00994,-3.20794 v -1.64716 l 1.01465,1.02348 1.01464,1.02349 v -1.21806 c 0,-0.66992 -0.19427,-1.88453 -0.43172,-2.69911 -0.23744,-0.81457 -0.43311,-1.51499 -0.43484,-1.55647 -10e-4,-0.0414 0.19713,-0.0754 0.44191,-0.0754 0.36242,0 0.38448,-0.11775 0.11887,-0.63426 -0.17939,-0.34884 -0.26361,-0.88314 -0.18718,-1.18733 0.0805,-0.31986 -0.0447,-0.62646 -0.29674,-0.72709 -0.27044,-0.10801 -0.3776,-0.40522 -0.28251,-0.78361 0.10538,-0.4198 -0.0595,-0.75458 -0.52965,-1.07522 -0.37553,-0.25609 -0.72317,-0.74691 -0.77254,-1.09072 -0.0494,-0.34382 -0.32176,-0.77474 -0.60533,-0.95763 -0.61518,-0.39675 -1.05565,0.1371 -1.09481,1.32686 -0.0228,0.69246 -0.0452,0.70482 -0.27395,0.15086 -0.13703,-0.33188 -0.25831,-0.9913 -0.26953,-1.46539 -0.015,-0.63764 -0.13351,-0.81676 -0.45521,-0.6883 -0.64836,0.25893 -0.54875,-0.81344 0.1354,-1.4578 0.32697,-0.30795 0.81717,-0.46992 1.14895,-0.37962 0.31827,0.0866 0.72989,-0.0322 0.91472,-0.26392 0.18482,-0.23178 0.48391,-0.42141 0.66463,-0.42141 0.43104,0 1.1502,1.70649 0.94907,2.25199 -0.0862,0.23367 0.0969,0.76041 0.40693,1.17053 0.31,0.41013 0.56361,0.95385 0.56361,1.20827 0,0.25443 0.1335,0.54848 0.29673,0.65345 0.1949,0.12536 0.23194,-0.23092 0.10787,-1.03816 -0.12505,-0.81355 -0.0807,-1.22902 0.13095,-1.22902 0.44121,0 -0.12209,-1.54104 -0.74268,-2.03172 -0.43391,-0.3431 -0.43289,-0.41603 0.0134,-0.92887 0.26617,-0.3061 0.48395,-0.78005 0.48395,-1.05323 0,-0.39397 0.19483,-0.46165 0.94217,-0.32727 1.68707,0.30337 1.70895,0.32585 1.50352,1.54637 -0.10517,0.62444 -0.38463,1.29549 -0.62117,1.49124 -0.3045,0.25199 -0.37209,0.63056 -0.23152,1.29667 0.24645,1.16781 0.60587,0.9167 1.71012,-1.19482 0.63907,-1.22201 0.70434,-1.51372 0.33869,-1.51372 -0.24912,0 -0.45294,-0.12608 -0.45294,-0.28016 0,-0.35813 0.82974,-1.22837 1.1712,-1.22837 0.14305,0 0.17992,-0.21742 0.0819,-0.48316 -0.32606,-0.88435 0.87048,-0.3284 1.34598,0.62538 0.24465,0.49072 0.60789,1.07647 0.80719,1.30166 0.47642,0.53831 0.45815,0.81228 -0.13096,1.96529 l -0.49341,0.96556 -0.15886,-0.88023 c -0.20206,-1.11953 -0.79735,-1.33869 -1.15864,-0.42654 -0.15321,0.38685 -0.52807,1.02916 -0.83299,1.42736 -0.30492,0.39821 -0.49067,0.97761 -0.41279,1.28756 0.0952,0.3787 -0.21596,0.91451 -0.94851,1.63353 l -1.09012,1.06999 -0.0856,4.73255 c -0.0535,2.95863 0.005,4.35037 0.15633,3.71299 0.13311,-0.56075 0.36428,-1.10382 0.5138,-1.20683 0.25274,-0.1741 0.94563,-2.61991 0.94563,-3.33794 0,-0.17542 -0.27177,-0.31895 -0.60394,-0.31895 -0.79083,0 -0.56605,-0.72352 0.26427,-0.85068 0.70962,-0.10866 0.79117,-0.36898 0.2817,-0.89921 -0.27058,-0.28159 -0.18394,-0.36205 0.38991,-0.36205 0.40578,0 0.96725,0.26388 1.24771,0.5864 0.28044,0.32252 0.85398,0.628 1.27451,0.67884 0.82749,0.10006 1.29309,1.14841 0.51002,1.14841 -0.27823,0 -0.38401,0.17086 -0.28013,0.45256 0.0919,0.2489 0.0867,0.66998 -0.0108,0.93573 -0.15139,0.4106 -0.26347,0.3766 -0.74611,-0.22628 -0.494,-0.61704 -0.56922,-0.63809 -0.57762,-0.16164 -0.005,0.30131 -0.16698,0.84438 -0.3593,1.20683 -0.59396,1.11947 -1.31413,3.5252 -1.05527,3.5252 0.60234,0 0.16307,0.86738 -0.60751,1.19957 -1.06171,0.45768 -1.27619,1.36821 -0.89002,3.77858 0.1595,0.99563 0.29713,2.42118 0.30583,3.16791 l 0.0157,1.35767 0.72904,-1.85374 c 1.24564,-3.16733 3.39656,-5.20848 6.1835,-5.86794 1.47494,-0.349 3.69991,0.2864 4.80595,1.37248 0.78941,0.77514 0.96852,1.21571 1.14756,2.82267 0.2358,2.11626 0.10689,2.47943 -0.64432,1.81655 -0.28002,-0.24703 -0.98223,-0.72956 -1.5605,-1.07229 l -1.05142,-0.62313 -0.64076,2.30612 c -0.85328,3.07086 -2.0225,5.2896 -3.80975,7.22944 -1.62939,1.76847 -2.36744,2.16674 -4.01539,2.16674 -0.93006,0 -1.13759,0.11735 -1.28443,0.72624 -0.0963,0.39943 -0.26102,0.95913 -0.36598,1.24379 -0.13015,0.35314 0.28968,0.17355 1.32178,-0.56532 2.72897,-1.95366 5.03254,-1.90202 6.75222,0.15139 0.59016,0.70471 1.29425,1.76295 1.56462,2.35167 0.27037,0.5887 0.62797,1.34191 0.79466,1.67379 0.36886,0.73443 0.77641,4.00957 0.56892,4.57227 -0.27974,0.75869 -0.90025,0.40935 -1.65562,-0.93209 -1.07891,-1.91597 -2.19337,-2.66766 -3.57036,-2.40814 -0.60195,0.11346 -1.47065,0.40466 -1.93044,0.64713 -0.45981,0.24247 -1.62013,0.55621 -2.57849,0.69719 -0.95836,0.14098 -1.85286,0.37118 -1.98771,0.51156 -0.13488,0.14037 -0.3305,0.90264 -0.43473,1.69393 l -0.18949,1.43873 1.1396,-0.61819 c 1.62906,-0.8837 3.51176,-1.09078 4.80484,-0.52849 2.04175,0.88785 4.05642,4.62623 4.09453,7.59773 0.0228,1.77854 -0.50966,4.07303 -0.94522,4.07303 -0.12182,0 -0.37279,-0.50913 -0.55768,-1.1314 -0.22364,-0.75266 -0.90256,-1.654 -2.02818,-2.69258 l -1.69202,-1.56118 -2.00381,0.74307 c -1.18153,0.43814 -2.45359,0.70373 -3.09991,0.64721 -1.07096,-0.0936 -1.0919,-0.0759 -0.9128,0.77271 0.15929,0.75478 0.11122,0.84476 -0.36728,0.68673 -0.43606,-0.14404 -0.63785,0.0537 -0.97009,0.9505 -0.23073,0.62281 -0.46555,1.24013 -0.52179,1.37182 -0.0563,0.13169 0.25064,0.14725 0.68203,0.0346 0.72341,-0.18896 0.75938,-0.15637 0.46322,0.41956 -0.45126,0.87752 -0.41437,0.96581 0.40364,0.96581 0.79951,0 0.97499,0.43891 0.28553,0.71426 -0.24154,0.0965 -0.57743,0.55223 -0.7464,1.01282 -0.29012,0.79087 -0.3291,0.8064 -0.7011,0.27922 -0.21664,-0.307 -0.52788,-0.47201 -0.69165,-0.36668 -0.18831,0.12112 -0.12317,0.40379 0.17736,0.76902 0.26134,0.31764 0.56489,0.51978 0.67458,0.44923 0.10974,-0.0706 0.43786,0.14588 0.72924,0.48099 0.51377,0.59082 0.51341,0.60273 -0.0121,0.39307 -0.43361,-0.17317 -0.50251,-0.11077 -0.34613,0.31339 0.10744,0.29129 0.19529,0.57411 0.19529,0.62848 0,0.30975 3.05741,-0.83754 4.85407,-1.82146 1.83032,-1.00238 2.40745,-1.1661 4.49343,-1.27476 l 2.39336,-0.12466 1.81187,1.78356 c 1.60324,1.57821 1.81186,1.91541 1.81186,2.92862 0,1.23942 -1.35063,4.17747 -1.84202,4.00701 -0.16075,-0.0558 -0.4407,-0.56019 -0.62211,-1.12094 -0.18142,-0.56075 -0.49461,-1.07671 -0.69601,-1.14657 -0.20139,-0.0699 -0.93122,0.29531 -1.62186,0.81148 -0.89664,0.67015 -1.58219,0.9385 -2.3975,0.9385 -0.75217,0 -1.47794,0.25301 -2.12684,0.74143 -2.72167,2.04861 -4.11684,2.25332 -6.6514,0.97596 -0.86959,-0.43825 -1.77676,-0.94676 -2.01593,-1.13002 -0.32876,-0.2519 -0.7644,-0.18565 -1.78563,0.27156 -1.14827,0.51409 -1.5118,0.90442 -2.42499,2.60386 -0.59082,1.0995 -1.02051,2.055 -0.95488,2.1233 0.0657,0.0683 0.75363,-0.0745 1.52889,-0.3173 3.03529,-0.9507 6.64274,-0.25262 7.67473,1.48514 0.64467,1.08561 0.77917,2.14654 0.31035,2.44809 -0.15945,0.10256 -0.29949,0.82335 -0.3112,1.60177 -0.029,1.92876 -2.44768,7.1477 -3.31253,7.1477 -0.51377,0 -0.59837,-0.25771 -0.74285,-2.2628 -0.28161,-3.90795 -0.83712,-4.81231 -2.96266,-4.82316 -0.44359,-0.002 -1.27937,-0.20974 -1.85729,-0.46105 -0.86987,-0.37826 -1.19266,-0.39154 -1.87503,-0.0772 -0.45334,0.20885 -0.82425,0.56154 -0.82425,0.78377 0,0.74314 -0.72237,0.16462 -0.90788,-0.7271 l -0.18311,-0.88022 -0.0343,0.98054 c -0.0317,0.90496 -0.60098,1.45504 -0.62452,0.60341 -0.0165,-0.59101 -1.43602,1.36639 -1.43763,1.98216 -10e-4,0.75644 -1.44957,2.8782 -2.88355,4.22647 -1.24297,1.1687 -1.21991,1.2306 0.57291,1.53826 2.38285,0.4089 3.3296,2.06506 2.9164,5.10163 -0.14447,1.06181 -0.45755,2.32191 -0.69571,2.80021 -0.63489,1.27509 -2.75489,3.69045 -3.67269,4.1844 l -0.79586,0.42832 -0.18354,-2.02239 c -0.10105,-1.11231 -0.18447,-2.52072 -0.1856,-3.1298 -10e-4,-0.97804 -0.10116,-1.13007 -0.84964,-1.30117 -0.46617,-0.10656 -1.56307,-0.71536 -2.43755,-1.35288 -1.53773,-1.12105 -1.5958,-1.13778 -1.76768,-0.50907 -0.17554,0.64216 -0.18268,0.64089 -0.58542,-0.10419 -0.35746,-0.66132 -0.43189,-0.68942 -0.60399,-0.22801 -0.26259,0.70401 -0.71533,0.37095 -0.71533,-0.52626 0,-0.91362 -0.57089,-1.29923 -0.93127,-0.62903 -0.21226,0.39473 -0.36623,0.43295 -0.67387,0.16723 -0.23064,-0.1992 -0.55688,-0.23806 -0.77381,-0.0921 -0.2063,0.13875 -0.57077,0.26136 -0.80992,0.27249 -0.23917,0.0112 -1.13893,0.1331 -1.99944,0.27104 l -1.56458,0.25079 1.7768,0.66957 c 2.17403,0.81926 3.60118,1.91905 4.79408,3.69442 0.49872,0.74224 1.04252,1.54732 1.20844,1.78909 0.24501,0.35698 0.44258,0.37275 1.0517,0.0839 1.07024,-0.50749 2.5711,0.29375 3.3897,1.80959 0.4245,0.78606 0.95335,1.28449 1.59768,1.50581 1.06693,0.36646 1.92133,0.16411 1.92133,-0.45504 0,-0.70742 1.24286,-1.3425 2.62728,-1.3425 0.91327,0 1.88311,0.28756 3.0519,0.90489 3.36117,1.77531 3.83953,2.71558 1.38154,2.71558 h -1.31209 l 1.18426,1.54794 c 2.0773,2.71524 1.49314,3.01244 -2.29453,1.16741 -2.86844,-1.39727 -3.35405,-1.46337 -3.58913,-0.48861 -0.3296,1.36674 -2.32019,1.44478 -4.69913,0.18422 -2.40465,-1.27418 -3.29239,-2.15985 -3.22088,-3.21337 0.0556,-0.81799 -2.9e-4,-0.85825 -1.22708,-0.88507 -1.25031,-0.0273 -1.3725,-0.12292 -4.49343,-3.51463 -1.77056,-1.92421 -3.73484,-3.75979 -4.38351,-4.09637 -1.11104,-0.57648 -4.69774,-1.43445 -4.94048,-1.1818 -0.0621,0.0646 1.80393,1.32892 4.14654,2.80974 5.74702,3.63283 7.68857,5.61742 9.12757,9.32992 0.57886,1.49344 1.00403,2.76649 0.94482,2.82898 -0.21149,0.22319 -3.24746,-2.58122 -7.81319,-7.21722 -4.43999,-4.50831 -6.36083,-6.04769 -8.52343,-6.8307 -0.9039,-0.32728 -1.16161,-0.26658 -3.04462,0.71704 -3.70454,1.93514 -5.98063,3.68891 -9.9417,7.66025 -3.55053,3.55971 -6.27949,5.6976 -7.28236,5.70502 -0.27227,0.002 -0.22078,-0.23567 0.17911,-0.82686 z m 10.63934,-11.05548 c 2.39164,-1.4268 4.17159,-2.59474 3.95545,-2.59544 -0.77397,-0.002 -3.94005,0.96053 -4.95272,1.50645 -1.05688,0.56975 -4.57151,4.13996 -3.78606,3.84593 0.23917,-0.0895 2.39167,-1.33016 4.78333,-2.75694 z m -0.14496,-5.32152 c 0,-0.38888 -0.82595,-0.74004 -1.09122,-0.46395 -0.10808,0.11249 -0.005,0.33084 0.22992,0.48521 0.56117,0.36935 0.8613,0.36195 0.8613,-0.0212 z m 11.0306,-0.4383 c 0.31092,0.1027 0.56532,0.31336 0.56532,0.46811 0,0.32493 1.77913,0.36173 4.00967,0.083 1.67779,-0.20969 1.83271,-0.39581 2.24824,-2.70098 l 0.20794,-1.15357 -0.95014,0.83205 c -0.52259,0.45764 -1.01142,0.76831 -1.08628,0.69038 -0.46627,-0.48525 1.90813,-5.49821 3.05278,-6.44521 0.47022,-0.38903 4.25602,-0.5329 5.10463,-0.194 0.54599,0.21804 0.58672,1.26274 0.11336,2.90712 -0.25243,0.87688 -0.91215,1.73355 -2.45473,3.18756 -1.16022,1.09361 -2.06063,2.03924 -2.0009,2.10142 0.25125,0.26147 1.87587,-0.87942 2.04582,-1.4367 0.2276,-0.74631 0.7224,-0.79931 0.73498,-0.0787 0.008,0.47774 0.0499,0.47225 0.43485,-0.0576 0.37112,-0.51067 0.42562,-0.52034 0.42562,-0.0754 0,0.56949 0.44269,0.68347 0.73603,0.18951 0.10473,-0.1764 -0.0383,-0.5837 -0.31773,-0.90512 -0.48651,-0.5595 -0.48354,-0.5844 0.0701,-0.5844 0.33541,0 0.71684,-0.31671 0.9084,-0.75427 0.34669,-0.79187 0.91427,-1.02106 0.934,-0.37713 0.006,0.20742 0.27096,-0.16416 0.58802,-0.82574 0.31706,-0.66158 1.02158,-1.67983 1.56564,-2.26279 0.87878,-0.94167 1.60347,-2.30063 1.60347,-3.00696 0,-0.1366 -0.78728,-0.042 -1.7495,0.21027 -0.96221,0.25226 -1.83326,0.37145 -1.93566,0.26487 -0.10235,-0.10657 0.14615,-0.56572 0.55235,-1.02032 0.40621,-0.4546 0.9837,-1.22782 1.28334,-1.71826 l 0.54475,-0.89172 -1.30446,0.84202 c -7.19222,4.64252 -15.44688,6.07554 -24.32049,4.22206 l -0.98378,-0.20549 0.6632,0.93359 c 0.59267,0.83427 0.64249,1.14413 0.46841,2.91258 -0.16306,1.65644 -0.12317,1.97899 0.24469,1.97899 0.28297,0 0.4149,0.24177 0.37044,0.67884 -0.0629,0.61693 0.0439,0.67357 1.16966,0.62103 0.77159,-0.036 1.17054,0.057 1.05795,0.24659 -0.0994,0.16741 0.0917,0.37858 0.42493,0.46924 0.33313,0.0906 0.53425,0.28518 0.44692,0.43225 -0.0873,0.14707 0.22427,0.2674 0.6925,0.2674 0.46821,0 1.01086,0.20007 1.20586,0.44462 0.31201,0.39126 0.45716,0.38939 1.20958,-0.0156 0.47027,-0.25308 1.10941,-0.37613 1.42032,-0.27343 z m -10.81694,-3.36444 c -0.5973,-1.2881 -0.65575,-1.33576 -0.74024,-0.60341 -0.11604,1.00584 -0.4739,1.00492 -1.37192,-0.004 -1.04942,-1.17847 -1.44888,-2.97766 -0.86648,-3.90271 0.25255,-0.40113 0.69212,-0.72932 0.97686,-0.72932 0.61802,0 1.84862,-0.8809 1.25105,-0.89552 -0.7054,-0.0173 -5.14312,-2.31769 -7.03473,-3.64667 -2.14994,-1.51047 -5.34596,-4.62767 -6.85214,-6.68315 -1.15687,-1.57878 -1.52431,-1.70581 -0.81708,-0.28249 0.43545,0.87639 0.65562,4.2669 0.27708,4.2669 -0.0986,0 -0.62489,-0.4073 -1.16969,-0.90512 -0.54478,-0.49781 -1.1114,-0.90511 -1.25917,-0.90511 -0.14774,0 -0.41194,0.55389 -0.58709,1.23086 -0.29588,1.14358 -0.26583,1.28165 0.42366,1.94669 0.40819,0.39369 0.74215,0.92594 0.74215,1.18278 0,0.26108 0.24807,0.46696 0.56269,0.46696 0.30947,0 0.6433,0.13576 0.74185,0.3017 0.0986,0.16594 -10e-4,0.30171 -0.22225,0.30171 -0.65081,0 -1.77556,1.39992 -1.3465,1.67589 0.22301,0.14345 0.62592,-0.0917 1.06285,-0.62035 0.56508,-0.68371 0.75468,-0.76751 0.96273,-0.42547 0.14246,0.23424 0.26104,0.51828 0.26348,0.63119 0.002,0.11291 0.29797,0.24868 0.65671,0.3017 l 0.65226,0.0965 -0.65226,0.67884 c -0.9504,0.98912 -0.80106,1.2664 0.43484,0.80738 1.44942,-0.53833 2.84046,-0.52781 4.66231,0.0353 1.7772,0.54926 3.13175,1.70633 4.39383,3.75323 0.81703,1.3251 1.15853,1.58532 3.14149,2.39384 1.22364,0.49892 2.25571,0.9123 2.29351,0.91859 0.0378,0.006 -0.22313,-0.61789 -0.5798,-1.3871 z m 13.26659,-4.94697 c 9.96537,-1.17058 18.43537,-7.04271 22.98971,-15.93844 2.58497,-5.04907 3.53138,-9.60498 3.53423,-17.01318 l 10e-4,-4.45015 h -30.32996 -30.32975 l 0.1467,5.50612 c 0.16522,6.20146 0.63552,8.67276 2.5174,13.22838 1.50146,3.63468 3.486,6.63643 6.37598,9.64413 4.98615,5.18923 10.8943,8.14319 17.99126,8.99525 3.08572,0.37046 4.15049,0.37465 7.1025,0.0279 z m -30.88396,-3.53532 c -0.005,-0.29039 -0.26189,-1.07105 -0.56996,-1.73481 l -0.56012,-1.20682 -0.01,1.37276 c -0.008,1.26834 0.35356,2.09686 0.91783,2.09686 0.1276,0 0.22749,-0.2376 0.22208,-0.52799 z m 21.22823,-1.78812 c -0.52734,-0.0761 -1.02532,-0.31878 -1.10663,-0.53932 -0.0813,-0.22052 0.25222,-1.37937 0.74118,-2.57523 1.95904,-4.79118 2.20982,-7.31614 0.89785,-9.0401 -0.75018,-0.98576 -1.0586,-1.1537 -2.39167,-1.30231 -0.84172,-0.0938 -2.05015,-0.39988 -2.68541,-0.68011 -0.63526,-0.28021 -1.91203,-0.52831 -2.83727,-0.55133 -1.14557,-0.0285 -1.76992,-0.18625 -1.95698,-0.49442 -0.21208,-0.34943 -0.27568,-0.26349 -0.27912,0.37713 -0.002,0.45633 -0.13488,0.82969 -0.29433,0.82969 -0.15944,0 -0.28988,-0.14378 -0.28988,-0.31951 0,-0.17573 -0.13365,-0.23352 -0.2971,-0.12843 -0.16338,0.1051 -0.27313,0.0792 -0.24387,-0.0576 0.0293,-0.1368 -0.0458,-0.48382 -0.16674,-0.77117 -0.17149,-0.40733 -0.34134,-0.45485 -0.77077,-0.21566 -0.42998,0.23948 -0.55082,0.20518 -0.55082,-0.15638 0,-0.25475 -0.15655,-0.46318 -0.34788,-0.46318 -0.27056,0 -0.27056,-0.0804 0,-0.36204 0.19133,-0.19913 0.34788,-0.49782 0.34788,-0.66376 0,-0.16761 -0.15461,-0.14079 -0.34788,0.0603 -0.5579,0.58062 -0.77465,0.42501 -0.74836,-0.53726 0.0167,-0.60786 0.20508,-0.95893 0.58157,-1.0833 0.53756,-0.17757 0.53878,-0.20494 0.0346,-0.78481 -0.49303,-0.56698 -0.49423,-0.61727 -0.0212,-0.89278 0.27571,-0.16058 0.5013,-0.49313 0.5013,-0.739 0,-0.24587 0.19899,-0.52651 0.44222,-0.62365 0.36362,-0.14521 0.3765,-0.25973 0.0725,-0.64399 -0.32278,-0.40798 -0.26845,-0.44111 0.42747,-0.26073 0.66607,0.17266 0.79721,0.10937 0.79721,-0.3847 0,-0.70035 0.26733,-0.90852 1.27865,-0.99562 0.48107,-0.0414 0.75063,-0.24446 0.75063,-0.56533 0,-0.27536 0.19569,-0.66967 0.43485,-0.87625 0.36393,-0.31434 0.43485,-0.26826 0.43485,0.28257 0,0.36198 0.12477,0.57791 0.27722,0.47984 0.1525,-0.0981 0.20375,-0.37762 0.11391,-0.62122 -0.1272,-0.34508 0.0996,-0.4429 1.02729,-0.4429 0.65483,0 1.19062,-0.13311 1.19062,-0.29581 0,-0.1627 0.39136,-0.24839 0.8697,-0.19042 0.59721,0.0724 0.86969,-0.0259 0.86969,-0.31336 0,-0.30227 0.21358,-0.36294 0.76798,-0.21812 0.58076,0.1517 0.71226,0.10678 0.53943,-0.18425 -0.15258,-0.25692 -0.0947,-0.33446 0.17419,-0.23325 0.2215,0.0834 0.71412,-0.13661 1.0947,-0.48884 l 0.69198,-0.64044 -0.14445,0.82969 c -0.16698,0.9591 -0.0121,1.04692 0.53118,0.3017 0.28569,-0.3917 0.38749,-0.41856 0.39433,-0.10409 0.006,0.32407 0.14677,0.29435 0.59325,-0.12617 0.32121,-0.30254 0.81042,-0.56951 1.08711,-0.59326 0.27672,-0.0237 0.78221,-0.20134 1.12336,-0.39461 0.5384,-0.30502 0.64559,-0.26274 0.81203,0.32023 l 0.19174,0.67162 0.30555,-0.75426 c 0.29119,-0.71883 0.31676,-0.72591 0.54461,-0.15085 0.22922,0.57852 0.23992,0.57946 0.25946,0.0228 0.0191,-0.54753 0.0599,-0.54194 0.71453,0.0981 0.44414,0.43424 0.76355,0.56185 0.88681,0.35429 0.24297,-0.40913 1.31802,-0.42763 1.31802,-0.0227 0,0.16594 0.30004,0.30171 0.66677,0.30171 0.36672,0 0.80858,0.14759 0.98191,0.32799 0.22614,0.23536 0.36999,0.23567 0.50927,10e-4 0.13405,-0.22583 0.46055,-0.18351 1.05588,0.13689 0.47396,0.25509 0.97724,0.38951 1.11838,0.29872 0.14116,-0.0908 0.333,0.005 0.42634,0.21395 0.13551,0.30264 0.20378,0.30302 0.33883,0.002 0.24337,-0.54279 1.28037,-0.46729 1.28037,0.0932 0,0.2787 0.13637,0.38264 0.33466,0.2551 0.73891,-0.47527 1.81699,-0.36925 2.31437,0.2276 0.28,0.33597 0.64262,0.52496 0.80585,0.41997 0.16324,-0.10499 0.3815,0.16037 0.48503,0.5897 0.18331,0.76005 0.20389,0.76633 0.78241,0.23862 0.5556,-0.50681 0.58215,-0.50771 0.40915,-0.014 -0.11725,0.33452 -0.0439,0.52798 0.20013,0.52798 0.21183,0 0.63005,0.33942 0.9294,0.75427 0.29935,0.41484 0.7416,0.76498 0.98277,0.77808 0.29767,0.0162 0.32212,0.0727 0.0762,0.17599 -0.1993,0.0837 -0.36237,0.36556 -0.36237,0.62636 0,0.40713 0.0819,0.39697 0.5798,-0.0719 0.61433,-0.57861 0.82402,-0.22399 0.23192,0.39222 -0.27058,0.28159 -0.19384,0.36205 0.3453,0.36205 0.67174,0 0.67577,0.0137 0.13043,0.44296 -0.31699,0.24952 -0.40449,0.44715 -0.20036,0.45256 0.1993,0.005 0.36237,0.16434 0.36237,0.35347 0,0.18913 0.22829,0.52422 0.50731,0.74467 0.47726,0.37704 0.47397,0.40136 -0.0553,0.41039 -0.54509,0.009 -0.54586,0.0224 -0.0245,0.41921 0.51042,0.38842 0.51185,0.42499 0.0275,0.70705 -0.28086,0.16358 -0.53076,0.658 -0.55532,1.0987 -0.0246,0.44069 -0.20769,0.80136 -0.40699,0.80148 -0.19931,1.1e-4 -0.36653,0.2378 -0.3716,0.52819 -0.008,0.4823 -0.0454,0.47829 -0.42686,-0.0463 -0.37563,-0.5165 -0.4361,-0.52427 -0.60095,-0.0771 -0.10084,0.27342 -0.28643,0.4308 -0.41246,0.34974 -0.12598,-0.0811 -0.31506,0.0856 -0.42006,0.37042 -0.15329,0.41572 -0.23884,0.43708 -0.43407,0.10835 -0.19033,-0.3205 -0.3151,-0.26951 -0.57439,0.23474 -0.18219,0.35429 -0.46171,0.64417 -0.62116,0.64417 -0.18249,0 -0.17003,-0.23313 0.0338,-0.62925 0.50161,-0.97547 0.06,-1.08749 -1.23324,-0.31285 -0.90179,0.54015 -1.61933,0.70744 -3.03431,0.70744 -1.73967,0 -1.8949,0.058 -2.53324,0.94702 -1.35056,1.88088 -1.49121,2.84924 -0.91315,6.28653 0.38671,2.29941 0.70234,3.3293 1.21454,3.96278 1.42012,1.75647 0.52445,2.0009 -10.03807,2.73948 -0.87694,0.0614 -2.02588,0.0492 -2.55323,-0.0269 z m 7.476,-8.69615 c 0.002,-1.83897 -0.43252,-3.57497 -1.0246,-4.08636 -0.36619,-0.31631 -0.58693,-0.23421 -1.31074,0.48747 -0.84889,0.84643 -0.86593,0.9201 -0.69065,2.98763 0.15227,1.79636 1.01996,5.40785 1.51485,6.3051 0.27049,0.4904 1.50886,-4.17566 1.51114,-5.69384 z m 34.96988,0.64136 c 0.25741,-0.30819 0.32899,-1.70942 0.095,-1.85991 -0.39544,-0.25436 -0.44936,-0.19064 -1.00104,1.18354 -0.45776,1.14019 -0.45764,1.1407 0.20815,0.92757 0.3664,-0.11729 0.68043,-0.23034 0.69785,-0.2512 z m -71.2105,-2.45159 c 0,-0.4551 -0.0616,-0.50232 -0.25036,-0.19214 -0.21138,0.34722 -0.27484,0.34722 -0.40753,0 -0.11362,-0.29744 -0.16348,-0.27197 -0.18005,0.092 -0.0121,0.27683 0.0605,0.72946 0.16242,1.00585 0.14782,0.40086 0.23488,0.42112 0.4304,0.10006 0.13481,-0.22133 0.24512,-0.67396 0.24512,-1.00583 z m 72.85275,-1.07385 c -0.13651,-0.54327 -0.17974,-0.53428 -0.69234,0.14393 -0.30071,0.39786 -0.54675,0.96324 -0.54675,1.25637 0,0.46935 0.0828,0.45215 0.69235,-0.14392 0.43437,-0.42471 0.6381,-0.89283 0.54674,-1.25638 z m 1.33586,-0.30578 c -0.40368,-0.25965 -0.83556,-0.0977 -0.83556,0.31322 0,0.1406 0.27194,0.18165 0.6043,0.0912 0.44061,-0.11991 0.50327,-0.22944 0.23126,-0.4044 z m -41.41731,-0.38746 c 10e-4,-0.18966 0.0875,-0.67009 0.18979,-1.0676 0.18491,-0.71914 0.18128,-0.71853 -0.72624,0.12302 -0.68192,0.63234 -0.83421,0.94343 -0.60345,1.2328 0.34825,0.43671 1.13385,0.23807 1.1399,-0.28822 z m 5.1985,-1.74196 c -0.21411,-0.53797 -0.36132,-1.36013 -0.32714,-1.82702 0.0343,-0.46783 -0.0849,-0.8489 -0.26526,-0.8489 -0.22522,0 -0.26542,0.44731 -0.12881,1.4331 0.32832,2.36822 0.48931,2.86737 0.81546,2.52796 0.20007,-0.20822 0.16972,-0.62179 -0.0943,-1.28514 z m 34.55242,-0.15777 c -0.27276,-0.48834 -0.31223,-0.44727 -0.31994,0.33297 -0.006,0.64907 0.0778,0.79988 0.31111,0.55706 0.22931,-0.23863 0.23178,-0.49079 0.008,-0.89003 z m -42.37552,-1.47667 c -0.19212,-0.24094 -0.53897,-0.43807 -0.77073,-0.43807 -0.3092,0 -0.24186,0.22803 0.25291,0.85643 0.45589,0.57899 0.70556,0.72089 0.77074,0.43805 0.053,-0.23009 -0.0608,-0.61548 -0.25292,-0.85641 z m 3.0555,1.07046 c 0.0986,-0.16594 0.041,-0.3017 -0.12787,-0.3017 -0.16885,0 -0.307,0.13576 -0.307,0.3017 0,0.16594 0.0575,0.30171 0.12787,0.30171 0.0704,0 0.20847,-0.13577 0.30702,-0.30171 z m 3.0347,-0.67884 c -0.008,-0.92221 -0.0343,-0.94611 -0.42995,-0.40188 -0.31213,0.42933 -0.338,0.68237 -0.10018,0.98055 0.46846,0.58745 0.54039,0.50893 0.53017,-0.57867 z m -9.26752,-0.17187 c 0,-0.23734 -1.33116,-1.56293 -1.5695,-1.56293 -0.23342,0 0.22405,1.36467 0.52943,1.57934 0.42512,0.29882 1.04007,0.28913 1.04007,-0.0164 z m 12.30035,-0.0202 c 0.0873,-0.14713 -0.0353,-0.43529 -0.27278,-0.64035 -0.35921,-0.31027 -0.43164,-0.26537 -0.43164,0.26752 0,0.64727 0.41198,0.86531 0.70442,0.37283 z m 5.89982,-0.28872 c 0.26002,-0.17172 0.29424,-0.46246 0.11403,-0.96928 l -0.25732,-0.724 -0.48393,0.97391 c -0.49378,0.99377 -0.23603,1.28942 0.62716,0.71937 z m -21.09914,-1.10314 c 0,-0.25142 -0.25769,-0.45256 -0.57979,-0.45256 -0.64165,0 -0.78553,0.46674 -0.21743,0.70531 0.63083,0.26492 0.79722,0.21217 0.79722,-0.25275 z m 6.08786,-0.88731 c 0,-0.4805 -0.52598,-0.92865 -0.77986,-0.66444 -0.23848,0.24819 0.13378,1.09919 0.48085,1.09919 0.16445,0 0.29901,-0.19563 0.29901,-0.43475 z m 1.33474,-1.59548 c -0.29469,-0.30668 -0.53785,0.15505 -0.29607,0.56219 0.18266,0.30757 0.25093,0.30781 0.34913,10e-4 0.0672,-0.20962 0.0433,-0.46315 -0.053,-0.56341 z m 3.30362,-31.30824 v -18.2532 H 713.15395 697.9343 v 18.25319 18.25319 h 15.21965 15.21964 z m 30.14938,0 v -18.25319 h -14.92975 -14.92974 v 18.25319 18.25319 h 14.92974 14.92975 z m -48.50958,15.63841 c -0.10625,-0.11063 -0.19326,-4.3873 -0.19326,-9.50373 v -9.30259 h -3.76868 -3.76867 v -3.16791 -3.16791 h 3.75887 3.75886 l 0.0822,-3.24333 0.0822,-3.24334 3.26134,-0.0853 3.26136,-0.0853 v 3.32864 3.32864 h 3.92375 3.92376 l -0.0827,3.09249 -0.0825,3.09248 -3.84115,0.0842 -3.84115,0.0842 v 9.49497 9.49497 h -3.14056 c -1.7273,0 -3.22752,-0.0905 -3.33382,-0.20114 z m 23.43688,-1.296 c -0.0993,-0.32561 -0.0428,-0.85975 0.12545,-1.18699 0.40733,-0.7921 0.38828,-1.14271 -0.038,-0.6991 -0.5363,0.55816 -1.47046,-0.43277 -1.09545,-1.16202 0.35268,-0.68582 -0.15146,-1.08766 -0.73365,-0.5848 -0.55022,0.47525 -1.6535,0.084 -1.5371,-0.54514 0.0504,-0.27204 0.36181,-0.63487 0.69216,-0.80627 0.33036,-0.1714 0.56192,-0.44635 0.51458,-0.61099 -0.0474,-0.16464 0.10787,-0.56669 0.34491,-0.89345 0.41054,-0.56594 0.46851,-0.57 1.22226,-0.0858 0.53039,0.34075 0.76626,0.72384 0.71543,1.16195 -0.0611,0.526 0.002,0.58591 0.32563,0.30685 0.2208,-0.19072 0.6463,-0.25112 0.94552,-0.13422 0.46433,0.1814 0.49023,0.14355 0.1767,-0.25826 -0.20813,-0.26673 -0.27884,-0.71624 -0.16314,-1.03703 0.18004,-0.49916 0.14647,-0.51734 -0.28345,-0.1534 -0.41534,0.35159 -0.59178,0.34183 -1.18957,-0.0658 -0.7108,-0.48471 -0.83567,-1.42372 -0.21784,-1.63805 0.18536,-0.0643 0.33704,-0.35611 0.33704,-0.64843 0,-0.62257 1.06849,-1.72552 1.36882,-1.41297 0.11309,0.11773 0.21016,0.63724 0.21565,1.15446 0.0121,1.10387 0.6366,1.47061 0.95922,0.56295 0.20708,-0.58258 0.27107,-0.59512 0.85719,-0.16787 0.36637,0.26707 0.56433,0.64904 0.46959,0.90604 -0.0901,0.24436 -0.0465,0.4443 0.0968,0.4443 0.14338,0 1.21112,-1.43695 2.37277,-3.19321 l 2.11208,-3.19323 -0.81979,-1.23639 c -0.45089,-0.68001 -1.23205,-1.69294 -1.73592,-2.25093 -0.50385,-0.558 -1.00182,-1.24609 -1.1066,-1.52908 -0.17231,-0.46542 -0.22088,-0.45693 -0.50861,0.0889 -0.45076,0.85507 -0.80793,1.04624 -1.96208,1.05021 -1.29559,0.004 -2.72169,-0.89848 -3.20177,-2.02723 -0.20594,-0.48421 -0.74389,-1.10105 -1.19542,-1.37075 -0.68533,-0.40935 -0.82097,-0.68914 -0.82097,-1.69342 0,-0.66168 0.13042,-1.28695 0.28989,-1.38951 0.15946,-0.10256 0.2899,-0.7049 0.2899,-1.33854 0,-0.68926 0.18682,-1.31345 0.46504,-1.55375 0.25578,-0.22092 0.58372,-0.72653 0.72878,-1.12359 0.18226,-0.49889 0.40976,-0.66358 0.73647,-0.5331 0.26002,0.10384 0.68216,-0.002 0.93813,-0.23429 0.53101,-0.48272 2.40838,-0.83941 2.15281,-0.40902 -0.0996,0.16786 0.32204,0.19421 1.05254,0.0658 1.03546,-0.18206 1.32455,-0.11101 1.92102,0.47217 0.38618,0.37758 0.70215,0.91355 0.70215,1.19104 0,0.2775 0.45659,0.99383 1.01464,1.59184 0.88373,0.94701 1.01465,1.28102 1.01465,2.58888 0,1.26802 -0.12048,1.60019 -0.77442,2.13555 -0.59179,0.48445 -0.69433,0.7173 -0.43485,0.98735 0.18677,0.19437 0.34379,0.56383 0.34891,0.82104 0.005,0.2572 0.5152,1.19547 1.13347,2.08504 l 1.12411,1.61739 1.03358,-1.46654 c 0.56848,-0.8066 1.03683,-1.764 1.04078,-2.12757 0.004,-0.36357 0.13765,-0.74494 0.29709,-0.8475 0.43408,-0.27922 0.34923,-0.75426 -0.13475,-0.75426 -0.62473,0 -1.02485,-0.98508 -1.02485,-2.52319 0,-1.13534 0.16513,-1.53824 1.01465,-2.47567 0.55805,-0.61582 1.01464,-1.41905 1.01464,-1.78496 0,-0.36591 0.22829,-0.87226 0.50732,-1.1252 0.6959,-0.63083 4.22845,-0.97118 5.07654,-0.48909 0.35692,0.20288 0.90986,0.37653 1.22874,0.38589 0.36776,0.0108 0.6126,0.25679 0.66951,0.67265 0.0494,0.36061 0.39112,0.97157 0.75947,1.35768 0.60108,0.63004 0.85011,1.49511 1.11409,3.86995 0.10711,0.96369 -0.30251,1.8885 -0.71807,1.62121 -0.19316,-0.12424 -0.2381,-0.0678 -0.11323,0.14241 0.12787,0.21539 10e-4,0.34832 -0.3301,0.34832 -0.35453,0 -0.63119,0.33094 -0.81434,0.97406 -0.5595,1.96485 -3.72341,3.11247 -4.88814,1.77304 -0.48592,-0.55882 -0.51304,-0.55507 -1.20677,0.16691 -0.83864,0.87278 -3.02433,3.91035 -3.02433,4.20303 0,0.36036 4.07602,6.158 4.32938,6.158 0.13451,0 0.22643,-0.2188 0.20429,-0.48623 -0.0222,-0.26743 0.18452,-0.63779 0.45926,-0.82303 0.39227,-0.26448 0.579,-0.22607 0.8697,0.1789 0.25314,0.35266 0.50174,0.42936 0.78638,0.24261 0.35075,-0.23014 0.35466,-0.35026 0.025,-0.76377 -0.3316,-0.41581 -0.31907,-0.56588 0.0821,-0.98337 0.43794,-0.45577 0.51437,-0.45409 1.02037,0.0225 0.30082,0.28334 0.78761,0.98024 1.08175,1.54865 0.51505,0.99535 0.51554,1.05563 0.0134,1.63325 -0.40952,0.47094 -0.67106,0.54061 -1.21768,0.32432 -0.58029,-0.22962 -0.69614,-0.18206 -0.69614,0.28578 0,0.30869 0.33844,0.79204 0.75208,1.0741 0.72708,0.49582 0.74598,0.49281 0.56808,-0.0905 -0.12841,-0.42127 0.005,-0.74191 0.44577,-1.06243 0.56452,-0.41153 0.70087,-0.4106 1.31625,0.009 0.37756,0.25746 0.68648,0.65616 0.68648,0.88598 0,0.22982 0.12586,0.41786 0.27971,0.41786 0.15383,0 0.42044,0.2737 0.59248,0.60825 0.26326,0.51193 0.20748,0.65026 -0.35216,0.87359 -0.38653,0.15424 -0.78029,0.15222 -0.94038,-0.005 -0.48748,-0.47826 -0.78311,-0.28911 -0.69104,0.44213 0.0494,0.39177 -0.089,0.93652 -0.3076,1.21054 -0.32505,0.40761 -0.47799,0.42895 -0.84084,0.11737 -0.46242,-0.39706 -0.44646,-0.31952 0.21879,1.06339 0.35426,0.73646 0.34691,0.90077 -0.0594,1.32352 -0.25508,0.26546 -0.63816,0.41302 -0.85129,0.3279 -0.21314,-0.0851 -2.33,-2.89148 -4.70415,-6.23635 -2.37413,-3.34487 -4.41967,-6.04309 -4.54565,-5.99603 -0.2189,0.0818 -2.94938,3.84398 -6.30263,8.68416 -0.8622,1.24454 -1.74786,2.37137 -1.96811,2.50407 -0.22026,0.1327 -0.40047,0.43817 -0.40047,0.67883 0,0.6566 -1.09331,0.5268 -1.30107,-0.15445 z m 37.07293,-1.97248 c 0.18145,-2.06232 0.1755,-2.08816 -0.25284,-1.10016 -0.28827,0.66495 -0.37617,1.41824 -0.25645,2.19747 0.10019,0.65214 0.21397,1.14721 0.25283,1.10016 0.0388,-0.0471 0.15426,-1.0359 0.25646,-2.19747 z m -33.78911,-18.11654 c 0.49296,-1.12598 0.41295,-1.64518 -0.25356,-1.64518 -0.50017,0 -0.54275,-0.0919 -0.2797,-0.60341 0.27784,-0.54032 0.22046,-0.60341 -0.54889,-0.60341 -1.0866,0 -1.77028,0.70084 -1.77028,1.81468 0,1.66112 2.22509,2.47031 2.85243,1.03732 z m 14.95705,0.42097 c 0.40306,-0.19112 0.79021,-0.56448 0.86035,-0.82969 0.0701,-0.26521 0.21189,-0.78767 0.31501,-1.16103 0.13967,-0.50571 0.0673,-0.67884 -0.284,-0.67884 -0.25933,0 -0.39088,-0.13576 -0.29233,-0.3017 0.10224,-0.17218 -0.151,-0.30171 -0.58983,-0.30171 -0.5252,0 -0.81707,0.19131 -0.92062,0.60341 -0.0834,0.33188 -0.33208,0.60341 -0.55266,0.60341 -0.47234,0 -0.52753,1.00051 -0.10105,1.83007 0.34829,0.67727 0.56551,0.71004 1.56502,0.23608 z m -18.53829,-3.82563 c 0.17482,-0.60549 0.11255,-0.68957 -0.44661,-0.60341 -0.91723,0.1413 -1.36371,0.96928 -0.86197,1.59847 0.46005,0.57691 0.96572,0.1924 1.30858,-0.99506 z m 21.71187,0.019 c -0.31053,-0.51558 -1.73143,-0.95987 -1.51042,-0.47228 0.85585,1.88829 0.91043,1.94645 1.374,1.46397 0.34351,-0.35747 0.37603,-0.59388 0.13642,-0.99169 z m -14.72119,0.90617 c 0.17542,-0.12192 0.48042,-0.54052 0.67774,-0.93022 0.32577,-0.64335 0.26185,-0.80096 -0.69468,-1.71279 -1.02482,-0.97693 -1.07544,-0.99115 -1.86021,-0.52241 -0.60738,0.36279 -0.7748,0.65556 -0.67759,1.18482 0.0711,0.38663 0.24437,0.70296 0.38523,0.70296 0.14084,0 0.2561,0.1765 0.2561,0.39222 0,0.87858 1.15448,1.41281 1.91341,0.88542 z m 7.77446,0.0478 c 0.25219,-0.10072 0.45855,-0.44014 0.45855,-0.75427 0,-0.31411 0.13042,-0.57113 0.28989,-0.57113 0.40372,0 0.36329,-1.00976 -0.058,-1.44818 -0.5834,-0.60716 -1.61849,-0.40634 -2.39441,0.46455 -0.7546,0.84693 -0.96286,1.58705 -0.44659,1.58705 0.15944,0 0.28991,0.20365 0.28991,0.45255 0,0.46785 1.00087,0.61278 1.86061,0.26943 z m -14.90603,-3.6139 c 0,-0.7434 -0.10765,-0.96834 -0.40629,-0.84906 -0.37992,0.15173 -0.74031,1.03041 -0.74935,1.82707 -10e-4,0.2009 0.24197,0.28196 0.57584,0.19109 0.43432,-0.1182 0.5798,-0.41153 0.5798,-1.1691 z m 2.3872,0.66389 c 0.40604,-0.64144 0.21764,-1.03324 -0.64782,-1.34724 l -0.86968,-0.31552 v 1.21146 c 0,1.11796 0.0504,1.19511 0.65225,0.99961 0.35875,-0.11652 0.74812,-0.36325 0.86525,-0.54831 z m 17.32586,-0.63818 c 0,-1.19042 0.008,-1.18448 -1.00102,-0.70584 -1.18061,0.55984 -0.95916,1.76181 0.32459,1.76181 0.57979,0 0.67643,-0.15085 0.67643,-1.05597 z m 2.02928,0.33865 c 0,-0.74889 -0.63892,-1.53423 -0.96885,-1.19087 -0.10494,0.10919 -0.19074,0.5832 -0.19074,1.05336 0,0.6537 0.13641,0.85483 0.57979,0.85483 0.41723,0 0.5798,-0.20113 0.5798,-0.71732 z m -5.41608,-2.40439 c -0.16747,-0.3006 -0.4282,-0.35047 -0.8892,-0.17006 -0.87751,0.34341 -0.82197,0.76813 0.14496,1.10839 0.86272,0.30361 1.1995,-0.12103 0.74424,-0.93833 z m -10.54764,0.50975 c 0.069,-0.0624 -0.0149,-0.25968 -0.18662,-0.43841 -0.44885,-0.46713 -1.36457,-0.20387 -1.48109,0.42578 -0.0829,0.44803 0.036,0.5026 0.72142,0.33123 0.45137,-0.11284 0.8772,-0.25621 0.94629,-0.3186 z m 12.87224,-0.78223 c -0.17649,-0.30342 -1.257,-0.29045 -1.257,0.0151 0,0.56319 0.64839,0.92252 1.02011,0.56534 0.20269,-0.19479 0.30929,-0.45597 0.23689,-0.58043 z m -15.85414,-0.13155 c -0.0895,-0.0931 -0.39657,-0.07 -0.68247,0.0513 -0.48478,0.20564 -0.48074,0.23593 0.06,0.44935 0.54594,0.21549 0.97725,-0.13137 0.62249,-0.50059 z m -21.64009,-7.21372 c -4.45732,-0.55722 -7.09003,-1.40628 -8.31571,-2.6819 -1.0478,-1.09048 -1.14042,-1.5573 -0.61124,-3.08033 0.31282,-0.90031 0.28398,-1.07516 -0.27286,-1.65467 -0.58554,-0.6094 -0.59594,-0.70168 -0.17461,-1.54964 0.40675,-0.81858 0.40516,-0.9266 -0.0171,-1.17251 -0.70766,-0.41215 -0.56348,-1.41398 0.25967,-1.80431 0.70828,-0.33586 0.9867,-0.85022 0.46019,-0.85022 -0.14549,0 -1.04517,-0.67883 -1.99925,-1.50852 -0.95408,-0.82969 -1.99316,-1.50853 -2.30903,-1.50853 -0.83984,0 -1.32517,-0.76108 -1.10517,-1.73308 0.38935,-1.72017 0.38139,-1.73654 -0.8447,-1.73654 h -1.15959 l 0.0873,1.15027 c 0.0806,1.06238 0.0435,1.12591 -0.48484,0.83159 -0.85155,-0.47429 -1.77668,-1.82046 -1.77668,-2.58527 0,-0.37009 0.27538,-1.03723 0.61195,-1.48254 0.58747,-0.77728 0.59139,-0.83328 0.0979,-1.4008 -0.46089,-0.53002 -0.564,-0.5441 -0.99714,-0.13616 -0.97299,0.9164 -2.61166,0.24185 -2.61166,-1.07507 0,-0.69085 0.97859,-1.78869 1.59442,-1.78869 0.24632,0 0.43485,-0.27044 0.43485,-0.62374 0,-0.49141 -0.12599,-0.58211 -0.59399,-0.42754 -0.3497,0.11551 -0.88623,-0.003 -1.30455,-0.28833 -0.99593,-0.67914 -0.97044,-2.08971 0.0504,-2.78581 0.7127,-0.48601 0.81429,-0.48696 1.60423,-0.0151 0.82567,0.49316 0.85028,0.48787 1.17434,-0.25229 0.28593,-0.65314 0.24514,-0.81857 -0.29971,-1.21575 -0.69672,-0.50787 -0.85371,-1.88296 -0.2828,-2.47712 0.56763,-0.59074 1.89196,-0.43109 2.37476,0.28627 0.4184,0.6217 0.46704,0.62737 1.18451,0.13812 0.6714,-0.45784 0.70267,-0.55754 0.30484,-0.97157 -0.57058,-0.59383 -0.56546,-1.45487 0.0121,-2.0561 0.88069,-0.91656 2.44343,-0.41556 2.44343,0.78332 0,0.42776 0.12908,0.48271 0.65227,0.27755 0.52107,-0.20435 0.6335,-0.44882 0.55889,-1.21541 -0.11753,-1.20783 0.36537,-1.8281 1.42322,-1.8281 0.88421,0 1.59478,0.9124 1.31067,1.68295 -0.16999,0.46106 0.16496,0.52769 1.20064,0.23882 0.47094,-0.13134 0.65228,-0.40697 0.65228,-0.9915 0,-0.97217 0.47762,-1.53368 1.30454,-1.53368 0.79537,0 1.30453,0.55344 1.30453,1.41801 0,0.59589 0.14778,0.69393 1.04607,0.69393 0.94891,0 1.03041,-0.0649 0.87754,-0.6988 -0.37263,-1.54523 1.68078,-2.76524 2.46227,-1.46291 0.2197,0.36612 0.5642,0.50748 1.01709,0.41738 0.52896,-0.10523 0.68489,-0.33189 0.68489,-0.99558 0,-1.06972 0.87439,-1.66405 1.73939,-1.18227 0.31888,0.17762 0.57979,0.5897 0.57979,0.91574 0,0.43118 0.19759,0.59279 0.72475,0.59279 0.56984,0 0.72474,-0.15332 0.72474,-0.71732 0,-0.39452 0.18735,-0.87913 0.41632,-1.0769 0.56303,-0.48632 1.61297,0.0994 1.61297,0.89972 0,0.32604 0.11981,0.5928 0.26618,0.5928 0.1464,0 0.49394,0.0909 0.77229,0.20212 0.34685,0.13851 0.43964,0.0902 0.29491,-0.15355 -0.11619,-0.19563 -0.12639,-0.63389 -0.0227,-0.97394 0.27059,-0.88725 1.69741,-0.6946 1.82584,0.24653 0.051,0.37336 0.25752,0.67884 0.45901,0.67884 0.64454,0 0.76754,-0.38822 0.2951,-0.93152 -0.42043,-0.48347 -0.41275,-0.57613 0.0912,-1.10061 0.3956,-0.4117 0.47171,-0.70233 0.2708,-1.03383 -0.45784,-0.75538 0.044,-2.03905 1.04573,-2.67468 0.51392,-0.32611 0.77132,-0.59343 0.57203,-0.59406 -0.19931,-6.2e-4 -0.36238,-0.26351 -0.36238,-0.5842 0,-0.64722 0.81944,-1.04236 1.55359,-0.74916 0.55397,0.22124 0.64833,1.3317 0.11336,1.33336 -0.19931,6.3e-4 0.058,0.26795 0.57201,0.59406 1.00169,0.63563 1.50358,1.9193 1.04573,2.67468 -0.2009,0.3315 -0.12477,0.62213 0.2708,1.03383 0.50396,0.52448 0.51165,0.61714 0.0912,1.10061 -0.47245,0.5433 -0.34944,0.93152 0.2951,0.93152 0.20151,0 0.40806,-0.30548 0.459,-0.67884 0.12841,-0.94113 1.55526,-1.13378 1.82585,-0.24653 0.10365,0.34005 0.10722,0.75524 0.008,0.92267 -0.10353,0.17445 0.13594,0.3044 0.56109,0.3044 0.59522,0 0.74184,-0.14699 0.74184,-0.74364 0,-0.93436 0.99626,-1.58325 1.61298,-1.05058 0.22897,0.19777 0.41631,0.68238 0.41631,1.0769 0,0.564 0.15491,0.71732 0.72476,0.71732 0.52714,0 0.72474,-0.16161 0.72474,-0.59279 0,-0.32604 0.2609,-0.73812 0.57978,-0.91574 0.865,-0.48178 1.73939,0.11255 1.73939,1.18227 0,0.66369 0.15593,0.89035 0.68487,0.99558 0.45291,0.0901 0.79742,-0.0513 1.0171,-0.41738 0.78149,-1.30233 2.83492,-0.0823 2.46228,1.46291 -0.15288,0.63389 -0.0713,0.6988 0.87753,0.6988 0.89829,0 1.04608,-0.0981 1.04608,-0.69393 0,-0.86457 0.50915,-1.41801 1.30454,-1.41801 0.82692,0 1.30455,0.56151 1.30455,1.53368 0,0.58453 0.18131,0.86016 0.65226,0.9915 1.03567,0.28887 1.37064,0.22224 1.20064,-0.23882 -0.28412,-0.77055 0.42645,-1.68295 1.31067,-1.68295 1.05786,0 1.54074,0.62027 1.4232,1.8281 -0.0745,0.76659 0.0378,1.01106 0.5589,1.21541 0.52314,0.20516 0.65228,0.15021 0.65228,-0.27755 0,-1.19888 1.56274,-1.69988 2.44343,-0.78332 0.5777,0.60123 0.58281,1.46227 0.0121,2.0561 -0.39782,0.41403 -0.36654,0.51373 0.30486,0.97157 0.71746,0.48925 0.76609,0.48358 1.18451,-0.13812 0.4828,-0.71736 1.80712,-0.87701 2.37475,-0.28627 0.57089,0.59416 0.41391,1.96925 -0.28281,2.47712 -0.54486,0.39718 -0.58564,0.56261 -0.29969,1.21575 0.32404,0.74016 0.34865,0.74545 1.17433,0.25229 0.78993,-0.47183 0.89151,-0.47088 1.60424,0.0151 1.02078,0.6961 1.04627,2.10667 0.0504,2.78581 -0.41831,0.28525 -0.95485,0.40384 -1.30454,0.28833 -0.99921,-0.33006 -0.75084,0.85738 0.26262,1.2555 1.10073,0.4324 1.46037,1.68022 0.72726,2.52329 -0.60708,0.69813 -1.66139,0.76918 -2.25449,0.15193 -0.36957,-0.38463 -0.48459,-0.3675 -0.92382,0.13762 -0.46167,0.53092 -0.46437,0.61578 -0.0339,1.06383 0.25731,0.26779 0.54462,0.80531 0.63849,1.19449 0.23055,0.95601 -0.6091,2.70721 -1.50077,3.13003 -0.70698,0.33525 -0.72135,0.31753 -0.63831,-0.78789 0.0816,-1.08482 0.0451,-1.13481 -0.89407,-1.22825 -1.26769,-0.12612 -1.60759,0.24179 -1.16255,1.25833 0.45983,1.05031 -0.045,2.30869 -0.92616,2.30869 -0.3388,0 -1.39665,0.67884 -2.35075,1.50853 -0.95408,0.82969 -1.85376,1.50852 -1.99925,1.50852 -0.52651,0 -0.24809,0.51436 0.4602,0.85022 0.82314,0.39033 0.96732,1.39216 0.25966,1.80431 -0.42221,0.24591 -0.42378,0.35393 -0.0171,1.17251 0.42133,0.84796 0.41094,0.94024 -0.17462,1.54964 -0.55683,0.57951 -0.58565,0.75436 -0.27284,1.65467 0.52917,1.52303 0.43654,1.98985 -0.61123,3.08033 -1.26156,1.31294 -3.88841,2.12686 -8.7488,2.7108 -4.97296,0.59747 -23.40705,0.57862 -28.26681,-0.0289 z m 45.35259,-24.62722 c 0.98209,-1.45927 0.38998,-4.03297 -1.35691,-5.89796 -2.18356,-2.33114 -5.05078,-3.7063 -8.65401,-4.15054 -1.60243,-0.19757 -1.62437,-0.18961 -1.98676,0.72089 -0.24455,0.61443 -0.30047,1.5119 -0.16818,2.6982 0.16252,1.45739 0.10948,1.8699 -0.29448,2.29032 -0.27099,0.28203 -0.44457,0.54827 -0.38573,0.59165 0.49831,0.36737 5.42248,2.36758 5.76,2.33973 0.23918,-0.0197 1.03161,-0.11504 1.76099,-0.21181 1.59733,-0.21191 3.14553,0.37737 3.92844,1.49523 0.6696,0.9561 0.82736,0.97014 1.39664,0.12429 z m -59.58656,-1.71358 c 1.10179,-0.80733 1.51645,-0.93176 3.04393,-0.91343 0.9726,0.0117 2.0191,0.12345 2.32556,0.24843 0.39025,0.15914 1.0366,-0.0732 2.15717,-0.77547 0.88,-0.55149 1.73812,-1.00323 1.90694,-1.00387 0.43095,-0.002 0.51896,-4.17381 0.11041,-5.23196 -0.32369,-0.83827 -0.36946,-0.85371 -1.95178,-0.65862 -3.60324,0.44424 -6.47047,1.8194 -8.65401,4.15054 -1.64701,1.75834 -2.28405,4.17427 -1.50182,5.69544 0.30323,0.58965 0.31147,0.58975 0.79722,0.0101 0.26997,-0.32236 1.06485,-1.0067 1.76641,-1.52076 z m 39.06036,-3.80085 c -0.27273,-0.73966 0.11899,-1.35767 0.86058,-1.35767 0.54672,0 0.69375,0.15984 0.69375,0.75426 0,0.6278 0.13828,0.75426 0.82475,0.75426 1.47806,0 2.27916,-1.76672 1.73357,-3.82317 -0.337,-1.27021 -1.08429,-1.60753 -3.5613,-1.60753 -1.88963,0 -4.95012,-0.81976 -6.88521,-1.84422 -0.59156,-0.31318 -1.14107,-0.56942 -1.22116,-0.56942 -0.0801,0 -0.0741,0.84855 0.0134,1.88566 0.13506,1.60384 0.0539,2.0972 -0.5427,3.30113 l -0.70151,1.41547 2.19871,0.74045 c 2.66461,0.89735 6.87142,1.12137 6.58729,0.35078 z m -15.87842,-0.31666 c 0.69613,-0.2523 1.81261,-0.53675 2.48109,-0.63211 l 1.2154,-0.17337 -0.69399,-1.40002 c -0.58865,-1.18754 -0.66987,-1.68618 -0.53517,-3.28567 0.0873,-1.03711 0.0921,-1.88566 0.0108,-1.88566 -0.0817,0 -0.55457,0.21856 -1.05095,0.48571 -1.98716,1.06946 -4.281,1.69308 -7.00945,1.90565 -2.29934,0.17914 -2.94557,0.33448 -3.26136,0.78392 -0.46319,0.65927 -0.52991,3.3391 -0.0901,3.62195 0.16702,0.10742 0.95233,0.0334 1.74514,-0.16459 1.21695,-0.30382 1.59232,-0.28541 2.40965,0.11825 2.50697,1.23808 2.93559,1.29422 4.77942,0.62594 z m -2.33638,-7.38156 c 0.70275,-0.22061 0.66487,-0.24539 -0.37878,-0.24786 -0.63777,-0.002 -1.68141,0.18505 -2.31919,0.41458 l -1.15959,0.41732 1.53838,-0.16946 c 0.8461,-0.0932 1.88974,-0.27977 2.31918,-0.41458 z m 18.02974,0.11734 c -0.71751,-0.23713 -1.76114,-0.39037 -2.3192,-0.34055 -0.93603,0.0836 -0.89111,0.11651 0.57981,0.42513 2.34099,0.49118 3.33522,0.44284 1.73939,-0.0846 z"
   id="path5"
   style="stroke-width:0.295742" />
                    <path
   style="fill:#d55ea7;fill-opacity:1;stroke:#f5deb3;stroke-width:2.92488"
   d="m 298.85512,921.46156 c -2.27502,-0.95053 -10.11657,-6.94101 -17.42568,-13.31221 -8.26916,-7.20809 -15.30063,-11.66153 -18.61381,-11.78926 -2.92849,-0.11291 -21.61163,-0.0427 -41.51807,0.1561 -40.51836,0.40454 -62.84663,-2.36093 -101.13537,-12.52618 -38.410612,-10.19762 -87.462479,-29.3393 -91.692749,-35.78159 -2.162674,-3.29352 -1.941484,-13.22333 0.325766,-14.62456 1.049724,-0.64877 17.373702,3.4844 36.275509,9.18484 36.866654,11.1183 43.964534,12.21269 45.933244,7.08233 C 113.9214,842.2483 92.221178,830.10413 48.091058,814.6429 27.842823,807.54882 28.628205,810.58445 36.280065,768.99159 47.03665,710.52254 65.852113,638.20858 88.775229,567.2356 102.4872,524.78152 107.54573,501.05378 111.68603,459.7693 c 1.82353,-18.18306 2.77483,-21.23508 10.19938,-32.72229 9.88179,-15.28906 11.82593,-20.98032 14.37697,-42.08707 1.75345,-14.50773 3.03586,-17.822 11.83279,-30.58066 6.76453,-9.81098 10.59134,-17.94105 12.17283,-25.86121 l 2.30663,-11.5517 9.1675,14.21164 c 11.32348,17.55389 47.03552,54.77094 69.27304,72.19242 l 16.61534,13.01688 -1.47372,16.20621 c -2.23976,24.63045 -2.01571,115.33666 0.37974,153.74161 2.73571,43.86012 13.84849,164.51407 16.76319,182.00173 3.4681,20.80803 11.13683,52.63358 24.80898,102.95828 10.07374,37.07956 12.02726,46.67608 9.99918,49.11978 -2.83038,3.41038 -3.43233,3.47847 -9.25276,1.04664 z"
   id="path6"
   transform="scale(0.75)" /><path
   style="fill:#d55ea7;fill-opacity:1;stroke:#f5deb3;stroke-width:2.92488"
   d="m 245.13795,383.4757 c -18.43709,-11.69245 -47.18321,-42.28887 -40.95616,-43.59237 0.88234,-0.1847 4.86168,-0.41737 8.84297,-0.51705 8.02824,-0.201 7.51825,1.07878 14.84345,-37.24807 1.50494,-7.87414 3.83495,-14.67765 5.1778,-15.11891 3.64696,-1.19838 18.72463,13.28732 25.07658,24.09204 5.04088,8.57458 5.63088,11.75126 6.17813,33.26421 0.6032,23.71243 -2.41636,43.38705 -6.88313,44.84864 -1.17794,0.38544 -6.70378,-2.19238 -12.27964,-5.72849 z"
   id="path7"
   transform="scale(0.75)" /><path
   style="fill:#d55ea7;fill-opacity:1;stroke:#f5deb3;stroke-width:2.92488"
   d="M 774.54147,228.39178 C 714.60526,223.47934 659.63962,196.16728 614.19442,148.7164 590.70005,124.18513 566.00929,86.486975 560.22341,66.312786 c -2.48524,-8.665543 1.39251,-13.508838 19.7286,-24.640947 l 15.51171,-9.417388 19.48472,29.373207 c 20.3807,30.723918 43.70827,57.415372 69.2258,79.208322 34.2957,29.28983 84.61961,45.95492 121.39025,40.19915 29.18749,-4.56876 67.93051,-21.24864 93.99969,-40.46931 17.51116,-12.91088 68.41892,-62.923453 82.75208,-81.296921 12.66723,-16.237953 11.14115,-16.084946 29.42394,-2.950064 5.4857,3.941087 10.5144,9.318663 11.1749,11.950172 1.7146,6.831721 -5.1546,21.043144 -23.45219,48.518863 -51.89707,77.92901 -134.67148,119.0009 -224.92144,111.60391 z"
   id="path8"
   transform="scale(0.75)" /><path
   style="fill:#d55ea7;fill-opacity:1;stroke:#f5deb3;stroke-width:2.92488"
   d="m 729.04103,113.66455 c -23.00165,-4.22701 -52.00663,-12.58391 -63.08014,-18.174627 -7.23405,-3.652275 -12.7102,-9.410057 -24.5873,-25.851769 -8.40422,-11.634128 -14.91905,-21.494046 -14.47741,-21.910929 0.44164,-0.416882 15.69403,3.844873 33.8942,9.470568 18.20018,5.625695 41.68275,11.52874 52.18349,13.117877 57.93792,8.768077 166.3577,4.808526 223.92412,-8.177833 11.94238,-2.694068 22.14508,-4.470975 22.67268,-3.948682 0.5276,0.522292 -8.77931,10.45447 -20.68201,22.071506 -23.2756,22.716979 -25.12921,23.710359 -58.86892,31.549049 -20.93892,4.86471 -127.47782,6.17358 -150.97871,1.85484 z"
   id="path9"
   transform="scale(0.75)" /><path
   style="fill:#d55ea7;fill-opacity:1;stroke:#f5deb3;stroke-width:2.92488"
   d="m 749.25232,158.31324 c -13.34239,-4.80218 -40.30479,-19.54114 -47.76315,-26.10966 -5.01942,-4.42056 -5.15111,-4.8823 -1.40296,-4.91928 2.27502,-0.0225 9.2552,1.35587 15.51151,3.06293 20.85785,5.69115 74.45347,8.21295 115.32667,5.4264 20.17738,-1.37561 39.47822,-2.99905 42.89075,-3.60766 6.04167,-1.0775 6.09598,-1.015 2.0682,2.38015 -7.90627,6.66444 -42.30409,21.79968 -56.26943,24.75887 -20.65599,4.37691 -56.86325,3.86656 -70.36159,-0.99175 z"
   id="path10"
   transform="scale(0.75)" /><path
   style="fill:#d55ea7;fill-opacity:1;stroke:#f5deb3;stroke-width:2.92488"
   d="m 1249.9304,892.946 c 4.7486,-25.35056 7.2224,-87.9611 9.6222,-243.53073 2.104,-136.38614 3.7695,-173.45398 8.504,-189.25617 2.6873,-8.96955 23.7271,-37.95291 40.3443,-55.5763 l 10.9608,-11.62451 0.076,7.70019 c 0.2264,23.1204 -25.1833,148.5554 -41.5932,205.32456 -13.7288,47.49397 -17.0708,68.30256 -11.324,70.5078 8.2448,3.16382 11.0443,-3.96962 29.2938,-74.6442 14.4157,-55.82771 21.9221,-91.48001 32.0461,-152.20586 4.4977,-26.97855 8.7991,-50.76879 9.5586,-52.8672 2.0988,-5.79855 9.0171,-15.1904 11.1897,-15.1904 2.5031,0 2.4548,59.65239 -0.1781,220.14841 -2.7147,165.47909 -5.3334,241.87697 -8.6527,252.43563 -7.4482,23.69222 -45.6367,44.40576 -81.9582,44.45436 -8.6497,0.0116 -8.9179,-0.1814 -7.8888,-5.67558 z"
   id="path11"
   transform="scale(0.75)" /><path
   style="fill:#d55ea7;fill-opacity:1;stroke:#f5deb3;stroke-width:2.92488"
   d="m 1354.7368,885.7073 c 0.036,-4.83442 0.9095,-23.21557 1.9419,-40.84698 2.7544,-47.04118 6.1197,-192.3686 8.1975,-353.99988 l 1.8255,-142.00921 11.6954,-17.75935 c 6.4325,-9.76764 12.5314,-17.75935 13.553,-17.75935 4.3602,0 13.9743,44.89112 20.3979,95.24389 4.0017,31.36869 5.5847,35.90596 17.8776,51.24215 l 7.1744,8.95063 0.036,23.10649 c 0.046,29.6576 1.9742,38.1742 24.4295,107.90275 33.953,105.43135 58.2626,186.13321 58.2626,193.41704 0,5.85353 -20.6819,12.6823 -114.7852,37.89992 -35.2387,9.4432 -38.2617,10.6901 -38.2617,15.78193 0,8.51923 18.8331,5.26223 109.01,-18.85222 53.6861,-14.35633 49.3412,-14.51714 55.7583,2.06341 4.151,10.72546 2.838,13.76452 -8.8174,20.40893 -23.1561,13.2006 -136.095,43.9997 -161.3449,43.9997 -6.8846,0 -7.014,-0.1637 -6.9504,-8.78985 z"
   id="path12"
   transform="scale(0.75)" /><path
   style="fill:#d55ea7;fill-opacity:1;stroke:#f5deb3;stroke-width:2.92488"
   d="m 1257.4665,928.97309 c -14.8831,-3.86804 -12.1244,-7.83784 8.2728,-11.90464 19.3917,-3.86632 37.8207,-10.36223 57.3126,-20.20172 7.0357,-3.55159 13.258,-5.70361 13.8275,-4.78227 3.3037,5.34547 -17.1766,28.90402 -30.9044,35.54957 -9.7406,4.7153 -33.0426,5.35855 -48.5085,1.33906 z"
   id="path13"
   transform="scale(0.75)" /><path
   fill="#000000"
   d="m 568.59368,878.86588 c -0.87976,-0.1052 -3.65612,-0.41195 -6.1697,-0.68159 -17.81575,-1.91169 -35.81716,-6.9023 -57.75766,-16.0126 -25.9028,-10.75551 -49.63464,-26.64211 -69.53369,-46.5473 -15.32603,-15.33078 -26.55801,-32.30481 -38.56768,-58.28442 -4.8794,-10.55525 -7.21399,-17.64686 -16.77374,-50.95241 -9.4718,-32.99916 -10.56654,-45.25506 -6.55505,-73.38573 5.22571,-36.64545 17.88894,-68.08422 37.72452,-93.658 4.7042,-6.06504 7.09661,-8.71528 4.33186,-4.79865 -17.87099,25.31641 -27.53736,47.06105 -35.38674,79.60299 -5.17298,21.44615 -6.00673,43.90679 -2.36349,63.67119 1.62041,8.79068 1.74336,8.50231 1.75375,-4.11313 0.0103,-12.49372 0.18157,-15.92082 1.27897,-25.59284 4.45364,-39.25252 20.64298,-76.60261 47.64127,-109.91209 4.97415,-6.13693 11.63141,-13.73054 11.84777,-13.51417 0.0918,0.0918 -1.65804,2.50171 -3.88862,5.35527 -25.43646,32.54063 -39.71973,62.8971 -45.33754,96.35669 -6.88008,40.97762 -4.60902,77.4289 6.67129,107.07657 4.20174,11.04329 14.23674,27.36098 24.7939,40.31684 9.51377,11.67541 22.88933,24.7086 35.48044,34.57227 9.87512,7.73601 36.58192,23.5975 55.96834,33.24027 21.97515,10.9304 39.65355,16.92091 53.54802,18.1453 l 3.50487,0.30886 -0.5188,1.1971 c -0.95356,2.20028 -2.74357,4.21915 -4.56459,5.14816 l -1.80387,0.92027 -4.73872,-0.95374 c -17.65937,-3.5542 -41.91078,-13.60244 -62.10795,-25.73356 -30.41538,-18.26854 -51.15754,-34.17668 -68.94293,-52.87558 -8.17003,-8.58967 -7.90933,-8.34298 -6.86961,-6.50014 1.28585,2.27912 9.42078,13.03661 12.83209,16.96895 19.22057,22.15618 37.49674,36.20812 63.89448,49.12636 23.87407,11.68323 51.9081,20.9881 70.3803,23.36019 4.96613,0.63772 8.56637,0.72035 21.93672,0.50354 15.26964,-0.24752 23.66549,-0.84611 36.56118,-2.60644 19.69528,-2.68855 47.10986,-8.88472 57.58389,-13.01495 14.59915,-5.75689 30.8213,-15.38891 49.12911,-29.17077 3.64469,-2.74368 6.9352,-5.19192 7.31224,-5.44054 1.35258,-0.89188 -3.54485,3.46715 -9.82583,8.74561 -20.26776,17.03282 -40.32672,29.14336 -57.8642,34.93535 -19.60369,6.47442 -46.15431,11.47443 -71.92804,13.54572 -6.27391,0.50418 -29.95837,0.97618 -32.67656,0.65115 z M 743.18754,819.1938 c 0.008,-0.0863 3.43095,-3.65298 7.60702,-7.92607 4.17607,-4.27309 6.89507,-6.8438 6.04222,-5.71269 -2.73727,3.63038 -13.73809,14.62275 -13.64924,13.63876 z m 17.46527,-18.66592 c 0.6209,-0.87975 3.06762,-4.27309 5.43717,-7.54075 19.98556,-27.56054 33.11505,-56.469 39.02214,-85.91881 2.77681,-13.84375 3.8541,-24.74261 3.86232,-39.07478 0.0124,-21.75042 -2.54915,-40.9633 -8.09319,-60.70116 l -1.70999,-6.08788 -0.51823,3.34579 c -0.51061,3.29655 -2.20468,9.86361 -2.66259,10.32152 -0.12912,0.12912 -0.4595,-0.35931 -0.73417,-1.08541 -1.65399,-4.3723 -6.60311,-15.29276 -10.23341,-22.58049 -14.0463,-28.19758 -29.82347,-49.51054 -48.85639,-65.99881 -34.49315,-29.88151 -73.89375,-48.07282 -121.18578,-55.95164 -16.45268,-2.741 -20.11716,-3.03572 -37.47522,-3.01403 -17.52255,0.0219 -23.85941,0.5908 -38.15357,3.42531 -27.72495,5.49781 -55.30753,18.32931 -79.99072,37.21193 -4.14664,3.17219 -2.48801,1.32154 2.73357,-3.05 22.54982,-18.87888 47.684,-32.58374 72.74824,-39.66729 16.82721,-4.75564 29.89369,-6.43249 50.05118,-6.4232 34.85231,0.0161 67.10494,7.07324 103.43742,22.63303 18.31029,7.84158 41.65101,22.62927 56.37993,35.71993 5.47039,4.86194 6.62277,5.55322 3.03201,1.81883 -9.05437,-9.41655 -22.96068,-20.67932 -35.41866,-28.68569 -19.30844,-12.40897 -48.17357,-25.53266 -67.1812,-30.54433 -17.34985,-4.57456 -42.02807,-7.33817 -59.41193,-6.65328 -21.92973,0.86398 -39.87906,3.82412 -59.86896,9.87337 -28.95361,8.76181 -55.74492,23.28637 -82.47638,44.71348 -8.55496,6.85738 -8.15432,6.11063 0.89921,-1.67606 26.77833,-23.03128 55.58469,-38.79963 88.20389,-48.28205 12.99527,-3.77773 26.33305,-6.36344 42.9594,-8.32828 9.31253,-1.10052 30.54265,-1.10368 39.9888,-0.006 30.19232,3.50862 55.08604,10.95479 82.94822,24.81129 22.85071,11.36419 38.39196,21.89758 52.50399,35.58563 19.78097,19.18667 38.28207,46.54834 48.05636,71.07156 16.09332,40.37737 21.00567,79.72227 14.55026,116.53881 -5.18114,29.54915 -18.48067,59.56853 -38.26721,86.37583 -4.21214,5.70672 -11.36573,14.67515 -14.03455,17.59507 -1.58369,1.73269 -1.61196,1.74461 -0.54196,0.22851 z M 644.68666,783.01986 c -5.3696,-2.59133 -9.76425,-9.48736 -11.11831,-17.44668 -0.62365,-3.66593 -0.64288,-4.77071 -0.13558,-7.78984 0.82818,-4.92877 3.00246,-9.95347 6.16739,-14.25274 6.98274,-9.48539 18.53374,-16.73291 40.04814,-25.12767 2.89062,-1.1279 5.52635,-2.16167 5.85718,-2.29727 0.33082,-0.1356 -1.13821,2.40281 -3.26452,5.64089 -4.85817,7.39834 -7.09361,11.58009 -9.13276,17.08431 -2.13434,5.76116 -2.99839,10.19249 -3.50709,17.9863 -0.23204,3.5552 -0.81067,7.92248 -1.28583,9.70508 -1.79685,6.741 -6.47934,13.1672 -11.64161,15.97687 -1.92159,1.04586 -3.08165,1.32607 -6.04016,1.45899 -3.14213,0.14117 -3.98606,0.008 -5.94685,-0.93824 z m -179.95729,-0.58981 c -0.59378,-0.59378 0.95133,-18.58321 1.63335,-19.01682 0.91661,-0.58276 3.25618,-0.39992 4.30779,0.33665 0.54749,0.38349 1.46609,1.97732 2.04131,3.54187 l 1.04588,2.84463 0.4597,-3.42761 0.4597,-3.42761 h 2.05657 2.05657 l -0.0143,3.08485 c -0.008,1.69667 -0.0592,6.06687 -0.11425,9.71157 l -0.1,6.62672 h -2.47363 -2.47363 l -1.24712,-3.31336 c -2.50309,-6.65023 -2.41002,-6.59818 -2.45162,-1.37105 l -0.0373,4.68441 h -2.43742 c -1.34057,0 -2.56082,-0.12342 -2.71166,-0.27425 z m 15.23216,-5.32419 c 0.0277,-5.39491 0.55804,-12.97483 0.93256,-13.3289 0.0997,-0.0942 3.009,-0.32056 6.46518,-0.50294 l 6.28396,-0.33161 v 2.33149 c 0,2.65102 0.1683,2.55127 -5.14142,3.04742 -2.77202,0.25903 -3.08494,0.38886 -3.08567,1.28017 -7.6e-4,0.92001 0.22285,0.99191 3.08485,0.99191 h 3.08567 v 1.77825 c 0,2.11511 -0.43239,2.41817 -3.99888,2.80279 -2.33605,0.25192 -2.62784,0.39751 -2.62784,1.31112 0,1.00101 0.10098,1.02242 3.88463,0.82383 l 3.88463,-0.20389 v 2.50315 2.50315 l -3.77038,0.29352 c -2.0737,0.16142 -4.9529,0.29473 -6.39821,0.29623 l -2.62783,0.003 z m 15.97422,4.30515 c -1.71162,-1.71161 -2.01146,-4.54285 -1.26663,-11.96015 l 0.57366,-5.71268 2.39933,-0.13814 c 2.80812,-0.16168 2.64924,-0.77747 1.95735,7.58584 -0.23489,2.83946 -0.31237,5.46158 -0.17217,5.82694 0.40641,1.05908 2.39536,0.81163 2.92555,-0.36397 0.25507,-0.56556 0.61057,-3.70182 0.78999,-6.96948 l 0.32622,-5.94119 2.47024,-0.1406 2.47024,-0.1406 -0.27127,6.69526 c -0.2331,5.75298 -0.41995,6.99043 -1.3277,8.7926 -1.35447,2.68903 -3.32236,3.75946 -6.9114,3.75946 -2.32178,0 -2.83885,-0.16872 -3.96341,-1.29329 z m 13.10689,0.97388 c -0.23458,-0.387 0.89712,-17.95753 1.17448,-18.23488 0.0891,-0.0891 1.69208,-0.38042 3.56218,-0.64737 4.5346,-0.64732 6.50898,-0.27532 8.01064,1.5093 1.05551,1.25441 1.17622,1.73586 1.0103,4.02963 -0.14029,1.93965 -0.50618,3.0216 -1.4325,4.23608 l -1.24409,1.63108 1.36622,2.70646 1.36622,2.70646 -1.80022,1.19133 c -0.99011,0.65522 -1.97951,1.19132 -2.19865,1.19132 -0.21914,0 -1.07694,-1.33677 -1.90623,-2.9706 -1.01511,-1.99991 -1.777,-2.9706 -2.33165,-2.9706 -0.69139,0 -0.84571,0.45922 -0.9599,2.85634 l -0.13606,2.85635 -2.12942,0.13761 c -1.17118,0.0757 -2.22928,-0.0272 -2.35132,-0.22851 z m 18.35059,-0.37535 c -0.66639,-0.36199 -1.67104,-1.60716 -2.23254,-2.76707 -0.88619,-1.83064 -0.9882,-2.6007 -0.77304,-5.83601 0.26135,-3.92993 0.95288,-6.07742 2.65288,-8.23837 3.19252,-4.05813 9.09187,-2.6596 10.48935,2.48666 0.79211,2.917 0.29939,8.21883 -1.00873,10.85409 -1.84892,3.72478 -5.87376,5.26836 -9.12792,3.5007 z m 11.68756,-8.10278 c 0.17941,-4.83865 0.48109,-8.95616 0.67041,-9.15003 0.18931,-0.19387 2.0091,-0.66651 4.04398,-1.0503 3.28307,-0.61922 3.88309,-0.62122 5.32734,-0.0177 2.09645,0.87595 3.47172,3.12977 3.47392,5.69313 0.004,3.94488 -2.03746,6.27652 -6.46888,7.39055 -2.3089,0.58044 -2.6522,1.12412 -2.66346,4.21815 l -0.006,1.7138 h -2.35163 -2.35164 z m 11.6893,7.90891 c 0,-1.20106 3.66861,-12.2619 5.18531,-15.6337 1.07871,-2.3981 1.29605,-2.60601 3.03057,-2.89905 2.32257,-0.3924 3.84114,0.48356 4.52452,2.60989 0.38761,1.206 3.25513,15.87109 3.25513,16.64734 0,0.11428 -1.28536,0.14653 -2.85635,0.0717 l -2.85634,-0.13606 -0.14488,-1.76481 c -0.13987,-1.70367 -0.1933,-1.75512 -1.54243,-1.4853 -0.76864,0.15373 -1.65057,0.27951 -1.95982,0.27951 -0.30926,0 -0.75312,0.66839 -0.98636,1.4853 -0.40794,1.42881 -0.52343,1.49051 -3.03671,1.62236 -2.37151,0.12442 -2.61264,0.0508 -2.61264,-0.79718 z m 16.75912,0.54586 c -0.23338,-0.39137 0.55501,-17.86669 0.84535,-18.73761 0.11961,-0.35881 1.06933,-0.57127 2.55371,-0.57127 h 2.36328 l -0.32532,6.83454 -0.32533,6.83454 3.34632,0.13494 3.34631,0.13494 0.13506,2.56055 0.13504,2.56057 -2.82992,0.29578 c -3.82902,0.40021 -8.9935,0.37397 -9.2445,-0.047 z m 12.66088,-4.11313 c 0.14831,-2.45074 0.39862,-6.76953 0.55626,-9.59731 l 0.28663,-5.14142 1.43535,-0.0541 c 3.3489,-0.12634 3.93557,0.40471 5.08582,4.60366 0.4851,1.77085 0.9933,3.21668 1.12935,3.21293 0.13604,-0.004 0.97785,-1.80324 1.8707,-3.99888 1.4223,-3.49765 1.77498,-4.00988 2.8476,-4.13584 0.83112,-0.0976 1.59393,0.22593 2.37552,1.00752 1.14976,1.14975 1.15128,1.16273 1.15128,9.85532 v 8.70406 h -2.74209 -2.74208 l -0.0202,-2.62783 -0.0202,-2.62784 -0.888,1.68116 c -0.95344,1.80503 -2.49223,2.62007 -3.345,1.77171 -0.28889,-0.28741 -0.76668,-1.18188 -1.06176,-1.98772 -0.52131,-1.42365 -0.53749,-1.39073 -0.57127,1.16269 l -0.0347,2.62783 h -2.79139 -2.79139 z m 17.65254,3.56727 c 0,-1.20106 3.6686,-12.2619 5.1853,-15.6337 1.07871,-2.3981 1.29605,-2.60601 3.03057,-2.89905 2.32257,-0.3924 3.84114,0.48356 4.52452,2.60989 0.38761,1.206 3.25513,15.87109 3.25513,16.64734 0,0.11428 -1.28536,0.14653 -2.85634,0.0717 l -2.85635,-0.13606 -0.14488,-1.76481 c -0.13987,-1.70367 -0.1933,-1.75512 -1.54243,-1.4853 -0.76864,0.15373 -1.65057,0.27951 -1.95982,0.27951 -0.30926,0 -0.75312,0.66839 -0.98636,1.4853 -0.40794,1.42881 -0.52343,1.49051 -3.03671,1.62236 -2.3715,0.12442 -2.61263,0.0508 -2.61263,-0.79718 z m -57.73822,-1.5107 c -0.12679,-0.3142 -0.23051,-0.0571 -0.23051,0.57127 0,0.62839 0.10372,0.88546 0.23051,0.57126 0.12678,-0.31419 0.12678,-0.82833 0,-1.14253 z m 23.91912,-1.05526 c 0,-0.39187 -0.20901,-0.58331 -0.46448,-0.42543 -0.25545,0.15788 -0.34614,0.4785 -0.20153,0.71249 0.39177,0.6339 0.66601,0.51571 0.66601,-0.28706 z m 47.07253,0 c 0,-0.39187 -0.20901,-0.58331 -0.46447,-0.42543 -0.25546,0.15788 -0.34615,0.4785 -0.20154,0.71249 0.39177,0.6339 0.66601,0.51571 0.66601,-0.28706 z m -79.25225,-2.25475 c 1.05922,-1.61659 1.42776,-8.36933 0.52205,-9.56564 -0.64583,-0.85304 -0.6889,-0.84328 -1.45758,0.32987 -1.10496,1.68638 -1.91968,7.74952 -1.24137,9.23825 0.65509,1.43778 1.23364,1.43712 2.1769,-0.003 z m 28.05958,-3.54522 c -0.008,-1.21944 -0.88384,-2.87514 -0.90627,-1.7138 -0.007,0.37703 -0.13724,1.14825 -0.2888,1.7138 -0.2026,0.75597 -0.0799,1.02829 0.46324,1.02829 0.46359,0 0.73623,-0.38307 0.73183,-1.02829 z m 47.07253,0 c -0.008,-1.21944 -0.88384,-2.87514 -0.90627,-1.7138 -0.007,0.37703 -0.13724,1.14825 -0.2888,1.7138 -0.2026,0.75597 -0.0799,1.02829 0.46325,1.02829 0.46358,0 0.73622,-0.38307 0.73182,-1.02829 z m -60.20471,-2.0776 c 0.43988,-0.38054 0.79978,-1.27699 0.79978,-1.99211 0,-1.17274 -0.15159,-1.30021 -1.54625,-1.30021 -1.64694,0 -2.09036,0.6894 -2.10363,3.27057 -0.005,1.02954 0.15001,1.17599 1.02204,0.96384 0.56556,-0.1376 1.38819,-0.56154 1.82806,-0.94209 z m -30.58995,-0.16163 c 1.27132,-0.66917 1.66802,-1.27469 1.67676,-2.55942 0.007,-1.1257 -0.64472,-1.27915 -2.47683,-0.58258 -0.95235,0.36208 -1.17229,0.74792 -1.17229,2.05657 0,1.71588 0.37867,1.92428 1.97236,1.08543 z m 105.92225,-25.83409 c -2.98371,-6.21823 -7.09188,-11.88268 -13.38845,-18.46036 -7.92874,-8.2827 -16.44511,-13.13371 -27.32496,-15.56456 -1.13112,-0.25272 -6.99233,-0.61248 -13.02493,-0.79947 -11.84523,-0.36716 -13.03436,-0.60701 -14.20174,-2.86446 -1.81959,-3.5187 0.43977,-7.77218 5.06347,-9.53253 2.91426,-1.10952 10.32955,-2.73927 16.45051,-3.6155 10.53531,-1.50818 16.5484,-4.02112 21.54156,-9.00249 9.66465,-9.64181 8.56849,-23.14955 -3.08998,-38.07677 -5.1386,-6.57933 -6.34265,-8.58003 -6.33052,-10.51897 0.0249,-3.98284 3.08145,-4.90183 8.0169,-2.41041 3.74578,1.89086 6.66454,4.27564 12.61384,10.30612 13.82861,14.01732 20.42279,26.65794 23.76205,45.55026 0.94256,5.33274 0.79492,23.17316 -0.24397,29.47746 -1.5119,9.17479 -3.62296,17.53902 -6.51709,25.82134 -0.65875,1.88519 -1.24579,3.48487 -1.30453,3.55484 -0.0588,0.07 -0.96871,-1.66905 -2.02216,-3.8645 z m 32.60289,-29.87935 c -3.0756,-1.18327 -5.6325,-3.4402 -7.29221,-6.43671 -1.22208,-2.20639 -1.35649,-2.8566 -1.35649,-6.56219 0,-3.69964 0.13549,-4.35772 1.34772,-6.54607 1.44889,-2.61558 3.38848,-4.37542 6.63708,-6.02199 2.60258,-1.31912 7.97204,-1.43744 10.75282,-0.23692 5.98246,2.58273 9.51838,9.04453 8.38237,15.31856 -1.52614,8.42859 -10.53091,13.5402 -18.47129,10.48532 z m 36.36429,-4.65838 c -0.005,-2.72009 -1.64731,-13.42078 -2.78252,-18.12095 -4.21697,-17.45973 -12.91026,-26.84952 -28.75837,-31.06243 -4.67578,-1.24297 -8.62857,-1.79606 -16.59456,-2.32197 -5.54593,-0.36614 -7.21183,-0.64587 -9.16115,-1.53831 -4.52918,-2.07353 -7.47362,-5.52058 -6.9095,-8.08898 0.79841,-3.63511 6.33615,-8.12404 12.61989,-10.22975 1.85576,-0.62188 6.5618,-1.57114 10.45785,-2.10948 17.78325,-2.45719 23.73372,-4.82505 30.5988,-12.1761 8.03181,-8.60039 10.24614,-20.4413 5.95558,-31.84693 -1.07686,-2.86262 -3.94662,-7.34306 -7.07156,-11.04055 -3.07871,-3.64278 -4.08205,-5.93459 -4.10159,-9.36881 -0.0198,-3.49015 1.06247,-5.43213 3.79196,-6.80378 3.99373,-2.00695 8.35447,-1.56451 12.78151,1.29683 2.16126,1.39689 3.67959,3.04008 7.47151,8.08595 12.53133,16.67533 21.03725,30.63679 25.85444,42.43698 1.82128,4.4614 2.19314,5.56923 3.60493,10.73985 2.1375,7.8285 2.64526,21.7701 1.11768,30.68884 -3.15109,18.39761 -13.12979,33.16094 -33.60391,49.71643 -2.5068,2.02702 -4.71761,3.68548 -4.91291,3.68548 -0.1953,0 -0.35644,-0.87404 -0.35808,-1.94232 z m -170.9206,-4.51809 c -9.91264,-1.01499 -18.58549,-3.51015 -26.93409,-7.74887 -8.92151,-4.52961 -12.38016,-8.53968 -12.35916,-14.32963 0.0229,-6.32388 4.71931,-11.7102 10.84252,-12.43541 4.02008,-0.47612 10.78785,1.98985 16.2797,5.93178 1.22372,0.87837 5.4761,4.7932 9.44973,8.69965 3.97363,3.90644 8.93645,8.37665 11.02849,9.93379 4.53565,3.37596 10.7519,6.45727 15.42193,7.64443 l 3.39196,0.86226 -2.93494,0.52391 c -7.23565,1.29163 -16.94036,1.66002 -24.18614,0.91809 z m 51.8712,-20.68726 c -4.92436,-1.56145 -8.68358,-4.70913 -10.93241,-9.15393 -1.74905,-3.457 -2.14113,-8.54081 -0.94088,-12.19985 2.49457,-7.60489 8.92596,-12.28869 16.85714,-12.2766 5.55335,0.008 9.92727,1.85733 13.45946,5.68931 3.06081,3.32057 3.91017,5.64456 3.93193,10.75829 0.0161,3.77605 -0.14093,4.68175 -1.20521,6.95242 -2.34772,5.00891 -5.90014,8.28313 -10.75853,9.91601 -3.2215,1.08273 -7.57384,1.21414 -10.4115,0.31435 z m -35.94786,-1.19679 c -2.32754,-1.22963 -4.34402,-3.84194 -4.96555,-6.43276 -0.97359,-4.05838 1.25095,-8.69663 5.17559,-10.79133 2.25174,-1.20182 6.49106,-1.05891 8.88191,0.29942 6.70576,3.80978 6.46034,13.44381 -0.43253,16.97868 -2.26331,1.16069 -6.40907,1.13483 -8.65942,-0.054 z m -74.64976,-3.74098 c -3.65102,-1.27622 -6.2643,-4.62397 -9.02348,-11.55949 -3.58729,-9.01712 -5.27335,-16.74452 -5.68386,-26.04985 -0.64981,-14.72969 3.68868,-29.04915 13.00075,-42.90969 14.41436,-21.45505 35.78486,-32.75016 62.26107,-32.90732 8.11769,-0.0482 10.6969,0.24834 18.2806,2.10168 11.1364,2.72156 21.54446,8.82688 24.31899,14.26541 1.88797,3.70071 1.02009,9.74043 -1.83524,12.77195 -3.62097,3.84437 -7.88987,5.03088 -19.97017,5.55053 -20.77966,0.89388 -33.90388,5.90718 -45.30244,17.305 -6.35803,6.35764 -10.56349,12.96876 -14.12339,22.20251 -2.25328,5.84461 -3.84454,12.26669 -7.11817,28.72774 -0.4992,2.5102 -1.94508,5.7856 -3.3905,7.68065 -2.03395,2.66666 -7.78751,4.08858 -11.41416,2.82088 z m 184.4711,-2.43414 c -1.91988,-1.61547 -2.58361,-3.80406 -1.75071,-5.7728 1.03755,-2.45246 2.37181,-3.35255 4.96971,-3.35255 1.99154,0 2.44052,0.18572 3.60813,1.49251 1.06243,1.18905 1.33356,1.91849 1.33356,3.58757 0,1.77326 -0.23867,2.33373 -1.55385,3.64891 -2.00272,2.00272 -4.51842,2.15364 -6.60684,0.39636 z m -126.86701,-16.7244 c -5.85622,-1.37187 -11.93913,-6.57038 -14.73335,-12.59126 -1.47394,-3.17599 -1.68237,-4.08754 -1.86964,-8.17689 -0.32824,-7.16718 1.31696,-11.69716 6.01425,-16.56 4.43088,-4.58704 9.51992,-6.67275 16.28122,-6.67275 6.35907,0 10.7921,1.69894 15.00017,5.74875 5.41168,5.20817 7.78047,12.94277 6.30113,20.57453 -2.12456,10.96031 -10.84743,18.28522 -21.61039,18.14704 -1.96654,-0.0252 -4.38907,-0.23649 -5.38339,-0.46942 z m 95.49591,-29.76168 c -3.97071,-6.11771 -10.71076,-11.5674 -19.56928,-15.82284 -7.94617,-3.81717 -12.03169,-7.56894 -14.78044,-13.57299 -1.7753,-3.87776 -1.77107,-8.74354 0.0102,-11.7831 3.15103,-5.37682 11.58725,-6.83658 19.2461,-3.33025 4.67906,2.14215 10.43339,8.69839 13.27608,15.12622 1.78338,4.03256 2.92162,8.66241 3.65566,14.8697 0.70554,5.96626 0.92433,17.38375 0.33246,17.34956 -0.18852,-0.0109 -1.16539,-1.28723 -2.17082,-2.8363 z m -51.09851,-0.78632 c -2.48168,-0.47846 -5.32113,-2.64724 -6.59967,-5.04086 -1.53333,-2.87064 -1.33149,-7.26097 0.45817,-9.96532 3.44065,-5.19918 10.95952,-5.87773 15.28946,-1.37982 1.53176,1.59118 2.87578,4.7062 2.87578,6.66518 0,6.04331 -5.98806,10.88447 -12.02374,9.72082 z m 235.62175,-5.81956 c -0.74993,-0.95419 -1.71742,-2.42641 -2.14999,-3.27161 -0.90809,-1.77436 -1.57461,-6.96588 -0.80016,-6.23253 0.62047,0.58757 4.78683,10.76587 4.51722,11.03548 -0.11195,0.11195 -0.81712,-0.57716 -1.56707,-1.53134 z m -149.56159,-1.37615 c -0.6284,-0.11127 -2.60383,-0.89932 -4.38984,-1.75122 -8.11331,-3.86993 -13.30978,-13.56629 -11.68135,-21.79682 1.80386,-9.1172 9.04632,-16.26277 17.9201,-17.68036 12.04327,-1.92392 23.74392,8.30036 23.74392,20.74794 0,9.49928 -6.29168,17.75355 -15.32598,20.10669 -2.50673,0.65292 -7.63585,0.83965 -10.26685,0.37377 z m -27.19239,-45.42429 c -4.11229,-0.5926 -10.04282,-2.39877 -17.75844,-5.40843 -9.80559,-3.8249 -17.40515,-6.23398 -27.25753,-8.64071 -13.40052,-3.27345 -30.67148,-5.38297 -41.13824,-5.02471 -2.76114,0.0945 -5.02027,0.0419 -5.02027,-0.11683 0,-0.60022 10.11446,-7.3589 13.91432,-9.29782 9.64575,-4.92186 22.70856,-8.74558 36.3033,-10.62665 7.37559,-1.02054 23.92221,-0.99858 31.58805,0.042 6.83137,0.92723 16.02519,2.73433 19.0601,3.74636 5.39945,1.80053 10.84356,5.35164 13.71409,8.94548 4.7385,5.93253 4.4503,15.54883 -0.62874,20.97873 -4.3193,4.61768 -13.35337,6.76057 -22.77664,5.40265 z M 420.06382,528.42341 c 0,-0.43543 7.97856,-8.76777 10.81731,-11.29697 1.21419,-1.0818 -0.67158,1.00669 -4.1906,4.64107 -3.51901,3.63438 -6.44962,6.69365 -6.51246,6.79838 -0.0629,0.10474 -0.11425,0.0406 -0.11425,-0.14248 z m 28.33492,-12.38734 c 1.3653,-1.38247 2.58519,-2.51358 2.71087,-2.51358 0.12568,0 -0.88855,1.13111 -2.25385,2.51358 -1.3653,1.38247 -2.58519,2.51358 -2.71087,2.51358 -0.12568,0 0.88856,-1.13111 2.25385,-2.51358 z"
   id="path2-0"
   style="stroke-width:0.457015" /></svg>
