<?xml version="1.0" encoding="UTF-8" standalone="no"?>
<svg
   version="1.0"
   width="1174.000000pt"
   height="1280.000000pt"
   viewBox="0 0 1174.000000 1280.000000"
   preserveAspectRatio="xMidYMid meet"
   id="svg3"
   sodipodi:docname="BreñaBajaLaPalma.svg"
   xml:space="preserve"
   inkscape:version="1.4 (86a8ad7, 2024-10-11)"
   xmlns:inkscape="http://www.inkscape.org/namespaces/inkscape"
   xmlns:sodipodi="http://sodipodi.sourceforge.net/DTD/sodipodi-0.dtd"
   xmlns="http://www.w3.org/2000/svg"
   xmlns:svg="http://www.w3.org/2000/svg"><defs
   id="defs3" /><sodipodi:namedview
   id="namedview3"
   pagecolor="#ffffff"
   bordercolor="#000000"
   borderopacity="0.25"
   inkscape:showpageshadow="2"
   inkscape:pageopacity="0.0"
   inkscape:pagecheckerboard="0"
   inkscape:deskcolor="#d1d1d1"
   inkscape:document-units="pt"
   showgrid="false"
   showguides="true"
   inkscape:zoom="0.68378906"
   inkscape:cx="929.38018"
   inkscape:cy="872.34505"
   inkscape:window-width="2560"
   inkscape:window-height="1369"
   inkscape:window-x="1912"
   inkscape:window-y="-8"
   inkscape:window-maximized="1"
   inkscape:current-layer="svg3"><inkscape:grid
     id="grid22"
     units="pt"
     originx="0"
     originy="0"
     spacingx="0.99999997"
     spacingy="1"
     empcolor="#0099e5"
     empopacity="0.30196078"
     color="#75addb"
     opacity="0.14901961"
     empspacing="5"
     enabled="true"
     visible="false" /></sodipodi:namedview><metadata
   id="metadata1">
                Created by potrace 1.15, written by Peter Selinger 2001-2017
                </metadata><g
   transform="translate(0.000000,1280.000000) scale(0.100000,-0.100000)"
   fill="#000000"
   stroke="none"
   id="g3"><path
     d="M4425 12777 c-33 -13 -100 -45 -150 -71 -379 -205 -660 -325 -1163 -497 -373 -127 -591 -189 -982 -279 -288 -67 -505 -172 -631 -306 -96 -103 -206 -267 -284 -424 -74 -146 -225 -631 -225 -720 0 -46 -33 -122 -85 -197 -57 -80 -108 -180 -125 -243 -7 -25 -18 -91 -25 -147 -11 -93 -16 -106 -45 -140 -74 -83 -112 -218 -125 -443 -14 -224 -31 -299 -160 -715 -208 -666 -337 -1170 -379 -1470 -23 -170 -40 -450 -41 -665 0 -177 2 -198 20 -229 14 -24 33 -38 60 -47 22 -7 101 -34 175 -60 494 -172 676 -225 830 -243 47 -6 171 -15 275 -21 553 -30 550 -30 628 -94 23 -19 75 -50 115 -69 40 -20 79 -41 87 -47 31 -25 13 -119 -73 -390 -68 -214 -77 -270 -76 -495 0 -192 16 -350 44 -445 18 -61 11 -118 -29 -243 -52 -160 -59 -187 -76 -282 -33 -180 -11 -367 65 -555 23 -58 55 -138 71 -177 48 -120 48 -167 0 -310 -67 -202 -76 -331 -33 -468 25 -76 39 -266 52 -720 13 -415 25 -626 45 -738 27 -155 83 -358 110 -399 49 -73 47 -73 525 -73 550 -1 623 -10 1165 -155 339 -91 577 -141 775 -164 74 -9 172 -21 216 -27 120 -17 1068 -5 1274 16 501 50 805 136 1575 445 578 232 843 312 1155 350 140 17 267 39 295 52 28 13 47 56 66 153 21 108 18 684 -4 880 -22 184 -49 322 -82 414 -14 37 -25 85 -25 105 0 22 29 111 70 218 122 312 150 436 150 668 0 179 -9 228 -60 346 -52 118 -52 173 -5 435 53 291 63 427 71 987 l7 502 119 0 c216 0 330 38 475 159 45 37 105 78 135 89 29 12 139 40 244 61 246 51 330 72 543 133 452 128 734 261 757 354 25 99 -230 1009 -571 2044 -63 190 -121 372 -129 405 -11 44 -15 109 -14 250 2 218 -8 268 -82 385 -78 124 -99 179 -115 296 -71 508 -233 1141 -356 1388 -152 305 -399 488 -961 709 -91 37 -382 142 -645 235 -750 265 -940 346 -1193 509 -161 103 -181 113 -229 113 -22 0 -97 -21 -168 -46 -241 -86 -481 -136 -808 -170 -239 -25 -777 -25 -955 -1 -299 42 -516 107 -849 256 -62 28 -127 51 -145 50 -17 0 -58 -10 -91 -22z m135 -344 c131 -219 259 -382 441 -559 197 -191 322 -277 501 -344 298 -112 466 -120 743 -33 113 35 332 142 444 217 163 109 511 444 670 645 36 46 73 92 81 103 14 18 19 16 111 -46 110 -73 139 -105 139 -150 0 -61 -147 -315 -287 -494 -295 -378 -737 -627 -1229 -693 -146 -19 -423 -7 -573 26 -494 106 -925 402 -1218 835 -116 172 -195 331 -197 399 -1 40 3 47 41 79 37 31 228 149 245 151 4 1 43 -61 88 -136z m378 -47 c324 -106 392 -118 769 -137 172 -8 291 -8 483 0 451 21 624 40 870 101 68 16 133 30 143 30 17 0 17 -2 -3 -29 -50 -72 -271 -288 -320 -315 -66 -36 -292 -93 -423 -106 -170 -18 -717 -25 -847 -11 -214 22 -545 107 -644 165 -25 14 -65 52 -89 84 -63 82 -164 227 -182 262 -14 27 -14 30 0 30 9 0 118 -33 243 -74z m-813 -236 c43 -80 96 -171 118 -204 62 -92 202 -249 353 -397 220 -214 291 -268 472 -359 306 -153 573 -219 879 -220 460 0 900 161 1259 463 203 170 366 373 525 656 35 62 73 120 85 128 19 12 47 4 285 -86 145 -54 433 -158 639 -231 980 -346 1165 -433 1380 -649 79 -80 104 -113 147 -196 46 -89 143 -347 143 -380 0 -35 -291 -516 -338 -558 -19 -18 -20 -17 -30 42 -22 126 -94 235 -163 246 -100 17 -204 -27 -197 -84 3 -26 4 -26 93 -26 118 -1 112 1 135 -44 24 -48 35 -132 26 -195 -6 -41 -13 -50 -49 -73 -23 -14 -106 -91 -183 -170 -78 -78 -146 -143 -153 -143 -24 0 -13 80 52 390 33 153 37 184 26 201 -23 37 -85 -58 -118 -181 -30 -112 -87 -424 -111 -605 -30 -232 -47 -548 -80 -1440 -40 -1105 -60 -1613 -70 -1773 -16 -234 -49 -351 -417 -1452 -421 -1263 -610 -1736 -937 -2342 l-48 -88 40 0 c33 0 45 6 72 37 152 172 440 835 776 1783 48 135 122 340 166 455 44 116 118 316 165 445 86 236 126 330 142 330 15 0 21 -103 21 -400 0 -412 -15 -600 -80 -975 -57 -327 -108 -468 -317 -875 -179 -349 -366 -677 -633 -1115 -144 -234 -212 -357 -225 -402 -8 -31 35 -54 61 -32 78 65 633 1013 956 1634 173 334 181 343 223 260 18 -35 20 -59 19 -195 0 -129 -5 -173 -26 -266 -45 -193 -175 -510 -287 -702 -61 -104 -160 -219 -408 -474 -209 -215 -303 -325 -303 -354 0 -31 58 -4 152 73 95 77 433 425 551 568 55 66 103 121 107 123 17 7 69 -193 90 -343 37 -272 54 -759 30 -846 -13 -48 -41 -59 -166 -69 -291 -24 -630 -128 -1299 -397 -691 -279 -1160 -400 -1704 -443 -204 -15 -760 -13 -916 5 -295 33 -612 98 -1025 210 -151 41 -331 86 -400 99 -263 53 -624 86 -951 86 -179 0 -198 4 -215 47 -22 51 -51 239 -68 433 -21 242 -25 318 -37 695 -11 356 -24 478 -64 595 -31 89 -29 125 16 256 81 240 78 367 -16 584 -124 286 -124 451 1 831 30 91 54 175 54 186 0 12 -13 76 -29 144 -41 174 -55 299 -48 448 6 140 22 227 74 405 20 67 47 164 60 216 13 52 29 99 34 105 15 15 35 -15 54 -85 35 -133 246 -715 381 -1050 190 -474 688 -1350 990 -1740 119 -154 344 -383 367 -374 37 14 7 77 -96 201 -218 263 -307 387 -454 633 -316 531 -717 1335 -858 1721 -159 434 -498 1522 -551 1769 -80 372 -124 685 -128 923 -2 120 -11 225 -29 347 -60 403 -82 737 -74 1155 6 285 16 418 62 825 23 205 30 426 16 501 -28 140 -82 227 -189 306 -43 31 -96 74 -118 95 -48 46 -95 60 -145 44 -48 -16 -66 -59 -79 -196 -13 -134 -28 -220 -39 -220 -25 0 -103 114 -176 260 -72 141 -67 180 46 419 112 235 245 403 386 487 112 66 177 88 495 164 502 121 1189 344 1593 518 77 33 143 57 146 54 4 -4 41 -72 84 -152z m1273 -326 c118 -31 278 -43 552 -44 274 0 504 15 603 41 43 11 82 17 86 14 16 -17 -178 -130 -324 -188 -146 -58 -233 -72 -445 -72 -177 1 -188 2 -252 27 -163 65 -371 186 -403 235 l-17 26 51 -7 c29 -4 95 -18 149 -32z m-3590 -1191 c51 -36 118 -118 147 -178 34 -68 49 -186 41 -320 -9 -144 -24 -230 -45 -257 l-18 -21 -50 27 c-131 72 -293 216 -349 312 -35 60 -24 75 52 67 54 -6 54 -6 68 28 8 19 19 77 26 129 12 95 35 214 46 231 10 17 46 9 82 -18z m8664 -214 c41 -112 106 -460 133 -719 22 -209 27 -223 90 -289 29 -31 63 -76 76 -101 23 -43 24 -52 21 -226 -3 -217 -1 -222 142 -659 207 -630 479 -1522 480 -1574 1 -33 -2 -35 -59 -58 -117 -46 -352 -115 -682 -198 -332 -85 -405 -109 -417 -140 -22 -58 68 -49 449 46 110 28 277 72 372 100 188 54 328 89 356 89 20 0 57 -72 78 -151 17 -64 0 -88 -96 -135 -88 -42 -396 -145 -611 -204 -198 -54 -525 -120 -597 -120 l-57 0 0 33 c0 17 7 145 15 282 30 524 46 1207 66 2890 l10 900 51 80 c82 131 139 206 151 202 7 -2 19 -24 29 -48z m-9186 -81 c31 -51 88 -130 126 -175 102 -120 310 -317 427 -403 l102 -75 -5 -65 c-3 -36 -11 -126 -17 -200 -22 -251 0 -1003 41 -1400 11 -107 31 -330 45 -495 14 -165 32 -351 40 -413 23 -181 117 -568 239 -985 60 -206 60 -257 -1 -257 -45 0 -91 28 -175 108 -112 106 -120 108 -318 92 -289 -24 -526 -1 -851 80 -289 72 -680 220 -732 277 -21 24 -25 96 -7 118 23 28 48 22 514 -126 47 -15 103 -11 110 7 23 59 -88 119 -488 264 l-118 43 6 61 c14 126 92 527 146 754 70 287 223 815 314 1081 74 217 129 489 146 730 5 70 14 140 20 155 6 16 35 62 65 103 66 91 90 161 100 298 8 119 19 147 85 231 66 84 89 129 96 189 8 74 13 95 24 95 5 0 34 -42 66 -92z m8849 -410 c16 -72 -34 -3172 -55 -3404 -14 -159 -52 -232 -163 -316 -83 -64 -190 -116 -273 -133 -78 -16 -284 -34 -284 -25 0 4 7 51 15 106 35 239 54 795 65 1854 11 1072 24 1279 85 1405 40 82 338 445 366 445 36 0 8 -214 -100 -770 -85 -438 -138 -660 -207 -872 -62 -191 -104 -361 -104 -418 0 -39 4 -52 22 -64 25 -18 41 -9 63 35 26 50 135 459 239 894 67 281 107 498 167 889 41 274 52 308 117 379 33 35 39 34 47 -5z m-97 -3826 c8 -57 -133 -218 -235 -268 -75 -37 -199 -44 -329 -19 -93 18 -134 36 -134 59 0 26 30 38 112 47 116 13 289 70 431 145 67 35 129 62 137 61 8 -1 16 -12 18 -25z"
     id="path1" /><path
     d="M2403 2124 c-8 -22 16 -40 172 -123 195 -105 980 -467 1320 -609 370 -155 635 -231 708 -203 73 28 -1 71 -298 176 -403 142 -868 335 -1414 587 -415 191 -473 211 -488 172z"
     id="path3" /></g><path
   style="display:inline;fill:#75addb;fill-opacity:1;stroke:#f5deb3;stroke-width:2.92488"
   d="m 680.03428,1678.2954 c -28.15834,-2.5608 -83.58359,-13.6088 -141.85662,-28.2763 -67.97198,-17.1088 -98.15435,-21.6662 -163.78753,-24.7312 l -42.40506,-1.9803 -3.34704,-10.238 c -4.79066,-14.6539 -9.38469,-64.7956 -12.69272,-138.5351 -1.87066,-41.699 -4.50541,-69.784 -7.57197,-80.7131 -4.48696,-15.9915 -4.4224,-17.7039 1.40526,-37.2721 9.03357,-30.333 8.04136,-49.1775 -4.502,-85.5045 -9.50101,-27.5159 -10.4394,-32.8778 -8.97577,-51.2865 0.89899,-11.3069 5.54091,-33.1217 10.31538,-48.4773 l 8.68086,-27.9192 -5.8366,-27.6535 c -4.1865,-19.8353 -5.43761,-34.2688 -4.42532,-51.0525 1.48475,-24.617 19.11238,-96.89797 22.67202,-92.96521 1.14197,1.26171 6.36889,15.45594 11.61537,31.54281 37.9734,116.4346 84.80622,213.8056 150.52615,312.962 25.47122,38.4302 66.61628,86.2839 74.18777,86.2839 8.44359,0 1.32833,-13.5816 -24.52233,-46.808 -30.57677,-39.3011 -54.30859,-77.6599 -89.56725,-144.7716 -51.60101,-98.2178 -70.89096,-144.0372 -102.20395,-242.76488 -44.00028,-138.72986 -55.06041,-188.49456 -61.10471,-274.93859 -1.79971,-25.73893 -4.54248,-53.37904 -6.09505,-61.42245 -1.55257,-8.04342 -3.62293,-47.5833 -4.60079,-87.86637 -1.41342,-58.22556 -0.73829,-83.71464 3.29292,-124.32187 2.78898,-28.09396 4.60841,-64.40164 4.04318,-80.68376 -1.20853,-34.81293 -4.84046,-41.81676 -33.03973,-63.71397 -27.58646,-21.42134 -35.03134,-18.00108 -40.15237,18.44642 l -3.44873,24.54539 -5.65792,-6.98724 c -8.70182,-10.7463 -22.56088,-39.6881 -22.5728,-47.13868 -0.006,-3.66541 6.59719,-19.97296 14.67345,-36.239 16.06591,-32.35765 35.23002,-55.12547 54.80659,-65.11269 6.51233,-3.32234 37.30935,-12.74567 68.43783,-20.94072 75.99035,-20.00565 156.52444,-46.628613 217.86971,-72.023386 1.85051,-0.766047 10.19662,10.721107 18.79205,25.864447 12.75955,22.479589 22.40498,34.176619 55.16853,66.903099 43.76087,43.71131 61.99353,55.4658 111.36505,71.79638 23.33099,7.71718 27.92238,8.22341 74.5844,8.22341 46.57159,0 51.2986,-0.51853 74.58441,-8.18158 66.57415,-21.90867 116.90944,-62.47196 155.59985,-125.39193 10.4993,-17.074475 19.4325,-28.517568 22.2624,-28.517568 5.6675,0 179.8901,62.747738 221.3705,79.728448 69.2085,28.3317 93.8075,51.63726 112.9414,107.00272 6.2263,18.01631 6.6407,16.71833 -18.5694,58.16597 -18.843,30.97951 -21.4624,33.16431 -23.9383,19.96661 -2.7247,-14.52365 -14.8075,-27.94858 -25.1545,-27.94858 -13.1188,0 -23.3294,5.01872 -23.3294,11.46686 0,4.7988 2.3222,5.9109 13.8931,6.65337 13.2522,0.85035 14.0619,1.40802 17.5481,12.08657 2.0102,6.1573 2.8097,14.05448 1.7767,17.54927 -1.8492,6.2557 -47.0559,50.52634 -49.3016,48.28068 -0.6339,-0.634 2.0294,-17.42406 5.9186,-37.31124 3.8892,-19.88717 6.409,-37.23 5.5996,-38.53963 -2.9432,-4.76222 -9.7088,1.00054 -14.1211,12.02815 -5.2037,13.00518 -14.8692,60.90989 -19.1713,95.01819 -4.0425,32.04933 -7.9509,108.147 -13.3697,260.31419 -2.5205,70.78207 -5.7824,143.41774 -7.2485,161.41262 -3.2011,39.28904 -8.0585,56.54495 -56.656,201.27234 -53.9808,160.7596 -70.2402,202.6865 -107.4723,277.1322 -22.4249,44.8389 -22.8452,46.0669 -15.7684,46.0669 19.6255,0 51.0716,-68.6079 128.6978,-280.7884 22.0701,-60.3256 41.9917,-112.97341 44.2702,-116.99511 3.6392,-6.42353 3.9948,1.04119 2.9258,61.42241 -1.2401,70.0479 -6.2423,112.0354 -18.1197,152.0937 -10.0324,33.8356 -51.1229,112.8913 -110.7995,213.1718 -40.2105,67.5695 -41.9946,71.7019 -30.2283,70.0137 4.3587,-0.6254 11.1752,-7.998 20.601,-22.2816 18.1293,-27.4726 73.4191,-123.7465 104.4831,-181.9322 13.312,-24.9345 25.5565,-47.0431 27.2099,-49.1301 5.3684,-6.776 7.8178,2.2797 7.8652,29.0791 0.05,28.349 -5.1972,48.7431 -23.2533,90.3735 -14.925,34.4114 -23.79,46.5954 -70.9404,97.4999 -38.5936,41.6664 -45.4909,51.5435 -35.9937,51.5435 6.9935,0 41.7675,-31.7367 73.1971,-66.8037 16.0868,-17.9486 30.1304,-32.6357 31.208,-32.6379 4.2236,-0.01 11.1289,41.8804 14.3445,87.0171 3.3853,47.5191 2.3993,66.0351 -3.718,69.8158 -1.801,1.1131 -14.5829,3.7213 -28.4043,5.7961 -32.4801,4.8757 -67.4994,15.152 -120.1883,35.2687 -145.11012,55.4033 -183.96151,66.5873 -256.96798,73.9726 -28.24374,2.8571 -101.04168,3.4369 -127.65354,1.0167 z m -63.49046,-134.9439 c -0.51408,-2.6693 -8.94911,-7.6848 -19.88651,-11.8245 -75.46474,-28.5627 -136.80955,-53.6569 -196.61809,-80.43 -38.17209,-17.0876 -72.16063,-31.0684 -75.53009,-31.0684 -24.31177,0 28.33341,29.1396 149.3212,82.6507 67.04179,29.6516 101.60508,42.5497 122.84491,45.8422 15.75246,2.4418 21.0681,1.0587 19.86858,-5.17 z"
   id="path81"
   transform="scale(0.75)" /><path
   fill="#000000"
   d="m 568.64424,877.88901 c -0.87976,-0.1052 -3.65612,-0.41195 -6.1697,-0.68159 -17.81575,-1.91169 -35.81716,-6.9023 -57.75766,-16.0126 -25.9028,-10.75551 -49.63464,-26.64211 -69.53369,-46.5473 -15.32603,-15.33078 -26.55801,-32.30481 -38.56768,-58.28442 -4.8794,-10.55525 -7.21399,-17.64686 -16.77374,-50.95241 -9.4718,-32.99916 -10.56654,-45.25506 -6.55505,-73.38573 5.22571,-36.64545 17.88894,-68.08422 37.72452,-93.658 4.7042,-6.06504 7.09661,-8.71528 4.33186,-4.79865 -17.87099,25.31641 -27.53736,47.06105 -35.38674,79.60299 -5.17298,21.44615 -6.00673,43.90679 -2.36349,63.67119 1.62041,8.79068 1.74336,8.50231 1.75375,-4.11313 0.0103,-12.49372 0.18157,-15.92082 1.27897,-25.59284 4.45364,-39.25252 20.64298,-76.60261 47.64127,-109.91209 4.97415,-6.13693 11.63141,-13.73054 11.84777,-13.51417 0.0918,0.0918 -1.65804,2.50171 -3.88862,5.35527 -25.43646,32.54063 -39.71973,62.8971 -45.33754,96.35669 -6.88008,40.97762 -4.60902,77.4289 6.67129,107.07657 4.20174,11.04329 14.23674,27.36098 24.7939,40.31684 9.51377,11.67541 22.88933,24.7086 35.48044,34.57227 9.87512,7.73601 36.58192,23.5975 55.96834,33.24027 21.97515,10.9304 39.65355,16.92091 53.54802,18.1453 l 3.50487,0.30886 -0.5188,1.1971 c -0.95356,2.20028 -2.74357,4.21915 -4.56459,5.14816 l -1.80387,0.92027 -4.73872,-0.95374 c -17.65937,-3.5542 -41.91078,-13.60244 -62.10795,-25.73356 -30.41538,-18.26854 -51.15754,-34.17668 -68.94293,-52.87558 -8.17003,-8.58967 -7.90933,-8.34298 -6.86961,-6.50014 1.28585,2.27912 9.42078,13.03661 12.83209,16.96895 19.22057,22.15618 37.49674,36.20812 63.89448,49.12636 23.87407,11.68323 51.9081,20.9881 70.3803,23.36019 4.96613,0.63772 8.56637,0.72035 21.93672,0.50354 15.26964,-0.24752 23.66549,-0.84611 36.56118,-2.60644 19.69528,-2.68855 47.10986,-8.88472 57.58389,-13.01495 14.59915,-5.75689 30.8213,-15.38891 49.12911,-29.17077 3.64469,-2.74368 6.9352,-5.19192 7.31224,-5.44054 1.35258,-0.89188 -3.54485,3.46715 -9.82583,8.74561 -20.26776,17.03282 -40.32672,29.14336 -57.8642,34.93535 -19.60369,6.47442 -46.15431,11.47443 -71.92804,13.54572 -6.27391,0.50418 -29.95837,0.97618 -32.67656,0.65115 z M 743.2381,818.21693 c 0.008,-0.0863 3.43095,-3.65298 7.60702,-7.92607 4.17607,-4.27309 6.89507,-6.8438 6.04222,-5.71269 -2.73727,3.63038 -13.73809,14.62275 -13.64924,13.63876 z m 17.46527,-18.66592 c 0.6209,-0.87975 3.06762,-4.27309 5.43717,-7.54075 19.98556,-27.56054 33.11505,-56.469 39.02214,-85.91881 2.77681,-13.84375 3.8541,-24.74261 3.86232,-39.07478 0.0124,-21.75042 -2.54915,-40.9633 -8.09319,-60.70116 l -1.70999,-6.08788 -0.51823,3.34579 c -0.51061,3.29655 -2.20468,9.86361 -2.66259,10.32152 -0.12912,0.12912 -0.4595,-0.35931 -0.73417,-1.08541 -1.65399,-4.3723 -6.60311,-15.29276 -10.23341,-22.58049 -14.0463,-28.19758 -29.82347,-49.51054 -48.85639,-65.99881 -34.49315,-29.88151 -73.89375,-48.07282 -121.18578,-55.95164 -16.45268,-2.741 -20.11716,-3.03572 -37.47522,-3.01403 -17.52255,0.0219 -23.85941,0.5908 -38.15357,3.42531 -27.72495,5.49781 -55.30753,18.32931 -79.99072,37.21193 -4.14664,3.17219 -2.48801,1.32154 2.73357,-3.05 22.54982,-18.87888 47.684,-32.58374 72.74824,-39.66729 16.82721,-4.75564 29.89369,-6.43249 50.05118,-6.4232 34.85231,0.0161 67.10494,7.07324 103.43742,22.63303 18.31029,7.84158 41.65101,22.62927 56.37993,35.71993 5.47039,4.86194 6.62277,5.55322 3.03201,1.81883 -9.05437,-9.41655 -22.96068,-20.67932 -35.41866,-28.68569 -19.30844,-12.40897 -48.17357,-25.53266 -67.1812,-30.54433 -17.34985,-4.57456 -42.02807,-7.33817 -59.41193,-6.65328 -21.92973,0.86398 -39.87906,3.82412 -59.86896,9.87337 -28.95361,8.76181 -55.74492,23.28637 -82.47638,44.71348 -8.55496,6.85738 -8.15432,6.11063 0.89921,-1.67606 26.77833,-23.03128 55.58469,-38.79963 88.20389,-48.28205 12.99527,-3.77773 26.33305,-6.36344 42.9594,-8.32828 9.31253,-1.10052 30.54265,-1.10368 39.9888,-0.006 30.19232,3.50862 55.08604,10.95479 82.94822,24.81129 22.85071,11.36419 38.39196,21.89758 52.50399,35.58563 19.78097,19.18667 38.28207,46.54834 48.05636,71.07156 16.09332,40.37737 21.00567,79.72227 14.55026,116.53881 -5.18114,29.54915 -18.48067,59.56853 -38.26721,86.37583 -4.21214,5.70672 -11.36573,14.67515 -14.03455,17.59507 -1.58369,1.73269 -1.61196,1.74461 -0.54196,0.22851 z M 644.73722,782.04299 c -5.3696,-2.59133 -9.76425,-9.48736 -11.11831,-17.44668 -0.62365,-3.66593 -0.64288,-4.77071 -0.13558,-7.78984 0.82818,-4.92877 3.00246,-9.95347 6.16739,-14.25274 6.98274,-9.48539 18.53374,-16.73291 40.04814,-25.12767 2.89062,-1.1279 5.52635,-2.16167 5.85718,-2.29727 0.33082,-0.1356 -1.13821,2.40281 -3.26452,5.64089 -4.85817,7.39834 -7.09361,11.58009 -9.13276,17.08431 -2.13434,5.76116 -2.99839,10.19249 -3.50709,17.9863 -0.23204,3.5552 -0.81067,7.92248 -1.28583,9.70508 -1.79685,6.741 -6.47934,13.1672 -11.64161,15.97687 -1.92159,1.04586 -3.08165,1.32607 -6.04016,1.45899 -3.14213,0.14117 -3.98606,0.008 -5.94685,-0.93824 z m -179.95729,-0.58981 c -0.59378,-0.59378 0.95133,-18.58321 1.63335,-19.01682 0.91661,-0.58276 3.25618,-0.39992 4.30779,0.33665 0.54749,0.38349 1.46609,1.97732 2.04131,3.54187 l 1.04588,2.84463 0.4597,-3.42761 0.4597,-3.42761 h 2.05657 2.05657 l -0.0143,3.08485 c -0.008,1.69667 -0.0592,6.06687 -0.11425,9.71157 l -0.1,6.62672 h -2.47363 -2.47363 l -1.24712,-3.31336 c -2.50309,-6.65023 -2.41002,-6.59818 -2.45162,-1.37105 l -0.0373,4.68441 h -2.43742 c -1.34057,0 -2.56082,-0.12342 -2.71166,-0.27425 z m 15.23216,-5.32419 c 0.0277,-5.39491 0.55804,-12.97483 0.93256,-13.3289 0.0997,-0.0942 3.009,-0.32056 6.46518,-0.50294 l 6.28396,-0.33161 v 2.33149 c 0,2.65102 0.1683,2.55127 -5.14142,3.04742 -2.77202,0.25903 -3.08494,0.38886 -3.08567,1.28017 -7.6e-4,0.92001 0.22285,0.99191 3.08485,0.99191 h 3.08567 v 1.77825 c 0,2.11511 -0.43239,2.41817 -3.99888,2.80279 -2.33605,0.25192 -2.62784,0.39751 -2.62784,1.31112 0,1.00101 0.10098,1.02242 3.88463,0.82383 l 3.88463,-0.20389 v 2.50315 2.50315 l -3.77038,0.29352 c -2.0737,0.16142 -4.9529,0.29473 -6.39821,0.29623 l -2.62783,0.003 z m 15.97422,4.30515 c -1.71162,-1.71161 -2.01146,-4.54285 -1.26663,-11.96015 l 0.57366,-5.71268 2.39933,-0.13814 c 2.80812,-0.16168 2.64924,-0.77747 1.95735,7.58584 -0.23489,2.83946 -0.31237,5.46158 -0.17217,5.82694 0.40641,1.05908 2.39536,0.81163 2.92555,-0.36397 0.25507,-0.56556 0.61057,-3.70182 0.78999,-6.96948 l 0.32622,-5.94119 2.47024,-0.1406 2.47024,-0.1406 -0.27127,6.69526 c -0.2331,5.75298 -0.41995,6.99043 -1.3277,8.7926 -1.35447,2.68903 -3.32236,3.75946 -6.9114,3.75946 -2.32178,0 -2.83885,-0.16872 -3.96341,-1.29329 z m 13.10689,0.97388 c -0.23458,-0.387 0.89712,-17.95753 1.17448,-18.23488 0.0891,-0.0891 1.69208,-0.38042 3.56218,-0.64737 4.5346,-0.64732 6.50898,-0.27532 8.01064,1.5093 1.05551,1.25441 1.17622,1.73586 1.0103,4.02963 -0.14029,1.93965 -0.50618,3.0216 -1.4325,4.23608 l -1.24409,1.63108 1.36622,2.70646 1.36622,2.70646 -1.80022,1.19133 c -0.99011,0.65522 -1.97951,1.19132 -2.19865,1.19132 -0.21914,0 -1.07694,-1.33677 -1.90623,-2.9706 -1.01511,-1.99991 -1.777,-2.9706 -2.33165,-2.9706 -0.69139,0 -0.84571,0.45922 -0.9599,2.85634 l -0.13606,2.85635 -2.12942,0.13761 c -1.17118,0.0757 -2.22928,-0.0272 -2.35132,-0.22851 z m 18.35059,-0.37535 c -0.66639,-0.36199 -1.67104,-1.60716 -2.23254,-2.76707 -0.88619,-1.83064 -0.9882,-2.6007 -0.77304,-5.83601 0.26135,-3.92993 0.95288,-6.07742 2.65288,-8.23837 3.19252,-4.05813 9.09187,-2.6596 10.48935,2.48666 0.79211,2.917 0.29939,8.21883 -1.00873,10.85409 -1.84892,3.72478 -5.87376,5.26836 -9.12792,3.5007 z m 11.68756,-8.10278 c 0.17941,-4.83865 0.48109,-8.95616 0.67041,-9.15003 0.18931,-0.19387 2.0091,-0.66651 4.04398,-1.0503 3.28307,-0.61922 3.88309,-0.62122 5.32734,-0.0177 2.09645,0.87595 3.47172,3.12977 3.47392,5.69313 0.004,3.94488 -2.03746,6.27652 -6.46888,7.39055 -2.3089,0.58044 -2.6522,1.12412 -2.66346,4.21815 l -0.006,1.7138 h -2.35163 -2.35164 z m 11.6893,7.90891 c 0,-1.20106 3.66861,-12.2619 5.18531,-15.6337 1.07871,-2.3981 1.29605,-2.60601 3.03057,-2.89905 2.32257,-0.3924 3.84114,0.48356 4.52452,2.60989 0.38761,1.206 3.25513,15.87109 3.25513,16.64734 0,0.11428 -1.28536,0.14653 -2.85635,0.0717 l -2.85634,-0.13606 -0.14488,-1.76481 c -0.13987,-1.70367 -0.1933,-1.75512 -1.54243,-1.4853 -0.76864,0.15373 -1.65057,0.27951 -1.95982,0.27951 -0.30926,0 -0.75312,0.66839 -0.98636,1.4853 -0.40794,1.42881 -0.52343,1.49051 -3.03671,1.62236 -2.37151,0.12442 -2.61264,0.0508 -2.61264,-0.79718 z m 16.75912,0.54586 c -0.23338,-0.39137 0.55501,-17.86669 0.84535,-18.73761 0.11961,-0.35881 1.06933,-0.57127 2.55371,-0.57127 h 2.36328 l -0.32532,6.83454 -0.32533,6.83454 3.34632,0.13494 3.34631,0.13494 0.13506,2.56055 0.13504,2.56057 -2.82992,0.29578 c -3.82902,0.40021 -8.9935,0.37397 -9.2445,-0.047 z m 12.66088,-4.11313 c 0.14831,-2.45074 0.39862,-6.76953 0.55626,-9.59731 l 0.28663,-5.14142 1.43535,-0.0541 c 3.3489,-0.12634 3.93557,0.40471 5.08582,4.60366 0.4851,1.77085 0.9933,3.21668 1.12935,3.21293 0.13604,-0.004 0.97785,-1.80324 1.8707,-3.99888 1.4223,-3.49765 1.77498,-4.00988 2.8476,-4.13584 0.83112,-0.0976 1.59393,0.22593 2.37552,1.00752 1.14976,1.14975 1.15128,1.16273 1.15128,9.85532 v 8.70406 h -2.74209 -2.74208 l -0.0202,-2.62783 -0.0202,-2.62784 -0.888,1.68116 c -0.95344,1.80503 -2.49223,2.62007 -3.345,1.77171 -0.28889,-0.28741 -0.76668,-1.18188 -1.06176,-1.98772 -0.52131,-1.42365 -0.53749,-1.39073 -0.57127,1.16269 l -0.0347,2.62783 h -2.79139 -2.79139 z m 17.65254,3.56727 c 0,-1.20106 3.6686,-12.2619 5.1853,-15.6337 1.07871,-2.3981 1.29605,-2.60601 3.03057,-2.89905 2.32257,-0.3924 3.84114,0.48356 4.52452,2.60989 0.38761,1.206 3.25513,15.87109 3.25513,16.64734 0,0.11428 -1.28536,0.14653 -2.85634,0.0717 l -2.85635,-0.13606 -0.14488,-1.76481 c -0.13987,-1.70367 -0.1933,-1.75512 -1.54243,-1.4853 -0.76864,0.15373 -1.65057,0.27951 -1.95982,0.27951 -0.30926,0 -0.75312,0.66839 -0.98636,1.4853 -0.40794,1.42881 -0.52343,1.49051 -3.03671,1.62236 -2.3715,0.12442 -2.61263,0.0508 -2.61263,-0.79718 z m -57.73822,-1.5107 c -0.12679,-0.3142 -0.23051,-0.0571 -0.23051,0.57127 0,0.62839 0.10372,0.88546 0.23051,0.57126 0.12678,-0.31419 0.12678,-0.82833 0,-1.14253 z m 23.91912,-1.05526 c 0,-0.39187 -0.20901,-0.58331 -0.46448,-0.42543 -0.25545,0.15788 -0.34614,0.4785 -0.20153,0.71249 0.39177,0.6339 0.66601,0.51571 0.66601,-0.28706 z m 47.07253,0 c 0,-0.39187 -0.20901,-0.58331 -0.46447,-0.42543 -0.25546,0.15788 -0.34615,0.4785 -0.20154,0.71249 0.39177,0.6339 0.66601,0.51571 0.66601,-0.28706 z m -79.25225,-2.25475 c 1.05922,-1.61659 1.42776,-8.36933 0.52205,-9.56564 -0.64583,-0.85304 -0.6889,-0.84328 -1.45758,0.32987 -1.10496,1.68638 -1.91968,7.74952 -1.24137,9.23825 0.65509,1.43778 1.23364,1.43712 2.1769,-0.003 z m 28.05958,-3.54522 c -0.008,-1.21944 -0.88384,-2.87514 -0.90627,-1.7138 -0.007,0.37703 -0.13724,1.14825 -0.2888,1.7138 -0.2026,0.75597 -0.0799,1.02829 0.46324,1.02829 0.46359,0 0.73623,-0.38307 0.73183,-1.02829 z m 47.07253,0 c -0.008,-1.21944 -0.88384,-2.87514 -0.90627,-1.7138 -0.007,0.37703 -0.13724,1.14825 -0.2888,1.7138 -0.2026,0.75597 -0.0799,1.02829 0.46325,1.02829 0.46358,0 0.73622,-0.38307 0.73182,-1.02829 z m -60.20471,-2.0776 c 0.43988,-0.38054 0.79978,-1.27699 0.79978,-1.99211 0,-1.17274 -0.15159,-1.30021 -1.54625,-1.30021 -1.64694,0 -2.09036,0.6894 -2.10363,3.27057 -0.005,1.02954 0.15001,1.17599 1.02204,0.96384 0.56556,-0.1376 1.38819,-0.56154 1.82806,-0.94209 z m -30.58995,-0.16163 c 1.27132,-0.66917 1.66802,-1.27469 1.67676,-2.55942 0.007,-1.1257 -0.64472,-1.27915 -2.47683,-0.58258 -0.95235,0.36208 -1.17229,0.74792 -1.17229,2.05657 0,1.71588 0.37867,1.92428 1.97236,1.08543 z m 105.92225,-25.83409 c -2.98371,-6.21823 -7.09188,-11.88268 -13.38845,-18.46036 -7.92874,-8.2827 -16.44511,-13.13371 -27.32496,-15.56456 -1.13112,-0.25272 -6.99233,-0.61248 -13.02493,-0.79947 -11.84523,-0.36716 -13.03436,-0.60701 -14.20174,-2.86446 -1.81959,-3.5187 0.43977,-7.77218 5.06347,-9.53253 2.91426,-1.10952 10.32955,-2.73927 16.45051,-3.6155 10.53531,-1.50818 16.5484,-4.02112 21.54156,-9.00249 9.66465,-9.64181 8.56849,-23.14955 -3.08998,-38.07677 -5.1386,-6.57933 -6.34265,-8.58003 -6.33052,-10.51897 0.0249,-3.98284 3.08145,-4.90183 8.0169,-2.41041 3.74578,1.89086 6.66454,4.27564 12.61384,10.30612 13.82861,14.01732 20.42279,26.65794 23.76205,45.55026 0.94256,5.33274 0.79492,23.17316 -0.24397,29.47746 -1.5119,9.17479 -3.62296,17.53902 -6.51709,25.82134 -0.65875,1.88519 -1.24579,3.48487 -1.30453,3.55484 -0.0588,0.07 -0.96871,-1.66905 -2.02216,-3.8645 z m 32.60289,-29.87935 c -3.0756,-1.18327 -5.6325,-3.4402 -7.29221,-6.43671 -1.22208,-2.20639 -1.35649,-2.8566 -1.35649,-6.56219 0,-3.69964 0.13549,-4.35772 1.34772,-6.54607 1.44889,-2.61558 3.38848,-4.37542 6.63708,-6.02199 2.60258,-1.31912 7.97204,-1.43744 10.75282,-0.23692 5.98246,2.58273 9.51838,9.04453 8.38237,15.31856 -1.52614,8.42859 -10.53091,13.5402 -18.47129,10.48532 z m 36.36429,-4.65838 c -0.005,-2.72009 -1.64731,-13.42078 -2.78252,-18.12095 -4.21697,-17.45973 -12.91026,-26.84952 -28.75837,-31.06243 -4.67578,-1.24297 -8.62857,-1.79606 -16.59456,-2.32197 -5.54593,-0.36614 -7.21183,-0.64587 -9.16115,-1.53831 -4.52918,-2.07353 -7.47362,-5.52058 -6.9095,-8.08898 0.79841,-3.63511 6.33615,-8.12404 12.61989,-10.22975 1.85576,-0.62188 6.5618,-1.57114 10.45785,-2.10948 17.78325,-2.45719 23.73372,-4.82505 30.5988,-12.1761 8.03181,-8.60039 10.24614,-20.4413 5.95558,-31.84693 -1.07686,-2.86262 -3.94662,-7.34306 -7.07156,-11.04055 -3.07871,-3.64278 -4.08205,-5.93459 -4.10159,-9.36881 -0.0198,-3.49015 1.06247,-5.43213 3.79196,-6.80378 3.99373,-2.00695 8.35447,-1.56451 12.78151,1.29683 2.16126,1.39689 3.67959,3.04008 7.47151,8.08595 12.53133,16.67533 21.03725,30.63679 25.85444,42.43698 1.82128,4.4614 2.19314,5.56923 3.60493,10.73985 2.1375,7.8285 2.64526,21.7701 1.11768,30.68884 -3.15109,18.39761 -13.12979,33.16094 -33.60391,49.71643 -2.5068,2.02702 -4.71761,3.68548 -4.91291,3.68548 -0.1953,0 -0.35644,-0.87404 -0.35808,-1.94232 z m -170.9206,-4.51809 c -9.91264,-1.01499 -18.58549,-3.51015 -26.93409,-7.74887 -8.92151,-4.52961 -12.38016,-8.53968 -12.35916,-14.32963 0.0229,-6.32388 4.71931,-11.7102 10.84252,-12.43541 4.02008,-0.47612 10.78785,1.98985 16.2797,5.93178 1.22372,0.87837 5.4761,4.7932 9.44973,8.69965 3.97363,3.90644 8.93645,8.37665 11.02849,9.93379 4.53565,3.37596 10.7519,6.45727 15.42193,7.64443 l 3.39196,0.86226 -2.93494,0.52391 c -7.23565,1.29163 -16.94036,1.66002 -24.18614,0.91809 z m 51.8712,-20.68726 c -4.92436,-1.56145 -8.68358,-4.70913 -10.93241,-9.15393 -1.74905,-3.457 -2.14113,-8.54081 -0.94088,-12.19985 2.49457,-7.60489 8.92596,-12.28869 16.85714,-12.2766 5.55335,0.008 9.92727,1.85733 13.45946,5.68931 3.06081,3.32057 3.91017,5.64456 3.93193,10.75829 0.0161,3.77605 -0.14093,4.68175 -1.20521,6.95242 -2.34772,5.00891 -5.90014,8.28313 -10.75853,9.91601 -3.2215,1.08273 -7.57384,1.21414 -10.4115,0.31435 z m -35.94786,-1.19679 c -2.32754,-1.22963 -4.34402,-3.84194 -4.96555,-6.43276 -0.97359,-4.05838 1.25095,-8.69663 5.17559,-10.79133 2.25174,-1.20182 6.49106,-1.05891 8.88191,0.29942 6.70576,3.80978 6.46034,13.44381 -0.43253,16.97868 -2.26331,1.16069 -6.40907,1.13483 -8.65942,-0.054 z m -74.64976,-3.74098 c -3.65102,-1.27622 -6.2643,-4.62397 -9.02348,-11.55949 -3.58729,-9.01712 -5.27335,-16.74452 -5.68386,-26.04985 -0.64981,-14.72969 3.68868,-29.04915 13.00075,-42.90969 14.41436,-21.45505 35.78486,-32.75016 62.26107,-32.90732 8.11769,-0.0482 10.6969,0.24834 18.2806,2.10168 11.1364,2.72156 21.54446,8.82688 24.31899,14.26541 1.88797,3.70071 1.02009,9.74043 -1.83524,12.77195 -3.62097,3.84437 -7.88987,5.03088 -19.97017,5.55053 -20.77966,0.89388 -33.90388,5.90718 -45.30244,17.305 -6.35803,6.35764 -10.56349,12.96876 -14.12339,22.20251 -2.25328,5.84461 -3.84454,12.26669 -7.11817,28.72774 -0.4992,2.5102 -1.94508,5.7856 -3.3905,7.68065 -2.03395,2.66666 -7.78751,4.08858 -11.41416,2.82088 z m 184.4711,-2.43414 c -1.91988,-1.61547 -2.58361,-3.80406 -1.75071,-5.7728 1.03755,-2.45246 2.37181,-3.35255 4.96971,-3.35255 1.99154,0 2.44052,0.18572 3.60813,1.49251 1.06243,1.18905 1.33356,1.91849 1.33356,3.58757 0,1.77326 -0.23867,2.33373 -1.55385,3.64891 -2.00272,2.00272 -4.51842,2.15364 -6.60684,0.39636 z m -126.86701,-16.7244 c -5.85622,-1.37187 -11.93913,-6.57038 -14.73335,-12.59126 -1.47394,-3.17599 -1.68237,-4.08754 -1.86964,-8.17689 -0.32824,-7.16718 1.31696,-11.69716 6.01425,-16.56 4.43088,-4.58704 9.51992,-6.67275 16.28122,-6.67275 6.35907,0 10.7921,1.69894 15.00017,5.74875 5.41168,5.20817 7.78047,12.94277 6.30113,20.57453 -2.12456,10.96031 -10.84743,18.28522 -21.61039,18.14704 -1.96654,-0.0252 -4.38907,-0.23649 -5.38339,-0.46942 z m 95.49591,-29.76168 c -3.97071,-6.11771 -10.71076,-11.5674 -19.56928,-15.82284 -7.94617,-3.81717 -12.03169,-7.56894 -14.78044,-13.57299 -1.7753,-3.87776 -1.77107,-8.74354 0.0102,-11.7831 3.15103,-5.37682 11.58725,-6.83658 19.2461,-3.33025 4.67906,2.14215 10.43339,8.69839 13.27608,15.12622 1.78338,4.03256 2.92162,8.66241 3.65566,14.8697 0.70554,5.96626 0.92433,17.38375 0.33246,17.34956 -0.18852,-0.0109 -1.16539,-1.28723 -2.17082,-2.8363 z m -51.09851,-0.78632 c -2.48168,-0.47846 -5.32113,-2.64724 -6.59967,-5.04086 -1.53333,-2.87064 -1.33149,-7.26097 0.45817,-9.96532 3.44065,-5.19918 10.95952,-5.87773 15.28946,-1.37982 1.53176,1.59118 2.87578,4.7062 2.87578,6.66518 0,6.04331 -5.98806,10.88447 -12.02374,9.72082 z m 235.62175,-5.81956 c -0.74993,-0.95419 -1.71742,-2.42641 -2.14999,-3.27161 -0.90809,-1.77436 -1.57461,-6.96588 -0.80016,-6.23253 0.62047,0.58757 4.78683,10.76587 4.51722,11.03548 -0.11195,0.11195 -0.81712,-0.57716 -1.56707,-1.53134 z m -149.56159,-1.37615 c -0.6284,-0.11127 -2.60383,-0.89932 -4.38984,-1.75122 -8.11331,-3.86993 -13.30978,-13.56629 -11.68135,-21.79682 1.80386,-9.1172 9.04632,-16.26277 17.9201,-17.68036 12.04327,-1.92392 23.74392,8.30036 23.74392,20.74794 0,9.49928 -6.29168,17.75355 -15.32598,20.10669 -2.50673,0.65292 -7.63585,0.83965 -10.26685,0.37377 z m -27.19239,-45.42429 c -4.11229,-0.5926 -10.04282,-2.39877 -17.75844,-5.40843 -9.80559,-3.8249 -17.40515,-6.23398 -27.25753,-8.64071 -13.40052,-3.27345 -30.67148,-5.38297 -41.13824,-5.02471 -2.76114,0.0945 -5.02027,0.0419 -5.02027,-0.11683 0,-0.60022 10.11446,-7.3589 13.91432,-9.29782 9.64575,-4.92186 22.70856,-8.74558 36.3033,-10.62665 7.37559,-1.02054 23.92221,-0.99858 31.58805,0.042 6.83137,0.92723 16.02519,2.73433 19.0601,3.74636 5.39945,1.80053 10.84356,5.35164 13.71409,8.94548 4.7385,5.93253 4.4503,15.54883 -0.62874,20.97873 -4.3193,4.61768 -13.35337,6.76057 -22.77664,5.40265 z M 420.11438,527.44654 c 0,-0.43543 7.97856,-8.76777 10.81731,-11.29697 1.21419,-1.0818 -0.67158,1.00669 -4.1906,4.64107 -3.51901,3.63438 -6.44962,6.69365 -6.51246,6.79838 -0.0629,0.10474 -0.11425,0.0406 -0.11425,-0.14248 z M 448.4493,515.0592 c 1.3653,-1.38247 2.58519,-2.51358 2.71087,-2.51358 0.12568,0 -0.88855,1.13111 -2.25385,2.51358 -1.3653,1.38247 -2.58519,2.51358 -2.71087,2.51358 -0.12568,0 0.88856,-1.13111 2.25385,-2.51358 z"
   id="path2-0"
   style="stroke-width:0.457015" />
                    
                    
                    
                    <path
   fill="#000000"
   d="m 454.22222,432.80191 c -11.91007,-1.24954 -21.05927,-3.6588 -30.89299,-8.1351 l -5.66676,-2.57949 v -41.08137 -41.08136 l 12.18149,-0.48025 c 15.60819,-0.61535 43.38507,-0.61535 58.99323,0 l 12.18152,0.48025 v 41.07707 41.07708 l -6.39796,2.95722 c -7.03646,3.25235 -14.28268,5.54807 -21.02186,6.66007 -5.29536,0.87376 -15.84831,1.47605 -19.37667,1.10588 z m 11.1782,-16.42846 -5.27367,-5.16182 -2.21596,1.30852 c -1.21879,0.7197 -3.93447,3.04805 -6.03487,5.1741 l -3.81891,3.86557 11.30854,-0.0122 11.30856,-0.0122 z m -14.68147,-18.41447 c -2.10039,-2.12605 -4.78066,-4.43346 -5.95613,-5.12759 l -2.13723,-1.26205 -4.2556,3.56136 c -2.34061,1.95876 -4.88246,4.26618 -5.64856,5.12761 l -1.39293,1.56625 h 11.60468 11.60468 z m 34.53305,1.60441 c -1.18117,-1.24364 -3.71533,-3.58074 -5.63147,-5.19357 -3.34805,-2.81807 -3.55268,-2.88739 -5.24718,-1.77751 -0.96981,0.63523 -3.67954,2.96033 -6.02163,5.16693 l -4.25836,4.01201 11.6531,0.0266 11.65313,0.0265 z m -34.71632,-21.55367 c -1.79291,-1.84174 -4.168,-4.0045 -5.27801,-4.80612 -2.01705,-1.45668 -2.01951,-1.45666 -4.38717,0.0146 -1.30294,0.8099 -3.8359,2.97264 -5.62881,4.80612 l -3.25981,3.33356 h 10.90682 10.9068 z m 32.90378,0 c -1.79291,-1.84174 -4.168,-4.0045 -5.27801,-4.80612 -2.01705,-1.45668 -2.01951,-1.45666 -4.38717,0.0146 -1.30294,0.8099 -3.8359,2.97264 -5.62881,4.80612 l -3.25981,3.33356 h 10.90682 10.9068 z M 448.91438,356.8477 c -2.71824,-2.59972 -5.42981,-4.72677 -6.02568,-4.72677 -0.5959,0 -3.30746,2.12705 -6.02571,4.72677 l -4.94222,4.72679 h 10.96793 10.96793 z m 32.90378,0 c -2.71824,-2.59972 -5.42981,-4.72677 -6.02568,-4.72677 -0.5959,0 -3.30747,2.12705 -6.02571,4.72677 l -4.94222,4.72679 h 10.96793 10.96793 z m -51.50158,-20.20039 c -0.43121,-0.53482 -1.82095,-3.04127 -3.0883,-5.56985 l -2.30429,-4.59744 4.22957,-1.87877 c 2.32628,-1.03333 7.35546,-2.70917 11.17596,-3.72409 9.1519,-2.43124 25.47959,-2.74662 35.08586,-0.67773 6.29715,1.35623 17.2251,5.20543 17.90628,6.30722 0.66005,1.06761 -4.96003,10.99557 -6.22444,10.99557 -0.64982,0 -3.13251,-0.79248 -5.51709,-1.7611 -12.97099,-5.2687 -29.45105,-5.43329 -43.0786,-0.43018 -6.14877,2.2574 -7.29189,2.44403 -8.18495,1.33637 z m -11.55191,-17.22854 c -1.78706,-2.82746 -2.23648,-4.41807 -2.45162,-8.67721 -0.56317,-11.14833 6.33522,-18.88248 17.66265,-19.80253 2.48921,-0.20223 6.0065,-1.07372 7.81621,-1.93676 3.69877,-1.76392 13.03808,-2.14759 15.78713,-0.64854 1.18186,0.64447 2.34351,0.58093 5.11837,-0.27997 4.54786,-1.41097 10.73843,-0.94739 14.76405,1.10561 1.92872,0.9836 4.4277,1.54878 6.89341,1.55902 10.31636,0.0429 18.1031,8.24575 18.11909,19.08753 0.005,3.90122 -0.39353,5.61702 -2.04035,8.76828 -1.12612,2.15487 -2.54025,4.01281 -3.14253,4.12876 -0.60229,0.11598 -3.02337,-0.64169 -5.38019,-1.68361 l -4.28512,-1.89439 2.64752,-2.18153 c 3.10672,-2.55993 4.04192,-5.97898 2.78366,-10.17716 -0.73001,-2.43572 -4.37677,-6.55924 -5.80426,-6.56312 -0.27076,-7.3e-4 -0.38117,1.96554 -0.24536,4.36946 0.27556,4.8779 -1.53344,11.55064 -3.31692,12.23477 -0.59939,0.23 -3.38848,0.007 -6.19798,-0.4945 l -5.10812,-0.91255 2.57253,-2.35554 c 1.41492,-1.29553 2.79378,-3.23661 3.06418,-4.31349 1.81092,-7.21283 -5.73972,-14.73764 -12.2901,-12.24807 l -2.00316,0.76134 v 8.42384 8.42386 h -4.38717 -4.38717 v -8.70698 -8.70698 l -2.83199,-0.4783 c -5.41894,-0.9152 -10.6307,2.98195 -11.54848,8.63547 -0.43864,2.70208 0.86026,5.85144 3.33767,8.09266 0.8455,0.7649 1.53726,1.64533 1.53726,1.95654 0,0.31121 -1.88353,0.9567 -4.1856,1.43444 -2.3021,0.47774 -4.58474,1.02172 -5.07257,1.20887 -0.49368,0.18931 -1.62613,-1.06412 -2.55394,-2.82687 -1.30977,-2.48842 -1.67213,-4.38084 -1.69099,-8.83092 -0.0122,-3.11511 -0.30369,-5.66424 -0.64552,-5.66476 -1.20443,-0.002 -5.51346,4.90717 -5.99663,6.83157 -0.84158,3.35198 0.2984,6.88337 3.10014,9.6034 l 2.63228,2.55555 -4.14797,1.83377 c -2.28138,1.00857 -4.54986,1.83319 -5.0411,1.83246 -0.49122,-7.1e-4 -1.87781,-1.55926 -3.08131,-3.46342 z m 37.65114,-34.90939 c 0,-2.35525 -0.17403,-2.55828 -2.19359,-2.55828 -2.07172,0 -2.19358,-0.16251 -2.19358,-2.92374 0,-2.76131 0.12186,-2.92375 2.19358,-2.92375 1.94986,0 2.19359,-0.24364 2.19359,-2.1928 0,-2.07099 0.16257,-2.19281 2.92478,-2.19281 2.76228,0 2.92478,0.12182 2.92478,2.19281 0,1.93795 0.24919,2.1928 2.1443,2.1928 2.35572,0 3.42831,1.80339 2.60847,4.38562 -0.32517,1.02406 -1.10633,1.46187 -2.60847,1.46187 -1.96318,0 -2.1443,0.21611 -2.1443,2.55828 0,2.49736 -0.0697,2.55827 -2.92478,2.55827 -2.85515,0 -2.92478,-0.0609 -2.92478,-2.55827 z"
   id="path4"
   style="stroke-width:0.731065" />
                    <path
   fill="#000000"
   d="m 716.26098,428.14184 c 0,-0.95023 0.46954,-2.32882 0.79319,-2.32882 0.11496,0 0.72835,-0.45581 1.363,-1.01291 0.79627,-0.69897 1.4192,-1.0129 2.00986,-1.0129 0.94001,0 3.68463,-1.41056 3.48119,-1.7891 -0.07,-0.13019 -0.29009,-0.23671 -0.48916,-0.23671 -0.1991,0 -1.11054,-0.40672 -2.02544,-0.90383 -1.63739,-0.88964 -1.69167,-0.89853 -3.46097,-0.5666 -2.42477,0.45489 -4.27568,-0.0314 -4.38921,-1.15301 -0.05,-0.49301 0.14392,-0.99424 0.57712,-1.49241 l 0.65225,-0.75009 -1.3321,-0.70714 c -1.26209,-0.66998 -1.44781,-0.69176 -3.53409,-0.41438 -1.90099,0.25274 -2.202,0.36747 -2.202,0.83928 0,1.5147 -2.02339,3.70118 -3.42513,3.70118 -0.62887,0 -0.66015,-0.0644 -0.53825,-1.1096 0.2005,-1.71911 -0.0572,-1.97805 -2.19799,-2.20874 -1.86475,-0.20095 -1.89169,-0.21546 -1.89169,-1.01895 0,-0.59714 0.20948,-0.96762 0.78344,-1.38553 l 0.78345,-0.57044 -2.60796,-0.35379 c -1.43439,-0.1946 -3.21562,-0.46997 -3.95831,-0.61196 -0.74269,-0.14199 -1.45692,-0.18242 -1.58716,-0.0898 -0.46781,0.33247 -1.46651,-0.17575 -1.46651,-0.74628 0,-1.0232 0.53322,-1.87702 1.93716,-3.10192 l 1.38998,-1.21272 -0.9707,-0.46642 c -1.06625,-0.51231 -1.0551,-0.51421 -3.27963,0.55674 -1.70984,0.82317 -4.0625,1.21605 -5.46724,0.913 -1.24526,-0.26866 -1.2274,-1.22247 0.0535,-2.85302 0.5286,-0.67292 1.31497,-1.95739 1.74749,-2.85437 l 0.78639,-1.63089 -0.86023,-1.55252 c -0.47313,-0.8539 -0.86811,-1.68276 -0.87772,-1.84193 -0.009,-0.15917 -1.44561,-1.07078 -3.19112,-2.02581 -3.87659,-2.12101 -4.35401,-2.52173 -4.35401,-3.65452 0,-0.76751 0.16042,-0.94967 1.44703,-1.64306 1.22588,-0.66066 1.78357,-0.77984 3.64913,-0.77984 1.21116,0 2.20207,-0.0977 2.20201,-0.21705 -5e-5,-0.11938 -0.27452,-0.21705 -0.60993,-0.21705 -0.84789,0 -2.14512,-1.33891 -2.70338,-2.79021 -0.44514,-1.15725 -1.62407,-5.94438 -1.90802,-7.74773 -0.0927,-0.58854 -0.005,-0.95095 0.29252,-1.20061 0.38941,-0.32744 0.35308,-0.4882 -0.43068,-1.9063 -0.98683,-1.78549 -2.442,-5.9692 -2.442,-7.02091 0,-1.11024 0.39811,-1.15102 1.85819,-0.19035 1.22159,0.80375 1.5556,0.88744 3.54156,0.88744 h 2.19276 l -1.0559,-1.37465 c -0.58075,-0.75606 -1.55297,-2.34866 -2.16048,-3.53912 -0.9508,-1.86312 -1.10458,-2.39094 -1.10458,-3.79137 0,-2.03687 0.36622,-3.27897 1.08159,-3.6684 1.48307,-0.80735 2.27747,-0.9782 4.13566,-0.88951 l 1.99672,0.0953 -0.22665,-1.02381 c -0.23785,-1.07436 -0.84081,-1.56296 -3.54236,-2.87049 -1.17076,-0.56664 -1.20812,-0.62186 -1.13246,-1.67394 0.077,-1.07118 0.0988,-1.092 1.40922,-1.34761 l 1.33096,-0.25962 -1.75338,-1.11343 c -1.95636,-1.24233 -3.19404,-2.78173 -4.16485,-5.18009 -0.51771,-1.27903 -0.63922,-2.02073 -0.63808,-3.89507 7.6e-4,-1.27337 0.094,-2.48304 0.20716,-2.68818 0.30346,-0.55003 1.5027,0.0531 1.78135,0.896 0.22677,0.68591 1.27359,1.64748 1.79354,1.64748 0.3465,0 0.25052,-1.83057 -0.38172,-7.28053 -0.25219,-2.17384 -0.39003,-4.15765 -0.30632,-4.40849 0.21766,-0.65228 0.82204,-0.31511 2.42246,1.3514 0.75372,0.78486 1.65969,1.62702 2.01325,1.87149 0.35357,0.24446 1.12403,1.04471 1.71214,1.77834 l 1.06931,1.33387 0.94395,-1.29765 c 1.94693,-2.67639 2.17798,-2.90681 2.73719,-2.72986 0.40909,0.12946 0.57113,0.47308 0.68887,1.46085 0.0847,0.71037 0.58005,2.42498 1.10085,3.81023 l 0.9469,2.51864 0.12583,-5.78802 0.12583,-5.78802 31.45723,-0.0821 c 17.30148,-0.0451 31.82529,-0.007 32.27513,0.0855 l 0.81788,0.16755 0.0207,5.70255 0.0207,5.70256 0.88516,-2.17051 c 0.48684,-1.19377 1.02539,-2.95189 1.19677,-3.90691 0.17252,-0.96143 0.44214,-1.72349 0.60409,-1.70746 0.16088,0.0159 0.44103,0.0485 0.62255,0.0724 0.18153,0.0238 0.93898,0.8899 1.68322,1.92451 0.74423,1.03461 1.44146,1.88111 1.54941,1.88111 0.1079,0 0.56788,-0.56708 1.02211,-1.26018 0.45422,-0.69309 1.52357,-1.81339 2.37633,-2.48955 0.85276,-0.67616 1.85249,-1.59188 2.22161,-2.03494 0.83296,-0.99982 1.63956,-0.87784 1.63648,0.24745 -8.4e-4,0.41915 -0.17743,2.19464 -0.39174,3.94551 -0.21429,1.75088 -0.45581,4.07448 -0.5367,5.16356 l -0.14706,1.98015 1.0421,-0.61138 c 0.57316,-0.33625 1.04211,-0.78389 1.04211,-0.99473 0,-0.21086 0.21707,-0.60928 0.48238,-0.8854 0.38484,-0.40049 0.5884,-0.43676 1.00664,-0.17937 0.46626,0.28696 0.52398,0.58562 0.52179,2.70003 -0.002,2.70358 -0.60365,4.5859 -2.16192,6.77275 -0.88955,1.24842 -3.64541,3.25448 -4.52874,3.2966 -0.62821,0.03 -0.28764,0.15916 1.47121,0.55814 1.42825,0.32399 1.44704,0.34128 1.44704,1.33092 0,0.92205 -0.0961,1.04918 -1.19537,1.58109 -2.22164,1.07498 -3.30366,1.83894 -3.44175,2.43001 -0.29005,1.24141 -0.20621,1.31202 1.55787,1.31202 1.7777,0 4.10792,0.76951 4.82406,1.59306 0.25513,0.2934 0.41287,1.14851 0.46776,2.53586 0.0805,2.03171 0.0499,2.15695 -1.03698,4.26371 -0.61591,1.19377 -1.59498,2.7891 -2.17572,3.54516 l -1.05591,1.37465 h 1.9169 c 1.94465,0 3.34853,-0.4519 4.21936,-1.35819 0.27288,-0.28398 0.44962,-0.33653 0.44962,-0.13367 0,0.18385 0.16987,0.33426 0.37748,0.33426 0.97146,0 -0.12937,4.43459 -1.89608,7.63821 -0.84964,1.54065 -0.91592,1.91202 -0.3413,1.91202 0.3144,0 0.37751,0.21043 0.28201,0.94055 -0.21152,1.61747 -1.4135,6.57101 -1.90366,7.84528 -0.55826,1.4513 -1.85549,2.79021 -2.70337,2.79021 -0.33542,0 -0.61008,0.0977 -0.61037,0.21705 -3e-4,0.11938 0.71897,0.17424 1.59836,0.12192 1.33055,-0.0792 1.94306,0.0612 3.64957,0.83674 1.88187,0.85518 2.05068,0.99826 2.05068,1.73819 0,1.06797 -0.52817,1.50438 -4.35402,3.59762 -1.7455,0.95503 -3.18151,1.86664 -3.19112,2.02581 -0.009,0.15917 -0.40459,0.98803 -0.87772,1.84193 l -0.86023,1.55252 0.79104,1.63089 c 0.43507,0.89698 1.22144,2.2253 1.74748,2.95182 1.56487,2.16123 1.24047,2.87138 -1.30849,2.86435 -1.50774,-0.004 -3.08891,-0.4428 -4.82809,-1.3394 -1.4202,-0.73217 -1.4392,-0.73386 -2.58586,-0.23027 l -1.15514,0.50732 0.69841,0.49945 c 2.44414,1.74783 3.60679,4.10309 2.22269,4.50257 -0.33817,0.0976 -0.72142,0.10172 -0.85166,0.009 -0.13026,-0.0926 -0.84449,-0.0511 -1.58716,0.092 -0.7427,0.14318 -2.58397,0.42354 -4.0917,0.62302 l -2.74136,0.3627 0.91437,0.60329 c 0.68964,0.45503 0.91497,0.79282 0.91683,1.37445 0.002,0.74916 -0.0515,0.77699 -1.88923,0.97502 -2.14081,0.23069 -2.39849,0.48963 -2.19798,2.20875 0.12189,1.0451 0.0906,1.10959 -0.53826,1.10959 -1.40173,0 -3.42511,-2.18647 -3.42511,-3.70118 0,-0.47181 -0.30102,-0.58653 -2.20201,-0.83928 -2.08939,-0.27778 -2.27062,-0.25633 -3.54356,0.41954 l -1.34156,0.71229 0.67056,0.80488 c 1.61927,1.94363 -0.29552,3.23991 -3.81148,2.58032 -1.75888,-0.32997 -1.83186,-0.31859 -3.39737,0.52973 -0.87995,0.47682 -1.98921,0.96437 -2.46506,1.08346 l -0.86515,0.21652 1.45556,0.83326 c 0.80056,0.45831 1.78806,0.83327 2.19446,0.83327 0.95867,0 2.16691,0.59999 3.11347,1.54607 0.41523,0.41504 0.95315,0.95323 1.19536,1.19598 0.26245,0.26302 0.44041,0.85067 0.44041,1.45427 v 1.0129 h -1.49564 c -0.99327,0 -2.25251,-0.29162 -3.74907,-0.8682 -1.23939,-0.47751 -2.49307,-0.8682 -2.78597,-0.8682 -0.29288,0 -0.72916,-0.12071 -0.96951,-0.26825 -0.24033,-0.14754 -1.17308,-0.64633 -2.07276,-1.10842 l -1.63578,-0.84019 -1.50995,0.79547 c -2.54646,1.34154 -2.72742,1.42139 -3.22168,1.42139 -0.26341,0 -1.49299,0.39069 -2.73239,0.8682 -1.49654,0.57658 -2.75579,0.8682 -3.74907,0.8682 -1.48873,0 -1.49562,-0.004 -1.49562,-0.85458 z m 2.97272,-1.76893 c 0.91385,-0.60266 1.31124,-1.03683 1.25572,-1.37194 -0.1484,-0.89566 -1.11873,-0.73112 -2.12498,0.36035 -0.52252,0.56677 -1.02757,1.0305 -1.12233,1.0305 -0.0948,0 -0.23749,0.19534 -0.31716,0.4341 -0.2421,0.72552 0.84518,0.51217 2.30875,-0.45301 z m 21.27744,0.45301 c -0.0797,-0.23876 -0.22239,-0.4341 -0.31716,-0.4341 -0.0947,0 -0.59983,-0.46373 -1.12233,-1.0305 -1.00626,-1.09147 -1.97659,-1.25601 -2.12499,-0.36035 -0.0555,0.33511 0.34187,0.76928 1.25573,1.37194 1.46357,0.96518 2.55085,1.17853 2.30875,0.45301 z m -17.92766,-1.26614 c 2.61491,-0.76435 4.23776,-1.53111 6.0941,-2.87933 0.8845,-0.64239 2.04816,-1.38871 2.58594,-1.65848 1.43424,-0.7195 4.56598,-2.14019 6.01089,-2.7268 1.49806,-0.60819 4.07625,-2.1702 4.7815,-2.89691 0.27682,-0.28525 1.10329,-0.86393 1.83658,-1.28596 1.29078,-0.74288 1.39784,-0.75716 3.3608,-0.44808 1.11515,0.17558 2.08803,0.2497 2.16193,0.16469 0.20477,-0.23547 -1.13277,-0.74954 -1.95019,-0.74954 -0.94288,0 -1.17181,-0.45841 -0.44593,-0.89293 0.61435,-0.36775 1.56221,-1.40357 1.41648,-1.54792 -0.0485,-0.048 -0.42589,-0.28681 -0.83862,-0.53055 -0.7031,-0.41525 -0.82656,-0.39879 -1.95894,0.26109 -0.6647,0.38735 -1.66023,1.2237 -2.21229,1.85856 -0.77786,0.89452 -1.03684,1.05511 -1.1508,0.71361 -0.24019,-0.71983 -0.67939,-0.49005 -1.42189,0.7439 -0.71016,1.18021 -2.1072,2.07702 -5.46607,3.50886 -0.76126,0.32451 -1.85919,0.83378 -2.43984,1.13171 -1.27723,0.65533 -1.33502,0.65953 -1.33502,0.0968 0,-0.32188 -0.40013,-0.13494 -1.44703,0.67601 -1.62532,1.25898 -3.35027,2.30288 -6.87595,4.16113 -1.32496,0.69834 -2.36651,1.41637 -2.31455,1.59561 0.052,0.17926 -0.0247,0.41064 -0.17047,0.51421 -0.24808,0.17631 -0.37793,0.73295 -0.17099,0.73295 0.0517,0 0.92935,-0.24419 1.95036,-0.54264 z m 14.31344,0.27031 c 0,-0.14977 -0.11922,-0.35705 -0.26494,-0.46062 -0.14573,-0.10357 -0.22362,-0.33084 -0.17312,-0.50506 0.0932,-0.32155 -2.9385,-2.13837 -4.65226,-2.78799 -0.80998,-0.30703 -1.04179,-0.28503 -1.6987,0.16122 -0.41839,0.28421 -0.76071,0.61626 -0.76071,0.73788 0,0.47817 2.57321,1.66402 6.03978,2.7834 1.17817,0.38042 1.50995,0.39607 1.50995,0.0712 z m -9.61548,-5.3043 1.00552,-0.6568 -1.2315,-0.93713 c -0.90488,-0.68858 -1.23148,-0.82141 -1.23148,-0.5008 0,0.55342 -0.0603,0.54866 -1.33502,-0.10536 -0.58065,-0.29793 -1.67859,-0.8072 -2.43985,-1.13171 -3.35887,-1.43184 -4.7559,-2.32865 -5.46606,-3.50886 -0.7425,-1.23395 -1.1817,-1.46373 -1.42189,-0.7439 -0.11391,0.3415 -0.37294,0.18091 -1.1508,-0.71361 -0.55206,-0.63486 -1.54759,-1.47121 -2.2123,-1.85856 -1.13239,-0.65988 -1.25583,-0.67634 -1.95893,-0.26109 -0.41273,0.24374 -0.79009,0.48249 -0.83862,0.53055 -0.14574,0.14435 0.80213,1.18017 1.41647,1.54792 0.72589,0.43452 0.49695,0.89293 -0.44592,0.89293 -0.81742,0 -2.15496,0.51407 -1.95019,0.74954 0.0739,0.085 1.04678,0.0109 2.16192,-0.16469 1.96297,-0.30908 2.07002,-0.2948 3.36081,0.44808 0.73329,0.42203 1.55975,1.00071 1.83658,1.28596 0.70525,0.72671 3.28342,2.28872 4.7815,2.89691 2.14719,0.87172 5.00931,2.1815 5.53647,2.53363 0.27683,0.18491 0.52007,0.34016 0.54054,0.345 0.0205,0.005 0.48972,-0.28677 1.04275,-0.64801 z m 3.03637,-2.0919 c 0.90662,-0.68662 1.51505,-0.96081 1.89117,-0.85226 1.05287,0.30388 7.72223,-2.87289 8.20379,-3.90765 0.19768,-0.42476 0.19978,-0.75995 0.007,-1.17341 -0.14815,-0.31834 -0.30145,-0.5788 -0.34066,-0.5788 -0.0392,0 -0.62977,0.18984 -1.31235,0.42186 -5.34063,1.81541 -14.46358,1.82709 -19.61207,0.0251 -1.1559,-0.40456 -1.28389,-0.40084 -1.57287,0.0457 -0.17301,0.26738 -0.31457,0.63223 -0.31457,0.81078 0,0.63437 1.41087,1.79403 3.27156,2.68903 3.56709,1.71581 4.39965,2.00645 4.8376,1.68878 0.31424,-0.22794 0.74752,-0.0514 1.87498,0.76369 0.80646,0.58307 1.52551,1.06448 1.59787,1.0698 0.0723,0.005 0.73305,-0.44588 1.4682,-1.00265 z m -24.77288,-5.24078 c 0.5055,-0.22307 0.5206,-1.44475 0.0206,-1.6654 -0.24097,-0.10634 -0.37748,0.005 -0.37748,0.308 0,0.26102 -0.18742,0.71275 -0.41649,1.00383 -0.37093,0.47134 -0.37319,0.52923 -0.0206,0.52923 0.21775,0 0.57503,-0.079 0.79397,-0.17566 z m 47.57318,-0.0938 c 0.0796,-0.14817 0.0297,-0.35121 -0.11096,-0.45119 -0.14067,-0.0999 -0.25577,-0.43043 -0.25577,-0.73438 0,-0.37233 -0.12316,-0.49829 -0.37749,-0.38606 -0.21518,0.0949 -0.37748,0.52657 -0.37748,1.00383 0,0.63581 0.11756,0.83723 0.48845,0.83723 0.26866,0 0.55363,-0.12123 0.63326,-0.2694 z m -24.27424,-1.90107 c 0,-0.40234 -0.14586,-0.72351 -0.32859,-0.72351 -0.18074,0 -0.71234,0.32558 -1.18136,0.72351 l -0.85275,0.7235 h 1.18135 c 1.09234,0 1.18135,-0.0545 1.18135,-0.7235 z m 6.35106,-0.0195 c 5.97663,-1.17191 11.55115,-4.35916 15.85688,-9.06623 4.2727,-4.67094 6.87475,-10.14497 8.40593,-17.6839 0.25498,-1.25539 0.42666,-4.11923 0.51614,-8.60967 l 0.13408,-6.72858 h -15.50622 -15.50621 v 21.45559 21.45559 l 1.95035,-0.19583 c 1.07269,-0.10771 2.93976,-0.38985 4.14905,-0.62697 z m -13.14582,0.0407 c 0,-0.38664 -1.75524,-1.02998 -2.74399,-1.00573 l -1.15671,0.0284 1.38412,0.52206 c 1.32731,0.50063 2.51658,0.7158 2.51658,0.4553 z m 5.19255,-1.95152 c 1.00392,-0.69969 1.35056,-1.11203 1.35056,-1.60655 v -0.66528 l -1.41954,0.87112 c -0.78076,0.47912 -1.8056,0.87113 -2.27742,0.87113 -0.76201,0 -2.25373,-0.6472 -2.59449,-1.12564 -0.40594,-0.56994 -1.47988,-0.93158 -2.7879,-0.93878 -1.27914,-0.007 -1.64583,0.12009 -2.54841,0.8834 -0.57987,0.49039 -1.25847,0.89162 -1.50803,0.89162 -0.69521,0 -0.53985,0.41452 0.29043,0.77492 0.56341,0.24456 0.96937,0.23398 1.6713,-0.0435 0.53948,-0.21328 0.78075,-0.42693 0.57704,-0.51097 -0.19256,-0.0795 0.16784,-0.23799 0.8009,-0.35234 1.22141,-0.22063 2.39024,0.17275 3.70801,1.24796 1.41834,1.15728 2.77272,1.07235 4.73755,-0.29707 z m -14.50389,0.62802 c 0,-0.15917 -0.1132,-0.2894 -0.25166,-0.2894 -0.13842,0 -0.25165,0.13023 -0.25165,0.2894 0,0.15917 0.1132,0.2894 0.25165,0.2894 0.13841,0 0.25166,-0.13023 0.25166,-0.2894 z m 32.84135,0 c 0.0855,-0.15917 0.0356,-0.2894 -0.11096,-0.2894 -0.14658,0 -0.26652,0.13023 -0.26652,0.2894 0,0.15917 0.0499,0.2894 0.11096,0.2894 0.0611,0 0.18097,-0.13023 0.26652,-0.2894 z m -29.06648,-3.67893 c 0.48443,-0.25204 0.93742,-0.54777 1.00662,-0.65719 0.0693,-0.10943 0.6187,-0.34017 1.2211,-0.51275 0.837,-0.23982 1.3117,-0.22488 2.01325,0.0634 1.15704,0.47541 2.5501,1.38936 2.5522,1.67444 0.002,0.35703 2.35122,0.23685 2.91114,-0.14896 1.86106,-1.28241 2.37527,-1.77321 2.37527,-2.26718 0,-0.75141 -0.62655,-0.69199 -1.58966,0.15075 -1.53337,1.34172 -2.66116,1.26114 -4.75524,-0.33978 -1.32745,-1.01482 -3.82361,-0.97592 -5.39651,0.0841 -0.60416,0.40716 -1.65546,0.81616 -2.3362,0.90887 -1.09913,0.1497 -1.42709,0.0489 -2.9288,-0.90037 -1.42951,-0.9036 -1.84101,-1.03982 -2.66031,-0.88064 -0.53308,0.10358 -0.96923,0.29971 -0.96923,0.43587 0,0.42651 1.09064,1.14857 1.73487,1.14857 0.33893,0 0.79504,0.18114 1.01356,0.40252 0.21851,0.22138 0.79695,0.64537 1.28543,0.94218 1.06174,0.64513 3.17623,0.59659 4.52251,-0.10381 z m -14.14709,-3.62148 c -1.69875,-1.91323 -2.05051,-2.18902 -2.43747,-1.91112 -0.81297,0.58386 -1.68467,0.0641 -2.26221,-1.34879 -0.2934,-0.71782 -0.61955,-1.30512 -0.72476,-1.30512 -0.10519,0 -0.39227,-0.6507 -0.6379,-1.446 -0.52936,-1.71399 -1.54206,-2.89502 -2.48241,-2.89502 h -0.67691 l 0.66082,1.37466 c 0.68993,1.43521 1.24223,2.19884 3.64484,5.03945 0.79587,0.94095 1.44703,1.82038 1.44703,1.95426 0,0.1339 0.33186,0.40152 0.73746,0.59472 0.40559,0.1932 1.17001,0.89344 1.69869,1.55609 0.52868,0.66265 1.29377,1.50239 1.70021,1.86608 l 0.73896,0.66126 0.28946,-0.95229 c 0.28763,-0.94623 0.27682,-0.96652 -1.69581,-3.18818 z m 53.44261,1.95611 c 0.73021,-0.86995 1.64348,-1.73216 2.02949,-1.91603 0.38602,-0.18387 0.70184,-0.44386 0.70184,-0.57776 0,-0.13388 0.65118,-1.01331 1.44704,-1.95426 2.40261,-2.84061 2.95492,-3.60424 3.64485,-5.03945 l 0.66082,-1.37466 h -0.67691 c -0.94035,0 -1.95305,1.18103 -2.48242,2.89502 -0.24562,0.7953 -0.53267,1.446 -0.63789,1.446 -0.10519,0 -0.43136,0.5873 -0.72477,1.30512 -0.57691,1.41142 -1.44912,1.93274 -2.25968,1.35062 -0.38283,-0.27494 -0.74503,8.1e-4 -2.43659,1.8551 -1.96765,2.15693 -1.98435,2.18749 -1.72214,3.15089 0.32725,1.20238 0.59348,1.07877 2.45636,-1.14059 z m -29.95882,-1.06743 c 1.24698,-0.48732 2.73129,-1.75754 2.73749,-2.34265 0.007,-0.70018 -0.46991,-0.6337 -1.55862,0.21705 -1.36422,1.06604 -3.28519,1.01118 -5.06618,-0.1447 -1.76221,-1.14369 -2.95095,-1.13808 -5.00498,0.0236 -2.2111,1.25055 -3.6234,1.25955 -4.95223,0.0315 -0.83706,-0.77357 -1.21226,-0.92334 -2.31298,-0.92334 -1.30683,0 -4.00049,0.79118 -4.00049,1.17502 0,0.11061 0.1686,0.36202 0.37465,0.55867 0.3,0.28633 0.57681,0.26456 1.38921,-0.10925 1.48149,-0.68168 2.18668,-0.58342 4.1501,0.5783 1.54499,0.91415 1.9213,1.02362 3.06037,0.89036 0.71434,-0.0835 1.61523,-0.39038 2.002,-0.68181 0.88221,-0.66475 2.3065,-1.24362 3.07386,-1.24933 0.32258,-0.002 1.17192,0.4353 1.88743,0.97266 1.93445,1.45278 2.6414,1.62095 4.22037,1.00389 z m 0.10048,-3.23816 c 1.60109,-0.7317 2.64241,-1.67309 2.64241,-2.38883 0,-0.88551 -0.12755,-0.87477 -2.05358,0.17305 -0.87751,0.47738 -1.84494,0.86808 -2.14985,0.8682 -0.66951,2.8e-4 -1.83636,-0.5783 -1.83636,-0.91054 0,-0.39741 -1.76197,-1.11503 -2.73772,-1.11503 -1.15531,0 -2.41897,0.4126 -3.27003,1.06771 -0.36365,0.27992 -0.71781,0.5182 -0.78702,0.52953 -0.0693,0.0113 -0.53225,0.11433 -1.02897,0.22892 -0.96907,0.22358 -2.88324,-0.53626 -3.49843,-1.3887 -0.57108,-0.7913 -2.88662,-0.5497 -5.23677,0.54637 -1.14873,0.53576 -2.13919,1.03227 -2.20102,1.10336 -0.0618,0.0711 0.15289,0.41586 0.47714,0.76615 l 0.58952,0.6369 1.61148,-0.87669 c 2.05824,-1.11974 3.17457,-1.12161 5.22021,-0.009 2.09857,1.14167 3.23998,1.12836 5.32888,-0.0622 2.05967,-1.17388 3.24452,-1.19578 4.77026,-0.0882 1.79963,1.30645 2.81884,1.53153 4.15985,0.91869 z m -9.70969,-3.82995 c 0.61137,-0.22508 1.30541,-0.61094 1.54231,-0.85748 0.89027,-0.92652 2.9008,-0.66163 4.48403,0.59077 0.99427,0.78652 1.53161,1.01291 2.40414,1.01291 0.61802,0 1.19481,-0.13236 1.28174,-0.29412 0.0869,-0.16178 0.26255,-0.21988 0.39024,-0.12912 0.35425,0.25178 2.24964,-1.6269 2.24964,-2.22981 0,-0.2917 -0.0428,-0.53036 -0.0951,-0.53036 -0.34631,0 -1.88815,0.90932 -1.95957,1.15568 -0.0482,0.16603 -0.68308,0.38298 -1.41102,0.48213 -1.02331,0.13938 -1.42464,0.075 -1.76927,-0.28362 -0.72014,-0.74945 -2.61299,-1.59297 -3.6989,-1.64834 -1.80722,-0.0921 -2.11095,-0.006 -2.94822,0.8368 -0.47115,0.47424 -1.27294,0.91811 -1.86443,1.03217 -0.885,0.17065 -1.32199,0.0428 -2.96868,-0.86817 -2.24307,-1.24098 -3.27694,-1.25435 -5.32935,-0.0689 -1.90101,1.09802 -2.99749,1.25259 -3.79137,0.53445 -0.36084,-0.32638 -0.85667,-0.59343 -1.10188,-0.59343 -0.39141,0 -0.41352,0.12103 -0.18114,0.99175 0.28826,1.08011 0.31448,1.09099 2.70811,1.12404 1.3335,0.0184 1.85832,-0.12151 2.84008,-0.75721 1.66047,-1.07514 2.78504,-1.02471 4.56016,0.20453 1.55445,1.07644 2.39237,1.12955 4.65848,0.2953 z m -10.80552,-2.90274 1.01172,-0.46553 v -2.31792 c 0,-2.1628 0.0505,-2.38411 0.75498,-3.30676 l 0.75497,-0.98883 v -4.04154 -4.04155 h -0.8808 -0.8808 v -1.447 c 0,-1.25407 0.0671,-1.44701 0.50331,-1.44701 0.44231,0 0.50332,-0.19293 0.50332,-1.5917 0,-0.87544 0.0473,-1.59171 0.10519,-1.59171 0.0578,0 0.28437,-0.079 0.50331,-0.17566 0.28537,-0.12593 0.39807,-0.003 0.39807,0.4341 0,0.34908 0.16139,0.60976 0.37749,0.60976 0.20971,0 0.37748,-0.25724 0.37748,-0.5788 0,-0.42445 0.16777,-0.5788 0.62915,-0.5788 0.60656,0 0.62914,0.0675 0.62914,1.88111 0,1.68817 0.0516,1.8811 0.50332,1.8811 0.33554,0 0.50331,0.19294 0.50331,0.57881 0,0.31834 0.1132,0.5788 0.25167,0.5788 0.15252,0 0.25165,-1.25407 0.25165,-3.18341 v -3.18341 h 0.75498 c 0.5872,0 0.75497,0.12862 0.75497,0.5788 0,0.38587 0.16777,0.5788 0.50332,0.5788 0.33553,0 0.50331,-0.19293 0.50331,-0.5788 0,-0.45018 0.16777,-0.5788 0.75497,-0.5788 h 0.75498 v 3.03871 c 0,1.83287 0.0999,3.03871 0.25165,3.03871 0.13842,0 0.25166,-0.26046 0.25166,-0.57881 0,-0.42445 0.16778,-0.5788 0.62915,-0.5788 0.59482,0 0.62914,-0.0868 0.62914,-1.5917 0,-1.39877 0.061,-1.59171 0.50332,-1.59171 0.27961,0 0.50332,0.19294 0.50332,0.4341 0,0.24117 0.22369,0.4341 0.5033,0.4341 0.27962,0 0.50332,-0.19293 0.50332,-0.4341 0,-0.23875 0.16987,-0.4341 0.37749,-0.4341 0.28979,0 0.37749,0.36979 0.37749,1.59171 0,1.39877 0.061,1.5917 0.50332,1.5917 0.4362,0 0.50331,0.19294 0.50331,1.44701 0,1.41485 -0.0167,1.447 -0.75498,1.447 h -0.75497 v 4.17411 c 0,4.03016 0.0218,4.20376 0.62915,5.03395 0.5317,0.72666 0.62914,1.155 0.62914,2.76566 v 1.90582 l 1.32121,0.87135 c 1.71938,1.13394 3.56845,1.21471 4.63635,0.20252 0.39125,-0.37084 0.90956,-0.75744 1.15177,-0.85913 0.40943,-0.17186 0.44041,-0.9999 0.44041,-11.76999 V 369.0904 h -15.60278 -15.6028 l 0.001,5.42627 c 10e-4,6.42665 0.38532,9.7762 1.62034,14.14978 l 0.88723,3.14193 1.70245,1.07689 c 1.91605,1.212 2.39648,1.29066 3.83645,0.62809 z m 10.01837,-2.39316 c 0.0596,-2.225 -0.005,-2.81159 -0.35358,-3.25576 -0.60761,-0.77208 -1.8917,-0.70156 -2.58062,0.14175 -0.49523,0.60621 -0.55,0.9409 -0.48428,2.95881 0.0682,2.0939 0.12429,2.30496 0.70328,2.64758 0.34603,0.20476 1.08213,0.33839 1.63577,0.29696 l 1.00664,-0.0753 z m 17.98947,0.33954 c -0.35687,-0.62601 -0.43194,-1.27791 -0.3749,-3.25576 0.10295,-3.569 0.10943,-11.03353 0.0122,-13.96151 -0.0958,-2.88431 0.17963,-3.59682 1.04294,-2.69835 0.2801,0.2915 0.50927,0.70516 0.50927,0.91925 0,0.31882 1.63343,0.38924 9.02914,0.38924 h 9.02917 l 0.31753,-0.88159 c 0.37462,-1.04006 0.96309,-1.03358 1.44827,0.0159 0.40517,0.87642 0.2774,4.97742 -0.1603,5.14519 -0.37199,0.14259 -0.40594,9.03289 -0.0345,9.03289 0.60331,0 0.12316,4.07831 -0.66068,5.6116 -0.64928,1.27006 -0.84927,0.14902 -0.84927,-4.76048 v -4.90273 h -9.05969 -9.05968 v 5.06451 c 0,4.27373 -0.0581,5.06452 -0.37168,5.06452 -0.20443,0 -0.57249,-0.35223 -0.8179,-0.78274 z m 1.87488,0.20394 c -0.0963,-0.39793 -0.17668,-0.82118 -0.17856,-0.94056 -10e-4,-0.11937 3.84692,-0.21705 8.55292,-0.21705 7.28215,0 8.55637,0.0621 8.55637,0.41702 0,0.22937 -0.1132,0.49751 -0.25165,0.59589 -0.13841,0.0984 -0.2534,0.009 -0.25551,-0.19998 -0.004,-0.30625 -0.0431,-0.30764 -0.20887,-0.008 -0.11273,0.20436 -0.38423,0.29247 -0.60328,0.1958 -0.2573,-0.11354 -0.44026,0.011 -0.51691,0.35195 -0.10778,0.47931 -0.12133,0.48126 -0.14785,0.0212 -0.016,-0.27855 -0.13413,-0.50646 -0.26239,-0.50646 -0.12827,0 -0.28499,0.22791 -0.34829,0.50646 -0.10649,0.46882 -0.11733,0.46949 -0.14429,0.009 -0.0186,-0.31724 -0.1659,-0.43704 -0.40668,-0.33079 -0.21852,0.0965 -0.38421,9.7e-4 -0.39344,-0.22613 -0.008,-0.21599 -0.14166,-0.0671 -0.2953,0.33079 l -0.27935,0.7235 -0.10236,-0.67472 c -0.0972,-0.64033 -0.12017,-0.64771 -0.45167,-0.1447 -0.20585,0.31236 -0.35259,0.38146 -0.3573,0.16827 -0.012,-0.54411 -0.45784,-0.43468 -0.5895,0.1447 -0.10966,0.48234 -0.1165,0.48234 -0.14428,0 -0.0313,-0.54444 -0.53251,-0.71957 -0.53251,-0.18608 0,0.17619 -0.15607,0.25149 -0.34682,0.16731 -0.19076,-0.0842 -0.47387,-0.007 -0.62915,0.17161 -0.20866,0.23995 -0.28231,0.1963 -0.28231,-0.16731 0,-0.65171 -0.49823,-0.63787 -0.52102,0.0145 -0.0153,0.43719 -0.044,0.42905 -0.21019,-0.0595 -0.19105,-0.56168 -0.19466,-0.56168 -0.47797,0 -0.28183,0.55876 -0.28567,0.55859 -0.30112,-0.0128 -0.0154,-0.57114 -0.0206,-0.57136 -0.38514,-0.0171 -0.32219,0.48985 -0.36949,0.49911 -0.36949,0.0724 0,-0.65063 -0.50103,-0.63393 -0.51131,0.0171 -0.007,0.4783 -0.027,0.47783 -0.34773,-0.009 -0.32569,-0.49367 -0.34728,-0.49367 -0.52233,0 -0.16947,0.47793 -0.19681,0.47334 -0.38024,-0.0639 -0.18314,-0.53637 -0.21099,-0.54113 -0.37986,-0.0649 -0.14189,0.40012 -0.25927,0.44031 -0.53032,0.18161 -0.26751,-0.2553 -0.34988,-0.24025 -0.35576,0.0649 -0.005,0.24322 -0.11831,0.17779 -0.29313,-0.16879 -0.2833,-0.56168 -0.28692,-0.56168 -0.47797,0 -0.16617,0.48856 -0.19492,0.49671 -0.21019,0.0595 -0.009,-0.27855 -0.12263,-0.50645 -0.25089,-0.50645 -0.12826,0 -0.285,0.2279 -0.34829,0.50645 -0.10966,0.48233 -0.1165,0.48233 -0.14428,0 -0.016,-0.27855 -0.13413,-0.50645 -0.2624,-0.50645 -0.12827,0 -0.285,0.2279 -0.34829,0.50645 -0.10967,0.48233 -0.1165,0.48233 -0.14429,0 -0.016,-0.27855 -0.13413,-0.50645 -0.26239,-0.50645 -0.12827,0 -0.28501,0.2279 -0.3483,0.50645 -0.10966,0.48233 -0.11649,0.48233 -0.14428,0 -0.016,-0.27855 -0.13413,-0.50645 -0.2624,-0.50645 -0.12826,0 -0.2744,0.2279 -0.32474,0.50645 -0.0701,0.38804 -0.13251,0.33729 -0.26669,-0.21705 z m -44.36873,-3.73756 c -0.35749,-0.97255 -0.6504,-3.40034 -0.53281,-4.41616 0.0946,-0.81713 -10e-4,-1.21766 -0.41663,-1.72956 -0.44162,-0.54507 -0.54265,-1.03633 -0.5558,-2.7026 -0.0145,-1.83383 -0.10401,-2.18658 -0.89981,-3.54551 l -0.88372,-1.50907 -0.42856,1.03345 c -0.41985,1.0125 -0.41475,1.06666 0.25128,2.67046 0.51097,1.23041 0.72757,2.31988 0.87208,4.38632 0.18414,2.63293 0.48794,4.02422 1.41303,6.47106 l 0.42237,1.11714 0.46359,-0.65839 c 0.2682,-0.38088 0.39253,-0.85174 0.29498,-1.11714 z m 77.43995,-1.42805 c 0.27249,-0.89943 0.58313,-2.8725 0.69031,-4.38462 0.14611,-2.06114 0.36505,-3.15907 0.87471,-4.38632 0.66602,-1.6038 0.67112,-1.65796 0.25126,-2.67046 l -0.42854,-1.03345 -0.88374,1.50907 c -0.79411,1.35605 -0.88558,1.71489 -0.90205,3.53866 -0.0139,1.53401 -0.13117,2.17812 -0.48049,2.63787 -0.34757,0.45747 -0.48,1.17499 -0.53411,2.89401 -0.0396,1.25715 -0.21662,2.64333 -0.39341,3.08041 -0.2793,0.69049 -0.2602,0.87249 0.14567,1.38823 l 0.46711,0.59357 0.34892,-0.76583 c 0.19191,-0.42121 0.57188,-1.50172 0.84436,-2.40114 z m -71.78916,-1.72636 c 0.48943,-0.42738 0.5661,-0.68213 0.42606,-1.41543 l -0.17081,-0.89425 -1.07925,0.69367 c -0.63011,0.405 -1.72382,0.77116 -2.62807,0.87984 l -1.5488,0.18616 v 0.97169 c 0,0.94701 0.0271,0.97218 1.06954,0.99201 0.58825,0.0112 1.29605,0.12819 1.57286,0.26001 0.37475,0.17846 0.66403,0.0618 1.13247,-0.45642 0.34603,-0.38286 0.89773,-0.93064 1.226,-1.21728 z m 69.69158,0.46322 0.0759,-1.0101 -1.56178,-0.18773 c -0.92046,-0.11063 -2.00785,-0.47442 -2.64807,-0.88591 l -1.08628,-0.6982 -0.16336,1.00133 c -0.0899,0.55073 -0.11744,1.05418 -0.0612,1.11879 0.0562,0.0646 0.54362,0.4856 1.08319,0.93554 0.85801,0.71547 1.18826,0.81294 2.63338,0.77722 l 1.65234,-0.0408 z m -54.81147,-2.41008 c 0,-1.35691 -0.70404,-2.69703 -1.22309,-2.32813 -0.43397,0.30843 -1.04183,1.95307 -1.04183,2.81879 0,0.78335 0.0555,0.82374 1.13245,0.82374 h 1.13247 z m 6.7857,0.0844 c -0.007,-0.8584 -0.19153,-1.48669 -0.61314,-2.07983 l -0.60409,-0.84986 -0.30805,0.77751 c -0.16944,0.42764 -0.40313,0.77752 -0.51932,0.77752 -0.11626,0 -0.21127,0.58604 -0.21127,1.30231 v 1.3023 h 1.13246 1.13246 z m 34.48618,-5.11316 c 0,-1.89703 -0.0687,-3.65514 -0.15275,-3.90691 -0.13531,-0.4055 -1.16988,-0.45777 -9.05969,-0.45777 h -8.90692 v 3.90691 3.90691 h 9.05967 9.05969 z m -65.59169,2.14684 c -0.0797,-0.23876 -0.25986,-0.4341 -0.40041,-0.4341 -0.1473,0 -0.12283,0.18388 0.0577,0.4341 0.17231,0.23875 0.35249,0.4341 0.40041,0.4341 0.0479,0 0.0219,-0.19535 -0.0577,-0.4341 z m 9.47198,-5.61047 c 0,-1.34337 -0.037,-1.42041 -0.73926,-1.53893 -0.64057,-0.10812 -0.70776,-0.0571 -0.50332,0.38222 0.12978,0.27886 0.23596,0.89671 0.23596,1.37301 0,0.58142 0.14473,0.9095 0.4404,0.99836 0.24222,0.0728 0.46871,0.14746 0.50331,0.16592 0.0346,0.0184 0.0629,-0.6028 0.0629,-1.38058 z m 65.68271,0.23753 c 0,-0.48798 0.10613,-1.11538 0.23596,-1.39424 0.20444,-0.43931 0.13725,-0.49034 -0.50332,-0.38222 -0.68908,0.1163 -0.73927,0.21096 -0.73927,1.39423 0,1.07652 0.0764,1.26945 0.50332,1.26945 0.39386,0 0.50331,-0.19293 0.50331,-0.88722 z m -48.06665,-0.65625 c 0,-0.87101 -0.24431,-1.13902 -0.66891,-0.73379 -0.52611,0.50212 -0.41952,1.40906 0.1656,1.40906 0.3595,0 0.50331,-0.19293 0.50331,-0.67527 z m 19.62932,-0.77174 c 0,-0.15917 -0.05,-0.2894 -0.11096,-0.2894 -0.061,0 -0.18097,0.13023 -0.26652,0.2894 -0.0855,0.15918 -0.0356,0.28941 0.11096,0.28941 0.14658,0 0.26652,-0.13023 0.26652,-0.28941 z m -43.78504,-3.4004 c 0.001,-0.11938 0.0717,-0.51007 0.15519,-0.8682 0.10672,-0.45786 0.0425,-0.65115 -0.2161,-0.65115 -0.49711,0 -1.29083,1.04539 -1.08478,1.42877 0.18713,0.34819 1.14042,0.42357 1.14569,0.0906 z m 78.39778,-0.0906 c 0.19975,-0.37166 -0.58115,-1.42877 -1.05543,-1.42877 -0.37676,0 -0.40003,0.14046 -0.17987,1.08525 0.15755,0.67601 0.93971,0.89353 1.2353,0.34352 z m -8.44034,-11.55781 V 347.67476 H 744.5725 729.09554 v 10.41843 10.41844 h 15.47696 15.47695 z m -66.97679,8.32028 c 0.28183,-0.67647 0.90067,-2.46714 1.37522,-3.97926 0.47454,-1.51212 1.11592,-3.24028 1.4253,-3.84035 0.62142,-1.20534 0.61406,-1.35605 -0.25071,-5.13108 -0.48085,-2.09904 -1.4125,-4.5358 -2.69904,-7.05936 -0.17098,-0.33538 -0.31253,-1.2224 -0.31457,-1.97117 -0.004,-1.27761 -0.0756,-1.42456 -1.17235,-2.38756 -1.40508,-1.23374 -1.68839,-1.28773 -1.20874,-0.2303 0.19857,0.43772 0.36172,0.99352 0.36257,1.23512 8.4e-4,0.2416 0.28434,0.91786 0.62997,1.50278 0.72774,1.2316 0.48093,1.61167 -0.62103,0.95636 -1.3109,-0.77957 -0.83231,0.0716 0.68466,1.2176 1.31132,0.99066 1.56507,1.36251 2.70533,3.96442 1.13178,2.58255 1.25798,3.06263 1.25517,4.77512 -0.004,1.86465 -0.42035,3.64317 -0.98993,4.21911 -1.41331,1.42908 -3.15043,7.36889 -2.27851,7.791 0.49772,0.24095 0.59153,0.15006 1.09666,-1.06243 z m 72.30395,1.08208 c 0.95339,-0.42065 -0.698,-6.29693 -2.19502,-7.81065 -0.56956,-0.57594 -0.98687,-2.35446 -0.98992,-4.21911 -0.002,-1.71249 0.12339,-2.19257 1.25517,-4.77512 1.14027,-2.60191 1.39402,-2.97376 2.70532,-3.96442 1.51698,-1.14605 1.99556,-1.99717 0.68467,-1.2176 -1.10196,0.65531 -1.34878,0.27524 -0.62103,-0.95636 0.34563,-0.58492 0.62911,-1.26118 0.62997,-1.50278 8.4e-4,-0.2416 0.16401,-0.7974 0.36257,-1.23512 0.47966,-1.05743 0.19633,-1.00344 -1.20874,0.2303 -1.09671,0.963 -1.16887,1.10995 -1.17235,2.38756 -0.001,0.74877 -0.16843,1.68698 -0.36978,2.0849 -1.0736,2.12198 -2.39475,5.40143 -2.39475,5.94446 0,0.34163 -0.22649,1.3782 -0.50332,2.30347 -0.63414,2.11962 -0.6296,2.65221 0.0332,3.90261 0.29407,0.55474 0.92251,2.24773 1.39654,3.76222 0.83059,2.65371 1.79761,5.21352 1.96949,5.21352 0.0456,0 0.23361,-0.0666 0.41794,-0.14788 z m -15.45358,-1.91027 c -1.07206,-0.63461 -1.77884,-1.70366 -1.65799,-2.50783 0.0757,-0.50401 0.14915,-0.5162 0.91787,-0.15232 0.60699,0.28733 0.97415,0.75583 1.34223,1.71275 0.27869,0.72449 0.46892,1.35935 0.42275,1.41081 -0.0462,0.0515 -0.50736,-0.15707 -1.02486,-0.46341 z m -2.54719,-1.90487 c -0.0885,-0.10179 -0.16093,-0.69358 -0.16093,-1.31511 0,-1.00448 0.0419,-1.08181 0.37748,-0.69594 0.20762,0.23876 0.37749,0.7613 0.37749,1.1612 0,0.74371 -0.30585,1.18127 -0.59404,0.84985 z m 1.28655,-1.48971 c -0.87044,-0.60411 -0.8806,-0.9141 -0.0299,-0.9141 0.53229,0 1.60238,0.89927 1.60238,1.34659 0,0.25978 -0.95237,-0.002 -1.57241,-0.43249 z m -4.71903,-0.33529 c -0.27683,-0.31835 -0.50332,-0.69098 -0.50332,-0.82808 0,-0.1371 -0.2829,-0.18708 -0.62867,-0.11106 -0.86059,0.18918 -1.8879,-0.63321 -1.8879,-1.51131 0,-0.38538 0.28229,-1.06608 0.62733,-1.51268 l 0.62735,-0.81199 0.88599,1.08525 c 0.84136,1.03058 0.96506,1.08504 2.45546,1.08083 2.12076,-0.006 2.28815,-0.17161 2.30799,-2.28341 0.0185,-1.9624 0.3351,-2.35371 1.3102,-1.61897 0.62055,0.46757 0.8384,2.05756 0.35886,2.61897 -0.12917,0.15121 -0.27072,0.79586 -0.31458,1.43254 l -0.0797,1.1576 -1.118,0.0225 c -0.96869,0.0195 -1.14677,0.12171 -1.33346,0.76578 -0.34051,1.17473 -1.87902,1.46685 -2.70753,0.51407 z m -5.03316,-1.39657 c 0,-1.10995 0.77669,-2.36565 1.46325,-2.36565 0.63975,0 0.13066,2.39162 -0.65526,3.07827 -0.6757,0.59036 -0.80799,0.47369 -0.80799,-0.71262 z m -28.66365,-0.30776 c -0.44873,-0.39674 -0.51337,-0.57086 -0.25165,-0.67796 0.19367,-0.0793 0.57862,-0.0243 0.85545,0.12215 0.47495,0.25126 0.47773,0.24254 0.0492,-0.15487 -0.24975,-0.23161 -0.84735,-0.42112 -1.32801,-0.42112 -0.48066,0 -1.05915,-0.17581 -1.28554,-0.3907 -0.35041,-0.3326 -0.39323,-0.32614 -0.28805,0.0434 0.068,0.23875 0.37263,0.47619 0.67706,0.52762 0.30441,0.0514 0.82832,0.40958 1.16421,0.79585 0.33591,0.38629 0.70081,0.69944 0.81091,0.6959 0.11014,-0.004 -0.0715,-0.24667 -0.40361,-0.54029 z m -6.12941,-0.9996 c 0.87661,-0.16119 2.54512,-1.34769 1.89521,-1.34769 -0.14265,0 -0.38771,0.17786 -0.5446,0.39524 -0.15688,0.21737 -0.96678,0.56155 -1.79978,0.76484 -1.42425,0.34758 -2.25549,0.86573 -1.38885,0.86573 0.2158,0 0.39953,0.16279 0.40831,0.36175 0.008,0.19896 0.11249,0.0871 0.23039,-0.2485 0.147,-0.41839 0.5241,-0.6672 1.19932,-0.79137 z m 23.39979,0.0993 0.63986,-0.5788 -1.10349,0.009 c -0.88031,0.007 -1.01335,0.0692 -0.65779,0.30719 0.24514,0.16411 0.38,0.42061 0.29971,0.57 -0.24227,0.45081 0.14293,0.3068 0.82171,-0.30719 z m -3.03805,-0.23984 c -0.58572,-0.74426 -0.53747,-0.81091 0.52722,-0.72847 0.51905,0.0402 0.71722,0.008 0.44041,-0.073 -0.27683,-0.0804 -0.75135,-0.28745 -1.05449,-0.46021 -0.30315,-0.17277 -0.89639,-0.23473 -1.31831,-0.13769 -0.65951,0.15169 -0.81815,0.063 -1.13091,-0.63259 -0.2001,-0.44496 -0.56945,-0.99265 -0.8208,-1.21707 -0.43804,-0.3911 -0.43872,-0.38328 -0.0166,0.18857 0.24222,0.32813 0.44417,0.71657 0.44877,0.86321 0.005,0.14664 0.23562,0.58048 0.51337,0.96409 0.38311,0.52916 0.57543,0.61647 0.79693,0.36176 0.16057,-0.18465 0.52409,-0.32062 0.80784,-0.30216 0.41571,0.027 0.43154,0.059 0.0815,0.16458 -0.37161,0.11209 -0.33527,0.2313 0.25166,0.82548 0.81863,0.82876 1.05245,0.91942 0.47334,0.18354 z m -7.9449,-0.74695 c -0.31232,-0.38231 -0.81293,-0.76245 -1.11248,-0.84475 -0.51976,-0.14281 -0.52222,-0.13415 -0.0538,0.18979 0.26994,0.1867 0.72162,0.6231 1.00374,0.96981 0.28212,0.3467 0.56187,0.57409 0.62168,0.50531 0.0598,-0.0688 -0.14679,-0.43785 -0.45911,-0.82016 z m 27.49974,0.14095 c -1.30245,-0.9133 -1.31052,-1.25226 -0.0246,-1.03049 1.56475,0.26983 2.70243,-0.40539 2.70243,-1.60391 0,-1.02796 0.6215,-1.18159 0.84801,-0.20963 0.64282,2.7584 -1.35262,4.36796 -3.52588,2.84403 z m -6.09548,-0.86418 c -0.57426,-0.43719 -0.96798,-0.88244 -0.87494,-0.98945 0.0931,-0.107 0.64236,-0.19454 1.22068,-0.19454 0.733,0 1.18993,0.17587 1.50841,0.58057 0.2513,0.31932 0.4104,0.61234 0.35358,0.65116 -1.09817,0.75017 -1.16147,0.7488 -2.20773,-0.0478 z m -31.36608,-0.0264 c -0.0855,-0.15917 -0.2904,-0.2874 -0.45526,-0.28497 -0.18008,0.003 -0.14904,0.11641 0.0777,0.28497 0.48348,0.3593 0.57058,0.3593 0.3775,0 z m 19.17734,-0.70143 c -0.30507,-0.54495 -0.81691,-1.15758 -1.13745,-1.3614 -0.32054,-0.20382 -0.6466,-0.73738 -0.72456,-1.1857 -0.078,-0.44832 -0.25252,-0.89384 -0.38789,-0.99004 -0.15103,-0.10735 -0.17667,0.0767 -0.0664,0.47624 0.11661,0.42247 0.0612,0.7354 -0.15767,0.89097 -0.24341,0.173 -0.0868,0.36017 0.56216,0.672 0.49474,0.23773 1.20644,0.89495 1.58154,1.46049 0.86735,1.3077 1.05309,1.32876 0.33025,0.0374 z m -12.00508,0.12263 c 0,-0.15917 -0.19819,-0.2874 -0.44041,-0.28497 -0.37636,0.004 -0.38551,0.0452 -0.0629,0.28497 0.47493,0.35295 0.50332,0.35295 0.50332,0 z m 26.92738,0 c 0,-0.15917 -0.22891,-0.2894 -0.5087,-0.2894 -0.77896,0 -1.17532,-1.24307 -0.67588,-2.11965 0.27889,-0.48948 0.3177,-0.78729 0.13065,-1.0024 -0.18706,-0.21512 -0.0646,-0.53785 0.41239,-1.08631 0.56454,-0.64921 0.82862,-0.75228 1.57201,-0.61355 1.22845,0.22925 1.2753,0.36287 0.4672,1.33284 -0.72254,0.86727 -0.73402,1.01687 -0.25113,3.27202 0.15319,0.71536 0.10378,0.79585 -0.48805,0.79585 -0.36217,0 -0.65849,-0.13023 -0.65849,-0.2894 z m 2.64231,-0.11168 c -1.5148,-0.7592 -1.92932,-2.07342 -1.02836,-3.26043 0.56634,-0.74615 0.61219,-0.76298 0.48416,-0.17769 -0.204,0.93254 0.0727,1.92981 0.81826,2.9487 0.35837,0.48977 0.61321,0.88541 0.5663,0.87918 -0.0469,-0.006 -0.42507,-0.18163 -0.84036,-0.38976 z m -37.11943,-0.61182 c 0,-0.39793 -0.1132,-0.7235 -0.25167,-0.7235 -0.1384,0 -0.25165,0.32557 -0.25165,0.7235 0,0.39792 0.1132,0.7235 0.25165,0.7235 0.13842,0 0.25167,-0.32558 0.25167,-0.7235 z m 6.43447,-0.31365 c -0.0945,-0.43293 -0.065,-0.67797 0.0701,-0.58199 0.12827,0.0912 0.37745,-0.0341 0.55372,-0.27833 0.17628,-0.24424 0.47222,-0.37712 0.65766,-0.29529 0.18545,0.0818 0.33718,0.0227 0.33718,-0.13153 0,-0.39872 -0.94485,-0.34878 -1.06222,0.0561 -0.13631,0.47024 -0.98349,0.56534 -1.44581,0.1623 -0.21232,-0.18511 -0.13124,-0.007 0.18019,0.39684 0.31142,0.40337 0.56622,0.8878 0.56622,1.0765 0,0.1887 0.0689,0.3431 0.15311,0.3431 0.0842,0 0.0797,-0.33649 -0.0106,-0.74775 z m 31.53377,0.25946 c -0.30247,-0.4276 -0.29066,-0.46469 0.0951,-0.29849 0.52155,0.22478 1.19538,-0.0217 1.19538,-0.43722 0,-0.17763 -0.14047,-0.15983 -0.35509,0.0451 -0.22574,0.21545 -0.41101,0.23483 -0.50861,0.0532 -0.0845,-0.15713 0.047,-0.41995 0.29216,-0.58406 0.60928,-0.4079 -0.0675,-0.4077 -0.73032,2.2e-4 -0.84519,0.52017 -1.1478,-0.16368 -0.34133,-0.77135 0.87303,-0.65782 1.91501,-0.28485 2.24822,0.80476 0.43062,1.4081 -1.07308,2.35049 -1.89543,1.1879 z m -24.07175,-0.68206 c 0.0618,-0.48451 0.018,-0.94801 -0.0973,-1.02998 -0.11532,-0.082 -0.2097,0.31446 -0.2097,0.88094 0,1.26212 0.15529,1.33752 0.30697,0.14904 z m -9.86997,-0.42136 c -0.32405,-0.39667 -0.63397,-0.66971 -0.68872,-0.60675 -0.12491,0.14365 1.02771,1.53627 1.17205,1.41609 0.0582,-0.0484 -0.15928,-0.41266 -0.48333,-0.80934 z m 7.18707,-0.88416 c 0.4606,-0.42437 0.45257,-0.4304 -0.14065,-0.1055 -0.77033,0.42189 -0.9131,0.55556 -0.59336,0.55556 0.13503,0 0.46533,-0.20253 0.73401,-0.45006 z M 728.59223,340.295 v -14.32535 h -15.60279 -15.60279 v 13.72947 c 0,8.8408 0.0896,13.79316 0.25166,13.90833 0.13841,0.0984 0.25166,0.027 0.25166,-0.15858 0,-0.1856 0.16624,-0.26409 0.36942,-0.17442 0.20319,0.0897 0.44114,0.0296 0.52878,-0.13347 0.0876,-0.16307 0.31776,-0.22659 0.51137,-0.14115 0.19362,0.0855 0.35203,0.0292 0.35203,-0.12497 0,-0.15417 0.7361,-0.28031 1.63577,-0.28031 0.92275,0 1.63579,0.12615 1.63579,0.2894 0,0.15917 0.15459,0.2894 0.34354,0.2894 0.18896,0 0.63148,0.26046 0.98342,0.5788 0.86935,0.78639 1.22702,0.73223 2.19584,-0.3325 0.68907,-0.75727 0.90648,-0.85582 1.28631,-0.58304 0.36475,0.26196 0.43007,0.24735 0.3234,-0.0723 -0.0735,-0.22032 -0.0106,-0.48787 0.13924,-0.59455 0.15011,-0.1067 0.20778,-0.31521 0.12814,-0.46338 -0.0796,-0.14818 0.0318,-0.26941 0.24755,-0.26941 0.21579,0 0.39234,-0.10215 0.39234,-0.227 0,-0.74984 2.45842,-1.64205 4.54352,-1.64892 0.98123,-0.003 1.28898,0.15188 2.13909,1.07826 0.54612,0.59512 1.18107,1.08318 1.41099,1.08456 0.22991,9.6e-4 0.72916,0.42575 1.10942,0.94306 0.42673,0.58053 0.73232,0.80208 0.79831,0.5788 0.0588,-0.19896 0.32399,-0.36175 0.58927,-0.36175 0.26529,0 0.48235,-0.13711 0.48235,-0.30469 0,-0.18813 0.62213,-0.28153 1.62631,-0.24415 0.89446,0.0333 1.56704,0.1708 1.49462,0.30557 -0.0724,0.13475 0.12351,0.20023 0.43538,0.1455 0.31189,-0.0547 0.85239,0.0707 1.2011,0.27875 0.47191,0.28154 0.67985,0.29303 0.8132,0.045 0.13145,-0.24459 0.29156,-0.2261 0.60122,0.0695 0.23212,0.22155 0.58782,0.43079 0.79044,0.46499 0.20262,0.0342 0.61587,0.26097 0.91833,0.50395 0.30247,0.24298 0.57825,0.44861 0.61286,0.45696 0.0345,0.009 0.0629,-6.43123 0.0629,-14.31017 z m 17.67444,13.74655 c -0.3504,-0.64523 -1.75153,-0.79619 -2.59151,-0.27922 -0.41789,0.25719 -0.48677,0.2021 -0.48677,-0.38925 0,-1.33753 1.56866,-2.17739 2.26492,-1.21264 0.17231,0.23876 0.68256,0.43411 1.13391,0.43411 0.57368,0 0.85233,0.1524 0.92593,0.50645 0.29191,1.40398 -0.62079,2.09268 -1.24648,0.94055 z m 1.80779,-0.18153 c -0.24451,-1.18067 -0.82839,-1.84428 -1.62271,-1.84428 -0.37685,0 -0.81013,-0.17315 -0.96286,-0.38478 -0.30359,-0.42067 -1.81611,-0.30441 -2.07674,0.15963 -0.0846,0.15053 -0.22354,0.0644 -0.30887,-0.19125 -0.20459,-0.61311 0.67515,-1.6094 1.42112,-1.6094 0.31957,0 0.80087,0.1912 1.06954,0.4249 0.26869,0.23369 0.83682,0.42903 1.26254,0.4341 1.20969,0.0144 2.43582,1.88695 1.61671,2.46911 -0.13841,0.0984 -0.25165,0.30251 -0.25165,0.45363 0,0.42428 0.94804,-0.35613 1.18992,-0.97952 0.17737,-0.45711 2.53597,-1.79741 2.74334,-1.55894 0.0343,0.0395 -0.11649,0.49622 -0.335,1.01511 -0.492,1.16821 -1.55681,2.06679 -2.70251,2.28059 -0.79791,0.14891 -0.88503,0.093 -1.04283,-0.6689 z m -27.78694,-0.10787 c 0,-0.15917 -0.23319,-0.2894 -0.51818,-0.2894 -0.28499,0 -0.44818,0.13023 -0.36262,0.2894 0.0855,0.15917 0.31871,0.2894 0.51817,0.2894 0.19945,0 0.36263,-0.13023 0.36263,-0.2894 z m 39.76193,-17.22157 v -10.56534 l -15.53987,0.0746 -15.53987,0.0746 -0.066,10.49079 -0.066,10.49079 h 15.60586 15.60592 z m 1.98157,8.43877 c 0.21483,-0.29769 0.16248,-0.51412 -0.22085,-0.91306 -0.49203,-0.51208 -0.50242,-0.50401 -0.50242,0.39017 0,0.97123 0.26267,1.16113 0.72327,0.52289 z m -65.39935,-0.66759 c 0,-0.74696 -0.0139,-0.75395 -0.49738,-0.25072 -0.52801,0.54952 -0.46592,1.01908 0.13476,1.01908 0.22468,0 0.36262,-0.2923 0.36262,-0.76836 z m 53.30426,-0.12457 c -1.174,-0.69499 -1.70511,-1.56406 -1.74866,-2.86132 -0.0257,-0.76401 -0.0604,-0.83882 -0.13817,-0.29736 -0.21102,1.46945 -0.33372,1.64343 -0.72634,1.02994 -1.2188,-1.90447 0.82955,-3.39844 2.31594,-1.68914 l 0.68506,0.78781 -0.61071,0.16606 c -0.5304,0.14424 -0.55111,0.19242 -0.15748,0.36639 0.40422,0.17863 1.60209,2.71959 1.39232,2.95342 -0.0462,0.0515 -0.50155,-0.15364 -1.01196,-0.4558 z m -6.19927,-4.17159 c -0.27219,-0.39792 -0.70819,-0.7235 -0.9689,-0.7235 -0.83482,0 -1.59264,-0.83404 -1.59264,-1.75281 0,-0.4685 -0.1132,-0.8518 -0.25165,-0.8518 -0.13842,0 -0.25167,0.31558 -0.25167,0.7013 0,0.70113 -1.09949,2.48211 -1.53232,2.48211 -0.12611,0 -0.22928,-0.44423 -0.22928,-0.98717 0,-0.74706 0.18833,-1.16942 0.77428,-1.73641 0.81229,-0.786 0.79337,-0.95999 -0.0481,-0.44214 -0.40054,0.24652 -0.71648,0.14886 -1.60139,-0.49494 -0.60632,-0.44111 -1.04714,-0.90489 -0.97957,-1.0306 0.28993,-0.53948 2.19623,-0.21844 3.02635,0.50968 0.4629,0.40602 0.84338,0.63392 0.8455,0.50645 0.002,-0.12748 0.0971,-0.0628 0.21096,0.14367 0.16541,0.29988 0.27214,0.28532 0.53026,-0.0724 0.27646,-0.38307 0.2355,-0.4478 -0.28337,-0.4478 -0.33359,0 -0.99539,-0.3733 -1.47063,-0.82956 -0.82823,-0.79513 -0.84963,-0.8642 -0.51558,-1.66406 0.19166,-0.45897 0.31897,-1.16007 0.28288,-1.558 -0.0361,-0.39792 0.0176,-0.62967 0.11919,-0.51499 0.10166,0.11467 0.5122,-0.0596 0.91234,-0.38724 0.60357,-0.49424 0.85494,-0.54465 1.47543,-0.2959 0.64122,0.25705 0.74793,0.22858 0.74793,-0.19953 0,-1.49537 1.57514,-2.30205 2.65722,-1.36085 0.26868,0.23369 0.83681,0.42904 1.26252,0.4341 1.2919,0.0153 2.31982,1.68952 1.56811,2.55397 -0.2326,0.26747 -0.37165,0.15006 -0.61699,-0.52092 -0.2658,-0.72696 -0.45791,-0.86624 -1.19482,-0.86624 -0.48296,0 -0.94809,-0.13023 -1.03364,-0.2894 -0.36901,-0.68661 -1.70394,-0.27767 -2.92205,0.89515 -1.35717,1.30671 -1.51113,1.96723 -0.82338,3.53259 0.91844,2.0904 2.20732,3.09669 3.96633,3.09669 1.56272,0 2.26872,-0.99456 2.10571,-2.96636 -0.0956,-1.15732 -0.0453,-1.37466 0.3188,-1.37466 0.69045,0 1.75861,1.13381 1.75861,1.86668 0,0.36688 -0.17491,0.83398 -0.38868,1.03801 -0.25988,0.24803 -0.33891,0.63149 -0.2385,1.15724 0.21454,1.12324 -0.46331,1.83314 -1.55571,1.62928 -0.58364,-0.10892 -0.83701,-0.0439 -0.83701,0.21485 0,1.36288 -2.4004,1.81332 -3.22658,0.60546 z m 0.181,-3.12366 c -0.47032,-0.36506 -0.85668,-0.87275 -0.8586,-1.12822 -0.001,-0.25546 -0.24687,-0.7056 -0.54436,-1.00031 -0.85895,-0.85094 -0.93901,-1.66848 -0.25319,-2.58538 l 0.60134,-0.80396 -0.11261,0.88203 c -0.11544,0.90461 0.29699,2.03764 1.16538,3.20144 0.57082,0.76499 1.03915,0.8128 2.05346,0.20962 0.59126,-0.35161 0.74247,-0.6332 0.74247,-1.38261 0,-1.41156 -0.61046,-2.22747 -1.66658,-2.22747 -0.48569,0 -1.10213,0.13481 -1.36985,0.29957 -0.41788,0.25719 -0.48677,0.20211 -0.48677,-0.38924 0,-1.19791 1.65901,-2.25062 2.13908,-1.35734 0.0855,0.15917 0.54765,0.2894 1.02689,0.2894 1.06961,0 1.68075,1.08644 1.15536,2.05392 -0.21676,0.3991 -0.23104,0.72575 -0.0489,1.11713 0.34891,0.74971 0.32602,2.03817 -0.0362,2.03817 -0.16148,0 -0.21787,0.0871 -0.12529,0.19356 0.0926,0.10646 -0.0193,0.43204 -0.24872,0.7235 -0.58938,0.74894 -2.07761,0.68538 -3.13296,-0.13381 z m 0.34027,-1.84311 c -0.56417,-0.26181 -0.33772,-0.724 0.24969,-0.5096 0.49064,0.17908 0.52164,0.14691 0.23769,-0.24654 -0.27288,-0.37812 -0.25188,-0.50716 0.12781,-0.78516 0.42353,-0.31011 0.42022,-0.32374 -0.049,-0.2009 -0.27682,0.0725 -0.71298,0.23067 -0.96924,0.35155 -0.36807,0.1736 -0.44683,0.10577 -0.37504,-0.32295 0.14286,-0.85307 1.29889,-1.18434 2.07975,-0.59596 1.45222,1.09424 0.33833,3.07056 -1.3017,2.30956 z m 3.96361,-2.00956 c 0,-0.59577 1.61995,-2.37963 2.44002,-2.6869 0.52655,-0.19729 1.10833,-0.42982 1.29284,-0.51674 0.24515,-0.11548 0.21942,0.10009 -0.0955,0.80051 -0.50797,1.12962 -0.97394,1.71034 -1.3724,1.71034 -0.15818,0 -0.45747,0.19534 -0.6651,0.4341 -0.36367,0.41821 -1.59982,0.6181 -1.59982,0.25869 z m -26.5499,-8.11157 c -5.29449,-0.6392 -12.88475,-2.18091 -13.73164,-2.78911 -0.31561,-0.22667 -0.48704,-0.67345 -0.48704,-1.2694 0,-1.57498 -0.20005,-1.83516 -1.41104,-1.83516 -1.01261,0 -1.10553,-0.0611 -1.10553,-0.72634 0,-0.39948 0.22649,-0.94934 0.50332,-1.22192 0.27682,-0.27256 0.5033,-0.69577 0.5033,-0.94045 0,-0.24468 -0.22648,-0.60753 -0.5033,-0.80634 -0.31427,-0.22569 -0.50332,-0.67489 -0.50332,-1.19585 0,-0.66985 -0.13646,-0.87295 -0.69206,-1.03004 -1.02654,-0.29025 -1.81669,-0.96331 -2.08554,-1.77651 -0.29196,-0.8831 -2.01083,-1.83758 -3.32511,-1.84642 -0.87533,-0.006 -0.94371,-0.068 -0.94371,-0.85749 0,-0.46812 0.0959,-0.91928 0.21312,-1.00259 0.22698,-0.16132 0.008,-2.01702 -0.42156,-3.57255 -0.17572,-0.63632 -0.17785,-1.24479 -0.007,-1.88111 0.13926,-0.5173 0.29286,-1.48936 0.34136,-2.16012 0.0933,-1.29094 0.73161,-2.56548 1.41944,-2.83439 0.22733,-0.0888 0.55047,-0.54231 0.71806,-1.00761 0.20737,-0.5757 0.59598,-0.95654 1.21631,-1.19197 0.50138,-0.19029 1.12075,-0.65175 1.37639,-1.02548 0.25563,-0.37373 0.73453,-0.67951 1.06424,-0.67951 0.32968,0 0.89445,-0.33927 1.25504,-0.75393 0.46257,-0.53195 0.8383,-0.71378 1.27608,-0.61754 0.38421,0.0844 0.69887,-0.0247 0.8264,-0.28679 0.11356,-0.23336 0.70332,-0.48078 1.31485,-0.55161 0.60991,-0.0706 1.56191,-0.19002 2.11556,-0.26528 0.55364,-0.0752 1.30315,-0.13441 1.66556,-0.13145 0.46561,0.004 1.01938,-0.4243 1.88743,-1.45911 0.91308,-1.08849 1.37246,-1.43391 1.78919,-1.34535 0.38501,0.0818 0.60752,-0.0505 0.71018,-0.42251 0.0822,-0.29791 0.24675,-0.47252 0.36564,-0.38803 0.11888,0.0845 0.29357,0.01 0.38819,-0.16649 0.10366,-0.19281 0.50305,-0.2487 1.00439,-0.14054 0.4578,0.0988 0.89841,0.0566 0.97915,-0.0936 0.0823,-0.15331 1.45962,-0.24109 3.13965,-0.2001 l 2.99286,0.073 0.14845,-1.06755 c 0.0816,-0.58715 0.37831,-1.40361 0.65928,-1.81435 0.31269,-0.45716 0.4115,-0.8174 0.25472,-0.92882 -0.14084,-0.1001 -0.25608,-0.8938 -0.25608,-1.76379 0,-1.42096 0.064,-1.60976 0.62915,-1.85687 0.34603,-0.15128 0.62915,-0.40852 0.62915,-0.57164 0,-0.43823 2.17338,-0.36048 2.5667,0.0918 0.18575,0.21361 0.59021,0.54377 0.89878,0.73368 0.46534,0.2864 0.56104,0.59189 0.56104,1.7912 0,1.0189 -0.11155,1.49515 -0.37786,1.61264 -0.31291,0.13809 -0.2826,0.28054 0.1763,0.82886 0.30478,0.36416 0.67413,1.15389 0.82079,1.75495 l 0.26662,1.09283 3.01737,0.0872 c 1.65955,0.0479 3.27607,0.0918 3.59225,0.0974 0.31619,0.006 1.16553,0.34296 1.88744,0.74961 0.7219,0.40664 1.59565,0.89712 1.94168,1.08994 0.34603,0.19282 0.73793,0.63238 0.87091,0.97681 0.30648,0.79394 0.98663,1.07999 3.28146,1.38014 0.55364,0.0724 1.44569,0.19138 1.98232,0.26438 0.53663,0.073 1.0972,0.27246 1.2457,0.44324 0.14852,0.17078 0.47948,0.31051 0.7355,0.31051 0.47863,0 1.97789,0.78707 2.20209,1.15605 0.0693,0.11389 0.54049,0.36248 1.04729,0.55242 0.50681,0.18993 0.98138,0.52486 1.05459,0.74429 0.0733,0.21942 0.64525,0.65946 1.27116,0.97785 0.78642,0.40004 1.18656,0.80132 1.29514,1.29877 0.0931,0.42632 0.45736,0.8629 0.8934,1.07059 0.73621,0.35069 0.82485,0.56958 1.10852,2.73736 0.36193,2.76579 0.40949,3.94646 0.17234,4.27703 -0.30539,0.42566 -0.47757,2.7048 -0.22616,2.9939 0.0981,0.11289 0.17849,0.57425 0.17849,1.02523 0,0.747 -0.0799,0.81997 -0.89707,0.81997 -1.26878,0 -3.38112,1.09395 -3.38112,1.75104 0,0.65544 -1.04763,1.62257 -2.02508,1.86945 -0.6156,0.1555 -0.74316,0.33236 -0.74316,1.03046 0,0.52934 -0.18718,0.97719 -0.50331,1.20423 -0.27683,0.19881 -0.50332,0.57042 -0.50332,0.8258 0,0.25538 0.22649,0.70005 0.50332,0.98814 0.27683,0.2881 0.50331,0.82921 0.50331,1.20247 0,0.60893 -0.11355,0.67864 -1.10553,0.67864 -1.19031,0 -1.41105,0.2683 -1.41105,1.71522 0,1.20029 -0.63176,1.62928 -3.39737,2.30692 -5.87444,1.43937 -9.20414,1.81279 -16.98691,1.90505 -4.08315,0.0484 -7.8769,0.0333 -8.43054,-0.0336 z m 29.82145,-26.6056 c 0,-0.19792 -4.66439,-2.72955 -5.02904,-2.72955 -0.14067,0 -0.25578,0.32836 -0.25578,0.72971 0,0.89945 0.50635,1.18599 3.0199,1.70898 2.40806,0.50103 2.26492,0.48264 2.26492,0.29086 z m -41.1213,-0.86917 c 1.23025,-0.41128 1.36186,-0.52943 1.2126,-1.08852 -0.0921,-0.34493 -0.19731,-0.66685 -0.23385,-0.71538 -0.0365,-0.0485 -1.12662,0.50546 -2.4224,1.23106 l -2.35598,1.31928 1.2098,-0.14254 c 0.66539,-0.0784 1.8308,-0.35016 2.58983,-0.6039 z m 27.65068,-5.14731 c -0.27301,-0.21611 -0.89276,-0.5355 -1.37719,-0.70975 -0.8915,-0.32067 -4.58224,-0.95934 -4.70802,-0.8147 -0.0376,0.0432 0.0721,0.2886 0.24369,0.54537 0.27858,0.41688 1.42977,0.66947 6.09319,1.33697 0.1346,0.0193 0.0214,-0.14178 -0.25167,-0.35789 z m -13.78858,-0.51353 c 0.89958,-0.17881 1.61293,-0.48093 1.69149,-0.71638 0.10861,-0.32563 -0.0769,-0.37301 -0.92648,-0.23664 -3.17908,0.51032 -4.96304,1.02986 -4.96304,1.44537 0,0.19675 1.78337,-0.0124 4.19803,-0.49235 z"
   id="path5"
   style="stroke-width:0.269871" />
                    <path
   style="fill:#75addb;fill-opacity:1;stroke:#f5deb3;stroke-width:2.92488"
   d="m 298.85512,921.46156 c -2.27502,-0.95053 -10.11657,-6.94101 -17.42568,-13.31221 -8.26916,-7.20809 -15.30063,-11.66153 -18.61381,-11.78926 -2.92849,-0.11291 -21.61163,-0.0427 -41.51807,0.1561 -40.51836,0.40454 -62.84663,-2.36093 -101.13537,-12.52618 -38.410612,-10.19762 -87.462479,-29.3393 -91.692749,-35.78159 -2.162674,-3.29352 -1.941484,-13.22333 0.325766,-14.62456 1.049724,-0.64877 17.373702,3.4844 36.275509,9.18484 36.866654,11.1183 43.964534,12.21269 45.933244,7.08233 C 113.9214,842.2483 92.221178,830.10413 48.091058,814.6429 27.842823,807.54882 28.628205,810.58445 36.280065,768.99159 47.03665,710.52254 65.852113,638.20858 88.775229,567.2356 102.4872,524.78152 107.54573,501.05378 111.68603,459.7693 c 1.82353,-18.18306 2.77483,-21.23508 10.19938,-32.72229 9.88179,-15.28906 11.82593,-20.98032 14.37697,-42.08707 1.75345,-14.50773 3.03586,-17.822 11.83279,-30.58066 6.76453,-9.81098 10.59134,-17.94105 12.17283,-25.86121 l 2.30663,-11.5517 9.1675,14.21164 c 11.32348,17.55389 47.03552,54.77094 69.27304,72.19242 l 16.61534,13.01688 -1.47372,16.20621 c -2.23976,24.63045 -2.01571,115.33666 0.37974,153.74161 2.73571,43.86012 13.84849,164.51407 16.76319,182.00173 3.4681,20.80803 11.13683,52.63358 24.80898,102.95828 10.07374,37.07956 12.02726,46.67608 9.99918,49.11978 -2.83038,3.41038 -3.43233,3.47847 -9.25276,1.04664 z"
   id="path6"
   transform="scale(0.75)" /><path
   style="fill:#75addb;fill-opacity:1;stroke:#f5deb3;stroke-width:2.92488"
   d="m 245.13795,383.4757 c -18.43709,-11.69245 -47.18321,-42.28887 -40.95616,-43.59237 0.88234,-0.1847 4.86168,-0.41737 8.84297,-0.51705 8.02824,-0.201 7.51825,1.07878 14.84345,-37.24807 1.50494,-7.87414 3.83495,-14.67765 5.1778,-15.11891 3.64696,-1.19838 18.72463,13.28732 25.07658,24.09204 5.04088,8.57458 5.63088,11.75126 6.17813,33.26421 0.6032,23.71243 -2.41636,43.38705 -6.88313,44.84864 -1.17794,0.38544 -6.70378,-2.19238 -12.27964,-5.72849 z"
   id="path7"
   transform="scale(0.75)" /><path
   style="fill:#75addb;fill-opacity:1;stroke:#f5deb3;stroke-width:2.92488"
   d="M 774.54147,228.39178 C 714.60526,223.47934 659.63962,196.16728 614.19442,148.7164 590.70005,124.18513 566.00929,86.486975 560.22341,66.312786 c -2.48524,-8.665543 1.39251,-13.508838 19.7286,-24.640947 l 15.51171,-9.417388 19.48472,29.373207 c 20.3807,30.723918 43.70827,57.415372 69.2258,79.208322 34.2957,29.28983 84.61961,45.95492 121.39025,40.19915 29.18749,-4.56876 67.93051,-21.24864 93.99969,-40.46931 17.51116,-12.91088 68.41892,-62.923453 82.75208,-81.296921 12.66723,-16.237953 11.14115,-16.084946 29.42394,-2.950064 5.4857,3.941087 10.5144,9.318663 11.1749,11.950172 1.7146,6.831721 -5.1546,21.043144 -23.45219,48.518863 -51.89707,77.92901 -134.67148,119.0009 -224.92144,111.60391 z"
   id="path8"
   transform="scale(0.75)" /><path
   style="fill:#75addb;fill-opacity:1;stroke:#f5deb3;stroke-width:2.92488"
   d="m 729.04103,113.66455 c -23.00165,-4.22701 -52.00663,-12.58391 -63.08014,-18.174627 -7.23405,-3.652275 -12.7102,-9.410057 -24.5873,-25.851769 -8.40422,-11.634128 -14.91905,-21.494046 -14.47741,-21.910929 0.44164,-0.416882 15.69403,3.844873 33.8942,9.470568 18.20018,5.625695 41.68275,11.52874 52.18349,13.117877 57.93792,8.768077 166.3577,4.808526 223.92412,-8.177833 11.94238,-2.694068 22.14508,-4.470975 22.67268,-3.948682 0.5276,0.522292 -8.77931,10.45447 -20.68201,22.071506 -23.2756,22.716979 -25.12921,23.710359 -58.86892,31.549049 -20.93892,4.86471 -127.47782,6.17358 -150.97871,1.85484 z"
   id="path9"
   transform="scale(0.75)" /><path
   style="fill:#75addb;fill-opacity:1;stroke:#f5deb3;stroke-width:2.92488"
   d="m 749.25232,158.31324 c -13.34239,-4.80218 -40.30479,-19.54114 -47.76315,-26.10966 -5.01942,-4.42056 -5.15111,-4.8823 -1.40296,-4.91928 2.27502,-0.0225 9.2552,1.35587 15.51151,3.06293 20.85785,5.69115 74.45347,8.21295 115.32667,5.4264 20.17738,-1.37561 39.47822,-2.99905 42.89075,-3.60766 6.04167,-1.0775 6.09598,-1.015 2.0682,2.38015 -7.90627,6.66444 -42.30409,21.79968 -56.26943,24.75887 -20.65599,4.37691 -56.86325,3.86656 -70.36159,-0.99175 z"
   id="path10"
   transform="scale(0.75)" /><path
   style="fill:#75addb;fill-opacity:1;stroke:#f5deb3;stroke-width:2.92488"
   d="m 1249.9304,892.946 c 4.7486,-25.35056 7.2224,-87.9611 9.6222,-243.53073 2.104,-136.38614 3.7695,-173.45398 8.504,-189.25617 2.6873,-8.96955 23.7271,-37.95291 40.3443,-55.5763 l 10.9608,-11.62451 0.076,7.70019 c 0.2264,23.1204 -25.1833,148.5554 -41.5932,205.32456 -13.7288,47.49397 -17.0708,68.30256 -11.324,70.5078 8.2448,3.16382 11.0443,-3.96962 29.2938,-74.6442 14.4157,-55.82771 21.9221,-91.48001 32.0461,-152.20586 4.4977,-26.97855 8.7991,-50.76879 9.5586,-52.8672 2.0988,-5.79855 9.0171,-15.1904 11.1897,-15.1904 2.5031,0 2.4548,59.65239 -0.1781,220.14841 -2.7147,165.47909 -5.3334,241.87697 -8.6527,252.43563 -7.4482,23.69222 -45.6367,44.40576 -81.9582,44.45436 -8.6497,0.0116 -8.9179,-0.1814 -7.8888,-5.67558 z"
   id="path11"
   transform="scale(0.75)" /><path
   style="fill:#75addb;fill-opacity:1;stroke:#f5deb3;stroke-width:2.92488"
   d="m 1354.7368,885.7073 c 0.036,-4.83442 0.9095,-23.21557 1.9419,-40.84698 2.7544,-47.04118 6.1197,-192.3686 8.1975,-353.99988 l 1.8255,-142.00921 11.6954,-17.75935 c 6.4325,-9.76764 12.5314,-17.75935 13.553,-17.75935 4.3602,0 13.9743,44.89112 20.3979,95.24389 4.0017,31.36869 5.5847,35.90596 17.8776,51.24215 l 7.1744,8.95063 0.036,23.10649 c 0.046,29.6576 1.9742,38.1742 24.4295,107.90275 33.953,105.43135 58.2626,186.13321 58.2626,193.41704 0,5.85353 -20.6819,12.6823 -114.7852,37.89992 -35.2387,9.4432 -38.2617,10.6901 -38.2617,15.78193 0,8.51923 18.8331,5.26223 109.01,-18.85222 53.6861,-14.35633 49.3412,-14.51714 55.7583,2.06341 4.151,10.72546 2.838,13.76452 -8.8174,20.40893 -23.1561,13.2006 -136.095,43.9997 -161.3449,43.9997 -6.8846,0 -7.014,-0.1637 -6.9504,-8.78985 z"
   id="path12"
   transform="scale(0.75)" /><path
   style="fill:#75addb;fill-opacity:1;stroke:#f5deb3;stroke-width:2.92488"
   d="m 1257.4665,928.97309 c -14.8831,-3.86804 -12.1244,-7.83784 8.2728,-11.90464 19.3917,-3.86632 37.8207,-10.36223 57.3126,-20.20172 7.0357,-3.55159 13.258,-5.70361 13.8275,-4.78227 3.3037,5.34547 -17.1766,28.90402 -30.9044,35.54957 -9.7406,4.7153 -33.0426,5.35855 -48.5085,1.33906 z"
   id="path13"
   transform="scale(0.75)" /></svg>
