<?xml version="1.0" encoding="UTF-8" standalone="no"?>
<svg
   version="1.0"
   width="1174.000000pt"
   height="1280.000000pt"
   viewBox="0 0 1174.000000 1280.000000"
   preserveAspectRatio="xMidYMid meet"
   id="svg3"
   sodipodi:docname="ElPasoLaPalma.svg"
   xml:space="preserve"
   inkscape:version="1.4 (86a8ad7, 2024-10-11)"
   xmlns:inkscape="http://www.inkscape.org/namespaces/inkscape"
   xmlns:sodipodi="http://sodipodi.sourceforge.net/DTD/sodipodi-0.dtd"
   xmlns="http://www.w3.org/2000/svg"
   xmlns:svg="http://www.w3.org/2000/svg"><defs
   id="defs3" /><sodipodi:namedview
   id="namedview3"
   pagecolor="#ffffff"
   bordercolor="#000000"
   borderopacity="0.25"
   inkscape:showpageshadow="2"
   inkscape:pageopacity="0.0"
   inkscape:pagecheckerboard="0"
   inkscape:deskcolor="#d1d1d1"
   inkscape:document-units="pt"
   showgrid="false"
   showguides="true"
   inkscape:zoom="0.68378906"
   inkscape:cx="832.85919"
   inkscape:cy="803.6104"
   inkscape:window-width="2560"
   inkscape:window-height="1369"
   inkscape:window-x="1912"
   inkscape:window-y="-8"
   inkscape:window-maximized="1"
   inkscape:current-layer="svg3"><inkscape:grid
     id="grid22"
     units="pt"
     originx="0"
     originy="0"
     spacingx="0.99999997"
     spacingy="1"
     empcolor="#0099e5"
     empopacity="0.30196078"
     color="#86b050"
     opacity="0.14901961"
     empspacing="5"
     enabled="true"
     visible="false" /></sodipodi:namedview><metadata
   id="metadata1">
                Created by potrace 1.15, written by Peter Selinger 2001-2017
                </metadata><g
   transform="translate(0.000000,1280.000000) scale(0.100000,-0.100000)"
   fill="#000000"
   stroke="none"
   id="g3"><path
     d="M4425 12777 c-33 -13 -100 -45 -150 -71 -379 -205 -660 -325 -1163 -497 -373 -127 -591 -189 -982 -279 -288 -67 -505 -172 -631 -306 -96 -103 -206 -267 -284 -424 -74 -146 -225 -631 -225 -720 0 -46 -33 -122 -85 -197 -57 -80 -108 -180 -125 -243 -7 -25 -18 -91 -25 -147 -11 -93 -16 -106 -45 -140 -74 -83 -112 -218 -125 -443 -14 -224 -31 -299 -160 -715 -208 -666 -337 -1170 -379 -1470 -23 -170 -40 -450 -41 -665 0 -177 2 -198 20 -229 14 -24 33 -38 60 -47 22 -7 101 -34 175 -60 494 -172 676 -225 830 -243 47 -6 171 -15 275 -21 553 -30 550 -30 628 -94 23 -19 75 -50 115 -69 40 -20 79 -41 87 -47 31 -25 13 -119 -73 -390 -68 -214 -77 -270 -76 -495 0 -192 16 -350 44 -445 18 -61 11 -118 -29 -243 -52 -160 -59 -187 -76 -282 -33 -180 -11 -367 65 -555 23 -58 55 -138 71 -177 48 -120 48 -167 0 -310 -67 -202 -76 -331 -33 -468 25 -76 39 -266 52 -720 13 -415 25 -626 45 -738 27 -155 83 -358 110 -399 49 -73 47 -73 525 -73 550 -1 623 -10 1165 -155 339 -91 577 -141 775 -164 74 -9 172 -21 216 -27 120 -17 1068 -5 1274 16 501 50 805 136 1575 445 578 232 843 312 1155 350 140 17 267 39 295 52 28 13 47 56 66 153 21 108 18 684 -4 880 -22 184 -49 322 -82 414 -14 37 -25 85 -25 105 0 22 29 111 70 218 122 312 150 436 150 668 0 179 -9 228 -60 346 -52 118 -52 173 -5 435 53 291 63 427 71 987 l7 502 119 0 c216 0 330 38 475 159 45 37 105 78 135 89 29 12 139 40 244 61 246 51 330 72 543 133 452 128 734 261 757 354 25 99 -230 1009 -571 2044 -63 190 -121 372 -129 405 -11 44 -15 109 -14 250 2 218 -8 268 -82 385 -78 124 -99 179 -115 296 -71 508 -233 1141 -356 1388 -152 305 -399 488 -961 709 -91 37 -382 142 -645 235 -750 265 -940 346 -1193 509 -161 103 -181 113 -229 113 -22 0 -97 -21 -168 -46 -241 -86 -481 -136 -808 -170 -239 -25 -777 -25 -955 -1 -299 42 -516 107 -849 256 -62 28 -127 51 -145 50 -17 0 -58 -10 -91 -22z m135 -344 c131 -219 259 -382 441 -559 197 -191 322 -277 501 -344 298 -112 466 -120 743 -33 113 35 332 142 444 217 163 109 511 444 670 645 36 46 73 92 81 103 14 18 19 16 111 -46 110 -73 139 -105 139 -150 0 -61 -147 -315 -287 -494 -295 -378 -737 -627 -1229 -693 -146 -19 -423 -7 -573 26 -494 106 -925 402 -1218 835 -116 172 -195 331 -197 399 -1 40 3 47 41 79 37 31 228 149 245 151 4 1 43 -61 88 -136z m378 -47 c324 -106 392 -118 769 -137 172 -8 291 -8 483 0 451 21 624 40 870 101 68 16 133 30 143 30 17 0 17 -2 -3 -29 -50 -72 -271 -288 -320 -315 -66 -36 -292 -93 -423 -106 -170 -18 -717 -25 -847 -11 -214 22 -545 107 -644 165 -25 14 -65 52 -89 84 -63 82 -164 227 -182 262 -14 27 -14 30 0 30 9 0 118 -33 243 -74z m-813 -236 c43 -80 96 -171 118 -204 62 -92 202 -249 353 -397 220 -214 291 -268 472 -359 306 -153 573 -219 879 -220 460 0 900 161 1259 463 203 170 366 373 525 656 35 62 73 120 85 128 19 12 47 4 285 -86 145 -54 433 -158 639 -231 980 -346 1165 -433 1380 -649 79 -80 104 -113 147 -196 46 -89 143 -347 143 -380 0 -35 -291 -516 -338 -558 -19 -18 -20 -17 -30 42 -22 126 -94 235 -163 246 -100 17 -204 -27 -197 -84 3 -26 4 -26 93 -26 118 -1 112 1 135 -44 24 -48 35 -132 26 -195 -6 -41 -13 -50 -49 -73 -23 -14 -106 -91 -183 -170 -78 -78 -146 -143 -153 -143 -24 0 -13 80 52 390 33 153 37 184 26 201 -23 37 -85 -58 -118 -181 -30 -112 -87 -424 -111 -605 -30 -232 -47 -548 -80 -1440 -40 -1105 -60 -1613 -70 -1773 -16 -234 -49 -351 -417 -1452 -421 -1263 -610 -1736 -937 -2342 l-48 -88 40 0 c33 0 45 6 72 37 152 172 440 835 776 1783 48 135 122 340 166 455 44 116 118 316 165 445 86 236 126 330 142 330 15 0 21 -103 21 -400 0 -412 -15 -600 -80 -975 -57 -327 -108 -468 -317 -875 -179 -349 -366 -677 -633 -1115 -144 -234 -212 -357 -225 -402 -8 -31 35 -54 61 -32 78 65 633 1013 956 1634 173 334 181 343 223 260 18 -35 20 -59 19 -195 0 -129 -5 -173 -26 -266 -45 -193 -175 -510 -287 -702 -61 -104 -160 -219 -408 -474 -209 -215 -303 -325 -303 -354 0 -31 58 -4 152 73 95 77 433 425 551 568 55 66 103 121 107 123 17 7 69 -193 90 -343 37 -272 54 -759 30 -846 -13 -48 -41 -59 -166 -69 -291 -24 -630 -128 -1299 -397 -691 -279 -1160 -400 -1704 -443 -204 -15 -760 -13 -916 5 -295 33 -612 98 -1025 210 -151 41 -331 86 -400 99 -263 53 -624 86 -951 86 -179 0 -198 4 -215 47 -22 51 -51 239 -68 433 -21 242 -25 318 -37 695 -11 356 -24 478 -64 595 -31 89 -29 125 16 256 81 240 78 367 -16 584 -124 286 -124 451 1 831 30 91 54 175 54 186 0 12 -13 76 -29 144 -41 174 -55 299 -48 448 6 140 22 227 74 405 20 67 47 164 60 216 13 52 29 99 34 105 15 15 35 -15 54 -85 35 -133 246 -715 381 -1050 190 -474 688 -1350 990 -1740 119 -154 344 -383 367 -374 37 14 7 77 -96 201 -218 263 -307 387 -454 633 -316 531 -717 1335 -858 1721 -159 434 -498 1522 -551 1769 -80 372 -124 685 -128 923 -2 120 -11 225 -29 347 -60 403 -82 737 -74 1155 6 285 16 418 62 825 23 205 30 426 16 501 -28 140 -82 227 -189 306 -43 31 -96 74 -118 95 -48 46 -95 60 -145 44 -48 -16 -66 -59 -79 -196 -13 -134 -28 -220 -39 -220 -25 0 -103 114 -176 260 -72 141 -67 180 46 419 112 235 245 403 386 487 112 66 177 88 495 164 502 121 1189 344 1593 518 77 33 143 57 146 54 4 -4 41 -72 84 -152z m1273 -326 c118 -31 278 -43 552 -44 274 0 504 15 603 41 43 11 82 17 86 14 16 -17 -178 -130 -324 -188 -146 -58 -233 -72 -445 -72 -177 1 -188 2 -252 27 -163 65 -371 186 -403 235 l-17 26 51 -7 c29 -4 95 -18 149 -32z m-3590 -1191 c51 -36 118 -118 147 -178 34 -68 49 -186 41 -320 -9 -144 -24 -230 -45 -257 l-18 -21 -50 27 c-131 72 -293 216 -349 312 -35 60 -24 75 52 67 54 -6 54 -6 68 28 8 19 19 77 26 129 12 95 35 214 46 231 10 17 46 9 82 -18z m8664 -214 c41 -112 106 -460 133 -719 22 -209 27 -223 90 -289 29 -31 63 -76 76 -101 23 -43 24 -52 21 -226 -3 -217 -1 -222 142 -659 207 -630 479 -1522 480 -1574 1 -33 -2 -35 -59 -58 -117 -46 -352 -115 -682 -198 -332 -85 -405 -109 -417 -140 -22 -58 68 -49 449 46 110 28 277 72 372 100 188 54 328 89 356 89 20 0 57 -72 78 -151 17 -64 0 -88 -96 -135 -88 -42 -396 -145 -611 -204 -198 -54 -525 -120 -597 -120 l-57 0 0 33 c0 17 7 145 15 282 30 524 46 1207 66 2890 l10 900 51 80 c82 131 139 206 151 202 7 -2 19 -24 29 -48z m-9186 -81 c31 -51 88 -130 126 -175 102 -120 310 -317 427 -403 l102 -75 -5 -65 c-3 -36 -11 -126 -17 -200 -22 -251 0 -1003 41 -1400 11 -107 31 -330 45 -495 14 -165 32 -351 40 -413 23 -181 117 -568 239 -985 60 -206 60 -257 -1 -257 -45 0 -91 28 -175 108 -112 106 -120 108 -318 92 -289 -24 -526 -1 -851 80 -289 72 -680 220 -732 277 -21 24 -25 96 -7 118 23 28 48 22 514 -126 47 -15 103 -11 110 7 23 59 -88 119 -488 264 l-118 43 6 61 c14 126 92 527 146 754 70 287 223 815 314 1081 74 217 129 489 146 730 5 70 14 140 20 155 6 16 35 62 65 103 66 91 90 161 100 298 8 119 19 147 85 231 66 84 89 129 96 189 8 74 13 95 24 95 5 0 34 -42 66 -92z m8849 -410 c16 -72 -34 -3172 -55 -3404 -14 -159 -52 -232 -163 -316 -83 -64 -190 -116 -273 -133 -78 -16 -284 -34 -284 -25 0 4 7 51 15 106 35 239 54 795 65 1854 11 1072 24 1279 85 1405 40 82 338 445 366 445 36 0 8 -214 -100 -770 -85 -438 -138 -660 -207 -872 -62 -191 -104 -361 -104 -418 0 -39 4 -52 22 -64 25 -18 41 -9 63 35 26 50 135 459 239 894 67 281 107 498 167 889 41 274 52 308 117 379 33 35 39 34 47 -5z m-97 -3826 c8 -57 -133 -218 -235 -268 -75 -37 -199 -44 -329 -19 -93 18 -134 36 -134 59 0 26 30 38 112 47 116 13 289 70 431 145 67 35 129 62 137 61 8 -1 16 -12 18 -25z"
     id="path1" /><path
     d="M2403 2124 c-8 -22 16 -40 172 -123 195 -105 980 -467 1320 -609 370 -155 635 -231 708 -203 73 28 -1 71 -298 176 -403 142 -868 335 -1414 587 -415 191 -473 211 -488 172z"
     id="path3" /></g><path
   style="display:inline;fill:#86b050;fill-opacity:1;stroke:#f5deb3;stroke-width:2.19366"
   d="m 510.02571,1259.8184 c -21.11876,-1.9206 -62.68769,-10.2066 -106.39247,-21.2072 -50.97898,-12.8316 -73.61576,-16.2497 -122.84064,-18.5484 l -31.8038,-1.4853 -2.51028,-7.6785 c -3.59299,-10.9904 -7.03852,-48.5967 -9.51954,-103.9013 -1.40299,-31.2742 -3.37906,-52.338 -5.67898,-60.5348 -3.36522,-11.9936 -3.3168,-13.2779 1.05395,-27.9541 6.77518,-22.74975 6.03102,-36.88312 -3.3765,-64.12837 -7.12576,-20.63693 -7.82955,-24.65835 -6.73183,-38.46488 0.67424,-8.48017 4.15568,-24.84127 7.73654,-36.35797 l 6.51064,-20.9394 -4.37745,-20.74013 c -3.13987,-14.87647 -4.07821,-25.7016 -3.31899,-38.28937 1.11356,-18.46275 14.33429,-72.67348 17.00402,-69.72391 0.85647,0.94628 4.77666,11.59196 8.71152,23.65711 28.48005,87.32595 63.60467,160.3542 112.89462,234.7215 19.10341,28.82262 49.96221,64.71292 55.64082,64.71292 6.3327,0 0.99625,-10.1862 -18.39174,-35.106 C 381.70302,988.37448 363.90415,959.60538 337.46016,909.2716 298.7594,835.60825 284.29194,801.2437 260.8072,727.19794 227.80699,623.15055 219.51189,585.82702 214.97866,520.994 c -1.34978,-19.3042 -3.40686,-40.03428 -4.57128,-46.06684 -1.16443,-6.03256 -2.7172,-35.68747 -3.4506,-65.89977 -1.06006,-43.66917 -0.55371,-62.78598 2.46969,-93.24141 2.09174,-21.07047 3.45631,-48.30123 3.03239,-60.51282 -0.9064,-26.10969 -3.63035,-31.36257 -24.7798,-47.78547 -20.68984,-16.06601 -26.2735,-13.50081 -30.11428,13.83481 l -2.58654,18.40904 -4.24344,-5.24043 c -6.52637,-8.05972 -16.92066,-29.76607 -16.9296,-35.35401 -0.005,-2.74905 4.94789,-14.97972 11.00508,-27.17925 12.04944,-24.26823 26.42252,-41.3441 41.10495,-48.83451 4.88424,-2.49176 27.98201,-9.55926 51.32837,-15.70554 56.99276,-15.004241 117.39333,-34.971463 163.40228,-54.017543 1.38788,-0.574535 7.64747,8.040831 14.09404,19.398336 9.56966,16.859691 16.80373,25.632464 41.3764,50.177327 32.82065,32.78348 46.49514,41.59935 83.52378,53.84728 17.49825,5.78789 20.94179,6.16756 55.9383,6.16756 34.9287,0 38.47395,-0.3889 55.93831,-6.13619 49.93061,-16.4315 87.68208,-46.85397 116.69989,-94.043943 7.87447,-12.805856 14.57437,-21.388176 16.6968,-21.388176 4.25062,0 134.91757,47.060799 166.02787,59.796339 51.90633,21.24877 70.35563,38.72794 84.70603,80.25204 4.6697,13.51223 4.9805,12.53874 -13.927,43.62447 -14.1323,23.23464 -16.0968,24.87324 -17.9538,14.97496 -2.0435,-10.89274 -11.10558,-20.96143 -18.86583,-20.96143 -9.8391,0 -17.49705,3.76404 -17.49705,8.60014 0,3.5991 1.74165,4.43318 10.41983,4.99003 9.93915,0.63776 10.54642,1.05601 13.16107,9.06493 1.50765,4.61797 2.10728,10.54086 1.33253,13.16195 -1.3869,4.69177 -35.29193,37.89475 -36.9762,36.21051 -0.47543,-0.4755 1.52205,-13.06805 4.43895,-27.98343 2.9169,-14.91538 4.80675,-27.9225 4.1997,-28.90472 -2.2074,-3.57167 -7.2816,0.7504 -10.59083,9.02111 -3.90277,9.75388 -11.1519,45.68242 -14.37847,71.26364 -3.03188,24.037 -5.96318,81.11025 -10.02728,195.23564 -1.89037,53.08656 -4.3368,107.56331 -5.43637,121.05947 -2.40083,29.46678 -6.04388,42.40871 -42.492,150.95425 -40.4856,120.5697 -52.68015,152.01488 -80.60423,207.84915 -16.81867,33.6292 -17.1339,34.5502 -11.8263,34.5502 14.71913,0 38.3037,-51.45595 96.52335,-210.59132 16.55258,-45.2442 31.49378,-84.73006 33.20265,-87.74633 2.7294,-4.81765 2.9961,0.78089 2.19435,46.0668 -0.93007,52.53593 -4.68172,84.02655 -13.58977,114.07028 -7.5243,25.3767 -38.34218,84.66847 -83.09963,159.87887 -30.15787,50.6771 -31.49595,53.7764 -22.67122,52.5103 3.26902,-0.4691 8.3814,-5.9985 15.45075,-16.7112 13.59697,-20.6045 55.06432,-92.8099 78.36232,-136.4492 9.984,-18.70087 19.16738,-35.28232 20.40743,-36.84757 4.0263,-5.082 5.86335,1.70977 5.8989,21.80932 0.0375,21.26175 -3.8979,36.55733 -17.43998,67.78015 -11.19375,25.8085 -17.8425,34.9465 -53.2053,73.1249 -28.9452,31.2498 -34.11817,38.6576 -26.99527,38.6576 5.24512,0 31.32562,-23.8025 54.89782,-50.1027 12.0651,-13.4615 22.5978,-24.4768 23.406,-24.4785 3.1677,-0.01 8.34668,31.4103 10.75838,65.2629 2.53897,35.6393 1.79947,49.5263 -2.7885,52.3618 -1.35075,0.8348 -10.93718,2.791 -21.30323,4.3471 -24.36007,3.6568 -50.62455,11.364 -90.14122,26.4515 -108.83259,41.5525 -137.97113,49.9405 -192.72599,55.4795 -21.1828,2.1428 -75.78126,2.5776 -95.74015,0.7625 z m -47.61785,-101.2079 c -0.38556,-2.002 -6.71183,-5.7636 -14.91488,-8.8684 -56.59855,-21.422 -102.60716,-40.2427 -147.46357,-60.3225 -28.62906,-12.8157 -54.12047,-23.3013 -56.64756,-23.3013 -18.23383,0 21.25005,21.8547 111.9909,61.988 50.28134,22.2387 76.20381,31.9123 92.13368,34.3817 11.81434,1.8313 15.80107,0.794 14.90143,-3.8775 z"
   id="path81" /><path
   fill="#000000"
   d="m 568.35375,875.83074 c -0.87976,-0.1052 -3.65612,-0.41195 -6.1697,-0.68159 -17.81575,-1.91169 -35.81716,-6.9023 -57.75766,-16.0126 -25.9028,-10.75551 -49.63464,-26.64211 -69.53369,-46.5473 -15.32603,-15.33078 -26.55801,-32.30481 -38.56768,-58.28442 -4.8794,-10.55525 -7.21399,-17.64686 -16.77374,-50.95241 -9.4718,-32.99916 -10.56654,-45.25506 -6.55505,-73.38573 5.22571,-36.64545 17.88894,-68.08422 37.72452,-93.658 4.7042,-6.06504 7.09661,-8.71528 4.33186,-4.79865 -17.87099,25.31641 -27.53736,47.06105 -35.38674,79.60299 -5.17298,21.44615 -6.00673,43.90679 -2.36349,63.67119 1.62041,8.79068 1.74336,8.50231 1.75375,-4.11313 0.0103,-12.49372 0.18157,-15.92082 1.27897,-25.59284 4.45364,-39.25252 20.64298,-76.60261 47.64127,-109.91209 4.97415,-6.13693 11.63141,-13.73054 11.84777,-13.51417 0.0918,0.0918 -1.65804,2.50171 -3.88862,5.35527 -25.43646,32.54063 -39.71973,62.8971 -45.33754,96.35669 -6.88008,40.97762 -4.60902,77.4289 6.67129,107.07657 4.20174,11.04329 14.23674,27.36098 24.7939,40.31684 9.51377,11.67541 22.88933,24.7086 35.48044,34.57227 9.87512,7.73601 36.58192,23.5975 55.96834,33.24027 21.97515,10.9304 39.65355,16.92091 53.54802,18.1453 l 3.50487,0.30886 -0.5188,1.1971 c -0.95356,2.20028 -2.74357,4.21915 -4.56459,5.14816 l -1.80387,0.92027 -4.73872,-0.95374 c -17.65937,-3.5542 -41.91078,-13.60244 -62.10795,-25.73356 -30.41538,-18.26854 -51.15754,-34.17668 -68.94293,-52.87558 -8.17003,-8.58967 -7.90933,-8.34298 -6.86961,-6.50014 1.28585,2.27912 9.42078,13.03661 12.83209,16.96895 19.22057,22.15618 37.49674,36.20812 63.89448,49.12636 23.87407,11.68323 51.9081,20.9881 70.3803,23.36019 4.96613,0.63772 8.56637,0.72035 21.93672,0.50354 15.26964,-0.24752 23.66549,-0.84611 36.56118,-2.60644 19.69528,-2.68855 47.10986,-8.88472 57.58389,-13.01495 14.59915,-5.75689 30.8213,-15.38891 49.12911,-29.17077 3.64469,-2.74368 6.9352,-5.19192 7.31224,-5.44054 1.35258,-0.89188 -3.54485,3.46715 -9.82583,8.74561 -20.26776,17.03282 -40.32672,29.14336 -57.8642,34.93535 -19.60369,6.47442 -46.15431,11.47443 -71.92804,13.54572 -6.27391,0.50418 -29.95837,0.97618 -32.67656,0.65115 z m 174.59386,-59.67208 c 0.008,-0.0863 3.43095,-3.65298 7.60702,-7.92607 4.17607,-4.27309 6.89507,-6.8438 6.04222,-5.71269 -2.73727,3.63038 -13.73809,14.62275 -13.64924,13.63876 z m 17.46527,-18.66592 c 0.6209,-0.87975 3.06762,-4.27309 5.43717,-7.54075 19.98556,-27.56054 33.11505,-56.469 39.02214,-85.91881 2.77681,-13.84375 3.8541,-24.74261 3.86232,-39.07478 0.0124,-21.75042 -2.54915,-40.9633 -8.09319,-60.70116 l -1.70999,-6.08788 -0.51823,3.34579 c -0.51061,3.29655 -2.20468,9.86361 -2.66259,10.32152 -0.12912,0.12912 -0.4595,-0.35931 -0.73417,-1.08541 -1.65399,-4.3723 -6.60311,-15.29276 -10.23341,-22.58049 -14.0463,-28.19758 -29.82347,-49.51054 -48.85639,-65.99881 -34.49315,-29.88151 -73.89375,-48.07282 -121.18578,-55.95164 -16.45268,-2.741 -20.11716,-3.03572 -37.47522,-3.01403 -17.52255,0.0219 -23.85941,0.5908 -38.15357,3.42531 -27.72495,5.49781 -55.30753,18.32931 -79.99072,37.21193 -4.14664,3.17219 -2.48801,1.32154 2.73357,-3.05 22.54982,-18.87888 47.684,-32.58374 72.74824,-39.66729 16.82721,-4.75564 29.89369,-6.43249 50.05118,-6.4232 34.85231,0.0161 67.10494,7.07324 103.43742,22.63303 18.31029,7.84158 41.65101,22.62927 56.37993,35.71993 5.47039,4.86194 6.62277,5.55322 3.03201,1.81883 -9.05437,-9.41655 -22.96068,-20.67932 -35.41866,-28.68569 -19.30844,-12.40897 -48.17357,-25.53266 -67.1812,-30.54433 -17.34985,-4.57456 -42.02807,-7.33817 -59.41193,-6.65328 -21.92973,0.86398 -39.87906,3.82412 -59.86896,9.87337 -28.95361,8.76181 -55.74492,23.28637 -82.47638,44.71348 -8.55496,6.85738 -8.15432,6.11063 0.89921,-1.67606 26.77833,-23.03128 55.58469,-38.79963 88.20389,-48.28205 12.99527,-3.77773 26.33305,-6.36344 42.9594,-8.32828 9.31253,-1.10052 30.54265,-1.10368 39.9888,-0.006 30.19232,3.50862 55.08604,10.95479 82.94822,24.81129 22.85071,11.36419 38.39196,21.89758 52.50399,35.58563 19.78097,19.18667 38.28207,46.54834 48.05636,71.07156 16.09332,40.37737 21.00567,79.72227 14.55026,116.53881 -5.18114,29.54915 -18.48067,59.56853 -38.26721,86.37583 -4.21214,5.70672 -11.36573,14.67515 -14.03455,17.59507 -1.58369,1.73269 -1.61196,1.74461 -0.54196,0.22851 z M 644.44673,779.98472 c -5.3696,-2.59133 -9.76425,-9.48736 -11.11831,-17.44668 -0.62365,-3.66593 -0.64288,-4.77071 -0.13558,-7.78984 0.82818,-4.92877 3.00246,-9.95347 6.16739,-14.25274 6.98274,-9.48539 18.53374,-16.73291 40.04814,-25.12767 2.89062,-1.1279 5.52635,-2.16167 5.85718,-2.29727 0.33082,-0.1356 -1.13821,2.40281 -3.26452,5.64089 -4.85817,7.39834 -7.09361,11.58009 -9.13276,17.08431 -2.13434,5.76116 -2.99839,10.19249 -3.50709,17.9863 -0.23204,3.5552 -0.81067,7.92248 -1.28583,9.70508 -1.79685,6.741 -6.47934,13.1672 -11.64161,15.97687 -1.92159,1.04586 -3.08165,1.32607 -6.04016,1.45899 -3.14213,0.14117 -3.98606,0.008 -5.94685,-0.93824 z m -179.95729,-0.58981 c -0.59378,-0.59378 0.95133,-18.58321 1.63335,-19.01682 0.91661,-0.58276 3.25618,-0.39992 4.30779,0.33665 0.54749,0.38349 1.46609,1.97732 2.04131,3.54187 l 1.04588,2.84463 0.4597,-3.42761 0.4597,-3.42761 h 2.05657 2.05657 l -0.0143,3.08485 c -0.008,1.69667 -0.0592,6.06687 -0.11425,9.71157 l -0.1,6.62672 h -2.47363 -2.47363 l -1.24712,-3.31336 c -2.50309,-6.65023 -2.41002,-6.59818 -2.45162,-1.37105 l -0.0373,4.68441 h -2.43742 c -1.34057,0 -2.56082,-0.12342 -2.71166,-0.27425 z m 15.23216,-5.32419 c 0.0277,-5.39491 0.55804,-12.97483 0.93256,-13.3289 0.0997,-0.0942 3.009,-0.32056 6.46518,-0.50294 l 6.28396,-0.33161 v 2.33149 c 0,2.65102 0.1683,2.55127 -5.14142,3.04742 -2.77202,0.25903 -3.08494,0.38886 -3.08567,1.28017 -7.6e-4,0.92001 0.22285,0.99191 3.08485,0.99191 h 3.08567 v 1.77825 c 0,2.11511 -0.43239,2.41817 -3.99888,2.80279 -2.33605,0.25192 -2.62784,0.39751 -2.62784,1.31112 0,1.00101 0.10098,1.02242 3.88463,0.82383 l 3.88463,-0.20389 v 2.50315 2.50315 l -3.77038,0.29352 c -2.0737,0.16142 -4.9529,0.29473 -6.39821,0.29623 l -2.62783,0.003 z m 15.97422,4.30515 c -1.71162,-1.71161 -2.01146,-4.54285 -1.26663,-11.96015 l 0.57366,-5.71268 2.39933,-0.13814 c 2.80812,-0.16168 2.64924,-0.77747 1.95735,7.58584 -0.23489,2.83946 -0.31237,5.46158 -0.17217,5.82694 0.40641,1.05908 2.39536,0.81163 2.92555,-0.36397 0.25507,-0.56556 0.61057,-3.70182 0.78999,-6.96948 l 0.32622,-5.94119 2.47024,-0.1406 2.47024,-0.1406 -0.27127,6.69526 c -0.2331,5.75298 -0.41995,6.99043 -1.3277,8.7926 -1.35447,2.68903 -3.32236,3.75946 -6.9114,3.75946 -2.32178,0 -2.83885,-0.16872 -3.96341,-1.29329 z m 13.10689,0.97388 c -0.23458,-0.387 0.89712,-17.95753 1.17448,-18.23488 0.0891,-0.0891 1.69208,-0.38042 3.56218,-0.64737 4.5346,-0.64732 6.50898,-0.27532 8.01064,1.5093 1.05551,1.25441 1.17622,1.73586 1.0103,4.02963 -0.14029,1.93965 -0.50618,3.0216 -1.4325,4.23608 l -1.24409,1.63108 1.36622,2.70646 1.36622,2.70646 -1.80022,1.19133 c -0.99011,0.65522 -1.97951,1.19132 -2.19865,1.19132 -0.21914,0 -1.07694,-1.33677 -1.90623,-2.9706 -1.01511,-1.99991 -1.777,-2.9706 -2.33165,-2.9706 -0.69139,0 -0.84571,0.45922 -0.9599,2.85634 l -0.13606,2.85635 -2.12942,0.13761 c -1.17118,0.0757 -2.22928,-0.0272 -2.35132,-0.22851 z m 18.35059,-0.37535 c -0.66639,-0.36199 -1.67104,-1.60716 -2.23254,-2.76707 -0.88619,-1.83064 -0.9882,-2.6007 -0.77304,-5.83601 0.26135,-3.92993 0.95288,-6.07742 2.65288,-8.23837 3.19252,-4.05813 9.09187,-2.6596 10.48935,2.48666 0.79211,2.917 0.29939,8.21883 -1.00873,10.85409 -1.84892,3.72478 -5.87376,5.26836 -9.12792,3.5007 z m 11.68756,-8.10278 c 0.17941,-4.83865 0.48109,-8.95616 0.67041,-9.15003 0.18931,-0.19387 2.0091,-0.66651 4.04398,-1.0503 3.28307,-0.61922 3.88309,-0.62122 5.32734,-0.0177 2.09645,0.87595 3.47172,3.12977 3.47392,5.69313 0.004,3.94488 -2.03746,6.27652 -6.46888,7.39055 -2.3089,0.58044 -2.6522,1.12412 -2.66346,4.21815 l -0.006,1.7138 h -2.35163 -2.35164 z m 11.6893,7.90891 c 0,-1.20106 3.66861,-12.2619 5.18531,-15.6337 1.07871,-2.3981 1.29605,-2.60601 3.03057,-2.89905 2.32257,-0.3924 3.84114,0.48356 4.52452,2.60989 0.38761,1.206 3.25513,15.87109 3.25513,16.64734 0,0.11428 -1.28536,0.14653 -2.85635,0.0717 l -2.85634,-0.13606 -0.14488,-1.76481 c -0.13987,-1.70367 -0.1933,-1.75512 -1.54243,-1.4853 -0.76864,0.15373 -1.65057,0.27951 -1.95982,0.27951 -0.30926,0 -0.75312,0.66839 -0.98636,1.4853 -0.40794,1.42881 -0.52343,1.49051 -3.03671,1.62236 -2.37151,0.12442 -2.61264,0.0508 -2.61264,-0.79718 z m 16.75912,0.54586 c -0.23338,-0.39137 0.55501,-17.86669 0.84535,-18.73761 0.11961,-0.35881 1.06933,-0.57127 2.55371,-0.57127 h 2.36328 l -0.32532,6.83454 -0.32533,6.83454 3.34632,0.13494 3.34631,0.13494 0.13506,2.56055 0.13504,2.56057 -2.82992,0.29578 c -3.82902,0.40021 -8.9935,0.37397 -9.2445,-0.047 z m 12.66088,-4.11313 c 0.14831,-2.45074 0.39862,-6.76953 0.55626,-9.59731 l 0.28663,-5.14142 1.43535,-0.0541 c 3.3489,-0.12634 3.93557,0.40471 5.08582,4.60366 0.4851,1.77085 0.9933,3.21668 1.12935,3.21293 0.13604,-0.004 0.97785,-1.80324 1.8707,-3.99888 1.4223,-3.49765 1.77498,-4.00988 2.8476,-4.13584 0.83112,-0.0976 1.59393,0.22593 2.37552,1.00752 1.14976,1.14975 1.15128,1.16273 1.15128,9.85532 v 8.70406 h -2.74209 -2.74208 l -0.0202,-2.62783 -0.0202,-2.62784 -0.888,1.68116 c -0.95344,1.80503 -2.49223,2.62007 -3.345,1.77171 -0.28889,-0.28741 -0.76668,-1.18188 -1.06176,-1.98772 -0.52131,-1.42365 -0.53749,-1.39073 -0.57127,1.16269 l -0.0347,2.62783 h -2.79139 -2.79139 z m 17.65254,3.56727 c 0,-1.20106 3.6686,-12.2619 5.1853,-15.6337 1.07871,-2.3981 1.29605,-2.60601 3.03057,-2.89905 2.32257,-0.3924 3.84114,0.48356 4.52452,2.60989 0.38761,1.206 3.25513,15.87109 3.25513,16.64734 0,0.11428 -1.28536,0.14653 -2.85634,0.0717 l -2.85635,-0.13606 -0.14488,-1.76481 c -0.13987,-1.70367 -0.1933,-1.75512 -1.54243,-1.4853 -0.76864,0.15373 -1.65057,0.27951 -1.95982,0.27951 -0.30926,0 -0.75312,0.66839 -0.98636,1.4853 -0.40794,1.42881 -0.52343,1.49051 -3.03671,1.62236 -2.3715,0.12442 -2.61263,0.0508 -2.61263,-0.79718 z m -57.73822,-1.5107 c -0.12679,-0.3142 -0.23051,-0.0571 -0.23051,0.57127 0,0.62839 0.10372,0.88546 0.23051,0.57126 0.12678,-0.31419 0.12678,-0.82833 0,-1.14253 z m 23.91912,-1.05526 c 0,-0.39187 -0.20901,-0.58331 -0.46448,-0.42543 -0.25545,0.15788 -0.34614,0.4785 -0.20153,0.71249 0.39177,0.6339 0.66601,0.51571 0.66601,-0.28706 z m 47.07253,0 c 0,-0.39187 -0.20901,-0.58331 -0.46447,-0.42543 -0.25546,0.15788 -0.34615,0.4785 -0.20154,0.71249 0.39177,0.6339 0.66601,0.51571 0.66601,-0.28706 z m -79.25225,-2.25475 c 1.05922,-1.61659 1.42776,-8.36933 0.52205,-9.56564 -0.64583,-0.85304 -0.6889,-0.84328 -1.45758,0.32987 -1.10496,1.68638 -1.91968,7.74952 -1.24137,9.23825 0.65509,1.43778 1.23364,1.43712 2.1769,-0.003 z m 28.05958,-3.54522 c -0.008,-1.21944 -0.88384,-2.87514 -0.90627,-1.7138 -0.007,0.37703 -0.13724,1.14825 -0.2888,1.7138 -0.2026,0.75597 -0.0799,1.02829 0.46324,1.02829 0.46359,0 0.73623,-0.38307 0.73183,-1.02829 z m 47.07253,0 c -0.008,-1.21944 -0.88384,-2.87514 -0.90627,-1.7138 -0.007,0.37703 -0.13724,1.14825 -0.2888,1.7138 -0.2026,0.75597 -0.0799,1.02829 0.46325,1.02829 0.46358,0 0.73622,-0.38307 0.73182,-1.02829 z m -60.20471,-2.0776 c 0.43988,-0.38054 0.79978,-1.27699 0.79978,-1.99211 0,-1.17274 -0.15159,-1.30021 -1.54625,-1.30021 -1.64694,0 -2.09036,0.6894 -2.10363,3.27057 -0.005,1.02954 0.15001,1.17599 1.02204,0.96384 0.56556,-0.1376 1.38819,-0.56154 1.82806,-0.94209 z m -30.58995,-0.16163 c 1.27132,-0.66917 1.66802,-1.27469 1.67676,-2.55942 0.007,-1.1257 -0.64472,-1.27915 -2.47683,-0.58258 -0.95235,0.36208 -1.17229,0.74792 -1.17229,2.05657 0,1.71588 0.37867,1.92428 1.97236,1.08543 z m 105.92225,-25.83409 c -2.98371,-6.21823 -7.09188,-11.88268 -13.38845,-18.46036 -7.92874,-8.2827 -16.44511,-13.13371 -27.32496,-15.56456 -1.13112,-0.25272 -6.99233,-0.61248 -13.02493,-0.79947 -11.84523,-0.36716 -13.03436,-0.60701 -14.20174,-2.86446 -1.81959,-3.5187 0.43977,-7.77218 5.06347,-9.53253 2.91426,-1.10952 10.32955,-2.73927 16.45051,-3.6155 10.53531,-1.50818 16.5484,-4.02112 21.54156,-9.00249 9.66465,-9.64181 8.56849,-23.14955 -3.08998,-38.07677 -5.1386,-6.57933 -6.34265,-8.58003 -6.33052,-10.51897 0.0249,-3.98284 3.08145,-4.90183 8.0169,-2.41041 3.74578,1.89086 6.66454,4.27564 12.61384,10.30612 13.82861,14.01732 20.42279,26.65794 23.76205,45.55026 0.94256,5.33274 0.79492,23.17316 -0.24397,29.47746 -1.5119,9.17479 -3.62296,17.53902 -6.51709,25.82134 -0.65875,1.88519 -1.24579,3.48487 -1.30453,3.55484 -0.0588,0.07 -0.96871,-1.66905 -2.02216,-3.8645 z m 32.60289,-29.87935 c -3.0756,-1.18327 -5.6325,-3.4402 -7.29221,-6.43671 -1.22208,-2.20639 -1.35649,-2.8566 -1.35649,-6.56219 0,-3.69964 0.13549,-4.35772 1.34772,-6.54607 1.44889,-2.61558 3.38848,-4.37542 6.63708,-6.02199 2.60258,-1.31912 7.97204,-1.43744 10.75282,-0.23692 5.98246,2.58273 9.51838,9.04453 8.38237,15.31856 -1.52614,8.42859 -10.53091,13.5402 -18.47129,10.48532 z m 36.36429,-4.65838 c -0.005,-2.72009 -1.64731,-13.42078 -2.78252,-18.12095 -4.21697,-17.45973 -12.91026,-26.84952 -28.75837,-31.06243 -4.67578,-1.24297 -8.62857,-1.79606 -16.59456,-2.32197 -5.54593,-0.36614 -7.21183,-0.64587 -9.16115,-1.53831 -4.52918,-2.07353 -7.47362,-5.52058 -6.9095,-8.08898 0.79841,-3.63511 6.33615,-8.12404 12.61989,-10.22975 1.85576,-0.62188 6.5618,-1.57114 10.45785,-2.10948 17.78325,-2.45719 23.73372,-4.82505 30.5988,-12.1761 8.03181,-8.60039 10.24614,-20.4413 5.95558,-31.84693 -1.07686,-2.86262 -3.94662,-7.34306 -7.07156,-11.04055 -3.07871,-3.64278 -4.08205,-5.93459 -4.10159,-9.36881 -0.0198,-3.49015 1.06247,-5.43213 3.79196,-6.80378 3.99373,-2.00695 8.35447,-1.56451 12.78151,1.29683 2.16126,1.39689 3.67959,3.04008 7.47151,8.08595 12.53133,16.67533 21.03725,30.63679 25.85444,42.43698 1.82128,4.4614 2.19314,5.56923 3.60493,10.73985 2.1375,7.8285 2.64526,21.7701 1.11768,30.68884 -3.15109,18.39761 -13.12979,33.16094 -33.60391,49.71643 -2.5068,2.02702 -4.71761,3.68548 -4.91291,3.68548 -0.1953,0 -0.35644,-0.87404 -0.35808,-1.94232 z m -170.9206,-4.51809 c -9.91264,-1.01499 -18.58549,-3.51015 -26.93409,-7.74887 -8.92151,-4.52961 -12.38016,-8.53968 -12.35916,-14.32963 0.0229,-6.32388 4.71931,-11.7102 10.84252,-12.43541 4.02008,-0.47612 10.78785,1.98985 16.2797,5.93178 1.22372,0.87837 5.4761,4.7932 9.44973,8.69965 3.97363,3.90644 8.93645,8.37665 11.02849,9.93379 4.53565,3.37596 10.7519,6.45727 15.42193,7.64443 l 3.39196,0.86226 -2.93494,0.52391 c -7.23565,1.29163 -16.94036,1.66002 -24.18614,0.91809 z m 51.8712,-20.68726 c -4.92436,-1.56145 -8.68358,-4.70913 -10.93241,-9.15393 -1.74905,-3.457 -2.14113,-8.54081 -0.94088,-12.19985 2.49457,-7.60489 8.92596,-12.28869 16.85714,-12.2766 5.55335,0.008 9.92727,1.85733 13.45946,5.68931 3.06081,3.32057 3.91017,5.64456 3.93193,10.75829 0.0161,3.77605 -0.14093,4.68175 -1.20521,6.95242 -2.34772,5.00891 -5.90014,8.28313 -10.75853,9.91601 -3.2215,1.08273 -7.57384,1.21414 -10.4115,0.31435 z m -35.94786,-1.19679 c -2.32754,-1.22963 -4.34402,-3.84194 -4.96555,-6.43276 -0.97359,-4.05838 1.25095,-8.69663 5.17559,-10.79133 2.25174,-1.20182 6.49106,-1.05891 8.88191,0.29942 6.70576,3.80978 6.46034,13.44381 -0.43253,16.97868 -2.26331,1.16069 -6.40907,1.13483 -8.65942,-0.054 z m -74.64976,-3.74098 c -3.65102,-1.27622 -6.2643,-4.62397 -9.02348,-11.55949 -3.58729,-9.01712 -5.27335,-16.74452 -5.68386,-26.04985 -0.64981,-14.72969 3.68868,-29.04915 13.00075,-42.90969 14.41436,-21.45505 35.78486,-32.75016 62.26107,-32.90732 8.11769,-0.0482 10.6969,0.24834 18.2806,2.10168 11.1364,2.72156 21.54446,8.82688 24.31899,14.26541 1.88797,3.70071 1.02009,9.74043 -1.83524,12.77195 -3.62097,3.84437 -7.88987,5.03088 -19.97017,5.55053 -20.77966,0.89388 -33.90388,5.90718 -45.30244,17.305 -6.35803,6.35764 -10.56349,12.96876 -14.12339,22.20251 -2.25328,5.84461 -3.84454,12.26669 -7.11817,28.72774 -0.4992,2.5102 -1.94508,5.7856 -3.3905,7.68065 -2.03395,2.66666 -7.78751,4.08858 -11.41416,2.82088 z m 184.4711,-2.43414 c -1.91988,-1.61547 -2.58361,-3.80406 -1.75071,-5.7728 1.03755,-2.45246 2.37181,-3.35255 4.96971,-3.35255 1.99154,0 2.44052,0.18572 3.60813,1.49251 1.06243,1.18905 1.33356,1.91849 1.33356,3.58757 0,1.77326 -0.23867,2.33373 -1.55385,3.64891 -2.00272,2.00272 -4.51842,2.15364 -6.60684,0.39636 z m -126.86701,-16.7244 c -5.85622,-1.37187 -11.93913,-6.57038 -14.73335,-12.59126 -1.47394,-3.17599 -1.68237,-4.08754 -1.86964,-8.17689 -0.32824,-7.16718 1.31696,-11.69716 6.01425,-16.56 4.43088,-4.58704 9.51992,-6.67275 16.28122,-6.67275 6.35907,0 10.7921,1.69894 15.00017,5.74875 5.41168,5.20817 7.78047,12.94277 6.30113,20.57453 -2.12456,10.96031 -10.84743,18.28522 -21.61039,18.14704 -1.96654,-0.0252 -4.38907,-0.23649 -5.38339,-0.46942 z m 95.49591,-29.76168 c -3.97071,-6.11771 -10.71076,-11.5674 -19.56928,-15.82284 -7.94617,-3.81717 -12.03169,-7.56894 -14.78044,-13.57299 -1.7753,-3.87776 -1.77107,-8.74354 0.0102,-11.7831 3.15103,-5.37682 11.58725,-6.83658 19.2461,-3.33025 4.67906,2.14215 10.43339,8.69839 13.27608,15.12622 1.78338,4.03256 2.92162,8.66241 3.65566,14.8697 0.70554,5.96626 0.92433,17.38375 0.33246,17.34956 -0.18852,-0.0109 -1.16539,-1.28723 -2.17082,-2.8363 z m -51.09851,-0.78632 c -2.48168,-0.47846 -5.32113,-2.64724 -6.59967,-5.04086 -1.53333,-2.87064 -1.33149,-7.26097 0.45817,-9.96532 3.44065,-5.19918 10.95952,-5.87773 15.28946,-1.37982 1.53176,1.59118 2.87578,4.7062 2.87578,6.66518 0,6.04331 -5.98806,10.88447 -12.02374,9.72082 z m 235.62175,-5.81956 c -0.74993,-0.95419 -1.71742,-2.42641 -2.14999,-3.27161 -0.90809,-1.77436 -1.57461,-6.96588 -0.80016,-6.23253 0.62047,0.58757 4.78683,10.76587 4.51722,11.03548 -0.11195,0.11195 -0.81712,-0.57716 -1.56707,-1.53134 z m -149.56159,-1.37615 c -0.6284,-0.11127 -2.60383,-0.89932 -4.38984,-1.75122 -8.11331,-3.86993 -13.30978,-13.56629 -11.68135,-21.79682 1.80386,-9.1172 9.04632,-16.26277 17.9201,-17.68036 12.04327,-1.92392 23.74392,8.30036 23.74392,20.74794 0,9.49928 -6.29168,17.75355 -15.32598,20.10669 -2.50673,0.65292 -7.63585,0.83965 -10.26685,0.37377 z M 622.053,575.33389 c -4.11229,-0.5926 -10.04282,-2.39877 -17.75844,-5.40843 -9.80559,-3.8249 -17.40515,-6.23398 -27.25753,-8.64071 -13.40052,-3.27345 -30.67148,-5.38297 -41.13824,-5.02471 -2.76114,0.0945 -5.02027,0.0419 -5.02027,-0.11683 0,-0.60022 10.11446,-7.3589 13.91432,-9.29782 9.64575,-4.92186 22.70856,-8.74558 36.3033,-10.62665 7.37559,-1.02054 23.92221,-0.99858 31.58805,0.042 6.83137,0.92723 16.02519,2.73433 19.0601,3.74636 5.39945,1.80053 10.84356,5.35164 13.71409,8.94548 4.7385,5.93253 4.4503,15.54883 -0.62874,20.97873 -4.3193,4.61768 -13.35337,6.76057 -22.77664,5.40265 z M 419.82389,525.38827 c 0,-0.43543 7.97856,-8.76777 10.81731,-11.29697 1.21419,-1.0818 -0.67158,1.00669 -4.1906,4.64107 -3.51901,3.63438 -6.44962,6.69365 -6.51246,6.79838 -0.0629,0.10474 -0.11425,0.0406 -0.11425,-0.14248 z m 28.33492,-12.38734 c 1.3653,-1.38247 2.58519,-2.51358 2.71087,-2.51358 0.12568,0 -0.88855,1.13111 -2.25385,2.51358 -1.3653,1.38247 -2.58519,2.51358 -2.71087,2.51358 -0.12568,0 0.88856,-1.13111 2.25385,-2.51358 z"
   id="path2-0"
   style="stroke-width:0.457015" />
                    
                    
                    
                    <path
   fill="#000000"
   d="m 454.20901,420.03763 c -11.90589,-1.1505 -21.05194,-3.36885 -30.88223,-7.49045 l -5.66479,-2.37511 V 372.346 334.51991 l 12.17727,-0.44219 c 15.60273,-0.5666 43.36994,-0.5666 58.97271,0 l 12.17725,0.44219 v 37.82214 37.82213 l -6.39573,2.7229 c -7.03398,2.99463 -14.27771,5.10844 -21.01455,6.13232 -5.29349,0.80451 -15.84277,1.35907 -19.36993,1.01823 z m 11.17432,-15.12665 -5.27185,-4.75282 -2.21518,1.20485 c -1.21833,0.66268 -3.9331,2.80652 -6.03274,4.76411 l -3.81758,3.55927 11.30459,-0.0113 11.30461,-0.0113 z m -14.67635,-16.95531 c -2.09967,-1.95758 -4.77898,-4.08218 -5.95403,-4.7213 l -2.1365,-1.16203 -4.25416,3.27916 c -2.33976,1.80355 -4.88073,3.92813 -5.64655,4.7213 l -1.39245,1.44214 h 11.60065 11.60062 z m 34.52104,1.47727 c -1.18075,-1.14508 -3.71405,-3.29701 -5.62953,-4.78205 -3.34686,-2.59475 -3.55143,-2.65857 -5.24537,-1.63664 -0.96946,0.58488 -3.67824,2.72576 -6.01952,4.7575 l -4.25688,3.69411 11.64906,0.0244 11.64909,0.0244 z m -34.70426,-19.84576 c -1.79226,-1.69579 -4.16653,-3.68718 -5.27615,-4.42527 -2.01638,-1.34126 -2.01884,-1.34124 -4.38565,0.0135 -1.30248,0.74575 -3.83457,2.73712 -5.62684,4.42528 l -3.25869,3.06942 h 10.903 10.90304 z m 32.89234,0 c -1.79227,-1.69579 -4.16654,-3.68718 -5.27617,-4.42527 -2.01637,-1.34126 -2.01882,-1.34124 -4.38563,0.0135 -1.3025,0.74575 -3.8346,2.73712 -5.62686,4.42528 l -3.25867,3.06942 h 10.903 10.90303 z m -34.51307,-19.48514 c -2.71729,-2.39373 -5.4279,-4.35222 -6.0236,-4.35222 -0.59569,0 -3.30628,1.95849 -6.02359,4.35222 l -4.94051,4.35222 h 10.9641 10.96411 z m 32.89232,0 c -2.71727,-2.39373 -5.42789,-4.35222 -6.02358,-4.35222 -0.59569,0 -3.30628,1.95849 -6.02359,4.35222 l -4.94053,4.35222 h 10.96412 10.96411 z m -51.48362,-18.59971 c -0.43107,-0.49247 -1.82035,-2.80029 -3.08726,-5.12852 l -2.30346,-4.23312 4.22811,-1.7299 c 2.32546,-0.95144 7.35286,-2.49451 11.17203,-3.429 9.14874,-2.23859 25.47074,-2.529 35.07368,-0.62402 6.29493,1.24876 17.21908,4.79296 17.90005,5.80745 0.65981,0.983 -4.95831,10.12427 -6.2223,10.12427 -0.64959,0 -3.13141,-0.72971 -5.51514,-1.62155 -12.96651,-4.85121 -29.44081,-5.00276 -43.06364,-0.39609 -6.1466,2.07852 -7.28933,2.25037 -8.18207,1.23048 z M 418.7638,315.63897 c -1.78644,-2.60344 -2.23568,-4.06798 -2.45077,-7.98963 -0.56296,-10.26493 6.33305,-17.38624 17.65652,-18.23338 2.48834,-0.1862 6.00439,-0.98864 7.81347,-1.78329 3.69752,-1.62415 13.03358,-1.97742 15.78165,-0.59715 1.18145,0.59337 2.34271,0.53488 5.1166,-0.25779 4.54628,-1.29916 10.7347,-0.87232 14.75891,1.01801 1.92803,0.90565 4.42617,1.42606 6.89103,1.43548 10.31276,0.0395 18.0968,7.59236 18.11275,17.57503 0.004,3.59209 -0.39336,5.17193 -2.03961,8.07349 -1.12572,1.98412 -2.53939,3.69483 -3.14147,3.8016 -0.60207,0.10678 -3.02228,-0.59084 -5.37829,-1.55021 l -4.28362,-1.74428 2.6466,-2.00866 c 3.10564,-2.35708 4.04048,-5.5052 2.78268,-9.37072 -0.72977,-2.24274 -4.37523,-6.03949 -5.80223,-6.04305 -0.2707,-6.7e-4 -0.38106,1.80978 -0.2453,4.02322 0.27548,4.49138 -1.53289,10.63536 -3.31574,11.26528 -0.5992,0.21179 -3.38733,0.006 -6.19582,-0.45531 l -5.10637,-0.84025 2.57165,-2.16887 c 1.41443,-1.19288 2.79281,-2.98017 3.06309,-3.97172 1.81032,-6.64126 -5.73769,-13.56982 -12.28579,-11.27753 l -2.0025,0.70103 v 7.75633 7.75636 h -4.38564 -4.38565 v -8.01704 -8.01704 l -2.83096,-0.4404 c -5.41709,-0.84268 -10.62701,2.74566 -11.54447,7.9512 -0.43849,2.48796 0.85993,5.38775 3.33651,7.45139 0.84519,0.70429 1.53671,1.51495 1.53671,1.80151 0,0.28652 -1.88286,0.88088 -4.18416,1.32078 -2.30127,0.43987 -4.58312,0.94075 -5.07077,1.11304 -0.49352,0.17432 -1.62557,-0.97977 -2.55306,-2.60286 -1.30931,-2.29123 -1.67154,-4.03368 -1.69043,-8.13114 -0.0123,-2.86827 -0.30357,-5.2154 -0.64529,-5.21588 -1.20401,-0.002 -5.51153,4.51832 -5.99452,6.29024 -0.84131,3.08636 0.29827,6.3379 3.09905,8.84243 l 2.63135,2.35304 -4.14649,1.68846 c -2.2806,0.92865 -4.54832,1.68794 -5.03936,1.68726 -0.49108,-6.5e-4 -1.87717,-1.43571 -3.08026,-3.18898 z m 37.63805,-32.14318 c 0,-2.16861 -0.17398,-2.35556 -2.19284,-2.35556 -2.07098,0 -2.19282,-0.14964 -2.19282,-2.69207 0,-2.5425 0.12184,-2.69206 2.19282,-2.69206 1.94919,0 2.19284,-0.22434 2.19284,-2.01905 0,-1.90688 0.16251,-2.01905 2.92375,-2.01905 2.76135,0 2.92377,0.11217 2.92377,2.01905 0,1.78439 0.24913,2.01905 2.14358,2.01905 2.35487,0 3.4271,1.66049 2.60753,4.0381 -0.32502,0.94292 -1.10593,1.34603 -2.60753,1.34603 -1.96251,0 -2.14358,0.19899 -2.14358,2.35556 0,2.29947 -0.0696,2.35557 -2.92377,2.35557 -2.85415,0 -2.92375,-0.056 -2.92375,-2.35557 z"
   id="path4"
   style="stroke-width:0.70138" />
                    <path
   fill="#000000"
   d="m 717.48675,423.37337 c -8.88504,-1.47244 -15.17856,-4.43758 -21.97255,-10.35217 -4.46929,-3.89078 -8.39918,-10.08304 -10.15954,-16.00819 -0.91966,-3.09542 -0.95647,-4.16792 -1.11742,-32.56129 -0.0916,-16.14824 -0.043,-29.97706 0.10793,-30.73072 l 0.27435,-1.3703 h 40.94657 40.94658 v 29.3209 c 0,32.23624 -0.065,33.17295 -2.73878,39.45133 -4.48025,10.52034 -15.83375,19.3439 -28.15426,21.88055 -5.70473,1.17453 -12.44753,1.31208 -18.13288,0.36989 z m 15.89424,-3.17529 c 1.60062,-0.33684 4.01833,-0.99652 5.37271,-1.46597 2.81631,-0.97615 8.05906,-3.62686 8.05906,-4.07461 0,-0.16497 -1.05149,-0.76773 -2.33666,-1.33945 -7.97745,-3.54897 -15.0003,-10.08015 -17.8073,-16.56067 -0.55173,-1.27375 -1.13086,-2.3039 -1.28692,-2.2892 -0.1561,0.0147 -1.1409,1.69549 -2.18845,3.73511 -3.09172,6.01963 -9.31674,11.66981 -16.65423,15.11635 -2.73865,1.28638 -2.84316,1.38938 -2.01475,1.98542 1.40667,1.01211 7.0919,3.36717 10.40458,4.31001 6.04812,1.72136 12.12964,1.91353 18.45196,0.58301 z m -10.29769,-6.01203 v -3.74921 l -1.4551,-0.13145 c -1.39186,-0.12573 -1.46098,-0.21686 -1.59033,-2.09604 -0.13388,-1.94547 -0.12088,-1.96586 1.3412,-2.09766 1.248,-0.11243 1.51177,-0.32785 1.70459,-1.39169 0.21172,-1.16803 0.381,-1.26779 2.35251,-1.38647 1.95742,-0.11774 2.12493,-0.0519 2.13124,0.83907 0.0107,1.41275 0.50172,1.9224 2.00936,2.08279 1.22803,0.13062 1.35335,0.29268 1.47868,1.91188 0.12685,1.63931 0.0447,1.78812 -1.11932,2.02783 -0.69094,0.14225 -1.5081,0.33136 -1.81591,0.42022 -0.39052,0.11272 -0.55965,1.24326 -0.55965,3.74076 v 3.57919 h -2.23863 -2.23864 z m 2.68636,-1.04496 c 0,-2.8614 0.0957,-3.18665 1.17194,-3.97985 0.64456,-0.47508 1.34972,-0.76084 1.56704,-0.63499 0.2173,0.12586 0.3951,0.0493 0.3951,-0.17 0,-0.21934 -0.51053,-0.51888 -1.13453,-0.66562 -0.624,-0.14675 -1.36151,-0.7336 -1.63893,-1.30408 -0.52501,-1.07975 -1.25607,-1.39746 -1.25607,-0.54588 0,0.78871 -1.40944,2.02581 -2.30803,2.02581 -0.45431,0 -0.82604,0.18879 -0.82604,0.41953 0,0.23075 0.4634,0.41954 1.02977,0.41954 1.72,0 2.1043,0.78151 2.1043,4.27922 0,1.90188 0.18751,3.27235 0.44773,3.27235 0.2583,0 0.44772,-1.31837 0.44772,-3.11603 z m -21.64492,-2.53785 c 5.9628,-2.5815 10.88346,-6.4129 14.38796,-11.20299 1.76888,-2.41774 1.78706,-2.76402 0.13313,-2.53656 -1.03341,0.14211 -1.46537,-0.0524 -2.0854,-0.93909 -0.4301,-0.61509 -1.92075,-1.657 -3.31258,-2.31535 -2.86294,-1.35421 -3.81431,-2.22569 -3.43659,-3.14801 0.30812,-0.75239 2.60749,-0.84814 3.96913,-0.1653 0.78196,0.39215 1.05949,0.31587 1.68706,-0.46372 1.0701,-1.32935 2.43099,-0.97397 2.60315,0.6798 0.12401,1.19099 0.30401,1.32909 2.01475,1.5456 2.30625,0.29188 2.68328,-0.0279 2.73415,-2.31946 l 0.04,-1.79946 -2.61652,-0.0604 c -1.43907,-0.0333 -2.80135,-0.23362 -3.02728,-0.4453 -1.04686,-0.98095 -3.9691,-14.69367 -3.97936,-18.67319 -0.001,-0.62649 -0.29454,-1.94801 -0.65099,-2.93673 -0.35643,-0.98872 -0.86549,-3.4472 -1.13121,-5.46331 -0.61508,-4.66675 -0.81702,-5.21054 -1.57443,-4.23993 -0.46807,0.59979 -0.55237,0.2238 -0.50672,-2.25969 0.0506,-2.75501 -0.25524,-3.94819 -0.86554,-3.37632 -0.13687,0.12823 -0.4894,1.70171 -0.78353,3.49673 -0.52796,3.22194 -1.42988,4.52177 -1.82346,2.62795 -0.11136,-0.53556 -0.3957,-2.48406 -0.63201,-4.33 -0.44766,-3.49682 -2.22928,-8.26114 -3.0043,-8.03386 -0.24625,0.0721 -0.6492,1.31201 -0.89545,2.75512 -0.30136,1.76599 -0.73133,2.81739 -1.31522,3.21598 -0.60007,0.40964 -1.03849,1.53014 -1.42219,3.6349 -0.51584,2.82925 -0.49424,3.10347 0.3078,3.90881 1.04335,1.04764 1.06732,1.37303 0.16958,2.30255 -0.4682,0.48476 -0.81441,2.13883 -1.06725,5.09877 -0.21882,2.56172 -0.67477,4.92581 -1.09788,5.69253 -0.39805,0.72122 -0.72368,1.42316 -0.72368,1.55988 0,0.13676 0.90616,1.15635 2.01371,2.26584 1.54099,1.54369 2.11312,2.50847 2.4372,4.1096 0.42895,2.11943 1.74378,5.58407 2.11915,5.58407 0.90002,0 1.88337,-1.07036 2.13415,-2.32299 0.17204,-0.85928 0.52337,-1.43743 0.81765,-1.3455 1.08471,0.33879 3.84643,5.11697 3.87836,6.7101 0.0312,1.55644 0.0134,1.57325 -1.73021,1.57325 -2.4059,0 -3.9757,-0.62889 -4.55775,-1.82593 -0.82554,-1.69779 -3.13028,-2.044 -7.50087,-1.12682 -4.52613,0.94985 -5.57501,1.63414 -2.08965,1.3633 2.28555,-0.17761 2.47826,-0.12391 2.47826,0.68992 0,0.6145 -0.57231,1.15606 -1.88466,1.78341 l -1.88468,0.90095 1.21308,0.90636 c 0.66719,0.4985 1.21308,1.18052 1.21308,1.51561 0,0.39089 0.40765,0.1973 1.13743,-0.54017 0.6256,-0.63219 1.42547,-1.14944 1.77749,-1.14944 0.35204,0 1.08696,-0.56636 1.63313,-1.2586 1.02265,-1.2961 1.89532,-1.59161 2.40742,-0.81521 0.47971,0.72732 -0.13223,2.25136 -1.5978,3.97943 -0.97302,1.14729 -1.30344,1.90533 -1.12342,2.57741 0.20493,0.7651 0.0306,1.00487 -0.8879,1.22087 -1.30484,0.30688 -3.09261,2.35636 -3.51416,4.02859 -0.21783,0.86405 -0.0291,1.37219 0.79693,2.14625 0.78455,0.73513 1.16932,1.6934 1.39845,3.48278 0.33399,2.60809 1.9144,5.19555 3.17339,5.19555 0.37299,0 2.1942,-0.65634 4.04716,-1.45856 z m 48.9343,-0.7891 c 3.20257,-3.08755 5.59491,-6.57232 7.23435,-10.5378 2.62062,-6.33883 2.62122,-6.34697 2.62969,-36.19491 l 0.009,-27.37447 h -17.90879 -17.909 v 26.35438 c 0,23.02105 0.0912,26.64259 0.72193,28.63306 0.92284,2.91287 2.93321,6.65813 5.22036,9.72539 1.48616,1.99305 2.02406,2.41231 3.09492,2.41231 2.29727,0 7.52861,-3.04918 7.52861,-4.38817 0,-0.48057 -1.52376,-1.29453 -5.0369,-2.69062 -2.87541,-1.14267 -2.81909,-2.77872 0.14685,-4.26609 0.4733,-0.23735 0.86055,-0.70809 0.86055,-1.04608 0,-0.338 0.31769,-0.61454 0.70603,-0.61454 0.38832,0 1.29495,-0.55184 2.01477,-1.22632 1.05475,-0.98835 1.30872,-1.589 1.30872,-3.09513 0,-1.14933 -0.25854,-2.06986 -0.67158,-2.39106 -0.79767,-0.62033 -0.89166,-2.98223 -0.14641,-3.68051 0.90404,-0.84709 -0.25291,-2.46526 -2.17416,-3.0409 -0.93991,-0.28159 -1.9003,-0.67798 -2.13424,-0.88085 -0.23393,-0.20288 -0.99947,-0.36885 -1.70121,-0.36885 -1.34903,0 -3.91727,-1.05793 -4.47055,-1.84155 -0.18091,-0.25624 -0.33201,-0.98894 -0.33579,-1.62823 -0.005,-0.90326 0.43966,-1.45728 1.99624,-2.48537 1.91366,-1.26394 1.96363,-1.34888 1.11931,-1.90302 -0.57469,-0.37719 -0.88378,-1.0617 -0.88378,-1.95728 0,-1.50266 1.2299,-2.35098 3.40845,-2.35098 1.42823,0 2.85971,-0.7058 2.85971,-1.41 0,-0.67575 -1.9839,-2.46463 -2.35142,-2.12027 -0.14863,0.13929 -1.55852,0.34238 -3.13313,0.45139 -3.14157,0.21748 -3.57629,-0.0112 -4.10859,-2.16527 -0.89687,-3.62866 -0.98578,-3.37165 1.72954,-4.99926 3.68842,-2.21088 4.11708,-4.03887 1.09307,-4.66123 -1.47688,-0.30395 -1.51983,-1.17453 -0.0679,-1.37581 0.50966,-0.0706 1.02908,-0.49542 1.15426,-0.94394 0.12521,-0.44851 0.53508,-0.81549 0.91092,-0.81549 0.37584,0 0.81201,-0.37991 0.9693,-0.84427 0.32299,-0.9536 7.90008,-4.60965 9.55339,-4.60965 0.5539,0 1.51078,0.47197 2.12641,1.04883 0.88795,0.83205 1.5707,1.04883 3.30314,1.04883 1.84166,0 2.39969,0.20227 3.56145,1.29087 0.75768,0.70998 1.37763,1.68626 1.37763,2.16951 0,0.97993 -1.19507,2.41307 -2.01222,2.41307 -0.29165,0 -1.16128,0.64977 -1.93252,1.44394 -1.21123,1.24723 -1.60847,1.41259 -2.91589,1.21378 -1.17465,-0.17861 -1.58099,-0.0658 -1.81431,0.504 -0.4459,1.0888 -0.1064,1.17902 2.35448,0.62583 4.20176,-0.94452 6.3941,1.28045 3.7835,3.83978 -1.14344,1.12098 -1.45935,1.21714 -3.1995,0.97391 -2.20207,-0.30778 -3.21806,0.22177 -3.21806,1.6773 0,1.14008 0.58394,1.61696 2.7983,2.28528 0.92342,0.27872 1.67896,0.67853 1.67896,0.88847 0,0.20997 0.8059,0.85846 1.79091,1.4411 l 1.7909,1.05936 v 2.91644 2.91646 l -2.79829,0.82549 c -2.28328,0.67358 -2.4639,0.78466 -0.98145,0.60358 1.51728,-0.18534 2.05243,-0.0361 3.246,0.90493 0.78604,0.61978 1.42919,1.48382 1.42919,1.9201 0,0.9133 -2.93186,2.48843 -4.6318,2.48843 -2.04219,0 -3.76013,4.16421 -3.59962,8.72531 0.11998,3.41253 0.2959,3.77655 2.18083,4.51452 0.86533,0.33881 1.57333,0.78088 1.57333,0.98239 0,0.20151 -1.35997,0.60072 -3.02216,0.88709 -3.62329,0.62428 -6.24978,1.56251 -5.67582,2.0275 0.22828,0.18494 2.02687,0.67269 3.99687,1.08389 6.51535,1.35993 8.28292,2.47044 8.28292,5.20395 0,1.74696 -3.55274,6.03637 -6.91435,8.34804 -1.49147,1.02565 -2.77924,2.03765 -2.86172,2.24893 -0.14372,0.36828 3.19347,1.96711 4.23412,2.02851 0.27628,0.0163 1.55145,-0.98182 2.83373,-2.21803 z m -5.99968,-4.48488 c 0.9164,-0.8067 1.99202,-1.09365 1.99202,-0.53142 0,0.15818 -0.45332,0.76306 -1.00738,1.34418 -0.55406,0.58111 0.0356,0.25687 1.31045,-0.72054 2.46369,-1.88894 5.06963,-5.18312 5.06963,-6.40852 0,-1.19359 -2.2362,-2.34889 -6.35036,-3.28081 -2.11522,-0.47914 -4.10465,-0.87116 -4.42098,-0.87116 -0.88835,0 -2.21269,-1.29952 -2.21269,-2.1712 0,-0.75034 -0.0744,-0.74702 -1.80672,0.0811 -2.0676,0.98839 -1.99758,1.40247 0.35785,2.11627 0.92,0.2788 2.42827,0.86277 3.3517,1.29773 1.4457,0.68094 1.67897,0.98909 1.67897,2.21795 0,1.15455 -0.35497,1.71185 -1.85829,2.91762 -1.02207,0.81977 -2.73944,1.80579 -3.81633,2.19117 -1.86698,0.6681 -1.92308,0.73689 -1.2064,1.47895 0.4134,0.42803 0.91433,0.77825 1.11318,0.77825 1.25963,0 5.71399,-2.01376 7.15764,-3.23587 0.94619,-0.80101 1.9181,-1.39178 2.15976,-1.3128 0.81067,0.26489 -0.96029,2.88216 -2.73384,4.04029 -3.20009,2.08965 -3.34185,2.23683 -1.49341,1.55053 0.98162,-0.36448 2.20346,-1.03123 2.7152,-1.48172 z m -23.18904,-44.3455 0.11536,-25.2768 h -18.13636 -18.13636 v 24.33286 24.33286 h 1.36353 c 2.13595,0 3.55622,-1.61294 3.585,-4.07136 0.0134,-1.10652 0.29715,-3.33338 0.63153,-4.94857 0.94526,-4.56571 1.50287,-7.68697 2.0092,-11.24668 0.25625,-1.80155 0.70037,-3.68605 0.98691,-4.18776 0.28656,-0.50172 0.56244,-2.89789 0.61307,-5.32484 0.0766,-3.66595 0.30121,-4.92921 1.32806,-7.46525 1.22539,-3.02641 2.73614,-4.70875 4.22847,-4.70875 0.98146,0 1.82006,0.81739 1.82006,1.77401 0,0.7896 2.52329,5.77757 2.92273,5.77757 0.12299,0 0.61869,-0.23125 1.10169,-0.51392 0.57896,-0.33878 1.02909,-0.3725 1.32101,-0.099 0.66588,0.62395 2.57069,7.18824 2.91697,10.05236 0.16737,1.38446 0.581,3.46114 0.9192,4.61485 0.33817,1.15372 1.13548,5.52688 1.77182,9.71814 1.08964,7.17709 2.40835,12.16772 3.36088,12.71936 0.23174,0.13425 1.48793,0.14358 2.79155,0.0208 l 2.3702,-0.22314 z m 19.66647,12.82196 c -0.14297,-0.33468 -0.24901,-0.23526 -0.27049,0.25346 -0.0194,0.44226 0.0863,0.69006 0.23515,0.55064 0.1488,-0.13942 0.16467,-0.50125 0.0353,-0.8041 z m 10.79775,-0.005 c 0.2955,-0.2769 0.53726,-0.63426 0.53726,-0.79418 0,-0.56908 -1.46692,-0.80655 -2.07262,-0.33551 -0.36084,0.28061 -1.21816,0.36915 -2.06994,0.21376 l -1.45399,-0.26525 1.34317,0.83954 c 1.52336,0.95217 2.92685,1.0812 3.71612,0.34164 z m -12.61401,-0.96111 c 1.47542,-0.90586 1.34586,-1.23117 -0.84014,-2.10926 -3.6036,-1.44753 -4.03488,-1.50084 -4.92233,-0.60824 -0.45159,0.45418 -1.06504,0.82651 -1.36327,0.82735 -0.29822,8.8e-4 0.11252,0.37568 0.9129,0.83291 1.53961,0.8796 1.81541,1.45287 0.89544,1.86121 -0.3078,0.13664 0.52358,0.15843 1.84753,0.0485 1.32396,-0.10993 2.88539,-0.49358 3.46987,-0.85244 z m -33.21999,-2.22382 c -0.25955,-0.16345 -0.8212,-1.35444 -1.24808,-2.64665 -0.96118,-2.9096 -0.43904,-7.13358 1.04154,-8.42611 0.50042,-0.43683 0.90984,-1.08122 0.90984,-1.43196 0,-0.35073 0.19421,-0.52522 0.4316,-0.38776 0.57027,0.33026 0.3677,12.22389 -0.21752,12.77228 -0.245,0.22956 -0.65782,0.28364 -0.91738,0.12012 z m 34.28269,-0.94914 c -2.17011,-1.38732 -4.1643,-2.11655 -4.62007,-1.68946 -0.34685,0.325 -0.23661,0.4585 0.38906,0.47112 0.48019,0.01 1.57823,0.37931 2.4401,0.82145 1.64784,0.84535 2.94053,1.13181 1.79091,0.39689 z m 10.88915,-1.20283 c 0.91622,-0.85853 -0.33924,-1.45619 -1.95216,-0.92932 -1.36756,0.44671 -2.22504,0.33756 -2.21767,-0.28227 0.004,-0.43332 3.42072,-2.17778 4.26402,-2.17778 0.9865,0 0.59918,-0.93749 -0.62587,-1.51488 -0.54384,-0.25635 -1.44757,-0.8699 -2.00826,-1.36348 -0.5607,-0.49358 -1.40944,-0.89859 -1.88606,-0.90002 -0.47662,-9.8e-4 -1.38735,-0.25721 -2.02384,-0.56843 -0.97488,-0.4767 -1.40393,-0.47369 -2.72254,0.0191 l -1.56529,0.585 1.46122,1.45181 c 0.80369,0.79848 1.87772,1.45179 2.38675,1.45179 1.16536,0 1.19757,0.67311 0.0596,1.24385 -1.29269,0.64826 -2.87128,0.52996 -5.40213,-0.40478 -1.24948,-0.46149 -2.81836,-0.82284 -3.48645,-0.80301 l -1.21466,0.0361 1.29646,0.36353 c 0.71306,0.19995 1.82118,0.83367 2.46249,1.40829 0.67468,0.6045 1.73203,1.06099 2.5092,1.08332 0.73875,0.0213 1.74612,0.0686 2.23863,0.10521 0.4925,0.0366 1.45791,-0.07 2.14538,-0.2367 1.11713,-0.27107 1.30203,-0.16321 1.74043,1.01521 0.46222,1.24237 0.59352,1.30555 2.27417,1.0943 0.98099,-0.12333 2.001,-0.42784 2.26668,-0.67679 z m -9.34124,-9.65336 c 0.14164,-0.2148 0.0528,-0.50913 -0.19743,-0.65405 -0.25027,-0.14493 -0.45504,0.0306 -0.45504,0.39053 0,0.73692 0.26867,0.84542 0.65247,0.26352 z m -4.20697,-2.55922 c 1.1169,-0.53392 2.16162,-0.73047 3.02391,-0.56886 1.5881,0.29763 1.96233,-0.15689 1.58493,-1.92502 -0.19602,-0.91842 -0.64883,-1.46418 -1.45226,-1.75042 -0.64213,-0.22875 -1.51237,-0.70839 -1.9339,-1.06586 -0.54832,-0.46496 -1.2175,-0.57062 -2.35138,-0.3713 -1.8508,0.32533 -2.05629,0.87783 -0.46564,1.25192 0.61563,0.1448 1.11931,0.54933 1.11931,0.899 0,0.51521 -0.40325,0.5865 -2.12668,0.37603 -1.78053,-0.21743 -2.38177,-0.0976 -3.69374,0.73645 -1.59395,1.01326 -2.14583,2.64086 -0.89545,2.64086 0.39123,0 0.61667,-0.30647 0.54003,-0.73418 -0.10437,-0.58235 0.19111,-0.73418 1.42868,-0.73418 2.29083,0 2.43348,0.75219 0.44482,2.34544 l -1.74194,1.39558 2.40643,-0.83985 c 1.32353,-0.46193 3.17435,-1.20696 4.11288,-1.65561 z m 7.2614,-2.94032 c -0.13136,-0.47065 -0.33885,-0.76196 -0.46112,-0.6474 -0.24222,0.22697 0.18561,1.50309 0.50392,1.50309 0.1077,0 0.0886,-0.38505 -0.0429,-0.85569 z m 5.54699,-0.7217 c -0.47698,-0.44696 -0.84953,-0.4394 -2.07107,0.0418 l -1.48948,0.58686 1.29479,0.40795 c 1.65493,0.52143 3.18262,-0.17756 2.26576,-1.03669 z m -11.26866,-3.69719 c -0.73874,-0.57699 -2.09015,-1.45001 -3.00312,-1.94004 -0.91298,-0.49003 -1.74588,-1.19109 -1.85089,-1.55791 -0.10502,-0.36681 -0.21432,-0.0534 -0.24289,0.69653 -0.0695,1.82639 1.28306,3.10418 2.96089,2.79706 0.75912,-0.139 1.58808,0.0221 2.13601,0.41494 1.4576,1.04503 1.4576,0.72787 0,-0.41058 z m 9.17838,-1.70293 v -1.5236 l 1.81981,0.2287 c 2.37231,0.29816 2.89746,-0.65605 1.14041,-2.07223 -0.91467,-0.73722 -1.75939,-0.98271 -3.38142,-0.98271 -1.81225,0 -2.28085,-0.16974 -2.89556,-1.04885 -0.88247,-1.262 -2.0359,-1.33654 -3.46146,-0.22373 l -1.05697,0.82512 1.42313,0.014 c 0.78272,0.008 1.77726,0.34434 2.21011,0.74812 0.74997,0.69965 0.66276,0.74024 -1.85327,0.86265 -1.50912,0.0734 -3.08328,-0.0937 -3.67428,-0.39007 -1.28524,-0.64454 -2.13501,-0.0112 -1.70153,1.26904 0.22871,0.67518 0.54435,0.8244 1.34549,0.63598 0.59119,-0.139 1.50344,0.0242 2.09624,0.37501 1.88049,1.11297 3.06484,1.25769 3.97519,0.48572 0.99616,-0.84475 2.3366,-0.54222 1.93563,0.43686 -0.16108,0.39336 0.0708,0.9089 0.56722,1.26114 1.27208,0.90263 1.51126,0.76001 1.51126,-0.90111 z m -56.26233,-18.5092 c -0.14774,-0.4038 -0.76441,-1.8011 -1.37046,-3.10512 -0.60604,-1.30402 -1.03054,-2.71994 -0.94332,-3.1465 0.2049,-1.00212 3.12186,-1.88035 11.7472,-3.53683 11.48994,-2.20662 29.53219,-2.48195 40.11303,-0.61214 5.8954,1.04182 11.66645,2.32336 13.24411,2.94105 1.94668,0.76215 1.97839,1.69883 0.18319,5.40875 -1.48935,3.07788 -1.77067,3.20038 -5.01682,2.18471 -7.63199,-2.38793 -15.60264,-3.36834 -27.21494,-3.34751 -11.50532,0.0207 -19.21649,0.985 -26.76724,3.34751 -2.53964,0.79462 -3.64876,0.75725 -3.97475,-0.13397 z m 7.14842,-3.44232 c 9.73912,-2.32764 27.87249,-3.0549 38.81623,-1.55676 4.7365,0.64839 11.28261,1.94488 13.0426,2.58315 0.53791,0.19507 0.86363,-0.0939 1.23712,-1.0979 0.27883,-0.7495 0.34126,-1.51797 0.13879,-1.70771 -0.50121,-0.46965 -9.06865,-2.2648 -15.09007,-3.16184 -6.67326,-0.99415 -20.78454,-0.99456 -28.2067,-7.9e-4 -4.46162,0.59736 -13.26945,2.33436 -15.30095,3.01749 -0.87331,0.29369 0.27629,3.22776 1.16257,2.96715 0.38864,-0.11425 2.27885,-0.58355 4.20044,-1.04279 z m -13.06141,-6.86143 c -2.42071,-3.29683 -5.01755,-8.64047 -5.76278,-11.85832 -0.62555,-2.70107 -0.65403,-3.61809 -0.19087,-6.14889 0.67473,-3.6869 1.92521,-6.40016 3.79139,-8.22631 3.33404,-3.26253 10.11186,-5.18051 17.96551,-5.08382 3.21131,0.0396 4.98366,-0.13411 6.1557,-0.60297 0.90525,-0.36217 2.79096,-0.78459 4.19047,-0.93871 2.29631,-0.2529 2.77999,-0.49562 4.958,-2.48816 3.26685,-2.9886 3.15876,-3.99037 -0.49674,-4.60363 -2.28191,-0.38282 -3.35794,-1.26939 -3.35794,-2.76671 0,-1.49494 1.43162,-2.42328 4.33725,-2.81254 l 2.15476,-0.28867 0.27597,-2.11344 c 0.4251,-3.25564 1.81844,-4.80723 3.70706,-4.12815 0.99438,0.35757 2.06128,2.34674 2.06128,3.84321 0,1.67077 0.8308,2.47596 2.84563,2.75786 2.49888,0.34963 3.87024,1.32112 3.87024,2.74173 0,1.54649 -1.14008,2.46512 -3.49784,2.81838 -1.98286,0.29712 -3.11354,1.40226 -2.45344,2.39806 0.1951,0.29432 1.3621,1.39829 2.59334,2.45326 1.88536,1.61545 2.62142,1.96422 4.66434,2.21007 1.33413,0.16056 3.14741,0.57997 4.02951,0.93201 1.13573,0.45328 2.9935,0.62532 6.36509,0.58947 13.74938,-0.14624 20.90621,4.68812 21.75372,14.69442 0.30878,3.64552 -0.3918,6.47486 -2.74086,11.06926 -2.49865,4.88695 -4.43639,7.36282 -5.75597,7.35446 -1.62784,-0.01 -4.95772,-1.07396 -5.39476,-1.7232 -0.28325,-0.42075 0.15558,-1.43637 1.46819,-3.39802 2.6871,-4.01578 4.02035,-7.83783 4.03186,-11.55819 0.01,-2.99104 -0.0264,-3.08746 -1.81679,-4.90745 -1.89282,-1.92415 -4.42121,-3.08177 -7.12827,-3.26365 -1.51049,-0.10155 -1.55896,-0.0599 -1.34318,1.15331 0.12312,0.69222 0.22385,4.09043 0.22385,7.55157 0,7.21889 -0.96529,12.04492 -2.57023,12.84977 -1.30267,0.65327 -6.58735,0.0653 -6.92986,-0.77101 -0.14505,-0.35439 0.0838,-2.02606 0.50864,-3.71483 1.56992,-6.23994 0.55639,-14.34585 -2.13384,-17.06587 -1.35362,-1.36861 -5.46735,-2.30324 -7.70997,-1.75169 l -1.56487,0.38486 -0.1385,10.655 c -0.15846,12.19374 -0.0168,11.78997 -4.13987,11.78997 -3.4337,0 -3.73852,-0.44617 -3.8184,-5.58876 -0.0364,-2.34863 -0.0136,-7.13446 0.0514,-10.63516 l 0.1179,-6.36491 -2.07205,-0.29116 c -2.53773,-0.35659 -5.94349,0.38019 -7.31671,1.58287 -2.78268,2.43709 -3.92519,9.7135 -2.57808,16.41946 0.43809,2.18087 0.68205,4.24478 0.54211,4.58649 -0.28598,0.69829 -5.03701,1.38153 -6.52649,0.93856 -2.41642,-0.71864 -4.14733,-13.22598 -2.70345,-19.53462 0.27029,-1.181 0.38666,-2.24545 0.2586,-2.36545 -0.52236,-0.48947 -5.43703,0.92917 -7.07815,2.04312 -2.95941,2.0088 -3.61762,3.38259 -3.37446,7.04313 0.24152,3.63607 1.26996,6.4172 3.91679,10.59194 2.1722,3.42611 2.07141,3.93225 -0.95177,4.77918 -3.21948,0.90193 -3.82606,0.76014 -5.29255,-1.23713 z m 3.56202,-1.66583 c -0.0157,-0.16863 -0.63704,-1.43628 -1.38087,-2.81705 -2.671,-4.95802 -3.49981,-11.91964 -1.82944,-15.36639 1.52987,-3.15683 5.70607,-5.40405 10.94462,-5.8893 2.73768,-0.25359 3.97969,-0.86803 4.85599,-2.4023 0.43771,-0.76636 0.29556,-0.79109 -3.28748,-0.57181 -4.02493,0.24631 -8.69885,1.60399 -11.32363,3.28926 -2.1675,1.39167 -3.66939,3.78915 -4.53815,7.24424 -0.69767,2.77469 -0.69999,3.19157 -0.0316,5.63508 0.82946,3.03189 2.50636,6.55107 4.4909,9.42468 1.1976,1.73411 2.1893,2.4207 2.09958,1.45359 z m 69.904,-3.2646 c 2.26778,-3.70152 3.93196,-7.98946 3.93196,-10.13115 0,-3.65167 -2.37326,-8.73871 -4.78829,-10.2636 -3.25957,-2.05815 -9.26179,-3.62595 -13.07733,-3.41587 l -2.41912,0.13328 1.15543,1.28305 c 1.03627,1.1507 1.5608,1.33386 5.0852,1.77573 4.47028,0.56047 7.01514,1.77172 9.2994,4.42618 1.27534,1.48203 1.39919,1.90791 1.5413,5.30005 0.19273,4.60063 -0.41641,7.41697 -2.40546,11.12137 -0.8551,1.59256 -1.55474,3.06371 -1.55474,3.26923 0,1.06433 1.29562,-0.33814 3.23165,-3.49821 z m -55.16778,-1.24285 c -0.12312,-1.26337 -0.21051,-4.65689 -0.19418,-7.54117 0.0248,-4.38477 0.19291,-5.63377 1.02566,-7.62165 1.97811,-4.72204 3.83309,-5.85082 9.91393,-6.03276 3.70956,-0.11104 3.8092,-0.14094 3.94583,-1.18621 0.17108,-1.30885 -1.04734,-1.7246 -5.06515,-1.72837 -4.93195,-0.004 -9.09189,2.77056 -11.5745,7.72163 -1.20023,2.39365 -1.40911,3.33345 -1.5584,7.01157 -0.24832,6.11843 1.26756,12.1337 2.97736,11.81457 0.63001,-0.1176 0.71668,-0.51659 0.52945,-2.43761 z m 39.6277,0.32505 c 0.98408,-2.91737 1.39315,-11.07527 0.70074,-13.97446 -1.53853,-6.44199 -8.12919,-11.23715 -14.43073,-10.49941 -3.10345,0.36333 -3.70452,0.72655 -3.35596,2.02786 0.25616,0.95636 0.43716,1.01855 2.44003,0.8382 1.18985,-0.10714 3.32098,0.0303 4.73585,0.30565 5.33621,1.03803 7.44327,4.51166 7.76838,12.80663 0.1085,2.76891 2.7e-4,6.16713 -0.24056,7.55158 -0.48785,2.8044 -0.40043,3.1465 0.80395,3.1465 0.6149,0 1.0314,-0.58127 1.5783,-2.20255 z M 726.95,312.34455 c 0.47574,-1.77614 -0.19793,-21.84988 -0.76672,-22.84573 -1.00952,-1.76753 -1.4947,0.0112 -1.87644,6.88166 -0.35236,6.34089 -0.1267,15.959 0.39298,16.74685 0.53148,0.80583 1.95755,0.30972 2.25018,-0.78278 z m 2.76858,-26.50591 c 0.99594,-0.59172 -1.92146,-2.57275 -3.78885,-2.57275 -2.40918,0 -5.71486,1.8837 -4.53597,2.58477 0.75287,0.44774 7.56757,0.43791 8.32482,-0.0125 z m -3.13746,-6.66116 c 0.16788,-1.626 1.5049,-2.6241 3.51514,-2.6241 1.59311,0 2.40039,-0.72865 1.43925,-1.29908 -0.33935,-0.2014 -1.25533,-0.3691 -2.03548,-0.37261 -2.05765,-0.01 -2.83459,-0.39673 -2.83741,-1.4148 -10e-4,-0.49448 -0.22128,-1.63743 -0.48867,-2.53987 -0.57816,-1.9512 -1.28202,-1.35974 -1.29288,1.08642 -0.01,1.85343 -0.95823,2.86181 -2.69605,2.86181 -0.70511,0 -1.84921,0.21586 -2.54243,0.47971 l -1.26039,0.4797 1.4551,0.35936 c 0.80031,0.19764 2.10992,0.50696 2.91022,0.68736 1.18891,0.26799 1.4791,0.55582 1.58629,1.57325 0.20204,1.91788 0.47059,2.36799 1.32256,2.21677 0.51669,-0.0917 0.83266,-0.60222 0.92475,-1.49392 z"
   id="path5"
   style="stroke-width:0.433399"
   sodipodi:nodetypes="ssssscccssssssssssssssssccssssscsssssccccsssssssssssssssssssssssscsssssssssssssssssssssssssssssssscssssssssssssssscsccccssssssssssssssssscssssssscsssssssssssssssssssssscccsssssssssssssssccsssssssssssssssssssssccccccscsssssssssssssssccssssssssscsssssssssssssssssssssssssscsssssscssssscssssssssssssssssssssssssssscssssssssscssssssssssccsssssccsssssssssscsssssssssssssssssssssssssssssssssscssssssssssssscsscssssssssscsssccsssssssssssssssssssssssssssscssssssssssssscssssssssscssssssssscssccssscsscsscsssss" />
                    <path
   style="fill:#86b050;fill-opacity:1;stroke:#f5deb3;stroke-width:2.92488"
   d="m 298.85512,921.46156 c -2.27502,-0.95053 -10.11657,-6.94101 -17.42568,-13.31221 -8.26916,-7.20809 -15.30063,-11.66153 -18.61381,-11.78926 -2.92849,-0.11291 -21.61163,-0.0427 -41.51807,0.1561 -40.51836,0.40454 -62.84663,-2.36093 -101.13537,-12.52618 -38.410612,-10.19762 -87.462479,-29.3393 -91.692749,-35.78159 -2.162674,-3.29352 -1.941484,-13.22333 0.325766,-14.62456 1.049724,-0.64877 17.373702,3.4844 36.275509,9.18484 36.866654,11.1183 43.964534,12.21269 45.933244,7.08233 C 113.9214,842.2483 92.221178,830.10413 48.091058,814.6429 27.842823,807.54882 28.628205,810.58445 36.280065,768.99159 47.03665,710.52254 65.852113,638.20858 88.775229,567.2356 102.4872,524.78152 107.54573,501.05378 111.68603,459.7693 c 1.82353,-18.18306 2.77483,-21.23508 10.19938,-32.72229 9.88179,-15.28906 11.82593,-20.98032 14.37697,-42.08707 1.75345,-14.50773 3.03586,-17.822 11.83279,-30.58066 6.76453,-9.81098 10.59134,-17.94105 12.17283,-25.86121 l 2.30663,-11.5517 9.1675,14.21164 c 11.32348,17.55389 47.03552,54.77094 69.27304,72.19242 l 16.61534,13.01688 -1.47372,16.20621 c -2.23976,24.63045 -2.01571,115.33666 0.37974,153.74161 2.73571,43.86012 13.84849,164.51407 16.76319,182.00173 3.4681,20.80803 11.13683,52.63358 24.80898,102.95828 10.07374,37.07956 12.02726,46.67608 9.99918,49.11978 -2.83038,3.41038 -3.43233,3.47847 -9.25276,1.04664 z"
   id="path6"
   transform="scale(0.75)" /><path
   style="fill:#86b050;fill-opacity:1;stroke:#f5deb3;stroke-width:2.92488"
   d="m 245.13795,383.4757 c -18.43709,-11.69245 -47.18321,-42.28887 -40.95616,-43.59237 0.88234,-0.1847 4.86168,-0.41737 8.84297,-0.51705 8.02824,-0.201 7.51825,1.07878 14.84345,-37.24807 1.50494,-7.87414 3.83495,-14.67765 5.1778,-15.11891 3.64696,-1.19838 18.72463,13.28732 25.07658,24.09204 5.04088,8.57458 5.63088,11.75126 6.17813,33.26421 0.6032,23.71243 -2.41636,43.38705 -6.88313,44.84864 -1.17794,0.38544 -6.70378,-2.19238 -12.27964,-5.72849 z"
   id="path7"
   transform="scale(0.75)" /><path
   style="fill:#86b050;fill-opacity:1;stroke:#f5deb3;stroke-width:2.92488"
   d="M 774.54147,228.39178 C 714.60526,223.47934 659.63962,196.16728 614.19442,148.7164 590.70005,124.18513 566.00929,86.486975 560.22341,66.312786 c -2.48524,-8.665543 1.39251,-13.508838 19.7286,-24.640947 l 15.51171,-9.417388 19.48472,29.373207 c 20.3807,30.723918 43.70827,57.415372 69.2258,79.208322 34.2957,29.28983 84.61961,45.95492 121.39025,40.19915 29.18749,-4.56876 67.93051,-21.24864 93.99969,-40.46931 17.51116,-12.91088 68.41892,-62.923453 82.75208,-81.296921 12.66723,-16.237953 11.14115,-16.084946 29.42394,-2.950064 5.4857,3.941087 10.5144,9.318663 11.1749,11.950172 1.7146,6.831721 -5.1546,21.043144 -23.45219,48.518863 -51.89707,77.92901 -134.67148,119.0009 -224.92144,111.60391 z"
   id="path8"
   transform="scale(0.75)" /><path
   style="fill:#86b050;fill-opacity:1;stroke:#f5deb3;stroke-width:2.92488"
   d="m 729.04103,113.66455 c -23.00165,-4.22701 -52.00663,-12.58391 -63.08014,-18.174627 -7.23405,-3.652275 -12.7102,-9.410057 -24.5873,-25.851769 -8.40422,-11.634128 -14.91905,-21.494046 -14.47741,-21.910929 0.44164,-0.416882 15.69403,3.844873 33.8942,9.470568 18.20018,5.625695 41.68275,11.52874 52.18349,13.117877 57.93792,8.768077 166.3577,4.808526 223.92412,-8.177833 11.94238,-2.694068 22.14508,-4.470975 22.67268,-3.948682 0.5276,0.522292 -8.77931,10.45447 -20.68201,22.071506 -23.2756,22.716979 -25.12921,23.710359 -58.86892,31.549049 -20.93892,4.86471 -127.47782,6.17358 -150.97871,1.85484 z"
   id="path9"
   transform="scale(0.75)" /><path
   style="fill:#86b050;fill-opacity:1;stroke:#f5deb3;stroke-width:2.92488"
   d="m 749.25232,158.31324 c -13.34239,-4.80218 -40.30479,-19.54114 -47.76315,-26.10966 -5.01942,-4.42056 -5.15111,-4.8823 -1.40296,-4.91928 2.27502,-0.0225 9.2552,1.35587 15.51151,3.06293 20.85785,5.69115 74.45347,8.21295 115.32667,5.4264 20.17738,-1.37561 39.47822,-2.99905 42.89075,-3.60766 6.04167,-1.0775 6.09598,-1.015 2.0682,2.38015 -7.90627,6.66444 -42.30409,21.79968 -56.26943,24.75887 -20.65599,4.37691 -56.86325,3.86656 -70.36159,-0.99175 z"
   id="path10"
   transform="scale(0.75)" /><path
   style="fill:#86b050;fill-opacity:1;stroke:#f5deb3;stroke-width:2.92488"
   d="m 1249.9304,892.946 c 4.7486,-25.35056 7.2224,-87.9611 9.6222,-243.53073 2.104,-136.38614 3.7695,-173.45398 8.504,-189.25617 2.6873,-8.96955 23.7271,-37.95291 40.3443,-55.5763 l 10.9608,-11.62451 0.076,7.70019 c 0.2264,23.1204 -25.1833,148.5554 -41.5932,205.32456 -13.7288,47.49397 -17.0708,68.30256 -11.324,70.5078 8.2448,3.16382 11.0443,-3.96962 29.2938,-74.6442 14.4157,-55.82771 21.9221,-91.48001 32.0461,-152.20586 4.4977,-26.97855 8.7991,-50.76879 9.5586,-52.8672 2.0988,-5.79855 9.0171,-15.1904 11.1897,-15.1904 2.5031,0 2.4548,59.65239 -0.1781,220.14841 -2.7147,165.47909 -5.3334,241.87697 -8.6527,252.43563 -7.4482,23.69222 -45.6367,44.40576 -81.9582,44.45436 -8.6497,0.0116 -8.9179,-0.1814 -7.8888,-5.67558 z"
   id="path11"
   transform="scale(0.75)" /><path
   style="fill:#86b050;fill-opacity:1;stroke:#f5deb3;stroke-width:2.92488"
   d="m 1354.7368,885.7073 c 0.036,-4.83442 0.9095,-23.21557 1.9419,-40.84698 2.7544,-47.04118 6.1197,-192.3686 8.1975,-353.99988 l 1.8255,-142.00921 11.6954,-17.75935 c 6.4325,-9.76764 12.5314,-17.75935 13.553,-17.75935 4.3602,0 13.9743,44.89112 20.3979,95.24389 4.0017,31.36869 5.5847,35.90596 17.8776,51.24215 l 7.1744,8.95063 0.036,23.10649 c 0.046,29.6576 1.9742,38.1742 24.4295,107.90275 33.953,105.43135 58.2626,186.13321 58.2626,193.41704 0,5.85353 -20.6819,12.6823 -114.7852,37.89992 -35.2387,9.4432 -38.2617,10.6901 -38.2617,15.78193 0,8.51923 18.8331,5.26223 109.01,-18.85222 53.6861,-14.35633 49.3412,-14.51714 55.7583,2.06341 4.151,10.72546 2.838,13.76452 -8.8174,20.40893 -23.1561,13.2006 -136.095,43.9997 -161.3449,43.9997 -6.8846,0 -7.014,-0.1637 -6.9504,-8.78985 z"
   id="path12"
   transform="scale(0.75)" /><path
   style="fill:#86b050;fill-opacity:1;stroke:#f5deb3;stroke-width:2.92488"
   d="m 1257.4665,928.97309 c -14.8831,-3.86804 -12.1244,-7.83784 8.2728,-11.90464 19.3917,-3.86632 37.8207,-10.36223 57.3126,-20.20172 7.0357,-3.55159 13.258,-5.70361 13.8275,-4.78227 3.3037,5.34547 -17.1766,28.90402 -30.9044,35.54957 -9.7406,4.7153 -33.0426,5.35855 -48.5085,1.33906 z"
   id="path13"
   transform="scale(0.75)" /></svg>
