<?xml version="1.0" encoding="UTF-8" standalone="no"?>
<svg
   version="1.0"
   width="1174.000000pt"
   height="1280.000000pt"
   viewBox="0 0 1174.000000 1280.000000"
   preserveAspectRatio="xMidYMid meet"
   id="svg3"
   sodipodi:docname="FuencaleinteLaPalma.svg"
   xml:space="preserve"
   inkscape:version="1.4 (86a8ad7, 2024-10-11)"
   xmlns:inkscape="http://www.inkscape.org/namespaces/inkscape"
   xmlns:sodipodi="http://sodipodi.sourceforge.net/DTD/sodipodi-0.dtd"
   xmlns="http://www.w3.org/2000/svg"
   xmlns:svg="http://www.w3.org/2000/svg"><defs
   id="defs3" /><sodipodi:namedview
   id="namedview3"
   pagecolor="#ffffff"
   bordercolor="#000000"
   borderopacity="0.25"
   inkscape:showpageshadow="2"
   inkscape:pageopacity="0.0"
   inkscape:pagecheckerboard="0"
   inkscape:deskcolor="#d1d1d1"
   inkscape:document-units="pt"
   showgrid="false"
   showguides="true"
   inkscape:zoom="0.68378906"
   inkscape:cx="474.56156"
   inkscape:cy="767.04942"
   inkscape:window-width="2560"
   inkscape:window-height="1369"
   inkscape:window-x="1912"
   inkscape:window-y="-8"
   inkscape:window-maximized="1"
   inkscape:current-layer="svg3"><inkscape:grid
     id="grid22"
     units="pt"
     originx="0"
     originy="0"
     spacingx="0.99999997"
     spacingy="1"
     empcolor="#0099e5"
     empopacity="0.30196078"
     color="#bf3131"
     opacity="0.14901961"
     empspacing="5"
     enabled="true"
     visible="false" /></sodipodi:namedview><metadata
   id="metadata1">
                Created by potrace 1.15, written by Peter Selinger 2001-2017
                </metadata><g
   transform="translate(0.000000,1280.000000) scale(0.100000,-0.100000)"
   fill="#000000"
   stroke="none"
   id="g3"><path
     d="M4425 12777 c-33 -13 -100 -45 -150 -71 -379 -205 -660 -325 -1163 -497 -373 -127 -591 -189 -982 -279 -288 -67 -505 -172 -631 -306 -96 -103 -206 -267 -284 -424 -74 -146 -225 -631 -225 -720 0 -46 -33 -122 -85 -197 -57 -80 -108 -180 -125 -243 -7 -25 -18 -91 -25 -147 -11 -93 -16 -106 -45 -140 -74 -83 -112 -218 -125 -443 -14 -224 -31 -299 -160 -715 -208 -666 -337 -1170 -379 -1470 -23 -170 -40 -450 -41 -665 0 -177 2 -198 20 -229 14 -24 33 -38 60 -47 22 -7 101 -34 175 -60 494 -172 676 -225 830 -243 47 -6 171 -15 275 -21 553 -30 550 -30 628 -94 23 -19 75 -50 115 -69 40 -20 79 -41 87 -47 31 -25 13 -119 -73 -390 -68 -214 -77 -270 -76 -495 0 -192 16 -350 44 -445 18 -61 11 -118 -29 -243 -52 -160 -59 -187 -76 -282 -33 -180 -11 -367 65 -555 23 -58 55 -138 71 -177 48 -120 48 -167 0 -310 -67 -202 -76 -331 -33 -468 25 -76 39 -266 52 -720 13 -415 25 -626 45 -738 27 -155 83 -358 110 -399 49 -73 47 -73 525 -73 550 -1 623 -10 1165 -155 339 -91 577 -141 775 -164 74 -9 172 -21 216 -27 120 -17 1068 -5 1274 16 501 50 805 136 1575 445 578 232 843 312 1155 350 140 17 267 39 295 52 28 13 47 56 66 153 21 108 18 684 -4 880 -22 184 -49 322 -82 414 -14 37 -25 85 -25 105 0 22 29 111 70 218 122 312 150 436 150 668 0 179 -9 228 -60 346 -52 118 -52 173 -5 435 53 291 63 427 71 987 l7 502 119 0 c216 0 330 38 475 159 45 37 105 78 135 89 29 12 139 40 244 61 246 51 330 72 543 133 452 128 734 261 757 354 25 99 -230 1009 -571 2044 -63 190 -121 372 -129 405 -11 44 -15 109 -14 250 2 218 -8 268 -82 385 -78 124 -99 179 -115 296 -71 508 -233 1141 -356 1388 -152 305 -399 488 -961 709 -91 37 -382 142 -645 235 -750 265 -940 346 -1193 509 -161 103 -181 113 -229 113 -22 0 -97 -21 -168 -46 -241 -86 -481 -136 -808 -170 -239 -25 -777 -25 -955 -1 -299 42 -516 107 -849 256 -62 28 -127 51 -145 50 -17 0 -58 -10 -91 -22z m135 -344 c131 -219 259 -382 441 -559 197 -191 322 -277 501 -344 298 -112 466 -120 743 -33 113 35 332 142 444 217 163 109 511 444 670 645 36 46 73 92 81 103 14 18 19 16 111 -46 110 -73 139 -105 139 -150 0 -61 -147 -315 -287 -494 -295 -378 -737 -627 -1229 -693 -146 -19 -423 -7 -573 26 -494 106 -925 402 -1218 835 -116 172 -195 331 -197 399 -1 40 3 47 41 79 37 31 228 149 245 151 4 1 43 -61 88 -136z m378 -47 c324 -106 392 -118 769 -137 172 -8 291 -8 483 0 451 21 624 40 870 101 68 16 133 30 143 30 17 0 17 -2 -3 -29 -50 -72 -271 -288 -320 -315 -66 -36 -292 -93 -423 -106 -170 -18 -717 -25 -847 -11 -214 22 -545 107 -644 165 -25 14 -65 52 -89 84 -63 82 -164 227 -182 262 -14 27 -14 30 0 30 9 0 118 -33 243 -74z m-813 -236 c43 -80 96 -171 118 -204 62 -92 202 -249 353 -397 220 -214 291 -268 472 -359 306 -153 573 -219 879 -220 460 0 900 161 1259 463 203 170 366 373 525 656 35 62 73 120 85 128 19 12 47 4 285 -86 145 -54 433 -158 639 -231 980 -346 1165 -433 1380 -649 79 -80 104 -113 147 -196 46 -89 143 -347 143 -380 0 -35 -291 -516 -338 -558 -19 -18 -20 -17 -30 42 -22 126 -94 235 -163 246 -100 17 -204 -27 -197 -84 3 -26 4 -26 93 -26 118 -1 112 1 135 -44 24 -48 35 -132 26 -195 -6 -41 -13 -50 -49 -73 -23 -14 -106 -91 -183 -170 -78 -78 -146 -143 -153 -143 -24 0 -13 80 52 390 33 153 37 184 26 201 -23 37 -85 -58 -118 -181 -30 -112 -87 -424 -111 -605 -30 -232 -47 -548 -80 -1440 -40 -1105 -60 -1613 -70 -1773 -16 -234 -49 -351 -417 -1452 -421 -1263 -610 -1736 -937 -2342 l-48 -88 40 0 c33 0 45 6 72 37 152 172 440 835 776 1783 48 135 122 340 166 455 44 116 118 316 165 445 86 236 126 330 142 330 15 0 21 -103 21 -400 0 -412 -15 -600 -80 -975 -57 -327 -108 -468 -317 -875 -179 -349 -366 -677 -633 -1115 -144 -234 -212 -357 -225 -402 -8 -31 35 -54 61 -32 78 65 633 1013 956 1634 173 334 181 343 223 260 18 -35 20 -59 19 -195 0 -129 -5 -173 -26 -266 -45 -193 -175 -510 -287 -702 -61 -104 -160 -219 -408 -474 -209 -215 -303 -325 -303 -354 0 -31 58 -4 152 73 95 77 433 425 551 568 55 66 103 121 107 123 17 7 69 -193 90 -343 37 -272 54 -759 30 -846 -13 -48 -41 -59 -166 -69 -291 -24 -630 -128 -1299 -397 -691 -279 -1160 -400 -1704 -443 -204 -15 -760 -13 -916 5 -295 33 -612 98 -1025 210 -151 41 -331 86 -400 99 -263 53 -624 86 -951 86 -179 0 -198 4 -215 47 -22 51 -51 239 -68 433 -21 242 -25 318 -37 695 -11 356 -24 478 -64 595 -31 89 -29 125 16 256 81 240 78 367 -16 584 -124 286 -124 451 1 831 30 91 54 175 54 186 0 12 -13 76 -29 144 -41 174 -55 299 -48 448 6 140 22 227 74 405 20 67 47 164 60 216 13 52 29 99 34 105 15 15 35 -15 54 -85 35 -133 246 -715 381 -1050 190 -474 688 -1350 990 -1740 119 -154 344 -383 367 -374 37 14 7 77 -96 201 -218 263 -307 387 -454 633 -316 531 -717 1335 -858 1721 -159 434 -498 1522 -551 1769 -80 372 -124 685 -128 923 -2 120 -11 225 -29 347 -60 403 -82 737 -74 1155 6 285 16 418 62 825 23 205 30 426 16 501 -28 140 -82 227 -189 306 -43 31 -96 74 -118 95 -48 46 -95 60 -145 44 -48 -16 -66 -59 -79 -196 -13 -134 -28 -220 -39 -220 -25 0 -103 114 -176 260 -72 141 -67 180 46 419 112 235 245 403 386 487 112 66 177 88 495 164 502 121 1189 344 1593 518 77 33 143 57 146 54 4 -4 41 -72 84 -152z m1273 -326 c118 -31 278 -43 552 -44 274 0 504 15 603 41 43 11 82 17 86 14 16 -17 -178 -130 -324 -188 -146 -58 -233 -72 -445 -72 -177 1 -188 2 -252 27 -163 65 -371 186 -403 235 l-17 26 51 -7 c29 -4 95 -18 149 -32z m-3590 -1191 c51 -36 118 -118 147 -178 34 -68 49 -186 41 -320 -9 -144 -24 -230 -45 -257 l-18 -21 -50 27 c-131 72 -293 216 -349 312 -35 60 -24 75 52 67 54 -6 54 -6 68 28 8 19 19 77 26 129 12 95 35 214 46 231 10 17 46 9 82 -18z m8664 -214 c41 -112 106 -460 133 -719 22 -209 27 -223 90 -289 29 -31 63 -76 76 -101 23 -43 24 -52 21 -226 -3 -217 -1 -222 142 -659 207 -630 479 -1522 480 -1574 1 -33 -2 -35 -59 -58 -117 -46 -352 -115 -682 -198 -332 -85 -405 -109 -417 -140 -22 -58 68 -49 449 46 110 28 277 72 372 100 188 54 328 89 356 89 20 0 57 -72 78 -151 17 -64 0 -88 -96 -135 -88 -42 -396 -145 -611 -204 -198 -54 -525 -120 -597 -120 l-57 0 0 33 c0 17 7 145 15 282 30 524 46 1207 66 2890 l10 900 51 80 c82 131 139 206 151 202 7 -2 19 -24 29 -48z m-9186 -81 c31 -51 88 -130 126 -175 102 -120 310 -317 427 -403 l102 -75 -5 -65 c-3 -36 -11 -126 -17 -200 -22 -251 0 -1003 41 -1400 11 -107 31 -330 45 -495 14 -165 32 -351 40 -413 23 -181 117 -568 239 -985 60 -206 60 -257 -1 -257 -45 0 -91 28 -175 108 -112 106 -120 108 -318 92 -289 -24 -526 -1 -851 80 -289 72 -680 220 -732 277 -21 24 -25 96 -7 118 23 28 48 22 514 -126 47 -15 103 -11 110 7 23 59 -88 119 -488 264 l-118 43 6 61 c14 126 92 527 146 754 70 287 223 815 314 1081 74 217 129 489 146 730 5 70 14 140 20 155 6 16 35 62 65 103 66 91 90 161 100 298 8 119 19 147 85 231 66 84 89 129 96 189 8 74 13 95 24 95 5 0 34 -42 66 -92z m8849 -410 c16 -72 -34 -3172 -55 -3404 -14 -159 -52 -232 -163 -316 -83 -64 -190 -116 -273 -133 -78 -16 -284 -34 -284 -25 0 4 7 51 15 106 35 239 54 795 65 1854 11 1072 24 1279 85 1405 40 82 338 445 366 445 36 0 8 -214 -100 -770 -85 -438 -138 -660 -207 -872 -62 -191 -104 -361 -104 -418 0 -39 4 -52 22 -64 25 -18 41 -9 63 35 26 50 135 459 239 894 67 281 107 498 167 889 41 274 52 308 117 379 33 35 39 34 47 -5z m-97 -3826 c8 -57 -133 -218 -235 -268 -75 -37 -199 -44 -329 -19 -93 18 -134 36 -134 59 0 26 30 38 112 47 116 13 289 70 431 145 67 35 129 62 137 61 8 -1 16 -12 18 -25z"
     id="path1" /><path
     d="M2403 2124 c-8 -22 16 -40 172 -123 195 -105 980 -467 1320 -609 370 -155 635 -231 708 -203 73 28 -1 71 -298 176 -403 142 -868 335 -1414 587 -415 191 -473 211 -488 172z"
     id="path3" /></g><path
   style="display:inline;fill:#bf3131;fill-opacity:1;stroke:#f5deb3;stroke-width:2.92488"
   d="m 680.03428,1678.2954 c -28.15834,-2.5608 -83.58359,-13.6088 -141.85662,-28.2763 -67.97198,-17.1088 -98.15435,-21.6662 -163.78753,-24.7312 l -42.40506,-1.9803 -3.34704,-10.238 c -4.79066,-14.6539 -9.38469,-64.7956 -12.69272,-138.5351 -1.87066,-41.699 -4.50541,-69.784 -7.57197,-80.7131 -4.48696,-15.9915 -4.4224,-17.7039 1.40526,-37.2721 9.03357,-30.333 8.04136,-49.1775 -4.502,-85.5045 -9.50101,-27.5159 -10.4394,-32.8778 -8.97577,-51.2865 0.89899,-11.3069 5.54091,-33.1217 10.31538,-48.4773 l 8.68086,-27.9192 -5.8366,-27.6535 c -4.1865,-19.8353 -5.43761,-34.2688 -4.42532,-51.0525 1.48475,-24.617 19.11238,-96.89797 22.67202,-92.96521 1.14197,1.26171 6.36889,15.45594 11.61537,31.54281 37.9734,116.4346 84.80622,213.8056 150.52615,312.962 25.47122,38.4302 66.61628,86.2839 74.18777,86.2839 8.44359,0 1.32833,-13.5816 -24.52233,-46.808 -30.57677,-39.3011 -54.30859,-77.6599 -89.56725,-144.7716 -51.60101,-98.2178 -70.89096,-144.0372 -102.20395,-242.76488 -44.00028,-138.72986 -55.06041,-188.49456 -61.10471,-274.93859 -1.79971,-25.73893 -4.54248,-53.37904 -6.09505,-61.42245 -1.55257,-8.04342 -3.62293,-47.5833 -4.60079,-87.86637 -1.41342,-58.22556 -0.73829,-83.71464 3.29292,-124.32187 2.78898,-28.09396 4.60841,-64.40164 4.04318,-80.68376 -1.20853,-34.81293 -4.84046,-41.81676 -33.03973,-63.71397 -27.58646,-21.42134 -35.03134,-18.00108 -40.15237,18.44642 l -3.44873,24.54539 -5.65792,-6.98724 c -8.70182,-10.7463 -22.56088,-39.6881 -22.5728,-47.13868 -0.006,-3.66541 6.59719,-19.97296 14.67345,-36.239 16.06591,-32.35765 35.23002,-55.12547 54.80659,-65.11269 6.51233,-3.32234 37.30935,-12.74567 68.43783,-20.94072 75.99035,-20.00565 156.52444,-46.628613 217.86971,-72.023386 1.85051,-0.766047 10.19662,10.721107 18.79205,25.864447 12.75955,22.479589 22.40498,34.176619 55.16853,66.903099 43.76087,43.71131 61.99353,55.4658 111.36505,71.79638 23.33099,7.71718 27.92238,8.22341 74.5844,8.22341 46.57159,0 51.2986,-0.51853 74.58441,-8.18158 66.57415,-21.90867 116.90944,-62.47196 155.59985,-125.39193 10.4993,-17.074475 19.4325,-28.517568 22.2624,-28.517568 5.6675,0 179.8901,62.747738 221.3705,79.728448 69.2085,28.3317 93.8075,51.63726 112.9414,107.00272 6.2263,18.01631 6.6407,16.71833 -18.5694,58.16597 -18.843,30.97951 -21.4624,33.16431 -23.9383,19.96661 -2.7247,-14.52365 -14.8075,-27.94858 -25.1545,-27.94858 -13.1188,0 -23.3294,5.01872 -23.3294,11.46686 0,4.7988 2.3222,5.9109 13.8931,6.65337 13.2522,0.85035 14.0619,1.40802 17.5481,12.08657 2.0102,6.1573 2.8097,14.05448 1.7767,17.54927 -1.8492,6.2557 -47.0559,50.52634 -49.3016,48.28068 -0.6339,-0.634 2.0294,-17.42406 5.9186,-37.31124 3.8892,-19.88717 6.409,-37.23 5.5996,-38.53963 -2.9432,-4.76222 -9.7088,1.00054 -14.1211,12.02815 -5.2037,13.00518 -14.8692,60.90989 -19.1713,95.01819 -4.0425,32.04933 -7.9509,108.147 -13.3697,260.31419 -2.5205,70.78207 -5.7824,143.41774 -7.2485,161.41262 -3.2011,39.28904 -8.0585,56.54495 -56.656,201.27234 -53.9808,160.7596 -70.2402,202.6865 -107.4723,277.1322 -22.4249,44.8389 -22.8452,46.0669 -15.7684,46.0669 19.6255,0 51.0716,-68.6079 128.6978,-280.7884 22.0701,-60.3256 41.9917,-112.97341 44.2702,-116.99511 3.6392,-6.42353 3.9948,1.04119 2.9258,61.42241 -1.2401,70.0479 -6.2423,112.0354 -18.1197,152.0937 -10.0324,33.8356 -51.1229,112.8913 -110.7995,213.1718 -40.2105,67.5695 -41.9946,71.7019 -30.2283,70.0137 4.3587,-0.6254 11.1752,-7.998 20.601,-22.2816 18.1293,-27.4726 73.4191,-123.7465 104.4831,-181.9322 13.312,-24.9345 25.5565,-47.0431 27.2099,-49.1301 5.3684,-6.776 7.8178,2.2797 7.8652,29.0791 0.05,28.349 -5.1972,48.7431 -23.2533,90.3735 -14.925,34.4114 -23.79,46.5954 -70.9404,97.4999 -38.5936,41.6664 -45.4909,51.5435 -35.9937,51.5435 6.9935,0 41.7675,-31.7367 73.1971,-66.8037 16.0868,-17.9486 30.1304,-32.6357 31.208,-32.6379 4.2236,-0.01 11.1289,41.8804 14.3445,87.0171 3.3853,47.5191 2.3993,66.0351 -3.718,69.8158 -1.801,1.1131 -14.5829,3.7213 -28.4043,5.7961 -32.4801,4.8757 -67.4994,15.152 -120.1883,35.2687 -145.11012,55.4033 -183.96151,66.5873 -256.96798,73.9726 -28.24374,2.8571 -101.04168,3.4369 -127.65354,1.0167 z m -63.49046,-134.9439 c -0.51408,-2.6693 -8.94911,-7.6848 -19.88651,-11.8245 -75.46474,-28.5627 -136.80955,-53.6569 -196.61809,-80.43 -38.17209,-17.0876 -72.16063,-31.0684 -75.53009,-31.0684 -24.31177,0 28.33341,29.1396 149.3212,82.6507 67.04179,29.6516 101.60508,42.5497 122.84491,45.8422 15.75246,2.4418 21.0681,1.0587 19.86858,-5.17 z"
   id="path81"
   transform="scale(0.75)" /><path
   fill="#000000"
   d="m 571.40131,875.97342 c -0.87976,-0.1052 -3.65612,-0.41195 -6.1697,-0.68159 -17.81575,-1.91169 -35.81716,-6.9023 -57.75766,-16.0126 -25.9028,-10.75551 -49.63464,-26.64211 -69.53369,-46.5473 -15.32603,-15.33078 -26.55801,-32.30481 -38.56768,-58.28442 -4.8794,-10.55525 -7.21399,-17.64686 -16.77374,-50.95241 -9.4718,-32.99916 -10.56654,-45.25506 -6.55505,-73.38573 5.22571,-36.64545 17.88894,-68.08422 37.72452,-93.658 4.7042,-6.06504 7.09661,-8.71528 4.33186,-4.79865 -17.87099,25.31641 -27.53736,47.06105 -35.38674,79.60299 -5.17298,21.44615 -6.00673,43.90679 -2.36349,63.67119 1.62041,8.79068 1.74336,8.50231 1.75375,-4.11313 0.0103,-12.49372 0.18157,-15.92082 1.27897,-25.59284 4.45364,-39.25252 20.64298,-76.60261 47.64127,-109.91209 4.97415,-6.13693 11.63141,-13.73054 11.84777,-13.51417 0.0918,0.0918 -1.65804,2.50171 -3.88862,5.35527 -25.43646,32.54063 -39.71973,62.8971 -45.33754,96.35669 -6.88008,40.97762 -4.60902,77.4289 6.67129,107.07657 4.20174,11.04329 14.23674,27.36098 24.7939,40.31684 9.51377,11.67541 22.88933,24.7086 35.48044,34.57227 9.87512,7.73601 36.58192,23.5975 55.96834,33.24027 21.97515,10.9304 39.65355,16.92091 53.54802,18.1453 l 3.50487,0.30886 -0.5188,1.1971 c -0.95356,2.20028 -2.74357,4.21915 -4.56459,5.14816 l -1.80387,0.92027 -4.73872,-0.95374 c -17.65937,-3.5542 -41.91078,-13.60244 -62.10795,-25.73356 -30.41538,-18.26854 -51.15754,-34.17668 -68.94293,-52.87558 -8.17003,-8.58967 -7.90933,-8.34298 -6.86961,-6.50014 1.28585,2.27912 9.42078,13.03661 12.83209,16.96895 19.22057,22.15618 37.49674,36.20812 63.89448,49.12636 23.87407,11.68323 51.9081,20.9881 70.3803,23.36019 4.96613,0.63772 8.56637,0.72035 21.93672,0.50354 15.26964,-0.24752 23.66549,-0.84611 36.56118,-2.60644 19.69528,-2.68855 47.10986,-8.88472 57.58389,-13.01495 14.59915,-5.75689 30.8213,-15.38891 49.12911,-29.17077 3.64469,-2.74368 6.9352,-5.19192 7.31224,-5.44054 1.35258,-0.89188 -3.54485,3.46715 -9.82583,8.74561 -20.26776,17.03282 -40.32672,29.14336 -57.8642,34.93535 -19.60369,6.47442 -46.15431,11.47443 -71.92804,13.54572 -6.27391,0.50418 -29.95837,0.97618 -32.67656,0.65115 z m 174.59386,-59.67208 c 0.008,-0.0863 3.43095,-3.65298 7.60702,-7.92607 4.17607,-4.27309 6.89507,-6.8438 6.04222,-5.71269 -2.73727,3.63038 -13.73809,14.62275 -13.64924,13.63876 z m 17.46527,-18.66592 c 0.6209,-0.87975 3.06762,-4.27309 5.43717,-7.54075 19.98556,-27.56054 33.11505,-56.469 39.02214,-85.91881 2.77681,-13.84375 3.8541,-24.74261 3.86232,-39.07478 0.0124,-21.75042 -2.54915,-40.9633 -8.09319,-60.70116 l -1.70999,-6.08788 -0.51823,3.34579 c -0.51061,3.29655 -2.20468,9.86361 -2.66259,10.32152 -0.12912,0.12912 -0.4595,-0.35931 -0.73417,-1.08541 -1.65399,-4.3723 -6.60311,-15.29276 -10.23341,-22.58049 -14.0463,-28.19758 -29.82347,-49.51054 -48.85639,-65.99881 -34.49315,-29.88151 -73.89375,-48.07282 -121.18578,-55.95164 -16.45268,-2.741 -20.11716,-3.03572 -37.47522,-3.01403 -17.52255,0.0219 -23.85941,0.5908 -38.15357,3.42531 -27.72495,5.49781 -55.30753,18.32931 -79.99072,37.21193 -4.14664,3.17219 -2.48801,1.32154 2.73357,-3.05 22.54982,-18.87888 47.684,-32.58374 72.74824,-39.66729 16.82721,-4.75564 29.89369,-6.43249 50.05118,-6.4232 34.85231,0.0161 67.10494,7.07324 103.43742,22.63303 18.31029,7.84158 41.65101,22.62927 56.37993,35.71993 5.47039,4.86194 6.62277,5.55322 3.03201,1.81883 -9.05437,-9.41655 -22.96068,-20.67932 -35.41866,-28.68569 -19.30844,-12.40897 -48.17357,-25.53266 -67.1812,-30.54433 -17.34985,-4.57456 -42.02807,-7.33817 -59.41193,-6.65328 -21.92973,0.86398 -39.87906,3.82412 -59.86896,9.87337 -28.95361,8.76181 -55.74492,23.28637 -82.47638,44.71348 -8.55496,6.85738 -8.15432,6.11063 0.89921,-1.67606 26.77833,-23.03128 55.58469,-38.79963 88.20389,-48.28205 12.99527,-3.77773 26.33305,-6.36344 42.9594,-8.32828 9.31253,-1.10052 30.54265,-1.10368 39.9888,-0.006 30.19232,3.50862 55.08604,10.95479 82.94822,24.81129 22.85071,11.36419 38.39196,21.89758 52.50399,35.58563 19.78097,19.18667 38.28207,46.54834 48.05636,71.07156 16.09332,40.37737 21.00567,79.72227 14.55026,116.53881 -5.18114,29.54915 -18.48067,59.56853 -38.26721,86.37583 -4.21214,5.70672 -11.36573,14.67515 -14.03455,17.59507 -1.58369,1.73269 -1.61196,1.74461 -0.54196,0.22851 z M 647.49429,780.1274 c -5.3696,-2.59133 -9.76425,-9.48736 -11.11831,-17.44668 -0.62365,-3.66593 -0.64288,-4.77071 -0.13558,-7.78984 0.82818,-4.92877 3.00246,-9.95347 6.16739,-14.25274 6.98274,-9.48539 18.53374,-16.73291 40.04814,-25.12767 2.89062,-1.1279 5.52635,-2.16167 5.85718,-2.29727 0.33082,-0.1356 -1.13821,2.40281 -3.26452,5.64089 -4.85817,7.39834 -7.09361,11.58009 -9.13276,17.08431 -2.13434,5.76116 -2.99839,10.19249 -3.50709,17.9863 -0.23204,3.5552 -0.81067,7.92248 -1.28583,9.70508 -1.79685,6.741 -6.47934,13.1672 -11.64161,15.97687 -1.92159,1.04586 -3.08165,1.32607 -6.04016,1.45899 -3.14213,0.14117 -3.98606,0.008 -5.94685,-0.93824 z M 467.537,779.53759 c -0.59378,-0.59378 0.95133,-18.58321 1.63335,-19.01682 0.91661,-0.58276 3.25618,-0.39992 4.30779,0.33665 0.54749,0.38349 1.46609,1.97732 2.04131,3.54187 l 1.04588,2.84463 0.4597,-3.42761 0.4597,-3.42761 h 2.05657 2.05657 l -0.0143,3.08485 c -0.008,1.69667 -0.0592,6.06687 -0.11425,9.71157 l -0.1,6.62672 h -2.47363 -2.47363 l -1.24712,-3.31336 c -2.50309,-6.65023 -2.41002,-6.59818 -2.45162,-1.37105 l -0.0373,4.68441 h -2.43742 c -1.34057,0 -2.56082,-0.12342 -2.71166,-0.27425 z m 15.23216,-5.32419 c 0.0277,-5.39491 0.55804,-12.97483 0.93256,-13.3289 0.0997,-0.0942 3.009,-0.32056 6.46518,-0.50294 l 6.28396,-0.33161 v 2.33149 c 0,2.65102 0.1683,2.55127 -5.14142,3.04742 -2.77202,0.25903 -3.08494,0.38886 -3.08567,1.28017 -7.6e-4,0.92001 0.22285,0.99191 3.08485,0.99191 h 3.08567 v 1.77825 c 0,2.11511 -0.43239,2.41817 -3.99888,2.80279 -2.33605,0.25192 -2.62784,0.39751 -2.62784,1.31112 0,1.00101 0.10098,1.02242 3.88463,0.82383 l 3.88463,-0.20389 v 2.50315 2.50315 l -3.77038,0.29352 c -2.0737,0.16142 -4.9529,0.29473 -6.39821,0.29623 l -2.62783,0.003 z m 15.97422,4.30515 c -1.71162,-1.71161 -2.01146,-4.54285 -1.26663,-11.96015 l 0.57366,-5.71268 2.39933,-0.13814 c 2.80812,-0.16168 2.64924,-0.77747 1.95735,7.58584 -0.23489,2.83946 -0.31237,5.46158 -0.17217,5.82694 0.40641,1.05908 2.39536,0.81163 2.92555,-0.36397 0.25507,-0.56556 0.61057,-3.70182 0.78999,-6.96948 l 0.32622,-5.94119 2.47024,-0.1406 2.47024,-0.1406 -0.27127,6.69526 c -0.2331,5.75298 -0.41995,6.99043 -1.3277,8.7926 -1.35447,2.68903 -3.32236,3.75946 -6.9114,3.75946 -2.32178,0 -2.83885,-0.16872 -3.96341,-1.29329 z m 13.10689,0.97388 c -0.23458,-0.387 0.89712,-17.95753 1.17448,-18.23488 0.0891,-0.0891 1.69208,-0.38042 3.56218,-0.64737 4.5346,-0.64732 6.50898,-0.27532 8.01064,1.5093 1.05551,1.25441 1.17622,1.73586 1.0103,4.02963 -0.14029,1.93965 -0.50618,3.0216 -1.4325,4.23608 l -1.24409,1.63108 1.36622,2.70646 1.36622,2.70646 -1.80022,1.19133 c -0.99011,0.65522 -1.97951,1.19132 -2.19865,1.19132 -0.21914,0 -1.07694,-1.33677 -1.90623,-2.9706 -1.01511,-1.99991 -1.777,-2.9706 -2.33165,-2.9706 -0.69139,0 -0.84571,0.45922 -0.9599,2.85634 l -0.13606,2.85635 -2.12942,0.13761 c -1.17118,0.0757 -2.22928,-0.0272 -2.35132,-0.22851 z m 18.35059,-0.37535 c -0.66639,-0.36199 -1.67104,-1.60716 -2.23254,-2.76707 -0.88619,-1.83064 -0.9882,-2.6007 -0.77304,-5.83601 0.26135,-3.92993 0.95288,-6.07742 2.65288,-8.23837 3.19252,-4.05813 9.09187,-2.6596 10.48935,2.48666 0.79211,2.917 0.29939,8.21883 -1.00873,10.85409 -1.84892,3.72478 -5.87376,5.26836 -9.12792,3.5007 z m 11.68756,-8.10278 c 0.17941,-4.83865 0.48109,-8.95616 0.67041,-9.15003 0.18931,-0.19387 2.0091,-0.66651 4.04398,-1.0503 3.28307,-0.61922 3.88309,-0.62122 5.32734,-0.0177 2.09645,0.87595 3.47172,3.12977 3.47392,5.69313 0.004,3.94488 -2.03746,6.27652 -6.46888,7.39055 -2.3089,0.58044 -2.6522,1.12412 -2.66346,4.21815 l -0.006,1.7138 h -2.35163 -2.35164 z m 11.6893,7.90891 c 0,-1.20106 3.66861,-12.2619 5.18531,-15.6337 1.07871,-2.3981 1.29605,-2.60601 3.03057,-2.89905 2.32257,-0.3924 3.84114,0.48356 4.52452,2.60989 0.38761,1.206 3.25513,15.87109 3.25513,16.64734 0,0.11428 -1.28536,0.14653 -2.85635,0.0717 l -2.85634,-0.13606 -0.14488,-1.76481 c -0.13987,-1.70367 -0.1933,-1.75512 -1.54243,-1.4853 -0.76864,0.15373 -1.65057,0.27951 -1.95982,0.27951 -0.30926,0 -0.75312,0.66839 -0.98636,1.4853 -0.40794,1.42881 -0.52343,1.49051 -3.03671,1.62236 -2.37151,0.12442 -2.61264,0.0508 -2.61264,-0.79718 z m 16.75912,0.54586 c -0.23338,-0.39137 0.55501,-17.86669 0.84535,-18.73761 0.11961,-0.35881 1.06933,-0.57127 2.55371,-0.57127 h 2.36328 l -0.32532,6.83454 -0.32533,6.83454 3.34632,0.13494 3.34631,0.13494 0.13506,2.56055 0.13504,2.56057 -2.82992,0.29578 c -3.82902,0.40021 -8.9935,0.37397 -9.2445,-0.047 z m 12.66088,-4.11313 c 0.14831,-2.45074 0.39862,-6.76953 0.55626,-9.59731 l 0.28663,-5.14142 1.43535,-0.0541 c 3.3489,-0.12634 3.93557,0.40471 5.08582,4.60366 0.4851,1.77085 0.9933,3.21668 1.12935,3.21293 0.13604,-0.004 0.97785,-1.80324 1.8707,-3.99888 1.4223,-3.49765 1.77498,-4.00988 2.8476,-4.13584 0.83112,-0.0976 1.59393,0.22593 2.37552,1.00752 1.14976,1.14975 1.15128,1.16273 1.15128,9.85532 v 8.70406 h -2.74209 -2.74208 l -0.0202,-2.62783 -0.0202,-2.62784 -0.888,1.68116 c -0.95344,1.80503 -2.49223,2.62007 -3.345,1.77171 -0.28889,-0.28741 -0.76668,-1.18188 -1.06176,-1.98772 -0.52131,-1.42365 -0.53749,-1.39073 -0.57127,1.16269 l -0.0347,2.62783 h -2.79139 -2.79139 z m 17.65254,3.56727 c 0,-1.20106 3.6686,-12.2619 5.1853,-15.6337 1.07871,-2.3981 1.29605,-2.60601 3.03057,-2.89905 2.32257,-0.3924 3.84114,0.48356 4.52452,2.60989 0.38761,1.206 3.25513,15.87109 3.25513,16.64734 0,0.11428 -1.28536,0.14653 -2.85634,0.0717 l -2.85635,-0.13606 -0.14488,-1.76481 c -0.13987,-1.70367 -0.1933,-1.75512 -1.54243,-1.4853 -0.76864,0.15373 -1.65057,0.27951 -1.95982,0.27951 -0.30926,0 -0.75312,0.66839 -0.98636,1.4853 -0.40794,1.42881 -0.52343,1.49051 -3.03671,1.62236 -2.3715,0.12442 -2.61263,0.0508 -2.61263,-0.79718 z m -57.73822,-1.5107 c -0.12679,-0.3142 -0.23051,-0.0571 -0.23051,0.57127 0,0.62839 0.10372,0.88546 0.23051,0.57126 0.12678,-0.31419 0.12678,-0.82833 0,-1.14253 z m 23.91912,-1.05526 c 0,-0.39187 -0.20901,-0.58331 -0.46448,-0.42543 -0.25545,0.15788 -0.34614,0.4785 -0.20153,0.71249 0.39177,0.6339 0.66601,0.51571 0.66601,-0.28706 z m 47.07253,0 c 0,-0.39187 -0.20901,-0.58331 -0.46447,-0.42543 -0.25546,0.15788 -0.34615,0.4785 -0.20154,0.71249 0.39177,0.6339 0.66601,0.51571 0.66601,-0.28706 z m -79.25225,-2.25475 c 1.05922,-1.61659 1.42776,-8.36933 0.52205,-9.56564 -0.64583,-0.85304 -0.6889,-0.84328 -1.45758,0.32987 -1.10496,1.68638 -1.91968,7.74952 -1.24137,9.23825 0.65509,1.43778 1.23364,1.43712 2.1769,-0.003 z m 28.05958,-3.54522 c -0.008,-1.21944 -0.88384,-2.87514 -0.90627,-1.7138 -0.007,0.37703 -0.13724,1.14825 -0.2888,1.7138 -0.2026,0.75597 -0.0799,1.02829 0.46324,1.02829 0.46359,0 0.73623,-0.38307 0.73183,-1.02829 z m 47.07253,0 c -0.008,-1.21944 -0.88384,-2.87514 -0.90627,-1.7138 -0.007,0.37703 -0.13724,1.14825 -0.2888,1.7138 -0.2026,0.75597 -0.0799,1.02829 0.46325,1.02829 0.46358,0 0.73622,-0.38307 0.73182,-1.02829 z m -60.20471,-2.0776 c 0.43988,-0.38054 0.79978,-1.27699 0.79978,-1.99211 0,-1.17274 -0.15159,-1.30021 -1.54625,-1.30021 -1.64694,0 -2.09036,0.6894 -2.10363,3.27057 -0.005,1.02954 0.15001,1.17599 1.02204,0.96384 0.56556,-0.1376 1.38819,-0.56154 1.82806,-0.94209 z m -30.58995,-0.16163 c 1.27132,-0.66917 1.66802,-1.27469 1.67676,-2.55942 0.007,-1.1257 -0.64472,-1.27915 -2.47683,-0.58258 -0.95235,0.36208 -1.17229,0.74792 -1.17229,2.05657 0,1.71588 0.37867,1.92428 1.97236,1.08543 z m 105.92225,-25.83409 c -2.98371,-6.21823 -7.09188,-11.88268 -13.38845,-18.46036 -7.92874,-8.2827 -16.44511,-13.13371 -27.32496,-15.56456 -1.13112,-0.25272 -6.99233,-0.61248 -13.02493,-0.79947 -11.84523,-0.36716 -13.03436,-0.60701 -14.20174,-2.86446 -1.81959,-3.5187 0.43977,-7.77218 5.06347,-9.53253 2.91426,-1.10952 10.32955,-2.73927 16.45051,-3.6155 10.53531,-1.50818 16.5484,-4.02112 21.54156,-9.00249 9.66465,-9.64181 8.56849,-23.14955 -3.08998,-38.07677 -5.1386,-6.57933 -6.34265,-8.58003 -6.33052,-10.51897 0.0249,-3.98284 3.08145,-4.90183 8.0169,-2.41041 3.74578,1.89086 6.66454,4.27564 12.61384,10.30612 13.82861,14.01732 20.42279,26.65794 23.76205,45.55026 0.94256,5.33274 0.79492,23.17316 -0.24397,29.47746 -1.5119,9.17479 -3.62296,17.53902 -6.51709,25.82134 -0.65875,1.88519 -1.24579,3.48487 -1.30453,3.55484 -0.0588,0.07 -0.96871,-1.66905 -2.02216,-3.8645 z m 32.60289,-29.87935 c -3.0756,-1.18327 -5.6325,-3.4402 -7.29221,-6.43671 -1.22208,-2.20639 -1.35649,-2.8566 -1.35649,-6.56219 0,-3.69964 0.13549,-4.35772 1.34772,-6.54607 1.44889,-2.61558 3.38848,-4.37542 6.63708,-6.02199 2.60258,-1.31912 7.97204,-1.43744 10.75282,-0.23692 5.98246,2.58273 9.51838,9.04453 8.38237,15.31856 -1.52614,8.42859 -10.53091,13.5402 -18.47129,10.48532 z m 36.36429,-4.65838 c -0.005,-2.72009 -1.64731,-13.42078 -2.78252,-18.12095 -4.21697,-17.45973 -12.91026,-26.84952 -28.75837,-31.06243 -4.67578,-1.24297 -8.62857,-1.79606 -16.59456,-2.32197 -5.54593,-0.36614 -7.21183,-0.64587 -9.16115,-1.53831 -4.52918,-2.07353 -7.47362,-5.52058 -6.9095,-8.08898 0.79841,-3.63511 6.33615,-8.12404 12.61989,-10.22975 1.85576,-0.62188 6.5618,-1.57114 10.45785,-2.10948 17.78325,-2.45719 23.73372,-4.82505 30.5988,-12.1761 8.03181,-8.60039 10.24614,-20.4413 5.95558,-31.84693 -1.07686,-2.86262 -3.94662,-7.34306 -7.07156,-11.04055 -3.07871,-3.64278 -4.08205,-5.93459 -4.10159,-9.36881 -0.0198,-3.49015 1.06247,-5.43213 3.79196,-6.80378 3.99373,-2.00695 8.35447,-1.56451 12.78151,1.29683 2.16126,1.39689 3.67959,3.04008 7.47151,8.08595 12.53133,16.67533 21.03725,30.63679 25.85444,42.43698 1.82128,4.4614 2.19314,5.56923 3.60493,10.73985 2.1375,7.8285 2.64526,21.7701 1.11768,30.68884 -3.15109,18.39761 -13.12979,33.16094 -33.60391,49.71643 -2.5068,2.02702 -4.71761,3.68548 -4.91291,3.68548 -0.1953,0 -0.35644,-0.87404 -0.35808,-1.94232 z m -170.9206,-4.51809 c -9.91264,-1.01499 -18.58549,-3.51015 -26.93409,-7.74887 -8.92151,-4.52961 -12.38016,-8.53968 -12.35916,-14.32963 0.0229,-6.32388 4.71931,-11.7102 10.84252,-12.43541 4.02008,-0.47612 10.78785,1.98985 16.2797,5.93178 1.22372,0.87837 5.4761,4.7932 9.44973,8.69965 3.97363,3.90644 8.93645,8.37665 11.02849,9.93379 4.53565,3.37596 10.7519,6.45727 15.42193,7.64443 l 3.39196,0.86226 -2.93494,0.52391 c -7.23565,1.29163 -16.94036,1.66002 -24.18614,0.91809 z m 51.8712,-20.68726 c -4.92436,-1.56145 -8.68358,-4.70913 -10.93241,-9.15393 -1.74905,-3.457 -2.14113,-8.54081 -0.94088,-12.19985 2.49457,-7.60489 8.92596,-12.28869 16.85714,-12.2766 5.55335,0.008 9.92727,1.85733 13.45946,5.68931 3.06081,3.32057 3.91017,5.64456 3.93193,10.75829 0.0161,3.77605 -0.14093,4.68175 -1.20521,6.95242 -2.34772,5.00891 -5.90014,8.28313 -10.75853,9.91601 -3.2215,1.08273 -7.57384,1.21414 -10.4115,0.31435 z m -35.94786,-1.19679 c -2.32754,-1.22963 -4.34402,-3.84194 -4.96555,-6.43276 -0.97359,-4.05838 1.25095,-8.69663 5.17559,-10.79133 2.25174,-1.20182 6.49106,-1.05891 8.88191,0.29942 6.70576,3.80978 6.46034,13.44381 -0.43253,16.97868 -2.26331,1.16069 -6.40907,1.13483 -8.65942,-0.054 z m -74.64976,-3.74098 c -3.65102,-1.27622 -6.2643,-4.62397 -9.02348,-11.55949 -3.58729,-9.01712 -5.27335,-16.74452 -5.68386,-26.04985 -0.64981,-14.72969 3.68868,-29.04915 13.00075,-42.90969 14.41436,-21.45505 35.78486,-32.75016 62.26107,-32.90732 8.11769,-0.0482 10.6969,0.24834 18.2806,2.10168 11.1364,2.72156 21.54446,8.82688 24.31899,14.26541 1.88797,3.70071 1.02009,9.74043 -1.83524,12.77195 -3.62097,3.84437 -7.88987,5.03088 -19.97017,5.55053 -20.77966,0.89388 -33.90388,5.90718 -45.30244,17.305 -6.35803,6.35764 -10.56349,12.96876 -14.12339,22.20251 -2.25328,5.84461 -3.84454,12.26669 -7.11817,28.72774 -0.4992,2.5102 -1.94508,5.7856 -3.3905,7.68065 -2.03395,2.66666 -7.78751,4.08858 -11.41416,2.82088 z m 184.4711,-2.43414 c -1.91988,-1.61547 -2.58361,-3.80406 -1.75071,-5.7728 1.03755,-2.45246 2.37181,-3.35255 4.96971,-3.35255 1.99154,0 2.44052,0.18572 3.60813,1.49251 1.06243,1.18905 1.33356,1.91849 1.33356,3.58757 0,1.77326 -0.23867,2.33373 -1.55385,3.64891 -2.00272,2.00272 -4.51842,2.15364 -6.60684,0.39636 z m -126.86701,-16.7244 c -5.85622,-1.37187 -11.93913,-6.57038 -14.73335,-12.59126 -1.47394,-3.17599 -1.68237,-4.08754 -1.86964,-8.17689 -0.32824,-7.16718 1.31696,-11.69716 6.01425,-16.56 4.43088,-4.58704 9.51992,-6.67275 16.28122,-6.67275 6.35907,0 10.7921,1.69894 15.00017,5.74875 5.41168,5.20817 7.78047,12.94277 6.30113,20.57453 -2.12456,10.96031 -10.84743,18.28522 -21.61039,18.14704 -1.96654,-0.0252 -4.38907,-0.23649 -5.38339,-0.46942 z m 95.49591,-29.76168 c -3.97071,-6.11771 -10.71076,-11.5674 -19.56928,-15.82284 -7.94617,-3.81717 -12.03169,-7.56894 -14.78044,-13.57299 -1.7753,-3.87776 -1.77107,-8.74354 0.0102,-11.7831 3.15103,-5.37682 11.58725,-6.83658 19.2461,-3.33025 4.67906,2.14215 10.43339,8.69839 13.27608,15.12622 1.78338,4.03256 2.92162,8.66241 3.65566,14.8697 0.70554,5.96626 0.92433,17.38375 0.33246,17.34956 -0.18852,-0.0109 -1.16539,-1.28723 -2.17082,-2.8363 z m -51.09851,-0.78632 c -2.48168,-0.47846 -5.32113,-2.64724 -6.59967,-5.04086 -1.53333,-2.87064 -1.33149,-7.26097 0.45817,-9.96532 3.44065,-5.19918 10.95952,-5.87773 15.28946,-1.37982 1.53176,1.59118 2.87578,4.7062 2.87578,6.66518 0,6.04331 -5.98806,10.88447 -12.02374,9.72082 z m 235.62175,-5.81956 c -0.74993,-0.95419 -1.71742,-2.42641 -2.14999,-3.27161 -0.90809,-1.77436 -1.57461,-6.96588 -0.80016,-6.23253 0.62047,0.58757 4.78683,10.76587 4.51722,11.03548 -0.11195,0.11195 -0.81712,-0.57716 -1.56707,-1.53134 z m -149.56159,-1.37615 c -0.6284,-0.11127 -2.60383,-0.89932 -4.38984,-1.75122 -8.11331,-3.86993 -13.30978,-13.56629 -11.68135,-21.79682 1.80386,-9.1172 9.04632,-16.26277 17.9201,-17.68036 12.04327,-1.92392 23.74392,8.30036 23.74392,20.74794 0,9.49928 -6.29168,17.75355 -15.32598,20.10669 -2.50673,0.65292 -7.63585,0.83965 -10.26685,0.37377 z m -27.19239,-45.42429 c -4.11229,-0.5926 -10.04282,-2.39877 -17.75844,-5.40843 -9.80559,-3.8249 -17.40515,-6.23398 -27.25753,-8.64071 -13.40052,-3.27345 -30.67148,-5.38297 -41.13824,-5.02471 -2.76114,0.0945 -5.02027,0.0419 -5.02027,-0.11683 0,-0.60022 10.11446,-7.3589 13.91432,-9.29782 9.64575,-4.92186 22.70856,-8.74558 36.3033,-10.62665 7.37559,-1.02054 23.92221,-0.99858 31.58805,0.042 6.83137,0.92723 16.02519,2.73433 19.0601,3.74636 5.39945,1.80053 10.84356,5.35164 13.71409,8.94548 4.7385,5.93253 4.4503,15.54883 -0.62874,20.97873 -4.3193,4.61768 -13.35337,6.76057 -22.77664,5.40265 z M 422.87145,525.53095 c 0,-0.43543 7.97856,-8.76777 10.81731,-11.29697 1.21419,-1.0818 -0.67158,1.00669 -4.1906,4.64107 -3.51901,3.63438 -6.44962,6.69365 -6.51246,6.79838 -0.0629,0.10474 -0.11425,0.0406 -0.11425,-0.14248 z m 28.33492,-12.38734 c 1.3653,-1.38247 2.58519,-2.51358 2.71087,-2.51358 0.12568,0 -0.88855,1.13111 -2.25385,2.51358 -1.3653,1.38247 -2.58519,2.51358 -2.71087,2.51358 -0.12568,0 0.88856,-1.13111 2.25385,-2.51358 z"
   id="path2-0"
   style="stroke-width:0.457015" />
                    
                    
                    
                    <path
   fill="#000000"
   d="m 454.20902,432.80191 c -11.90593,-1.24954 -21.05195,-3.6588 -30.88224,-8.1351 l -5.66479,-2.57949 v -41.08137 -41.08136 l 12.17725,-0.48025 c 15.60275,-0.61535 43.36997,-0.61535 58.9727,0 l 12.17728,0.48025 v 41.07707 41.07708 l -6.39573,2.95722 c -7.03402,3.25235 -14.27771,5.54807 -21.01455,6.66007 -5.29352,0.87376 -15.84279,1.47605 -19.36992,1.10588 z m 11.1743,-16.42846 -5.27184,-5.16182 -2.21518,1.30852 c -1.21836,0.7197 -3.9331,3.04805 -6.03277,5.1741 l -3.81758,3.86557 11.3046,-0.0122 11.30463,-0.0122 z m -14.67636,-18.41447 c -2.09965,-2.12605 -4.77899,-4.43346 -5.95405,-5.12759 l -2.13649,-1.26205 -4.25412,3.56136 c -2.33979,1.95876 -4.88076,4.26618 -5.64659,5.12761 l -1.39244,1.56625 h 11.60063 11.60064 z m 34.52103,1.60441 c -1.18076,-1.24364 -3.71403,-3.58074 -5.62951,-5.19357 -3.34688,-2.81807 -3.55144,-2.88739 -5.24535,-1.77751 -0.96947,0.63523 -3.67826,2.96033 -6.01954,5.16693 l -4.25687,4.01201 11.64904,0.0266 11.64908,0.0265 z m -34.70423,-21.55367 c -1.79229,-1.84174 -4.16656,-4.0045 -5.27617,-4.80612 -2.01635,-1.45668 -2.01881,-1.45666 -4.38565,0.0146 -1.30248,0.8099 -3.83456,2.97264 -5.62685,4.80612 l -3.25868,3.33356 h 10.90303 10.903 z m 32.89233,0 c -1.79229,-1.84174 -4.16656,-4.0045 -5.27617,-4.80612 -2.01635,-1.45668 -2.01881,-1.45666 -4.38565,0.0146 -1.30249,0.8099 -3.83456,2.97264 -5.62685,4.80612 l -3.25868,3.33356 h 10.90303 10.903 z M 448.90302,356.8477 c -2.71729,-2.59972 -5.42791,-4.72677 -6.02358,-4.72677 -0.59569,0 -3.30631,2.12705 -6.02361,4.72677 l -4.9405,4.72679 h 10.96411 10.96411 z m 32.89233,0 c -2.7173,-2.59972 -5.42792,-4.72677 -6.02358,-4.72677 -0.5957,0 -3.30632,2.12705 -6.02361,4.72677 l -4.9405,4.72679 h 10.96411 10.9641 z m -51.48366,-20.20039 c -0.43106,-0.53482 -1.82031,-3.04127 -3.08722,-5.56985 l -2.30349,-4.59744 4.2281,-1.87877 c 2.32547,-1.03333 7.3529,-2.70917 11.17207,-3.72409 9.14872,-2.43124 25.47072,-2.74662 35.07364,-0.67773 6.29496,1.35623 17.21911,5.20543 17.90006,6.30722 0.65982,1.06761 -4.95831,10.99557 -6.22228,10.99557 -0.64959,0 -3.13142,-0.79248 -5.51517,-1.7611 -12.96647,-5.2687 -29.4408,-5.43329 -43.06361,-0.43018 -6.14662,2.2574 -7.28935,2.44403 -8.1821,1.33637 z m -11.54788,-17.22854 c -1.78645,-2.82746 -2.23571,-4.41807 -2.45077,-8.67721 -0.56297,-11.14833 6.33301,-18.88248 17.6565,-19.80253 2.48834,-0.20223 6.00441,-1.07372 7.81349,-1.93676 3.69748,-1.76392 13.03354,-2.14759 15.78164,-0.64854 1.18144,0.64447 2.34269,0.58093 5.11658,-0.27997 4.54628,-1.41097 10.73469,-0.94739 14.75891,1.10561 1.92805,0.9836 4.42616,1.54878 6.89102,1.55902 10.31277,0.0429 18.0968,8.24575 18.11278,19.08753 0.005,3.90122 -0.39339,5.61702 -2.03964,8.76828 -1.12572,2.15487 -2.53936,4.01281 -3.14144,4.12876 -0.60207,0.11598 -3.02232,-0.64169 -5.37831,-1.68361 l -4.28363,-1.89439 2.64659,-2.18153 c 3.10565,-2.55993 4.04052,-5.97898 2.78269,-10.17716 -0.72974,-2.43572 -4.37524,-6.55924 -5.80223,-6.56312 -0.27066,-7.3e-4 -0.38104,1.96554 -0.24528,4.36946 0.27547,4.8779 -1.5329,11.55064 -3.31576,12.23477 -0.59918,0.23 -3.3873,0.007 -6.19582,-0.4945 l -5.10635,-0.91255 2.57164,-2.35554 c 1.41442,-1.29553 2.7928,-3.23661 3.06311,-4.31349 1.81029,-7.21283 -5.73772,-14.73764 -12.28582,-12.24807 l -2.00246,0.76134 v 8.42384 8.42386 h -4.38565 -4.38564 v -8.70698 -8.70698 l -2.83101,-0.4783 c -5.41705,-0.9152 -10.627,2.98195 -11.54445,8.63547 -0.43849,2.70208 0.85995,5.85144 3.3365,8.09266 0.84521,0.7649 1.53673,1.64533 1.53673,1.95654 0,0.31121 -1.88288,0.9567 -4.18415,1.43444 -2.30129,0.47774 -4.58314,1.02172 -5.0708,1.20887 -0.49351,0.18931 -1.62556,-1.06412 -2.55305,-2.82687 -1.30931,-2.48842 -1.67154,-4.38084 -1.6904,-8.83092 -0.0122,-3.11511 -0.30359,-5.66424 -0.6453,-5.66476 -1.20401,-0.002 -5.51154,4.90717 -5.99454,6.83157 -0.84129,3.35198 0.29829,6.88337 3.09906,9.6034 l 2.63137,2.55555 -4.14653,1.83377 c -2.28059,1.00857 -4.54828,1.83319 -5.03935,1.83246 -0.49105,-7.1e-4 -1.87715,-1.55926 -3.08023,-3.46342 z m 37.63803,-34.90939 c 0,-2.35525 -0.17396,-2.55828 -2.19282,-2.55828 -2.071,0 -2.19282,-0.16251 -2.19282,-2.92374 0,-2.76131 0.12182,-2.92375 2.19282,-2.92375 1.94917,0 2.19282,-0.24364 2.19282,-2.1928 0,-2.07099 0.16251,-2.19281 2.92376,-2.19281 2.76132,0 2.92376,0.12182 2.92376,2.19281 0,1.93795 0.24911,2.1928 2.14356,2.1928 2.3549,0 3.42711,1.80339 2.60756,4.38562 -0.32505,1.02406 -1.10594,1.46187 -2.60756,1.46187 -1.9625,0 -2.14356,0.21611 -2.14356,2.55828 0,2.49736 -0.0697,2.55827 -2.92376,2.55827 -2.85415,0 -2.92376,-0.0609 -2.92376,-2.55827 z"
   id="path4"
   style="stroke-width:0.730939" />
                    <path
   fill="#000000"
   d="m 713.29913,428.45905 c -8.73164,-1.94786 -14.87819,-5.40501 -20.85202,-11.72829 -4.21032,-4.45661 -6.74681,-8.62565 -8.71787,-14.32893 -2.06026,-5.96138 -2.02173,-5.22986 -2.02173,-38.38761 v -29.91478 h 4.93137 4.93138 v -0.77605 c 0,-0.56608 -0.16485,-0.77605 -0.60931,-0.77605 -0.92012,0 -1.61942,-1.31744 -1.51855,-2.86091 0.0478,-0.73136 -0.10027,-1.71389 -0.32905,-2.1834 -0.32518,-0.6674 -0.33785,-1.02625 -0.058,-1.64473 0.48922,-1.08142 -0.0264,-2.01 -2.36172,-4.25323 -1.24774,-1.19854 -2.11149,-1.78491 -2.62922,-1.78491 -1.37977,0 -2.52967,-2.16985 -1.78053,-3.35985 0.3368,-0.53503 -0.47636,-4.5271 -1.22416,-6.00982 -0.63275,-1.25459 -1.65152,-2.11584 -2.50284,-2.11584 -0.30131,0 -0.54784,-0.15921 -0.54784,-0.3538 0,-0.55293 0.99614,-1.17755 1.89528,-1.18842 0.75012,-0.009 0.82629,-0.12982 0.9364,-1.48436 0.1013,-1.24669 0.0109,-1.5619 -0.58538,-2.04025 -1.37665,-1.10439 -0.50292,-3.6249 1.25655,-3.6249 0.40093,0 1.07909,0.27737 1.507,0.61638 0.64412,0.51028 0.83759,0.54409 1.1241,0.1964 0.26129,-0.31709 0.23189,-0.51544 -0.12003,-0.80961 -0.6594,-0.55117 -0.57813,-2.06329 0.1503,-2.79694 1.04562,-1.05311 2.6224,-0.74459 3.19416,0.62497 0.29298,0.7018 0.46684,0.7996 1.04108,0.58565 0.6046,-0.22526 0.65017,-0.36069 0.37063,-1.10123 -0.22733,-0.60218 -0.21517,-1.09627 0.0424,-1.72252 0.67163,-1.63308 3.01455,-1.44502 3.76546,0.30226 0.56729,1.32003 1.42705,0.97978 1.23991,-0.49068 -0.17201,-1.35153 0.30915,-2.11192 1.52298,-2.40677 0.71526,-0.17376 1.01473,-0.0274 1.87115,0.91426 0.56079,0.61662 1.11379,1.12112 1.22888,1.12112 0.11511,0 0.20928,-0.42825 0.20928,-0.95166 0,-1.55261 0.49017,-2.15253 1.75878,-2.15253 0.61638,0 1.37228,0.22933 1.6798,0.50962 0.52491,0.47845 0.62199,0.44048 1.5872,-0.62084 0.80616,-0.88642 1.25624,-1.12832 2.08495,-1.12058 0.58128,0.005 1.32608,0.21496 1.65513,0.46562 0.8439,0.64288 1.02119,0.57829 1.24631,-0.45405 0.27523,-1.26205 0.87643,-1.66634 2.23496,-1.50293 1.18947,0.14308 1.91385,-0.12598 2.90623,-1.07947 0.36691,-0.35253 1.05229,-0.54324 1.95234,-0.54324 1.23608,0 1.38695,-0.0766 1.38695,-0.70399 0,-1.01061 1.42509,-2.97989 2.32017,-3.20615 0.62308,-0.15751 0.76193,-0.38447 0.76193,-1.24542 0,-0.84587 -0.12116,-1.05282 -0.61642,-1.05282 -0.45204,0 -0.61642,-0.20694 -0.61642,-0.77605 0,-0.5691 0.16438,-0.77604 0.61642,-0.77604 0.41095,0 0.61642,-0.20695 0.61642,-0.62084 0,-0.48288 0.20548,-0.62084 0.92465,-0.62084 0.71915,0 0.92463,0.13796 0.92463,0.62084 0,0.41389 0.20547,0.62084 0.61642,0.62084 0.45204,0 0.61642,0.20694 0.61642,0.77604 0,0.56911 -0.16438,0.77605 -0.61642,0.77605 -0.49117,0 -0.61642,0.20695 -0.61642,1.01841 0,0.84272 0.15689,1.07806 0.90937,1.36413 1.01163,0.38458 2.1698,2.05253 2.17158,3.1274 10e-4,0.62066 0.1556,0.69844 1.3881,0.69844 0.93205,0 1.57158,0.18596 1.94986,0.56695 0.83821,0.84421 1.6063,1.10182 3.02371,1.01409 1.03297,-0.0639 1.36944,0.0568 1.77221,0.63598 0.27345,0.39319 0.49718,0.9632 0.49718,1.26666 0,0.67112 0.30669,0.69797 1.09688,0.096 0.32905,-0.25067 1.07385,-0.4602 1.65513,-0.46563 0.82872,-0.007 1.2788,0.23416 2.08495,1.12058 0.96521,1.06132 1.06229,1.09929 1.5872,0.62084 0.30752,-0.28029 1.06342,-0.50962 1.6798,-0.50962 1.26861,0 1.75878,0.59992 1.75878,2.15253 0,0.52341 0.0942,0.95166 0.20928,0.95166 0.1151,0 0.66809,-0.5045 1.22889,-1.12112 0.85641,-0.94168 1.15588,-1.08802 1.87114,-0.91426 1.21011,0.29395 1.6949,1.05589 1.52443,2.39589 -0.11629,0.91413 -0.034,1.16568 0.42043,1.28538 0.41113,0.10827 0.64953,-0.0954 0.87532,-0.74771 0.61373,-1.77316 3.02751,-1.99341 3.70817,-0.33837 0.25756,0.62625 0.26972,1.12034 0.0424,1.72252 -0.27954,0.74054 -0.23397,0.87597 0.37063,1.10123 0.57424,0.21395 0.74811,0.11615 1.04108,-0.58565 0.57176,-1.36956 2.14855,-1.67808 3.19416,-0.62497 0.73247,0.73772 0.80217,2.07254 0.14633,2.80242 -0.41106,0.45747 -0.41365,0.57035 -0.0207,0.89887 0.36124,0.30195 0.5745,0.24976 1.08651,-0.26592 0.35038,-0.35288 0.98378,-0.6416 1.40758,-0.6416 1.79622,0 2.69347,2.5055 1.29812,3.6249 -0.59628,0.47835 -0.68672,0.79356 -0.58538,2.04025 0.11011,1.35454 0.18628,1.47529 0.9364,1.48436 0.85416,0.0104 1.89528,0.62789 1.89528,1.12422 0,0.15929 -0.44778,0.42327 -0.99507,0.58662 -1.95035,0.58215 -3.127,3.37571 -3.151,7.48109 -0.0164,2.80694 -0.53535,3.8358 -1.9347,3.8358 -0.48682,0 -1.39063,0.61956 -2.60382,1.78491 -2.2222,2.13457 -2.87519,3.23949 -2.42036,4.09545 0.44113,0.83017 0.39644,1.73817 -0.10623,2.15835 -0.29239,0.2444 -0.37575,0.78371 -0.26881,1.73923 0.17928,1.60191 -0.4932,2.94924 -1.47198,2.94924 -0.44446,0 -0.60931,0.20997 -0.60931,0.77605 v 0.77605 h 4.94684 4.94684 l -0.11178,30.18826 c -0.11021,29.76619 -0.12124,30.23035 -0.78911,33.19901 -0.75398,3.35143 -2.21606,7.72994 -3.30503,9.89758 -0.39313,0.78255 -1.55439,2.68705 -2.58058,4.23221 -5.47736,8.24741 -13.35512,13.7822 -23.37723,16.42449 -2.55916,0.67471 -3.83756,0.80897 -8.70177,0.91388 -4.86775,0.10499 -6.10772,0.0325 -8.47581,-0.49582 z m 11.10569,-8.37352 c 1.65394,-4.01217 3.76165,-9.1108 4.6838,-11.3303 0.92213,-2.2195 3.17367,-7.66735 5.0034,-12.10634 1.82975,-4.439 4.7306,-11.45835 6.44635,-15.59856 1.71575,-4.14022 4.52333,-10.91512 6.23907,-15.05533 1.71575,-4.14021 4.61679,-11.15957 6.44678,-15.59856 1.82997,-4.43899 3.96218,-9.60747 4.73823,-11.48551 0.77605,-1.87803 1.41172,-3.58922 1.41261,-3.80263 0.001,-0.30835 -7.87747,-0.38802 -38.37066,-0.38802 -21.10474,0 -38.37225,0.1036 -38.37225,0.23024 0,0.12663 1.33195,3.44424 2.95988,7.37246 1.62793,3.92821 3.6246,8.74862 4.43706,10.71202 3.414,8.25055 9.49447,22.9436 13.87387,33.52527 2.57908,6.23166 6.03998,14.61297 7.6909,18.62514 7.46224,18.13523 9.3916,22.64733 9.59059,22.42896 0.11727,-0.1287 1.56643,-3.51668 3.22037,-7.52884 z m -32.40522,-14.7703 c 0.1029,-0.27006 0.18921,-0.86373 0.1918,-1.31928 0.005,-0.98051 0.26479,-1.42277 0.99226,-1.693 0.66465,-0.24689 1.1605,0.59433 1.1605,1.9688 0,0.83171 0.0717,0.92974 0.44923,0.61418 0.28512,-0.23833 0.38801,-0.68382 0.28165,-1.21947 -0.22806,-1.14841 0.61179,-1.91777 1.09689,-1.00485 0.18134,0.34125 0.3297,1.05697 0.3297,1.59045 0,0.56901 0.12768,0.89051 0.30888,0.77773 0.17,-0.10582 0.23828,-0.77704 0.15187,-1.49282 -0.0863,-0.7153 -0.0726,-1.11852 0.0305,-0.89606 0.14238,0.30719 0.28467,0.2706 0.59157,-0.15211 0.44094,-0.60735 0.34285,-0.74 1.30541,1.76535 0.26635,0.69325 0.29835,0.6353 0.29991,-0.54323 9.7e-4,-0.7256 -0.11803,-1.31928 -0.26443,-1.31928 -0.1464,0 -0.26618,-0.26444 -0.26618,-0.58762 0,-0.3232 -0.18832,-0.66042 -0.41849,-0.74938 -0.23017,-0.089 -0.52854,-0.62773 -0.66304,-1.19728 -0.20963,-0.88764 -0.26305,-0.93513 -0.37408,-0.33249 -0.0712,0.38668 -0.2583,0.62288 -0.4157,0.52491 -0.1574,-0.098 -0.28607,-0.0651 -0.28594,0.0729 1.2e-4,0.13813 -0.58933,0.23542 -1.3099,0.2162 -1.19112,-0.0318 -1.32472,-0.11636 -1.47077,-0.93126 -0.10662,-0.5949 -0.24247,-0.76555 -0.40397,-0.50745 -0.17746,0.2836 -0.40513,0.30165 -0.84104,0.0666 -0.61563,-0.33184 -0.70813,-0.22509 -0.61383,0.70852 0.0302,0.29878 -0.0926,0.54323 -0.27272,0.54323 -0.18017,0 -0.32759,-0.13969 -0.32759,-0.31042 0,-0.17073 -0.13869,-0.31042 -0.30821,-0.31042 -0.16951,0 -0.30821,0.21849 -0.30821,0.48552 0,0.26704 -0.34673,1.249 -0.77052,2.18213 -0.94591,2.08277 -0.95412,2.40478 -0.0771,3.02096 0.90339,0.63468 1.96541,0.64856 2.20155,0.0288 z m 59.08492,-0.15959 c 0.4902,-0.49371 0.6183,-0.94285 0.53122,-1.86251 -0.0709,-0.74895 0.0156,-1.21191 0.22658,-1.21191 0.54007,0 1.15701,-1.42969 0.99204,-2.29891 -0.16229,-0.855 0.52861,-1.30228 1.78925,-1.15836 0.90606,0.10347 1.94397,-0.86995 2.16677,-2.03209 0.15102,-0.78767 0.0373,-1.14161 -0.56043,-1.74356 -0.59727,-0.60155 -0.69493,-0.90495 -0.47981,-1.49064 0.14856,-0.40446 0.20992,-0.9671 0.13638,-1.25034 -0.0838,-0.32302 0.14188,-0.64143 0.60567,-0.85426 0.69546,-0.31915 1.34342,-1.4465 1.34342,-2.33737 0,-0.7414 -1.07684,-1.71366 -1.55824,-1.4069 -0.24483,0.15601 -0.65317,0.27447 -0.90745,0.26327 -0.25427,-0.0112 0.0293,-0.25352 0.63008,-0.53848 0.99363,-0.47126 1.07457,-0.60537 0.89535,-1.48341 -0.10837,-0.53091 -0.42263,-1.28967 -0.69835,-1.68614 -0.30569,-0.43955 -0.39441,-0.85059 -0.22736,-1.05331 0.47088,-0.57144 -0.48827,-1.51483 -1.5104,-1.48557 -0.51032,0.0146 -0.99814,-0.0879 -1.08401,-0.22788 -0.0859,-0.13995 0.0851,-0.2353 0.37991,-0.2119 0.29482,0.0234 0.50412,-0.12377 0.46509,-0.32706 -0.0512,-0.26641 0.22581,-0.24473 0.99178,0.0776 0.58451,0.24597 1.47566,0.44722 1.98032,0.44722 h 0.91756 l -0.78191,-1.78491 c -0.43005,-0.9817 -0.9772,-1.89662 -1.21588,-2.03315 -0.23868,-0.13653 -0.43397,-0.45083 -0.43397,-0.69844 0,-0.66768 -0.93821,-0.54558 -1.75643,0.22861 -1.00675,0.95257 -1.56204,0.37152 -0.89201,-0.93342 0.46364,-0.90302 0.45632,-0.95631 -0.15856,-1.15287 -1.2985,-0.41508 -2.29123,-0.38388 -2.81785,0.0886 -0.48937,0.43901 -0.53937,0.43738 -0.53937,-0.0177 0,-0.27585 1.31521,-1.65947 2.92267,-3.07469 2.50243,-2.20316 3.44797,-3.34919 2.76326,-3.34919 -0.24086,0 -6.87067,5.82829 -8.06716,7.09189 -0.78184,0.82568 -1.15603,1.00917 -1.75125,0.8587 -0.67955,-0.17178 -0.74772,-0.10397 -0.66653,0.66293 0.0497,0.46984 0.24835,0.84029 0.44136,0.82322 0.8677,-0.0768 0.99183,-0.14354 0.81189,-0.43678 -0.10552,-0.17193 0.0597,-0.40384 0.36707,-0.51533 0.30739,-0.11149 0.78461,-0.42481 1.06046,-0.69625 1.85544,-1.82572 2.20398,-1.75041 1.23616,0.2671 l -0.57386,1.19627 1.16506,1.24574 c 0.64078,0.68517 1.1083,1.30293 1.03891,1.37282 -0.0693,0.0698 1.17154,1.40877 2.75761,2.97532 1.58606,1.56654 2.80102,2.84826 2.6999,2.84826 -0.10109,0 -1.47504,-1.29212 -3.05315,-2.87138 l -2.86932,-2.87138 -0.62453,0.77605 c -0.46183,0.57385 -0.55361,0.61429 -0.3523,0.15521 0.14974,-0.34146 0.26307,-0.82014 0.25184,-1.06372 -0.0223,-0.48368 -2.02377,-1.44875 -2.02377,-0.97582 0,0.15972 -0.27739,0.37907 -0.61642,0.48744 -0.37751,0.12067 -0.61642,0.46968 -0.61642,0.90045 0,1.01793 -0.27728,1.14843 -0.96609,0.45469 -0.41058,-0.41351 -0.82545,-0.54686 -1.28422,-0.41279 -1.56522,0.45745 -2.31653,2.63986 -1.27122,3.69266 0.42314,0.42617 0.42674,0.51129 0.0283,0.66532 -0.25136,0.0972 -0.62098,0.57535 -0.82141,1.06269 -0.6273,1.52529 0.28167,3.10081 1.79399,3.10952 0.60391,0.003 0.70894,0.0792 0.3912,0.2817 -0.23891,0.15232 -0.64037,0.19732 -0.89216,0.10006 -1.11603,-0.43133 -1.69965,1.99524 -0.79331,3.29848 0.4041,0.58109 0.72344,0.69743 1.66579,0.60691 0.86472,-0.0831 1.25391,0.03 1.50673,0.43776 0.25447,0.41039 0.24883,0.52977 -0.0223,0.47101 -0.19971,-0.0433 -0.50061,0.38211 -0.66864,0.94535 -0.25281,0.84732 -0.20077,1.16537 0.30151,1.84293 0.76208,1.02804 1.33354,1.23614 1.36172,0.49588 0.0196,-0.51643 0.0461,-0.51164 0.28655,0.0517 0.3544,0.83065 0.36645,1.15937 0.0349,0.953 -0.42822,-0.26656 -0.99703,0.62144 -1.02465,1.59961 -0.0337,1.19289 0.5488,2.21348 1.38389,2.42479 0.47476,0.12013 0.69947,0.42721 0.73317,1.00197 0.10058,1.71537 2.30172,2.51814 3.52538,1.28571 z m -60.73074,-0.10559 c -0.26744,-0.32455 -0.2777,-0.61449 -0.0377,-1.06606 0.18128,-0.34116 0.3296,-0.97044 0.3296,-1.39841 0,-0.42798 0.1387,-0.86447 0.30821,-0.96999 0.35912,-0.22354 0.3571,-0.23323 0.43915,2.09533 0.0645,1.82944 -0.27487,2.26671 -1.03921,1.33913 z m -1.86563,-3.55947 c 0,-0.0819 0.21833,0.12229 0.48519,0.4537 0.46784,0.58102 0.47843,0.57482 0.29621,-0.17348 -0.10394,-0.42683 -0.27107,-1.23003 -0.37141,-1.78491 -0.18296,-1.01178 -0.7182,-1.41663 -0.7182,-0.54323 0,0.25609 -0.15353,0.46563 -0.34119,0.46563 -0.18765,0 -0.2629,0.20548 -0.1672,0.45664 0.0956,0.25115 -0.0243,0.65638 -0.26671,0.9005 -0.64727,0.65192 -0.96022,2.98637 -0.44345,3.30804 0.30352,0.18893 0.5575,-0.16201 0.96904,-1.339 0.30674,-0.87728 0.55772,-1.66203 0.55772,-1.74389 z m 7.3912,-0.19252 c -0.3257,-0.39526 -0.30663,-0.44069 0.11637,-0.2772 0.27826,0.10754 0.50591,0.32027 0.50591,0.47274 0,0.39917 -0.17841,0.34312 -0.62228,-0.19554 z m 53.68074,-0.65333 c -0.0285,-0.59921 0.16029,-1.13393 0.49319,-1.39688 0.4694,-0.37077 0.49293,-0.36562 0.18138,0.0396 -0.19689,0.25609 -0.41883,0.88469 -0.49319,1.39689 l -0.1352,0.93125 z m -56.89793,-0.0942 c -0.0975,-0.15893 -0.0364,-0.37671 0.13592,-0.48395 0.17228,-0.10723 0.31324,0.0228 0.31324,0.28897 0,0.54526 -0.18495,0.62555 -0.44916,0.19498 z m 21.92119,-1.78049 c -0.41699,-0.41997 -0.1929,-3.17961 0.33389,-4.1118 0.48309,-0.85486 0.69213,-0.95465 2.00337,-0.95641 1.06831,-10e-4 1.464,-0.12286 1.464,-0.44927 0,-0.24603 -0.1387,-0.53364 -0.30821,-0.63916 -0.16952,-0.10552 -0.30821,-0.73349 -0.30821,-1.3955 0,-1.13419 0.0934,-1.25407 1.6181,-2.07702 2.12698,-1.14801 2.31261,-2.1809 0.73394,-4.08397 -1.81577,-2.18891 -1.81545,-3.41862 0.002,-6.11862 0.58067,-0.86282 1.13675,-2.07137 1.23573,-2.68566 0.16704,-1.03672 0.0447,-1.26337 -1.70472,-3.1573 -1.93376,-2.09354 -2.1843,-2.77402 -1.59558,-4.33358 0.15901,-0.42122 0.67769,-1.12876 1.15265,-1.57231 l 0.86353,-0.80646 h -1.34065 c -2.45703,0 -6.82064,2.87968 -6.82064,4.50114 0,0.4006 0.34674,1.14338 0.77053,1.65064 1.16414,1.3934 1.01071,2.30017 -0.61643,3.64303 -0.76282,0.62956 -1.38694,1.26576 -1.38694,1.41379 0,0.14801 0.55478,0.62185 1.23284,1.05296 0.76371,0.48557 1.23284,1.0186 1.23284,1.40077 0,0.56726 0.211,0.61695 2.6198,0.61695 h 2.61979 v 1.59306 c 0,1.07208 -0.20981,1.93498 -0.64156,2.63857 l -0.64156,1.0455 h -5.64701 -5.64702 l -0.12029,-1.6297 c -0.0926,-1.25427 0.0249,-1.86123 0.50963,-2.63473 0.60727,-0.96891 0.70399,-1.00515 2.69213,-1.00886 1.13424,-0.002 2.13599,-0.12403 2.22613,-0.27093 0.0901,-0.14689 -0.3871,-0.76528 -1.06054,-1.37417 -1.58362,-1.43184 -1.56538,-2.12315 0.0855,-3.23686 1.62568,-1.09676 1.80627,-2.03639 0.70539,-3.67025 -1.16215,-1.72479 -0.55951,-3.24614 1.84899,-4.66772 0.77173,-0.45551 1.35925,-0.87242 1.30557,-0.92649 -0.0536,-0.0541 -1.96701,-0.13092 -4.25183,-0.1708 -2.28483,-0.0398 -4.3276,-0.20531 -4.5395,-0.36763 -0.21189,-0.16232 -0.38526,-0.66955 -0.38526,-1.12718 0,-1.16641 2.22719,-5.6759 3.66266,-7.41597 1.46107,-1.77109 2.07826,-2.96639 2.49216,-4.8265 0.17353,-0.7799 0.70862,-2.01644 1.18906,-2.74786 0.48046,-0.73142 1.67208,-2.55104 2.64804,-4.04361 1.69902,-2.59835 4.80636,-5.84254 6.43904,-6.72258 0.71053,-0.38299 1.00087,-0.29057 3.69335,1.17565 2.87049,1.56315 2.92568,1.61465 3.11861,2.91041 0.28243,1.89683 1.45899,4.24933 2.75346,5.50549 0.61579,0.59755 1.1211,1.18218 1.12291,1.29918 0.002,0.11701 0.57935,1.84768 1.28345,3.84595 1.01836,2.89018 1.56224,3.9531 2.65939,5.19728 1.4824,1.68105 2.83319,4.26632 2.83807,5.43176 0.002,0.39537 -0.14057,0.98905 -0.31605,1.31928 -0.28956,0.54492 -0.67854,0.60043 -4.2071,0.60043 h -3.88802 l 1.26797,0.9251 c 2.76441,2.01688 2.88987,3.43888 0.421,4.7714 -0.90185,0.48676 -1.71486,1.08221 -1.8067,1.32324 -0.24519,0.64356 0.48906,1.38196 2.05948,2.07111 0.76282,0.33476 1.62966,0.82262 1.92631,1.08413 0.81277,0.71652 0.6788,2.21645 -0.28882,3.23366 l -0.82819,0.87064 h 2.06103 2.06104 v 1.68215 c 0,1.0315 -0.20862,2.05132 -0.53937,2.6366 l -0.53937,0.95446 -5.77895,0.002 -5.77896,0.002 v -1.59306 c 0,-1.07207 0.20981,-1.93497 0.64156,-2.63856 l 0.64156,-1.0455 h 2.62413 c 2.14131,0 2.78548,-0.11571 3.50106,-0.6289 1.85536,-1.3306 1.46008,-2.65254 -1.19709,-4.00348 -3.17601,-1.61474 -3.34826,-2.709 -0.66342,-4.21456 2.06981,-1.16068 2.26593,-1.86074 0.90523,-3.2312 -1.69029,-1.70239 -3.03444,-2.20114 -5.93219,-2.20114 -2.37794,0 -2.68736,0.0741 -3.8489,0.92152 -2.5107,1.83177 -2.45354,3.05975 0.26152,5.61735 1.73074,1.63038 1.8337,1.80844 1.8337,3.17099 0,1.13579 -0.18541,1.66106 -0.86951,2.46329 -2.39118,2.8041 -2.52011,4.00564 -0.67154,6.25867 1.88049,2.29198 1.5765,3.58528 -1.17165,4.98474 -1.21598,0.61921 -1.49093,1.20047 -1.03971,2.19788 0.57892,1.27971 1.9489,1.74718 4.91002,1.67547 l 2.65747,-0.0644 -0.0836,1.81852 c -0.0556,1.20929 -0.28869,2.10858 -0.69568,2.68425 l -0.61205,0.8657 h -5.47545 c -3.01148,0 -5.56789,-0.0931 -5.6809,-0.20695 z m -21.16382,-10.3473 c 0,-10.03688 -0.0124,-10.24383 -0.61643,-10.24383 -0.60371,0 -0.61642,0.20695 -0.61642,10.03688 0,5.52029 0.0925,10.13001 0.20548,10.24383 0.11301,0.11382 0.3904,0.20695 0.61642,0.20695 0.33415,0 0.41095,-1.91425 0.41095,-10.24383 z m 57.01901,9.95174 c 0,-0.16067 0.13711,-0.37745 0.30468,-0.48176 0.17471,-0.10875 0.22639,0.0158 0.12114,0.2921 -0.2049,0.53777 -0.42582,0.63616 -0.42582,0.18966 z m -0.98242,-1.16163 c 0.22249,-0.0897 0.48832,-0.0786 0.59074,0.0245 0.10243,0.10316 -0.0796,0.17651 -0.40453,0.16304 -0.35904,-0.0149 -0.43208,-0.0885 -0.18621,-0.18754 z m 1.44474,-0.40879 c 0.30682,-0.34147 0.6272,-0.62084 0.71196,-0.62084 0.0847,0 -0.0969,0.27937 -0.40375,0.62084 -0.30682,0.34146 -0.6272,0.62083 -0.71196,0.62083 -0.0847,0 0.0969,-0.27937 0.40375,-0.62083 z m -3.49575,-1.5521 c 0,-0.42683 0.07,-0.60144 0.15545,-0.38802 0.0855,0.21341 0.0855,0.56263 0,0.77604 -0.0855,0.21342 -0.15545,0.0388 -0.15545,-0.38802 z m 4.26628,-1.24168 c -0.18145,-0.34146 -0.21969,-0.62083 -0.085,-0.62083 0.13471,0 0.41815,0.27937 0.62988,0.62083 0.21324,0.34391 0.25115,0.62084 0.085,0.62084 -0.165,0 -0.44844,-0.27938 -0.62988,-0.62084 z m -2.15466,-0.77263 c -0.20948,-0.25421 -0.52529,-0.37232 -0.70178,-0.26245 -0.19248,0.11981 -0.22793,0.0482 -0.0886,-0.17885 0.17409,-0.2837 0.39849,-0.2382 0.8952,0.18154 0.36458,0.30808 0.72067,0.59655 0.7913,0.64106 0.0706,0.0445 -0.0164,0.0809 -0.19342,0.0809 -0.17701,0 -0.49323,-0.20799 -0.70271,-0.46221 z m -4.19294,-2.25395 c 0.70646,-0.8404 0.97574,-0.8739 1.24741,-0.15521 0.16344,0.43241 0.12702,0.46494 -0.17857,0.15945 -0.30506,-0.30498 -0.51452,-0.2731 -1.01994,0.15521 -0.63459,0.53776 -0.63471,0.5374 -0.0489,-0.15945 z m 4.96283,-0.0741 c -0.10798,-0.17597 0.0157,-0.22801 0.29002,-0.122 0.53395,0.20636 0.63164,0.42886 0.18831,0.42886 -0.15952,0 -0.37476,-0.13808 -0.47833,-0.30686 z m 2.56066,0.14823 c -0.10812,-0.17262 -0.0142,-0.56512 0.2088,-0.87223 0.25587,-0.35243 0.47987,-0.43704 0.60728,-0.22939 0.11104,0.18094 0.0651,0.32899 -0.10191,0.32899 -0.1671,0 -0.3519,0.24446 -0.41068,0.54324 -0.0588,0.29877 -0.19536,0.402 -0.30349,0.22939 z m -3.02044,-1.28434 c -0.008,-0.60688 -2.56766,-1.96391 -3.00977,-1.59567 -0.21189,0.17648 -0.38086,0.19902 -0.37546,0.0501 0.0145,-0.40128 0.91483,-1.53146 0.91483,-1.14842 0,0.18015 0.55642,0.7159 1.2365,1.19058 1.22032,0.85173 1.24512,0.85533 1.89412,0.27503 0.64807,-0.57949 0.65263,-0.57902 0.31486,0.0328 -0.62803,1.13761 -0.97029,1.55728 -0.97508,1.19559 z m 3.69382,-0.74829 c 0,-0.1808 0.13869,-0.2424 0.30821,-0.13688 0.16952,0.10552 0.30821,0.25344 0.30821,0.32874 0,0.0753 -0.13869,0.13689 -0.30821,0.13689 -0.16952,0 -0.30821,-0.14794 -0.30821,-0.32875 z m -0.13414,-1.19082 c -0.26771,-0.43625 0.81456,-0.7166 1.18737,-0.30758 0.24416,0.26788 0.23033,0.30734 -0.0516,0.14706 -0.21189,-0.12049 -0.38526,-0.0711 -0.38526,0.10967 0,0.4002 -0.51479,0.43508 -0.75056,0.0508 z m -7.26292,-1.27416 c 0,-0.34147 0.0532,-0.62084 0.11815,-0.62084 0.065,0 0.1907,0.27937 0.27936,0.62084 0.0887,0.34146 0.0354,0.62083 -0.11816,0.62083 -0.15364,0 -0.27935,-0.27937 -0.27935,-0.62083 z m -2.4657,-1.0606 c 0,-0.24187 -0.17337,-0.51022 -0.38526,-0.59634 -0.23015,-0.0935 -0.16811,-0.16644 0.1541,-0.18108 0.34201,-0.0155 0.53937,0.20268 0.53937,0.59634 0,0.34146 -0.0693,0.62084 -0.1541,0.62084 -0.0848,0 -0.15411,-0.1979 -0.15411,-0.43976 z m 13.86478,-2.52475 c 0.005,-0.73615 -0.54154,-1.38136 -1.17111,-1.38136 -0.36099,0 -0.35155,0.12999 0.0548,0.75461 0.45151,0.69402 0.44994,0.76256 -0.0196,0.85365 -0.46245,0.0897 -0.45759,0.15236 0.0517,0.66522 0.63217,0.63669 1.07563,0.27181 1.08427,-0.89212 z m -11.11622,0.36833 c 0.41045,-0.50902 1.5664,-1.27868 1.5664,-1.04294 0,0.0593 -0.45076,0.4401 -1.00168,0.84631 -0.61985,0.45701 -0.83512,0.53197 -0.56472,0.19663 z m 2.82357,-0.68909 c 0.0148,-0.36162 0.0878,-0.43518 0.18621,-0.18755 0.0891,0.22408 0.0781,0.49182 -0.0244,0.59497 -0.10243,0.10317 -0.17526,-0.0802 -0.16188,-0.40742 z m -1.29649,-2.53509 c -0.38337,-0.49235 -0.37247,-0.50333 0.11637,-0.11721 0.29666,0.23433 0.53937,0.47878 0.53937,0.54324 0,0.25548 -0.2531,0.091 -0.65574,-0.42603 z m 3.87381,-0.83653 c 0.32905,-0.26551 0.73359,-0.48275 0.89896,-0.48275 0.39159,0 0.21674,0.14338 -0.72671,0.59591 -0.72654,0.3485 -0.73637,0.34203 -0.17225,-0.11316 z m 1.63626,-0.68833 c 0.21189,-0.0861 0.55863,-0.0861 0.77052,0 0.2119,0.0861 0.0385,0.15656 -0.38526,0.15656 -0.42379,0 -0.59716,-0.0705 -0.38526,-0.15656 z m -60.02408,-2.57727 c 0,-0.60104 0.21274,-1.03502 0.61322,-1.25088 0.94575,-0.50977 1.62854,-2.09046 1.40993,-3.26404 -0.48896,-2.62512 -3.65721,-3.59793 -5.44392,-1.67155 -1.46971,1.58458 -1.16578,3.83459 0.6454,4.77789 0.58905,0.3068 0.8433,0.63296 0.72842,0.93448 -0.11134,0.29221 0.006,0.46318 0.31881,0.46318 0.27242,0 0.49529,0.20953 0.49529,0.46562 0,0.25869 0.27397,0.46563 0.61642,0.46563 0.47781,0 0.61643,-0.20694 0.61643,-0.92033 z m 57.63544,0.49271 c 0,-0.0645 0.24271,-0.30891 0.53936,-0.54323 0.48885,-0.38612 0.49975,-0.37514 0.11637,0.1172 -0.40263,0.51708 -0.65573,0.68152 -0.65573,0.42603 z m -58.86829,-2.24387 c 0,-0.10348 0.41609,-0.71726 0.92464,-1.36396 0.93432,-1.18812 1.18172,-1.74876 0.61642,-1.39688 -0.16952,0.10552 -0.30821,0.0439 -0.30821,-0.13689 0,-0.1808 0.20804,-0.32874 0.46231,-0.32874 0.80797,0 0.56939,1.79222 -0.35322,2.65338 -0.7834,0.73124 -1.34194,0.96977 -1.34194,0.57309 z m -2.32117,-2.31391 c -0.27401,-0.53364 -0.41861,-1.0504 -0.32135,-1.14835 0.0973,-0.098 0.17683,-0.0151 0.17683,0.18405 0,0.19919 0.27234,0.63645 0.60519,0.97168 0.33285,0.33523 0.47745,0.68901 0.32133,0.7862 -0.15611,0.0972 -0.50801,-0.25994 -0.782,-0.79358 z m 0.47191,-0.39889 c 0,-0.60146 0.83309,-1.44493 1.42715,-1.44493 0.25218,0 0.37376,-0.13808 0.27019,-0.30686 -0.11396,-0.1857 0.031,-0.22069 0.36708,-0.0886 0.47901,0.18824 0.4408,0.25931 -0.27791,0.51693 -0.46322,0.16603 -0.87385,0.5737 -0.92463,0.91795 -0.10802,0.73226 -0.86188,1.08695 -0.86188,0.40552 z m -5.23959,-63.21833 c 0.18145,-0.34146 0.20782,-0.62084 0.0587,-0.62084 -0.1492,0 -0.52231,0.27938 -0.82913,0.62084 -0.49238,0.54797 -0.49926,0.62084 -0.0587,0.62084 0.27459,0 0.6477,-0.27938 0.82914,-0.62084 z m 72.89018,-0.002 c -0.62881,-0.6998 -0.88023,-0.65169 -0.58899,0.11269 0.10687,0.28053 0.40902,0.51006 0.67143,0.51006 0.40328,0 0.39052,-0.0963 -0.0824,-0.62275 z m -70.1998,-3.7439 c 0.59213,-0.52362 1.68533,-1.2499 2.42933,-1.61395 0.744,-0.36406 1.35272,-0.8471 1.35272,-1.07345 0,-0.22635 0.42626,-0.4974 0.94725,-0.60234 0.83979,-0.16917 0.92434,-0.28265 0.74547,-1.00047 -0.11097,-0.44531 -0.24402,-0.85221 -0.29567,-0.90423 -0.0517,-0.0521 -1.0206,0.3464 -2.15322,0.88538 -2.72743,1.29787 -4.48342,2.97489 -4.48342,4.28177 0,0.53863 0.0857,0.97933 0.19048,0.97933 0.10475,0 0.67493,-0.42842 1.26706,-0.95204 z m 67.2189,-2.0571 c -0.88336,-0.92088 -5.37892,-3.41781 -5.65427,-3.14049 -0.0534,0.0537 -0.18783,0.46207 -0.2988,0.90738 -0.17887,0.71782 -0.0943,0.8313 0.74547,1.00047 0.52099,0.10494 0.95082,0.3689 0.9552,0.58659 0.004,0.21768 0.54871,0.64673 1.20965,0.95343 0.66095,0.30671 1.8016,1.02308 2.5348,1.59196 l 1.33308,1.03432 0.0996,-0.93301 c 0.0762,-0.71465 -0.14018,-1.1829 -0.92463,-2.00065 z m -54.22905,-1.5306 c 0.75431,-0.15194 0.96316,-0.35388 0.96316,-0.93126 0,-0.40549 -0.14145,-0.73724 -0.31433,-0.73724 -0.36437,0 -2.76777,1.48592 -2.76777,1.71119 0,0.20887 0.96677,0.1894 2.11894,-0.0427 z m 42.87984,0.0427 c 0,-0.22528 -2.4034,-1.7112 -2.76777,-1.7112 -0.17288,0 -0.31433,0.33951 -0.31433,0.75445 0,0.5356 0.20117,0.79349 0.69347,0.88899 1.03767,0.2013 2.38863,0.23962 2.38863,0.0678 z m -26.19792,-6.11344 c 0,-0.58952 -0.0262,-0.58791 -0.92463,0.0564 -0.50855,0.36471 -0.92464,0.69925 -0.92464,0.74343 0,0.0442 0.41609,0.0188 0.92464,-0.0564 0.66571,-0.0984 0.92463,-0.30658 0.92463,-0.74342 z m 9.24632,0.85356 c 0,-0.0738 -0.41608,-0.43248 -0.92463,-0.79719 -0.91026,-0.6528 -0.92463,-0.65346 -0.92463,-0.0427 0,0.56531 0.17937,0.66859 1.61811,0.93171 0.12713,0.0233 0.23115,-0.0181 0.23115,-0.0918 z"
   id="path5"
   style="stroke-width:0.309314" />
                    <path
   style="fill:#bf3131;fill-opacity:1;stroke:#f5deb3;stroke-width:2.92488"
   d="m 298.85512,921.46156 c -2.27502,-0.95053 -10.11657,-6.94101 -17.42568,-13.31221 -8.26916,-7.20809 -15.30063,-11.66153 -18.61381,-11.78926 -2.92849,-0.11291 -21.61163,-0.0427 -41.51807,0.1561 -40.51836,0.40454 -62.84663,-2.36093 -101.13537,-12.52618 -38.410612,-10.19762 -87.462479,-29.3393 -91.692749,-35.78159 -2.162674,-3.29352 -1.941484,-13.22333 0.325766,-14.62456 1.049724,-0.64877 17.373702,3.4844 36.275509,9.18484 36.866654,11.1183 43.964534,12.21269 45.933244,7.08233 C 113.9214,842.2483 92.221178,830.10413 48.091058,814.6429 27.842823,807.54882 28.628205,810.58445 36.280065,768.99159 47.03665,710.52254 65.852113,638.20858 88.775229,567.2356 102.4872,524.78152 107.54573,501.05378 111.68603,459.7693 c 1.82353,-18.18306 2.77483,-21.23508 10.19938,-32.72229 9.88179,-15.28906 11.82593,-20.98032 14.37697,-42.08707 1.75345,-14.50773 3.03586,-17.822 11.83279,-30.58066 6.76453,-9.81098 10.59134,-17.94105 12.17283,-25.86121 l 2.30663,-11.5517 9.1675,14.21164 c 11.32348,17.55389 47.03552,54.77094 69.27304,72.19242 l 16.61534,13.01688 -1.47372,16.20621 c -2.23976,24.63045 -2.01571,115.33666 0.37974,153.74161 2.73571,43.86012 13.84849,164.51407 16.76319,182.00173 3.4681,20.80803 11.13683,52.63358 24.80898,102.95828 10.07374,37.07956 12.02726,46.67608 9.99918,49.11978 -2.83038,3.41038 -3.43233,3.47847 -9.25276,1.04664 z"
   id="path6"
   transform="scale(0.75)" /><path
   style="fill:#bf3131;fill-opacity:1;stroke:#f5deb3;stroke-width:2.92488"
   d="m 245.13795,383.4757 c -18.43709,-11.69245 -47.18321,-42.28887 -40.95616,-43.59237 0.88234,-0.1847 4.86168,-0.41737 8.84297,-0.51705 8.02824,-0.201 7.51825,1.07878 14.84345,-37.24807 1.50494,-7.87414 3.83495,-14.67765 5.1778,-15.11891 3.64696,-1.19838 18.72463,13.28732 25.07658,24.09204 5.04088,8.57458 5.63088,11.75126 6.17813,33.26421 0.6032,23.71243 -2.41636,43.38705 -6.88313,44.84864 -1.17794,0.38544 -6.70378,-2.19238 -12.27964,-5.72849 z"
   id="path7"
   transform="scale(0.75)" /><path
   style="fill:#bf3131;fill-opacity:1;stroke:#f5deb3;stroke-width:2.92488"
   d="M 774.54147,228.39178 C 714.60526,223.47934 659.63962,196.16728 614.19442,148.7164 590.70005,124.18513 566.00929,86.486975 560.22341,66.312786 c -2.48524,-8.665543 1.39251,-13.508838 19.7286,-24.640947 l 15.51171,-9.417388 19.48472,29.373207 c 20.3807,30.723918 43.70827,57.415372 69.2258,79.208322 34.2957,29.28983 84.61961,45.95492 121.39025,40.19915 29.18749,-4.56876 67.93051,-21.24864 93.99969,-40.46931 17.51116,-12.91088 68.41892,-62.923453 82.75208,-81.296921 12.66723,-16.237953 11.14115,-16.084946 29.42394,-2.950064 5.4857,3.941087 10.5144,9.318663 11.1749,11.950172 1.7146,6.831721 -5.1546,21.043144 -23.45219,48.518863 -51.89707,77.92901 -134.67148,119.0009 -224.92144,111.60391 z"
   id="path8"
   transform="scale(0.75)" /><path
   style="fill:#bf3131;fill-opacity:1;stroke:#f5deb3;stroke-width:2.92488"
   d="m 729.04103,113.66455 c -23.00165,-4.22701 -52.00663,-12.58391 -63.08014,-18.174627 -7.23405,-3.652275 -12.7102,-9.410057 -24.5873,-25.851769 -8.40422,-11.634128 -14.91905,-21.494046 -14.47741,-21.910929 0.44164,-0.416882 15.69403,3.844873 33.8942,9.470568 18.20018,5.625695 41.68275,11.52874 52.18349,13.117877 57.93792,8.768077 166.3577,4.808526 223.92412,-8.177833 11.94238,-2.694068 22.14508,-4.470975 22.67268,-3.948682 0.5276,0.522292 -8.77931,10.45447 -20.68201,22.071506 -23.2756,22.716979 -25.12921,23.710359 -58.86892,31.549049 -20.93892,4.86471 -127.47782,6.17358 -150.97871,1.85484 z"
   id="path9"
   transform="scale(0.75)" /><path
   style="fill:#bf3131;fill-opacity:1;stroke:#f5deb3;stroke-width:2.92488"
   d="m 749.25232,158.31324 c -13.34239,-4.80218 -40.30479,-19.54114 -47.76315,-26.10966 -5.01942,-4.42056 -5.15111,-4.8823 -1.40296,-4.91928 2.27502,-0.0225 9.2552,1.35587 15.51151,3.06293 20.85785,5.69115 74.45347,8.21295 115.32667,5.4264 20.17738,-1.37561 39.47822,-2.99905 42.89075,-3.60766 6.04167,-1.0775 6.09598,-1.015 2.0682,2.38015 -7.90627,6.66444 -42.30409,21.79968 -56.26943,24.75887 -20.65599,4.37691 -56.86325,3.86656 -70.36159,-0.99175 z"
   id="path10"
   transform="scale(0.75)" /><path
   style="fill:#bf3131;fill-opacity:1;stroke:#f5deb3;stroke-width:2.92488"
   d="m 1249.9304,892.946 c 4.7486,-25.35056 7.2224,-87.9611 9.6222,-243.53073 2.104,-136.38614 3.7695,-173.45398 8.504,-189.25617 2.6873,-8.96955 23.7271,-37.95291 40.3443,-55.5763 l 10.9608,-11.62451 0.076,7.70019 c 0.2264,23.1204 -25.1833,148.5554 -41.5932,205.32456 -13.7288,47.49397 -17.0708,68.30256 -11.324,70.5078 8.2448,3.16382 11.0443,-3.96962 29.2938,-74.6442 14.4157,-55.82771 21.9221,-91.48001 32.0461,-152.20586 4.4977,-26.97855 8.7991,-50.76879 9.5586,-52.8672 2.0988,-5.79855 9.0171,-15.1904 11.1897,-15.1904 2.5031,0 2.4548,59.65239 -0.1781,220.14841 -2.7147,165.47909 -5.3334,241.87697 -8.6527,252.43563 -7.4482,23.69222 -45.6367,44.40576 -81.9582,44.45436 -8.6497,0.0116 -8.9179,-0.1814 -7.8888,-5.67558 z"
   id="path11"
   transform="scale(0.75)" /><path
   style="fill:#bf3131;fill-opacity:1;stroke:#f5deb3;stroke-width:2.92488"
   d="m 1354.7368,885.7073 c 0.036,-4.83442 0.9095,-23.21557 1.9419,-40.84698 2.7544,-47.04118 6.1197,-192.3686 8.1975,-353.99988 l 1.8255,-142.00921 11.6954,-17.75935 c 6.4325,-9.76764 12.5314,-17.75935 13.553,-17.75935 4.3602,0 13.9743,44.89112 20.3979,95.24389 4.0017,31.36869 5.5847,35.90596 17.8776,51.24215 l 7.1744,8.95063 0.036,23.10649 c 0.046,29.6576 1.9742,38.1742 24.4295,107.90275 33.953,105.43135 58.2626,186.13321 58.2626,193.41704 0,5.85353 -20.6819,12.6823 -114.7852,37.89992 -35.2387,9.4432 -38.2617,10.6901 -38.2617,15.78193 0,8.51923 18.8331,5.26223 109.01,-18.85222 53.6861,-14.35633 49.3412,-14.51714 55.7583,2.06341 4.151,10.72546 2.838,13.76452 -8.8174,20.40893 -23.1561,13.2006 -136.095,43.9997 -161.3449,43.9997 -6.8846,0 -7.014,-0.1637 -6.9504,-8.78985 z"
   id="path12"
   transform="scale(0.75)" /><path
   style="fill:#bf3131;fill-opacity:1;stroke:#f5deb3;stroke-width:2.92488"
   d="m 1257.4665,928.97309 c -14.8831,-3.86804 -12.1244,-7.83784 8.2728,-11.90464 19.3917,-3.86632 37.8207,-10.36223 57.3126,-20.20172 7.0357,-3.55159 13.258,-5.70361 13.8275,-4.78227 3.3037,5.34547 -17.1766,28.90402 -30.9044,35.54957 -9.7406,4.7153 -33.0426,5.35855 -48.5085,1.33906 z"
   id="path13"
   transform="scale(0.75)" /></svg>
