<?xml version="1.0" encoding="UTF-8" standalone="no"?>
<svg
   version="1.0"
   width="1174.000000pt"
   height="1280.000000pt"
   viewBox="0 0 1174.000000 1280.000000"
   preserveAspectRatio="xMidYMid meet"
   id="svg3"
   sodipodi:docname="LosLlanosAridaneLaPalma.svg"
   xml:space="preserve"
   inkscape:version="1.4 (86a8ad7, 2024-10-11)"
   xmlns:inkscape="http://www.inkscape.org/namespaces/inkscape"
   xmlns:sodipodi="http://sodipodi.sourceforge.net/DTD/sodipodi-0.dtd"
   xmlns="http://www.w3.org/2000/svg"
   xmlns:svg="http://www.w3.org/2000/svg"><defs
   id="defs3" /><sodipodi:namedview
   id="namedview3"
   pagecolor="#ffffff"
   bordercolor="#000000"
   borderopacity="0.25"
   inkscape:showpageshadow="2"
   inkscape:pageopacity="0.0"
   inkscape:pagecheckerboard="0"
   inkscape:deskcolor="#d1d1d1"
   inkscape:document-units="pt"
   showgrid="false"
   showguides="true"
   inkscape:zoom="0.68378906"
   inkscape:cx="794.83576"
   inkscape:cy="691.00257"
   inkscape:window-width="2560"
   inkscape:window-height="1369"
   inkscape:window-x="1912"
   inkscape:window-y="-8"
   inkscape:window-maximized="1"
   inkscape:current-layer="svg3"><inkscape:grid
     id="grid22"
     units="pt"
     originx="0"
     originy="0"
     spacingx="0.99999997"
     spacingy="1"
     empcolor="#0099e5"
     empopacity="0.30196078"
     color="#4672b5"
     opacity="0.14901961"
     empspacing="5"
     enabled="true"
     visible="false" /></sodipodi:namedview><metadata
   id="metadata1">
                Created by potrace 1.15, written by Peter Selinger 2001-2017
                </metadata><g
   transform="translate(0.000000,1280.000000) scale(0.100000,-0.100000)"
   fill="#000000"
   stroke="none"
   id="g3"><path
     d="M4425 12777 c-33 -13 -100 -45 -150 -71 -379 -205 -660 -325 -1163 -497 -373 -127 -591 -189 -982 -279 -288 -67 -505 -172 -631 -306 -96 -103 -206 -267 -284 -424 -74 -146 -225 -631 -225 -720 0 -46 -33 -122 -85 -197 -57 -80 -108 -180 -125 -243 -7 -25 -18 -91 -25 -147 -11 -93 -16 -106 -45 -140 -74 -83 -112 -218 -125 -443 -14 -224 -31 -299 -160 -715 -208 -666 -337 -1170 -379 -1470 -23 -170 -40 -450 -41 -665 0 -177 2 -198 20 -229 14 -24 33 -38 60 -47 22 -7 101 -34 175 -60 494 -172 676 -225 830 -243 47 -6 171 -15 275 -21 553 -30 550 -30 628 -94 23 -19 75 -50 115 -69 40 -20 79 -41 87 -47 31 -25 13 -119 -73 -390 -68 -214 -77 -270 -76 -495 0 -192 16 -350 44 -445 18 -61 11 -118 -29 -243 -52 -160 -59 -187 -76 -282 -33 -180 -11 -367 65 -555 23 -58 55 -138 71 -177 48 -120 48 -167 0 -310 -67 -202 -76 -331 -33 -468 25 -76 39 -266 52 -720 13 -415 25 -626 45 -738 27 -155 83 -358 110 -399 49 -73 47 -73 525 -73 550 -1 623 -10 1165 -155 339 -91 577 -141 775 -164 74 -9 172 -21 216 -27 120 -17 1068 -5 1274 16 501 50 805 136 1575 445 578 232 843 312 1155 350 140 17 267 39 295 52 28 13 47 56 66 153 21 108 18 684 -4 880 -22 184 -49 322 -82 414 -14 37 -25 85 -25 105 0 22 29 111 70 218 122 312 150 436 150 668 0 179 -9 228 -60 346 -52 118 -52 173 -5 435 53 291 63 427 71 987 l7 502 119 0 c216 0 330 38 475 159 45 37 105 78 135 89 29 12 139 40 244 61 246 51 330 72 543 133 452 128 734 261 757 354 25 99 -230 1009 -571 2044 -63 190 -121 372 -129 405 -11 44 -15 109 -14 250 2 218 -8 268 -82 385 -78 124 -99 179 -115 296 -71 508 -233 1141 -356 1388 -152 305 -399 488 -961 709 -91 37 -382 142 -645 235 -750 265 -940 346 -1193 509 -161 103 -181 113 -229 113 -22 0 -97 -21 -168 -46 -241 -86 -481 -136 -808 -170 -239 -25 -777 -25 -955 -1 -299 42 -516 107 -849 256 -62 28 -127 51 -145 50 -17 0 -58 -10 -91 -22z m135 -344 c131 -219 259 -382 441 -559 197 -191 322 -277 501 -344 298 -112 466 -120 743 -33 113 35 332 142 444 217 163 109 511 444 670 645 36 46 73 92 81 103 14 18 19 16 111 -46 110 -73 139 -105 139 -150 0 -61 -147 -315 -287 -494 -295 -378 -737 -627 -1229 -693 -146 -19 -423 -7 -573 26 -494 106 -925 402 -1218 835 -116 172 -195 331 -197 399 -1 40 3 47 41 79 37 31 228 149 245 151 4 1 43 -61 88 -136z m378 -47 c324 -106 392 -118 769 -137 172 -8 291 -8 483 0 451 21 624 40 870 101 68 16 133 30 143 30 17 0 17 -2 -3 -29 -50 -72 -271 -288 -320 -315 -66 -36 -292 -93 -423 -106 -170 -18 -717 -25 -847 -11 -214 22 -545 107 -644 165 -25 14 -65 52 -89 84 -63 82 -164 227 -182 262 -14 27 -14 30 0 30 9 0 118 -33 243 -74z m-813 -236 c43 -80 96 -171 118 -204 62 -92 202 -249 353 -397 220 -214 291 -268 472 -359 306 -153 573 -219 879 -220 460 0 900 161 1259 463 203 170 366 373 525 656 35 62 73 120 85 128 19 12 47 4 285 -86 145 -54 433 -158 639 -231 980 -346 1165 -433 1380 -649 79 -80 104 -113 147 -196 46 -89 143 -347 143 -380 0 -35 -291 -516 -338 -558 -19 -18 -20 -17 -30 42 -22 126 -94 235 -163 246 -100 17 -204 -27 -197 -84 3 -26 4 -26 93 -26 118 -1 112 1 135 -44 24 -48 35 -132 26 -195 -6 -41 -13 -50 -49 -73 -23 -14 -106 -91 -183 -170 -78 -78 -146 -143 -153 -143 -24 0 -13 80 52 390 33 153 37 184 26 201 -23 37 -85 -58 -118 -181 -30 -112 -87 -424 -111 -605 -30 -232 -47 -548 -80 -1440 -40 -1105 -60 -1613 -70 -1773 -16 -234 -49 -351 -417 -1452 -421 -1263 -610 -1736 -937 -2342 l-48 -88 40 0 c33 0 45 6 72 37 152 172 440 835 776 1783 48 135 122 340 166 455 44 116 118 316 165 445 86 236 126 330 142 330 15 0 21 -103 21 -400 0 -412 -15 -600 -80 -975 -57 -327 -108 -468 -317 -875 -179 -349 -366 -677 -633 -1115 -144 -234 -212 -357 -225 -402 -8 -31 35 -54 61 -32 78 65 633 1013 956 1634 173 334 181 343 223 260 18 -35 20 -59 19 -195 0 -129 -5 -173 -26 -266 -45 -193 -175 -510 -287 -702 -61 -104 -160 -219 -408 -474 -209 -215 -303 -325 -303 -354 0 -31 58 -4 152 73 95 77 433 425 551 568 55 66 103 121 107 123 17 7 69 -193 90 -343 37 -272 54 -759 30 -846 -13 -48 -41 -59 -166 -69 -291 -24 -630 -128 -1299 -397 -691 -279 -1160 -400 -1704 -443 -204 -15 -760 -13 -916 5 -295 33 -612 98 -1025 210 -151 41 -331 86 -400 99 -263 53 -624 86 -951 86 -179 0 -198 4 -215 47 -22 51 -51 239 -68 433 -21 242 -25 318 -37 695 -11 356 -24 478 -64 595 -31 89 -29 125 16 256 81 240 78 367 -16 584 -124 286 -124 451 1 831 30 91 54 175 54 186 0 12 -13 76 -29 144 -41 174 -55 299 -48 448 6 140 22 227 74 405 20 67 47 164 60 216 13 52 29 99 34 105 15 15 35 -15 54 -85 35 -133 246 -715 381 -1050 190 -474 688 -1350 990 -1740 119 -154 344 -383 367 -374 37 14 7 77 -96 201 -218 263 -307 387 -454 633 -316 531 -717 1335 -858 1721 -159 434 -498 1522 -551 1769 -80 372 -124 685 -128 923 -2 120 -11 225 -29 347 -60 403 -82 737 -74 1155 6 285 16 418 62 825 23 205 30 426 16 501 -28 140 -82 227 -189 306 -43 31 -96 74 -118 95 -48 46 -95 60 -145 44 -48 -16 -66 -59 -79 -196 -13 -134 -28 -220 -39 -220 -25 0 -103 114 -176 260 -72 141 -67 180 46 419 112 235 245 403 386 487 112 66 177 88 495 164 502 121 1189 344 1593 518 77 33 143 57 146 54 4 -4 41 -72 84 -152z m1273 -326 c118 -31 278 -43 552 -44 274 0 504 15 603 41 43 11 82 17 86 14 16 -17 -178 -130 -324 -188 -146 -58 -233 -72 -445 -72 -177 1 -188 2 -252 27 -163 65 -371 186 -403 235 l-17 26 51 -7 c29 -4 95 -18 149 -32z m-3590 -1191 c51 -36 118 -118 147 -178 34 -68 49 -186 41 -320 -9 -144 -24 -230 -45 -257 l-18 -21 -50 27 c-131 72 -293 216 -349 312 -35 60 -24 75 52 67 54 -6 54 -6 68 28 8 19 19 77 26 129 12 95 35 214 46 231 10 17 46 9 82 -18z m8664 -214 c41 -112 106 -460 133 -719 22 -209 27 -223 90 -289 29 -31 63 -76 76 -101 23 -43 24 -52 21 -226 -3 -217 -1 -222 142 -659 207 -630 479 -1522 480 -1574 1 -33 -2 -35 -59 -58 -117 -46 -352 -115 -682 -198 -332 -85 -405 -109 -417 -140 -22 -58 68 -49 449 46 110 28 277 72 372 100 188 54 328 89 356 89 20 0 57 -72 78 -151 17 -64 0 -88 -96 -135 -88 -42 -396 -145 -611 -204 -198 -54 -525 -120 -597 -120 l-57 0 0 33 c0 17 7 145 15 282 30 524 46 1207 66 2890 l10 900 51 80 c82 131 139 206 151 202 7 -2 19 -24 29 -48z m-9186 -81 c31 -51 88 -130 126 -175 102 -120 310 -317 427 -403 l102 -75 -5 -65 c-3 -36 -11 -126 -17 -200 -22 -251 0 -1003 41 -1400 11 -107 31 -330 45 -495 14 -165 32 -351 40 -413 23 -181 117 -568 239 -985 60 -206 60 -257 -1 -257 -45 0 -91 28 -175 108 -112 106 -120 108 -318 92 -289 -24 -526 -1 -851 80 -289 72 -680 220 -732 277 -21 24 -25 96 -7 118 23 28 48 22 514 -126 47 -15 103 -11 110 7 23 59 -88 119 -488 264 l-118 43 6 61 c14 126 92 527 146 754 70 287 223 815 314 1081 74 217 129 489 146 730 5 70 14 140 20 155 6 16 35 62 65 103 66 91 90 161 100 298 8 119 19 147 85 231 66 84 89 129 96 189 8 74 13 95 24 95 5 0 34 -42 66 -92z m8849 -410 c16 -72 -34 -3172 -55 -3404 -14 -159 -52 -232 -163 -316 -83 -64 -190 -116 -273 -133 -78 -16 -284 -34 -284 -25 0 4 7 51 15 106 35 239 54 795 65 1854 11 1072 24 1279 85 1405 40 82 338 445 366 445 36 0 8 -214 -100 -770 -85 -438 -138 -660 -207 -872 -62 -191 -104 -361 -104 -418 0 -39 4 -52 22 -64 25 -18 41 -9 63 35 26 50 135 459 239 894 67 281 107 498 167 889 41 274 52 308 117 379 33 35 39 34 47 -5z m-97 -3826 c8 -57 -133 -218 -235 -268 -75 -37 -199 -44 -329 -19 -93 18 -134 36 -134 59 0 26 30 38 112 47 116 13 289 70 431 145 67 35 129 62 137 61 8 -1 16 -12 18 -25z"
     id="path1" /><path
     d="M2403 2124 c-8 -22 16 -40 172 -123 195 -105 980 -467 1320 -609 370 -155 635 -231 708 -203 73 28 -1 71 -298 176 -403 142 -868 335 -1414 587 -415 191 -473 211 -488 172z"
     id="path3" /></g><path
   style="display:inline;fill:#4672b5;fill-opacity:1;stroke:#f5deb3;stroke-width:2.19366"
   d="m 512.21937,1260.2297 c -21.11876,-1.9206 -62.68769,-10.2066 -106.39247,-21.2072 -50.97898,-12.8316 -73.61576,-16.2497 -122.84064,-18.5484 l -31.8038,-1.4853 -2.51028,-7.6785 c -3.59299,-10.9904 -7.03852,-48.5967 -9.51954,-103.9013 -1.40299,-31.2742 -3.37906,-52.338 -5.67898,-60.5348 -3.36522,-11.9936 -3.3168,-13.2779 1.05395,-27.9541 6.77518,-22.74973 6.03102,-36.88311 -3.3765,-64.12836 -7.12576,-20.63692 -7.82955,-24.65835 -6.73183,-38.46487 0.67424,-8.48018 4.15568,-24.84128 7.73654,-36.35798 l 6.51064,-20.9394 -4.37745,-20.74012 c -3.13987,-14.87648 -4.07821,-25.7016 -3.31899,-38.28938 1.11356,-18.46275 14.33429,-72.67348 17.00402,-69.72391 0.85647,0.94629 4.77666,11.59196 8.71152,23.65711 28.48005,87.32595 63.60467,160.3542 112.89462,234.7215 19.10341,28.82261 49.96221,64.71291 55.64082,64.71291 6.3327,0 0.99625,-10.1862 -18.39174,-35.106 C 383.89668,988.78579 366.09781,960.01669 339.65382,909.68292 300.95306,836.01957 286.4856,801.65502 263.00086,727.60926 230.00065,623.56186 221.70555,586.23834 217.17232,521.40531 c -1.34978,-19.30419 -3.40686,-40.03428 -4.57128,-46.06683 -1.16443,-6.03257 -2.7172,-35.68748 -3.4506,-65.89978 -1.06006,-43.66917 -0.55371,-62.78598 2.46969,-93.2414 2.09174,-21.07047 3.45631,-48.30123 3.03239,-60.51282 -0.9064,-26.1097 -3.63035,-31.36257 -24.7798,-47.78548 -20.68984,-16.06601 -26.2735,-13.50081 -30.11428,13.83481 l -2.58654,18.40905 -4.24344,-5.24043 c -6.52637,-8.05973 -16.92066,-29.76608 -16.9296,-35.35401 -0.005,-2.74906 4.94789,-14.97972 11.00508,-27.17925 12.04944,-24.26824 26.42252,-41.34411 41.10495,-48.83452 4.88424,-2.49176 27.98201,-9.55925 51.32837,-15.70554 56.99276,-15.004239 117.39333,-34.971462 163.40228,-54.017541 1.38788,-0.574536 7.64747,8.04083 14.09404,19.398335 9.56966,16.859692 16.80373,25.632464 41.3764,50.177326 32.82065,32.78348 46.49514,41.59935 83.52378,53.84728 17.49825,5.78789 20.94179,6.16756 55.9383,6.16756 34.9287,0 38.47395,-0.3889 55.93831,-6.13618 49.93061,-16.43151 87.68208,-46.85397 116.69989,-94.043952 7.87447,-12.805856 14.57437,-21.388176 16.6968,-21.388176 4.25062,0 134.91757,47.060808 166.02787,59.796338 51.90637,21.24877 70.35567,38.72794 84.70607,80.25204 4.6697,13.51223 4.9805,12.53875 -13.9271,43.62448 -14.1322,23.23463 -16.0968,24.87323 -17.9537,14.97495 -2.0435,-10.89273 -11.10562,-20.96143 -18.86587,-20.96143 -9.8391,0 -17.49705,3.76404 -17.49705,8.60014 0,3.5991 1.74165,4.43318 10.41983,4.99003 9.93915,0.63776 10.54642,1.05602 13.16107,9.06493 1.50765,4.61797 2.10728,10.54086 1.33253,13.16195 -1.3869,4.69178 -35.29193,37.89476 -36.9762,36.21051 -0.47543,-0.4755 1.52205,-13.06804 4.43895,-27.98343 2.9169,-14.91538 4.80675,-27.9225 4.1997,-28.90472 -2.2074,-3.57167 -7.2816,0.7504 -10.59083,9.02111 -3.90277,9.75389 -11.1519,45.68242 -14.37847,71.26364 -3.03188,24.037 -5.96318,81.11025 -10.02728,195.23565 -1.89037,53.08655 -4.3368,107.5633 -5.43637,121.05946 -2.40083,29.46678 -6.04388,42.40871 -42.492,150.95426 -40.4856,120.5697 -52.68015,152.01487 -80.60423,207.84913 -16.81867,33.6292 -17.1339,34.5502 -11.8263,34.5502 14.71913,0 38.3037,-51.45593 96.52335,-210.59131 16.55258,-45.2442 31.49378,-84.73006 33.20265,-87.74633 2.7294,-4.81765 2.9961,0.78089 2.19435,46.06681 -0.93007,52.53592 -4.68172,84.02655 -13.58977,114.07027 -7.5243,25.3767 -38.34218,84.66848 -83.09963,159.87886 -30.15787,50.6771 -31.49595,53.7764 -22.67122,52.5103 3.26902,-0.4691 8.3814,-5.9985 15.45075,-16.7112 13.59697,-20.6045 55.06432,-92.8099 78.36232,-136.44918 9.984,-18.70088 19.16738,-35.28233 20.40743,-36.84758 4.0263,-5.082 5.86335,1.70978 5.8989,21.80933 0.0375,21.26175 -3.8979,36.55732 -17.43998,67.78013 -11.19375,25.8085 -17.8425,34.9465 -53.2053,73.1249 -28.9452,31.2498 -34.11817,38.6576 -26.99527,38.6576 5.24512,0 31.32562,-23.8025 54.89782,-50.1027 12.0651,-13.4615 22.5978,-24.4768 23.406,-24.4785 3.1677,-0.01 8.34668,31.4103 10.75838,65.2629 2.53897,35.6393 1.79947,49.5263 -2.7885,52.3618 -1.35075,0.8348 -10.93718,2.791 -21.30323,4.3471 -24.36007,3.6568 -50.62455,11.364 -90.14122,26.4515 -108.83259,41.5525 -137.97113,49.9405 -192.72599,55.4795 -21.1828,2.1428 -75.78126,2.5776 -95.74015,0.7625 z m -47.61785,-101.2079 c -0.38556,-2.002 -6.71183,-5.7636 -14.91488,-8.8684 -56.59855,-21.422 -102.60716,-40.2427 -147.46357,-60.3225 -28.62906,-12.8157 -54.12047,-23.3013 -56.64756,-23.3013 -18.23383,0 21.25005,21.8547 111.9909,61.988 50.28134,22.2387 76.20381,31.9123 92.13368,34.3817 11.81434,1.8313 15.80107,0.794 14.90143,-3.8775 z"
   id="path81"
   sodipodi:nodetypes="ssscssssssscsssssssssssssssscscsssssssssssssssssssssssssssssssssssssssssssscsssssssssssss" />
                    
                    
                    
                    <path
   fill="#000000"
   d="m 454.20902,432.80191 c -11.90593,-1.24954 -21.05195,-3.6588 -30.88224,-8.1351 l -5.66479,-2.57949 v -41.08137 -41.08136 l 12.17725,-0.48025 c 15.60275,-0.61535 43.36997,-0.61535 58.9727,0 l 12.17728,0.48025 v 41.07707 41.07708 l -6.39573,2.95722 c -7.03402,3.25235 -14.27771,5.54807 -21.01455,6.66007 -5.29352,0.87376 -15.84279,1.47605 -19.36992,1.10588 z m 11.1743,-16.42846 -5.27184,-5.16182 -2.21518,1.30852 c -1.21836,0.7197 -3.9331,3.04805 -6.03277,5.1741 l -3.81758,3.86557 11.3046,-0.0122 11.30463,-0.0122 z m -14.67636,-18.41447 c -2.09965,-2.12605 -4.77899,-4.43346 -5.95405,-5.12759 l -2.13649,-1.26205 -4.25412,3.56136 c -2.33979,1.95876 -4.88076,4.26618 -5.64659,5.12761 l -1.39244,1.56625 h 11.60063 11.60064 z m 34.52103,1.60441 c -1.18076,-1.24364 -3.71403,-3.58074 -5.62951,-5.19357 -3.34688,-2.81807 -3.55144,-2.88739 -5.24535,-1.77751 -0.96947,0.63523 -3.67826,2.96033 -6.01954,5.16693 l -4.25687,4.01201 11.64904,0.0266 11.64908,0.0265 z m -34.70423,-21.55367 c -1.79229,-1.84174 -4.16656,-4.0045 -5.27617,-4.80612 -2.01635,-1.45668 -2.01881,-1.45666 -4.38565,0.0146 -1.30248,0.8099 -3.83456,2.97264 -5.62685,4.80612 l -3.25868,3.33356 h 10.90303 10.903 z m 32.89233,0 c -1.79229,-1.84174 -4.16656,-4.0045 -5.27617,-4.80612 -2.01635,-1.45668 -2.01881,-1.45666 -4.38565,0.0146 -1.30249,0.8099 -3.83456,2.97264 -5.62685,4.80612 l -3.25868,3.33356 h 10.90303 10.903 z M 448.90302,356.8477 c -2.71729,-2.59972 -5.42791,-4.72677 -6.02358,-4.72677 -0.59569,0 -3.30631,2.12705 -6.02361,4.72677 l -4.9405,4.72679 h 10.96411 10.96411 z m 32.89233,0 c -2.7173,-2.59972 -5.42792,-4.72677 -6.02358,-4.72677 -0.5957,0 -3.30632,2.12705 -6.02361,4.72677 l -4.9405,4.72679 h 10.96411 10.9641 z m -51.48366,-20.20039 c -0.43106,-0.53482 -1.82031,-3.04127 -3.08722,-5.56985 l -2.30349,-4.59744 4.2281,-1.87877 c 2.32547,-1.03333 7.3529,-2.70917 11.17207,-3.72409 9.14872,-2.43124 25.47072,-2.74662 35.07364,-0.67773 6.29496,1.35623 17.21911,5.20543 17.90006,6.30722 0.65982,1.06761 -4.95831,10.99557 -6.22228,10.99557 -0.64959,0 -3.13142,-0.79248 -5.51517,-1.7611 -12.96647,-5.2687 -29.4408,-5.43329 -43.06361,-0.43018 -6.14662,2.2574 -7.28935,2.44403 -8.1821,1.33637 z m -11.54788,-17.22854 c -1.78645,-2.82746 -2.23571,-4.41807 -2.45077,-8.67721 -0.56297,-11.14833 6.33301,-18.88248 17.6565,-19.80253 2.48834,-0.20223 6.00441,-1.07372 7.81349,-1.93676 3.69748,-1.76392 13.03354,-2.14759 15.78164,-0.64854 1.18144,0.64447 2.34269,0.58093 5.11658,-0.27997 4.54628,-1.41097 10.73469,-0.94739 14.75891,1.10561 1.92805,0.9836 4.42616,1.54878 6.89102,1.55902 10.31277,0.0429 18.0968,8.24575 18.11278,19.08753 0.005,3.90122 -0.39339,5.61702 -2.03964,8.76828 -1.12572,2.15487 -2.53936,4.01281 -3.14144,4.12876 -0.60207,0.11598 -3.02232,-0.64169 -5.37831,-1.68361 l -4.28363,-1.89439 2.64659,-2.18153 c 3.10565,-2.55993 4.04052,-5.97898 2.78269,-10.17716 -0.72974,-2.43572 -4.37524,-6.55924 -5.80223,-6.56312 -0.27066,-7.3e-4 -0.38104,1.96554 -0.24528,4.36946 0.27547,4.8779 -1.5329,11.55064 -3.31576,12.23477 -0.59918,0.23 -3.3873,0.007 -6.19582,-0.4945 l -5.10635,-0.91255 2.57164,-2.35554 c 1.41442,-1.29553 2.7928,-3.23661 3.06311,-4.31349 1.81029,-7.21283 -5.73772,-14.73764 -12.28582,-12.24807 l -2.00246,0.76134 v 8.42384 8.42386 h -4.38565 -4.38564 v -8.70698 -8.70698 l -2.83101,-0.4783 c -5.41705,-0.9152 -10.627,2.98195 -11.54445,8.63547 -0.43849,2.70208 0.85995,5.85144 3.3365,8.09266 0.84521,0.7649 1.53673,1.64533 1.53673,1.95654 0,0.31121 -1.88288,0.9567 -4.18415,1.43444 -2.30129,0.47774 -4.58314,1.02172 -5.0708,1.20887 -0.49351,0.18931 -1.62556,-1.06412 -2.55305,-2.82687 -1.30931,-2.48842 -1.67154,-4.38084 -1.6904,-8.83092 -0.0122,-3.11511 -0.30359,-5.66424 -0.6453,-5.66476 -1.20401,-0.002 -5.51154,4.90717 -5.99454,6.83157 -0.84129,3.35198 0.29829,6.88337 3.09906,9.6034 l 2.63137,2.55555 -4.14653,1.83377 c -2.28059,1.00857 -4.54828,1.83319 -5.03935,1.83246 -0.49105,-7.1e-4 -1.87715,-1.55926 -3.08023,-3.46342 z m 37.63803,-34.90939 c 0,-2.35525 -0.17396,-2.55828 -2.19282,-2.55828 -2.071,0 -2.19282,-0.16251 -2.19282,-2.92374 0,-2.76131 0.12182,-2.92375 2.19282,-2.92375 1.94917,0 2.19282,-0.24364 2.19282,-2.1928 0,-2.07099 0.16251,-2.19281 2.92376,-2.19281 2.76132,0 2.92376,0.12182 2.92376,2.19281 0,1.93795 0.24911,2.1928 2.14356,2.1928 2.3549,0 3.42711,1.80339 2.60756,4.38562 -0.32505,1.02406 -1.10594,1.46187 -2.60756,1.46187 -1.9625,0 -2.14356,0.21611 -2.14356,2.55828 0,2.49736 -0.0697,2.55827 -2.92376,2.55827 -2.85415,0 -2.92376,-0.0609 -2.92376,-2.55827 z"
   id="path4"
   style="stroke-width:0.730939" />
                    <path
   fill="#000000"
   d="m 740.16052,427.55865 c -1.06164,-2.09295 -1.90289,-4.70757 -1.90289,-5.91421 0,-0.57843 -0.17287,-1.05169 -0.38414,-1.05169 -0.21129,0 -0.75845,-0.4478 -1.21593,-0.99512 -2.19492,-2.62596 -3.50521,-3.46156 -5.69055,-3.62902 -4.41288,-0.33815 -10.24279,-3.21892 -14.57204,-7.2006 -0.32578,-0.29962 -1.04834,-0.33725 -3.18885,-0.16611 -1.01527,0.0812 -1.77159,1.34301 -1.77159,2.95573 0,1.74878 -0.41352,1.88378 -2.06262,0.67338 -1.34234,-0.98525 -2.71409,-4.12406 -2.71409,-6.21031 0,-1.10534 0.3192,-1.82904 1.29558,-2.93745 l 1.29558,-1.47076 -1.29656,-2.04454 c -0.7131,-1.1245 -1.98331,-3.45992 -2.82265,-5.18982 -2.27089,-4.68022 -3.91388,-6.62324 -6.44253,-7.61902 -4.60771,-1.81447 -9.99065,-0.88266 -12.06805,2.08903 -1.09201,1.5621 -1.13779,2.30814 -0.19067,3.10663 1.19029,1.00353 1.18572,2.61477 -0.0117,4.05582 -1.54779,1.86304 -1.61337,2.62093 -0.45179,5.22194 3.27664,7.33704 9.17798,9.94861 13.02573,5.76439 1.83461,-1.99505 2.52591,-3.9593 2.511,-7.13473 -0.0157,-3.32952 -1.14595,-4.92163 -3.49415,-4.92163 -0.79607,0 -0.9295,0.14655 -0.70452,0.77399 1.4068,3.92318 0.93089,6.79114 -1.37416,8.28134 -1.21135,0.78313 -1.53296,0.81636 -3.11906,0.32233 -2.81185,-0.87583 -5.10268,-4.77791 -4.67607,-7.96505 0.33633,-2.51282 0.54872,-3.156 1.48397,-4.49386 1.49176,-2.13395 3.41585,-3.11065 6.12793,-3.11065 2.98659,0 5.08659,1.26514 6.9143,4.1655 4.06026,6.44318 2.38803,15.67626 -3.55283,19.61661 -1.6218,1.07568 -2.1982,1.20666 -5.30996,1.20666 -3.00591,0 -3.77818,-0.16226 -5.56097,-1.16839 -1.13867,-0.64261 -2.814,-2.0509 -3.72299,-3.12953 -0.90896,-1.07863 -1.93235,-1.91174 -2.27416,-1.85135 -1.19539,0.21118 -2.753,-0.79002 -3.30642,-2.12532 -0.30586,-0.73801 -0.47341,-1.50295 -0.37231,-1.69985 0.10101,-0.19691 0.0157,-0.48302 -0.18961,-0.63581 -0.68256,-0.50774 -0.38682,-0.99635 0.77184,-1.27528 1.03416,-0.24896 1.12097,-0.39378 0.89488,-1.49269 -0.13774,-0.66935 -0.34142,-3.0392 -0.45269,-5.26635 -0.19799,-3.96254 -0.17412,-4.11995 1.1138,-7.34305 1.03293,-2.58497 1.73384,-3.68088 3.2574,-5.09316 3.13358,-2.90467 5.36948,-3.75748 9.29008,-3.54331 3.10808,0.16979 4.06858,0.49572 7.25693,2.46257 0.15157,0.0935 0.27558,-0.0537 0.27558,-0.32705 0,-0.27338 0.35096,-1.06843 0.77992,-1.76681 l 0.77992,-1.26975 -0.9956,-1.25544 c -0.54758,-0.69048 -1.3721,-1.95495 -1.83228,-2.8099 -1.43338,-2.66317 -1.8756,-2.90489 -2.89415,-1.582 -0.48539,0.63041 -1.07432,1.14621 -1.30878,1.14621 -0.61577,0 -1.14294,-1.96051 -1.14294,-4.25054 0,-1.53564 0.21139,-2.23602 0.93933,-3.11223 0.54619,-0.65745 1.2106,-1.04527 1.58746,-0.92664 0.48507,0.15268 0.84934,-0.32388 1.44779,-1.8941 2.00047,-5.24875 7.42071,-4.46815 7.80388,1.12389 0.18907,2.75936 -0.049,4.18526 -0.89691,5.37177 -0.75184,1.0521 -0.96024,1.14293 -1.46509,0.63861 -0.81682,-0.81599 -1.70024,-0.28965 -1.70024,1.013 0,1.38482 1.58459,2.92079 3.01323,2.92079 2.60225,0 3.80563,-2.26637 3.47389,-6.5425 -0.28638,-3.69133 -1.51034,-6.77428 -3.96994,-9.99958 -1.9083,-2.50237 -2.04651,-2.59766 -3.34285,-2.30495 -1.16847,0.26387 -1.4037,0.52844 -1.73098,1.94689 -0.20833,0.90283 -0.37969,1.98981 -0.38081,2.4155 -0.003,1.12305 -2.03953,0.99864 -3.8493,-0.23514 -2.81994,-1.92249 -3.89326,-5.48963 -2.50373,-8.32106 0.34672,-0.70648 0.74239,-1.28451 0.87928,-1.28451 0.64403,0 0.62363,-1.66362 -0.0579,-4.72498 -0.41007,-1.84189 -0.66297,-3.44831 -0.562,-3.56983 0.10086,-0.12148 0.85148,-0.24204 1.66784,-0.26782 0.81636,-0.0258 1.48429,-0.0796 1.48429,-0.11971 0,-0.0401 -0.63741,-1.33709 -1.41649,-2.8823 -1.58422,-3.14217 -3.91492,-9.28696 -4.67528,-12.32613 -0.70271,-2.80878 -1.23166,-3.48741 -2.81107,-3.60665 l -1.37031,-0.10349 0.21206,-1.78991 c 0.33974,-2.86769 1.22163,-3.99969 3.12409,-4.0101 1.4661,-0.007 1.77138,-0.21782 3.43475,-2.36059 2.36637,-3.04835 3.2559,-3.55971 6.70636,-3.85533 3.88254,-0.33264 4.28781,-0.46053 5.56777,-1.75691 l 1.1123,-1.12656 0.5695,1.32561 c 0.31323,0.72909 0.56951,1.7173 0.56951,2.19604 0,0.47874 0.66139,1.69901 1.46975,2.71173 l 1.46976,1.8413 v -1.58407 -1.58407 h 4.22556 4.22555 v -1.12766 c 0,-0.62021 -0.24702,-1.70262 -0.54891,-2.40534 -0.3019,-0.70272 -0.54076,-1.73773 -0.53082,-2.30001 0.0395,-2.22965 -0.57579,-3.53754 -3.12838,-6.65015 -2.03698,-2.48389 -2.81155,-3.79174 -3.30526,-5.5809 -0.4729,-1.71379 -0.89336,-2.45051 -1.57712,-2.76342 -0.51277,-0.23466 -1.01172,-0.33106 -1.1088,-0.21421 -0.0971,0.11691 -0.4003,-0.0569 -0.67387,-0.38622 -0.41819,-0.50335 -0.40677,-0.81721 0.0717,-1.97162 0.54877,-1.32408 1.64175,-2.37645 2.24365,-2.16028 0.15974,0.0574 0.74094,-0.25803 1.29154,-0.70091 l 1.00107,-0.80524 1.24695,1.59145 c 0.68582,0.87529 1.53226,1.59144 1.88098,1.59144 0.34872,0 0.71514,0.37338 0.8143,0.82976 0.0993,0.45637 0.57411,1.08346 1.05547,1.39355 0.8475,0.54595 0.86961,0.69467 0.69901,4.69873 -0.16756,3.93199 -0.13949,4.13494 0.57079,4.13494 0.76318,0 0.80563,-0.72884 0.18046,-3.09975 -0.12769,-0.48442 -0.12433,-1.29015 0.007,-1.79052 0.18714,-0.70968 0.49551,-0.87991 1.40215,-0.77399 0.93512,0.10925 1.28857,0.45987 1.80868,1.79431 0.595,1.5266 1.58122,2.14808 2.20923,1.39217 0.12171,-0.14655 -0.86273,-1.53327 -2.18767,-3.08166 l -2.40897,-2.81528 0.73305,-1.7834 c 0.40318,-0.98089 0.58846,-1.78342 0.41172,-1.78342 -0.69244,0 -0.27262,-0.80339 0.54962,-1.05178 0.77485,-0.23409 0.85217,-0.45903 0.70063,-2.0382 -0.12404,-1.29183 -0.036,-1.77592 0.32321,-1.77811 0.27146,-0.001 0.875,-0.67735 1.34121,-1.50153 0.82998,-1.46726 0.87049,-1.48477 1.94311,-0.84069 0.60249,0.36178 1.33715,0.54614 1.63255,0.40969 0.66813,-0.30859 1.70035,0.13224 1.45023,0.6194 -0.10173,0.19816 0.0325,0.6251 0.29825,0.94878 0.26578,0.32369 0.60188,0.96529 0.7469,1.4258 0.14503,0.46052 0.35244,0.73044 0.46092,0.59987 0.31699,-0.38154 2.6158,2.45441 2.81375,3.47119 0.0994,0.51032 -0.0395,1.40594 -0.30849,1.99026 -0.79783,1.73297 -0.65364,2.29771 0.37879,1.48345 0.69541,-0.54844 1.06267,-0.59637 1.65348,-0.21577 0.41772,0.26911 0.77838,0.63154 0.80141,0.80543 0.023,0.17387 0.0969,0.87999 0.16406,1.56913 0.15282,1.56759 0.78067,2.50638 1.67623,2.50638 0.95375,0 0.86372,-0.74789 -0.3137,-2.60598 -0.55198,-0.87108 -1.00669,-1.78548 -1.01046,-2.03201 -0.004,-0.24652 -0.48325,-1.19782 -1.06553,-2.114 l -1.05866,-1.66579 1.24239,-1.42928 c 0.68331,-0.78611 1.19485,-1.60132 1.13675,-1.81158 -0.058,-0.21026 0.13934,-0.60871 0.43874,-0.88544 0.29941,-0.27673 0.59494,-1.18193 0.65678,-2.01157 0.0831,-1.11412 0.3044,-1.54164 0.84684,-1.63555 0.4039,-0.0699 1.00913,-0.53554 1.34493,-1.03468 0.81756,-1.21528 1.99018,-1.14422 3.31846,0.2011 0.60204,0.60976 1.24712,0.99519 1.43354,0.85652 0.41954,-0.3121 0.84848,1.11013 1.04131,3.45274 0.015,0.18244 0.28508,0.33171 0.60013,0.33171 0.31508,0 0.47127,0.19786 0.3471,0.43968 -0.12418,0.24181 0.19316,1.10075 0.70515,1.90872 0.9998,1.57778 1.01283,2.97645 0.0398,4.27061 -0.9113,1.21209 -0.70003,1.9131 0.33139,1.09963 1.5223,-1.2006 3.00049,0.37241 2.61488,2.78263 -0.15142,0.94639 0.60303,2.32482 1.27244,2.32482 0.591,0 0.82924,-0.97991 0.32873,-1.35224 -0.27265,-0.20283 -0.38234,-0.50526 -0.24376,-0.67207 0.13862,-0.1668 0.0102,-0.71947 -0.28622,-1.22815 -0.29601,-0.50868 -0.53819,-1.25426 -0.53819,-1.65687 0,-0.40259 -0.22283,-0.9546 -0.49519,-1.22667 -0.27237,-0.27208 -0.51045,-1.13916 -0.52905,-1.92683 -0.0258,-1.0876 0.26071,-1.75688 1.19042,-2.78191 0.67333,-0.74237 1.40744,-1.27626 1.63135,-1.18643 0.22391,0.0898 0.40711,-0.25129 0.40711,-0.75807 0,-0.50677 0.1542,-0.92141 0.34268,-0.92141 0.18846,0 0.44763,-0.39805 0.57592,-0.88456 0.12899,-0.48914 0.55595,-0.88456 0.95516,-0.88456 0.39705,0 1.28324,-0.2823 1.96932,-0.62736 1.23217,-0.61969 1.25783,-0.60893 2.10098,0.88154 0.46946,0.82989 1.06026,1.51025 1.31287,1.51192 0.29107,10e-4 0.4593,0.65609 0.4593,1.78602 0,1.18614 0.18668,1.86922 0.55766,2.04058 0.30671,0.14167 0.52937,0.48372 0.49476,0.76011 -0.0347,0.27638 0.2105,1.24247 0.54466,2.14685 0.81028,2.19299 0.7849,2.37301 -0.49476,3.51182 -1.28576,1.14422 -1.50352,2.036 -0.25713,1.05299 0.75451,-0.59507 0.9319,-0.59348 1.65347,0.0149 0.95208,0.80268 1.04305,2.05467 0.22121,3.0439 -0.5378,0.64735 -0.53709,0.79846 0.009,1.80071 0.87228,1.60241 1.18169,1.35135 1.24082,-1.00678 0.029,-1.15545 0.12972,-2.54444 0.22382,-3.08665 0.094,-0.5422 0.0159,-1.10127 -0.17374,-1.24237 -0.6981,-0.51936 -0.3478,-2.26434 0.57378,-2.85801 0.50523,-0.32546 0.91859,-0.95618 0.91859,-1.40157 0,-0.57676 0.27427,-0.80983 0.953,-0.80983 0.64397,0 1.01531,-0.28682 1.14517,-0.88456 0.10567,-0.4865 0.4127,-0.88455 0.68223,-0.88455 0.26953,0 0.64326,-0.32953 0.83051,-0.7323 0.31008,-0.66693 0.43843,-0.64835 1.43764,0.20806 0.60343,0.51722 1.18833,0.83062 1.29979,0.69647 0.39043,-0.46995 1.68474,0.72012 2.23981,2.05942 0.72765,1.75571 0.46377,2.52069 -0.79416,2.30209 -0.82583,-0.14345 -1.10116,0.0783 -1.60869,1.29536 -0.33678,0.80768 -0.70678,1.99095 -0.82222,2.62951 -0.11543,0.63855 -1.44337,2.70969 -2.95097,4.60252 -2.31463,2.9061 -2.8053,3.792 -3.15374,5.69432 -0.22695,1.23904 -0.5842,2.84988 -0.79388,3.57964 -0.8941,3.1118 -0.92719,3.08259 3.6483,3.22102 l 4.13368,0.12502 v 1.57336 1.57335 l 1.65349,-1.89683 c 1.20877,-1.3867 1.65347,-2.23788 1.65347,-3.16489 0,-0.69745 0.18014,-1.67322 0.4003,-2.1684 0.39393,-0.88595 0.41641,-0.88177 1.40901,0.26291 0.87208,1.00567 1.55749,1.24481 5.06029,1.76555 2.22837,0.33127 4.38986,0.82022 4.8033,1.08656 0.41344,0.26633 1.58497,1.60956 2.6034,2.98494 1.73065,2.33723 1.93638,2.48415 3.14727,2.24764 1.67724,-0.32763 2.70987,0.65343 3.16242,3.00444 0.50779,2.63801 0.4601,2.81915 -0.73151,2.77837 -1.08748,-0.0371 -2.21737,0.72547 -2.21737,1.49675 0,1.19959 -2.89556,9.5163 -4.48743,12.88894 -1.01132,2.14264 -1.77948,3.95636 -1.70704,4.03053 0.0724,0.0742 0.62775,0.33065 1.23403,0.56997 1.02187,0.40334 1.09458,0.57232 0.99621,2.3154 -0.0583,1.03417 -0.31575,2.61269 -0.57196,3.50784 -0.43585,1.52274 -0.39944,1.73777 0.56541,3.33938 1.09312,1.81453 1.36823,4.43646 0.6906,6.58176 -0.68175,2.15836 -4.85707,4.19079 -6.08642,2.96271 -0.30486,-0.30453 -0.55428,-1.19506 -0.55428,-1.97897 0,-1.59491 -0.93836,-2.88921 -2.09467,-2.88921 -0.88787,0 -4.22187,3.9928 -5.61427,6.72365 -1.99361,3.90997 -2.14083,10.04795 -0.27869,11.6179 1.77621,1.4975 4.68636,0.26017 5.20178,-2.2117 0.35079,-1.68227 -0.0689,-2.1455 -1.16244,-1.28305 -0.90523,0.71395 -0.96692,0.70235 -1.63603,-0.30768 -1.49638,-2.25875 -1.8079,-4.9806 -0.87698,-7.6624 1.29344,-3.72613 5.45149,-3.17018 7.28282,0.97374 0.45688,1.03382 1.08356,1.87968 1.39258,1.87968 1.82321,0 3.18323,3.3319 2.64137,6.47106 -0.32633,1.89051 -1.33054,2.54106 -1.65032,1.06911 -0.1134,-0.5219 -0.50022,-0.90598 -0.91245,-0.90598 -0.80412,0 -2.66013,1.88418 -2.66013,2.7005 0,0.29223 -0.66282,1.26787 -1.47289,2.16807 l -1.47291,1.63672 0.73803,1.12933 c 0.40589,0.62114 0.73801,1.36331 0.73801,1.64929 0,0.28596 0.12404,0.44345 0.27558,0.34995 3.66159,-2.25878 3.92049,-2.33625 7.80809,-2.33625 3.51671,0 4.04166,0.11189 5.93213,1.26518 5.64678,3.44465 8.55606,10.50123 7.24026,17.56153 -0.60685,3.25611 -0.53788,3.95066 0.39225,3.95066 0.98234,0 1.07698,0.32953 0.67299,2.34326 -0.47855,2.38543 -0.88875,2.88355 -2.55427,3.10167 -1.00692,0.1318 -1.89102,0.76155 -3.40005,2.42163 -2.63045,2.89374 -5.20242,4.08341 -8.75639,4.05027 -3.24769,-0.0304 -5.18641,-0.91341 -7.67927,-3.49806 -4.63672,-4.80747 -5.27976,-12.36825 -1.5306,-17.99671 1.67055,-2.50791 3.81434,-3.69043 6.69036,-3.69043 4.72224,0 7.76006,3.66232 7.76725,9.36405 0.003,2.14719 -1.86964,5.11571 -3.85606,6.11354 -1.83438,0.92147 -3.38045,0.50909 -4.88613,-1.30325 -1.36095,-1.63816 -1.68055,-3.51247 -1.0027,-5.88065 0.29063,-1.01535 0.46076,-1.92754 0.37807,-2.02705 -0.31675,-0.38128 -2.02904,0.41752 -2.95905,1.38042 -2.11264,2.18732 -1.4451,7.6646 1.29759,10.64714 3.67332,3.99456 9.28922,1.68212 12.67937,-5.22095 1.51735,-3.08961 1.5954,-4.16086 0.42647,-5.85228 -0.47521,-0.68761 -1.06012,-1.69888 -1.29981,-2.24725 -0.38448,-0.87962 -0.32966,-1.05528 0.46542,-1.49132 0.49567,-0.27185 0.98358,-0.87331 1.08422,-1.33657 0.2462,-1.1332 -1.33549,-3.33036 -3.01234,-4.1845 -1.88574,-0.96056 -5.37121,-1.26185 -7.17171,-0.61996 -3.6527,1.30226 -4.87548,1.95072 -5.73655,3.0422 -1.10119,1.39586 -2.7165,4.00295 -3.05064,4.92378 -0.37021,1.02016 -1.78178,3.63288 -3.09932,5.73661 l -1.18949,1.89932 1.09764,1.50477 c 1.82208,2.4979 1.36173,7.07757 -0.89664,8.92 -1.82284,1.48712 -2.57263,1.16334 -2.71267,-1.17143 -0.1236,-2.06066 -0.21522,-2.14725 -2.57556,-2.43435 -1.24904,-0.15192 -1.79702,0.0149 -2.57207,0.78274 -3.19803,3.16857 -9.94593,6.3576 -14.13103,6.6783 -1.69429,0.12988 -2.3203,0.37529 -2.72329,1.06785 -0.28781,0.49459 -0.7726,0.89926 -1.07733,0.89926 -0.30473,0 -0.97144,0.59708 -1.4816,1.32684 -0.51014,0.72976 -1.14209,1.32684 -1.40432,1.32684 -0.27929,0 -0.57386,0.77939 -0.71121,1.88173 -0.2423,1.94501 -2.18337,6.52157 -2.76598,6.52157 -0.18152,0 -0.65814,-0.64683 -1.05916,-1.43741 z m -8.06084,-16.36433 c -3.06284,-3.93557 -0.64626,-9.5486 3.69125,-8.57371 1.10296,0.2479 1.13371,0.22222 0.46741,-0.39025 -0.82226,-0.75581 -0.3046,-0.71274 -10.18117,-0.84726 -7.43332,-0.10128 -7.62904,-0.12782 -9.63582,-1.30964 -2.29775,-1.35315 -4.34432,-3.93052 -5.48061,-6.90201 -0.64751,-1.69331 -0.78412,-3.09554 -0.91557,-9.39843 -0.085,-4.0745 -0.29583,-7.40818 -0.46857,-7.40818 -0.17274,0 -0.88707,0.46805 -1.5874,1.04011 l -1.27333,1.04011 0.9271,1.11594 c 0.78308,0.94259 0.86218,1.26197 0.50921,2.05585 -0.22984,0.51695 -0.58152,0.9399 -0.78151,0.9399 -0.57985,0 -1.18118,2.27642 -1.10782,4.19385 0.0767,2.00479 2.2796,7.60765 4.28229,10.89152 0.72324,1.18593 2.73084,3.73613 4.46136,5.66712 4.9625,5.53741 10.69248,8.65201 16.24196,8.82851 l 1.62567,0.0518 z m 22.39906,0.49508 c 2.73596,-0.70265 7.41988,-3.41853 10.07889,-5.84409 5.87728,-5.36122 10.83446,-13.89023 11.39717,-19.60933 0.20164,-2.04926 0.13264,-2.29854 -1.0759,-3.88642 -1.27508,-1.6753 -1.28258,-1.70807 -0.59435,-2.59727 0.93078,-1.20256 0.894,-1.41897 -0.49517,-2.913 -0.82076,-0.88272 -1.27656,-1.12192 -1.46297,-0.76775 -0.14891,0.28294 -0.25753,3.76864 -0.24135,7.74601 l 0.0294,7.23158 -1.21001,2.86949 c -1.28181,3.03974 -3.35244,5.55656 -5.47628,6.65635 -0.99036,0.51283 -3.18679,0.69464 -9.55343,0.79079 -4.57965,0.0691 -8.67714,0.32839 -9.186,0.58117 -0.86126,0.42783 -0.82991,0.45805 0.50254,0.48434 1.14459,0.0226 1.69871,0.36217 2.84766,1.74513 1.17951,1.41976 1.42652,2.0221 1.42652,3.47858 0,1.09181 -0.27938,2.18904 -0.73488,2.88604 -0.40418,0.6185 -0.73488,1.2424 -0.73488,1.38648 0,0.42643 2.38968,0.29952 4.48306,-0.2381 z m -8.13077,-1.10757 c -0.41884,-0.64094 -0.76154,-1.75217 -0.76154,-2.4694 0,-1.88608 -0.89196,-1.31847 -1.0313,0.65629 -0.0962,1.36291 0.0386,1.69577 0.9186,2.27007 1.50148,0.97979 1.7338,0.85837 0.87424,-0.45696 z m -8.82687,-1.07884 c 0.25982,-1.25373 -0.30421,-3.06317 -0.95481,-3.06317 -0.37677,0 -0.45565,1.88278 -0.18221,4.34908 0.065,0.58642 0.95839,-0.42394 1.13702,-1.28591 z m 4.02348,-8.97865 c 0,-0.81331 0.24883,-1.11031 1.10233,-1.31578 0.64654,-0.15564 1.10231,-0.54426 1.10231,-0.93984 0,-0.45456 -0.3594,-0.67448 -1.10231,-0.67448 -0.97984,0 -1.10233,-0.14743 -1.10233,-1.32684 0,-0.88456 -0.18371,-1.32684 -0.55116,-1.32684 -0.36743,0 -0.55115,0.44228 -0.55115,1.32684 0,1.22672 -0.0991,1.32684 -1.31299,1.32684 -1.0519,0 -1.28875,0.1539 -1.19117,0.77399 0.0802,0.50975 0.52848,0.8213 1.31299,0.91258 0.98586,0.1147 1.19117,0.32434 1.19117,1.21627 0,0.66308 0.21204,1.07767 0.55115,1.07767 0.33521,0 0.55116,-0.41157 0.55116,-1.05041 z m -23.1382,-7.85991 0.91973,0.85658 -0.74103,-3.16482 0.70756,-0.62183 1.30279,-1.12675 -1.15562,-0.0811 -1.23553,-0.13209 -0.97369,-2.6912 -0.55388,1.45317 -0.58481,1.23984 -2.09999,0.0369 1.00438,1.09655 0.90671,0.91431 -0.37415,1.51678 -0.37114,1.49943 1.14929,-0.94925 0.98138,-0.82293 z m 48.54733,-0.81727 c -0.16049,-1.13974 -0.27851,-1.14124 0.13774,-1.56683 1.47006,-1.503 -0.0239,0.009 0.44883,-0.44843 0.68829,-0.66535 0.20963,-0.22314 0.6581,-0.63284 0.73387,-0.67041 0.92598,-0.6977 0.19133,-0.76638 -0.97282,-0.091 0.0803,-0.0248 -1.43164,-0.14566 -0.91367,-0.0731 -0.6366,-0.1615 -1.12849,-1.22704 -0.31185,-0.67554 -0.58624,-1.40723 -0.72426,-1.40723 -0.13803,0 -0.37367,0.63132 -0.66702,1.32683 -0.66529,1.57739 -0.13963,1.29346 -1.64217,1.34082 l -1.2261,0.0133 1.00866,1.06863 c 0.87908,0.93137 1.06745,0.70516 0.55852,2.63395 -0.49982,1.89424 -0.52499,1.89203 0.86739,0.61284 1.24124,-1.14032 1.1775,-1.25055 2.24613,-0.0641 0.71668,0.79573 -0.0653,-0.13962 0.63975,0.793 0.13686,0.18103 0.16116,0.31355 0.28558,0.16379 0.12447,-0.14975 -0.071,-0.62053 -0.22237,-1.69531 z m -32.09093,-6.49235 c 1.51991,-0.69868 1.72008,-0.69522 3.57099,0.0621 1.95086,0.79818 2.66298,0.78347 6.28982,-0.12988 1.09363,-0.27542 1.97321,-0.20204 3.10677,0.25919 1.10181,0.44831 2.08756,0.53863 3.25118,0.29792 0.91849,-0.18999 3.20444,-0.36055 5.07991,-0.37899 2.56098,-0.0252 3.49266,-0.19347 3.74202,-0.67585 0.50634,-0.97946 0.10931,-1.34796 -1.45211,-1.34796 -0.78199,0 -1.66984,-0.29854 -1.97298,-0.66342 -0.73517,-0.88491 -1.91447,-0.83609 -4.66138,0.19298 -1.9161,0.71782 -2.41192,0.76435 -3.06413,0.28751 -0.42795,-0.3129 -1.41762,-0.60657 -2.19926,-0.65263 -0.78165,-0.046 -1.52571,-0.0995 -1.65348,-0.11867 -0.12783,-0.0193 -0.31498,0.004 -0.41603,0.0537 -0.10101,0.0488 -0.67976,0.18418 -1.28604,0.30082 -0.60628,0.11662 -1.24165,0.37744 -1.41194,0.57956 -0.17028,0.20213 -0.749,0.0916 -1.28603,-0.24571 -1.25367,-0.78733 -5.59841,-0.80075 -7.14667,-0.0221 -1.03451,0.52028 -1.44423,0.49358 -3.20331,-0.20869 -2.57158,-1.02664 -3.3718,-1.02455 -5.15664,0.0133 -0.79783,0.46398 -1.75913,0.74648 -2.13621,0.62779 -1.08753,-0.34233 -1.31664,1.11229 -0.26596,1.68852 0.67212,0.36861 1.30679,0.30627 2.74794,-0.26991 1.8245,-0.72942 4.07984,-0.61408 4.07984,0.20866 0,1.00669 3.37111,1.09442 5.4437,0.14168 z m -9.24542,-4.87235 c 1.37108,-0.59919 1.73155,-0.5951 3.54723,0.0403 2.16157,0.75637 4.66377,0.94092 4.66377,0.34397 0,-0.19977 0.86807,-0.40684 1.92905,-0.46013 1.85424,-0.0932 3.26996,-1.11456 2.57345,-1.85673 -0.54159,-0.57713 -2.80364,-1.30536 -3.00836,-0.9685 -0.47102,0.77513 -6.27086,0.87978 -6.27086,0.11322 0,-0.48531 -3.53207,-0.0753 -5.74859,0.66734 -2.15462,0.72187 -2.46984,1.10938 -1.85907,2.28546 0.37214,0.71657 2.33391,0.63911 4.17338,-0.16479 z m 29.15505,0.20724 c 1.11151,0 2.97167,0.14624 4.1337,0.32487 1.97043,0.30299 2.11278,0.26402 2.11278,-0.57827 0,-1.54771 -0.37509,-2.21713 -1.11224,-1.9851 -0.38354,0.12075 -1.47708,-0.10025 -2.43008,-0.49115 -2.1954,-0.9004 -3.09799,-0.89283 -5.29024,0.0444 -1.66509,0.71183 -1.87989,0.71183 -3.756,0 -2.76734,-1.05 -4.01847,-0.96464 -5.20134,0.3549 -0.89984,1.00381 -0.94038,1.17566 -0.42391,1.79732 0.31409,0.37806 0.75526,0.55036 0.98037,0.38289 0.61716,-0.45911 3.5687,-0.29091 4.29016,0.24448 0.38028,0.28219 1.44291,0.35747 2.65497,0.18809 1.11151,-0.15533 2.93033,-0.28241 4.04183,-0.28241 z m -19.99891,-5.66224 c 0.69582,-0.27642 1.44163,-0.89955 1.65735,-1.38473 0.36077,-0.8114 0.29422,-0.86768 -0.82955,-0.7015 -0.67198,0.0994 -1.71467,0.42533 -2.31709,0.72432 -0.84571,0.41977 -1.4318,0.42676 -2.57207,0.0307 -2.66648,-0.92628 -3.83158,-0.98179 -5.34175,-0.25448 -0.81278,0.39145 -2.02559,0.71173 -2.69513,0.71173 -1.44764,0 -1.84983,0.36605 -1.29168,1.17558 0.46417,0.6732 3.62623,0.82257 3.62623,0.1713 0,-0.82407 2.48071,-0.98126 4.63812,-0.29388 2.83621,0.90366 3.60513,1.03638 3.74485,0.6463 0.0635,-0.17749 0.68491,-0.54887 1.38072,-0.82529 z m 17.69333,0.59614 c 0.0564,-0.20387 0.88768,-0.30869 1.84714,-0.23294 1.29079,0.10187 1.27458,0.12605 1.1461,0.11396 -0.36766,-0.0345 0.24788,0.004 0.42755,0.0133 0.0978,0.004 0.0901,-0.038 0.21017,0.004 0.14862,0.0521 1.16523,0.5637 3.0918,0.49043 1.11842,-0.0426 1.46186,-0.25687 1.46186,-0.97485 0,-0.82733 -0.53231,-1.10718 -1.74534,-0.91757 -0.25262,0.0395 -0.4593,-0.14771 -0.4593,-0.41598 0,-0.26827 -0.17578,-0.35702 -0.39059,-0.19721 -0.21483,0.15981 -0.26879,-0.036 -1.01046,-0.3158 -0.61593,-0.23245 -2.95005,-0.7388 -3.74311,-0.38023 -0.10101,0.0457 -0.49468,0.15356 -0.87476,0.23971 -0.38009,0.0861 -0.86785,0.36947 -1.08395,0.62959 -0.47697,0.57412 -2.08312,0.63112 -2.08312,0.0739 0,-0.62824 -1.92612,-1.24544 -2.93953,-0.94192 -0.58863,0.17629 -0.91859,0.58569 -0.91859,1.13972 0,0.47555 -0.16534,1.025 -0.36744,1.22102 -0.20209,0.196 0.33529,0.25161 1.19418,0.12354 0.86602,-0.12915 1.3814,0.10511 1.56161,0.18259 0.28203,0.12133 0.28205,-0.0425 0.61145,0.13298 0.62505,0.33296 0.63962,0.25886 0.37731,0.17353 -0.62707,-0.20398 0.43464,0.4126 1.67514,0.33217 1.05008,-0.0681 1.95543,-0.29061 2.01188,-0.49449 z m 8.18462,-5.50482 c 0,-0.61696 -0.2676,-0.8304 -1.04108,-0.8304 -0.5726,0 -1.15757,-0.14021 -1.29994,-0.31158 -0.1424,-0.17136 -0.70318,-0.3832 -1.24626,-0.47074 -0.54307,-0.0876 -1.20385,-0.37538 -1.46839,-0.63966 -0.3348,-0.33446 -0.72843,-0.34254 -1.29519,-0.0267 -2.70525,1.50805 -4.2198,1.87279 -5.46657,1.2482 -0.19759,-0.0989 -0.0762,-0.22033 -0.30809,-0.46302 -0.17923,-0.18769 0.063,-0.003 -0.36743,-0.22114 -0.20821,-0.10571 -0.264,-0.11853 -0.4608,-0.24003 -0.38108,-0.23527 -0.14905,-0.12649 -0.4541,-0.19504 -0.52378,-0.1178 -2.01774,-0.5813 -2.70696,-0.0556 -0.74164,0.56563 -0.16522,2.24586 0.79897,2.32894 0.44107,0.038 1.21533,0.10836 1.72056,0.15624 0.50523,0.0479 1.37325,0.31042 1.92891,0.58331 1.00387,0.49299 3.05287,0.2747 3.77791,-0.40249 0.54651,-0.51042 4.34128,0.12575 4.87717,0.31822 0.4819,0.17312 0.57551,0.17126 0.89705,0.35807 0.4716,0.27399 0.24979,0.12546 0.85946,0.30526 0.59096,0.17436 1.25478,-0.45129 1.25478,-1.44186 z m -35.27421,0.34914 c 0,-0.20545 1.03343,-0.24799 2.2965,-0.0945 5.49101,0.66721 9.30155,0.21856 9.65905,-1.13725 0.11952,-0.45344 0.11428,-1.02525 -0.0117,-1.27067 -0.30647,-0.59688 -1.92699,-0.57161 -2.09433,0.0326 -0.0729,0.2634 -1.17806,0.62727 -2.45582,0.80861 -1.85948,0.26391 -2.43527,0.19484 -2.8846,-0.346 -0.81733,-0.98382 -4.18734,-0.94782 -5.02018,0.0537 -0.39447,0.47431 -1.20261,0.77399 -2.08721,0.77399 -1.21196,0 -1.44351,0.14595 -1.44351,0.90993 0,0.82424 0.19027,0.89735 2.02092,0.77653 1.11149,-0.0734 2.02091,-0.30147 2.02091,-0.50692 z m -0.52708,-4.35815 0.25713,-0.20647 c 0,0 0.23015,-0.0422 0.52365,-0.39536 0.62283,-0.74967 2.16641,-0.85387 2.51758,-0.16993 0.13336,0.25984 0.47386,0.3656 0.75655,0.23503 0.28271,-0.13062 0.51401,-0.0509 0.51401,0.1771 0,0.22798 0.24803,0.29996 0.55115,0.15994 0.30314,-0.14005 0.55117,-0.0715 0.55117,0.15238 0,0.22383 0.74407,0.45331 1.65347,0.50998 0.90943,0.0566 1.65349,-0.0719 1.65349,-0.28593 0,-0.21392 0.20668,-0.41091 0.4593,-0.43777 0.25261,-0.0268 1.2447,-0.13416 2.20463,-0.23833 1.13024,-0.12266 1.75444,-0.0147 1.77118,0.30682 0.0379,0.73027 0.65295,-1.13555 0.68321,-2.07288 0.0146,-0.44004 -0.13949,-0.67709 -0.34161,-0.52674 -0.20209,0.15034 -0.36826,0.11234 -0.36925,-0.0845 -0.004,-0.68622 -3.54741,-0.23429 -4.24734,0.0948 -0.53,0.24913 -0.53116,0.2556 -0.7893,0.36735 -0.35481,0.15359 0.0956,-0.0566 -0.41969,0.19679 -0.41707,0.20513 -0.70198,0.385 -2.2719,-0.35985 -2.1658,-1.02755 -5.66078,0.0578 -5.66078,0.0578 l -0.58111,0.1116 -0.3954,0.14713 c 0,0 -0.78764,0.35481 -1.44321,0.12856 -1.1528,-0.39797 -1.65483,0.3338 -1.25898,1.83509 0.16839,0.63856 0.58067,0.82225 1.84555,0.82225 0.99595,0 1.53965,-0.4356 1.53965,-0.4356 z m 19.51607,-0.29374 c 1.25722,-0.43015 1.82339,-0.40473 3.12323,0.1402 2.05835,0.86293 3.7599,0.85096 5.69829,-0.0401 1.44278,-0.66323 1.70368,-0.66323 3.38829,0 1.00382,0.39521 2.41412,0.71857 3.13398,0.71857 1.20933,0 1.30887,-0.10084 1.30887,-1.32684 0,-1.18253 -0.12113,-1.32683 -1.11412,-1.32683 -0.61277,0 -1.70772,-0.29854 -2.43323,-0.66342 -1.71982,-0.86495 -3.21583,-0.84119 -5.36306,0.0852 -1.64367,0.70911 -1.84702,0.70911 -3.49068,0 -2.13635,-0.92167 -3.64271,-0.9504 -5.3303,-0.10173 -1.33979,0.67382 -1.85912,1.56989 -1.52225,2.62654 0.2146,0.67315 0.32053,0.66861 2.60098,-0.1116 z m -19.70562,-4.72117 c 0.59624,-0.37113 1.08406,-0.53035 1.08406,-0.35382 0,0.17651 0.1821,0.10172 0.40462,-0.16608 0.25524,-0.30722 0.78764,-0.35481 1.44211,-0.12885 0.57062,0.19698 1.14159,0.23283 1.26884,0.0796 0.12724,-0.15316 0.36387,-0.0203 0.52585,0.2951 0.52054,1.01375 3.22471,1.16277 4.62529,0.25489 1.12588,-0.72982 1.46013,-0.75584 3.20099,-0.24908 3.41027,0.99273 5.0481,1.0993 5.73038,0.37289 0.81342,-0.86606 4.66375,-0.89394 5.25387,-0.038 0.54037,0.78372 3.25621,0.78789 4.19754,0.006 0.92512,-0.76799 3.70032,-0.76599 4.92543,0.003 0.51893,0.32594 1.48088,0.59386 2.13768,0.59536 1.02062,0.003 1.19418,-0.15363 1.19418,-1.07316 0,-1.09717 -1.51907,-1.27067 -1.51907,-1.27067 l -0.65409,-0.30708 -0.55545,-0.34218 -1.52194,-0.40808 c 0,0 -1.3758,-0.56501 -3.62116,0.13534 -2.09763,0.65426 -5.35653,0.54098 -5.35584,-0.18616 3.6e-4,-0.38031 -2.77772,-0.28777 -4.13398,0.1377 -0.55575,0.17435 -1.01046,0.51026 -1.01046,0.74646 0,0.3977 -0.46,0.34186 -2.93951,-0.35687 -2.14191,-0.60358 -4.25714,-0.35575 -4.25714,-0.35575 l -0.61144,0.1346 c 0,0 -0.92898,0.0666 -1.50305,0.25976 -0.64505,0.21703 -1.62753,0.13151 -2.57208,-0.22378 -0.84058,-0.31623 -1.85902,-0.57974 -2.2632,-0.58559 -1.23838,-0.018 -4.22442,0.68452 -4.40503,1.03626 -0.0937,0.18257 -0.55646,0.24311 -1.02828,0.1346 -1.14587,-0.26366 -2.01376,0.92211 -1.36432,1.864 0.5867,0.85093 1.94735,0.84629 3.3252,-0.0118 z M 709.96478,345.1327 v -14.42554 l -1.48897,1.61918 c -2.51113,2.73072 -4.64514,3.16311 -7.46701,1.51291 -2.17887,-1.2742 -3.29541,-3.61923 -3.08517,-6.47967 0.0841,-1.14288 0.29262,-2.45827 0.4636,-2.92306 0.25686,-0.69827 0.18651,-0.80593 -0.40498,-0.61975 -0.92034,0.2897 -1.61274,-0.61279 -1.61274,-2.10205 0,-0.88672 -0.14139,-1.10639 -0.58121,-0.90323 -0.31966,0.14766 -0.71828,0.26846 -0.88583,0.26846 -0.16753,0 -0.64692,0.85115 -1.0653,1.89146 -0.64988,1.61589 -0.70275,2.14749 -0.36289,3.64881 0.57085,2.52173 2.58439,7.21359 4.7652,11.10367 l 1.88416,3.36089 0.67364,-1.81112 c 0.37704,-1.01366 1.20888,-2.21484 1.8892,-2.72803 3.02307,-2.28041 6.83522,0.88528 6.47808,5.37957 -0.10946,1.37714 -0.21458,1.48985 -1.3899,1.48985 -1.58117,0 -2.31869,1.39851 -2.09917,3.98051 0.12899,1.5178 3.76273,12.16267 4.15179,12.16267 0.0756,0 0.13745,-6.49149 0.13745,-14.42553 z m 64.65287,8.27821 c 1.8744,-5.06357 2.27081,-7.56793 1.47955,-9.34751 -0.29389,-0.66102 -0.55654,-0.75798 -1.22483,-0.45214 -1.07181,0.49048 -1.58295,0.11514 -1.89751,-1.39342 -0.56797,-2.72391 1.2522,-5.93295 3.62842,-6.3971 1.67272,-0.32674 3.92625,1.30461 4.63092,3.35238 0.25875,0.75192 0.59489,1.36711 0.74699,1.36711 0.90355,0 6.49879,-12.05877 6.86885,-14.80358 0.37923,-2.81296 -2.27545,-7.32767 -3.22328,-5.4817 -0.16846,0.32808 -0.21183,1.04949 -0.0963,1.60313 0.198,0.94962 0.11398,0.99991 -1.48325,0.88823 -1.05583,-0.0739 -1.6938,-0.32648 -1.69493,-0.67123 -10e-4,-0.30407 -0.23056,-0.55285 -0.51012,-0.55285 -0.57552,0 -0.94903,-1.32447 -0.95644,-3.39149 -0.009,-2.40086 -0.3006,-2.80042 -2.04661,-2.80042 -1.32077,0 -1.7923,0.24754 -2.73808,1.43741 -1.68387,2.11846 -2.56911,4.44251 -2.56911,6.74475 0,3.80125 2.32923,7.2918 4.86857,7.29596 0.97756,10e-4 1.34947,-0.5785 0.6869,-1.07141 -0.59543,-0.44294 -0.71712,-2.67117 -0.22355,-4.09305 0.86198,-2.48321 3.94485,-2.85856 4.94796,-0.60246 0.48401,1.08858 0.49083,5.76857 0.009,5.76857 -0.20209,0 -0.3685,0.24878 -0.36977,0.55285 -0.004,0.75451 -2.00826,2.07963 -4.18317,2.76451 -1.47834,0.46553 -1.99977,0.46102 -2.9395,-0.0254 -1.31188,-0.6791 -2.74306,-2.14134 -3.64302,-3.72203 -0.59104,-1.0381 -0.62261,-0.36342 -0.62261,13.30522 0,12.53168 0.11646,15.4379 0.59589,14.8609 0.0583,-0.0702 0.94016,-2.38099 1.95968,-5.1352 z m -58.17164,3.07589 c 0.15844,-0.95351 0.45428,-1.3385 1.10456,-1.43741 1.25821,-0.19137 1.21134,-0.97754 -0.074,-1.24288 -0.84942,-0.17533 -1.10644,-0.48379 -1.19776,-1.43741 -0.16269,-1.699 -1.16977,-1.60199 -1.16977,0.11264 0,1.17941 -0.12243,1.32684 -1.10232,1.32684 -0.73487,0 -1.10232,0.22114 -1.10232,0.66341 0,0.44228 0.36745,0.66342 1.10232,0.66342 0.97985,0 1.10232,0.14743 1.10232,1.32684 0,1.77824 1.04251,1.79736 1.33709,0.0245 z m 50.47192,-0.0245 c 0,-0.81823 -0.0875,-1.12821 0.0561,-1.24653 0.12102,-0.0997 0.40618,-0.0633 1.04623,-0.0803 1.42757,-0.0379 1.20727,0.19575 1.20727,-0.66342 0,-0.89706 0.25178,-0.68869 -1.20727,-0.66342 -1.39965,0 -1.10231,0.20629 -1.10231,-1.32684 0,-1.66363 0.28799,-1.32684 -0.73488,-1.32684 -0.93891,0 -0.73488,-0.28625 -0.73488,1.32684 0,1.5584 0.18187,1.32684 -1.10233,1.32684 -1.30162,0 -1.10231,-0.19531 -1.10231,0.66342 0,0.83476 -0.23097,0.66342 1.10231,0.66342 1.31801,0 1.10233,-0.19366 1.10233,1.32683 0,1.48677 -0.10961,1.32684 0.73488,1.32684 1.03337,0 0.73488,0.17256 0.73488,-1.32684 z m -6.05894,-1.4374 c 0.11078,-0.54732 0.15532,-7.46346 0.0988,-15.3692 l -0.10261,-14.37407 -19.61647,-0.11456 c -14.18109,-0.0827 -19.75524,0.0242 -20.11731,0.38586 -0.40452,0.4041 -0.50086,3.33402 -0.50086,15.23012 0,13.65645 0.0469,14.7445 0.64301,14.93202 0.35366,0.11131 9.36197,0.22536 20.01845,0.25358 l 19.37546,0.0513 z m -22.78507,-3.9308 c -0.80837,-0.22787 -3.53662,-0.48515 -6.06277,-0.57177 -2.52615,-0.0867 -5.00637,-0.25283 -5.5116,-0.3694 -0.50522,-0.11662 -1.15009,-0.23732 -1.43301,-0.26836 -0.28294,-0.0311 0.13045,-0.63229 0.91859,-1.33608 2.4748,-2.20991 3.78156,-3.89912 4.02393,-5.20166 0.29151,-1.56656 2.76733,-7.83998 3.1731,-8.04021 0.16431,-0.0811 0.29875,-0.91067 0.29875,-1.84351 0,-2.32419 0.30786,-3.09588 1.23349,-3.09182 0.80224,0.003 1.70603,1.65981 1.70603,3.12653 0,0.40822 0.24802,0.98998 0.55116,1.29281 0.30314,0.30283 0.55115,0.92427 0.55115,1.38098 0,0.45673 0.24804,0.83041 0.55118,0.83041 0.30312,0 0.55115,-0.31857 0.55115,-0.70795 0,-0.56765 0.32769,-0.67659 1.65347,-0.54967 0.90942,0.0871 1.65349,0.0551 1.65349,-0.0709 0,-0.12605 0.55177,-0.99769 1.22616,-1.93701 1.08587,-1.51244 1.31708,-1.64927 2.02091,-1.19587 0.5301,0.34148 0.79476,0.93289 0.79476,1.77594 0,0.69517 0.23553,1.37274 0.52339,1.50571 0.50484,0.23318 1.39565,2.20802 1.83483,4.0677 0.41946,1.7761 3.65228,5.14708 6.46033,6.73644 2.26172,1.28012 2.62404,1.6197 2.02092,1.89406 -1.19505,0.54362 -15.24197,3.07363 -16.7185,3.01118 -0.30314,-0.0133 -1.21256,-0.20974 -2.02091,-0.43759 z M 706.1746,329.69152 c 1.18922,-0.93793 2.32042,-3.83613 2.32042,-5.94508 0,-3.63291 -2.23453,-7.13424 -4.92059,-7.71014 -1.51086,-0.32394 -2.37026,0.34409 -2.15845,1.67781 0.23798,1.49837 -0.53731,4.11606 -1.44593,4.8821 -0.72357,0.61004 -0.70252,0.64571 0.54749,0.92797 2.78069,0.62791 3.79291,3.16155 2.62962,6.58208 -0.25882,0.76101 -0.16532,0.81481 0.94957,0.54642 0.68014,-0.16375 1.6152,-0.59627 2.07787,-0.96116 z m 59.56282,-7.56573 c 0.26015,-0.1477 0.76922,0.0541 1.13126,0.44853 1.08319,1.17994 1.5127,0.90589 1.1257,-0.71828 -0.29495,-1.23791 -0.22823,-1.54071 0.48496,-2.20156 0.45483,-0.42142 0.98402,-0.77066 1.17601,-0.77607 0.19198,-0.006 0.14371,-0.25695 -0.10713,-0.55898 -0.36336,-0.43736 -0.52679,-0.41484 -0.80275,0.11057 -0.26817,0.51057 -0.34778,0.52403 -0.35214,0.0596 -0.004,-0.36025 -0.23405,-0.49465 -0.5771,-0.33621 -0.40778,0.18837 -0.73902,-0.20977 -1.15648,-1.39008 l -0.585,-1.65405 -0.49806,1.43741 c -0.42736,1.2334 -0.68042,1.4374 -1.78303,1.4374 -1.52171,0 -1.64781,0.50137 -0.33829,1.34495 0.96409,0.62104 0.98262,0.8362 0.30296,3.51628 -0.2776,1.0947 -0.27362,1.0968 0.61337,0.32546 0.49101,-0.42701 1.10562,-0.89723 1.36576,-1.04492 z m -47.34736,0.61273 c -0.0146,-0.30407 -0.1551,-0.9509 -0.3131,-1.43741 -0.22412,-0.69013 -0.0412,-1.10328 0.8321,-1.87968 0.66198,-0.58851 0.90251,-1.01294 0.58868,-1.03871 -0.29188,-0.024 -0.93276,-0.0737 -1.42419,-0.11057 -0.68751,-0.0516 -0.96823,-0.41226 -1.21765,-1.56461 -0.33582,-1.55156 -0.96463,-1.43065 -1.16254,0.22355 -0.0764,0.63741 -0.46237,0.8639 -1.65224,0.96922 l -1.55274,0.1374 1.17054,1.23016 c 1.0081,1.05943 1.11329,1.35886 0.75811,2.15769 -0.53321,1.19924 -0.009,1.58711 1.2291,0.90842 0.80039,-0.43896 1.06202,-0.40318 1.57604,0.21552 0.73061,0.87943 1.20371,0.95599 1.16789,0.18901 z m 23.17452,-1.65855 c 0,-1.17941 0.12243,-1.32683 1.10233,-1.32683 0.73488,0 1.10231,-0.22114 1.10231,-0.66342 0,-0.44228 -0.36743,-0.66342 -1.10231,-0.66342 -0.98568,0 -1.10233,-0.14389 -1.10233,-1.35927 0,-1.0556 -0.14371,-1.32647 -0.64301,-1.21248 -0.38331,0.0874 -0.6891,0.6255 -0.75711,1.33201 -0.078,0.81114 -0.35892,1.22873 -0.88982,1.32305 -1.16009,0.20612 -1.26774,1.24353 -0.12899,1.24353 0.80973,0 0.94923,0.19498 0.94923,1.32683 0,1.03199 0.1633,1.32684 0.73488,1.32684 0.57157,0 0.73486,-0.29485 0.73486,-1.32684 z m -9.35679,-25.23504 c 0.13205,-0.25709 0.13876,-0.95309 0.015,-1.54667 -0.19718,-0.94564 -0.31406,-1.01233 -0.94402,-0.53878 -0.42422,0.31888 -0.58388,0.70309 -0.38943,0.93713 0.18126,0.21817 0.24211,0.67096 0.13526,1.00621 -0.2284,0.71642 0.82348,0.84275 1.18325,0.14212 z m 14.09485,-0.58223 c 0.60409,-0.87613 0.1373,-1.99452 -0.71996,-1.72472 -0.39113,0.1231 -0.71113,0.38339 -0.71113,0.57837 0,0.19499 -0.10028,0.66935 -0.22305,1.05412 -0.28485,0.89352 1.05034,0.96797 1.65414,0.0923 z"
   id="path5"
   sodipodi:nodetypes="ssssssssssscsssssssssssssssssssssssssssssssssscsssssssssssssssssssssssssssscssssscssscccccssssssssssscsssssssssssscsssssssssssssssssssssscssssssssssssssssssssssssssssssssssssssssssssssssssssssssssscccsssssssssssssssssssssssssssssssssscssssssssssssssssssssssssssssssscsssssssssssssssssssssscssssssscssssssssscssssssssssssssssssssscssssssssssscsccscccccccccccscssssssssscsssssssssssssssssssssssssssssssssssssssssssssssssssssssssssssssssssssssssssssssssssssssssssssssssssssssssssssssssssssssscssssssssssccsssssssssssssssssscccsssccsssssssssssssssssssssssssssccccsssssccssssssssssssssssssssssssssssssssssssssssssssssssssssssssssssssscssssssssscsssssssssssssssssssssssssssssssssssssssssssssssssssscssssssssssssssssssssssssssssssssssssssssssssssssssssssssscsssscsss"
   style="stroke-width:0.403126" />
                    <path
   style="fill:#4672b5;fill-opacity:1;stroke:#f5deb3;stroke-width:2.92488"
   d="m 298.85512,921.46156 c -2.27502,-0.95053 -10.11657,-6.94101 -17.42568,-13.31221 -8.26916,-7.20809 -15.30063,-11.66153 -18.61381,-11.78926 -2.92849,-0.11291 -21.61163,-0.0427 -41.51807,0.1561 -40.51836,0.40454 -62.84663,-2.36093 -101.13537,-12.52618 -38.410612,-10.19762 -87.462479,-29.3393 -91.692749,-35.78159 -2.162674,-3.29352 -1.941484,-13.22333 0.325766,-14.62456 1.049724,-0.64877 17.373702,3.4844 36.275509,9.18484 36.866654,11.1183 43.964534,12.21269 45.933244,7.08233 C 113.9214,842.2483 92.221178,830.10413 48.091058,814.6429 27.842823,807.54882 28.628205,810.58445 36.280065,768.99159 47.03665,710.52254 65.852113,638.20858 88.775229,567.2356 102.4872,524.78152 107.54573,501.05378 111.68603,459.7693 c 1.82353,-18.18306 2.77483,-21.23508 10.19938,-32.72229 9.88179,-15.28906 11.82593,-20.98032 14.37697,-42.08707 1.75345,-14.50773 3.03586,-17.822 11.83279,-30.58066 6.76453,-9.81098 10.59134,-17.94105 12.17283,-25.86121 l 2.30663,-11.5517 9.1675,14.21164 c 11.32348,17.55389 47.03552,54.77094 69.27304,72.19242 l 16.61534,13.01688 -1.47372,16.20621 c -2.23976,24.63045 -2.01571,115.33666 0.37974,153.74161 2.73571,43.86012 13.84849,164.51407 16.76319,182.00173 3.4681,20.80803 11.13683,52.63358 24.80898,102.95828 10.07374,37.07956 12.02726,46.67608 9.99918,49.11978 -2.83038,3.41038 -3.43233,3.47847 -9.25276,1.04664 z"
   id="path6"
   transform="scale(0.75)" /><path
   style="fill:#4672b5;fill-opacity:1;stroke:#f5deb3;stroke-width:2.92488"
   d="m 245.13795,383.4757 c -18.43709,-11.69245 -47.18321,-42.28887 -40.95616,-43.59237 0.88234,-0.1847 4.86168,-0.41737 8.84297,-0.51705 8.02824,-0.201 7.51825,1.07878 14.84345,-37.24807 1.50494,-7.87414 3.83495,-14.67765 5.1778,-15.11891 3.64696,-1.19838 18.72463,13.28732 25.07658,24.09204 5.04088,8.57458 5.63088,11.75126 6.17813,33.26421 0.6032,23.71243 -2.41636,43.38705 -6.88313,44.84864 -1.17794,0.38544 -6.70378,-2.19238 -12.27964,-5.72849 z"
   id="path7"
   transform="scale(0.75)" /><path
   style="fill:#4672b5;fill-opacity:1;stroke:#f5deb3;stroke-width:2.92488"
   d="M 774.54147,228.39178 C 714.60526,223.47934 659.63962,196.16728 614.19442,148.7164 590.70005,124.18513 566.00929,86.486975 560.22341,66.312786 c -2.48524,-8.665543 1.39251,-13.508838 19.7286,-24.640947 l 15.51171,-9.417388 19.48472,29.373207 c 20.3807,30.723918 43.70827,57.415372 69.2258,79.208322 34.2957,29.28983 84.61961,45.95492 121.39025,40.19915 29.18749,-4.56876 67.93051,-21.24864 93.99969,-40.46931 17.51116,-12.91088 68.41892,-62.923453 82.75208,-81.296921 12.66723,-16.237953 11.14115,-16.084946 29.42394,-2.950064 5.4857,3.941087 10.5144,9.318663 11.1749,11.950172 1.7146,6.831721 -5.1546,21.043144 -23.45219,48.518863 -51.89707,77.92901 -134.67148,119.0009 -224.92144,111.60391 z"
   id="path8"
   transform="scale(0.75)" /><path
   style="fill:#4672b5;fill-opacity:1;stroke:#f5deb3;stroke-width:2.92488"
   d="m 729.04103,113.66455 c -23.00165,-4.22701 -52.00663,-12.58391 -63.08014,-18.174627 -7.23405,-3.652275 -12.7102,-9.410057 -24.5873,-25.851769 -8.40422,-11.634128 -14.91905,-21.494046 -14.47741,-21.910929 0.44164,-0.416882 15.69403,3.844873 33.8942,9.470568 18.20018,5.625695 41.68275,11.52874 52.18349,13.117877 57.93792,8.768077 166.3577,4.808526 223.92412,-8.177833 11.94238,-2.694068 22.14508,-4.470975 22.67268,-3.948682 0.5276,0.522292 -8.77931,10.45447 -20.68201,22.071506 -23.2756,22.716979 -25.12921,23.710359 -58.86892,31.549049 -20.93892,4.86471 -127.47782,6.17358 -150.97871,1.85484 z"
   id="path9"
   transform="scale(0.75)" /><path
   style="fill:#4672b5;fill-opacity:1;stroke:#f5deb3;stroke-width:2.92488"
   d="m 749.25232,158.31324 c -13.34239,-4.80218 -40.30479,-19.54114 -47.76315,-26.10966 -5.01942,-4.42056 -5.15111,-4.8823 -1.40296,-4.91928 2.27502,-0.0225 9.2552,1.35587 15.51151,3.06293 20.85785,5.69115 74.45347,8.21295 115.32667,5.4264 20.17738,-1.37561 39.47822,-2.99905 42.89075,-3.60766 6.04167,-1.0775 6.09598,-1.015 2.0682,2.38015 -7.90627,6.66444 -42.30409,21.79968 -56.26943,24.75887 -20.65599,4.37691 -56.86325,3.86656 -70.36159,-0.99175 z"
   id="path10"
   transform="scale(0.75)" /><path
   style="fill:#4672b5;fill-opacity:1;stroke:#f5deb3;stroke-width:2.92488"
   d="m 1249.9304,892.946 c 4.7486,-25.35056 7.2224,-87.9611 9.6222,-243.53073 2.104,-136.38614 3.7695,-173.45398 8.504,-189.25617 2.6873,-8.96955 23.7271,-37.95291 40.3443,-55.5763 l 10.9608,-11.62451 0.076,7.70019 c 0.2264,23.1204 -25.1833,148.5554 -41.5932,205.32456 -13.7288,47.49397 -17.0708,68.30256 -11.324,70.5078 8.2448,3.16382 11.0443,-3.96962 29.2938,-74.6442 14.4157,-55.82771 21.9221,-91.48001 32.0461,-152.20586 4.4977,-26.97855 8.7991,-50.76879 9.5586,-52.8672 2.0988,-5.79855 9.0171,-15.1904 11.1897,-15.1904 2.5031,0 2.4548,59.65239 -0.1781,220.14841 -2.7147,165.47909 -5.3334,241.87697 -8.6527,252.43563 -7.4482,23.69222 -45.6367,44.40576 -81.9582,44.45436 -8.6497,0.0116 -8.9179,-0.1814 -7.8888,-5.67558 z"
   id="path11"
   transform="scale(0.75)" /><path
   style="fill:#4672b5;fill-opacity:1;stroke:#f5deb3;stroke-width:2.92488"
   d="m 1354.7368,885.7073 c 0.036,-4.83442 0.9095,-23.21557 1.9419,-40.84698 2.7544,-47.04118 6.1197,-192.3686 8.1975,-353.99988 l 1.8255,-142.00921 11.6954,-17.75935 c 6.4325,-9.76764 12.5314,-17.75935 13.553,-17.75935 4.3602,0 13.9743,44.89112 20.3979,95.24389 4.0017,31.36869 5.5847,35.90596 17.8776,51.24215 l 7.1744,8.95063 0.036,23.10649 c 0.046,29.6576 1.9742,38.1742 24.4295,107.90275 33.953,105.43135 58.2626,186.13321 58.2626,193.41704 0,5.85353 -20.6819,12.6823 -114.7852,37.89992 -35.2387,9.4432 -38.2617,10.6901 -38.2617,15.78193 0,8.51923 18.8331,5.26223 109.01,-18.85222 53.6861,-14.35633 49.3412,-14.51714 55.7583,2.06341 4.151,10.72546 2.838,13.76452 -8.8174,20.40893 -23.1561,13.2006 -136.095,43.9997 -161.3449,43.9997 -6.8846,0 -7.014,-0.1637 -6.9504,-8.78985 z"
   id="path12"
   transform="scale(0.75)" /><path
   style="fill:#4672b5;fill-opacity:1;stroke:#f5deb3;stroke-width:2.92488"
   d="m 1257.4665,928.97309 c -14.8831,-3.86804 -12.1244,-7.83784 8.2728,-11.90464 19.3917,-3.86632 37.8207,-10.36223 57.3126,-20.20172 7.0357,-3.55159 13.258,-5.70361 13.8275,-4.78227 3.3037,5.34547 -17.1766,28.90402 -30.9044,35.54957 -9.7406,4.7153 -33.0426,5.35855 -48.5085,1.33906 z"
   id="path13"
   transform="scale(0.75)" /><path
   fill="#000000"
   d="m 569.37153,876.71978 c -0.87976,-0.1052 -3.65612,-0.41195 -6.1697,-0.68159 -17.81575,-1.91169 -35.81716,-6.9023 -57.75766,-16.0126 -25.9028,-10.75551 -49.63464,-26.64211 -69.53369,-46.5473 -15.32603,-15.33078 -26.55801,-32.30481 -38.56768,-58.28442 -4.8794,-10.55525 -7.21399,-17.64686 -16.77374,-50.95241 -9.4718,-32.99916 -10.56654,-45.25506 -6.55505,-73.38573 5.22571,-36.64545 17.88894,-68.08422 37.72452,-93.658 4.7042,-6.06504 7.09661,-8.71528 4.33186,-4.79865 -17.87099,25.31641 -27.53736,47.06105 -35.38674,79.60299 -5.17298,21.44615 -6.00673,43.90679 -2.36349,63.67119 1.62041,8.79068 1.74336,8.50231 1.75375,-4.11313 0.0103,-12.49372 0.18157,-15.92082 1.27897,-25.59284 4.45364,-39.25252 20.64298,-76.60261 47.64127,-109.91209 4.97415,-6.13693 11.63141,-13.73054 11.84777,-13.51417 0.0918,0.0918 -1.65804,2.50171 -3.88862,5.35527 -25.43646,32.54063 -39.71973,62.8971 -45.33754,96.35669 -6.88008,40.97762 -4.60902,77.4289 6.67129,107.07657 4.20174,11.04329 14.23674,27.36098 24.7939,40.31684 9.51377,11.67541 22.88933,24.7086 35.48044,34.57227 9.87512,7.73601 36.58192,23.5975 55.96834,33.24027 21.97515,10.9304 39.65355,16.92091 53.54802,18.1453 l 3.50487,0.30886 -0.5188,1.1971 c -0.95356,2.20028 -2.74357,4.21915 -4.56459,5.14816 l -1.80387,0.92027 -4.73872,-0.95374 c -17.65937,-3.5542 -41.91078,-13.60244 -62.10795,-25.73356 -30.41538,-18.26854 -51.15754,-34.17668 -68.94293,-52.87558 -8.17003,-8.58967 -7.90933,-8.34298 -6.86961,-6.50014 1.28585,2.27912 9.42078,13.03661 12.83209,16.96895 19.22057,22.15618 37.49674,36.20812 63.89448,49.12636 23.87407,11.68323 51.9081,20.9881 70.3803,23.36019 4.96613,0.63772 8.56637,0.72035 21.93672,0.50354 15.26964,-0.24752 23.66549,-0.84611 36.56118,-2.60644 19.69528,-2.68855 47.10986,-8.88472 57.58389,-13.01495 14.59915,-5.75689 30.8213,-15.38891 49.12911,-29.17077 3.64469,-2.74368 6.9352,-5.19192 7.31224,-5.44054 1.35258,-0.89188 -3.54485,3.46715 -9.82583,8.74561 -20.26776,17.03282 -40.32672,29.14336 -57.8642,34.93535 -19.60369,6.47442 -46.15431,11.47443 -71.92804,13.54572 -6.27391,0.50418 -29.95837,0.97618 -32.67656,0.65115 z M 743.96539,817.0477 c 0.008,-0.0863 3.43095,-3.65298 7.60702,-7.92607 4.17607,-4.27309 6.89507,-6.8438 6.04222,-5.71269 -2.73727,3.63038 -13.73809,14.62275 -13.64924,13.63876 z m 17.46527,-18.66592 c 0.6209,-0.87975 3.06762,-4.27309 5.43717,-7.54075 19.98556,-27.56054 33.11505,-56.469 39.02214,-85.91881 2.77681,-13.84375 3.8541,-24.74261 3.86232,-39.07478 0.0124,-21.75042 -2.54915,-40.9633 -8.09319,-60.70116 l -1.70999,-6.08788 -0.51823,3.34579 c -0.51061,3.29655 -2.20468,9.86361 -2.66259,10.32152 -0.12912,0.12912 -0.4595,-0.35931 -0.73417,-1.08541 -1.65399,-4.3723 -6.60311,-15.29276 -10.23341,-22.58049 -14.0463,-28.19758 -29.82347,-49.51054 -48.85639,-65.99881 -34.49315,-29.88151 -73.89375,-48.07282 -121.18578,-55.95164 -16.45268,-2.741 -20.11716,-3.03572 -37.47522,-3.01403 -17.52255,0.0219 -23.85941,0.5908 -38.15357,3.42531 -27.72495,5.49781 -55.30753,18.32931 -79.99072,37.21193 -4.14664,3.17219 -2.48801,1.32154 2.73357,-3.05 22.54982,-18.87888 47.684,-32.58374 72.74824,-39.66729 16.82721,-4.75564 29.89369,-6.43249 50.05118,-6.4232 34.85231,0.0161 67.10494,7.07324 103.43742,22.63303 18.31029,7.84158 41.65101,22.62927 56.37993,35.71993 5.47039,4.86194 6.62277,5.55322 3.03201,1.81883 -9.05437,-9.41655 -22.96068,-20.67932 -35.41866,-28.68569 -19.30844,-12.40897 -48.17357,-25.53266 -67.1812,-30.54433 -17.34985,-4.57456 -42.02807,-7.33817 -59.41193,-6.65328 -21.92973,0.86398 -39.87906,3.82412 -59.86896,9.87337 -28.95361,8.76181 -55.74492,23.28637 -82.47638,44.71348 -8.55496,6.85738 -8.15432,6.11063 0.89921,-1.67606 26.77833,-23.03128 55.58469,-38.79963 88.20389,-48.28205 12.99527,-3.77773 26.33305,-6.36344 42.9594,-8.32828 9.31253,-1.10052 30.54265,-1.10368 39.9888,-0.006 30.19232,3.50862 55.08604,10.95479 82.94822,24.81129 22.85071,11.36419 38.39196,21.89758 52.50399,35.58563 19.78097,19.18667 38.28207,46.54834 48.05636,71.07156 16.09332,40.37737 21.00567,79.72227 14.55026,116.53881 -5.18114,29.54915 -18.48067,59.56853 -38.26721,86.37583 -4.21214,5.70672 -11.36573,14.67515 -14.03455,17.59507 -1.58369,1.73269 -1.61196,1.74461 -0.54196,0.22851 z M 645.46451,780.87376 c -5.3696,-2.59133 -9.76425,-9.48736 -11.11831,-17.44668 -0.62365,-3.66593 -0.64288,-4.77071 -0.13558,-7.78984 0.82818,-4.92877 3.00246,-9.95347 6.16739,-14.25274 6.98274,-9.48539 18.53374,-16.73291 40.04814,-25.12767 2.89062,-1.1279 5.52635,-2.16167 5.85718,-2.29727 0.33082,-0.1356 -1.13821,2.40281 -3.26452,5.64089 -4.85817,7.39834 -7.09361,11.58009 -9.13276,17.08431 -2.13434,5.76116 -2.99839,10.19249 -3.50709,17.9863 -0.23204,3.5552 -0.81067,7.92248 -1.28583,9.70508 -1.79685,6.741 -6.47934,13.1672 -11.64161,15.97687 -1.92159,1.04586 -3.08165,1.32607 -6.04016,1.45899 -3.14213,0.14117 -3.98606,0.008 -5.94685,-0.93824 z m -179.95729,-0.58981 c -0.59378,-0.59378 0.95133,-18.58321 1.63335,-19.01682 0.91661,-0.58276 3.25618,-0.39992 4.30779,0.33665 0.54749,0.38349 1.46609,1.97732 2.04131,3.54187 l 1.04588,2.84463 0.4597,-3.42761 0.4597,-3.42761 h 2.05657 2.05657 l -0.0143,3.08485 c -0.008,1.69667 -0.0592,6.06687 -0.11425,9.71157 l -0.1,6.62672 h -2.47363 -2.47363 l -1.24712,-3.31336 c -2.50309,-6.65023 -2.41002,-6.59818 -2.45162,-1.37105 l -0.0373,4.68441 h -2.43742 c -1.34057,0 -2.56082,-0.12342 -2.71166,-0.27425 z m 15.23216,-5.32419 c 0.0277,-5.39491 0.55804,-12.97483 0.93256,-13.3289 0.0997,-0.0942 3.009,-0.32056 6.46518,-0.50294 l 6.28396,-0.33161 v 2.33149 c 0,2.65102 0.1683,2.55127 -5.14142,3.04742 -2.77202,0.25903 -3.08494,0.38886 -3.08567,1.28017 -7.6e-4,0.92001 0.22285,0.99191 3.08485,0.99191 h 3.08567 v 1.77825 c 0,2.11511 -0.43239,2.41817 -3.99888,2.80279 -2.33605,0.25192 -2.62784,0.39751 -2.62784,1.31112 0,1.00101 0.10098,1.02242 3.88463,0.82383 l 3.88463,-0.20389 v 2.50315 2.50315 l -3.77038,0.29352 c -2.0737,0.16142 -4.9529,0.29473 -6.39821,0.29623 l -2.62783,0.003 z m 15.97422,4.30515 c -1.71162,-1.71161 -2.01146,-4.54285 -1.26663,-11.96015 l 0.57366,-5.71268 2.39933,-0.13814 c 2.80812,-0.16168 2.64924,-0.77747 1.95735,7.58584 -0.23489,2.83946 -0.31237,5.46158 -0.17217,5.82694 0.40641,1.05908 2.39536,0.81163 2.92555,-0.36397 0.25507,-0.56556 0.61057,-3.70182 0.78999,-6.96948 l 0.32622,-5.94119 2.47024,-0.1406 2.47024,-0.1406 -0.27127,6.69526 c -0.2331,5.75298 -0.41995,6.99043 -1.3277,8.7926 -1.35447,2.68903 -3.32236,3.75946 -6.9114,3.75946 -2.32178,0 -2.83885,-0.16872 -3.96341,-1.29329 z m 13.10689,0.97388 c -0.23458,-0.387 0.89712,-17.95753 1.17448,-18.23488 0.0891,-0.0891 1.69208,-0.38042 3.56218,-0.64737 4.5346,-0.64732 6.50898,-0.27532 8.01064,1.5093 1.05551,1.25441 1.17622,1.73586 1.0103,4.02963 -0.14029,1.93965 -0.50618,3.0216 -1.4325,4.23608 l -1.24409,1.63108 1.36622,2.70646 1.36622,2.70646 -1.80022,1.19133 c -0.99011,0.65522 -1.97951,1.19132 -2.19865,1.19132 -0.21914,0 -1.07694,-1.33677 -1.90623,-2.9706 -1.01511,-1.99991 -1.777,-2.9706 -2.33165,-2.9706 -0.69139,0 -0.84571,0.45922 -0.9599,2.85634 l -0.13606,2.85635 -2.12942,0.13761 c -1.17118,0.0757 -2.22928,-0.0272 -2.35132,-0.22851 z m 18.35059,-0.37535 c -0.66639,-0.36199 -1.67104,-1.60716 -2.23254,-2.76707 -0.88619,-1.83064 -0.9882,-2.6007 -0.77304,-5.83601 0.26135,-3.92993 0.95288,-6.07742 2.65288,-8.23837 3.19252,-4.05813 9.09187,-2.6596 10.48935,2.48666 0.79211,2.917 0.29939,8.21883 -1.00873,10.85409 -1.84892,3.72478 -5.87376,5.26836 -9.12792,3.5007 z m 11.68756,-8.10278 c 0.17941,-4.83865 0.48109,-8.95616 0.67041,-9.15003 0.18931,-0.19387 2.0091,-0.66651 4.04398,-1.0503 3.28307,-0.61922 3.88309,-0.62122 5.32734,-0.0177 2.09645,0.87595 3.47172,3.12977 3.47392,5.69313 0.004,3.94488 -2.03746,6.27652 -6.46888,7.39055 -2.3089,0.58044 -2.6522,1.12412 -2.66346,4.21815 l -0.006,1.7138 h -2.35163 -2.35164 z m 11.6893,7.90891 c 0,-1.20106 3.66861,-12.2619 5.18531,-15.6337 1.07871,-2.3981 1.29605,-2.60601 3.03057,-2.89905 2.32257,-0.3924 3.84114,0.48356 4.52452,2.60989 0.38761,1.206 3.25513,15.87109 3.25513,16.64734 0,0.11428 -1.28536,0.14653 -2.85635,0.0717 l -2.85634,-0.13606 -0.14488,-1.76481 c -0.13987,-1.70367 -0.1933,-1.75512 -1.54243,-1.4853 -0.76864,0.15373 -1.65057,0.27951 -1.95982,0.27951 -0.30926,0 -0.75312,0.66839 -0.98636,1.4853 -0.40794,1.42881 -0.52343,1.49051 -3.03671,1.62236 -2.37151,0.12442 -2.61264,0.0508 -2.61264,-0.79718 z m 16.75912,0.54586 c -0.23338,-0.39137 0.55501,-17.86669 0.84535,-18.73761 0.11961,-0.35881 1.06933,-0.57127 2.55371,-0.57127 h 2.36328 l -0.32532,6.83454 -0.32533,6.83454 3.34632,0.13494 3.34631,0.13494 0.13506,2.56055 0.13504,2.56057 -2.82992,0.29578 c -3.82902,0.40021 -8.9935,0.37397 -9.2445,-0.047 z m 12.66088,-4.11313 c 0.14831,-2.45074 0.39862,-6.76953 0.55626,-9.59731 l 0.28663,-5.14142 1.43535,-0.0541 c 3.3489,-0.12634 3.93557,0.40471 5.08582,4.60366 0.4851,1.77085 0.9933,3.21668 1.12935,3.21293 0.13604,-0.004 0.97785,-1.80324 1.8707,-3.99888 1.4223,-3.49765 1.77498,-4.00988 2.8476,-4.13584 0.83112,-0.0976 1.59393,0.22593 2.37552,1.00752 1.14976,1.14975 1.15128,1.16273 1.15128,9.85532 v 8.70406 h -2.74209 -2.74208 l -0.0202,-2.62783 -0.0202,-2.62784 -0.888,1.68116 c -0.95344,1.80503 -2.49223,2.62007 -3.345,1.77171 -0.28889,-0.28741 -0.76668,-1.18188 -1.06176,-1.98772 -0.52131,-1.42365 -0.53749,-1.39073 -0.57127,1.16269 l -0.0347,2.62783 h -2.79139 -2.79139 z m 17.65254,3.56727 c 0,-1.20106 3.6686,-12.2619 5.1853,-15.6337 1.07871,-2.3981 1.29605,-2.60601 3.03057,-2.89905 2.32257,-0.3924 3.84114,0.48356 4.52452,2.60989 0.38761,1.206 3.25513,15.87109 3.25513,16.64734 0,0.11428 -1.28536,0.14653 -2.85634,0.0717 l -2.85635,-0.13606 -0.14488,-1.76481 c -0.13987,-1.70367 -0.1933,-1.75512 -1.54243,-1.4853 -0.76864,0.15373 -1.65057,0.27951 -1.95982,0.27951 -0.30926,0 -0.75312,0.66839 -0.98636,1.4853 -0.40794,1.42881 -0.52343,1.49051 -3.03671,1.62236 -2.3715,0.12442 -2.61263,0.0508 -2.61263,-0.79718 z m -57.73822,-1.5107 c -0.12679,-0.3142 -0.23051,-0.0571 -0.23051,0.57127 0,0.62839 0.10372,0.88546 0.23051,0.57126 0.12678,-0.31419 0.12678,-0.82833 0,-1.14253 z m 23.91912,-1.05526 c 0,-0.39187 -0.20901,-0.58331 -0.46448,-0.42543 -0.25545,0.15788 -0.34614,0.4785 -0.20153,0.71249 0.39177,0.6339 0.66601,0.51571 0.66601,-0.28706 z m 47.07253,0 c 0,-0.39187 -0.20901,-0.58331 -0.46447,-0.42543 -0.25546,0.15788 -0.34615,0.4785 -0.20154,0.71249 0.39177,0.6339 0.66601,0.51571 0.66601,-0.28706 z m -79.25225,-2.25475 c 1.05922,-1.61659 1.42776,-8.36933 0.52205,-9.56564 -0.64583,-0.85304 -0.6889,-0.84328 -1.45758,0.32987 -1.10496,1.68638 -1.91968,7.74952 -1.24137,9.23825 0.65509,1.43778 1.23364,1.43712 2.1769,-0.003 z m 28.05958,-3.54522 c -0.008,-1.21944 -0.88384,-2.87514 -0.90627,-1.7138 -0.007,0.37703 -0.13724,1.14825 -0.2888,1.7138 -0.2026,0.75597 -0.0799,1.02829 0.46324,1.02829 0.46359,0 0.73623,-0.38307 0.73183,-1.02829 z m 47.07253,0 c -0.008,-1.21944 -0.88384,-2.87514 -0.90627,-1.7138 -0.007,0.37703 -0.13724,1.14825 -0.2888,1.7138 -0.2026,0.75597 -0.0799,1.02829 0.46325,1.02829 0.46358,0 0.73622,-0.38307 0.73182,-1.02829 z m -60.20471,-2.0776 c 0.43988,-0.38054 0.79978,-1.27699 0.79978,-1.99211 0,-1.17274 -0.15159,-1.30021 -1.54625,-1.30021 -1.64694,0 -2.09036,0.6894 -2.10363,3.27057 -0.005,1.02954 0.15001,1.17599 1.02204,0.96384 0.56556,-0.1376 1.38819,-0.56154 1.82806,-0.94209 z m -30.58995,-0.16163 c 1.27132,-0.66917 1.66802,-1.27469 1.67676,-2.55942 0.007,-1.1257 -0.64472,-1.27915 -2.47683,-0.58258 -0.95235,0.36208 -1.17229,0.74792 -1.17229,2.05657 0,1.71588 0.37867,1.92428 1.97236,1.08543 z m 105.92225,-25.83409 c -2.98371,-6.21823 -7.09188,-11.88268 -13.38845,-18.46036 -7.92874,-8.2827 -16.44511,-13.13371 -27.32496,-15.56456 -1.13112,-0.25272 -6.99233,-0.61248 -13.02493,-0.79947 -11.84523,-0.36716 -13.03436,-0.60701 -14.20174,-2.86446 -1.81959,-3.5187 0.43977,-7.77218 5.06347,-9.53253 2.91426,-1.10952 10.32955,-2.73927 16.45051,-3.6155 10.53531,-1.50818 16.5484,-4.02112 21.54156,-9.00249 9.66465,-9.64181 8.56849,-23.14955 -3.08998,-38.07677 -5.1386,-6.57933 -6.34265,-8.58003 -6.33052,-10.51897 0.0249,-3.98284 3.08145,-4.90183 8.0169,-2.41041 3.74578,1.89086 6.66454,4.27564 12.61384,10.30612 13.82861,14.01732 20.42279,26.65794 23.76205,45.55026 0.94256,5.33274 0.79492,23.17316 -0.24397,29.47746 -1.5119,9.17479 -3.62296,17.53902 -6.51709,25.82134 -0.65875,1.88519 -1.24579,3.48487 -1.30453,3.55484 -0.0588,0.07 -0.96871,-1.66905 -2.02216,-3.8645 z m 32.60289,-29.87935 c -3.0756,-1.18327 -5.6325,-3.4402 -7.29221,-6.43671 -1.22208,-2.20639 -1.35649,-2.8566 -1.35649,-6.56219 0,-3.69964 0.13549,-4.35772 1.34772,-6.54607 1.44889,-2.61558 3.38848,-4.37542 6.63708,-6.02199 2.60258,-1.31912 7.97204,-1.43744 10.75282,-0.23692 5.98246,2.58273 9.51838,9.04453 8.38237,15.31856 -1.52614,8.42859 -10.53091,13.5402 -18.47129,10.48532 z m 36.36429,-4.65838 c -0.005,-2.72009 -1.64731,-13.42078 -2.78252,-18.12095 -4.21697,-17.45973 -12.91026,-26.84952 -28.75837,-31.06243 -4.67578,-1.24297 -8.62857,-1.79606 -16.59456,-2.32197 -5.54593,-0.36614 -7.21183,-0.64587 -9.16115,-1.53831 -4.52918,-2.07353 -7.47362,-5.52058 -6.9095,-8.08898 0.79841,-3.63511 6.33615,-8.12404 12.61989,-10.22975 1.85576,-0.62188 6.5618,-1.57114 10.45785,-2.10948 17.78325,-2.45719 23.73372,-4.82505 30.5988,-12.1761 8.03181,-8.60039 10.24614,-20.4413 5.95558,-31.84693 -1.07686,-2.86262 -3.94662,-7.34306 -7.07156,-11.04055 -3.07871,-3.64278 -4.08205,-5.93459 -4.10159,-9.36881 -0.0198,-3.49015 1.06247,-5.43213 3.79196,-6.80378 3.99373,-2.00695 8.35447,-1.56451 12.78151,1.29683 2.16126,1.39689 3.67959,3.04008 7.47151,8.08595 12.53133,16.67533 21.03725,30.63679 25.85444,42.43698 1.82128,4.4614 2.19314,5.56923 3.60493,10.73985 2.1375,7.8285 2.64526,21.7701 1.11768,30.68884 -3.15109,18.39761 -13.12979,33.16094 -33.60391,49.71643 -2.5068,2.02702 -4.71761,3.68548 -4.91291,3.68548 -0.1953,0 -0.35644,-0.87404 -0.35808,-1.94232 z m -170.9206,-4.51809 c -9.91264,-1.01499 -18.58549,-3.51015 -26.93409,-7.74887 -8.92151,-4.52961 -12.38016,-8.53968 -12.35916,-14.32963 0.0229,-6.32388 4.71931,-11.7102 10.84252,-12.43541 4.02008,-0.47612 10.78785,1.98985 16.2797,5.93178 1.22372,0.87837 5.4761,4.7932 9.44973,8.69965 3.97363,3.90644 8.93645,8.37665 11.02849,9.93379 4.53565,3.37596 10.7519,6.45727 15.42193,7.64443 l 3.39196,0.86226 -2.93494,0.52391 c -7.23565,1.29163 -16.94036,1.66002 -24.18614,0.91809 z m 51.8712,-20.68726 c -4.92436,-1.56145 -8.68358,-4.70913 -10.93241,-9.15393 -1.74905,-3.457 -2.14113,-8.54081 -0.94088,-12.19985 2.49457,-7.60489 8.92596,-12.28869 16.85714,-12.2766 5.55335,0.008 9.92727,1.85733 13.45946,5.68931 3.06081,3.32057 3.91017,5.64456 3.93193,10.75829 0.0161,3.77605 -0.14093,4.68175 -1.20521,6.95242 -2.34772,5.00891 -5.90014,8.28313 -10.75853,9.91601 -3.2215,1.08273 -7.57384,1.21414 -10.4115,0.31435 z m -35.94786,-1.19679 c -2.32754,-1.22963 -4.34402,-3.84194 -4.96555,-6.43276 -0.97359,-4.05838 1.25095,-8.69663 5.17559,-10.79133 2.25174,-1.20182 6.49106,-1.05891 8.88191,0.29942 6.70576,3.80978 6.46034,13.44381 -0.43253,16.97868 -2.26331,1.16069 -6.40907,1.13483 -8.65942,-0.054 z m -74.64976,-3.74098 c -3.65102,-1.27622 -6.2643,-4.62397 -9.02348,-11.55949 -3.58729,-9.01712 -5.27335,-16.74452 -5.68386,-26.04985 -0.64981,-14.72969 3.68868,-29.04915 13.00075,-42.90969 14.41436,-21.45505 35.78486,-32.75016 62.26107,-32.90732 8.11769,-0.0482 10.6969,0.24834 18.2806,2.10168 11.1364,2.72156 21.54446,8.82688 24.31899,14.26541 1.88797,3.70071 1.02009,9.74043 -1.83524,12.77195 -3.62097,3.84437 -7.88987,5.03088 -19.97017,5.55053 -20.77966,0.89388 -33.90388,5.90718 -45.30244,17.305 -6.35803,6.35764 -10.56349,12.96876 -14.12339,22.20251 -2.25328,5.84461 -3.84454,12.26669 -7.11817,28.72774 -0.4992,2.5102 -1.94508,5.7856 -3.3905,7.68065 -2.03395,2.66666 -7.78751,4.08858 -11.41416,2.82088 z m 184.4711,-2.43414 c -1.91988,-1.61547 -2.58361,-3.80406 -1.75071,-5.7728 1.03755,-2.45246 2.37181,-3.35255 4.96971,-3.35255 1.99154,0 2.44052,0.18572 3.60813,1.49251 1.06243,1.18905 1.33356,1.91849 1.33356,3.58757 0,1.77326 -0.23867,2.33373 -1.55385,3.64891 -2.00272,2.00272 -4.51842,2.15364 -6.60684,0.39636 z m -126.86701,-16.7244 c -5.85622,-1.37187 -11.93913,-6.57038 -14.73335,-12.59126 -1.47394,-3.17599 -1.68237,-4.08754 -1.86964,-8.17689 -0.32824,-7.16718 1.31696,-11.69716 6.01425,-16.56 4.43088,-4.58704 9.51992,-6.67275 16.28122,-6.67275 6.35907,0 10.7921,1.69894 15.00017,5.74875 5.41168,5.20817 7.78047,12.94277 6.30113,20.57453 -2.12456,10.96031 -10.84743,18.28522 -21.61039,18.14704 -1.96654,-0.0252 -4.38907,-0.23649 -5.38339,-0.46942 z m 95.49591,-29.76168 c -3.97071,-6.11771 -10.71076,-11.5674 -19.56928,-15.82284 -7.94617,-3.81717 -12.03169,-7.56894 -14.78044,-13.57299 -1.7753,-3.87776 -1.77107,-8.74354 0.0102,-11.7831 3.15103,-5.37682 11.58725,-6.83658 19.2461,-3.33025 4.67906,2.14215 10.43339,8.69839 13.27608,15.12622 1.78338,4.03256 2.92162,8.66241 3.65566,14.8697 0.70554,5.96626 0.92433,17.38375 0.33246,17.34956 -0.18852,-0.0109 -1.16539,-1.28723 -2.17082,-2.8363 z m -51.09851,-0.78632 c -2.48168,-0.47846 -5.32113,-2.64724 -6.59967,-5.04086 -1.53333,-2.87064 -1.33149,-7.26097 0.45817,-9.96532 3.44065,-5.19918 10.95952,-5.87773 15.28946,-1.37982 1.53176,1.59118 2.87578,4.7062 2.87578,6.66518 0,6.04331 -5.98806,10.88447 -12.02374,9.72082 z m 235.62175,-5.81956 c -0.74993,-0.95419 -1.71742,-2.42641 -2.14999,-3.27161 -0.90809,-1.77436 -1.57461,-6.96588 -0.80016,-6.23253 0.62047,0.58757 4.78683,10.76587 4.51722,11.03548 -0.11195,0.11195 -0.81712,-0.57716 -1.56707,-1.53134 z m -149.56159,-1.37615 c -0.6284,-0.11127 -2.60383,-0.89932 -4.38984,-1.75122 -8.11331,-3.86993 -13.30978,-13.56629 -11.68135,-21.79682 1.80386,-9.1172 9.04632,-16.26277 17.9201,-17.68036 12.04327,-1.92392 23.74392,8.30036 23.74392,20.74794 0,9.49928 -6.29168,17.75355 -15.32598,20.10669 -2.50673,0.65292 -7.63585,0.83965 -10.26685,0.37377 z m -27.19239,-45.42429 c -4.11229,-0.5926 -10.04282,-2.39877 -17.75844,-5.40843 -9.80559,-3.8249 -17.40515,-6.23398 -27.25753,-8.64071 -13.40052,-3.27345 -30.67148,-5.38297 -41.13824,-5.02471 -2.76114,0.0945 -5.02027,0.0419 -5.02027,-0.11683 0,-0.60022 10.11446,-7.3589 13.91432,-9.29782 9.64575,-4.92186 22.70856,-8.74558 36.3033,-10.62665 7.37559,-1.02054 23.92221,-0.99858 31.58805,0.042 6.83137,0.92723 16.02519,2.73433 19.0601,3.74636 5.39945,1.80053 10.84356,5.35164 13.71409,8.94548 4.7385,5.93253 4.4503,15.54883 -0.62874,20.97873 -4.3193,4.61768 -13.35337,6.76057 -22.77664,5.40265 z M 420.84167,526.27731 c 0,-0.43543 7.97856,-8.76777 10.81731,-11.29697 1.21419,-1.0818 -0.67158,1.00669 -4.1906,4.64107 -3.51901,3.63438 -6.44962,6.69365 -6.51246,6.79838 -0.0629,0.10474 -0.11425,0.0406 -0.11425,-0.14248 z m 28.33492,-12.38734 c 1.3653,-1.38247 2.58519,-2.51358 2.71087,-2.51358 0.12568,0 -0.88855,1.13111 -2.25385,2.51358 -1.3653,1.38247 -2.58519,2.51358 -2.71087,2.51358 -0.12568,0 0.88856,-1.13111 2.25385,-2.51358 z"
   id="path2-0"
   style="stroke-width:0.457015" /></svg>
