<?xml version="1.0" encoding="UTF-8" standalone="no"?>
<svg
   version="1.0"
   width="1174.000000pt"
   height="1280.000000pt"
   viewBox="0 0 1174.000000 1280.000000"
   preserveAspectRatio="xMidYMid meet"
   id="svg3"
   sodipodi:docname="MazoLaPalma.svg"
   xml:space="preserve"
   inkscape:version="1.4 (86a8ad7, 2024-10-11)"
   xmlns:inkscape="http://www.inkscape.org/namespaces/inkscape"
   xmlns:sodipodi="http://sodipodi.sourceforge.net/DTD/sodipodi-0.dtd"
   xmlns="http://www.w3.org/2000/svg"
   xmlns:svg="http://www.w3.org/2000/svg"><defs
   id="defs3" /><sodipodi:namedview
   id="namedview3"
   pagecolor="#ffffff"
   bordercolor="#000000"
   borderopacity="0.25"
   inkscape:showpageshadow="2"
   inkscape:pageopacity="0.0"
   inkscape:pagecheckerboard="0"
   inkscape:deskcolor="#d1d1d1"
   inkscape:document-units="pt"
   showgrid="false"
   showguides="true"
   inkscape:zoom="0.68378906"
   inkscape:cx="788.98601"
   inkscape:cy="767.04942"
   inkscape:window-width="2560"
   inkscape:window-height="1369"
   inkscape:window-x="1912"
   inkscape:window-y="-8"
   inkscape:window-maximized="1"
   inkscape:current-layer="svg3"><inkscape:grid
     id="grid22"
     units="pt"
     originx="0"
     originy="0"
     spacingx="0.99999997"
     spacingy="1"
     empcolor="#0099e5"
     empopacity="0.30196078"
     color="#c3dfe2"
     opacity="0.14901961"
     empspacing="5"
     enabled="true"
     visible="false" /></sodipodi:namedview><metadata
   id="metadata1">
                Created by potrace 1.15, written by Peter Selinger 2001-2017
                </metadata><g
   transform="translate(0.000000,1280.000000) scale(0.100000,-0.100000)"
   fill="#000000"
   stroke="none"
   id="g3"><path
     d="M4425 12777 c-33 -13 -100 -45 -150 -71 -379 -205 -660 -325 -1163 -497 -373 -127 -591 -189 -982 -279 -288 -67 -505 -172 -631 -306 -96 -103 -206 -267 -284 -424 -74 -146 -225 -631 -225 -720 0 -46 -33 -122 -85 -197 -57 -80 -108 -180 -125 -243 -7 -25 -18 -91 -25 -147 -11 -93 -16 -106 -45 -140 -74 -83 -112 -218 -125 -443 -14 -224 -31 -299 -160 -715 -208 -666 -337 -1170 -379 -1470 -23 -170 -40 -450 -41 -665 0 -177 2 -198 20 -229 14 -24 33 -38 60 -47 22 -7 101 -34 175 -60 494 -172 676 -225 830 -243 47 -6 171 -15 275 -21 553 -30 550 -30 628 -94 23 -19 75 -50 115 -69 40 -20 79 -41 87 -47 31 -25 13 -119 -73 -390 -68 -214 -77 -270 -76 -495 0 -192 16 -350 44 -445 18 -61 11 -118 -29 -243 -52 -160 -59 -187 -76 -282 -33 -180 -11 -367 65 -555 23 -58 55 -138 71 -177 48 -120 48 -167 0 -310 -67 -202 -76 -331 -33 -468 25 -76 39 -266 52 -720 13 -415 25 -626 45 -738 27 -155 83 -358 110 -399 49 -73 47 -73 525 -73 550 -1 623 -10 1165 -155 339 -91 577 -141 775 -164 74 -9 172 -21 216 -27 120 -17 1068 -5 1274 16 501 50 805 136 1575 445 578 232 843 312 1155 350 140 17 267 39 295 52 28 13 47 56 66 153 21 108 18 684 -4 880 -22 184 -49 322 -82 414 -14 37 -25 85 -25 105 0 22 29 111 70 218 122 312 150 436 150 668 0 179 -9 228 -60 346 -52 118 -52 173 -5 435 53 291 63 427 71 987 l7 502 119 0 c216 0 330 38 475 159 45 37 105 78 135 89 29 12 139 40 244 61 246 51 330 72 543 133 452 128 734 261 757 354 25 99 -230 1009 -571 2044 -63 190 -121 372 -129 405 -11 44 -15 109 -14 250 2 218 -8 268 -82 385 -78 124 -99 179 -115 296 -71 508 -233 1141 -356 1388 -152 305 -399 488 -961 709 -91 37 -382 142 -645 235 -750 265 -940 346 -1193 509 -161 103 -181 113 -229 113 -22 0 -97 -21 -168 -46 -241 -86 -481 -136 -808 -170 -239 -25 -777 -25 -955 -1 -299 42 -516 107 -849 256 -62 28 -127 51 -145 50 -17 0 -58 -10 -91 -22z m135 -344 c131 -219 259 -382 441 -559 197 -191 322 -277 501 -344 298 -112 466 -120 743 -33 113 35 332 142 444 217 163 109 511 444 670 645 36 46 73 92 81 103 14 18 19 16 111 -46 110 -73 139 -105 139 -150 0 -61 -147 -315 -287 -494 -295 -378 -737 -627 -1229 -693 -146 -19 -423 -7 -573 26 -494 106 -925 402 -1218 835 -116 172 -195 331 -197 399 -1 40 3 47 41 79 37 31 228 149 245 151 4 1 43 -61 88 -136z m378 -47 c324 -106 392 -118 769 -137 172 -8 291 -8 483 0 451 21 624 40 870 101 68 16 133 30 143 30 17 0 17 -2 -3 -29 -50 -72 -271 -288 -320 -315 -66 -36 -292 -93 -423 -106 -170 -18 -717 -25 -847 -11 -214 22 -545 107 -644 165 -25 14 -65 52 -89 84 -63 82 -164 227 -182 262 -14 27 -14 30 0 30 9 0 118 -33 243 -74z m-813 -236 c43 -80 96 -171 118 -204 62 -92 202 -249 353 -397 220 -214 291 -268 472 -359 306 -153 573 -219 879 -220 460 0 900 161 1259 463 203 170 366 373 525 656 35 62 73 120 85 128 19 12 47 4 285 -86 145 -54 433 -158 639 -231 980 -346 1165 -433 1380 -649 79 -80 104 -113 147 -196 46 -89 143 -347 143 -380 0 -35 -291 -516 -338 -558 -19 -18 -20 -17 -30 42 -22 126 -94 235 -163 246 -100 17 -204 -27 -197 -84 3 -26 4 -26 93 -26 118 -1 112 1 135 -44 24 -48 35 -132 26 -195 -6 -41 -13 -50 -49 -73 -23 -14 -106 -91 -183 -170 -78 -78 -146 -143 -153 -143 -24 0 -13 80 52 390 33 153 37 184 26 201 -23 37 -85 -58 -118 -181 -30 -112 -87 -424 -111 -605 -30 -232 -47 -548 -80 -1440 -40 -1105 -60 -1613 -70 -1773 -16 -234 -49 -351 -417 -1452 -421 -1263 -610 -1736 -937 -2342 l-48 -88 40 0 c33 0 45 6 72 37 152 172 440 835 776 1783 48 135 122 340 166 455 44 116 118 316 165 445 86 236 126 330 142 330 15 0 21 -103 21 -400 0 -412 -15 -600 -80 -975 -57 -327 -108 -468 -317 -875 -179 -349 -366 -677 -633 -1115 -144 -234 -212 -357 -225 -402 -8 -31 35 -54 61 -32 78 65 633 1013 956 1634 173 334 181 343 223 260 18 -35 20 -59 19 -195 0 -129 -5 -173 -26 -266 -45 -193 -175 -510 -287 -702 -61 -104 -160 -219 -408 -474 -209 -215 -303 -325 -303 -354 0 -31 58 -4 152 73 95 77 433 425 551 568 55 66 103 121 107 123 17 7 69 -193 90 -343 37 -272 54 -759 30 -846 -13 -48 -41 -59 -166 -69 -291 -24 -630 -128 -1299 -397 -691 -279 -1160 -400 -1704 -443 -204 -15 -760 -13 -916 5 -295 33 -612 98 -1025 210 -151 41 -331 86 -400 99 -263 53 -624 86 -951 86 -179 0 -198 4 -215 47 -22 51 -51 239 -68 433 -21 242 -25 318 -37 695 -11 356 -24 478 -64 595 -31 89 -29 125 16 256 81 240 78 367 -16 584 -124 286 -124 451 1 831 30 91 54 175 54 186 0 12 -13 76 -29 144 -41 174 -55 299 -48 448 6 140 22 227 74 405 20 67 47 164 60 216 13 52 29 99 34 105 15 15 35 -15 54 -85 35 -133 246 -715 381 -1050 190 -474 688 -1350 990 -1740 119 -154 344 -383 367 -374 37 14 7 77 -96 201 -218 263 -307 387 -454 633 -316 531 -717 1335 -858 1721 -159 434 -498 1522 -551 1769 -80 372 -124 685 -128 923 -2 120 -11 225 -29 347 -60 403 -82 737 -74 1155 6 285 16 418 62 825 23 205 30 426 16 501 -28 140 -82 227 -189 306 -43 31 -96 74 -118 95 -48 46 -95 60 -145 44 -48 -16 -66 -59 -79 -196 -13 -134 -28 -220 -39 -220 -25 0 -103 114 -176 260 -72 141 -67 180 46 419 112 235 245 403 386 487 112 66 177 88 495 164 502 121 1189 344 1593 518 77 33 143 57 146 54 4 -4 41 -72 84 -152z m1273 -326 c118 -31 278 -43 552 -44 274 0 504 15 603 41 43 11 82 17 86 14 16 -17 -178 -130 -324 -188 -146 -58 -233 -72 -445 -72 -177 1 -188 2 -252 27 -163 65 -371 186 -403 235 l-17 26 51 -7 c29 -4 95 -18 149 -32z m-3590 -1191 c51 -36 118 -118 147 -178 34 -68 49 -186 41 -320 -9 -144 -24 -230 -45 -257 l-18 -21 -50 27 c-131 72 -293 216 -349 312 -35 60 -24 75 52 67 54 -6 54 -6 68 28 8 19 19 77 26 129 12 95 35 214 46 231 10 17 46 9 82 -18z m8664 -214 c41 -112 106 -460 133 -719 22 -209 27 -223 90 -289 29 -31 63 -76 76 -101 23 -43 24 -52 21 -226 -3 -217 -1 -222 142 -659 207 -630 479 -1522 480 -1574 1 -33 -2 -35 -59 -58 -117 -46 -352 -115 -682 -198 -332 -85 -405 -109 -417 -140 -22 -58 68 -49 449 46 110 28 277 72 372 100 188 54 328 89 356 89 20 0 57 -72 78 -151 17 -64 0 -88 -96 -135 -88 -42 -396 -145 -611 -204 -198 -54 -525 -120 -597 -120 l-57 0 0 33 c0 17 7 145 15 282 30 524 46 1207 66 2890 l10 900 51 80 c82 131 139 206 151 202 7 -2 19 -24 29 -48z m-9186 -81 c31 -51 88 -130 126 -175 102 -120 310 -317 427 -403 l102 -75 -5 -65 c-3 -36 -11 -126 -17 -200 -22 -251 0 -1003 41 -1400 11 -107 31 -330 45 -495 14 -165 32 -351 40 -413 23 -181 117 -568 239 -985 60 -206 60 -257 -1 -257 -45 0 -91 28 -175 108 -112 106 -120 108 -318 92 -289 -24 -526 -1 -851 80 -289 72 -680 220 -732 277 -21 24 -25 96 -7 118 23 28 48 22 514 -126 47 -15 103 -11 110 7 23 59 -88 119 -488 264 l-118 43 6 61 c14 126 92 527 146 754 70 287 223 815 314 1081 74 217 129 489 146 730 5 70 14 140 20 155 6 16 35 62 65 103 66 91 90 161 100 298 8 119 19 147 85 231 66 84 89 129 96 189 8 74 13 95 24 95 5 0 34 -42 66 -92z m8849 -410 c16 -72 -34 -3172 -55 -3404 -14 -159 -52 -232 -163 -316 -83 -64 -190 -116 -273 -133 -78 -16 -284 -34 -284 -25 0 4 7 51 15 106 35 239 54 795 65 1854 11 1072 24 1279 85 1405 40 82 338 445 366 445 36 0 8 -214 -100 -770 -85 -438 -138 -660 -207 -872 -62 -191 -104 -361 -104 -418 0 -39 4 -52 22 -64 25 -18 41 -9 63 35 26 50 135 459 239 894 67 281 107 498 167 889 41 274 52 308 117 379 33 35 39 34 47 -5z m-97 -3826 c8 -57 -133 -218 -235 -268 -75 -37 -199 -44 -329 -19 -93 18 -134 36 -134 59 0 26 30 38 112 47 116 13 289 70 431 145 67 35 129 62 137 61 8 -1 16 -12 18 -25z"
     id="path1" /><path
     d="M2403 2124 c-8 -22 16 -40 172 -123 195 -105 980 -467 1320 -609 370 -155 635 -231 708 -203 73 28 -1 71 -298 176 -403 142 -868 335 -1414 587 -415 191 -473 211 -488 172z"
     id="path3" /></g><path
   style="display:inline;fill:#c3dfe2;fill-opacity:1;stroke:#f5deb3;stroke-width:2.92488"
   d="m 680.03428,1678.2954 c -28.15834,-2.5608 -83.58359,-13.6088 -141.85662,-28.2763 -67.97198,-17.1088 -98.15435,-21.6662 -163.78753,-24.7312 l -42.40506,-1.9803 -3.34704,-10.238 c -4.79066,-14.6539 -9.38469,-64.7956 -12.69272,-138.5351 -1.87066,-41.699 -4.50541,-69.784 -7.57197,-80.7131 -4.48696,-15.9915 -4.4224,-17.7039 1.40526,-37.2721 9.03357,-30.333 8.04136,-49.1775 -4.502,-85.5045 -9.50101,-27.5159 -10.4394,-32.8778 -8.97577,-51.2865 0.89899,-11.3069 5.54091,-33.1217 10.31538,-48.4773 l 8.68086,-27.9192 -5.8366,-27.6535 c -4.1865,-19.8353 -5.43761,-34.2688 -4.42532,-51.0525 1.48475,-24.617 19.11238,-96.89797 22.67202,-92.96521 1.14197,1.26171 6.36889,15.45594 11.61537,31.54281 37.9734,116.4346 84.80622,213.8056 150.52615,312.962 25.47122,38.4302 66.61628,86.2839 74.18777,86.2839 8.44359,0 1.32833,-13.5816 -24.52233,-46.808 -30.57677,-39.3011 -54.30859,-77.6599 -89.56725,-144.7716 -51.60101,-98.2178 -70.89096,-144.0372 -102.20395,-242.76488 -44.00028,-138.72986 -55.06041,-188.49456 -61.10471,-274.93859 -1.79971,-25.73893 -4.54248,-53.37904 -6.09505,-61.42245 -1.55257,-8.04342 -3.62293,-47.5833 -4.60079,-87.86637 -1.41342,-58.22556 -0.73829,-83.71464 3.29292,-124.32187 2.78898,-28.09396 4.60841,-64.40164 4.04318,-80.68376 -1.20853,-34.81293 -4.84046,-41.81676 -33.03973,-63.71397 -27.58646,-21.42134 -35.03134,-18.00108 -40.15237,18.44642 l -3.44873,24.54539 -5.65792,-6.98724 c -8.70182,-10.7463 -22.56088,-39.6881 -22.5728,-47.13868 -0.006,-3.66541 6.59719,-19.97296 14.67345,-36.239 16.06591,-32.35765 35.23002,-55.12547 54.80659,-65.11269 6.51233,-3.32234 37.30935,-12.74567 68.43783,-20.94072 75.99035,-20.00565 156.52444,-46.628613 217.86971,-72.023386 1.85051,-0.766047 10.19662,10.721107 18.79205,25.864447 12.75955,22.479589 22.40498,34.176619 55.16853,66.903099 43.76087,43.71131 61.99353,55.4658 111.36505,71.79638 23.33099,7.71718 27.92238,8.22341 74.5844,8.22341 46.57159,0 51.2986,-0.51853 74.58441,-8.18158 66.57415,-21.90867 116.90944,-62.47196 155.59985,-125.39193 10.4993,-17.074475 19.4325,-28.517568 22.2624,-28.517568 5.6675,0 179.8901,62.747738 221.3705,79.728448 69.2085,28.3317 93.8075,51.63726 112.9414,107.00272 6.2263,18.01631 6.6407,16.71833 -18.5694,58.16597 -18.843,30.97951 -21.4624,33.16431 -23.9383,19.96661 -2.7247,-14.52365 -14.8075,-27.94858 -25.1545,-27.94858 -13.1188,0 -23.3294,5.01872 -23.3294,11.46686 0,4.7988 2.3222,5.9109 13.8931,6.65337 13.2522,0.85035 14.0619,1.40802 17.5481,12.08657 2.0102,6.1573 2.8097,14.05448 1.7767,17.54927 -1.8492,6.2557 -47.0559,50.52634 -49.3016,48.28068 -0.6339,-0.634 2.0294,-17.42406 5.9186,-37.31124 3.8892,-19.88717 6.409,-37.23 5.5996,-38.53963 -2.9432,-4.76222 -9.7088,1.00054 -14.1211,12.02815 -5.2037,13.00518 -14.8692,60.90989 -19.1713,95.01819 -4.0425,32.04933 -7.9509,108.147 -13.3697,260.31419 -2.5205,70.78207 -5.7824,143.41774 -7.2485,161.41262 -3.2011,39.28904 -8.0585,56.54495 -56.656,201.27234 -53.9808,160.7596 -70.2402,202.6865 -107.4723,277.1322 -22.4249,44.8389 -22.8452,46.0669 -15.7684,46.0669 19.6255,0 51.0716,-68.6079 128.6978,-280.7884 22.0701,-60.3256 41.9917,-112.97341 44.2702,-116.99511 3.6392,-6.42353 3.9948,1.04119 2.9258,61.42241 -1.2401,70.0479 -6.2423,112.0354 -18.1197,152.0937 -10.0324,33.8356 -51.1229,112.8913 -110.7995,213.1718 -40.2105,67.5695 -41.9946,71.7019 -30.2283,70.0137 4.3587,-0.6254 11.1752,-7.998 20.601,-22.2816 18.1293,-27.4726 73.4191,-123.7465 104.4831,-181.9322 13.312,-24.9345 25.5565,-47.0431 27.2099,-49.1301 5.3684,-6.776 7.8178,2.2797 7.8652,29.0791 0.05,28.349 -5.1972,48.7431 -23.2533,90.3735 -14.925,34.4114 -23.79,46.5954 -70.9404,97.4999 -38.5936,41.6664 -45.4909,51.5435 -35.9937,51.5435 6.9935,0 41.7675,-31.7367 73.1971,-66.8037 16.0868,-17.9486 30.1304,-32.6357 31.208,-32.6379 4.2236,-0.01 11.1289,41.8804 14.3445,87.0171 3.3853,47.5191 2.3993,66.0351 -3.718,69.8158 -1.801,1.1131 -14.5829,3.7213 -28.4043,5.7961 -32.4801,4.8757 -67.4994,15.152 -120.1883,35.2687 -145.11012,55.4033 -183.96151,66.5873 -256.96798,73.9726 -28.24374,2.8571 -101.04168,3.4369 -127.65354,1.0167 z m -63.49046,-134.9439 c -0.51408,-2.6693 -8.94911,-7.6848 -19.88651,-11.8245 -75.46474,-28.5627 -136.80955,-53.6569 -196.61809,-80.43 -38.17209,-17.0876 -72.16063,-31.0684 -75.53009,-31.0684 -24.31177,0 28.33341,29.1396 149.3212,82.6507 67.04179,29.6516 101.60508,42.5497 122.84491,45.8422 15.75246,2.4418 21.0681,1.0587 19.86858,-5.17 z"
   id="path81"
   transform="scale(0.75)" /><path
   fill="#000000"
   d="m 568.33619,877.36073 c -0.87976,-0.1052 -3.65612,-0.41195 -6.1697,-0.68159 -17.81575,-1.91169 -35.81716,-6.9023 -57.75766,-16.0126 -25.9028,-10.75551 -49.63464,-26.64211 -69.53369,-46.5473 -15.32603,-15.33078 -26.55801,-32.30481 -38.56768,-58.28442 -4.8794,-10.55525 -7.21399,-17.64686 -16.77374,-50.95241 -9.4718,-32.99916 -10.56654,-45.25506 -6.55505,-73.38573 5.22571,-36.64545 17.88894,-68.08422 37.72452,-93.658 4.7042,-6.06504 7.09661,-8.71528 4.33186,-4.79865 -17.87099,25.31641 -27.53736,47.06105 -35.38674,79.60299 -5.17298,21.44615 -6.00673,43.90679 -2.36349,63.67119 1.62041,8.79068 1.74336,8.50231 1.75375,-4.11313 0.0103,-12.49372 0.18157,-15.92082 1.27897,-25.59284 4.45364,-39.25252 20.64298,-76.60261 47.64127,-109.91209 4.97415,-6.13693 11.63141,-13.73054 11.84777,-13.51417 0.0918,0.0918 -1.65804,2.50171 -3.88862,5.35527 -25.43646,32.54063 -39.71973,62.8971 -45.33754,96.35669 -6.88008,40.97762 -4.60902,77.4289 6.67129,107.07657 4.20174,11.04329 14.23674,27.36098 24.7939,40.31684 9.51377,11.67541 22.88933,24.7086 35.48044,34.57227 9.87512,7.73601 36.58192,23.5975 55.96834,33.24027 21.97515,10.9304 39.65355,16.92091 53.54802,18.1453 l 3.50487,0.30886 -0.5188,1.1971 c -0.95356,2.20028 -2.74357,4.21915 -4.56459,5.14816 l -1.80387,0.92027 -4.73872,-0.95374 c -17.65937,-3.5542 -41.91078,-13.60244 -62.10795,-25.73356 -30.41538,-18.26854 -51.15754,-34.17668 -68.94293,-52.87558 -8.17003,-8.58967 -7.90933,-8.34298 -6.86961,-6.50014 1.28585,2.27912 9.42078,13.03661 12.83209,16.96895 19.22057,22.15618 37.49674,36.20812 63.89448,49.12636 23.87407,11.68323 51.9081,20.9881 70.3803,23.36019 4.96613,0.63772 8.56637,0.72035 21.93672,0.50354 15.26964,-0.24752 23.66549,-0.84611 36.56118,-2.60644 19.69528,-2.68855 47.10986,-8.88472 57.58389,-13.01495 14.59915,-5.75689 30.8213,-15.38891 49.12911,-29.17077 3.64469,-2.74368 6.9352,-5.19192 7.31224,-5.44054 1.35258,-0.89188 -3.54485,3.46715 -9.82583,8.74561 -20.26776,17.03282 -40.32672,29.14336 -57.8642,34.93535 -19.60369,6.47442 -46.15431,11.47443 -71.92804,13.54572 -6.27391,0.50418 -29.95837,0.97618 -32.67656,0.65115 z m 174.59386,-59.67208 c 0.008,-0.0863 3.43095,-3.65298 7.60702,-7.92607 4.17607,-4.27309 6.89507,-6.8438 6.04222,-5.71269 -2.73727,3.63038 -13.73809,14.62275 -13.64924,13.63876 z m 17.46527,-18.66592 c 0.6209,-0.87975 3.06762,-4.27309 5.43717,-7.54075 19.98556,-27.56054 33.11505,-56.469 39.02214,-85.91881 2.77681,-13.84375 3.8541,-24.74261 3.86232,-39.07478 0.0124,-21.75042 -2.54915,-40.9633 -8.09319,-60.70116 l -1.70999,-6.08788 -0.51823,3.34579 c -0.51061,3.29655 -2.20468,9.86361 -2.66259,10.32152 -0.12912,0.12912 -0.4595,-0.35931 -0.73417,-1.08541 -1.65399,-4.3723 -6.60311,-15.29276 -10.23341,-22.58049 -14.0463,-28.19758 -29.82347,-49.51054 -48.85639,-65.99881 -34.49315,-29.88151 -73.89375,-48.07282 -121.18578,-55.95164 -16.45268,-2.741 -20.11716,-3.03572 -37.47522,-3.01403 -17.52255,0.0219 -23.85941,0.5908 -38.15357,3.42531 -27.72495,5.49781 -55.30753,18.32931 -79.99072,37.21193 -4.14664,3.17219 -2.48801,1.32154 2.73357,-3.05 22.54982,-18.87888 47.684,-32.58374 72.74824,-39.66729 16.82721,-4.75564 29.89369,-6.43249 50.05118,-6.4232 34.85231,0.0161 67.10494,7.07324 103.43742,22.63303 18.31029,7.84158 41.65101,22.62927 56.37993,35.71993 5.47039,4.86194 6.62277,5.55322 3.03201,1.81883 -9.05437,-9.41655 -22.96068,-20.67932 -35.41866,-28.68569 -19.30844,-12.40897 -48.17357,-25.53266 -67.1812,-30.54433 -17.34985,-4.57456 -42.02807,-7.33817 -59.41193,-6.65328 -21.92973,0.86398 -39.87906,3.82412 -59.86896,9.87337 -28.95361,8.76181 -55.74492,23.28637 -82.47638,44.71348 -8.55496,6.85738 -8.15432,6.11063 0.89921,-1.67606 26.77833,-23.03128 55.58469,-38.79963 88.20389,-48.28205 12.99527,-3.77773 26.33305,-6.36344 42.9594,-8.32828 9.31253,-1.10052 30.54265,-1.10368 39.9888,-0.006 30.19232,3.50862 55.08604,10.95479 82.94822,24.81129 22.85071,11.36419 38.39196,21.89758 52.50399,35.58563 19.78097,19.18667 38.28207,46.54834 48.05636,71.07156 16.09332,40.37737 21.00567,79.72227 14.55026,116.53881 -5.18114,29.54915 -18.48067,59.56853 -38.26721,86.37583 -4.21214,5.70672 -11.36573,14.67515 -14.03455,17.59507 -1.58369,1.73269 -1.61196,1.74461 -0.54196,0.22851 z M 644.42917,781.51471 c -5.3696,-2.59133 -9.76425,-9.48736 -11.11831,-17.44668 -0.62365,-3.66593 -0.64288,-4.77071 -0.13558,-7.78984 0.82818,-4.92877 3.00246,-9.95347 6.16739,-14.25274 6.98274,-9.48539 18.53374,-16.73291 40.04814,-25.12767 2.89062,-1.1279 5.52635,-2.16167 5.85718,-2.29727 0.33082,-0.1356 -1.13821,2.40281 -3.26452,5.64089 -4.85817,7.39834 -7.09361,11.58009 -9.13276,17.08431 -2.13434,5.76116 -2.99839,10.19249 -3.50709,17.9863 -0.23204,3.5552 -0.81067,7.92248 -1.28583,9.70508 -1.79685,6.741 -6.47934,13.1672 -11.64161,15.97687 -1.92159,1.04586 -3.08165,1.32607 -6.04016,1.45899 -3.14213,0.14117 -3.98606,0.008 -5.94685,-0.93824 z M 464.47188,780.9249 c -0.59378,-0.59378 0.95133,-18.58321 1.63335,-19.01682 0.91661,-0.58276 3.25618,-0.39992 4.30779,0.33665 0.54749,0.38349 1.46609,1.97732 2.04131,3.54187 l 1.04588,2.84463 0.4597,-3.42761 0.4597,-3.42761 h 2.05657 2.05657 l -0.0143,3.08485 c -0.008,1.69667 -0.0592,6.06687 -0.11425,9.71157 l -0.1,6.62672 h -2.47363 -2.47363 l -1.24712,-3.31336 c -2.50309,-6.65023 -2.41002,-6.59818 -2.45162,-1.37105 l -0.0373,4.68441 h -2.43742 c -1.34057,0 -2.56082,-0.12342 -2.71166,-0.27425 z m 15.23216,-5.32419 c 0.0277,-5.39491 0.55804,-12.97483 0.93256,-13.3289 0.0997,-0.0942 3.009,-0.32056 6.46518,-0.50294 l 6.28396,-0.33161 v 2.33149 c 0,2.65102 0.1683,2.55127 -5.14142,3.04742 -2.77202,0.25903 -3.08494,0.38886 -3.08567,1.28017 -7.6e-4,0.92001 0.22285,0.99191 3.08485,0.99191 h 3.08567 v 1.77825 c 0,2.11511 -0.43239,2.41817 -3.99888,2.80279 -2.33605,0.25192 -2.62784,0.39751 -2.62784,1.31112 0,1.00101 0.10098,1.02242 3.88463,0.82383 l 3.88463,-0.20389 v 2.50315 2.50315 l -3.77038,0.29352 c -2.0737,0.16142 -4.9529,0.29473 -6.39821,0.29623 l -2.62783,0.003 z m 15.97422,4.30515 c -1.71162,-1.71161 -2.01146,-4.54285 -1.26663,-11.96015 l 0.57366,-5.71268 2.39933,-0.13814 c 2.80812,-0.16168 2.64924,-0.77747 1.95735,7.58584 -0.23489,2.83946 -0.31237,5.46158 -0.17217,5.82694 0.40641,1.05908 2.39536,0.81163 2.92555,-0.36397 0.25507,-0.56556 0.61057,-3.70182 0.78999,-6.96948 l 0.32622,-5.94119 2.47024,-0.1406 2.47024,-0.1406 -0.27127,6.69526 c -0.2331,5.75298 -0.41995,6.99043 -1.3277,8.7926 -1.35447,2.68903 -3.32236,3.75946 -6.9114,3.75946 -2.32178,0 -2.83885,-0.16872 -3.96341,-1.29329 z m 13.10689,0.97388 c -0.23458,-0.387 0.89712,-17.95753 1.17448,-18.23488 0.0891,-0.0891 1.69208,-0.38042 3.56218,-0.64737 4.5346,-0.64732 6.50898,-0.27532 8.01064,1.5093 1.05551,1.25441 1.17622,1.73586 1.0103,4.02963 -0.14029,1.93965 -0.50618,3.0216 -1.4325,4.23608 l -1.24409,1.63108 1.36622,2.70646 1.36622,2.70646 -1.80022,1.19133 c -0.99011,0.65522 -1.97951,1.19132 -2.19865,1.19132 -0.21914,0 -1.07694,-1.33677 -1.90623,-2.9706 -1.01511,-1.99991 -1.777,-2.9706 -2.33165,-2.9706 -0.69139,0 -0.84571,0.45922 -0.9599,2.85634 l -0.13606,2.85635 -2.12942,0.13761 c -1.17118,0.0757 -2.22928,-0.0272 -2.35132,-0.22851 z m 18.35059,-0.37535 c -0.66639,-0.36199 -1.67104,-1.60716 -2.23254,-2.76707 -0.88619,-1.83064 -0.9882,-2.6007 -0.77304,-5.83601 0.26135,-3.92993 0.95288,-6.07742 2.65288,-8.23837 3.19252,-4.05813 9.09187,-2.6596 10.48935,2.48666 0.79211,2.917 0.29939,8.21883 -1.00873,10.85409 -1.84892,3.72478 -5.87376,5.26836 -9.12792,3.5007 z m 11.68756,-8.10278 c 0.17941,-4.83865 0.48109,-8.95616 0.67041,-9.15003 0.18931,-0.19387 2.0091,-0.66651 4.04398,-1.0503 3.28307,-0.61922 3.88309,-0.62122 5.32734,-0.0177 2.09645,0.87595 3.47172,3.12977 3.47392,5.69313 0.004,3.94488 -2.03746,6.27652 -6.46888,7.39055 -2.3089,0.58044 -2.6522,1.12412 -2.66346,4.21815 l -0.006,1.7138 h -2.35163 -2.35164 z m 11.6893,7.90891 c 0,-1.20106 3.66861,-12.2619 5.18531,-15.6337 1.07871,-2.3981 1.29605,-2.60601 3.03057,-2.89905 2.32257,-0.3924 3.84114,0.48356 4.52452,2.60989 0.38761,1.206 3.25513,15.87109 3.25513,16.64734 0,0.11428 -1.28536,0.14653 -2.85635,0.0717 l -2.85634,-0.13606 -0.14488,-1.76481 c -0.13987,-1.70367 -0.1933,-1.75512 -1.54243,-1.4853 -0.76864,0.15373 -1.65057,0.27951 -1.95982,0.27951 -0.30926,0 -0.75312,0.66839 -0.98636,1.4853 -0.40794,1.42881 -0.52343,1.49051 -3.03671,1.62236 -2.37151,0.12442 -2.61264,0.0508 -2.61264,-0.79718 z m 16.75912,0.54586 c -0.23338,-0.39137 0.55501,-17.86669 0.84535,-18.73761 0.11961,-0.35881 1.06933,-0.57127 2.55371,-0.57127 h 2.36328 l -0.32532,6.83454 -0.32533,6.83454 3.34632,0.13494 3.34631,0.13494 0.13506,2.56055 0.13504,2.56057 -2.82992,0.29578 c -3.82902,0.40021 -8.9935,0.37397 -9.2445,-0.047 z m 12.66088,-4.11313 c 0.14831,-2.45074 0.39862,-6.76953 0.55626,-9.59731 l 0.28663,-5.14142 1.43535,-0.0541 c 3.3489,-0.12634 3.93557,0.40471 5.08582,4.60366 0.4851,1.77085 0.9933,3.21668 1.12935,3.21293 0.13604,-0.004 0.97785,-1.80324 1.8707,-3.99888 1.4223,-3.49765 1.77498,-4.00988 2.8476,-4.13584 0.83112,-0.0976 1.59393,0.22593 2.37552,1.00752 1.14976,1.14975 1.15128,1.16273 1.15128,9.85532 v 8.70406 h -2.74209 -2.74208 l -0.0202,-2.62783 -0.0202,-2.62784 -0.888,1.68116 c -0.95344,1.80503 -2.49223,2.62007 -3.345,1.77171 -0.28889,-0.28741 -0.76668,-1.18188 -1.06176,-1.98772 -0.52131,-1.42365 -0.53749,-1.39073 -0.57127,1.16269 l -0.0347,2.62783 h -2.79139 -2.79139 z m 17.65254,3.56727 c 0,-1.20106 3.6686,-12.2619 5.1853,-15.6337 1.07871,-2.3981 1.29605,-2.60601 3.03057,-2.89905 2.32257,-0.3924 3.84114,0.48356 4.52452,2.60989 0.38761,1.206 3.25513,15.87109 3.25513,16.64734 0,0.11428 -1.28536,0.14653 -2.85634,0.0717 l -2.85635,-0.13606 -0.14488,-1.76481 c -0.13987,-1.70367 -0.1933,-1.75512 -1.54243,-1.4853 -0.76864,0.15373 -1.65057,0.27951 -1.95982,0.27951 -0.30926,0 -0.75312,0.66839 -0.98636,1.4853 -0.40794,1.42881 -0.52343,1.49051 -3.03671,1.62236 -2.3715,0.12442 -2.61263,0.0508 -2.61263,-0.79718 z m -57.73822,-1.5107 c -0.12679,-0.3142 -0.23051,-0.0571 -0.23051,0.57127 0,0.62839 0.10372,0.88546 0.23051,0.57126 0.12678,-0.31419 0.12678,-0.82833 0,-1.14253 z m 23.91912,-1.05526 c 0,-0.39187 -0.20901,-0.58331 -0.46448,-0.42543 -0.25545,0.15788 -0.34614,0.4785 -0.20153,0.71249 0.39177,0.6339 0.66601,0.51571 0.66601,-0.28706 z m 47.07253,0 c 0,-0.39187 -0.20901,-0.58331 -0.46447,-0.42543 -0.25546,0.15788 -0.34615,0.4785 -0.20154,0.71249 0.39177,0.6339 0.66601,0.51571 0.66601,-0.28706 z m -79.25225,-2.25475 c 1.05922,-1.61659 1.42776,-8.36933 0.52205,-9.56564 -0.64583,-0.85304 -0.6889,-0.84328 -1.45758,0.32987 -1.10496,1.68638 -1.91968,7.74952 -1.24137,9.23825 0.65509,1.43778 1.23364,1.43712 2.1769,-0.003 z m 28.05958,-3.54522 c -0.008,-1.21944 -0.88384,-2.87514 -0.90627,-1.7138 -0.007,0.37703 -0.13724,1.14825 -0.2888,1.7138 -0.2026,0.75597 -0.0799,1.02829 0.46324,1.02829 0.46359,0 0.73623,-0.38307 0.73183,-1.02829 z m 47.07253,0 c -0.008,-1.21944 -0.88384,-2.87514 -0.90627,-1.7138 -0.007,0.37703 -0.13724,1.14825 -0.2888,1.7138 -0.2026,0.75597 -0.0799,1.02829 0.46325,1.02829 0.46358,0 0.73622,-0.38307 0.73182,-1.02829 z m -60.20471,-2.0776 c 0.43988,-0.38054 0.79978,-1.27699 0.79978,-1.99211 0,-1.17274 -0.15159,-1.30021 -1.54625,-1.30021 -1.64694,0 -2.09036,0.6894 -2.10363,3.27057 -0.005,1.02954 0.15001,1.17599 1.02204,0.96384 0.56556,-0.1376 1.38819,-0.56154 1.82806,-0.94209 z m -30.58995,-0.16163 c 1.27132,-0.66917 1.66802,-1.27469 1.67676,-2.55942 0.007,-1.1257 -0.64472,-1.27915 -2.47683,-0.58258 -0.95235,0.36208 -1.17229,0.74792 -1.17229,2.05657 0,1.71588 0.37867,1.92428 1.97236,1.08543 z m 105.92225,-25.83409 c -2.98371,-6.21823 -7.09188,-11.88268 -13.38845,-18.46036 -7.92874,-8.2827 -16.44511,-13.13371 -27.32496,-15.56456 -1.13112,-0.25272 -6.99233,-0.61248 -13.02493,-0.79947 -11.84523,-0.36716 -13.03436,-0.60701 -14.20174,-2.86446 -1.81959,-3.5187 0.43977,-7.77218 5.06347,-9.53253 2.91426,-1.10952 10.32955,-2.73927 16.45051,-3.6155 10.53531,-1.50818 16.5484,-4.02112 21.54156,-9.00249 9.66465,-9.64181 8.56849,-23.14955 -3.08998,-38.07677 -5.1386,-6.57933 -6.34265,-8.58003 -6.33052,-10.51897 0.0249,-3.98284 3.08145,-4.90183 8.0169,-2.41041 3.74578,1.89086 6.66454,4.27564 12.61384,10.30612 13.82861,14.01732 20.42279,26.65794 23.76205,45.55026 0.94256,5.33274 0.79492,23.17316 -0.24397,29.47746 -1.5119,9.17479 -3.62296,17.53902 -6.51709,25.82134 -0.65875,1.88519 -1.24579,3.48487 -1.30453,3.55484 -0.0588,0.07 -0.96871,-1.66905 -2.02216,-3.8645 z m 32.60289,-29.87935 c -3.0756,-1.18327 -5.6325,-3.4402 -7.29221,-6.43671 -1.22208,-2.20639 -1.35649,-2.8566 -1.35649,-6.56219 0,-3.69964 0.13549,-4.35772 1.34772,-6.54607 1.44889,-2.61558 3.38848,-4.37542 6.63708,-6.02199 2.60258,-1.31912 7.97204,-1.43744 10.75282,-0.23692 5.98246,2.58273 9.51838,9.04453 8.38237,15.31856 -1.52614,8.42859 -10.53091,13.5402 -18.47129,10.48532 z m 36.36429,-4.65838 c -0.005,-2.72009 -1.64731,-13.42078 -2.78252,-18.12095 -4.21697,-17.45973 -12.91026,-26.84952 -28.75837,-31.06243 -4.67578,-1.24297 -8.62857,-1.79606 -16.59456,-2.32197 -5.54593,-0.36614 -7.21183,-0.64587 -9.16115,-1.53831 -4.52918,-2.07353 -7.47362,-5.52058 -6.9095,-8.08898 0.79841,-3.63511 6.33615,-8.12404 12.61989,-10.22975 1.85576,-0.62188 6.5618,-1.57114 10.45785,-2.10948 17.78325,-2.45719 23.73372,-4.82505 30.5988,-12.1761 8.03181,-8.60039 10.24614,-20.4413 5.95558,-31.84693 -1.07686,-2.86262 -3.94662,-7.34306 -7.07156,-11.04055 -3.07871,-3.64278 -4.08205,-5.93459 -4.10159,-9.36881 -0.0198,-3.49015 1.06247,-5.43213 3.79196,-6.80378 3.99373,-2.00695 8.35447,-1.56451 12.78151,1.29683 2.16126,1.39689 3.67959,3.04008 7.47151,8.08595 12.53133,16.67533 21.03725,30.63679 25.85444,42.43698 1.82128,4.4614 2.19314,5.56923 3.60493,10.73985 2.1375,7.8285 2.64526,21.7701 1.11768,30.68884 -3.15109,18.39761 -13.12979,33.16094 -33.60391,49.71643 -2.5068,2.02702 -4.71761,3.68548 -4.91291,3.68548 -0.1953,0 -0.35644,-0.87404 -0.35808,-1.94232 z m -170.9206,-4.51809 c -9.91264,-1.01499 -18.58549,-3.51015 -26.93409,-7.74887 -8.92151,-4.52961 -12.38016,-8.53968 -12.35916,-14.32963 0.0229,-6.32388 4.71931,-11.7102 10.84252,-12.43541 4.02008,-0.47612 10.78785,1.98985 16.2797,5.93178 1.22372,0.87837 5.4761,4.7932 9.44973,8.69965 3.97363,3.90644 8.93645,8.37665 11.02849,9.93379 4.53565,3.37596 10.7519,6.45727 15.42193,7.64443 l 3.39196,0.86226 -2.93494,0.52391 c -7.23565,1.29163 -16.94036,1.66002 -24.18614,0.91809 z m 51.8712,-20.68726 c -4.92436,-1.56145 -8.68358,-4.70913 -10.93241,-9.15393 -1.74905,-3.457 -2.14113,-8.54081 -0.94088,-12.19985 2.49457,-7.60489 8.92596,-12.28869 16.85714,-12.2766 5.55335,0.008 9.92727,1.85733 13.45946,5.68931 3.06081,3.32057 3.91017,5.64456 3.93193,10.75829 0.0161,3.77605 -0.14093,4.68175 -1.20521,6.95242 -2.34772,5.00891 -5.90014,8.28313 -10.75853,9.91601 -3.2215,1.08273 -7.57384,1.21414 -10.4115,0.31435 z m -35.94786,-1.19679 c -2.32754,-1.22963 -4.34402,-3.84194 -4.96555,-6.43276 -0.97359,-4.05838 1.25095,-8.69663 5.17559,-10.79133 2.25174,-1.20182 6.49106,-1.05891 8.88191,0.29942 6.70576,3.80978 6.46034,13.44381 -0.43253,16.97868 -2.26331,1.16069 -6.40907,1.13483 -8.65942,-0.054 z m -74.64976,-3.74098 c -3.65102,-1.27622 -6.2643,-4.62397 -9.02348,-11.55949 -3.58729,-9.01712 -5.27335,-16.74452 -5.68386,-26.04985 -0.64981,-14.72969 3.68868,-29.04915 13.00075,-42.90969 14.41436,-21.45505 35.78486,-32.75016 62.26107,-32.90732 8.11769,-0.0482 10.6969,0.24834 18.2806,2.10168 11.1364,2.72156 21.54446,8.82688 24.31899,14.26541 1.88797,3.70071 1.02009,9.74043 -1.83524,12.77195 -3.62097,3.84437 -7.88987,5.03088 -19.97017,5.55053 -20.77966,0.89388 -33.90388,5.90718 -45.30244,17.305 -6.35803,6.35764 -10.56349,12.96876 -14.12339,22.20251 -2.25328,5.84461 -3.84454,12.26669 -7.11817,28.72774 -0.4992,2.5102 -1.94508,5.7856 -3.3905,7.68065 -2.03395,2.66666 -7.78751,4.08858 -11.41416,2.82088 z m 184.4711,-2.43414 c -1.91988,-1.61547 -2.58361,-3.80406 -1.75071,-5.7728 1.03755,-2.45246 2.37181,-3.35255 4.96971,-3.35255 1.99154,0 2.44052,0.18572 3.60813,1.49251 1.06243,1.18905 1.33356,1.91849 1.33356,3.58757 0,1.77326 -0.23867,2.33373 -1.55385,3.64891 -2.00272,2.00272 -4.51842,2.15364 -6.60684,0.39636 z m -126.86701,-16.7244 c -5.85622,-1.37187 -11.93913,-6.57038 -14.73335,-12.59126 -1.47394,-3.17599 -1.68237,-4.08754 -1.86964,-8.17689 -0.32824,-7.16718 1.31696,-11.69716 6.01425,-16.56 4.43088,-4.58704 9.51992,-6.67275 16.28122,-6.67275 6.35907,0 10.7921,1.69894 15.00017,5.74875 5.41168,5.20817 7.78047,12.94277 6.30113,20.57453 -2.12456,10.96031 -10.84743,18.28522 -21.61039,18.14704 -1.96654,-0.0252 -4.38907,-0.23649 -5.38339,-0.46942 z m 95.49591,-29.76168 c -3.97071,-6.11771 -10.71076,-11.5674 -19.56928,-15.82284 -7.94617,-3.81717 -12.03169,-7.56894 -14.78044,-13.57299 -1.7753,-3.87776 -1.77107,-8.74354 0.0102,-11.7831 3.15103,-5.37682 11.58725,-6.83658 19.2461,-3.33025 4.67906,2.14215 10.43339,8.69839 13.27608,15.12622 1.78338,4.03256 2.92162,8.66241 3.65566,14.8697 0.70554,5.96626 0.92433,17.38375 0.33246,17.34956 -0.18852,-0.0109 -1.16539,-1.28723 -2.17082,-2.8363 z m -51.09851,-0.78632 c -2.48168,-0.47846 -5.32113,-2.64724 -6.59967,-5.04086 -1.53333,-2.87064 -1.33149,-7.26097 0.45817,-9.96532 3.44065,-5.19918 10.95952,-5.87773 15.28946,-1.37982 1.53176,1.59118 2.87578,4.7062 2.87578,6.66518 0,6.04331 -5.98806,10.88447 -12.02374,9.72082 z m 235.62175,-5.81956 c -0.74993,-0.95419 -1.71742,-2.42641 -2.14999,-3.27161 -0.90809,-1.77436 -1.57461,-6.96588 -0.80016,-6.23253 0.62047,0.58757 4.78683,10.76587 4.51722,11.03548 -0.11195,0.11195 -0.81712,-0.57716 -1.56707,-1.53134 z m -149.56159,-1.37615 c -0.6284,-0.11127 -2.60383,-0.89932 -4.38984,-1.75122 -8.11331,-3.86993 -13.30978,-13.56629 -11.68135,-21.79682 1.80386,-9.1172 9.04632,-16.26277 17.9201,-17.68036 12.04327,-1.92392 23.74392,8.30036 23.74392,20.74794 0,9.49928 -6.29168,17.75355 -15.32598,20.10669 -2.50673,0.65292 -7.63585,0.83965 -10.26685,0.37377 z m -27.19239,-45.42429 c -4.11229,-0.5926 -10.04282,-2.39877 -17.75844,-5.40843 -9.80559,-3.8249 -17.40515,-6.23398 -27.25753,-8.64071 -13.40052,-3.27345 -30.67148,-5.38297 -41.13824,-5.02471 -2.76114,0.0945 -5.02027,0.0419 -5.02027,-0.11683 0,-0.60022 10.11446,-7.3589 13.91432,-9.29782 9.64575,-4.92186 22.70856,-8.74558 36.3033,-10.62665 7.37559,-1.02054 23.92221,-0.99858 31.58805,0.042 6.83137,0.92723 16.02519,2.73433 19.0601,3.74636 5.39945,1.80053 10.84356,5.35164 13.71409,8.94548 4.7385,5.93253 4.4503,15.54883 -0.62874,20.97873 -4.3193,4.61768 -13.35337,6.76057 -22.77664,5.40265 z M 419.80633,526.91826 c 0,-0.43543 7.97856,-8.76777 10.81731,-11.29697 1.21419,-1.0818 -0.67158,1.00669 -4.1906,4.64107 -3.51901,3.63438 -6.44962,6.69365 -6.51246,6.79838 -0.0629,0.10474 -0.11425,0.0406 -0.11425,-0.14248 z m 28.33492,-12.38734 c 1.3653,-1.38247 2.58519,-2.51358 2.71087,-2.51358 0.12568,0 -0.88855,1.13111 -2.25385,2.51358 -1.3653,1.38247 -2.58519,2.51358 -2.71087,2.51358 -0.12568,0 0.88856,-1.13111 2.25385,-2.51358 z"
   id="path2-0"
   style="stroke-width:0.457015" />
                    
                    
                    
                    <path
   fill="#000000"
   d="m 454.20902,432.26391 c -11.90593,-1.24954 -21.05195,-3.6588 -30.88224,-8.1351 l -5.66479,-2.57949 v -41.08137 -41.08136 l 12.17725,-0.48025 c 15.60275,-0.61535 43.36997,-0.61535 58.9727,0 l 12.17728,0.48025 v 41.07707 41.07708 l -6.39573,2.95722 c -7.03402,3.25235 -14.27771,5.54807 -21.01455,6.66007 -5.29352,0.87376 -15.84279,1.47605 -19.36992,1.10588 z m 11.1743,-16.42846 -5.27184,-5.16182 -2.21518,1.30852 c -1.21836,0.7197 -3.9331,3.04805 -6.03277,5.1741 l -3.81758,3.86557 11.3046,-0.0122 11.30463,-0.0122 z m -14.67636,-18.41447 c -2.09965,-2.12605 -4.77899,-4.43346 -5.95405,-5.12759 l -2.13649,-1.26205 -4.25412,3.56136 c -2.33979,1.95876 -4.88076,4.26618 -5.64659,5.12761 l -1.39244,1.56625 h 11.60063 11.60064 z m 34.52103,1.60441 c -1.18076,-1.24364 -3.71403,-3.58074 -5.62951,-5.19357 -3.34688,-2.81807 -3.55144,-2.88739 -5.24535,-1.77751 -0.96947,0.63523 -3.67826,2.96033 -6.01954,5.16693 l -4.25687,4.01201 11.64904,0.0266 11.64908,0.0265 z m -34.70423,-21.55367 c -1.79229,-1.84174 -4.16656,-4.0045 -5.27617,-4.80612 -2.01635,-1.45668 -2.01881,-1.45666 -4.38565,0.0146 -1.30248,0.8099 -3.83456,2.97264 -5.62685,4.80612 l -3.25868,3.33356 h 10.90303 10.903 z m 32.89233,0 c -1.79229,-1.84174 -4.16656,-4.0045 -5.27617,-4.80612 -2.01635,-1.45668 -2.01881,-1.45666 -4.38565,0.0146 -1.30249,0.8099 -3.83456,2.97264 -5.62685,4.80612 l -3.25868,3.33356 h 10.90303 10.903 z M 448.90302,356.3097 c -2.71729,-2.59972 -5.42791,-4.72677 -6.02358,-4.72677 -0.59569,0 -3.30631,2.12705 -6.02361,4.72677 l -4.9405,4.72679 h 10.96411 10.96411 z m 32.89233,0 c -2.7173,-2.59972 -5.42792,-4.72677 -6.02358,-4.72677 -0.5957,0 -3.30632,2.12705 -6.02361,4.72677 l -4.9405,4.72679 h 10.96411 10.9641 z m -51.48366,-20.20039 c -0.43106,-0.53482 -1.82031,-3.04127 -3.08722,-5.56985 l -2.30349,-4.59744 4.2281,-1.87877 c 2.32547,-1.03333 7.3529,-2.70917 11.17207,-3.72409 9.14872,-2.43124 25.47072,-2.74662 35.07364,-0.67773 6.29496,1.35623 17.21911,5.20543 17.90006,6.30722 0.65982,1.06761 -4.95831,10.99557 -6.22228,10.99557 -0.64959,0 -3.13142,-0.79248 -5.51517,-1.7611 -12.96647,-5.2687 -29.4408,-5.43329 -43.06361,-0.43018 -6.14662,2.2574 -7.28935,2.44403 -8.1821,1.33637 z m -11.54788,-17.22854 c -1.78645,-2.82746 -2.23571,-4.41807 -2.45077,-8.67721 -0.56297,-11.14833 6.33301,-18.88248 17.6565,-19.80253 2.48834,-0.20223 6.00441,-1.07372 7.81349,-1.93676 3.69748,-1.76392 13.03354,-2.14759 15.78164,-0.64854 1.18144,0.64447 2.34269,0.58093 5.11658,-0.27997 4.54628,-1.41097 10.73469,-0.94739 14.75891,1.10561 1.92805,0.9836 4.42616,1.54878 6.89102,1.55902 10.31277,0.0429 18.0968,8.24575 18.11278,19.08753 0.005,3.90122 -0.39339,5.61702 -2.03964,8.76828 -1.12572,2.15487 -2.53936,4.01281 -3.14144,4.12876 -0.60207,0.11598 -3.02232,-0.64169 -5.37831,-1.68361 l -4.28363,-1.89439 2.64659,-2.18153 c 3.10565,-2.55993 4.04052,-5.97898 2.78269,-10.17716 -0.72974,-2.43572 -4.37524,-6.55924 -5.80223,-6.56312 -0.27066,-7.3e-4 -0.38104,1.96554 -0.24528,4.36946 0.27547,4.8779 -1.5329,11.55064 -3.31576,12.23477 -0.59918,0.23 -3.3873,0.007 -6.19582,-0.4945 l -5.10635,-0.91255 2.57164,-2.35554 c 1.41442,-1.29553 2.7928,-3.23661 3.06311,-4.31349 1.81029,-7.21283 -5.73772,-14.73764 -12.28582,-12.24807 l -2.00246,0.76134 v 8.42384 8.42386 h -4.38565 -4.38564 v -8.70698 -8.70698 l -2.83101,-0.4783 c -5.41705,-0.9152 -10.627,2.98195 -11.54445,8.63547 -0.43849,2.70208 0.85995,5.85144 3.3365,8.09266 0.84521,0.7649 1.53673,1.64533 1.53673,1.95654 0,0.31121 -1.88288,0.9567 -4.18415,1.43444 -2.30129,0.47774 -4.58314,1.02172 -5.0708,1.20887 -0.49351,0.18931 -1.62556,-1.06412 -2.55305,-2.82687 -1.30931,-2.48842 -1.67154,-4.38084 -1.6904,-8.83092 -0.0122,-3.11511 -0.30359,-5.66424 -0.6453,-5.66476 -1.20401,-0.002 -5.51154,4.90717 -5.99454,6.83157 -0.84129,3.35198 0.29829,6.88337 3.09906,9.6034 l 2.63137,2.55555 -4.14653,1.83377 c -2.28059,1.00857 -4.54828,1.83319 -5.03935,1.83246 -0.49105,-7.1e-4 -1.87715,-1.55926 -3.08023,-3.46342 z m 37.63803,-34.90939 c 0,-2.35525 -0.17396,-2.55828 -2.19282,-2.55828 -2.071,0 -2.19282,-0.16251 -2.19282,-2.92374 0,-2.76131 0.12182,-2.92375 2.19282,-2.92375 1.94917,0 2.19282,-0.24364 2.19282,-2.1928 0,-2.07099 0.16251,-2.19281 2.92376,-2.19281 2.76132,0 2.92376,0.12182 2.92376,2.19281 0,1.93795 0.24911,2.1928 2.14356,2.1928 2.3549,0 3.42711,1.80339 2.60756,4.38562 -0.32505,1.02406 -1.10594,1.46187 -2.60756,1.46187 -1.9625,0 -2.14356,0.21611 -2.14356,2.55828 0,2.49736 -0.0697,2.55827 -2.92376,2.55827 -2.85415,0 -2.92376,-0.0609 -2.92376,-2.55827 z"
   id="path4"
   style="stroke-width:0.730939" />
                    <path
   fill="#000000"
   d="m 711.88866,428.42519 c -4.96726,-0.98622 -10.25978,-3.05859 -14.43406,-5.65187 -1.27596,-0.79269 -3.64052,-2.71016 -5.39661,-4.37621 -4.85068,-4.602 -7.85006,-9.58979 -9.50907,-15.81299 -1.42894,-5.36017 -1.45072,-5.95368 -1.35994,-37.04995 l 0.0846,-28.97279 3.81364,-0.0752 c 3.89993,-0.0769 4.87687,-0.3147 4.24564,-1.03346 -0.17718,-0.20174 -0.68974,-0.36681 -1.13902,-0.36681 -0.70407,0 -0.81563,-0.10187 -0.80785,-0.73773 0.005,-0.40575 0.19659,-0.97206 0.42582,-1.25847 0.57678,-0.72064 0.52275,-1.05183 -0.22194,-1.36058 -0.548,-0.2272 -0.64311,-0.48061 -0.66964,-1.78397 -0.0221,-1.08747 -0.19452,-1.71573 -0.60667,-2.21087 -0.31666,-0.38044 -0.65598,-1.09586 -0.75404,-1.58982 -0.11227,-0.56551 -0.43259,-1.02672 -0.86498,-1.24539 -0.87285,-0.44145 -1.39741,-1.62743 -1.21776,-2.75329 0.17615,-1.10398 -0.51674,-2.43451 -2.20117,-4.22679 -1.43883,-1.53095 -1.78538,-2.4406 -1.34748,-3.53693 0.23715,-0.59374 0.22129,-0.75749 -0.0733,-0.75749 -0.20676,0 -0.70664,-0.37142 -1.11086,-0.82538 -0.57574,-0.6466 -0.73493,-1.11529 -0.73493,-2.16377 0,-0.73611 0.15374,-1.60207 0.34164,-1.92435 0.19282,-0.33071 0.30605,-1.30105 0.25994,-2.22753 -0.0749,-1.50473 -0.009,-1.72012 0.79387,-2.58395 0.48156,-0.51831 0.87558,-1.206 0.87558,-1.5282 0,-1.28717 1.07387,-2.40589 2.32286,-2.41989 0.48516,-0.005 0.82176,-0.18784 0.92748,-0.50263 0.22745,-0.67721 1.31284,-1.588 2.0014,-1.67945 0.31227,-0.0415 0.87096,0.0209 1.24154,0.13873 0.53161,0.16896 0.81604,0.0692 1.3479,-0.47286 0.79486,-0.81009 2.34636,-1.15845 3.21126,-0.72103 0.51336,0.25964 0.74379,0.20045 1.47105,-0.37784 0.94428,-0.75087 1.92106,-0.84687 3.23175,-0.31764 0.83942,0.33894 2.69684,0.0796 2.69684,-0.37659 0,-0.45043 2.28771,-1.65954 2.86842,-1.51602 0.44698,0.11045 0.85378,-0.0949 1.52964,-0.77209 0.98889,-0.99087 2.17382,-1.19994 3.69767,-0.65244 0.60834,0.21857 0.89011,0.16737 1.47615,-0.26826 0.90573,-0.67327 1.65419,-0.67951 3.0124,-0.0251 l 1.06532,0.51326 0.68507,-0.64739 c 0.7933,-0.74967 1.21321,-0.79253 2.559,-0.26114 0.53804,0.21245 1.04089,0.29049 1.11744,0.17345 0.18032,-0.27571 -0.46671,-1.90105 -0.75677,-1.90105 -0.12191,0 -0.22165,-0.59397 -0.22165,-1.31993 0,-1.7848 1.40038,-4.08252 2.9065,-4.76892 1.30581,-0.59512 1.34179,-0.82712 0.1452,-0.93615 -0.84969,-0.0774 -0.92978,-0.16685 -1.01334,-1.13155 -0.14931,-1.72395 0.12094,-2.30584 1.07086,-2.30584 0.69086,0 0.84219,-0.12134 0.91719,-0.73544 0.10125,-0.82895 0.62302,-1.0155 2.10533,-0.7527 0.75774,0.13433 0.96522,0.30073 0.96522,0.77414 0,0.44886 0.23589,0.66867 0.9226,0.85972 0.89614,0.24931 0.92261,0.29901 0.92261,1.73214 0,1.46854 -0.005,1.47586 -0.92261,1.55953 -1.06493,0.097 -1.2472,0.71972 -0.27797,0.94961 0.85464,0.2027 2.44305,1.69213 2.65478,2.48936 0.0927,0.34931 0.28257,0.6351 0.42178,0.6351 0.30515,0 0.34363,2.8682 0.0402,2.99565 -0.3296,0.13842 -1.20949,1.83315 -0.95176,1.83315 0.12557,0 0.63454,-0.13383 1.13104,-0.29739 1.00878,-0.33232 2.43343,0.0388 3.10287,0.80827 0.33941,0.39014 0.40498,0.38655 0.74027,-0.0405 0.58921,-0.75045 1.91549,-0.85913 3.21936,-0.26382 0.71345,0.32575 1.29682,0.43914 1.5326,0.29793 0.66133,-0.39612 2.20765,-0.25594 3.37272,0.30575 0.61831,0.29809 1.1242,0.66025 1.1242,0.8048 0,0.14454 0.23989,0.26281 0.53309,0.26281 0.83628,0 2.40213,0.70138 3.16835,1.41918 0.97759,0.91581 1.83767,1.11729 2.60407,0.61001 0.846,-0.55998 1.71526,-0.52877 3.11864,0.11198 0.67669,0.30896 1.43737,0.4668 1.81643,0.3769 0.81212,-0.19262 2.6231,0.33731 3.38354,0.99009 0.36703,0.31507 0.71142,0.4098 0.96062,0.26426 0.77366,-0.45186 3.26157,0.6536 3.57565,1.58877 0.0967,0.28785 0.55692,0.55429 1.13428,0.65665 1.15628,0.20498 2.13171,1.26382 2.13171,2.31397 0,0.47826 0.31635,1.04693 0.87729,1.57703 0.82553,0.78012 0.87176,0.93057 0.78366,2.54964 -0.0515,0.94632 8.3e-4,1.80986 0.11628,1.91897 0.11545,0.1091 0.20992,1.06261 0.20992,2.1189 0,1.66064 -0.0889,1.99945 -0.65703,2.50382 -0.36135,0.32081 -0.79736,0.58329 -0.96891,0.58329 -0.2244,0 -0.22702,0.2125 -0.009,0.75749 0.4379,1.09634 0.0913,2.00598 -1.34748,3.53694 -1.68443,1.79228 -2.37733,3.1228 -2.20117,4.22678 0.17898,1.12172 -0.34409,2.31142 -1.20844,2.74857 -0.3904,0.19745 -0.75821,0.69564 -0.86822,1.176 -0.10496,0.45839 -0.44845,1.17774 -0.7633,1.59857 -0.3972,0.53091 -0.58193,1.22898 -0.60343,2.28027 -0.0266,1.29913 -0.12203,1.55286 -0.6697,1.77993 -0.74469,0.30875 -0.79872,0.63994 -0.22194,1.36058 0.22923,0.28641 0.42085,0.85272 0.42582,1.25847 0.008,0.63587 -0.10378,0.73773 -0.80785,0.73773 -0.99456,0 -1.5992,0.56042 -1.10674,1.0258 0.2169,0.20498 1.48271,0.31683 3.61269,0.3192 1.80334,0.002 3.57085,0.0776 3.9278,0.16797 l 0.64901,0.16429 -0.0987,30.34737 c -0.0974,29.9715 -0.10628,30.38041 -0.71506,33.01541 -1.23277,5.33594 -3.05814,9.5342 -5.94561,13.67472 -1.69917,2.43653 -6.40514,6.87101 -9.21822,8.68642 -4.4097,2.84579 -10.22256,5.119 -15.5139,6.06695 -3.60541,0.64593 -14.60142,0.56769 -18.1096,-0.12885 z m 4.86966,-2.02016 c 3.01131,-0.91424 5.23072,-0.92058 8.52722,-0.0243 l 2.55505,0.69465 2.40745,-0.49761 c 4.12975,-0.85358 8.96895,-2.6 11.77058,-4.24788 l 1.33305,-0.78408 -1.08991,-0.17018 c -2.32747,-0.36339 -4.26709,-0.1799 -6.94279,0.65681 -3.54068,1.10719 -5.74666,1.13154 -9.05073,0.1 -3.39635,-1.0604 -6.6154,-1.06705 -9.7938,-0.0203 -3.10235,1.02175 -5.38022,1.02486 -8.94216,0.0122 -2.87482,-0.8173 -6.71539,-1.05686 -7.77001,-0.48466 -0.47276,0.2565 -0.36134,0.37995 1.014,1.12358 2.36472,1.27854 7.14895,2.98629 10.30449,3.67821 1.56133,0.34235 2.96652,0.62935 3.12266,0.63777 0.15613,0.008 1.30584,-0.29495 2.5549,-0.67418 z m -18.73596,-8.83655 c 1.24906,-0.37402 3.17963,-0.75233 4.29015,-0.84071 1.76028,-0.14008 2.41108,-0.0484 5.07662,0.71565 2.7341,0.78363 3.30122,0.85988 5.36171,0.72089 1.2684,-0.0856 3.29807,-0.46335 4.51508,-0.84039 2.83768,-0.87914 4.61691,-0.86852 7.76408,0.0463 3.40204,0.98896 7.92273,1.02849 10.32235,0.0902 0.98443,-0.38491 2.41229,-0.66259 3.86439,-0.75153 2.06481,-0.12646 2.56878,-0.0541 4.87142,0.69926 3.60706,1.18017 3.77572,1.15544 5.74524,-0.84254 0.91239,-0.92558 1.95232,-2.03538 2.31094,-2.46621 0.59819,-0.71865 0.60574,-0.7652 0.0915,-0.56359 -0.30828,0.12087 -1.5186,0.2774 -2.6896,0.34785 -1.84588,0.11105 -2.48782,0.0159 -4.82593,-0.71525 -4.24387,-1.32713 -5.29092,-1.34391 -9.37117,-0.15021 -3.06223,0.89588 -3.68992,0.9949 -5.48862,0.86577 -1.11703,-0.0802 -2.73357,-0.40975 -3.5923,-0.73237 -1.09743,-0.4123 -2.40477,-0.62502 -4.40011,-0.71597 -2.54491,-0.116 -3.05918,-0.0562 -4.96787,0.57824 -3.40532,1.13181 -5.50786,1.1708 -9.24158,0.17137 -4.12462,-1.10407 -6.00201,-1.10789 -9.30618,-0.0189 -2.84955,0.93913 -5.75028,1.093 -7.78194,0.41281 -0.66357,-0.22216 -1.20649,-0.30073 -1.20649,-0.1746 0,0.26692 3.19456,3.68608 4.08156,4.36851 0.83038,0.63888 1.92276,0.59003 4.57673,-0.20466 z m 0.56775,-9.11867 c 3.16354,-0.98383 5.76797,-0.97967 8.80023,0.014 3.16422,1.03697 5.93011,1.04067 9.22604,0.0123 3.25026,-1.01411 5.53168,-1.01689 8.94217,-0.0109 3.46363,1.02169 6.38917,1.00818 9.7938,-0.0453 3.34647,-1.0354 5.90229,-1.02938 8.80022,0.0208 2.97765,1.07902 5.67435,1.08846 9.41424,0.033 2.18638,-0.61706 2.80574,-0.90407 3.0517,-1.4142 0.16972,-0.35201 0.30858,-0.6947 0.30858,-0.76154 0,-0.0668 -16.15977,-0.12151 -35.9106,-0.12151 -19.75082,0 -35.91059,0.0525 -35.91059,0.11667 0,0.67787 0.65371,1.49349 1.19945,1.49652 0.35517,0.002 1.73159,0.3705 3.05872,0.81894 2.14486,0.72476 2.6653,0.80046 4.68399,0.68136 1.33072,-0.0785 3.21134,-0.42641 4.54205,-0.84025 z m 59.61806,-5.2858 c 1.52594,-4.56481 1.84158,-7.47876 1.84158,-17.00091 v -8.69296 l -39.10422,0.068 -39.10423,0.0681 0.0133,8.31627 c 0.0133,8.32925 0.21812,10.85576 1.18495,14.62053 0.2463,0.95906 0.48278,1.78474 0.52551,1.83487 0.10847,0.1272 2.61935,-1.58589 3.27917,-2.23727 0.29891,-0.29509 1.04109,-1.07977 1.64929,-1.74373 0.79945,-0.87275 1.58765,-1.38168 2.84506,-1.83698 1.49578,-0.54163 2.24452,-1.10491 5.34888,-4.024 5.20167,-4.89126 5.57159,-5.13795 7.70416,-5.13795 1.66003,0 1.81102,-0.0565 3.08181,-1.15279 3.31806,-2.86247 3.52192,-2.93157 6.49186,-2.20055 0.89915,0.22132 2.50907,0.4024 3.57758,0.4024 2.99942,0 7.97162,1.32826 11.41286,3.04879 3.46022,1.73003 5.81029,2.58481 7.10641,2.58481 1.17239,0 3.16595,0.71479 5.2637,1.8873 0.85208,0.47627 2.24997,1.09477 3.10642,1.37446 2.11381,0.6903 3.543,1.67791 4.37899,3.02596 0.38449,0.62 1.22647,1.47266 1.87108,1.89481 1.56854,1.02722 3.78545,3.35267 5.16719,5.4202 0.62064,0.92866 1.23916,1.68847 1.3745,1.68847 0.13535,0 0.57819,-0.99349 0.98411,-2.20776 z m -37.33361,-46.08023 v -20.12 h -19.5876 -19.5876 v 20.12 20.11999 h 19.5876 19.5876 z m 39.17519,0 v -20.12 h -19.44566 -19.44566 v 20.12 20.11999 h 19.44566 19.44566 z m -75.7842,17.18133 c -0.35906,-0.21462 -0.35221,-0.3128 0.0511,-0.73363 0.25611,-0.26721 3.52832,-2.28695 7.2716,-4.48831 l 6.80594,-4.00247 -5.29573,-3.2154 c -5.54918,-3.3693 -6.1579,-3.84227 -5.66591,-4.40248 0.16091,-0.18323 0.38024,-0.28193 0.48741,-0.21934 0.10716,0.0626 0.74939,-0.3009 1.42717,-0.80775 0.67779,-0.50686 1.28839,-0.92155 1.35689,-0.92155 0.0685,0 0.0356,0.39234 -0.0731,0.87186 l -0.1976,0.87187 0.77591,-0.67067 0.77592,-0.67066 -0.18869,0.93893 -0.18867,0.93893 0.54614,-0.59219 c 0.66748,-0.72375 0.96053,-0.53086 0.59056,0.38871 -0.3693,0.91791 -0.20485,0.98889 0.71205,0.30731 l 0.77266,-0.57434 -0.20457,1.03047 -0.20456,1.03047 0.77732,-0.48132 c 0.94944,-0.58787 1.11904,-0.47129 0.72808,0.50049 -0.40077,0.99613 -0.19105,1.11895 0.4977,0.29149 0.68462,-0.82248 0.95193,-0.64569 0.72261,0.47792 -0.1638,0.80254 -0.14727,0.82098 0.36865,0.41153 1.19828,-0.95099 1.34235,-0.92676 1.12207,0.18868 l -0.20632,1.04478 0.68211,-0.6036 c 0.76144,-0.67379 1.10857,-0.77241 0.94421,-0.26826 -0.0601,0.18443 -0.18889,0.67707 -0.28614,1.09476 l -0.17683,0.75945 0.96058,-0.69238 c 0.52832,-0.3808 1.03978,-0.69237 1.1366,-0.69237 0.0968,0 -0.0765,0.55673 -0.38516,1.23718 -0.69748,1.5377 -0.83363,1.57627 4.18849,-1.18664 2.59962,-1.43018 3.77459,-2.22704 3.83235,-2.59907 0.0638,-0.41078 0.26626,-0.51844 0.86396,-0.45932 0.61896,0.0613 0.78066,-0.0341 0.78066,-0.46002 0,-0.59125 0.77305,-1.09266 1.68461,-1.09266 0.32252,0 0.58642,-0.11258 0.58642,-0.25019 0,-0.47114 1.13941,-0.59188 2.69874,-0.28597 0.85768,0.16826 1.55943,0.41809 1.55943,0.55518 0,0.13708 -0.12016,0.24925 -0.26704,0.24925 -0.14687,0 -0.0838,0.33198 0.14019,0.73773 0.22398,0.40575 0.40802,0.88863 0.40898,1.07307 9.4e-4,0.18443 0.17773,0.33533 0.39281,0.33533 0.21508,0 0.55008,0.18108 0.74445,0.4024 0.47745,0.54364 -0.0171,1.08972 -1.18721,1.31087 -0.48985,0.0926 -0.80531,0.24894 -0.70105,0.34746 0.10426,0.0985 -0.16276,0.3987 -0.59338,0.66704 -1.75066,1.09091 -4.51333,0.1746 -4.26644,-1.41507 0.15145,-0.97515 -0.55134,-1.28173 -0.9077,-0.39596 -0.1765,0.4387 -0.46208,0.62641 -0.91352,0.60045 -0.37963,-0.0218 -2.29896,0.91863 -4.54875,2.22886 -2.1406,1.24665 -3.86516,2.28305 -3.83235,2.30313 0.0328,0.02 2.42293,1.46427 5.31139,3.20934 2.88847,1.74506 5.41613,3.31199 5.61703,3.48206 0.37361,0.31628 0.19447,1.20928 -0.24258,1.20928 -0.13331,0 -2.45099,-1.34488 -5.15041,-2.98863 -2.69942,-1.64375 -5.36128,-3.2596 -5.91525,-3.59078 l -1.00723,-0.60214 -7.35338,4.26144 c -4.04435,2.3438 -7.48732,4.2596 -7.65105,4.25734 -0.16373,-0.003 -0.48422,-0.11561 -0.71222,-0.25189 z m 47.55441,-3.02289 c -0.57977,-0.78222 -0.55819,-1.0696 0.14367,-1.9128 l 0.58559,-0.70351 -0.84329,0.15939 c -0.65304,0.12343 -0.90994,0.0417 -1.13876,-0.36237 -0.3012,-0.53185 -0.1586,-1.57272 0.29023,-2.11839 0.14476,-0.17599 0.12674,-0.60652 -0.0431,-1.02851 -0.1606,-0.3992 -0.22513,-0.82806 -0.1434,-0.95303 0.0818,-0.12497 0.0187,-0.30305 -0.13992,-0.39572 -0.44533,-0.2601 -0.34105,-1.9078 0.14487,-2.28889 0.38065,-0.29855 0.35506,-0.37678 -0.2104,-0.64319 -0.35407,-0.16682 -0.68741,-0.51747 -0.74075,-0.77922 -0.1342,-0.65853 0.70589,-1.79087 1.32865,-1.79087 0.38242,0 0.51389,-0.20713 0.51389,-0.8096 0,-0.47299 0.2146,-0.95788 0.51614,-1.16625 0.35834,-0.24762 0.41619,-0.41502 0.18925,-0.54757 -0.586,-0.34224 -0.34524,-1.17002 0.54654,-1.87913 1.05156,-0.83618 1.51865,-0.87078 2.05141,-0.15197 0.49174,0.66343 1.13796,0.47847 1.58776,-0.45445 0.279,-0.57866 0.25145,-0.74379 -0.17446,-1.04562 -0.65767,-0.46607 -1.92051,-0.73257 -2.55752,-0.53973 -0.27674,0.0838 -0.75865,0.59571 -1.07092,1.13761 -0.31226,0.5419 -0.81872,1.11613 -1.12547,1.27606 -0.30674,0.15993 -1.20336,0.72667 -1.99248,1.25942 -1.14076,0.77015 -1.62419,0.94237 -2.35918,0.84043 -0.73338,-0.10172 -0.85923,-0.20245 -0.60896,-0.48742 0.17351,-0.19757 0.24766,-0.46289 0.16479,-0.58961 -0.21721,-0.33213 0.66118,-3.06417 1.15715,-3.599 0.23081,-0.24891 0.34648,-0.56446 0.25704,-0.70122 -0.0973,-0.14879 1.4594,-0.23639 3.87551,-0.21811 3.6145,0.0274 4.16699,0.0946 5.26641,0.64058 1.25915,0.62537 1.86543,0.64444 3.26129,0.10259 0.43953,-0.17061 0.97491,-0.31021 1.18973,-0.31021 0.74547,0 0.69303,-0.47553 -0.17772,-1.61145 l -0.87536,-1.14194 -1.68475,0.16641 c -0.92661,0.0915 -2.64992,0.0308 -3.82958,-0.13506 -1.79475,-0.25225 -2.31221,-0.44638 -3.17041,-1.18935 -1.00908,-0.8736 -1.0171,-0.89677 -0.49765,-1.43919 0.29955,-0.3128 0.88118,-0.55129 1.34449,-0.55129 0.45806,0 0.88714,-0.17384 0.97734,-0.39598 0.12552,-0.3091 0.61961,-0.38022 2.25187,-0.32413 1.75085,0.0602 2.20819,0.17584 2.81101,0.71101 0.49627,0.44058 0.72028,0.52046 0.72101,0.25706 5.9e-4,-0.21015 0.24376,-0.006 0.54039,0.45373 0.29662,0.45969 1.28617,1.51573 2.19899,2.34676 1.50663,1.37161 1.66884,1.45569 1.75915,0.91174 0.16618,-1.00087 -0.78054,-2.35059 -1.64873,-2.35059 -0.92147,0 -1.43147,-0.44739 -1.43147,-1.25573 0,-0.66899 0.97247,-1.06342 1.99739,-0.81014 0.41939,0.10365 0.67929,-0.0612 0.98902,-0.62718 0.23107,-0.42227 0.42013,-1.0152 0.42013,-1.31762 0,-0.30243 0.1431,-0.54986 0.318,-0.54986 0.34377,0 0.21774,2.70198 -0.16564,3.55126 -0.15775,0.34946 0.01,0.58456 0.66844,0.93893 0.9181,0.49384 1.11666,1.08306 0.54655,1.62182 -0.18476,0.1746 -0.28057,0.3693 -0.21291,0.43269 0.0677,0.0634 1.30639,-0.96074 2.75275,-2.2758 2.67751,-2.43448 3.57005,-2.84859 4.31396,-2.00152 0.56885,0.64772 0.20799,1.32586 -0.98606,1.85304 -1.03717,0.45793 -4.77156,3.14793 -5.12913,3.69468 -0.0837,0.1281 0.4141,0.2329 1.1064,0.2329 1.17251,0 1.27043,-0.0554 1.42967,-0.80777 0.3595,-1.69861 2.65149,-1.65255 2.38738,0.048 -0.10605,0.68279 -0.0538,0.73223 0.61455,0.58187 0.40174,-0.0904 0.89321,-0.2856 1.09216,-0.43383 0.19894,-0.14823 0.45433,-0.18197 0.56755,-0.0749 0.38835,0.36699 -1.60512,1.7598 -2.51873,1.7598 -1.41933,0 -0.81083,0.60387 0.94175,0.93457 2.36971,0.44716 3.13907,1.21312 1.79835,1.79039 -0.43082,0.18551 -0.72726,0.56533 -0.78066,1.00025 -0.0515,0.41951 -0.34268,0.80757 -0.72482,0.966 -0.35156,0.14576 -0.64279,0.50758 -0.64775,0.8048 -0.0131,0.77803 -0.73455,1.57551 -1.25479,1.38685 -0.30497,-0.11059 -0.43946,0.003 -0.43946,0.36876 0,0.29046 -0.10795,0.52811 -0.23987,0.52811 -0.44343,0 -1.17952,-0.97582 -1.17952,-1.56366 0,-0.32036 -0.12774,-0.58247 -0.28388,-0.58247 -0.15613,0 -0.28387,-0.23577 -0.28387,-0.52391 0,-0.28815 -0.14998,-0.83497 -0.33328,-1.21515 -0.30412,-0.63078 -0.23686,-0.78455 0.7689,-1.7579 1.00368,-0.97134 1.06217,-1.10446 0.65445,-1.48976 -0.26279,-0.24833 -1.16592,-0.48464 -2.18637,-0.57209 l -1.73865,-0.14899 -0.46236,1.0431 c -0.51221,1.15559 -0.40621,4.75963 0.15561,5.29054 0.58618,0.55395 0.30973,1.5675 -0.68356,2.50617 -0.54257,0.51273 -0.97455,1.01372 -0.95996,1.11331 0.13882,0.94787 -0.13768,1.38681 -1.15635,1.83565 -0.61359,0.27035 -1.17362,0.69247 -1.24451,0.93804 -0.20546,0.71175 -1.78924,1.37115 -2.46835,1.02769 -0.44036,-0.22272 -0.56519,-0.20215 -0.56519,0.0931 0,0.20844 -0.19039,0.52831 -0.42307,0.7108 -0.26918,0.21111 -0.36075,0.56652 -0.25173,0.97699 0.26892,1.0125 -0.38795,2.18663 -1.33303,2.38279 -0.4494,0.0933 -0.94796,0.0932 -1.1079,-2.5e-4 -0.16795,-0.0981 -0.29081,0.10492 -0.29081,0.48048 0,0.833 -1.01855,2.06401 -1.70777,2.06401 -0.29208,0 -0.72992,-0.2683 -0.97298,-0.59622 z m -16.68613,-10.55206 c 0.72734,-0.48144 0.85474,-1.75555 0.22491,-2.24951 -0.64045,-0.5023 -2.54966,-0.25096 -2.67061,0.35156 -0.0553,0.27568 0.009,0.43729 0.14271,0.35912 0.13383,-0.0781 0.48149,0.0225 0.77259,0.22361 0.62383,0.43107 0.42434,1.19442 -0.3137,1.20041 -0.43033,0.004 -0.44224,0.0428 -0.0799,0.26416 0.6122,0.37387 1.20277,0.32803 1.92399,-0.14935 z m -17.52624,-4.75319 c -0.93573,-0.44747 -1.13288,-1.44122 -1.15629,-5.82813 -0.0139,-2.60711 0.10236,-3.94594 0.41505,-4.77945 0.53334,-1.42171 1.53364,-2.79182 1.88741,-2.5852 0.46848,0.27361 0.27706,1.94481 -0.33504,2.92518 -0.32846,0.5261 -0.52409,1.13659 -0.43472,1.35667 0.40729,1.003 2.36291,-0.0179 3.78178,-1.97417 1.00836,-1.39027 2.64327,-4.53964 2.64361,-5.09245 9.5e-4,-1.55222 2.60632,2.83612 3.14914,5.30428 0.47203,2.1463 0.17554,5.40933 -0.70837,7.79608 -0.40983,1.1066 -0.94905,2.15574 -1.19827,2.33143 -1.17978,0.83168 -6.6678,1.20401 -8.0443,0.54576 z m 45.12559,-1.45041 c 0,-0.582 -0.11112,-0.85701 -0.30139,-0.74589 -0.44654,0.26079 -0.84275,1.40011 -0.65107,1.87216 0.28385,0.69901 0.95246,-0.0916 0.95246,-1.12627 z m -38.18162,0.75171 c 0.718,-0.19771 0.77117,-0.26616 0.33887,-0.43619 -0.63471,-0.24966 -6.09139,-0.0143 -6.86807,0.29624 -0.51297,0.2051 -0.48558,0.24573 0.28388,0.42114 1.01529,0.23145 5.04204,0.0502 6.24532,-0.28119 z m 36.90417,-2.17849 c 0.0965,-0.14755 0.0401,-0.26827 -0.12518,-0.26827 -0.16535,0 -0.30064,0.12072 -0.30064,0.26827 0,0.14754 0.0563,0.26826 0.12518,0.26826 0.0689,0 0.20414,-0.12072 0.30064,-0.26826 z m 16.8057,-45.50173 c -0.42595,-3.90009 -3.83522,-6.43279 -9.38212,-6.96983 l -1.80278,-0.17455 -0.17531,1.70959 c -0.16653,1.62415 -0.13674,1.74045 0.59615,2.32706 0.42429,0.33961 1.44469,1.16418 2.26756,1.83238 1.20731,0.98039 1.89505,1.30473 3.56274,1.6802 1.13663,0.25591 2.63506,0.76618 3.3298,1.13394 1.55624,0.82376 1.83299,0.55825 1.60396,-1.53879 z m -73.01313,1.77356 c 0.31689,-0.48454 2.56092,-1.30516 4.09485,-1.49746 1.09312,-0.13704 1.82344,-0.43361 2.67813,-1.08754 0.64633,-0.49452 1.7938,-1.34163 2.54994,-1.88245 1.2298,-0.87961 1.35704,-1.06719 1.20648,-1.77858 -0.0925,-0.4374 -0.16831,-1.22015 -0.16831,-1.73946 v -0.94419 l -1.77424,0.15867 c -5.52353,0.49395 -9.00689,3.02425 -9.492,6.89494 -0.09,0.71815 -0.087,1.49458 0.007,1.72538 0.19343,0.47634 0.63678,0.5507 0.89839,0.15069 z m 24.57083,-5.79041 c 1.94574,-1.38117 4.13161,-2.62319 5.64662,-3.20844 1.29667,-0.50091 1.60351,-0.75373 1.90131,-1.56661 0.19532,-0.53312 0.31792,-0.9693 0.27248,-0.9693 -0.0454,0 -0.83705,0.24528 -1.7591,0.54506 -2.4986,0.81238 -6.69689,1.55162 -10.01057,1.76269 -2.89827,0.18462 -2.94746,0.19903 -3.47645,1.01883 -0.29512,0.45736 -0.53706,0.96526 -0.53765,1.12867 -5.8e-4,0.16578 0.75142,0.37144 1.70121,0.46525 0.93625,0.0925 2.43726,0.46688 3.33557,0.832 0.89831,0.36512 1.70429,0.66882 1.79106,0.67488 0.0868,0.006 0.59775,-0.30131 1.13552,-0.68303 z m 28.98386,-0.83943 c 1.13193,-0.0897 1.9426,-0.27768 1.94198,-0.45036 -5.9e-4,-0.16304 -0.24253,-0.67062 -0.53764,-1.12798 -0.52899,-0.8198 -0.57818,-0.83421 -3.47645,-1.01883 -3.37361,-0.21489 -7.85355,-1.01348 -9.98979,-1.78078 -0.80654,-0.28968 -1.54448,-0.52676 -1.63989,-0.52684 -0.0954,-7e-5 -0.0406,0.47045 0.1219,1.04561 0.27111,0.95987 0.46015,1.11476 2.30255,1.88652 1.10396,0.46243 2.89719,1.42139 3.98496,2.13101 l 1.97777,1.29024 1.68578,-0.64733 c 0.92719,-0.35602 2.56016,-0.71659 3.62883,-0.80126 z"
   id="path5"
   style="stroke-width:0.275962" />
                    <path
   style="fill:#c3dfe2;fill-opacity:1;stroke:#f5deb3;stroke-width:2.92488"
   d="m 298.85512,921.46156 c -2.27502,-0.95053 -10.11657,-6.94101 -17.42568,-13.31221 -8.26916,-7.20809 -15.30063,-11.66153 -18.61381,-11.78926 -2.92849,-0.11291 -21.61163,-0.0427 -41.51807,0.1561 -40.51836,0.40454 -62.84663,-2.36093 -101.13537,-12.52618 -38.410612,-10.19762 -87.462479,-29.3393 -91.692749,-35.78159 -2.162674,-3.29352 -1.941484,-13.22333 0.325766,-14.62456 1.049724,-0.64877 17.373702,3.4844 36.275509,9.18484 36.866654,11.1183 43.964534,12.21269 45.933244,7.08233 C 113.9214,842.2483 92.221178,830.10413 48.091058,814.6429 27.842823,807.54882 28.628205,810.58445 36.280065,768.99159 47.03665,710.52254 65.852113,638.20858 88.775229,567.2356 102.4872,524.78152 107.54573,501.05378 111.68603,459.7693 c 1.82353,-18.18306 2.77483,-21.23508 10.19938,-32.72229 9.88179,-15.28906 11.82593,-20.98032 14.37697,-42.08707 1.75345,-14.50773 3.03586,-17.822 11.83279,-30.58066 6.76453,-9.81098 10.59134,-17.94105 12.17283,-25.86121 l 2.30663,-11.5517 9.1675,14.21164 c 11.32348,17.55389 47.03552,54.77094 69.27304,72.19242 l 16.61534,13.01688 -1.47372,16.20621 c -2.23976,24.63045 -2.01571,115.33666 0.37974,153.74161 2.73571,43.86012 13.84849,164.51407 16.76319,182.00173 3.4681,20.80803 11.13683,52.63358 24.80898,102.95828 10.07374,37.07956 12.02726,46.67608 9.99918,49.11978 -2.83038,3.41038 -3.43233,3.47847 -9.25276,1.04664 z"
   id="path6"
   transform="scale(0.75)" /><path
   style="fill:#c3dfe2;fill-opacity:1;stroke:#f5deb3;stroke-width:2.92488"
   d="m 245.13795,383.4757 c -18.43709,-11.69245 -47.18321,-42.28887 -40.95616,-43.59237 0.88234,-0.1847 4.86168,-0.41737 8.84297,-0.51705 8.02824,-0.201 7.51825,1.07878 14.84345,-37.24807 1.50494,-7.87414 3.83495,-14.67765 5.1778,-15.11891 3.64696,-1.19838 18.72463,13.28732 25.07658,24.09204 5.04088,8.57458 5.63088,11.75126 6.17813,33.26421 0.6032,23.71243 -2.41636,43.38705 -6.88313,44.84864 -1.17794,0.38544 -6.70378,-2.19238 -12.27964,-5.72849 z"
   id="path7"
   transform="scale(0.75)" /><path
   style="fill:#c3dfe2;fill-opacity:1;stroke:#f5deb3;stroke-width:2.92488"
   d="M 774.54147,228.39178 C 714.60526,223.47934 659.63962,196.16728 614.19442,148.7164 590.70005,124.18513 566.00929,86.486975 560.22341,66.312786 c -2.48524,-8.665543 1.39251,-13.508838 19.7286,-24.640947 l 15.51171,-9.417388 19.48472,29.373207 c 20.3807,30.723918 43.70827,57.415372 69.2258,79.208322 34.2957,29.28983 84.61961,45.95492 121.39025,40.19915 29.18749,-4.56876 67.93051,-21.24864 93.99969,-40.46931 17.51116,-12.91088 68.41892,-62.923453 82.75208,-81.296921 12.66723,-16.237953 11.14115,-16.084946 29.42394,-2.950064 5.4857,3.941087 10.5144,9.318663 11.1749,11.950172 1.7146,6.831721 -5.1546,21.043144 -23.45219,48.518863 -51.89707,77.92901 -134.67148,119.0009 -224.92144,111.60391 z"
   id="path8"
   transform="scale(0.75)" /><path
   style="fill:#c3dfe2;fill-opacity:1;stroke:#f5deb3;stroke-width:2.92488"
   d="m 729.04103,113.66455 c -23.00165,-4.22701 -52.00663,-12.58391 -63.08014,-18.174627 -7.23405,-3.652275 -12.7102,-9.410057 -24.5873,-25.851769 -8.40422,-11.634128 -14.91905,-21.494046 -14.47741,-21.910929 0.44164,-0.416882 15.69403,3.844873 33.8942,9.470568 18.20018,5.625695 41.68275,11.52874 52.18349,13.117877 57.93792,8.768077 166.3577,4.808526 223.92412,-8.177833 11.94238,-2.694068 22.14508,-4.470975 22.67268,-3.948682 0.5276,0.522292 -8.77931,10.45447 -20.68201,22.071506 -23.2756,22.716979 -25.12921,23.710359 -58.86892,31.549049 -20.93892,4.86471 -127.47782,6.17358 -150.97871,1.85484 z"
   id="path9"
   transform="scale(0.75)" /><path
   style="fill:#c3dfe2;fill-opacity:1;stroke:#f5deb3;stroke-width:2.92488"
   d="m 749.25232,158.31324 c -13.34239,-4.80218 -40.30479,-19.54114 -47.76315,-26.10966 -5.01942,-4.42056 -5.15111,-4.8823 -1.40296,-4.91928 2.27502,-0.0225 9.2552,1.35587 15.51151,3.06293 20.85785,5.69115 74.45347,8.21295 115.32667,5.4264 20.17738,-1.37561 39.47822,-2.99905 42.89075,-3.60766 6.04167,-1.0775 6.09598,-1.015 2.0682,2.38015 -7.90627,6.66444 -42.30409,21.79968 -56.26943,24.75887 -20.65599,4.37691 -56.86325,3.86656 -70.36159,-0.99175 z"
   id="path10"
   transform="scale(0.75)" /><path
   style="fill:#c3dfe2;fill-opacity:1;stroke:#f5deb3;stroke-width:2.92488"
   d="m 1249.9304,892.946 c 4.7486,-25.35056 7.2224,-87.9611 9.6222,-243.53073 2.104,-136.38614 3.7695,-173.45398 8.504,-189.25617 2.6873,-8.96955 23.7271,-37.95291 40.3443,-55.5763 l 10.9608,-11.62451 0.076,7.70019 c 0.2264,23.1204 -25.1833,148.5554 -41.5932,205.32456 -13.7288,47.49397 -17.0708,68.30256 -11.324,70.5078 8.2448,3.16382 11.0443,-3.96962 29.2938,-74.6442 14.4157,-55.82771 21.9221,-91.48001 32.0461,-152.20586 4.4977,-26.97855 8.7991,-50.76879 9.5586,-52.8672 2.0988,-5.79855 9.0171,-15.1904 11.1897,-15.1904 2.5031,0 2.4548,59.65239 -0.1781,220.14841 -2.7147,165.47909 -5.3334,241.87697 -8.6527,252.43563 -7.4482,23.69222 -45.6367,44.40576 -81.9582,44.45436 -8.6497,0.0116 -8.9179,-0.1814 -7.8888,-5.67558 z"
   id="path11"
   transform="scale(0.75)" /><path
   style="fill:#c3dfe2;fill-opacity:1;stroke:#f5deb3;stroke-width:2.92488"
   d="m 1354.7368,885.7073 c 0.036,-4.83442 0.9095,-23.21557 1.9419,-40.84698 2.7544,-47.04118 6.1197,-192.3686 8.1975,-353.99988 l 1.8255,-142.00921 11.6954,-17.75935 c 6.4325,-9.76764 12.5314,-17.75935 13.553,-17.75935 4.3602,0 13.9743,44.89112 20.3979,95.24389 4.0017,31.36869 5.5847,35.90596 17.8776,51.24215 l 7.1744,8.95063 0.036,23.10649 c 0.046,29.6576 1.9742,38.1742 24.4295,107.90275 33.953,105.43135 58.2626,186.13321 58.2626,193.41704 0,5.85353 -20.6819,12.6823 -114.7852,37.89992 -35.2387,9.4432 -38.2617,10.6901 -38.2617,15.78193 0,8.51923 18.8331,5.26223 109.01,-18.85222 53.6861,-14.35633 49.3412,-14.51714 55.7583,2.06341 4.151,10.72546 2.838,13.76452 -8.8174,20.40893 -23.1561,13.2006 -136.095,43.9997 -161.3449,43.9997 -6.8846,0 -7.014,-0.1637 -6.9504,-8.78985 z"
   id="path12"
   transform="scale(0.75)" /><path
   style="fill:#c3dfe2;fill-opacity:1;stroke:#f5deb3;stroke-width:2.92488"
   d="m 1257.4665,928.97309 c -14.8831,-3.86804 -12.1244,-7.83784 8.2728,-11.90464 19.3917,-3.86632 37.8207,-10.36223 57.3126,-20.20172 7.0357,-3.55159 13.258,-5.70361 13.8275,-4.78227 3.3037,5.34547 -17.1766,28.90402 -30.9044,35.54957 -9.7406,4.7153 -33.0426,5.35855 -48.5085,1.33906 z"
   id="path13"
   transform="scale(0.75)" /></svg>
