<?xml version="1.0" encoding="UTF-8" standalone="no"?>
<svg
   version="1.0"
   width="1174.000000pt"
   height="1280.000000pt"
   viewBox="0 0 1174.000000 1280.000000"
   preserveAspectRatio="xMidYMid meet"
   id="svg3"
   sodipodi:docname="SantaCruzDeLaPalma.svg"
   xml:space="preserve"
   inkscape:version="1.4 (86a8ad7, 2024-10-11)"
   xmlns:inkscape="http://www.inkscape.org/namespaces/inkscape"
   xmlns:sodipodi="http://sodipodi.sourceforge.net/DTD/sodipodi-0.dtd"
   xmlns="http://www.w3.org/2000/svg"
   xmlns:svg="http://www.w3.org/2000/svg"><defs
   id="defs3" /><sodipodi:namedview
   id="namedview3"
   pagecolor="#ffffff"
   bordercolor="#000000"
   borderopacity="0.25"
   inkscape:showpageshadow="2"
   inkscape:pageopacity="0.0"
   inkscape:pagecheckerboard="0"
   inkscape:deskcolor="#d1d1d1"
   inkscape:document-units="pt"
   showgrid="false"
   showguides="true"
   inkscape:zoom="0.68378906"
   inkscape:cx="1031.7509"
   inkscape:cy="749.50015"
   inkscape:window-width="2560"
   inkscape:window-height="1369"
   inkscape:window-x="1912"
   inkscape:window-y="-8"
   inkscape:window-maximized="1"
   inkscape:current-layer="svg3"><inkscape:grid
     id="grid22"
     units="pt"
     originx="0"
     originy="0"
     spacingx="0.99999997"
     spacingy="1"
     empcolor="#0099e5"
     empopacity="0.30196078"
     color="#ffffff"
     opacity="0.14901961"
     empspacing="5"
     enabled="true"
     visible="false" /></sodipodi:namedview><metadata
   id="metadata1">
                Created by potrace 1.15, written by Peter Selinger 2001-2017
                </metadata><g
   transform="translate(0.000000,1280.000000) scale(0.100000,-0.100000)"
   fill="#000000"
   stroke="none"
   id="g3"><path
     d="M4425 12777 c-33 -13 -100 -45 -150 -71 -379 -205 -660 -325 -1163 -497 -373 -127 -591 -189 -982 -279 -288 -67 -505 -172 -631 -306 -96 -103 -206 -267 -284 -424 -74 -146 -225 -631 -225 -720 0 -46 -33 -122 -85 -197 -57 -80 -108 -180 -125 -243 -7 -25 -18 -91 -25 -147 -11 -93 -16 -106 -45 -140 -74 -83 -112 -218 -125 -443 -14 -224 -31 -299 -160 -715 -208 -666 -337 -1170 -379 -1470 -23 -170 -40 -450 -41 -665 0 -177 2 -198 20 -229 14 -24 33 -38 60 -47 22 -7 101 -34 175 -60 494 -172 676 -225 830 -243 47 -6 171 -15 275 -21 553 -30 550 -30 628 -94 23 -19 75 -50 115 -69 40 -20 79 -41 87 -47 31 -25 13 -119 -73 -390 -68 -214 -77 -270 -76 -495 0 -192 16 -350 44 -445 18 -61 11 -118 -29 -243 -52 -160 -59 -187 -76 -282 -33 -180 -11 -367 65 -555 23 -58 55 -138 71 -177 48 -120 48 -167 0 -310 -67 -202 -76 -331 -33 -468 25 -76 39 -266 52 -720 13 -415 25 -626 45 -738 27 -155 83 -358 110 -399 49 -73 47 -73 525 -73 550 -1 623 -10 1165 -155 339 -91 577 -141 775 -164 74 -9 172 -21 216 -27 120 -17 1068 -5 1274 16 501 50 805 136 1575 445 578 232 843 312 1155 350 140 17 267 39 295 52 28 13 47 56 66 153 21 108 18 684 -4 880 -22 184 -49 322 -82 414 -14 37 -25 85 -25 105 0 22 29 111 70 218 122 312 150 436 150 668 0 179 -9 228 -60 346 -52 118 -52 173 -5 435 53 291 63 427 71 987 l7 502 119 0 c216 0 330 38 475 159 45 37 105 78 135 89 29 12 139 40 244 61 246 51 330 72 543 133 452 128 734 261 757 354 25 99 -230 1009 -571 2044 -63 190 -121 372 -129 405 -11 44 -15 109 -14 250 2 218 -8 268 -82 385 -78 124 -99 179 -115 296 -71 508 -233 1141 -356 1388 -152 305 -399 488 -961 709 -91 37 -382 142 -645 235 -750 265 -940 346 -1193 509 -161 103 -181 113 -229 113 -22 0 -97 -21 -168 -46 -241 -86 -481 -136 -808 -170 -239 -25 -777 -25 -955 -1 -299 42 -516 107 -849 256 -62 28 -127 51 -145 50 -17 0 -58 -10 -91 -22z m135 -344 c131 -219 259 -382 441 -559 197 -191 322 -277 501 -344 298 -112 466 -120 743 -33 113 35 332 142 444 217 163 109 511 444 670 645 36 46 73 92 81 103 14 18 19 16 111 -46 110 -73 139 -105 139 -150 0 -61 -147 -315 -287 -494 -295 -378 -737 -627 -1229 -693 -146 -19 -423 -7 -573 26 -494 106 -925 402 -1218 835 -116 172 -195 331 -197 399 -1 40 3 47 41 79 37 31 228 149 245 151 4 1 43 -61 88 -136z m378 -47 c324 -106 392 -118 769 -137 172 -8 291 -8 483 0 451 21 624 40 870 101 68 16 133 30 143 30 17 0 17 -2 -3 -29 -50 -72 -271 -288 -320 -315 -66 -36 -292 -93 -423 -106 -170 -18 -717 -25 -847 -11 -214 22 -545 107 -644 165 -25 14 -65 52 -89 84 -63 82 -164 227 -182 262 -14 27 -14 30 0 30 9 0 118 -33 243 -74z m-813 -236 c43 -80 96 -171 118 -204 62 -92 202 -249 353 -397 220 -214 291 -268 472 -359 306 -153 573 -219 879 -220 460 0 900 161 1259 463 203 170 366 373 525 656 35 62 73 120 85 128 19 12 47 4 285 -86 145 -54 433 -158 639 -231 980 -346 1165 -433 1380 -649 79 -80 104 -113 147 -196 46 -89 143 -347 143 -380 0 -35 -291 -516 -338 -558 -19 -18 -20 -17 -30 42 -22 126 -94 235 -163 246 -100 17 -204 -27 -197 -84 3 -26 4 -26 93 -26 118 -1 112 1 135 -44 24 -48 35 -132 26 -195 -6 -41 -13 -50 -49 -73 -23 -14 -106 -91 -183 -170 -78 -78 -146 -143 -153 -143 -24 0 -13 80 52 390 33 153 37 184 26 201 -23 37 -85 -58 -118 -181 -30 -112 -87 -424 -111 -605 -30 -232 -47 -548 -80 -1440 -40 -1105 -60 -1613 -70 -1773 -16 -234 -49 -351 -417 -1452 -421 -1263 -610 -1736 -937 -2342 l-48 -88 40 0 c33 0 45 6 72 37 152 172 440 835 776 1783 48 135 122 340 166 455 44 116 118 316 165 445 86 236 126 330 142 330 15 0 21 -103 21 -400 0 -412 -15 -600 -80 -975 -57 -327 -108 -468 -317 -875 -179 -349 -366 -677 -633 -1115 -144 -234 -212 -357 -225 -402 -8 -31 35 -54 61 -32 78 65 633 1013 956 1634 173 334 181 343 223 260 18 -35 20 -59 19 -195 0 -129 -5 -173 -26 -266 -45 -193 -175 -510 -287 -702 -61 -104 -160 -219 -408 -474 -209 -215 -303 -325 -303 -354 0 -31 58 -4 152 73 95 77 433 425 551 568 55 66 103 121 107 123 17 7 69 -193 90 -343 37 -272 54 -759 30 -846 -13 -48 -41 -59 -166 -69 -291 -24 -630 -128 -1299 -397 -691 -279 -1160 -400 -1704 -443 -204 -15 -760 -13 -916 5 -295 33 -612 98 -1025 210 -151 41 -331 86 -400 99 -263 53 -624 86 -951 86 -179 0 -198 4 -215 47 -22 51 -51 239 -68 433 -21 242 -25 318 -37 695 -11 356 -24 478 -64 595 -31 89 -29 125 16 256 81 240 78 367 -16 584 -124 286 -124 451 1 831 30 91 54 175 54 186 0 12 -13 76 -29 144 -41 174 -55 299 -48 448 6 140 22 227 74 405 20 67 47 164 60 216 13 52 29 99 34 105 15 15 35 -15 54 -85 35 -133 246 -715 381 -1050 190 -474 688 -1350 990 -1740 119 -154 344 -383 367 -374 37 14 7 77 -96 201 -218 263 -307 387 -454 633 -316 531 -717 1335 -858 1721 -159 434 -498 1522 -551 1769 -80 372 -124 685 -128 923 -2 120 -11 225 -29 347 -60 403 -82 737 -74 1155 6 285 16 418 62 825 23 205 30 426 16 501 -28 140 -82 227 -189 306 -43 31 -96 74 -118 95 -48 46 -95 60 -145 44 -48 -16 -66 -59 -79 -196 -13 -134 -28 -220 -39 -220 -25 0 -103 114 -176 260 -72 141 -67 180 46 419 112 235 245 403 386 487 112 66 177 88 495 164 502 121 1189 344 1593 518 77 33 143 57 146 54 4 -4 41 -72 84 -152z m1273 -326 c118 -31 278 -43 552 -44 274 0 504 15 603 41 43 11 82 17 86 14 16 -17 -178 -130 -324 -188 -146 -58 -233 -72 -445 -72 -177 1 -188 2 -252 27 -163 65 -371 186 -403 235 l-17 26 51 -7 c29 -4 95 -18 149 -32z m-3590 -1191 c51 -36 118 -118 147 -178 34 -68 49 -186 41 -320 -9 -144 -24 -230 -45 -257 l-18 -21 -50 27 c-131 72 -293 216 -349 312 -35 60 -24 75 52 67 54 -6 54 -6 68 28 8 19 19 77 26 129 12 95 35 214 46 231 10 17 46 9 82 -18z m8664 -214 c41 -112 106 -460 133 -719 22 -209 27 -223 90 -289 29 -31 63 -76 76 -101 23 -43 24 -52 21 -226 -3 -217 -1 -222 142 -659 207 -630 479 -1522 480 -1574 1 -33 -2 -35 -59 -58 -117 -46 -352 -115 -682 -198 -332 -85 -405 -109 -417 -140 -22 -58 68 -49 449 46 110 28 277 72 372 100 188 54 328 89 356 89 20 0 57 -72 78 -151 17 -64 0 -88 -96 -135 -88 -42 -396 -145 -611 -204 -198 -54 -525 -120 -597 -120 l-57 0 0 33 c0 17 7 145 15 282 30 524 46 1207 66 2890 l10 900 51 80 c82 131 139 206 151 202 7 -2 19 -24 29 -48z m-9186 -81 c31 -51 88 -130 126 -175 102 -120 310 -317 427 -403 l102 -75 -5 -65 c-3 -36 -11 -126 -17 -200 -22 -251 0 -1003 41 -1400 11 -107 31 -330 45 -495 14 -165 32 -351 40 -413 23 -181 117 -568 239 -985 60 -206 60 -257 -1 -257 -45 0 -91 28 -175 108 -112 106 -120 108 -318 92 -289 -24 -526 -1 -851 80 -289 72 -680 220 -732 277 -21 24 -25 96 -7 118 23 28 48 22 514 -126 47 -15 103 -11 110 7 23 59 -88 119 -488 264 l-118 43 6 61 c14 126 92 527 146 754 70 287 223 815 314 1081 74 217 129 489 146 730 5 70 14 140 20 155 6 16 35 62 65 103 66 91 90 161 100 298 8 119 19 147 85 231 66 84 89 129 96 189 8 74 13 95 24 95 5 0 34 -42 66 -92z m8849 -410 c16 -72 -34 -3172 -55 -3404 -14 -159 -52 -232 -163 -316 -83 -64 -190 -116 -273 -133 -78 -16 -284 -34 -284 -25 0 4 7 51 15 106 35 239 54 795 65 1854 11 1072 24 1279 85 1405 40 82 338 445 366 445 36 0 8 -214 -100 -770 -85 -438 -138 -660 -207 -872 -62 -191 -104 -361 -104 -418 0 -39 4 -52 22 -64 25 -18 41 -9 63 35 26 50 135 459 239 894 67 281 107 498 167 889 41 274 52 308 117 379 33 35 39 34 47 -5z m-97 -3826 c8 -57 -133 -218 -235 -268 -75 -37 -199 -44 -329 -19 -93 18 -134 36 -134 59 0 26 30 38 112 47 116 13 289 70 431 145 67 35 129 62 137 61 8 -1 16 -12 18 -25z"
     id="path1" /><path
     d="M2403 2124 c-8 -22 16 -40 172 -123 195 -105 980 -467 1320 -609 370 -155 635 -231 708 -203 73 28 -1 71 -298 176 -403 142 -868 335 -1414 587 -415 191 -473 211 -488 172z"
     id="path3" /></g><path
   style="display:inline;fill:#ffffff;fill-opacity:1;stroke:#f5deb3;stroke-width:2.92488"
   d="m 680.03428,1678.2954 c -28.15834,-2.5608 -83.58359,-13.6088 -141.85662,-28.2763 -67.97198,-17.1088 -98.15435,-21.6662 -163.78753,-24.7312 l -42.40506,-1.9803 -3.34704,-10.238 c -4.79066,-14.6539 -9.38469,-64.7956 -12.69272,-138.5351 -1.87066,-41.699 -4.50541,-69.784 -7.57197,-80.7131 -4.48696,-15.9915 -4.4224,-17.7039 1.40526,-37.2721 9.03357,-30.333 8.04136,-49.1775 -4.502,-85.5045 -9.50101,-27.5159 -10.4394,-32.8778 -8.97577,-51.2865 0.89899,-11.3069 5.54091,-33.1217 10.31538,-48.4773 l 8.68086,-27.9192 -5.8366,-27.6535 c -4.1865,-19.8353 -5.43761,-34.2688 -4.42532,-51.0525 1.48475,-24.617 19.11238,-96.89797 22.67202,-92.96521 1.14197,1.26171 6.36889,15.45594 11.61537,31.54281 37.9734,116.4346 84.80622,213.8056 150.52615,312.962 25.47122,38.4302 66.61628,86.2839 74.18777,86.2839 8.44359,0 1.32833,-13.5816 -24.52233,-46.808 -30.57677,-39.3011 -54.30859,-77.6599 -89.56725,-144.7716 -51.60101,-98.2178 -70.89096,-144.0372 -102.20395,-242.76488 -44.00028,-138.72986 -55.06041,-188.49456 -61.10471,-274.93859 -1.79971,-25.73893 -4.54248,-53.37904 -6.09505,-61.42245 -1.55257,-8.04342 -3.62293,-47.5833 -4.60079,-87.86637 -1.41342,-58.22556 -0.73829,-83.71464 3.29292,-124.32187 2.78898,-28.09396 4.60841,-64.40164 4.04318,-80.68376 -1.20853,-34.81293 -4.84046,-41.81676 -33.03973,-63.71397 -27.58646,-21.42134 -35.03134,-18.00108 -40.15237,18.44642 l -3.44873,24.54539 -5.65792,-6.98724 c -8.70182,-10.7463 -22.56088,-39.6881 -22.5728,-47.13868 -0.006,-3.66541 6.59719,-19.97296 14.67345,-36.239 16.06591,-32.35765 35.23002,-55.12547 54.80659,-65.11269 6.51233,-3.32234 37.30935,-12.74567 68.43783,-20.94072 75.99035,-20.00565 156.52444,-46.628613 217.86971,-72.023386 1.85051,-0.766047 10.19662,10.721107 18.79205,25.864447 12.75955,22.479589 22.40498,34.176619 55.16853,66.903099 43.76087,43.71131 61.99353,55.4658 111.36505,71.79638 23.33099,7.71718 27.92238,8.22341 74.5844,8.22341 46.57159,0 51.2986,-0.51853 74.58441,-8.18158 66.57415,-21.90867 116.90944,-62.47196 155.59985,-125.39193 10.4993,-17.074475 19.4325,-28.517568 22.2624,-28.517568 5.6675,0 179.8901,62.747738 221.3705,79.728448 69.2085,28.3317 93.8075,51.63726 112.9414,107.00272 6.2263,18.01631 6.6407,16.71833 -18.5694,58.16597 -18.843,30.97951 -21.4624,33.16431 -23.9383,19.96661 -2.7247,-14.52365 -14.8075,-27.94858 -25.1545,-27.94858 -13.1188,0 -23.3294,5.01872 -23.3294,11.46686 0,4.7988 2.3222,5.9109 13.8931,6.65337 13.2522,0.85035 14.0619,1.40802 17.5481,12.08657 2.0102,6.1573 2.8097,14.05448 1.7767,17.54927 -1.8492,6.2557 -47.0559,50.52634 -49.3016,48.28068 -0.6339,-0.634 2.0294,-17.42406 5.9186,-37.31124 3.8892,-19.88717 6.409,-37.23 5.5996,-38.53963 -2.9432,-4.76222 -9.7088,1.00054 -14.1211,12.02815 -5.2037,13.00518 -14.8692,60.90989 -19.1713,95.01819 -4.0425,32.04933 -7.9509,108.147 -13.3697,260.31419 -2.5205,70.78207 -5.7824,143.41774 -7.2485,161.41262 -3.2011,39.28904 -8.0585,56.54495 -56.656,201.27234 -53.9808,160.7596 -70.2402,202.6865 -107.4723,277.1322 -22.4249,44.8389 -22.8452,46.0669 -15.7684,46.0669 19.6255,0 51.0716,-68.6079 128.6978,-280.7884 22.0701,-60.3256 41.9917,-112.97341 44.2702,-116.99511 3.6392,-6.42353 3.9948,1.04119 2.9258,61.42241 -1.2401,70.0479 -6.2423,112.0354 -18.1197,152.0937 -10.0324,33.8356 -51.1229,112.8913 -110.7995,213.1718 -40.2105,67.5695 -41.9946,71.7019 -30.2283,70.0137 4.3587,-0.6254 11.1752,-7.998 20.601,-22.2816 18.1293,-27.4726 73.4191,-123.7465 104.4831,-181.9322 13.312,-24.9345 25.5565,-47.0431 27.2099,-49.1301 5.3684,-6.776 7.8178,2.2797 7.8652,29.0791 0.05,28.349 -5.1972,48.7431 -23.2533,90.3735 -14.925,34.4114 -23.79,46.5954 -70.9404,97.4999 -38.5936,41.6664 -45.4909,51.5435 -35.9937,51.5435 6.9935,0 41.7675,-31.7367 73.1971,-66.8037 16.0868,-17.9486 30.1304,-32.6357 31.208,-32.6379 4.2236,-0.01 11.1289,41.8804 14.3445,87.0171 3.3853,47.5191 2.3993,66.0351 -3.718,69.8158 -1.801,1.1131 -14.5829,3.7213 -28.4043,5.7961 -32.4801,4.8757 -67.4994,15.152 -120.1883,35.2687 -145.11012,55.4033 -183.96151,66.5873 -256.96798,73.9726 -28.24374,2.8571 -101.04168,3.4369 -127.65354,1.0167 z m -63.49046,-134.9439 c -0.51408,-2.6693 -8.94911,-7.6848 -19.88651,-11.8245 -75.46474,-28.5627 -136.80955,-53.6569 -196.61809,-80.43 -38.17209,-17.0876 -72.16063,-31.0684 -75.53009,-31.0684 -24.31177,0 28.33341,29.1396 149.3212,82.6507 67.04179,29.6516 101.60508,42.5497 122.84491,45.8422 15.75246,2.4418 21.0681,1.0587 19.86858,-5.17 z"
   id="path81"
   transform="scale(0.75)" />
                    
                    <path
   fill="#000000"
   d="m 568.59304,876.11245 c -0.87976,-0.1052 -3.65612,-0.41195 -6.1697,-0.68159 -17.81575,-1.91169 -35.81716,-6.9023 -57.75766,-16.0126 -25.9028,-10.75551 -49.63464,-26.64211 -69.53369,-46.5473 -15.32603,-15.33078 -26.55801,-32.30481 -38.56768,-58.28442 -4.8794,-10.55525 -7.21399,-17.64686 -16.77374,-50.95241 -9.4718,-32.99916 -10.56654,-45.25506 -6.55505,-73.38573 5.22571,-36.64545 17.88894,-68.08422 37.72452,-93.658 4.7042,-6.06504 7.09661,-8.71528 4.33186,-4.79865 -17.87099,25.31641 -27.53736,47.06105 -35.38674,79.60299 -5.17298,21.44615 -6.00673,43.90679 -2.36349,63.67119 1.62041,8.79068 1.74336,8.50231 1.75375,-4.11313 0.0103,-12.49372 0.18157,-15.92082 1.27897,-25.59284 4.45364,-39.25252 20.64298,-76.60261 47.64127,-109.91209 4.97415,-6.13693 11.63141,-13.73054 11.84777,-13.51417 0.0918,0.0918 -1.65804,2.50171 -3.88862,5.35527 -25.43646,32.54063 -39.71973,62.8971 -45.33754,96.35669 -6.88008,40.97762 -4.60902,77.4289 6.67129,107.07657 4.20174,11.04329 14.23674,27.36098 24.7939,40.31684 9.51377,11.67541 22.88933,24.7086 35.48044,34.57227 9.87512,7.73601 36.58192,23.5975 55.96834,33.24027 21.97515,10.9304 39.65355,16.92091 53.54802,18.1453 l 3.50487,0.30886 -0.5188,1.1971 c -0.95356,2.20028 -2.74357,4.21915 -4.56459,5.14816 l -1.80387,0.92027 -4.73872,-0.95374 c -17.65937,-3.5542 -41.91078,-13.60244 -62.10795,-25.73356 -30.41538,-18.26854 -51.15754,-34.17668 -68.94293,-52.87558 -8.17003,-8.58967 -7.90933,-8.34298 -6.86961,-6.50014 1.28585,2.27912 9.42078,13.03661 12.83209,16.96895 19.22057,22.15618 37.49674,36.20812 63.89448,49.12636 23.87407,11.68323 51.9081,20.9881 70.3803,23.36019 4.96613,0.63772 8.56637,0.72035 21.93672,0.50354 15.26964,-0.24752 23.66549,-0.84611 36.56118,-2.60644 19.69528,-2.68855 47.10986,-8.88472 57.58389,-13.01495 14.59915,-5.75689 30.8213,-15.38891 49.12911,-29.17077 3.64469,-2.74368 6.9352,-5.19192 7.31224,-5.44054 1.35258,-0.89188 -3.54485,3.46715 -9.82583,8.74561 -20.26776,17.03282 -40.32672,29.14336 -57.8642,34.93535 -19.60369,6.47442 -46.15431,11.47443 -71.92804,13.54572 -6.27391,0.50418 -29.95837,0.97618 -32.67656,0.65115 z M 743.1869,816.44037 c 0.008,-0.0863 3.43095,-3.65298 7.60702,-7.92607 4.17607,-4.27309 6.89507,-6.8438 6.04222,-5.71269 -2.73727,3.63038 -13.73809,14.62275 -13.64924,13.63876 z m 17.46527,-18.66592 c 0.6209,-0.87975 3.06762,-4.27309 5.43717,-7.54075 19.98556,-27.56054 33.11505,-56.469 39.02214,-85.91881 2.77681,-13.84375 3.8541,-24.74261 3.86232,-39.07478 0.0124,-21.75042 -2.54915,-40.9633 -8.09319,-60.70116 l -1.70999,-6.08788 -0.51823,3.34579 c -0.51061,3.29655 -2.20468,9.86361 -2.66259,10.32152 -0.12912,0.12912 -0.4595,-0.35931 -0.73417,-1.08541 -1.65399,-4.3723 -6.60311,-15.29276 -10.23341,-22.58049 -14.0463,-28.19758 -29.82347,-49.51054 -48.85639,-65.99881 -34.49315,-29.88151 -73.89375,-48.07282 -121.18578,-55.95164 -16.45268,-2.741 -20.11716,-3.03572 -37.47522,-3.01403 -17.52255,0.0219 -23.85941,0.5908 -38.15357,3.42531 -27.72495,5.49781 -55.30753,18.32931 -79.99072,37.21193 -4.14664,3.17219 -2.48801,1.32154 2.73357,-3.05 22.54982,-18.87888 47.684,-32.58374 72.74824,-39.66729 16.82721,-4.75564 29.89369,-6.43249 50.05118,-6.4232 34.85231,0.0161 67.10494,7.07324 103.43742,22.63303 18.31029,7.84158 41.65101,22.62927 56.37993,35.71993 5.47039,4.86194 6.62277,5.55322 3.03201,1.81883 -9.05437,-9.41655 -22.96068,-20.67932 -35.41866,-28.68569 -19.30844,-12.40897 -48.17357,-25.53266 -67.1812,-30.54433 -17.34985,-4.57456 -42.02807,-7.33817 -59.41193,-6.65328 -21.92973,0.86398 -39.87906,3.82412 -59.86896,9.87337 -28.95361,8.76181 -55.74492,23.28637 -82.47638,44.71348 -8.55496,6.85738 -8.15432,6.11063 0.89921,-1.67606 26.77833,-23.03128 55.58469,-38.79963 88.20389,-48.28205 12.99527,-3.77773 26.33305,-6.36344 42.9594,-8.32828 9.31253,-1.10052 30.54265,-1.10368 39.9888,-0.006 30.19232,3.50862 55.08604,10.95479 82.94822,24.81129 22.85071,11.36419 38.39196,21.89758 52.50399,35.58563 19.78097,19.18667 38.28207,46.54834 48.05636,71.07156 16.09332,40.37737 21.00567,79.72227 14.55026,116.53881 -5.18114,29.54915 -18.48067,59.56853 -38.26721,86.37583 -4.21214,5.70672 -11.36573,14.67515 -14.03455,17.59507 -1.58369,1.73269 -1.61196,1.74461 -0.54196,0.22851 z M 644.68602,780.26643 c -5.3696,-2.59133 -9.76425,-9.48736 -11.11831,-17.44668 -0.62365,-3.66593 -0.64288,-4.77071 -0.13558,-7.78984 0.82818,-4.92877 3.00246,-9.95347 6.16739,-14.25274 6.98274,-9.48539 18.53374,-16.73291 40.04814,-25.12767 2.89062,-1.1279 5.52635,-2.16167 5.85718,-2.29727 0.33082,-0.1356 -1.13821,2.40281 -3.26452,5.64089 -4.85817,7.39834 -7.09361,11.58009 -9.13276,17.08431 -2.13434,5.76116 -2.99839,10.19249 -3.50709,17.9863 -0.23204,3.5552 -0.81067,7.92248 -1.28583,9.70508 -1.79685,6.741 -6.47934,13.1672 -11.64161,15.97687 -1.92159,1.04586 -3.08165,1.32607 -6.04016,1.45899 -3.14213,0.14117 -3.98606,0.008 -5.94685,-0.93824 z m -179.95729,-0.58981 c -0.59378,-0.59378 0.95133,-18.58321 1.63335,-19.01682 0.91661,-0.58276 3.25618,-0.39992 4.30779,0.33665 0.54749,0.38349 1.46609,1.97732 2.04131,3.54187 l 1.04588,2.84463 0.4597,-3.42761 0.4597,-3.42761 h 2.05657 2.05657 l -0.0143,3.08485 c -0.008,1.69667 -0.0592,6.06687 -0.11425,9.71157 l -0.1,6.62672 h -2.47363 -2.47363 l -1.24712,-3.31336 c -2.50309,-6.65023 -2.41002,-6.59818 -2.45162,-1.37105 l -0.0373,4.68441 h -2.43742 c -1.34057,0 -2.56082,-0.12342 -2.71166,-0.27425 z m 15.23216,-5.32419 c 0.0277,-5.39491 0.55804,-12.97483 0.93256,-13.3289 0.0997,-0.0942 3.009,-0.32056 6.46518,-0.50294 l 6.28396,-0.33161 v 2.33149 c 0,2.65102 0.1683,2.55127 -5.14142,3.04742 -2.77202,0.25903 -3.08494,0.38886 -3.08567,1.28017 -7.6e-4,0.92001 0.22285,0.99191 3.08485,0.99191 h 3.08567 v 1.77825 c 0,2.11511 -0.43239,2.41817 -3.99888,2.80279 -2.33605,0.25192 -2.62784,0.39751 -2.62784,1.31112 0,1.00101 0.10098,1.02242 3.88463,0.82383 l 3.88463,-0.20389 v 2.50315 2.50315 l -3.77038,0.29352 c -2.0737,0.16142 -4.9529,0.29473 -6.39821,0.29623 l -2.62783,0.003 z m 15.97422,4.30515 c -1.71162,-1.71161 -2.01146,-4.54285 -1.26663,-11.96015 l 0.57366,-5.71268 2.39933,-0.13814 c 2.80812,-0.16168 2.64924,-0.77747 1.95735,7.58584 -0.23489,2.83946 -0.31237,5.46158 -0.17217,5.82694 0.40641,1.05908 2.39536,0.81163 2.92555,-0.36397 0.25507,-0.56556 0.61057,-3.70182 0.78999,-6.96948 l 0.32622,-5.94119 2.47024,-0.1406 2.47024,-0.1406 -0.27127,6.69526 c -0.2331,5.75298 -0.41995,6.99043 -1.3277,8.7926 -1.35447,2.68903 -3.32236,3.75946 -6.9114,3.75946 -2.32178,0 -2.83885,-0.16872 -3.96341,-1.29329 z m 13.10689,0.97388 c -0.23458,-0.387 0.89712,-17.95753 1.17448,-18.23488 0.0891,-0.0891 1.69208,-0.38042 3.56218,-0.64737 4.5346,-0.64732 6.50898,-0.27532 8.01064,1.5093 1.05551,1.25441 1.17622,1.73586 1.0103,4.02963 -0.14029,1.93965 -0.50618,3.0216 -1.4325,4.23608 l -1.24409,1.63108 1.36622,2.70646 1.36622,2.70646 -1.80022,1.19133 c -0.99011,0.65522 -1.97951,1.19132 -2.19865,1.19132 -0.21914,0 -1.07694,-1.33677 -1.90623,-2.9706 -1.01511,-1.99991 -1.777,-2.9706 -2.33165,-2.9706 -0.69139,0 -0.84571,0.45922 -0.9599,2.85634 l -0.13606,2.85635 -2.12942,0.13761 c -1.17118,0.0757 -2.22928,-0.0272 -2.35132,-0.22851 z m 18.35059,-0.37535 c -0.66639,-0.36199 -1.67104,-1.60716 -2.23254,-2.76707 -0.88619,-1.83064 -0.9882,-2.6007 -0.77304,-5.83601 0.26135,-3.92993 0.95288,-6.07742 2.65288,-8.23837 3.19252,-4.05813 9.09187,-2.6596 10.48935,2.48666 0.79211,2.917 0.29939,8.21883 -1.00873,10.85409 -1.84892,3.72478 -5.87376,5.26836 -9.12792,3.5007 z m 11.68756,-8.10278 c 0.17941,-4.83865 0.48109,-8.95616 0.67041,-9.15003 0.18931,-0.19387 2.0091,-0.66651 4.04398,-1.0503 3.28307,-0.61922 3.88309,-0.62122 5.32734,-0.0177 2.09645,0.87595 3.47172,3.12977 3.47392,5.69313 0.004,3.94488 -2.03746,6.27652 -6.46888,7.39055 -2.3089,0.58044 -2.6522,1.12412 -2.66346,4.21815 l -0.006,1.7138 h -2.35163 -2.35164 z m 11.6893,7.90891 c 0,-1.20106 3.66861,-12.2619 5.18531,-15.6337 1.07871,-2.3981 1.29605,-2.60601 3.03057,-2.89905 2.32257,-0.3924 3.84114,0.48356 4.52452,2.60989 0.38761,1.206 3.25513,15.87109 3.25513,16.64734 0,0.11428 -1.28536,0.14653 -2.85635,0.0717 l -2.85634,-0.13606 -0.14488,-1.76481 c -0.13987,-1.70367 -0.1933,-1.75512 -1.54243,-1.4853 -0.76864,0.15373 -1.65057,0.27951 -1.95982,0.27951 -0.30926,0 -0.75312,0.66839 -0.98636,1.4853 -0.40794,1.42881 -0.52343,1.49051 -3.03671,1.62236 -2.37151,0.12442 -2.61264,0.0508 -2.61264,-0.79718 z m 16.75912,0.54586 c -0.23338,-0.39137 0.55501,-17.86669 0.84535,-18.73761 0.11961,-0.35881 1.06933,-0.57127 2.55371,-0.57127 h 2.36328 l -0.32532,6.83454 -0.32533,6.83454 3.34632,0.13494 3.34631,0.13494 0.13506,2.56055 0.13504,2.56057 -2.82992,0.29578 c -3.82902,0.40021 -8.9935,0.37397 -9.2445,-0.047 z m 12.66088,-4.11313 c 0.14831,-2.45074 0.39862,-6.76953 0.55626,-9.59731 l 0.28663,-5.14142 1.43535,-0.0541 c 3.3489,-0.12634 3.93557,0.40471 5.08582,4.60366 0.4851,1.77085 0.9933,3.21668 1.12935,3.21293 0.13604,-0.004 0.97785,-1.80324 1.8707,-3.99888 1.4223,-3.49765 1.77498,-4.00988 2.8476,-4.13584 0.83112,-0.0976 1.59393,0.22593 2.37552,1.00752 1.14976,1.14975 1.15128,1.16273 1.15128,9.85532 v 8.70406 h -2.74209 -2.74208 l -0.0202,-2.62783 -0.0202,-2.62784 -0.888,1.68116 c -0.95344,1.80503 -2.49223,2.62007 -3.345,1.77171 -0.28889,-0.28741 -0.76668,-1.18188 -1.06176,-1.98772 -0.52131,-1.42365 -0.53749,-1.39073 -0.57127,1.16269 l -0.0347,2.62783 h -2.79139 -2.79139 z m 17.65254,3.56727 c 0,-1.20106 3.6686,-12.2619 5.1853,-15.6337 1.07871,-2.3981 1.29605,-2.60601 3.03057,-2.89905 2.32257,-0.3924 3.84114,0.48356 4.52452,2.60989 0.38761,1.206 3.25513,15.87109 3.25513,16.64734 0,0.11428 -1.28536,0.14653 -2.85634,0.0717 l -2.85635,-0.13606 -0.14488,-1.76481 c -0.13987,-1.70367 -0.1933,-1.75512 -1.54243,-1.4853 -0.76864,0.15373 -1.65057,0.27951 -1.95982,0.27951 -0.30926,0 -0.75312,0.66839 -0.98636,1.4853 -0.40794,1.42881 -0.52343,1.49051 -3.03671,1.62236 -2.3715,0.12442 -2.61263,0.0508 -2.61263,-0.79718 z m -57.73822,-1.5107 c -0.12679,-0.3142 -0.23051,-0.0571 -0.23051,0.57127 0,0.62839 0.10372,0.88546 0.23051,0.57126 0.12678,-0.31419 0.12678,-0.82833 0,-1.14253 z m 23.91912,-1.05526 c 0,-0.39187 -0.20901,-0.58331 -0.46448,-0.42543 -0.25545,0.15788 -0.34614,0.4785 -0.20153,0.71249 0.39177,0.6339 0.66601,0.51571 0.66601,-0.28706 z m 47.07253,0 c 0,-0.39187 -0.20901,-0.58331 -0.46447,-0.42543 -0.25546,0.15788 -0.34615,0.4785 -0.20154,0.71249 0.39177,0.6339 0.66601,0.51571 0.66601,-0.28706 z m -79.25225,-2.25475 c 1.05922,-1.61659 1.42776,-8.36933 0.52205,-9.56564 -0.64583,-0.85304 -0.6889,-0.84328 -1.45758,0.32987 -1.10496,1.68638 -1.91968,7.74952 -1.24137,9.23825 0.65509,1.43778 1.23364,1.43712 2.1769,-0.003 z m 28.05958,-3.54522 c -0.008,-1.21944 -0.88384,-2.87514 -0.90627,-1.7138 -0.007,0.37703 -0.13724,1.14825 -0.2888,1.7138 -0.2026,0.75597 -0.0799,1.02829 0.46324,1.02829 0.46359,0 0.73623,-0.38307 0.73183,-1.02829 z m 47.07253,0 c -0.008,-1.21944 -0.88384,-2.87514 -0.90627,-1.7138 -0.007,0.37703 -0.13724,1.14825 -0.2888,1.7138 -0.2026,0.75597 -0.0799,1.02829 0.46325,1.02829 0.46358,0 0.73622,-0.38307 0.73182,-1.02829 z m -60.20471,-2.0776 c 0.43988,-0.38054 0.79978,-1.27699 0.79978,-1.99211 0,-1.17274 -0.15159,-1.30021 -1.54625,-1.30021 -1.64694,0 -2.09036,0.6894 -2.10363,3.27057 -0.005,1.02954 0.15001,1.17599 1.02204,0.96384 0.56556,-0.1376 1.38819,-0.56154 1.82806,-0.94209 z m -30.58995,-0.16163 c 1.27132,-0.66917 1.66802,-1.27469 1.67676,-2.55942 0.007,-1.1257 -0.64472,-1.27915 -2.47683,-0.58258 -0.95235,0.36208 -1.17229,0.74792 -1.17229,2.05657 0,1.71588 0.37867,1.92428 1.97236,1.08543 z m 105.92225,-25.83409 c -2.98371,-6.21823 -7.09188,-11.88268 -13.38845,-18.46036 -7.92874,-8.2827 -16.44511,-13.13371 -27.32496,-15.56456 -1.13112,-0.25272 -6.99233,-0.61248 -13.02493,-0.79947 -11.84523,-0.36716 -13.03436,-0.60701 -14.20174,-2.86446 -1.81959,-3.5187 0.43977,-7.77218 5.06347,-9.53253 2.91426,-1.10952 10.32955,-2.73927 16.45051,-3.6155 10.53531,-1.50818 16.5484,-4.02112 21.54156,-9.00249 9.66465,-9.64181 8.56849,-23.14955 -3.08998,-38.07677 -5.1386,-6.57933 -6.34265,-8.58003 -6.33052,-10.51897 0.0249,-3.98284 3.08145,-4.90183 8.0169,-2.41041 3.74578,1.89086 6.66454,4.27564 12.61384,10.30612 13.82861,14.01732 20.42279,26.65794 23.76205,45.55026 0.94256,5.33274 0.79492,23.17316 -0.24397,29.47746 -1.5119,9.17479 -3.62296,17.53902 -6.51709,25.82134 -0.65875,1.88519 -1.24579,3.48487 -1.30453,3.55484 -0.0588,0.07 -0.96871,-1.66905 -2.02216,-3.8645 z m 32.60289,-29.87935 c -3.0756,-1.18327 -5.6325,-3.4402 -7.29221,-6.43671 -1.22208,-2.20639 -1.35649,-2.8566 -1.35649,-6.56219 0,-3.69964 0.13549,-4.35772 1.34772,-6.54607 1.44889,-2.61558 3.38848,-4.37542 6.63708,-6.02199 2.60258,-1.31912 7.97204,-1.43744 10.75282,-0.23692 5.98246,2.58273 9.51838,9.04453 8.38237,15.31856 -1.52614,8.42859 -10.53091,13.5402 -18.47129,10.48532 z m 36.36429,-4.65838 c -0.005,-2.72009 -1.64731,-13.42078 -2.78252,-18.12095 -4.21697,-17.45973 -12.91026,-26.84952 -28.75837,-31.06243 -4.67578,-1.24297 -8.62857,-1.79606 -16.59456,-2.32197 -5.54593,-0.36614 -7.21183,-0.64587 -9.16115,-1.53831 -4.52918,-2.07353 -7.47362,-5.52058 -6.9095,-8.08898 0.79841,-3.63511 6.33615,-8.12404 12.61989,-10.22975 1.85576,-0.62188 6.5618,-1.57114 10.45785,-2.10948 17.78325,-2.45719 23.73372,-4.82505 30.5988,-12.1761 8.03181,-8.60039 10.24614,-20.4413 5.95558,-31.84693 -1.07686,-2.86262 -3.94662,-7.34306 -7.07156,-11.04055 -3.07871,-3.64278 -4.08205,-5.93459 -4.10159,-9.36881 -0.0198,-3.49015 1.06247,-5.43213 3.79196,-6.80378 3.99373,-2.00695 8.35447,-1.56451 12.78151,1.29683 2.16126,1.39689 3.67959,3.04008 7.47151,8.08595 12.53133,16.67533 21.03725,30.63679 25.85444,42.43698 1.82128,4.4614 2.19314,5.56923 3.60493,10.73985 2.1375,7.8285 2.64526,21.7701 1.11768,30.68884 -3.15109,18.39761 -13.12979,33.16094 -33.60391,49.71643 -2.5068,2.02702 -4.71761,3.68548 -4.91291,3.68548 -0.1953,0 -0.35644,-0.87404 -0.35808,-1.94232 z m -170.9206,-4.51809 c -9.91264,-1.01499 -18.58549,-3.51015 -26.93409,-7.74887 -8.92151,-4.52961 -12.38016,-8.53968 -12.35916,-14.32963 0.0229,-6.32388 4.71931,-11.7102 10.84252,-12.43541 4.02008,-0.47612 10.78785,1.98985 16.2797,5.93178 1.22372,0.87837 5.4761,4.7932 9.44973,8.69965 3.97363,3.90644 8.93645,8.37665 11.02849,9.93379 4.53565,3.37596 10.7519,6.45727 15.42193,7.64443 l 3.39196,0.86226 -2.93494,0.52391 c -7.23565,1.29163 -16.94036,1.66002 -24.18614,0.91809 z m 51.8712,-20.68726 c -4.92436,-1.56145 -8.68358,-4.70913 -10.93241,-9.15393 -1.74905,-3.457 -2.14113,-8.54081 -0.94088,-12.19985 2.49457,-7.60489 8.92596,-12.28869 16.85714,-12.2766 5.55335,0.008 9.92727,1.85733 13.45946,5.68931 3.06081,3.32057 3.91017,5.64456 3.93193,10.75829 0.0161,3.77605 -0.14093,4.68175 -1.20521,6.95242 -2.34772,5.00891 -5.90014,8.28313 -10.75853,9.91601 -3.2215,1.08273 -7.57384,1.21414 -10.4115,0.31435 z m -35.94786,-1.19679 c -2.32754,-1.22963 -4.34402,-3.84194 -4.96555,-6.43276 -0.97359,-4.05838 1.25095,-8.69663 5.17559,-10.79133 2.25174,-1.20182 6.49106,-1.05891 8.88191,0.29942 6.70576,3.80978 6.46034,13.44381 -0.43253,16.97868 -2.26331,1.16069 -6.40907,1.13483 -8.65942,-0.054 z m -74.64976,-3.74098 c -3.65102,-1.27622 -6.2643,-4.62397 -9.02348,-11.55949 -3.58729,-9.01712 -5.27335,-16.74452 -5.68386,-26.04985 -0.64981,-14.72969 3.68868,-29.04915 13.00075,-42.90969 14.41436,-21.45505 35.78486,-32.75016 62.26107,-32.90732 8.11769,-0.0482 10.6969,0.24834 18.2806,2.10168 11.1364,2.72156 21.54446,8.82688 24.31899,14.26541 1.88797,3.70071 1.02009,9.74043 -1.83524,12.77195 -3.62097,3.84437 -7.88987,5.03088 -19.97017,5.55053 -20.77966,0.89388 -33.90388,5.90718 -45.30244,17.305 -6.35803,6.35764 -10.56349,12.96876 -14.12339,22.20251 -2.25328,5.84461 -3.84454,12.26669 -7.11817,28.72774 -0.4992,2.5102 -1.94508,5.7856 -3.3905,7.68065 -2.03395,2.66666 -7.78751,4.08858 -11.41416,2.82088 z m 184.4711,-2.43414 c -1.91988,-1.61547 -2.58361,-3.80406 -1.75071,-5.7728 1.03755,-2.45246 2.37181,-3.35255 4.96971,-3.35255 1.99154,0 2.44052,0.18572 3.60813,1.49251 1.06243,1.18905 1.33356,1.91849 1.33356,3.58757 0,1.77326 -0.23867,2.33373 -1.55385,3.64891 -2.00272,2.00272 -4.51842,2.15364 -6.60684,0.39636 z M 519.02712,658.7836 c -5.85622,-1.37187 -11.93913,-6.57038 -14.73335,-12.59126 -1.47394,-3.17599 -1.68237,-4.08754 -1.86964,-8.17689 -0.32824,-7.16718 1.31696,-11.69716 6.01425,-16.56 4.43088,-4.58704 9.51992,-6.67275 16.28122,-6.67275 6.35907,0 10.7921,1.69894 15.00017,5.74875 5.41168,5.20817 7.78047,12.94277 6.30113,20.57453 -2.12456,10.96031 -10.84743,18.28522 -21.61039,18.14704 -1.96654,-0.0252 -4.38907,-0.23649 -5.38339,-0.46942 z m 95.49591,-29.76168 c -3.97071,-6.11771 -10.71076,-11.5674 -19.56928,-15.82284 -7.94617,-3.81717 -12.03169,-7.56894 -14.78044,-13.57299 -1.7753,-3.87776 -1.77107,-8.74354 0.0102,-11.7831 3.15103,-5.37682 11.58725,-6.83658 19.2461,-3.33025 4.67906,2.14215 10.43339,8.69839 13.27608,15.12622 1.78338,4.03256 2.92162,8.66241 3.65566,14.8697 0.70554,5.96626 0.92433,17.38375 0.33246,17.34956 -0.18852,-0.0109 -1.16539,-1.28723 -2.17082,-2.8363 z m -51.09851,-0.78632 c -2.48168,-0.47846 -5.32113,-2.64724 -6.59967,-5.04086 -1.53333,-2.87064 -1.33149,-7.26097 0.45817,-9.96532 3.44065,-5.19918 10.95952,-5.87773 15.28946,-1.37982 1.53176,1.59118 2.87578,4.7062 2.87578,6.66518 0,6.04331 -5.98806,10.88447 -12.02374,9.72082 z m 235.62175,-5.81956 c -0.74993,-0.95419 -1.71742,-2.42641 -2.14999,-3.27161 -0.90809,-1.77436 -1.57461,-6.96588 -0.80016,-6.23253 0.62047,0.58757 4.78683,10.76587 4.51722,11.03548 -0.11195,0.11195 -0.81712,-0.57716 -1.56707,-1.53134 z m -149.56159,-1.37615 c -0.6284,-0.11127 -2.60383,-0.89932 -4.38984,-1.75122 -8.11331,-3.86993 -13.30978,-13.56629 -11.68135,-21.79682 1.80386,-9.1172 9.04632,-16.26277 17.9201,-17.68036 12.04327,-1.92392 23.74392,8.30036 23.74392,20.74794 0,9.49928 -6.29168,17.75355 -15.32598,20.10669 -2.50673,0.65292 -7.63585,0.83965 -10.26685,0.37377 z M 622.29229,575.6156 c -4.11229,-0.5926 -10.04282,-2.39877 -17.75844,-5.40843 -9.80559,-3.8249 -17.40515,-6.23398 -27.25753,-8.64071 -13.40052,-3.27345 -30.67148,-5.38297 -41.13824,-5.02471 -2.76114,0.0945 -5.02027,0.0419 -5.02027,-0.11683 0,-0.60022 10.11446,-7.3589 13.91432,-9.29782 9.64575,-4.92186 22.70856,-8.74558 36.3033,-10.62665 7.37559,-1.02054 23.92221,-0.99858 31.58805,0.042 6.83137,0.92723 16.02519,2.73433 19.0601,3.74636 5.39945,1.80053 10.84356,5.35164 13.71409,8.94548 4.7385,5.93253 4.4503,15.54883 -0.62874,20.97873 -4.3193,4.61768 -13.35337,6.76057 -22.77664,5.40265 z M 420.06318,525.66998 c 0,-0.43543 7.97856,-8.76777 10.81731,-11.29697 1.21419,-1.0818 -0.67158,1.00669 -4.1906,4.64107 -3.51901,3.63438 -6.44962,6.69365 -6.51246,6.79838 -0.0629,0.10474 -0.11425,0.0406 -0.11425,-0.14248 z m 28.33492,-12.38734 c 1.3653,-1.38247 2.58519,-2.51358 2.71087,-2.51358 0.12568,0 -0.88855,1.13111 -2.25385,2.51358 -1.3653,1.38247 -2.58519,2.51358 -2.71087,2.51358 -0.12568,0 0.88856,-1.13111 2.25385,-2.51358 z"
   id="path2-0"
   style="stroke-width:0.457015" />
                    
                    <path
   fill="#000000"
   d="m 454.20902,432.80191 c -11.90593,-1.24954 -21.05195,-3.6588 -30.88224,-8.1351 l -5.66479,-2.57949 v -41.08137 -41.08136 l 12.17725,-0.48025 c 15.60275,-0.61535 43.36997,-0.61535 58.9727,0 l 12.17728,0.48025 v 41.07707 41.07708 l -6.39573,2.95722 c -7.03402,3.25235 -14.27771,5.54807 -21.01455,6.66007 -5.29352,0.87376 -15.84279,1.47605 -19.36992,1.10588 z m 11.1743,-16.42846 -5.27184,-5.16182 -2.21518,1.30852 c -1.21836,0.7197 -3.9331,3.04805 -6.03277,5.1741 l -3.81758,3.86557 11.3046,-0.0122 11.30463,-0.0122 z m -14.67636,-18.41447 c -2.09965,-2.12605 -4.77899,-4.43346 -5.95405,-5.12759 l -2.13649,-1.26205 -4.25412,3.56136 c -2.33979,1.95876 -4.88076,4.26618 -5.64659,5.12761 l -1.39244,1.56625 h 11.60063 11.60064 z m 34.52103,1.60441 c -1.18076,-1.24364 -3.71403,-3.58074 -5.62951,-5.19357 -3.34688,-2.81807 -3.55144,-2.88739 -5.24535,-1.77751 -0.96947,0.63523 -3.67826,2.96033 -6.01954,5.16693 l -4.25687,4.01201 11.64904,0.0266 11.64908,0.0265 z m -34.70423,-21.55367 c -1.79229,-1.84174 -4.16656,-4.0045 -5.27617,-4.80612 -2.01635,-1.45668 -2.01881,-1.45666 -4.38565,0.0146 -1.30248,0.8099 -3.83456,2.97264 -5.62685,4.80612 l -3.25868,3.33356 h 10.90303 10.903 z m 32.89233,0 c -1.79229,-1.84174 -4.16656,-4.0045 -5.27617,-4.80612 -2.01635,-1.45668 -2.01881,-1.45666 -4.38565,0.0146 -1.30249,0.8099 -3.83456,2.97264 -5.62685,4.80612 l -3.25868,3.33356 h 10.90303 10.903 z M 448.90302,356.8477 c -2.71729,-2.59972 -5.42791,-4.72677 -6.02358,-4.72677 -0.59569,0 -3.30631,2.12705 -6.02361,4.72677 l -4.9405,4.72679 h 10.96411 10.96411 z m 32.89233,0 c -2.7173,-2.59972 -5.42792,-4.72677 -6.02358,-4.72677 -0.5957,0 -3.30632,2.12705 -6.02361,4.72677 l -4.9405,4.72679 h 10.96411 10.9641 z m -51.48366,-20.20039 c -0.43106,-0.53482 -1.82031,-3.04127 -3.08722,-5.56985 l -2.30349,-4.59744 4.2281,-1.87877 c 2.32547,-1.03333 7.3529,-2.70917 11.17207,-3.72409 9.14872,-2.43124 25.47072,-2.74662 35.07364,-0.67773 6.29496,1.35623 17.21911,5.20543 17.90006,6.30722 0.65982,1.06761 -4.95831,10.99557 -6.22228,10.99557 -0.64959,0 -3.13142,-0.79248 -5.51517,-1.7611 -12.96647,-5.2687 -29.4408,-5.43329 -43.06361,-0.43018 -6.14662,2.2574 -7.28935,2.44403 -8.1821,1.33637 z m -11.54788,-17.22854 c -1.78645,-2.82746 -2.23571,-4.41807 -2.45077,-8.67721 -0.56297,-11.14833 6.33301,-18.88248 17.6565,-19.80253 2.48834,-0.20223 6.00441,-1.07372 7.81349,-1.93676 3.69748,-1.76392 13.03354,-2.14759 15.78164,-0.64854 1.18144,0.64447 2.34269,0.58093 5.11658,-0.27997 4.54628,-1.41097 10.73469,-0.94739 14.75891,1.10561 1.92805,0.9836 4.42616,1.54878 6.89102,1.55902 10.31277,0.0429 18.0968,8.24575 18.11278,19.08753 0.005,3.90122 -0.39339,5.61702 -2.03964,8.76828 -1.12572,2.15487 -2.53936,4.01281 -3.14144,4.12876 -0.60207,0.11598 -3.02232,-0.64169 -5.37831,-1.68361 l -4.28363,-1.89439 2.64659,-2.18153 c 3.10565,-2.55993 4.04052,-5.97898 2.78269,-10.17716 -0.72974,-2.43572 -4.37524,-6.55924 -5.80223,-6.56312 -0.27066,-7.3e-4 -0.38104,1.96554 -0.24528,4.36946 0.27547,4.8779 -1.5329,11.55064 -3.31576,12.23477 -0.59918,0.23 -3.3873,0.007 -6.19582,-0.4945 l -5.10635,-0.91255 2.57164,-2.35554 c 1.41442,-1.29553 2.7928,-3.23661 3.06311,-4.31349 1.81029,-7.21283 -5.73772,-14.73764 -12.28582,-12.24807 l -2.00246,0.76134 v 8.42384 8.42386 h -4.38565 -4.38564 v -8.70698 -8.70698 l -2.83101,-0.4783 c -5.41705,-0.9152 -10.627,2.98195 -11.54445,8.63547 -0.43849,2.70208 0.85995,5.85144 3.3365,8.09266 0.84521,0.7649 1.53673,1.64533 1.53673,1.95654 0,0.31121 -1.88288,0.9567 -4.18415,1.43444 -2.30129,0.47774 -4.58314,1.02172 -5.0708,1.20887 -0.49351,0.18931 -1.62556,-1.06412 -2.55305,-2.82687 -1.30931,-2.48842 -1.67154,-4.38084 -1.6904,-8.83092 -0.0122,-3.11511 -0.30359,-5.66424 -0.6453,-5.66476 -1.20401,-0.002 -5.51154,4.90717 -5.99454,6.83157 -0.84129,3.35198 0.29829,6.88337 3.09906,9.6034 l 2.63137,2.55555 -4.14653,1.83377 c -2.28059,1.00857 -4.54828,1.83319 -5.03935,1.83246 -0.49105,-7.1e-4 -1.87715,-1.55926 -3.08023,-3.46342 z m 37.63803,-34.90939 c 0,-2.35525 -0.17396,-2.55828 -2.19282,-2.55828 -2.071,0 -2.19282,-0.16251 -2.19282,-2.92374 0,-2.76131 0.12182,-2.92375 2.19282,-2.92375 1.94917,0 2.19282,-0.24364 2.19282,-2.1928 0,-2.07099 0.16251,-2.19281 2.92376,-2.19281 2.76132,0 2.92376,0.12182 2.92376,2.19281 0,1.93795 0.24911,2.1928 2.14356,2.1928 2.3549,0 3.42711,1.80339 2.60756,4.38562 -0.32505,1.02406 -1.10594,1.46187 -2.60756,1.46187 -1.9625,0 -2.14356,0.21611 -2.14356,2.55828 0,2.49736 -0.0697,2.55827 -2.92376,2.55827 -2.85415,0 -2.92376,-0.0609 -2.92376,-2.55827 z"
   id="path4"
   style="stroke-width:0.730939" />
                    <path
   fill="#000000"
   d="m 734.7239,413.20225 c -0.26949,-0.0663 -1.35813,-0.29081 -2.4192,-0.4989 -4.36661,-0.85637 -8.24729,-2.48201 -12.03708,-5.04241 -7.74219,-5.23065 -12.97141,-12.97141 -15.13804,-22.40864 -0.50538,-2.20135 -0.51779,-2.81644 -0.5981,-29.66071 l -0.082,-27.41275 h 4.26789 4.26791 l 0.11895,-0.63473 c 0.0999,-0.5326 -0.0128,-0.69071 -0.69769,-0.98264 -0.91875,-0.39137 -1.21964,-1.14972 -1.00106,-2.52301 0.0911,-0.57281 -5.1e-4,-1.11204 -0.27068,-1.59199 -0.35425,-0.6293 -0.36591,-0.84603 -0.0877,-1.63034 0.39153,-1.10392 0.19078,-1.47839 -2.02009,-3.76812 -1.10462,-1.14401 -1.72884,-1.59181 -2.38197,-1.70875 -1.39432,-0.24963 -1.63593,-0.71543 -1.63183,-3.14598 0.004,-2.33198 -0.65183,-4.93046 -1.53224,-6.07158 -0.27389,-0.35501 -0.8805,-0.78648 -1.34802,-0.95885 -0.46753,-0.17236 -0.85004,-0.39924 -0.85004,-0.50419 0,-0.30641 0.89406,-0.70794 1.57632,-0.70794 0.48535,0 0.63103,-0.12806 0.63933,-0.56199 0.006,-0.30909 0.15194,-0.96465 0.32449,-1.45679 0.30261,-0.863 0.28917,-0.90918 -0.37823,-1.29969 -0.57428,-0.33604 -0.69198,-0.57162 -0.69198,-1.38504 0,-0.58145 0.15479,-1.1111 0.38053,-1.30212 0.6115,-0.51742 1.84262,-0.39513 2.34115,0.23255 0.42327,0.53292 0.46513,0.53803 1.07431,0.13107 l 0.6339,-0.42345 -0.50002,-0.54265 c -1.45246,-1.57628 0.69707,-3.91081 2.19485,-2.38377 0.26949,0.27476 0.48997,0.72435 0.48997,0.9991 0,0.60395 0.0113,0.60487 1.08073,0.0851 0.79493,-0.38648 0.8285,-0.44914 0.49829,-0.92978 -0.49319,-0.71789 -0.44173,-1.463 0.14546,-2.10556 0.95632,-1.04656 2.68532,-0.4117 2.68532,0.98601 0,0.72096 0.0359,0.74716 0.79621,0.58109 1.00745,-0.22004 0.97666,-0.17738 0.68746,-0.95296 -0.71487,-1.91695 1.53935,-3.28828 2.72277,-1.65636 0.30044,0.41432 0.79551,0.9198 1.10016,1.12332 0.55183,0.36863 0.5537,0.36528 0.50226,-0.89812 -0.0409,-1.00586 0.0467,-1.34152 0.42394,-1.62287 0.87787,-0.65482 2.5868,-0.28025 2.5868,0.56698 0,0.36973 0.0386,0.36898 0.44801,-0.009 0.24641,-0.22736 0.57715,-0.41338 0.73498,-0.41338 0.15781,0 0.28693,-0.21842 0.28693,-0.48539 0,-0.55163 0.86659,-1.26303 1.53855,-1.26303 0.24727,0 0.93932,0.27877 1.53791,0.61949 l 1.08836,0.61948 v -0.63084 c 0,-1.19921 1.51041,-2.21877 2.41833,-1.6324 0.38103,0.24609 1.68122,-0.35863 2.16463,-1.00677 0.17954,-0.24072 0.85802,-0.47809 1.65781,-0.57996 1.12059,-0.14275 1.35388,-0.2563 1.35388,-0.659 0,-0.75213 1.16706,-2.45991 1.90763,-2.79147 0.86452,-0.38705 1.02394,-0.63802 1.02848,-1.61909 0.003,-0.70622 -0.0781,-0.81177 -0.62576,-0.81177 -0.5127,0 -0.61498,-0.10429 -0.55122,-0.56199 0.0503,-0.36117 0.27527,-0.59052 0.62951,-0.64181 0.35425,-0.0513 0.55122,-0.25213 0.55122,-0.562 0,-0.3478 0.17068,-0.48217 0.61248,-0.48217 0.44914,0 0.61246,0.13321 0.61246,0.49955 0,0.33303 0.16333,0.49955 0.48999,0.49955 0.35931,0 0.48998,0.16651 0.48998,0.62443 0,0.45792 -0.13073,0.62444 -0.48998,0.62444 -0.40881,0 -0.48999,0.16652 -0.48999,1.00528 0,0.81167 0.10617,1.04709 0.55123,1.22237 0.98925,0.3896 2.14365,1.9903 2.14365,2.97241 0,0.40406 0.23327,0.5169 1.36703,0.66133 0.88468,0.11269 1.50898,0.34317 1.76937,0.65321 0.22129,0.2635 0.5297,0.47908 0.68538,0.47908 0.15567,0 0.41836,0.16624 0.58375,0.36942 0.21845,0.26836 0.4233,0.30252 0.74886,0.12489 1.10049,-0.60048 2.44026,0.15664 2.44026,1.379 0,0.75869 0.331,0.78221 1.55965,0.11084 1.20653,-0.6593 1.86371,-0.55021 2.47881,0.41148 0.71011,1.11024 1.45928,1.41979 1.98974,0.82218 0.53866,-0.60683 1.8527,-0.61427 2.38595,-0.0135 0.23773,0.26783 0.40545,0.87806 0.40545,1.47527 0,0.90217 0.0571,1.00326 0.49978,0.88523 0.27488,-0.0733 0.65668,-0.44253 0.84841,-0.82056 0.84371,-1.66342 3.0616,-1.18669 3.0616,0.65807 0,0.40818 -0.11979,0.86434 -0.26634,1.01369 -0.30212,0.30803 -0.14343,0.43862 0.81758,0.67281 0.5892,0.14358 0.67371,0.0907 0.67371,-0.42148 0,-0.69874 0.93999,-1.67183 1.61496,-1.67183 0.83879,0 1.5699,0.71216 1.5699,1.52922 0,0.41337 -0.10461,0.95091 -0.23251,1.19453 -0.19026,0.36244 -0.0813,0.5164 0.59922,0.8473 0.80823,0.39294 0.83639,0.38879 0.99646,-0.14714 0.45275,-1.51592 1.89885,-1.91466 2.78386,-0.7676 0.65675,0.85125 0.64216,1.47552 -0.0511,2.18225 l -0.55878,0.56969 0.57779,0.44434 c 0.55769,0.42888 0.59389,0.42672 1.04047,-0.062 0.72877,-0.79753 1.43044,-0.91424 2.16236,-0.35968 1.12741,0.85423 0.85897,2.6554 -0.46268,3.10456 -0.24019,0.0816 -0.24713,0.22677 -0.0307,0.63924 0.15406,0.29349 0.28012,0.93442 0.28012,1.42426 0,0.83667 0.0483,0.89112 0.79621,0.89858 0.74176,0.007 1.65367,0.46585 1.65367,0.83135 0,0.0879 -0.21203,0.1598 -0.47117,0.1598 -0.61107,0 -1.89375,1.10618 -2.36887,2.04291 -0.67008,1.32107 -1.25146,4.71576 -0.98651,5.76018 0.36652,1.44483 -0.54947,2.67571 -2.00346,2.69216 -0.51102,0.006 -3.2533,2.68525 -3.98715,3.89585 -0.39643,0.65396 -0.46318,0.95441 -0.25843,1.16315 0.4111,0.41914 0.33366,1.70083 -0.13471,2.22842 -0.31484,0.35468 -0.34342,0.53124 -0.12249,0.7565 0.77284,0.78794 -0.13045,3.19121 -1.19951,3.19121 -0.36134,0 -0.4722,0.17592 -0.4722,0.74932 v 0.74932 h 4.27718 4.27719 l 0.0714,24.66523 c 0.0393,13.56587 -0.0153,25.95072 -0.12136,27.52188 -0.57543,8.52882 -3.74739,15.93817 -9.42905,22.02525 -4.70798,5.04392 -10.86633,8.56949 -17.90769,10.2519 -1.6247,0.38819 -3.19178,0.52534 -6.76894,0.59241 -2.56013,0.048 -4.87527,0.0331 -5.14475,-0.0333 z m 10.65701,-0.97203 c 1.01058,-0.2061 2.65419,-0.62168 3.65246,-0.92353 l 1.81505,-0.54882 -1.08008,-0.48131 c -0.59404,-0.26472 -1.8518,-0.53584 -2.795,-0.60247 -1.59103,-0.1124 -1.90078,-0.0441 -4.28731,0.94558 -3.47866,1.44254 -4.58386,1.44181 -8.06216,-0.005 -2.31053,-0.96131 -2.70153,-1.0508 -4.16481,-0.95327 -0.88819,0.0592 -2.00076,0.28187 -2.47236,0.49478 l -0.85746,0.38713 0.73497,0.29845 c 1.19286,0.48439 5.26247,1.4818 7.10847,1.74219 2.25009,0.31739 8.09166,0.11906 10.40823,-0.35338 z M 726.66203,406.953 c 1.92483,-0.83629 2.4215,-0.94933 4.21222,-0.95875 1.11656,-0.006 2.10876,0.10172 2.2049,0.2391 0.0961,0.13738 0.34018,0.28439 0.5423,0.32669 0.20211,0.0423 1.08407,0.37423 1.95991,0.73762 2.44907,1.01615 4.12321,0.91832 7.33044,-0.42841 2.30276,-0.96694 2.69919,-1.05971 4.0423,-0.94599 0.95401,0.0808 2.28153,0.46895 3.69407,1.08013 2.46388,1.06609 4.65372,1.28319 6.24721,0.61936 1.11247,-0.46345 3.21232,-1.91729 4.85853,-3.36382 l 1.30619,-1.14776 h -0.99765 c -0.57436,0 -2.11288,0.43237 -3.62606,1.01903 -3.24019,1.25622 -4.69183,1.32817 -6.98439,0.34616 -2.24382,-0.96112 -4.30224,-1.61496 -5.08422,-1.61496 -0.3764,0 -1.92802,0.51282 -3.44803,1.13959 -3.68769,1.52062 -4.81399,1.53767 -8.25097,0.12489 -3.36185,-1.38189 -4.55718,-1.38049 -7.93839,0.009 -3.35827,1.38043 -4.42253,1.37883 -7.80542,-0.0117 -1.38594,-0.5697 -2.68864,-1.00243 -2.89492,-0.96163 -0.39801,0.0787 1.85387,2.0566 4.48449,3.93887 1.3671,0.97819 1.55723,1.04298 2.71765,0.92604 0.68622,-0.0691 2.22965,-0.55236 3.42984,-1.0738 z m 0.39375,-6.62159 c 2.26967,-0.93295 2.64498,-1.01561 4.10318,-0.90371 1.10773,0.085 2.28819,0.41882 3.80992,1.07739 3.03595,1.31389 4.33063,1.31283 7.47215,-0.006 3.45695,-1.45132 4.64589,-1.47084 7.86814,-0.12922 3.52348,1.46703 4.81181,1.4735 8.21553,0.0412 2.7761,-1.16819 4.1815,-1.31878 6.10249,-0.65384 0.62382,0.21594 1.15998,0.35643 1.19145,0.31222 0.0315,-0.0442 0.3671,-0.50494 0.74589,-1.02385 0.37879,-0.51889 0.64027,-0.99282 0.58108,-1.05317 -0.0592,-0.0604 -0.7636,-0.40846 -1.56535,-0.77359 -2.28273,-1.03958 -3.99856,-0.94696 -7.20163,0.38874 -2.39383,0.99825 -2.67065,1.05871 -4.28731,0.9365 -1.22947,-0.0929 -2.36457,-0.40148 -3.93314,-1.06909 -2.98018,-1.26843 -4.05865,-1.25293 -7.53572,0.10834 -3.52821,1.38131 -4.55258,1.38143 -7.87049,8.4e-4 -3.40524,-1.41676 -4.53644,-1.41477 -7.99021,0.0141 -2.35168,0.9729 -2.71951,1.05572 -4.2873,0.9653 -1.24613,-0.0718 -2.19282,-0.31637 -3.46315,-0.8944 -2.68054,-1.21973 -3.95193,-1.42692 -5.65691,-0.92186 -2.38625,0.70687 -2.41338,0.73964 -1.54132,1.86223 l 0.74994,0.96537 1.77877,-0.13716 c 1.66262,-0.1282 1.9382,-0.0717 4.22076,0.865 1.34308,0.55118 2.66247,1.06437 2.93195,1.14042 1.04763,0.29565 3.16893,-0.12846 5.56128,-1.11184 z m -0.19209,-6.45392 c 3.48651,-1.35172 4.48079,-1.34622 7.93991,0.0439 3.46951,1.39424 4.42454,1.3894 7.88243,-0.04 2.39298,-0.98917 2.69198,-1.05446 4.28731,-0.93622 1.22308,0.0907 2.34727,0.39707 3.9198,1.06837 3.04314,1.29909 4.29281,1.28138 7.63156,-0.10816 3.33344,-1.38732 4.43133,-1.39253 7.55775,-0.0359 1.26632,0.5495 2.50486,0.99909 2.7523,0.99909 0.30889,0 0.69103,-0.49856 1.21933,-1.59084 l 0.76946,-1.59085 -1.30321,-0.0119 c -0.93666,-0.009 -2.00109,-0.2988 -3.78429,-1.03179 -3.37194,-1.38605 -4.568,-1.38631 -7.9363,-0.002 -3.38205,1.3902 -4.56312,1.39117 -7.92344,0.007 -3.05828,-1.26016 -4.5833,-1.3448 -6.82279,-0.37869 -4.16765,1.79792 -5.24797,1.84818 -8.75344,0.40717 -1.31106,-0.53894 -2.30326,-1.06386 -2.20489,-1.16646 0.0984,-0.10262 -0.84989,-0.14721 -2.10721,-0.0991 -1.67294,0.064 -2.36285,0.1888 -2.57239,0.46521 -0.34784,0.45883 -1.48848,0.99605 -2.11487,0.99605 -0.25191,0 -0.49751,0.12077 -0.54577,0.26836 -0.0483,0.1476 -0.75878,0.3304 -1.57893,0.40622 -1.59609,0.14755 -3.42998,-0.30544 -4.9066,-1.21201 -0.42637,-0.26177 -0.86735,-0.45227 -0.97996,-0.42336 -0.11256,0.0289 -0.64573,-0.0797 -1.1847,-0.24124 -1.10385,-0.33098 -3.22378,-0.39714 -3.34818,-0.1045 -0.0448,0.10567 -1.15656,0.63199 -2.4703,1.16961 -1.31375,0.53763 -2.38864,1.01067 -2.38864,1.05122 0,0.32002 1.37609,2.83232 1.55138,2.83232 0.12335,0 1.07896,-0.3934 2.12345,-0.87421 2.60736,-1.20025 3.85028,-1.18338 7.16361,0.0972 1.3824,0.53431 2.73394,1.03271 3.00342,1.10755 0.94412,0.26221 2.5489,-0.0735 5.1242,-1.07194 z m -2.5187,-5.93097 c 0.72288,-0.23539 1.45328,-0.56573 1.62313,-0.73411 0.16985,-0.16838 0.69351,-0.44797 1.16369,-0.62131 0.81946,-0.3021 0.85552,-0.36744 0.86987,-1.57631 0.0142,-1.18481 0.0765,-1.30672 1.03227,-2.01422 0.8283,-0.61317 1.10157,-1.03078 1.47094,-2.24797 1.24482,-4.10189 1.42747,-5.22404 1.57196,-9.65752 0.13215,-4.05214 0.10717,-4.45349 -0.30193,-4.8706 -0.24522,-0.25003 -0.48131,-0.42649 -0.52462,-0.39214 -0.3463,0.27461 -0.42933,-0.20143 -0.32373,-1.85603 0.11725,-1.83784 0.15096,-1.92705 0.7929,-2.10101 0.79956,-0.21668 1.65275,-0.0302 1.66775,0.36444 0.006,0.1557 0.16255,-0.15108 0.3481,-0.68173 0.18554,-0.53064 0.59635,-1.26123 0.9129,-1.62353 0.99942,-1.14387 1.60084,-2.15077 1.77922,-2.97876 0.26735,-1.24104 -0.46291,-0.77404 -1.12493,0.71939 -0.2989,0.67429 -0.63405,1.22599 -0.74478,1.22599 -0.28014,0 -1.25197,1.01117 -1.55593,1.6189 -0.29687,0.59359 -1.096,1.00475 -2.4143,1.2422 -0.82201,0.14805 -0.93038,0.11515 -0.79605,-0.24174 0.10078,-0.2676 0.0476,-0.377 -0.15091,-0.31056 -0.44858,0.15018 -0.51301,1.31941 -0.10944,1.98539 0.5222,0.86165 1.04262,3.02754 0.75123,3.12656 -0.14196,0.0483 -0.20121,0.73283 -0.1418,1.63876 0.095,1.44826 0.0737,1.52821 -0.30735,1.15562 -0.22515,-0.22015 -0.43262,-0.55735 -0.4611,-0.74932 -0.20153,-1.35901 -0.94405,-1.05582 -0.88969,0.36327 0.0894,2.3344 -0.1461,2.41136 -1.06919,0.34936 l -0.5739,-1.28197 -0.1732,1.10433 c -0.20155,1.28505 -0.43327,1.0762 -0.98079,-0.88404 -0.94226,-3.37353 -1.07071,-6.95029 -0.48887,-13.6127 l 0.1418,-1.62354 -1.55439,-0.91226 c -2.2662,-1.33001 -4.6484,-2.51069 -4.7849,-2.37153 -0.29137,0.29705 -0.46956,8.89314 -0.45747,22.06681 0.01,11.082 0.0819,14.3571 0.31937,14.59931 0.16843,0.17173 0.30623,0.51061 0.30623,0.75305 0,0.493 0.56606,0.87164 1.58459,1.05995 0.37423,0.0692 0.7404,0.18693 0.8137,0.26166 0.25579,0.26079 1.47513,0.13266 2.77959,-0.29209 z m -13.38501,-0.89161 c 1.34036,-0.54748 2.70079,-0.92316 3.46957,-0.95814 1.19917,-0.0545 1.27254,-0.0973 1.41668,-0.82566 0.0836,-0.42247 0.27807,-1.38633 0.43212,-2.14189 0.32448,-1.59159 0.35073,-3.05897 0.21,-11.7394 -0.0569,-3.50309 -0.039,-10.0222 0.0395,-14.48692 0.10007,-5.69246 0.063,-8.21663 -0.12434,-8.44892 -0.18941,-0.23484 -0.19074,-0.38024 -0.004,-0.49955 0.14596,-0.0936 0.21692,-0.61182 0.15981,-1.16739 -0.0565,-0.54951 -0.11384,-1.76173 -0.12732,-2.69384 l -0.0247,-1.69472 -0.55823,0.83754 c -0.30703,0.46066 -0.6789,1.29449 -0.82641,1.85297 -0.14751,0.55849 -0.43277,1.15467 -0.63391,1.32488 -0.31019,0.26246 -0.36357,0.20051 -0.35161,-0.40802 0.009,-0.3946 0.20491,-1.46278 0.43809,-2.37372 l 0.42395,-1.65626 -0.5604,0.0327 c -0.30822,0.018 -0.56048,0.13576 -0.56057,0.26169 -10e-5,0.12592 -0.0723,0.15551 -0.16025,0.0658 -0.088,-0.0898 -0.52903,0.0693 -0.97995,0.3534 -0.45094,0.28413 -0.81989,0.45027 -0.81989,0.36918 0,-0.0811 -0.34863,0.19226 -0.77476,0.60743 -0.69348,0.67569 -2.1173,1.31904 -2.39333,1.08144 -0.155,-0.13341 1.39964,-1.74905 2.72627,-2.83325 0.63284,-0.51719 1.09788,-0.99411 1.03342,-1.05982 -0.14268,-0.14546 -2.25294,0.12977 -2.49025,0.32481 -0.0336,0.0277 -0.14393,0.0738 -0.24499,0.10248 -0.10107,0.0286 -0.51449,0.18656 -0.91871,0.35085 -1.23001,0.49989 -1.28322,0.50809 -2.00044,0.3083 -0.68368,-0.19044 -0.67201,-0.20508 0.7524,-0.94414 l 1.44685,-0.7507 -0.83437,-0.17755 -0.83437,-0.17755 0.61246,-0.3341 c 0.33687,-0.18377 1.10858,-0.47756 1.71493,-0.65289 1.64092,-0.47447 1.787,-0.7764 0.3188,-0.65885 -1.32244,0.10588 -3.39813,-0.55286 -2.84342,-0.90239 0.15189,-0.0957 1.44353,-0.24683 2.87032,-0.33583 1.4268,-0.089 2.59417,-0.20898 2.59417,-0.2666 0,-0.28816 -0.76311,-0.83017 -0.97808,-0.69471 -0.13584,0.0856 -0.24686,0.0245 -0.24686,-0.13568 0,-0.16018 -0.16538,-0.22655 -0.36749,-0.14747 -0.20213,0.0791 -0.36749,0.0471 -0.36749,-0.0711 0,-0.11818 -0.24804,-0.2834 -0.55122,-0.36715 -0.6548,-0.18091 -1.61889,-1.40051 -1.10709,-1.40051 0.68543,0 4.29047,1.32149 5.52977,2.02704 1.10951,0.63165 1.28827,0.6744 1.22495,0.29292 -0.0852,-0.51281 -0.16519,-0.63358 -1.20263,-1.81368 -0.77315,-0.87946 -1.31393,-1.97091 -1.08979,-2.19944 0.17536,-0.17877 1.80292,1.34477 3.0587,2.86322 l 1.07097,1.29495 0.67544,-1.45613 c 1.18661,-2.55807 3.17089,-4.26642 3.78288,-3.25685 0.0833,0.13737 0.0346,0.24977 -0.10802,0.24977 -0.14269,0 -0.25945,0.11715 -0.25945,0.26032 0,0.26025 -0.23543,0.60078 -1.0412,1.506 -0.23581,0.26491 -0.42874,0.53785 -0.42874,0.60654 v 0.37466 c 0,0.13738 -0.14699,0.24977 -0.32665,0.24977 -0.17965,0 -0.33617,0.1405 -0.3478,0.31222 -0.0359,0.52937 -0.26902,1.42375 -0.44821,1.71932 -0.0938,0.15468 -0.0724,0.23352 0.0474,0.17518 0.1198,-0.0584 0.9396,-0.46621 1.82173,-0.9064 1.50184,-0.74942 5.86827,-1.9368 5.86827,-1.59577 0,0.27153 -1.28852,1.29455 -1.63053,1.29455 -0.18116,0 -0.32946,0.0843 -0.32955,0.18733 -10e-5,0.10303 -0.27166,0.20329 -0.60349,0.22278 -0.33183,0.0195 -0.77201,0.20743 -0.97816,0.41763 -0.42809,0.43643 -0.45904,0.42625 2.87503,0.94487 1.04812,0.16304 1.95624,0.37985 2.01804,0.4818 0.0619,0.10195 -0.19957,0.31709 -0.58083,0.4781 -0.57242,0.24174 -1.55749,0.23681 -3.16279,-0.0158 -0.97323,-0.15315 -0.589,0.17913 0.89913,0.77755 2.20191,0.88545 2.48692,1.13108 1.58131,1.36282 -0.67538,0.17282 -0.66851,0.18304 0.64162,0.95421 1.31712,0.77529 1.3206,0.78053 0.6401,0.96608 -0.4973,0.13559 -1.04051,0.0204 -1.98848,-0.42169 -0.71736,-0.33453 -1.56066,-0.65667 -1.87401,-0.71588 -0.31337,-0.0592 -0.59731,-0.13004 -0.63099,-0.15742 -0.11015,-0.0896 -0.67055,-0.1461 -0.8092,-0.0817 -0.0745,0.0346 0.673,0.92832 1.66113,1.98598 0.98814,1.05766 1.74376,1.97689 1.67916,2.04275 -0.25121,0.25612 -1.68255,-0.46132 -2.3299,-1.16784 -0.37457,-0.40882 -1.13808,-0.92975 -1.69669,-1.15763 -0.5586,-0.22786 -1.01564,-0.49577 -1.01564,-0.59533 0,-0.0996 -0.17012,-0.18103 -0.37802,-0.18103 -0.20791,0 -0.32997,0.12768 -0.27123,0.28374 0.37205,0.9885 0.93166,3.39006 0.84892,3.64314 -0.16,0.48934 -0.88715,-0.41169 -1.17922,-1.46119 -0.14166,-0.50898 -0.56717,-1.29213 -0.9456,-1.74032 l -0.68805,-0.81491 0.0918,1.43935 c 0.13584,2.12995 0.31029,3.06287 0.57257,3.06287 0.1286,0 0.23388,-0.11903 0.23388,-0.26452 0,-0.14548 0.12235,-0.18739 0.27198,-0.0931 0.15729,0.0991 0.21682,0.51807 0.14109,0.99343 l -0.13087,0.82205 2.00252,0.81028 c 1.10137,0.44565 2.39724,1.0094 2.8797,1.25276 l 0.87719,0.44249 0.4531,-1.54458 c 0.24921,-0.84951 0.82981,-2.27516 1.29023,-3.1681 1.93911,-3.76082 2.41837,-4.24617 4.19299,-4.24617 1.1138,0 1.58773,0.46057 2.22021,2.15762 0.4493,1.20558 0.44835,1.23125 -0.12718,3.46243 -0.71316,2.7649 -0.71501,2.80906 -0.0931,2.2352 0.41595,-0.38376 0.58651,-0.412 0.97903,-0.16207 0.37327,0.23765 0.68601,0.23562 1.45624,-0.009 0.53948,-0.17166 0.98088,-0.38912 0.98088,-0.48323 0,-0.0941 0.16797,-0.34238 0.37326,-0.55169 0.33437,-0.34089 0.32241,-0.40831 -0.11483,-0.64686 -0.61648,-0.33638 -1.79088,-2.35736 -1.87298,-3.22317 -0.0342,-0.36063 -0.2439,-1.15793 -0.46601,-1.77178 -0.45684,-1.26263 -0.34717,-2.33005 0.39089,-3.80506 1.09066,-2.17959 4.1418,-3.08636 6.34442,-1.88548 2.2857,1.24616 3.24405,4.39398 1.99492,6.55247 -0.28874,0.49893 -0.52498,1.02505 -0.52498,1.16915 0,0.1441 -0.33073,0.68774 -0.73496,1.20809 -0.40424,0.52036 -0.73498,1.05667 -0.73498,1.19179 0,0.13513 -0.16042,0.38144 -0.35651,0.54735 -0.5051,0.4274 -0.006,1.19063 1.0868,1.66221 0.70251,0.30313 0.95533,0.312 1.43489,0.0504 0.52374,-0.28577 0.64095,-0.24792 1.1684,0.37724 0.75064,0.88974 0.7721,0.45383 0.0962,-1.95561 -0.58828,-2.09725 -0.61421,-3.08485 -0.11313,-4.30749 0.57464,-1.40217 1.04948,-1.81198 2.09951,-1.81198 1.75717,0 2.01106,0.25574 4.21554,4.24617 0.79895,1.44618 1.63774,4.01135 1.63774,5.00842 0,0.42791 0.0873,0.74055 0.19404,0.69476 0.10674,-0.0458 1.43388,-0.80264 2.94925,-1.68189 l 2.75522,-1.59863 -0.0532,-1.04888 c -0.0393,-0.77556 0.0823,-1.1972 0.46687,-1.61808 0.61199,-0.6697 1.4081,-0.52192 1.2163,0.22579 -0.0822,0.32049 0.0283,0.51499 0.33969,0.59802 0.68624,0.18296 0.66376,2.28985 -0.0285,2.66755 -0.26949,0.14705 -0.48998,0.38336 -0.48998,0.52515 0,0.48917 1.83819,3.46169 2.14365,3.46646 0.16843,0.002 0.30624,0.16402 0.30624,0.35863 0,0.19462 -0.13783,0.40056 -0.30624,0.45765 -0.21155,0.0717 -0.33151,0.90833 -0.38796,2.70589 l -0.0817,2.60209 0.76652,0.29478 c 0.67912,0.26117 0.75296,0.24694 0.64754,-0.12489 -0.41391,-1.45975 -0.65632,-2.60747 -0.56944,-2.69605 0.0555,-0.0566 0.32414,0.71345 0.59698,1.71119 0.4651,1.70083 0.47038,1.84185 0.0843,2.25916 -0.22648,0.24481 -0.79933,0.50922 -1.273,0.58759 -0.68101,0.11267 -0.99834,0.0196 -1.51655,-0.4451 l -0.65533,-0.58758 0.83919,-3.18463 0.83917,-3.18462 h -1.81911 c -1.00052,0 -1.8173,0.0281 -1.81504,0.0624 0.003,0.0343 0.38455,1.46743 0.84956,3.18462 l 0.84548,3.12219 -0.61824,0.56199 c -0.81611,0.74186 -1.92087,0.72741 -2.66858,-0.0349 -0.55986,-0.57079 -0.62944,-1.65106 -0.10631,-1.65106 0.11483,0 0.14387,0.17231 0.0646,0.38292 -0.12349,0.32794 -0.052,0.34012 0.49766,0.0848 0.61413,-0.28527 0.64069,-0.37988 0.61612,-2.19378 l -0.0257,-1.89566 -0.32296,0.99909 c -0.17764,0.54951 -0.33143,1.1958 -0.34179,1.43621 -0.01,0.2404 -0.11867,0.4371 -0.24065,0.4371 -0.12207,0 0.0433,-0.98269 0.36747,-2.18377 0.69775,-2.5856 0.67152,-2.31217 0.22183,-2.31217 -0.20211,0 -0.36749,-0.1686 -0.36749,-0.37466 0,-0.20606 0.19293,-0.37599 0.42874,-0.37763 0.26942,-0.002 0.72816,-0.55872 1.23455,-1.49864 0.4432,-0.82263 0.70636,-1.49568 0.58479,-1.49568 -0.12151,0 -1.47638,0.81861 -3.01072,1.81916 l -2.78969,1.81916 0.052,0.9908 c 0.36564,6.97177 0.35806,10.1368 -0.0284,11.88561 -0.22411,1.01403 -0.61103,2.29328 -0.85983,2.84278 -0.46506,1.02716 -0.46029,1.02882 -0.89916,-0.31221 -0.10887,-0.33275 -0.29795,-0.13895 -0.79185,0.81176 -0.61229,1.17863 -0.65338,1.21023 -0.73067,0.56199 -0.0451,-0.37778 -0.16017,-0.68687 -0.25584,-0.68687 -0.0957,0 -0.13186,-0.4496 -0.0805,-0.9991 0.0514,-0.54951 0.0358,-0.9991 -0.0348,-0.9991 -0.0706,0 -0.36672,0.39339 -0.65819,0.87421 -0.79479,1.31111 -1.07492,1.11978 -0.89731,-0.61281 0.0869,-0.84775 0.0528,-1.54978 -0.0792,-1.63299 -0.13952,-0.0879 -0.10134,-0.46516 0.0961,-0.94828 0.73476,-1.79914 1.03373,-3.07321 0.86231,-3.67472 -0.0979,-0.34344 -0.18895,-0.48393 -0.20238,-0.31221 -0.0302,0.3876 -1.00438,0.41849 -1.00438,0.0319 0,-0.18969 -0.0991,-0.20037 -0.30623,-0.033 -0.38105,0.30778 -1.66628,-0.38165 -2.02116,-1.0842 -0.3084,-0.61052 -1.27664,-1.59972 -1.56583,-1.59972 -0.12009,0 -0.3843,-0.4215 -0.58708,-0.93666 -0.20279,-0.51516 -0.67386,-1.27148 -1.04683,-1.68071 l -0.67814,-0.74406 0.1685,1.07428 c 0.17287,1.10221 0.66163,1.95794 2.05571,3.59918 0.43792,0.51556 0.79621,1.10565 0.79621,1.31131 0,0.41262 0.3817,0.50488 0.59985,0.14501 0.0792,-0.13063 0.55102,-0.0639 1.0986,0.15544 l 0.95981,0.38439 0.0795,1.83183 c 0.0748,1.72445 0.0454,1.84767 -0.50371,2.10205 l -0.58327,0.27022 0.13243,3.92442 c 0.13172,3.90543 0.46077,6.16597 1.43476,9.85743 0.44001,1.6677 0.64328,2.04347 1.46385,2.70607 0.93929,0.75846 0.95288,0.79361 0.95288,2.46294 v 1.6935 l 1.1637,0.46268 c 1.90846,0.75879 3.73226,0.61708 6.30846,-0.49017 1.4795,-0.63588 2.73068,-0.99123 3.80302,-1.0801 1.45028,-0.12018 1.83552,-0.0381 4.1648,0.88675 1.41168,0.56055 3.0123,1.09025 3.55695,1.17711 0.97903,0.15614 2.91757,-0.21469 3.15305,-0.60315 0.067,-0.1104 0.37246,-1.25944 0.67898,-2.5534 l 0.55728,-2.35268 0.0738,-26.78831 0.0738,-26.7883 h -34.30623 -34.30581 l 0.004,25.41454 c 0.004,26.69787 0.042,27.76255 1.12451,32.15645 l 0.41438,1.6819 1.12696,-0.11276 c 0.61985,-0.062 2.11918,-0.51805 3.33187,-1.01339 z m 47.50421,-29.7149 c -0.33039,-1.27073 -0.64448,-2.42281 -0.69794,-2.56019 -0.0535,-0.13738 -0.10589,0.83787 -0.11653,2.16721 -0.0168,2.10176 0.0366,2.43189 0.4094,2.53121 1.00004,0.26645 1.01283,0.19896 0.40512,-2.13823 z m 2.69845,2.1588 c 0.31159,-0.1219 0.3841,-0.55015 0.37005,-2.18553 l -0.0175,-2.03391 -0.59118,2.12308 c -0.32518,1.1677 -0.59292,2.15118 -0.59501,2.18553 -0.007,0.11293 0.43893,0.0653 0.83361,-0.0892 z m 0.99999,-3.84478 c -0.093,-0.43178 -0.11398,-0.84124 -0.0467,-0.90993 0.0674,-0.0687 0.19861,0.22838 0.29162,0.66016 0.093,0.43177 0.11398,0.84124 0.0466,0.90992 -0.0674,0.0687 -0.19861,-0.22837 -0.29162,-0.66015 z m -1.69557,-3.55929 c -0.34149,-0.58384 -0.70604,-1.01862 -0.8101,-0.96616 -0.10404,0.0525 -0.4435,0.53016 -0.75431,1.06154 l -0.56511,0.96617 h 1.3752 1.37522 z m -53.15078,-46.48907 c 0.0172,-0.0173 0.2755,-0.52525 0.57417,-1.12884 l 0.54303,-1.09742 -1.12539,0.94018 c -1.22264,1.02144 -1.51712,1.78575 -0.57415,1.49025 0.30317,-0.095 0.56522,-0.18689 0.58234,-0.20417 z m 64.25032,-1.05969 c -0.57963,-0.60214 -1.0846,-1.0948 -1.12218,-1.0948 -0.26162,0 1.07404,2.24762 1.37825,2.31928 0.83068,0.19568 0.75288,-0.17636 -0.25607,-1.22448 z m -59.70193,-3.96318 c 0.76706,-0.40804 1.44577,-0.94117 1.50824,-1.18472 0.0703,-0.27417 0.34563,-0.44284 0.72278,-0.44284 0.76883,0 0.97446,-0.52744 0.57925,-1.48575 l -0.30804,-0.74692 -2.21534,1.10411 c -3.22459,1.60711 -4.51005,3.20406 -3.74786,4.65606 0.25085,0.47789 0.29644,0.46494 1.16369,-0.33035 0.49645,-0.45524 1.53022,-1.16156 2.29728,-1.56959 z m 58.3647,0.24258 c -0.50604,-1.08722 -2.31067,-2.45549 -4.45954,-3.38122 l -1.64728,-0.70965 -0.19849,0.76616 c -0.26912,1.03882 -0.10348,1.35553 0.80614,1.541 0.42475,0.0866 0.70772,0.26393 0.62885,0.39406 -0.0789,0.13011 0.61521,0.64301 1.54242,1.13977 0.92722,0.49675 1.99978,1.23725 2.38345,1.64555 l 0.69761,0.74237 0.32586,-0.63408 c 0.27836,-0.54166 0.26685,-0.76086 -0.0791,-1.50396 z m -48.29281,-2.26063 c 0.20685,-0.0809 0.31105,-0.33703 0.24381,-0.59921 -0.0646,-0.25183 0.009,-0.69824 0.16294,-0.99201 0.27881,-0.53117 0.27519,-0.53193 -0.6517,-0.1383 -1.20184,0.51038 -2.48058,1.40009 -2.64866,1.84284 -0.10703,0.28173 0.11951,0.31714 1.20026,0.18765 0.73266,-0.0878 1.49466,-0.22323 1.69335,-0.30097 z m 37.65369,0.17943 c 0,-0.34547 -0.77643,-0.93947 -2.1355,-1.63378 -1.39272,-0.71149 -1.79974,-0.8185 -1.34334,-0.35318 0.1617,0.16485 0.29399,0.61231 0.29399,0.99434 0,0.55451 0.13584,0.72517 0.67371,0.84611 0.37055,0.0833 0.78397,0.18898 0.91872,0.23481 0.51115,0.17384 1.59242,0.11388 1.59242,-0.0883 z m -35.27838,-2.41158 c 0,-0.20606 -0.16536,-0.37466 -0.36747,-0.37466 -0.63759,0 -0.43097,0.49226 0.30622,0.72961 0.0336,0.0108 0.0612,-0.14888 0.0612,-0.35495 z m 30.74609,-0.12488 c 0.0833,-0.13738 -0.0204,-0.24978 -0.23053,-0.24978 -0.21006,0 -0.38194,0.1124 -0.38194,0.24978 0,0.13737 0.10376,0.24977 0.23052,0.24977 0.12675,0 0.29867,-0.1124 0.38195,-0.24977 z m -19.08037,-2.34242 c 0.0159,-0.0167 0.10603,-0.46576 0.20049,-0.99782 l 0.17175,-0.96736 -1.18045,0.95487 c -0.64925,0.52519 -1.2907,1.05405 -1.42543,1.17525 -0.14256,0.12823 0.2672,0.14618 0.97995,0.043 0.67371,-0.0976 1.23787,-0.19113 1.25369,-0.20788 z m 7.93338,-0.65488 c -0.72238,-0.5495 -1.34865,-0.99909 -1.39168,-0.99909 -0.043,0 -0.0782,0.38627 -0.0782,0.85838 0,0.78125 0.0715,0.86744 0.79621,0.95912 2.04206,0.25837 2.06024,0.23628 0.67371,-0.81841 z"
   id="path5"
   style="stroke-width:0.24737"
   sodipodi:nodetypes="csssscccscssssssssssssssssscssssssssssssssssssscsssssscsssssssssssssssssssssssssssssssssssscsssssscsssscsssssscccscssscccscssscsscsscccssssssssscsssssscssssccssssssssssssssssssssscssssssssssssssccsccsssssssssssssssssssssssssssssssssssssssssssssssscssscsscsssssscsssssscsccssscscsssssssssssssscccssssssssssssssssscssssssssssssssssssssssssssssssssssssssscssssscsscssssssscsssssssssssssssssssssscsssssscssscssssssscccscscsssssscscsssssssscsssssssssssscsssssssscssssscsscsssscsssssssccccccscsccsssssssscssssssssssssscccssscssssssssssscsssssscssssscssssscssssssssssssssssssssssscsssssssssss" />
                    <path
   style="fill:#ffffff;fill-opacity:1;stroke:#f5deb3;stroke-width:2.92488"
   d="m 298.85512,921.46156 c -2.27502,-0.95053 -10.11657,-6.94101 -17.42568,-13.31221 -8.26916,-7.20809 -15.30063,-11.66153 -18.61381,-11.78926 -2.92849,-0.11291 -21.61163,-0.0427 -41.51807,0.1561 -40.51836,0.40454 -62.84663,-2.36093 -101.13537,-12.52618 -38.410612,-10.19762 -87.462479,-29.3393 -91.692749,-35.78159 -2.162674,-3.29352 -1.941484,-13.22333 0.325766,-14.62456 1.049724,-0.64877 17.373702,3.4844 36.275509,9.18484 36.866654,11.1183 43.964534,12.21269 45.933244,7.08233 C 113.9214,842.2483 92.221178,830.10413 48.091058,814.6429 27.842823,807.54882 28.628205,810.58445 36.280065,768.99159 47.03665,710.52254 65.852113,638.20858 88.775229,567.2356 102.4872,524.78152 107.54573,501.05378 111.68603,459.7693 c 1.82353,-18.18306 2.77483,-21.23508 10.19938,-32.72229 9.88179,-15.28906 11.82593,-20.98032 14.37697,-42.08707 1.75345,-14.50773 3.03586,-17.822 11.83279,-30.58066 6.76453,-9.81098 10.59134,-17.94105 12.17283,-25.86121 l 2.30663,-11.5517 9.1675,14.21164 c 11.32348,17.55389 47.03552,54.77094 69.27304,72.19242 l 16.61534,13.01688 -1.47372,16.20621 c -2.23976,24.63045 -2.01571,115.33666 0.37974,153.74161 2.73571,43.86012 13.84849,164.51407 16.76319,182.00173 3.4681,20.80803 11.13683,52.63358 24.80898,102.95828 10.07374,37.07956 12.02726,46.67608 9.99918,49.11978 -2.83038,3.41038 -3.43233,3.47847 -9.25276,1.04664 z"
   id="path6"
   transform="scale(0.75)" /><path
   style="fill:#ffffff;fill-opacity:1;stroke:#f5deb3;stroke-width:2.92488"
   d="m 245.13795,383.4757 c -18.43709,-11.69245 -47.18321,-42.28887 -40.95616,-43.59237 0.88234,-0.1847 4.86168,-0.41737 8.84297,-0.51705 8.02824,-0.201 7.51825,1.07878 14.84345,-37.24807 1.50494,-7.87414 3.83495,-14.67765 5.1778,-15.11891 3.64696,-1.19838 18.72463,13.28732 25.07658,24.09204 5.04088,8.57458 5.63088,11.75126 6.17813,33.26421 0.6032,23.71243 -2.41636,43.38705 -6.88313,44.84864 -1.17794,0.38544 -6.70378,-2.19238 -12.27964,-5.72849 z"
   id="path7"
   transform="scale(0.75)" /><path
   style="fill:#ffffff;fill-opacity:1;stroke:#f5deb3;stroke-width:2.92488"
   d="M 774.54147,228.39178 C 714.60526,223.47934 659.63962,196.16728 614.19442,148.7164 590.70005,124.18513 566.00929,86.486975 560.22341,66.312786 c -2.48524,-8.665543 1.39251,-13.508838 19.7286,-24.640947 l 15.51171,-9.417388 19.48472,29.373207 c 20.3807,30.723918 43.70827,57.415372 69.2258,79.208322 34.2957,29.28983 84.61961,45.95492 121.39025,40.19915 29.18749,-4.56876 67.93051,-21.24864 93.99969,-40.46931 17.51116,-12.91088 68.41892,-62.923453 82.75208,-81.296921 12.66723,-16.237953 11.14115,-16.084946 29.42394,-2.950064 5.4857,3.941087 10.5144,9.318663 11.1749,11.950172 1.7146,6.831721 -5.1546,21.043144 -23.45219,48.518863 -51.89707,77.92901 -134.67148,119.0009 -224.92144,111.60391 z"
   id="path8"
   transform="scale(0.75)" /><path
   style="fill:#ffffff;fill-opacity:1;stroke:#f5deb3;stroke-width:2.92488"
   d="m 729.04103,113.66455 c -23.00165,-4.22701 -52.00663,-12.58391 -63.08014,-18.174627 -7.23405,-3.652275 -12.7102,-9.410057 -24.5873,-25.851769 -8.40422,-11.634128 -14.91905,-21.494046 -14.47741,-21.910929 0.44164,-0.416882 15.69403,3.844873 33.8942,9.470568 18.20018,5.625695 41.68275,11.52874 52.18349,13.117877 57.93792,8.768077 166.3577,4.808526 223.92412,-8.177833 11.94238,-2.694068 22.14508,-4.470975 22.67268,-3.948682 0.5276,0.522292 -8.77931,10.45447 -20.68201,22.071506 -23.2756,22.716979 -25.12921,23.710359 -58.86892,31.549049 -20.93892,4.86471 -127.47782,6.17358 -150.97871,1.85484 z"
   id="path9"
   transform="scale(0.75)" /><path
   style="fill:#ffffff;fill-opacity:1;stroke:#f5deb3;stroke-width:2.92488"
   d="m 749.25232,158.31324 c -13.34239,-4.80218 -40.30479,-19.54114 -47.76315,-26.10966 -5.01942,-4.42056 -5.15111,-4.8823 -1.40296,-4.91928 2.27502,-0.0225 9.2552,1.35587 15.51151,3.06293 20.85785,5.69115 74.45347,8.21295 115.32667,5.4264 20.17738,-1.37561 39.47822,-2.99905 42.89075,-3.60766 6.04167,-1.0775 6.09598,-1.015 2.0682,2.38015 -7.90627,6.66444 -42.30409,21.79968 -56.26943,24.75887 -20.65599,4.37691 -56.86325,3.86656 -70.36159,-0.99175 z"
   id="path10"
   transform="scale(0.75)" /><path
   style="fill:#ffffff;fill-opacity:1;stroke:#f5deb3;stroke-width:2.92488"
   d="m 1249.9304,892.946 c 4.7486,-25.35056 7.2224,-87.9611 9.6222,-243.53073 2.104,-136.38614 3.7695,-173.45398 8.504,-189.25617 2.6873,-8.96955 23.7271,-37.95291 40.3443,-55.5763 l 10.9608,-11.62451 0.076,7.70019 c 0.2264,23.1204 -25.1833,148.5554 -41.5932,205.32456 -13.7288,47.49397 -17.0708,68.30256 -11.324,70.5078 8.2448,3.16382 11.0443,-3.96962 29.2938,-74.6442 14.4157,-55.82771 21.9221,-91.48001 32.0461,-152.20586 4.4977,-26.97855 8.7991,-50.76879 9.5586,-52.8672 2.0988,-5.79855 9.0171,-15.1904 11.1897,-15.1904 2.5031,0 2.4548,59.65239 -0.1781,220.14841 -2.7147,165.47909 -5.3334,241.87697 -8.6527,252.43563 -7.4482,23.69222 -45.6367,44.40576 -81.9582,44.45436 -8.6497,0.0116 -8.9179,-0.1814 -7.8888,-5.67558 z"
   id="path11"
   transform="scale(0.75)" /><path
   style="fill:#ffffff;fill-opacity:1;stroke:#f5deb3;stroke-width:2.92488"
   d="m 1354.7368,885.7073 c 0.036,-4.83442 0.9095,-23.21557 1.9419,-40.84698 2.7544,-47.04118 6.1197,-192.3686 8.1975,-353.99988 l 1.8255,-142.00921 11.6954,-17.75935 c 6.4325,-9.76764 12.5314,-17.75935 13.553,-17.75935 4.3602,0 13.9743,44.89112 20.3979,95.24389 4.0017,31.36869 5.5847,35.90596 17.8776,51.24215 l 7.1744,8.95063 0.036,23.10649 c 0.046,29.6576 1.9742,38.1742 24.4295,107.90275 33.953,105.43135 58.2626,186.13321 58.2626,193.41704 0,5.85353 -20.6819,12.6823 -114.7852,37.89992 -35.2387,9.4432 -38.2617,10.6901 -38.2617,15.78193 0,8.51923 18.8331,5.26223 109.01,-18.85222 53.6861,-14.35633 49.3412,-14.51714 55.7583,2.06341 4.151,10.72546 2.838,13.76452 -8.8174,20.40893 -23.1561,13.2006 -136.095,43.9997 -161.3449,43.9997 -6.8846,0 -7.014,-0.1637 -6.9504,-8.78985 z"
   id="path12"
   transform="scale(0.75)" /><path
   style="fill:#ffffff;fill-opacity:1;stroke:#f5deb3;stroke-width:2.92488"
   d="m 1257.4665,928.97309 c -14.8831,-3.86804 -12.1244,-7.83784 8.2728,-11.90464 19.3917,-3.86632 37.8207,-10.36223 57.3126,-20.20172 7.0357,-3.55159 13.258,-5.70361 13.8275,-4.78227 3.3037,5.34547 -17.1766,28.90402 -30.9044,35.54957 -9.7406,4.7153 -33.0426,5.35855 -48.5085,1.33906 z"
   id="path13"
   transform="scale(0.75)" /></svg>
