<?xml version="1.0" encoding="UTF-8" standalone="no"?>
<svg
   version="1.0"
   width="1174.000000pt"
   height="1280.000000pt"
   viewBox="0 0 1174.000000 1280.000000"
   preserveAspectRatio="xMidYMid meet"
   id="svg3"
   sodipodi:docname="TazacorteLaPalma.svg"
   xml:space="preserve"
   inkscape:version="1.4 (86a8ad7, 2024-10-11)"
   xmlns:inkscape="http://www.inkscape.org/namespaces/inkscape"
   xmlns:sodipodi="http://sodipodi.sourceforge.net/DTD/sodipodi-0.dtd"
   xmlns="http://www.w3.org/2000/svg"
   xmlns:svg="http://www.w3.org/2000/svg"><defs
   id="defs3" /><sodipodi:namedview
   id="namedview3"
   pagecolor="#ffffff"
   bordercolor="#000000"
   borderopacity="0.25"
   inkscape:showpageshadow="2"
   inkscape:pageopacity="0.0"
   inkscape:pagecheckerboard="0"
   inkscape:deskcolor="#d1d1d1"
   inkscape:document-units="pt"
   showgrid="false"
   showguides="true"
   inkscape:zoom="0.68378906"
   inkscape:cx="645.66695"
   inkscape:cy="790.44845"
   inkscape:window-width="2560"
   inkscape:window-height="1369"
   inkscape:window-x="1912"
   inkscape:window-y="-8"
   inkscape:window-maximized="1"
   inkscape:current-layer="svg3"><inkscape:grid
     id="grid22"
     units="pt"
     originx="0"
     originy="0"
     spacingx="0.99999997"
     spacingy="1"
     empcolor="#0099e5"
     empopacity="0.30196078"
     color="#e6ba38"
     opacity="0.14901961"
     empspacing="5"
     enabled="true"
     visible="false" /></sodipodi:namedview><metadata
   id="metadata1">
                Created by potrace 1.15, written by Peter Selinger 2001-2017
                </metadata><g
   transform="translate(0.000000,1280.000000) scale(0.100000,-0.100000)"
   fill="#000000"
   stroke="none"
   id="g3"><path
     d="M4425 12777 c-33 -13 -100 -45 -150 -71 -379 -205 -660 -325 -1163 -497 -373 -127 -591 -189 -982 -279 -288 -67 -505 -172 -631 -306 -96 -103 -206 -267 -284 -424 -74 -146 -225 -631 -225 -720 0 -46 -33 -122 -85 -197 -57 -80 -108 -180 -125 -243 -7 -25 -18 -91 -25 -147 -11 -93 -16 -106 -45 -140 -74 -83 -112 -218 -125 -443 -14 -224 -31 -299 -160 -715 -208 -666 -337 -1170 -379 -1470 -23 -170 -40 -450 -41 -665 0 -177 2 -198 20 -229 14 -24 33 -38 60 -47 22 -7 101 -34 175 -60 494 -172 676 -225 830 -243 47 -6 171 -15 275 -21 553 -30 550 -30 628 -94 23 -19 75 -50 115 -69 40 -20 79 -41 87 -47 31 -25 13 -119 -73 -390 -68 -214 -77 -270 -76 -495 0 -192 16 -350 44 -445 18 -61 11 -118 -29 -243 -52 -160 -59 -187 -76 -282 -33 -180 -11 -367 65 -555 23 -58 55 -138 71 -177 48 -120 48 -167 0 -310 -67 -202 -76 -331 -33 -468 25 -76 39 -266 52 -720 13 -415 25 -626 45 -738 27 -155 83 -358 110 -399 49 -73 47 -73 525 -73 550 -1 623 -10 1165 -155 339 -91 577 -141 775 -164 74 -9 172 -21 216 -27 120 -17 1068 -5 1274 16 501 50 805 136 1575 445 578 232 843 312 1155 350 140 17 267 39 295 52 28 13 47 56 66 153 21 108 18 684 -4 880 -22 184 -49 322 -82 414 -14 37 -25 85 -25 105 0 22 29 111 70 218 122 312 150 436 150 668 0 179 -9 228 -60 346 -52 118 -52 173 -5 435 53 291 63 427 71 987 l7 502 119 0 c216 0 330 38 475 159 45 37 105 78 135 89 29 12 139 40 244 61 246 51 330 72 543 133 452 128 734 261 757 354 25 99 -230 1009 -571 2044 -63 190 -121 372 -129 405 -11 44 -15 109 -14 250 2 218 -8 268 -82 385 -78 124 -99 179 -115 296 -71 508 -233 1141 -356 1388 -152 305 -399 488 -961 709 -91 37 -382 142 -645 235 -750 265 -940 346 -1193 509 -161 103 -181 113 -229 113 -22 0 -97 -21 -168 -46 -241 -86 -481 -136 -808 -170 -239 -25 -777 -25 -955 -1 -299 42 -516 107 -849 256 -62 28 -127 51 -145 50 -17 0 -58 -10 -91 -22z m135 -344 c131 -219 259 -382 441 -559 197 -191 322 -277 501 -344 298 -112 466 -120 743 -33 113 35 332 142 444 217 163 109 511 444 670 645 36 46 73 92 81 103 14 18 19 16 111 -46 110 -73 139 -105 139 -150 0 -61 -147 -315 -287 -494 -295 -378 -737 -627 -1229 -693 -146 -19 -423 -7 -573 26 -494 106 -925 402 -1218 835 -116 172 -195 331 -197 399 -1 40 3 47 41 79 37 31 228 149 245 151 4 1 43 -61 88 -136z m378 -47 c324 -106 392 -118 769 -137 172 -8 291 -8 483 0 451 21 624 40 870 101 68 16 133 30 143 30 17 0 17 -2 -3 -29 -50 -72 -271 -288 -320 -315 -66 -36 -292 -93 -423 -106 -170 -18 -717 -25 -847 -11 -214 22 -545 107 -644 165 -25 14 -65 52 -89 84 -63 82 -164 227 -182 262 -14 27 -14 30 0 30 9 0 118 -33 243 -74z m-813 -236 c43 -80 96 -171 118 -204 62 -92 202 -249 353 -397 220 -214 291 -268 472 -359 306 -153 573 -219 879 -220 460 0 900 161 1259 463 203 170 366 373 525 656 35 62 73 120 85 128 19 12 47 4 285 -86 145 -54 433 -158 639 -231 980 -346 1165 -433 1380 -649 79 -80 104 -113 147 -196 46 -89 143 -347 143 -380 0 -35 -291 -516 -338 -558 -19 -18 -20 -17 -30 42 -22 126 -94 235 -163 246 -100 17 -204 -27 -197 -84 3 -26 4 -26 93 -26 118 -1 112 1 135 -44 24 -48 35 -132 26 -195 -6 -41 -13 -50 -49 -73 -23 -14 -106 -91 -183 -170 -78 -78 -146 -143 -153 -143 -24 0 -13 80 52 390 33 153 37 184 26 201 -23 37 -85 -58 -118 -181 -30 -112 -87 -424 -111 -605 -30 -232 -47 -548 -80 -1440 -40 -1105 -60 -1613 -70 -1773 -16 -234 -49 -351 -417 -1452 -421 -1263 -610 -1736 -937 -2342 l-48 -88 40 0 c33 0 45 6 72 37 152 172 440 835 776 1783 48 135 122 340 166 455 44 116 118 316 165 445 86 236 126 330 142 330 15 0 21 -103 21 -400 0 -412 -15 -600 -80 -975 -57 -327 -108 -468 -317 -875 -179 -349 -366 -677 -633 -1115 -144 -234 -212 -357 -225 -402 -8 -31 35 -54 61 -32 78 65 633 1013 956 1634 173 334 181 343 223 260 18 -35 20 -59 19 -195 0 -129 -5 -173 -26 -266 -45 -193 -175 -510 -287 -702 -61 -104 -160 -219 -408 -474 -209 -215 -303 -325 -303 -354 0 -31 58 -4 152 73 95 77 433 425 551 568 55 66 103 121 107 123 17 7 69 -193 90 -343 37 -272 54 -759 30 -846 -13 -48 -41 -59 -166 -69 -291 -24 -630 -128 -1299 -397 -691 -279 -1160 -400 -1704 -443 -204 -15 -760 -13 -916 5 -295 33 -612 98 -1025 210 -151 41 -331 86 -400 99 -263 53 -624 86 -951 86 -179 0 -198 4 -215 47 -22 51 -51 239 -68 433 -21 242 -25 318 -37 695 -11 356 -24 478 -64 595 -31 89 -29 125 16 256 81 240 78 367 -16 584 -124 286 -124 451 1 831 30 91 54 175 54 186 0 12 -13 76 -29 144 -41 174 -55 299 -48 448 6 140 22 227 74 405 20 67 47 164 60 216 13 52 29 99 34 105 15 15 35 -15 54 -85 35 -133 246 -715 381 -1050 190 -474 688 -1350 990 -1740 119 -154 344 -383 367 -374 37 14 7 77 -96 201 -218 263 -307 387 -454 633 -316 531 -717 1335 -858 1721 -159 434 -498 1522 -551 1769 -80 372 -124 685 -128 923 -2 120 -11 225 -29 347 -60 403 -82 737 -74 1155 6 285 16 418 62 825 23 205 30 426 16 501 -28 140 -82 227 -189 306 -43 31 -96 74 -118 95 -48 46 -95 60 -145 44 -48 -16 -66 -59 -79 -196 -13 -134 -28 -220 -39 -220 -25 0 -103 114 -176 260 -72 141 -67 180 46 419 112 235 245 403 386 487 112 66 177 88 495 164 502 121 1189 344 1593 518 77 33 143 57 146 54 4 -4 41 -72 84 -152z m1273 -326 c118 -31 278 -43 552 -44 274 0 504 15 603 41 43 11 82 17 86 14 16 -17 -178 -130 -324 -188 -146 -58 -233 -72 -445 -72 -177 1 -188 2 -252 27 -163 65 -371 186 -403 235 l-17 26 51 -7 c29 -4 95 -18 149 -32z m-3590 -1191 c51 -36 118 -118 147 -178 34 -68 49 -186 41 -320 -9 -144 -24 -230 -45 -257 l-18 -21 -50 27 c-131 72 -293 216 -349 312 -35 60 -24 75 52 67 54 -6 54 -6 68 28 8 19 19 77 26 129 12 95 35 214 46 231 10 17 46 9 82 -18z m8664 -214 c41 -112 106 -460 133 -719 22 -209 27 -223 90 -289 29 -31 63 -76 76 -101 23 -43 24 -52 21 -226 -3 -217 -1 -222 142 -659 207 -630 479 -1522 480 -1574 1 -33 -2 -35 -59 -58 -117 -46 -352 -115 -682 -198 -332 -85 -405 -109 -417 -140 -22 -58 68 -49 449 46 110 28 277 72 372 100 188 54 328 89 356 89 20 0 57 -72 78 -151 17 -64 0 -88 -96 -135 -88 -42 -396 -145 -611 -204 -198 -54 -525 -120 -597 -120 l-57 0 0 33 c0 17 7 145 15 282 30 524 46 1207 66 2890 l10 900 51 80 c82 131 139 206 151 202 7 -2 19 -24 29 -48z m-9186 -81 c31 -51 88 -130 126 -175 102 -120 310 -317 427 -403 l102 -75 -5 -65 c-3 -36 -11 -126 -17 -200 -22 -251 0 -1003 41 -1400 11 -107 31 -330 45 -495 14 -165 32 -351 40 -413 23 -181 117 -568 239 -985 60 -206 60 -257 -1 -257 -45 0 -91 28 -175 108 -112 106 -120 108 -318 92 -289 -24 -526 -1 -851 80 -289 72 -680 220 -732 277 -21 24 -25 96 -7 118 23 28 48 22 514 -126 47 -15 103 -11 110 7 23 59 -88 119 -488 264 l-118 43 6 61 c14 126 92 527 146 754 70 287 223 815 314 1081 74 217 129 489 146 730 5 70 14 140 20 155 6 16 35 62 65 103 66 91 90 161 100 298 8 119 19 147 85 231 66 84 89 129 96 189 8 74 13 95 24 95 5 0 34 -42 66 -92z m8849 -410 c16 -72 -34 -3172 -55 -3404 -14 -159 -52 -232 -163 -316 -83 -64 -190 -116 -273 -133 -78 -16 -284 -34 -284 -25 0 4 7 51 15 106 35 239 54 795 65 1854 11 1072 24 1279 85 1405 40 82 338 445 366 445 36 0 8 -214 -100 -770 -85 -438 -138 -660 -207 -872 -62 -191 -104 -361 -104 -418 0 -39 4 -52 22 -64 25 -18 41 -9 63 35 26 50 135 459 239 894 67 281 107 498 167 889 41 274 52 308 117 379 33 35 39 34 47 -5z m-97 -3826 c8 -57 -133 -218 -235 -268 -75 -37 -199 -44 -329 -19 -93 18 -134 36 -134 59 0 26 30 38 112 47 116 13 289 70 431 145 67 35 129 62 137 61 8 -1 16 -12 18 -25z"
     id="path1" /><path
     d="M2403 2124 c-8 -22 16 -40 172 -123 195 -105 980 -467 1320 -609 370 -155 635 -231 708 -203 73 28 -1 71 -298 176 -403 142 -868 335 -1414 587 -415 191 -473 211 -488 172z"
     id="path3" /></g><path
   style="display:inline;fill:#e6ba38;fill-opacity:1;stroke:#f5deb3;stroke-width:2.19366"
   d="m 508.92888,1258.7215 c -21.11875,-1.9206 -62.68769,-10.2066 -106.39246,-21.2072 -50.97899,-12.8316 -73.61576,-16.2496 -122.84065,-18.5484 l -31.80379,-1.4852 -2.51028,-7.6785 c -3.593,-10.9904 -7.03852,-48.5967 -9.51954,-103.9013 -1.403,-31.2743 -3.37906,-52.338 -5.67898,-60.5349 -3.36522,-11.9936 -3.3168,-13.2779 1.05394,-27.954 6.77518,-22.74978 6.03102,-36.88315 -3.3765,-64.1284 -7.12575,-20.63693 -7.82955,-24.65835 -6.73182,-38.46488 0.67424,-8.48017 4.15568,-24.84127 7.73653,-36.35797 l 6.51065,-20.9394 -4.37745,-20.74012 c -3.13988,-14.87648 -4.07821,-25.70161 -3.31899,-38.28938 1.11356,-18.46275 14.33428,-72.67348 17.00401,-69.72391 0.85648,0.94629 4.77667,11.59196 8.71153,23.65711 28.48005,87.32595 63.60466,160.3542 112.89461,234.7215 19.10342,28.82265 49.96221,64.71295 55.64083,64.71295 6.33269,0 0.99625,-10.1862 -18.39175,-35.106 C 380.60619,987.27765 362.80733,958.50855 336.36333,908.17477 297.66258,834.51143 283.19511,800.14688 259.71037,726.10112 226.71016,622.05372 218.41506,584.7302 213.88184,519.89717 c -1.34978,-19.30419 -3.40686,-40.03428 -4.57129,-46.06683 -1.16443,-6.03257 -2.7172,-35.68748 -3.45059,-65.89978 -1.06007,-43.66917 -0.55372,-62.78598 2.46969,-93.2414 2.09173,-21.07047 3.45631,-48.30123 3.03238,-60.51282 -0.90639,-26.1097 -3.63034,-31.36257 -24.77979,-47.78548 -20.68985,-16.06601 -26.27351,-13.50081 -30.11428,13.83481 l -2.58655,18.40905 -4.24344,-5.24043 c -6.52636,-8.05973 -16.92066,-29.76608 -16.9296,-35.35401 -0.005,-2.74906 4.94789,-14.97972 11.00509,-27.17925 12.04943,-24.26824 26.42251,-41.34411 41.10494,-48.83452 4.88425,-2.49176 27.98201,-9.55925 51.32837,-15.70554 56.99277,-15.00424 117.39333,-34.971462 163.40229,-54.017542 1.38788,-0.574535 7.64746,8.04083 14.09403,19.398335 9.56967,16.859692 16.80374,25.632465 41.3764,50.177327 32.82065,32.78348 46.49515,41.59935 83.52379,53.84728 17.49824,5.78789 20.94178,6.16756 55.9383,6.16756 34.92869,0 38.47395,-0.3889 55.93831,-6.13618 49.93061,-16.43151 87.68208,-46.85397 116.69988,-94.043952 7.87448,-12.805857 14.57438,-21.388176 16.6968,-21.388176 4.25063,0 134.91758,47.060808 166.02788,59.796338 51.90635,21.24877 70.35555,38.72794 84.70595,80.25204 4.6698,13.51223 4.9806,12.53875 -13.927,43.62448 -14.1323,23.23463 -16.0968,24.87323 -17.9537,14.97495 -2.0435,-10.89273 -11.1056,-20.96143 -18.86585,-20.96143 -9.8391,0 -17.49705,3.76404 -17.49705,8.60014 0,3.5991 1.74165,4.43318 10.41982,4.99003 9.93915,0.63776 10.54643,1.05602 13.16108,9.06493 1.50765,4.61797 2.10727,10.54086 1.33252,13.16195 -1.3869,4.69178 -35.29192,37.89476 -36.9762,36.21051 -0.47542,-0.4755 1.52205,-13.06804 4.43895,-27.98343 2.9169,-14.91538 4.80675,-27.9225 4.1997,-28.90472 -2.2074,-3.57167 -7.2816,0.7504 -10.59082,9.02111 -3.90278,9.75389 -11.1519,45.68242 -14.37848,71.26364 -3.03187,24.037 -5.96317,81.11025 -10.02727,195.23565 -1.89038,53.08655 -4.3368,107.5633 -5.43638,121.05946 -2.40082,29.46678 -6.04387,42.40871 -42.492,150.95425 -40.4856,120.56971 -52.68015,152.01488 -80.60422,207.84918 -16.81868,33.6292 -17.1339,34.5502 -11.8263,34.5502 14.71912,0 38.3037,-51.45597 96.52335,-210.59135 16.55257,-45.2442 31.49377,-84.73006 33.20265,-87.74633 2.7294,-4.81765 2.9961,0.78089 2.19435,46.06681 -0.93008,52.53592 -4.68173,84.02655 -13.58978,114.07027 -7.5243,25.3767 -38.34217,84.66848 -83.09962,159.8789 -30.15788,50.6771 -31.49595,53.7764 -22.67123,52.5102 3.26903,-0.469 8.3814,-5.9985 15.45075,-16.7112 13.59698,-20.6044 55.06433,-92.8098 78.36233,-136.44912 9.984,-18.70088 19.16737,-35.28233 20.40742,-36.84758 4.0263,-5.082 5.86335,1.70978 5.8989,21.80933 0.0375,21.26175 -3.8979,36.55732 -17.43997,67.78017 -11.19375,25.8085 -17.8425,34.9465 -53.2053,73.1249 -28.9452,31.2498 -34.11818,38.6576 -26.99528,38.6576 5.24513,0 31.32563,-23.8025 54.89783,-50.1028 12.0651,-13.4614 22.5978,-24.4767 23.406,-24.4784 3.1677,-0.01 8.34667,31.4103 10.75837,65.2628 2.53898,35.6394 1.79948,49.5264 -2.7885,52.3619 -1.35075,0.8348 -10.93717,2.791 -21.30322,4.3471 -24.36008,3.6567 -50.62455,11.364 -90.14123,26.4515 -108.83259,41.5525 -137.97113,49.9405 -192.72598,55.4794 -21.18281,2.1429 -75.78126,2.5777 -95.74016,0.7625 z m -47.61784,-101.2079 c -0.38556,-2.002 -6.71183,-5.7636 -14.91488,-8.8684 -56.59856,-21.422 -102.60717,-40.2426 -147.46357,-60.3225 -28.62907,-12.8157 -54.12047,-23.3013 -56.64757,-23.3013 -18.23383,0 21.25006,21.8547 111.9909,61.9881 50.28134,22.2387 76.20381,31.9122 92.13368,34.3816 11.81435,1.8314 15.80108,0.794 14.90144,-3.8775 z"
   id="path81" />
                    
                    
                    
                    <path
   fill="#000000"
   d="m 454.20877,432.8022 c -11.90587,-1.24952 -21.05187,-3.6588 -30.88213,-8.13509 l -5.66477,-2.57951 v -41.08149 -41.08148 l 12.17721,-0.48025 c 15.60269,-0.61534 43.36981,-0.61534 58.97248,0 l 12.17722,0.48025 v 41.07718 41.0772 l -6.3957,2.95722 c -7.03397,3.25236 -14.27766,5.54808 -21.01448,6.6601 -5.29347,0.87375 -15.84271,1.47603 -19.36983,1.10587 z m 11.17426,-16.4285 -5.27181,-5.16184 -2.21518,1.30853 c -1.21836,0.71969 -3.9331,3.04805 -6.03276,5.17414 l -3.81755,3.86556 11.30457,-0.0116 11.30455,-0.0116 z m -14.6763,-18.41452 c -2.09965,-2.12605 -4.77898,-4.43348 -5.95403,-5.12761 l -2.13647,-1.26205 -4.25414,3.56138 c -2.33977,1.95876 -4.88071,4.26618 -5.64655,5.12763 l -1.39242,1.56625 h 11.60059 11.60058 z m 34.52091,1.60443 c -1.18076,-1.24365 -3.71404,-3.58077 -5.62952,-5.1936 -3.34685,-2.81808 -3.55141,-2.8874 -5.24533,-1.77752 -0.96945,0.63522 -3.67825,2.96036 -6.0195,5.16696 l -4.25687,4.01202 11.64902,0.0266 11.64903,0.0266 z m -34.70412,-21.55376 c -1.79226,-1.84173 -4.16654,-4.0045 -5.27614,-4.80611 -2.01635,-1.45669 -2.01883,-1.45668 -4.38564,0.015 -1.30247,0.80991 -3.83455,2.97267 -5.62681,4.80612 l -3.25867,3.33358 h 10.90296 10.90297 z m 32.8922,0 c -1.79226,-1.84173 -4.16653,-4.0045 -5.27615,-4.80611 -2.01633,-1.45669 -2.01881,-1.45668 -4.38563,0.015 -1.30248,0.80991 -3.83455,2.97267 -5.62682,4.80612 l -3.25868,3.33358 h 10.90299 10.90296 z m -34.51293,-21.16206 c -2.71727,-2.59973 -5.42788,-4.72679 -6.02357,-4.72679 -0.59569,0 -3.3063,2.12706 -6.02356,4.72679 l -4.9405,4.72678 h 10.96406 10.96407 z m 32.8922,0 c -2.71727,-2.59973 -5.42788,-4.72679 -6.02356,-4.72679 -0.59568,0 -3.3063,2.12706 -6.02357,4.72679 l -4.94051,4.72678 h 10.96408 10.96405 z m -51.48344,-20.20044 c -0.43108,-0.53484 -1.82033,-3.04129 -3.08724,-5.5699 l -2.30347,-4.59742 4.2281,-1.87879 c 2.32544,-1.03333 7.35286,-2.70918 11.172,-3.7241 9.14871,-2.43126 25.47064,-2.74663 35.07352,-0.67773 6.29493,1.35623 17.21903,5.20544 17.89998,6.30724 0.65983,1.06761 -4.95828,10.99558 -6.22225,10.99558 -0.64958,0 -3.1314,-0.79247 -5.51515,-1.76107 -12.96643,-5.26875 -29.44067,-5.43331 -43.06345,-0.4302 -6.14658,2.25742 -7.28931,2.44406 -8.18204,1.33639 z m -11.54788,-17.22858 c -1.78641,-2.82751 -2.23567,-4.41811 -2.45074,-8.67726 -0.56298,-11.14835 6.333,-18.88253 17.65643,-19.80259 2.48832,-0.20218 6.00439,-1.07373 7.81345,-1.93676 3.69748,-1.76392 13.03352,-2.14758 15.7816,-0.64854 1.18143,0.64444 2.34269,0.58092 5.11656,-0.27998 4.54629,-1.41095 10.73465,-0.94738 14.75885,1.10563 1.92804,0.9836 4.42616,1.54877 6.89101,1.559 10.31272,0.0428 18.09672,8.2458 18.1127,19.0876 0.006,3.90124 -0.39339,5.61704 -2.03962,8.76831 -1.12572,2.15487 -2.53938,4.01282 -3.14145,4.12877 -0.60207,0.11589 -3.0223,-0.64168 -5.37828,-1.6836 l -4.28361,-1.89443 2.64658,-2.18152 c 3.10563,-2.55993 4.04049,-5.979 2.78269,-10.17719 -0.72977,-2.43574 -4.37523,-6.55926 -5.80222,-6.56313 -0.27067,-7.3e-4 -0.38106,1.96553 -0.24529,4.36948 0.27549,4.87791 -1.53288,11.55066 -3.31573,12.2348 -0.59919,0.22993 -3.3873,0.008 -6.1958,-0.4945 l -5.10634,-0.91256 2.57165,-2.35554 c 1.41439,-1.29555 2.79278,-3.23663 3.06307,-4.31353 1.8103,-7.21282 -5.73769,-14.73767 -12.28577,-12.24808 l -2.00245,0.76132 v 8.4239 8.42387 h -4.38562 -4.38564 v -8.70702 -8.70699 l -2.83098,-0.47831 c -5.41704,-0.9152 -10.62697,2.98196 -11.54441,8.63551 -0.43849,2.70208 0.85995,5.85143 3.33649,8.09267 0.84519,0.76489 1.53671,1.64533 1.53671,1.95653 0,0.31122 -1.88286,0.9567 -4.18413,1.43445 -2.30127,0.47775 -4.58313,1.02173 -5.07079,1.20886 -0.4935,0.18939 -1.62554,-1.0641 -2.55303,-2.82686 -1.3093,-2.48844 -1.67154,-4.38086 -1.6904,-8.83095 -0.0131,-3.1151 -0.30359,-5.66425 -0.64531,-5.66478 -1.20399,-10e-4 -5.51151,4.9072 -5.99449,6.8316 -0.84131,3.35201 0.29828,6.88338 3.09904,9.60344 l 2.63135,2.55555 -4.14651,1.83377 c -2.28057,1.00858 -4.54825,1.83319 -5.03932,1.83248 -0.49105,-7.3e-4 -1.87717,-1.55927 -3.08025,-3.46342 z m 37.6379,-34.90952 c 0,-2.35523 -0.17403,-2.55829 -2.1928,-2.55829 -2.071,0 -2.19282,-0.16242 -2.19282,-2.92373 0,-2.76132 0.12184,-2.92377 2.19282,-2.92377 1.94915,0 2.1928,-0.24364 2.1928,-2.19281 0,-2.07098 0.16242,-2.19281 2.92377,-2.19281 2.7613,0 2.92373,0.12184 2.92373,2.19281 0,1.93797 0.24912,2.19281 2.14357,2.19281 2.35486,0 3.4271,1.8034 2.60753,4.38564 -0.32503,1.02406 -1.10593,1.46186 -2.60753,1.46186 -1.96249,0 -2.14357,0.21611 -2.14357,2.55829 0,2.49738 -0.0697,2.55829 -2.92373,2.55829 -2.85415,0 -2.92377,-0.0609 -2.92377,-2.55829 z"
   id="path4"
   style="stroke-width:0.730939" />
                    <path
   fill="#000000"
   d="m 715.08421,428.65047 c -3.06232,-0.50064 -6.08342,-1.25089 -7.3533,-1.82609 -0.49787,-0.22551 -1.74498,-0.7443 -2.77139,-1.15287 -1.67208,-0.6656 -6.39303,-3.27219 -7.39853,-4.08496 -1.7519,-1.41615 -2.6541,-2.24476 -2.6541,-2.43759 0,-0.1953 1.96528,-2.49617 6.60319,-7.73077 0.60017,-0.67741 1.83803,-2.09708 2.7508,-3.15487 0.91277,-1.05777 3.22666,-3.69444 5.14199,-5.8593 1.9153,-2.16484 5.56381,-6.3123 8.10779,-9.21657 2.54397,-2.90426 4.74596,-5.28048 4.89331,-5.28048 0.22949,0 6.57712,7.21314 10.37152,11.78571 1.10251,1.32859 2.55168,3.01937 4.64089,5.41463 0.43476,0.49846 2.28409,2.66044 4.10964,4.80444 1.82553,2.14398 4.30359,5.0176 5.50678,6.38578 1.20319,1.3682 2.18175,2.60079 2.17457,2.73912 -0.0152,0.29285 -3.75426,2.9897 -5.36962,3.87297 -0.60761,0.33224 -1.58001,0.89291 -2.16086,1.24593 -1.93659,1.17698 -7.95925,3.38267 -11.01359,4.03356 -3.94958,0.84167 -11.82607,1.07492 -15.57909,0.46136 z m 6.00951,-12.89175 -0.0862,-3.10892 -0.83022,1.38509 c -1.74659,2.91388 -1.74557,6.30288 0.002,9.27698 l 0.82748,1.40761 0.0862,-2.92591 c 0.0474,-1.60929 0.0474,-4.32497 0,-6.03485 z m 2.10431,7.37193 c 1.03823,-2.17551 1.38969,-4.31656 1.00387,-6.11556 -0.34124,-1.59115 -1.30988,-3.73808 -1.83219,-4.06088 -0.20291,-0.1254 -0.30605,1.79951 -0.30605,5.71263 0,3.24598 0.10185,5.89967 0.2263,5.89707 0.12447,-0.002 0.53311,-0.64754 0.90807,-1.43326 z m -6.88737,-4.10759 c 0.5699,-0.35208 1.15264,-0.71955 1.29496,-0.8166 0.14234,-0.0971 0.51792,-1.03233 0.83464,-2.07839 l 0.57586,-1.90194 -2.36325,2.45716 c -3.3658,3.49954 -3.32335,3.43969 -2.26089,3.18853 0.48537,-0.11473 1.34878,-0.49667 1.91868,-0.84876 z m 12.9948,0.48017 c 0,-0.25199 -4.66805,-4.8921 -4.92155,-4.8921 -0.31819,0 0.74207,2.89359 1.23343,3.3662 1.11845,1.07571 3.68812,2.13888 3.68812,1.5259 z m -13.44767,-3.0614 2.68295,-2.69544 -1.90675,0.69042 c -1.10839,0.40136 -2.12088,0.99298 -2.41813,1.41303 -0.67044,0.94742 -1.46961,3.28741 -1.12273,3.28741 0.0449,0 1.28905,-1.21293 2.76466,-2.69542 z m 14.12583,1.41303 c -0.78842,-2.10519 -1.58167,-2.93473 -3.3906,-3.54568 -0.911,-0.30769 -1.6938,-0.52197 -1.7396,-0.4762 -0.11822,0.11834 5.16406,5.29471 5.40844,5.29995 0.11112,0.002 -0.014,-0.57276 -0.27824,-1.27807 z m -12.12588,-4.67913 c 0.73665,-0.33486 1.61094,-0.82348 1.94285,-1.08583 0.55538,-0.43897 0.10435,-0.47776 -5.65766,-0.4866 -3.44362,-0.005 -6.26114,0.0555 -6.26114,0.13514 0,0.22047 2.41167,1.41254 3.77177,1.86436 1.60264,0.53241 4.53789,0.33035 6.20418,-0.42707 z m 13.73145,0.38364 c 0.81842,-0.24655 2.03118,-0.78545 2.69501,-1.19755 l 1.20698,-0.74928 -6.33658,1.8e-4 c -5.82082,1.8e-4 -6.28746,0.0388 -5.7331,0.47542 2.137,1.68281 5.47153,2.28345 8.16769,1.47123 z m -42.46476,-0.67845 c -0.92042,-0.99131 -3.73975,-5.08044 -4.88119,-7.07966 -1.25394,-2.19627 -2.87539,-6.18191 -3.59716,-8.84204 -0.64846,-2.38999 -0.65591,-2.71388 -0.75029,-32.66356 l -0.0953,-30.24962 h 19.0194 19.01942 l -0.007,23.30956 -0.007,23.30955 -2.12834,2.56483 c -1.17059,1.41064 -2.62769,3.15753 -3.23799,3.88199 -0.61029,0.72444 -1.17753,1.41977 -1.2605,1.54517 -0.083,0.12539 -0.72021,0.89051 -1.41608,1.70024 -1.23155,1.43307 -5.69048,6.76331 -7.89753,9.44074 -0.60306,0.73162 -1.63964,1.96612 -2.30346,2.74333 -0.66384,0.77723 -1.70079,2.01172 -2.30436,2.74333 -3.8455,4.6613 -6.94318,8.28154 -7.14512,8.35049 -0.12928,0.0441 -0.58375,-0.29533 -1.00997,-0.75435 z m 64.10897,0.15186 c -0.3461,-0.3766 -1.28875,-1.51162 -2.0948,-2.52228 -0.80605,-1.01065 -2.09781,-2.57217 -2.87057,-3.47003 -1.62514,-1.8882 -6.50652,-7.7234 -7.90207,-9.44614 -0.52368,-0.64645 -1.43385,-1.7327 -2.02261,-2.41393 -2.20278,-2.54874 -8.60702,-10.22992 -9.17125,-10.99989 -0.32228,-0.43983 -1.10302,-1.37372 -1.73502,-2.07533 l -1.14904,-1.27567 v -23.39174 -23.39173 h 19.00975 19.00974 l -0.0124,29.19353 c -0.0125,30.43849 -0.0172,30.56541 -1.30476,35.0775 -1.13537,3.9788 -3.5944,8.74539 -6.45239,12.50736 -1.12062,1.47507 -2.1811,2.72944 -2.35662,2.7875 -0.17553,0.0581 -0.60231,-0.20256 -0.9484,-0.57915 z m -33.58368,-2.69336 c -3.34382,-2.05343 -6.1198,-2.37711 -9.05226,-1.0555 -3.64767,1.64392 -3.55737,1.68622 3.6209,1.69559 l 6.48745,0.008 z m 14.76157,-0.0756 c -2.868,-1.94887 -5.86733,-2.28291 -8.80412,-0.98054 -3.80933,1.68933 -3.77412,1.707 3.39946,1.707 h 6.47376 z m -13.25286,-6.53315 c 0,-3.32895 -0.10939,-5.98505 -0.24307,-5.90242 -0.13368,0.0826 -0.63909,0.93298 -1.12312,1.88968 -0.72716,1.43718 -0.8801,2.11301 -0.8801,3.88903 0,1.82008 0.15193,2.45821 0.99119,4.16296 0.54514,1.10736 1.05056,2.0134 1.12314,2.0134 0.0727,0 0.13196,-2.7237 0.13196,-6.05265 z m 2.19408,4.01589 c 1.24975,-2.66438 1.29859,-5.38147 0.14299,-7.95755 -1.32566,-2.95518 -1.43184,-2.66291 -1.43184,3.94166 0,3.32895 0.075,6.05265 0.16672,6.05265 0.0917,0 0.59665,-0.91654 1.12213,-2.03676 z m 4.90441,-0.38315 c 0.2962,-0.24565 0.73886,-0.92188 0.98371,-1.50274 0.45283,-1.07437 0.9772,-2.71568 0.86761,-2.71568 -0.0333,0 -1.3377,1.2827 -2.8989,2.85042 l -2.83857,2.85043 1.6738,-0.51789 c 0.92059,-0.28483 1.91614,-0.71887 2.21235,-0.96454 z m -12.38363,-1.36474 c -1.48635,-1.41771 -2.74906,-2.43782 -2.80603,-2.26688 -0.0937,0.28134 1.29279,3.6259 1.5116,3.6461 0.0507,0.005 0.83893,0.2667 1.75169,0.58232 0.91278,0.31559 1.79135,0.58335 1.95238,0.59498 0.16103,0.0112 -0.9233,-1.1388 -2.40964,-2.55652 z m 12.58513,-2.33764 0.91681,-1.14357 -1.60744,0.61078 c -2.05839,0.78212 -2.81394,1.58644 -3.39031,3.60911 l -0.46477,1.63104 1.81446,-1.78191 c 0.99796,-0.98005 2.22702,-2.2965 2.73125,-2.92545 z m -9.90005,2.72768 c -0.27645,-0.96179 -0.77388,-1.84962 -1.26613,-2.25988 -0.75301,-0.62755 -3.3542,-1.70933 -3.57625,-1.48726 -0.0894,0.0893 5.04536,5.33129 5.22211,5.33129 0.0415,0 -0.12929,-0.71285 -0.37973,-1.58415 z m 24.53791,-20.51845 c -0.0878,-0.3734 -0.69723,-2.57988 -1.35426,-4.9033 -0.65703,-2.32341 -1.7631,-6.32904 -2.45793,-8.90139 -0.69483,-2.57235 -1.38457,-4.94856 -1.53277,-5.28047 -0.14821,-0.33193 -0.74076,-2.36869 -1.31678,-4.52614 -0.57601,-2.15745 -1.68047,-6.16307 -2.45432,-8.90139 -0.77388,-2.73831 -1.83922,-6.54026 -2.36743,-8.44877 -0.83286,-3.00934 -1.04979,-3.48284 -1.63384,-3.56645 -0.84589,-0.12108 -0.85937,0.31804 -0.0807,2.62946 0.32603,0.96782 0.99052,3.17001 1.47664,4.89379 1.00697,3.5706 2.6958,9.33597 3.96752,13.54424 0.86879,2.87502 1.8218,6.12174 3.94134,13.42751 0.62592,2.15745 1.58377,5.45021 2.12855,7.31724 0.65857,2.25703 1.13346,3.39459 1.41708,3.39459 0.28851,0 0.37488,-0.21972 0.2669,-0.67892 z m 2.83393,0.60349 c 0.016,-0.0414 0.39238,-3.96065 0.8366,-8.70927 l 0.80768,-8.63383 -1.47881,-2.46675 c -0.81334,-1.35673 -1.52869,-2.4169 -1.58964,-2.35593 -0.061,0.061 -0.0215,5.09018 0.0877,11.17602 0.18775,10.46646 0.22851,11.06519 0.75303,11.06519 0.30499,0 0.56756,-0.0339 0.58346,-0.0754 z m 8.20944,-11.15033 c 0.1037,-6.17415 0.14471,-11.2694 0.0913,-11.32277 -0.0534,-0.0534 -0.81448,0.94084 -1.6914,2.20934 l -1.59437,2.30632 0.66373,7.4323 c 1.00179,11.2177 0.9041,10.60057 1.67802,10.60057 h 0.66429 z m -46.5596,5.19092 v -1.20696 h -9.50488 -9.50486 v 1.20696 1.20698 h 9.50486 9.50488 z m -12.32125,-6.30585 c 0.11187,-3.98877 0.38432,-4.62867 2.1183,-4.97545 1.24404,-0.24881 3.17904,0.3016 3.5595,1.0125 0.16878,0.31537 0.30686,2.14383 0.30686,4.06327 v 3.48986 h 2.21437 2.21436 l -0.543,-2.64024 c -0.29865,-1.45213 -0.92566,-4.54122 -1.39335,-6.86463 l -0.85034,-4.22439 -4.67137,-0.0826 -4.67137,-0.0827 -0.80485,3.55277 c -0.44266,1.95402 -1.15411,5.03007 -1.58099,6.83566 -0.42688,1.80559 -0.77617,3.33316 -0.77617,3.3946 0,0.0615 1.07491,0.11175 2.38868,0.11175 h 2.38866 z m 55.40282,-7.03006 c 0.37776,-0.54825 1.3622,-1.93192 2.18763,-3.07483 0.82544,-1.1429 1.50079,-2.31597 1.50079,-2.60681 0,-0.88332 -0.97792,-1.70651 -2.50787,-2.11105 -1.67766,-0.44359 -2.26993,-1.118 -3.969,-4.51945 -2.09903,-4.20212 -3.82959,-7.24181 -4.12294,-7.24181 -0.52243,0 -1.73553,1.54077 -2.10174,2.66944 -0.1967,0.60629 -0.81393,2.09668 -1.3716,3.312 -0.55768,1.2153 -1.01394,2.26745 -1.01394,2.33808 0,0.0706 -0.54313,1.33465 -1.20697,2.80894 -1.36319,3.02745 -1.56732,4.18877 -0.63378,3.60579 0.31525,-0.19688 0.77421,-0.7795 1.0199,-1.29473 1.08327,-2.27164 4.50833,-7.10295 5.0355,-7.10295 0.81884,0 0.98692,0.70083 1.12168,4.67702 0.13827,4.07921 0.23836,4.76833 0.77491,5.33481 0.20749,0.21905 0.90702,1.28088 1.55451,2.35959 0.64751,1.07873 1.39092,2.2097 1.65203,2.51328 0.53041,0.61666 0.47858,0.65819 2.08089,-1.66732 z m -45.79724,-6.72992 v -1.96132 h -1.20698 -1.20697 v 1.22274 1.22272 l -1.58414,-0.0912 c -1.54482,-0.0888 -1.58648,-0.11549 -1.6787,-1.07187 -0.0826,-0.85691 -0.20396,-0.98065 -0.96155,-0.98065 -0.75758,0 -0.87891,0.12369 -0.96154,0.98065 l -0.0946,0.98066 h -1.81046 -1.81045 l -0.0946,-0.98066 c -0.0891,-0.92429 -0.16284,-0.98065 -1.28241,-0.98065 h -1.18786 v 1.81044 1.81045 h 6.94006 6.94007 z m -13.75853,-4.93005 c 2.61288,-2.70069 2.74585,-2.79366 3.19762,-2.23574 0.46352,0.57244 0.47953,0.57132 0.96179,-0.0681 0.44146,-0.58527 0.44367,-0.67963 0.0221,-0.94561 -0.3821,-0.24102 -0.40273,-0.41812 -0.11199,-0.9613 0.19599,-0.36623 0.55525,-0.66588 0.79836,-0.66588 0.59082,0 0.56403,-1.03177 -0.0398,-1.53295 -0.40628,-0.33717 -0.52689,-0.3193 -0.76935,0.11388 -0.15815,0.28259 -0.61409,0.51379 -1.01322,0.51379 -0.59568,0 -0.76258,-0.19663 -0.93159,-1.09754 -0.11324,-0.60364 -0.0703,-1.68992 0.0953,-2.41393 l 0.30122,-1.31639 h -1.54767 c -2.08533,0 -3.55181,0.98966 -4.27588,2.88559 -0.69103,1.80945 -0.76282,3.94636 -0.12757,3.79762 0.24895,-0.0584 1.23338,-0.179 2.18763,-0.26823 1.34991,-0.12621 1.73502,-0.0701 1.73502,0.25282 0,0.22826 -1.78392,2.20265 -3.96429,4.38752 l -3.9643,3.97247 0.68715,0.96505 0.68717,0.96503 1.67309,-1.76518 c 0.92019,-0.97085 2.89989,-3.03322 4.39932,-4.58304 z m 21.80805,4.11543 c -0.23145,-0.14304 -0.0766,-0.49253 0.47179,-1.06496 0.81141,-0.84692 0.81256,-0.85436 0.1921,-1.24185 -0.52365,-0.32703 -0.70972,-0.31242 -1.15513,0.0905 -0.29359,0.26571 -0.75279,0.39537 -1.02719,0.29006 -0.64559,-0.24771 -0.62672,-0.4007 0.1515,-1.22909 0.54682,-0.58205 0.58594,-0.76405 0.25095,-1.16767 -0.35467,-0.42735 -0.46771,-0.38923 -1.06423,0.35888 l -0.66739,0.837 -1.92206,-1.77947 c -1.0571,-0.97869 -1.91681,-1.85703 -1.91041,-1.95186 0.007,-0.0948 0.19151,-0.72906 0.41134,-1.40944 0.35891,-1.11067 0.33748,-1.37782 -0.20969,-2.6148 -0.70148,-1.58585 -1.6708,-2.32951 -3.29462,-2.52768 -3.10568,-0.37904 -5.59431,3.15416 -4.16649,5.91527 0.96226,1.86076 3.25862,2.83885 4.98565,2.12349 0.88893,-0.36821 0.92519,-0.34239 4.57186,3.25539 3.66372,3.61461 3.67752,3.6244 4.20114,2.97776 0.37196,-0.45933 0.42476,-0.71096 0.18088,-0.8617 z m 43.57362,-1.52388 c 0.87034,-1.20319 1.66197,-2.25552 1.75923,-2.3385 0.57377,-0.48958 1.53465,-2.17953 1.53465,-2.69908 0,-0.35837 -0.42166,-0.89402 -1.01913,-1.29459 -0.56053,-0.37584 -2.05283,-1.46409 -3.31623,-2.41834 -2.00731,-1.51613 -2.4688,-1.73502 -3.65788,-1.73502 -1.29446,0 -1.36076,-0.0418 -1.36076,-0.85887 0,-0.47238 0.21952,-1.2989 0.48782,-1.83675 0.59394,-1.19057 0.40838,-2.6841 -0.49029,-3.94617 -1.32837,-1.86555 -2.82582,-1.82806 -4.14648,0.1038 -0.55907,0.81779 -0.67892,1.4026 -0.67892,3.31293 v 2.31984 h 0.90523 c 0.60348,0 0.90523,0.15086 0.90523,0.45261 0,0.32688 -0.33527,0.45261 -1.20698,0.45261 -1.25014,0 -1.48455,0.27401 -0.82045,0.95911 0.21259,0.21929 1.18107,2.02813 2.1522,4.01962 0.97112,1.99151 2.10505,4.0766 2.51982,4.63358 0.67568,0.90737 2.24761,1.85388 3.07881,1.85388 0.19678,0 0.31144,-1.33302 0.31144,-3.62091 0,-3.06129 0.072,-3.6209 0.46529,-3.6209 0.5273,0 3.12583,1.82825 3.14383,2.21193 0.007,0.13783 -0.45402,0.95254 -1.02332,1.81046 -1.27883,1.92713 -1.75035,3.12772 -1.51706,3.86276 0.0984,0.30999 0.22673,0.56363 0.28521,0.56363 0.0585,0 0.81841,-0.98444 1.68874,-2.18763 z m -54.84714,-5.64835 c -1.43148,-0.60155 -1.73094,-2.62536 -0.5615,-3.7948 1.52803,-1.52802 4.08723,-0.49585 4.08723,1.64843 0,0.71656 -0.20297,1.322 -0.54785,1.63409 -0.69257,0.62679 -2.12078,0.87248 -2.97788,0.51228 z m -23.49947,-23.74608 c -0.64099,-5.13031 1.11025,-12.41566 3.92554,-16.33065 1.18551,-1.64858 3.53853,-3.83971 4.84428,-4.51097 0.49787,-0.25596 0.97439,-0.57131 1.05894,-0.70079 0.23239,-0.35595 3.08599,-1.42612 5.59696,-2.09902 2.55761,-0.68539 8.4235,-0.83303 10.08501,-0.25382 0.86578,0.30181 1.02925,0.27393 1.30733,-0.22295 1.66203,-2.96988 6.51572,-5.76669 10.99441,-6.33522 l 1.58415,-0.2011 v -2.37507 -2.37507 h -3.47003 -3.47004 v -3.92263 -3.92264 h 3.47004 3.47003 v -3.62091 -3.62091 h 4.52613 4.52612 v 3.62091 3.62091 h 3.47004 3.47004 v 3.92264 3.92263 h -3.47004 -3.47004 v 2.41395 c 0,2.22269 0.0484,2.41393 0.61104,2.41393 2.17768,0 6.30798,2.38888 8.81829,5.1003 1.56668,1.69222 1.76394,1.81387 2.49224,1.53698 1.36319,-0.5183 5.93113,-0.34919 8.76806,0.32458 4.6747,1.11024 7.67851,2.64806 10.47804,5.36432 3.94782,3.83042 6.51082,10.67764 6.53955,17.47083 l 0.01,2.48938 h -5.08391 -5.08394 l 0.28406,-1.73502 c 0.33534,-2.04799 0.11399,-6.4228 -0.40074,-7.92072 -0.73994,-2.15333 -2.15937,-3.93623 -3.98618,-5.00689 -2.06711,-1.21152 -3.58796,-1.6139 -6.13805,-1.62407 l -1.85165,-0.008 -0.14266,4.14894 c -0.0895,2.60057 -0.31048,4.5994 -0.59235,5.35592 l -0.44969,1.20697 -5.02413,0.0826 c -2.76326,0.0454 -5.02411,-0.0261 -5.02411,-0.15918 0,-0.13304 0.19576,-0.52138 0.43502,-0.86296 2.45079,-3.49901 2.10372,-9.78057 -0.72936,-13.20023 -4.47614,-5.40287 -10.06584,-6.3241 -15.69316,-2.58634 -3.62428,2.40733 -5.00935,5.02112 -4.94573,9.33329 0.0338,2.30083 0.48604,4.372 1.46546,6.71376 0.2052,0.49062 -0.13552,0.52806 -4.80557,0.52806 h -5.02641 l -0.49313,-1.13154 c -0.35382,-0.81187 -0.52957,-2.35119 -0.62211,-5.44882 l -0.12896,-4.31728 -1.701,0.19848 c -4.23415,0.49406 -7.23126,1.78856 -8.83803,3.81728 -2.01338,2.54208 -2.64032,6.66276 -1.6135,10.60498 0.24893,0.95572 0.45261,1.79897 0.45261,1.87385 0,0.0748 -2.29854,0.13613 -5.1079,0.13613 h -5.1079 z"
   id="path5"
   style="stroke-width:0.301741" />
                    <path
   style="fill:#e6ba38;fill-opacity:1;stroke:#f5deb3;stroke-width:2.92488"
   d="m 298.85512,921.46156 c -2.27502,-0.95053 -10.11657,-6.94101 -17.42568,-13.31221 -8.26916,-7.20809 -15.30063,-11.66153 -18.61381,-11.78926 -2.92849,-0.11291 -21.61163,-0.0427 -41.51807,0.1561 -40.51836,0.40454 -62.84663,-2.36093 -101.13537,-12.52618 -38.410612,-10.19762 -87.462479,-29.3393 -91.692749,-35.78159 -2.162674,-3.29352 -1.941484,-13.22333 0.325766,-14.62456 1.049724,-0.64877 17.373702,3.4844 36.275509,9.18484 36.866654,11.1183 43.964534,12.21269 45.933244,7.08233 C 113.9214,842.2483 92.221178,830.10413 48.091058,814.6429 27.842823,807.54882 28.628205,810.58445 36.280065,768.99159 47.03665,710.52254 65.852113,638.20858 88.775229,567.2356 102.4872,524.78152 107.54573,501.05378 111.68603,459.7693 c 1.82353,-18.18306 2.77483,-21.23508 10.19938,-32.72229 9.88179,-15.28906 11.82593,-20.98032 14.37697,-42.08707 1.75345,-14.50773 3.03586,-17.822 11.83279,-30.58066 6.76453,-9.81098 10.59134,-17.94105 12.17283,-25.86121 l 2.30663,-11.5517 9.1675,14.21164 c 11.32348,17.55389 47.03552,54.77094 69.27304,72.19242 l 16.61534,13.01688 -1.47372,16.20621 c -2.23976,24.63045 -2.01571,115.33666 0.37974,153.74161 2.73571,43.86012 13.84849,164.51407 16.76319,182.00173 3.4681,20.80803 11.13683,52.63358 24.80898,102.95828 10.07374,37.07956 12.02726,46.67608 9.99918,49.11978 -2.83038,3.41038 -3.43233,3.47847 -9.25276,1.04664 z"
   id="path6"
   transform="scale(0.75)" /><path
   style="fill:#e6ba38;fill-opacity:1;stroke:#f5deb3;stroke-width:2.92488"
   d="m 245.13795,383.4757 c -18.43709,-11.69245 -47.18321,-42.28887 -40.95616,-43.59237 0.88234,-0.1847 4.86168,-0.41737 8.84297,-0.51705 8.02824,-0.201 7.51825,1.07878 14.84345,-37.24807 1.50494,-7.87414 3.83495,-14.67765 5.1778,-15.11891 3.64696,-1.19838 18.72463,13.28732 25.07658,24.09204 5.04088,8.57458 5.63088,11.75126 6.17813,33.26421 0.6032,23.71243 -2.41636,43.38705 -6.88313,44.84864 -1.17794,0.38544 -6.70378,-2.19238 -12.27964,-5.72849 z"
   id="path7"
   transform="scale(0.75)" /><path
   style="fill:#e6ba38;fill-opacity:1;stroke:#f5deb3;stroke-width:2.92488"
   d="M 774.54147,228.39178 C 714.60526,223.47934 659.63962,196.16728 614.19442,148.7164 590.70005,124.18513 566.00929,86.486975 560.22341,66.312786 c -2.48524,-8.665543 1.39251,-13.508838 19.7286,-24.640947 l 15.51171,-9.417388 19.48472,29.373207 c 20.3807,30.723918 43.70827,57.415372 69.2258,79.208322 34.2957,29.28983 84.61961,45.95492 121.39025,40.19915 29.18749,-4.56876 67.93051,-21.24864 93.99969,-40.46931 17.51116,-12.91088 68.41892,-62.923453 82.75208,-81.296921 12.66723,-16.237953 11.14115,-16.084946 29.42394,-2.950064 5.4857,3.941087 10.5144,9.318663 11.1749,11.950172 1.7146,6.831721 -5.1546,21.043144 -23.45219,48.518863 -51.89707,77.92901 -134.67148,119.0009 -224.92144,111.60391 z"
   id="path8"
   transform="scale(0.75)" /><path
   style="fill:#e6ba38;fill-opacity:1;stroke:#f5deb3;stroke-width:2.92488"
   d="m 729.04103,113.66455 c -23.00165,-4.22701 -52.00663,-12.58391 -63.08014,-18.174627 -7.23405,-3.652275 -12.7102,-9.410057 -24.5873,-25.851769 -8.40422,-11.634128 -14.91905,-21.494046 -14.47741,-21.910929 0.44164,-0.416882 15.69403,3.844873 33.8942,9.470568 18.20018,5.625695 41.68275,11.52874 52.18349,13.117877 57.93792,8.768077 166.3577,4.808526 223.92412,-8.177833 11.94238,-2.694068 22.14508,-4.470975 22.67268,-3.948682 0.5276,0.522292 -8.77931,10.45447 -20.68201,22.071506 -23.2756,22.716979 -25.12921,23.710359 -58.86892,31.549049 -20.93892,4.86471 -127.47782,6.17358 -150.97871,1.85484 z"
   id="path9"
   transform="scale(0.75)" /><path
   style="fill:#e6ba38;fill-opacity:1;stroke:#f5deb3;stroke-width:2.92488"
   d="m 749.25232,158.31324 c -13.34239,-4.80218 -40.30479,-19.54114 -47.76315,-26.10966 -5.01942,-4.42056 -5.15111,-4.8823 -1.40296,-4.91928 2.27502,-0.0225 9.2552,1.35587 15.51151,3.06293 20.85785,5.69115 74.45347,8.21295 115.32667,5.4264 20.17738,-1.37561 39.47822,-2.99905 42.89075,-3.60766 6.04167,-1.0775 6.09598,-1.015 2.0682,2.38015 -7.90627,6.66444 -42.30409,21.79968 -56.26943,24.75887 -20.65599,4.37691 -56.86325,3.86656 -70.36159,-0.99175 z"
   id="path10"
   transform="scale(0.75)" /><path
   style="fill:#e6ba38;fill-opacity:1;stroke:#f5deb3;stroke-width:2.92488"
   d="m 1249.9304,892.946 c 4.7486,-25.35056 7.2224,-87.9611 9.6222,-243.53073 2.104,-136.38614 3.7695,-173.45398 8.504,-189.25617 2.6873,-8.96955 23.7271,-37.95291 40.3443,-55.5763 l 10.9608,-11.62451 0.076,7.70019 c 0.2264,23.1204 -25.1833,148.5554 -41.5932,205.32456 -13.7288,47.49397 -17.0708,68.30256 -11.324,70.5078 8.2448,3.16382 11.0443,-3.96962 29.2938,-74.6442 14.4157,-55.82771 21.9221,-91.48001 32.0461,-152.20586 4.4977,-26.97855 8.7991,-50.76879 9.5586,-52.8672 2.0988,-5.79855 9.0171,-15.1904 11.1897,-15.1904 2.5031,0 2.4548,59.65239 -0.1781,220.14841 -2.7147,165.47909 -5.3334,241.87697 -8.6527,252.43563 -7.4482,23.69222 -45.6367,44.40576 -81.9582,44.45436 -8.6497,0.0116 -8.9179,-0.1814 -7.8888,-5.67558 z"
   id="path11"
   transform="scale(0.75)" /><path
   style="fill:#e6ba38;fill-opacity:1;stroke:#f5deb3;stroke-width:2.92488"
   d="m 1354.7368,885.7073 c 0.036,-4.83442 0.9095,-23.21557 1.9419,-40.84698 2.7544,-47.04118 6.1197,-192.3686 8.1975,-353.99988 l 1.8255,-142.00921 11.6954,-17.75935 c 6.4325,-9.76764 12.5314,-17.75935 13.553,-17.75935 4.3602,0 13.9743,44.89112 20.3979,95.24389 4.0017,31.36869 5.5847,35.90596 17.8776,51.24215 l 7.1744,8.95063 0.036,23.10649 c 0.046,29.6576 1.9742,38.1742 24.4295,107.90275 33.953,105.43135 58.2626,186.13321 58.2626,193.41704 0,5.85353 -20.6819,12.6823 -114.7852,37.89992 -35.2387,9.4432 -38.2617,10.6901 -38.2617,15.78193 0,8.51923 18.8331,5.26223 109.01,-18.85222 53.6861,-14.35633 49.3412,-14.51714 55.7583,2.06341 4.151,10.72546 2.838,13.76452 -8.8174,20.40893 -23.1561,13.2006 -136.095,43.9997 -161.3449,43.9997 -6.8846,0 -7.014,-0.1637 -6.9504,-8.78985 z"
   id="path12"
   transform="scale(0.75)" /><path
   style="fill:#e6ba38;fill-opacity:1;stroke:#f5deb3;stroke-width:2.92488"
   d="m 1257.4665,928.97309 c -14.8831,-3.86804 -12.1244,-7.83784 8.2728,-11.90464 19.3917,-3.86632 37.8207,-10.36223 57.3126,-20.20172 7.0357,-3.55159 13.258,-5.70361 13.8275,-4.78227 3.3037,5.34547 -17.1766,28.90402 -30.9044,35.54957 -9.7406,4.7153 -33.0426,5.35855 -48.5085,1.33906 z"
   id="path13"
   transform="scale(0.75)" /><path
   fill="#000000"
   d="m 568.35739,876.97149 c -0.87976,-0.1052 -3.65612,-0.41195 -6.1697,-0.68159 -17.81575,-1.91169 -35.81716,-6.9023 -57.75766,-16.0126 -25.9028,-10.75551 -49.63464,-26.64211 -69.53369,-46.5473 -15.32603,-15.33078 -26.55801,-32.30481 -38.56768,-58.28442 -4.8794,-10.55525 -7.21399,-17.64686 -16.77374,-50.95241 -9.4718,-32.99916 -10.56654,-45.25506 -6.55505,-73.38573 5.22571,-36.64545 17.88894,-68.08422 37.72452,-93.658 4.7042,-6.06504 7.09661,-8.71528 4.33186,-4.79865 -17.87099,25.31641 -27.53736,47.06105 -35.38674,79.60299 -5.17298,21.44615 -6.00673,43.90679 -2.36349,63.67119 1.62041,8.79068 1.74336,8.50231 1.75375,-4.11313 0.0103,-12.49372 0.18157,-15.92082 1.27897,-25.59284 4.45364,-39.25252 20.64298,-76.60261 47.64127,-109.91209 4.97415,-6.13693 11.63141,-13.73054 11.84777,-13.51417 0.0918,0.0918 -1.65804,2.50171 -3.88862,5.35527 -25.43646,32.54063 -39.71973,62.8971 -45.33754,96.35669 -6.88008,40.97762 -4.60902,77.4289 6.67129,107.07657 4.20174,11.04329 14.23674,27.36098 24.7939,40.31684 9.51377,11.67541 22.88933,24.7086 35.48044,34.57227 9.87512,7.73601 36.58192,23.5975 55.96834,33.24027 21.97515,10.9304 39.65355,16.92091 53.54802,18.1453 l 3.50487,0.30886 -0.5188,1.1971 c -0.95356,2.20028 -2.74357,4.21915 -4.56459,5.14816 l -1.80387,0.92027 -4.73872,-0.95374 c -17.65937,-3.5542 -41.91078,-13.60244 -62.10795,-25.73356 -30.41538,-18.26854 -51.15754,-34.17668 -68.94293,-52.87558 -8.17003,-8.58967 -7.90933,-8.34298 -6.86961,-6.50014 1.28585,2.27912 9.42078,13.03661 12.83209,16.96895 19.22057,22.15618 37.49674,36.20812 63.89448,49.12636 23.87407,11.68323 51.9081,20.9881 70.3803,23.36019 4.96613,0.63772 8.56637,0.72035 21.93672,0.50354 15.26964,-0.24752 23.66549,-0.84611 36.56118,-2.60644 19.69528,-2.68855 47.10986,-8.88472 57.58389,-13.01495 14.59915,-5.75689 30.8213,-15.38891 49.12911,-29.17077 3.64469,-2.74368 6.9352,-5.19192 7.31224,-5.44054 1.35258,-0.89188 -3.54485,3.46715 -9.82583,8.74561 -20.26776,17.03282 -40.32672,29.14336 -57.8642,34.93535 -19.60369,6.47442 -46.15431,11.47443 -71.92804,13.54572 -6.27391,0.50418 -29.95837,0.97618 -32.67656,0.65115 z m 174.59386,-59.67208 c 0.008,-0.0863 3.43095,-3.65298 7.60702,-7.92607 4.17607,-4.27309 6.89507,-6.8438 6.04222,-5.71269 -2.73727,3.63038 -13.73809,14.62275 -13.64924,13.63876 z m 17.46527,-18.66592 c 0.6209,-0.87975 3.06762,-4.27309 5.43717,-7.54075 19.98556,-27.56054 33.11505,-56.469 39.02214,-85.91881 2.77681,-13.84375 3.8541,-24.74261 3.86232,-39.07478 0.0124,-21.75042 -2.54915,-40.9633 -8.09319,-60.70116 l -1.70999,-6.08788 -0.51823,3.34579 c -0.51061,3.29655 -2.20468,9.86361 -2.66259,10.32152 -0.12912,0.12912 -0.4595,-0.35931 -0.73417,-1.08541 -1.65399,-4.3723 -6.60311,-15.29276 -10.23341,-22.58049 -14.0463,-28.19758 -29.82347,-49.51054 -48.85639,-65.99881 -34.49315,-29.88151 -73.89375,-48.07282 -121.18578,-55.95164 -16.45268,-2.741 -20.11716,-3.03572 -37.47522,-3.01403 -17.52255,0.0219 -23.85941,0.5908 -38.15357,3.42531 -27.72495,5.49781 -55.30753,18.32931 -79.99072,37.21193 -4.14664,3.17219 -2.48801,1.32154 2.73357,-3.05 22.54982,-18.87888 47.684,-32.58374 72.74824,-39.66729 16.82721,-4.75564 29.89369,-6.43249 50.05118,-6.4232 34.85231,0.0161 67.10494,7.07324 103.43742,22.63303 18.31029,7.84158 41.65101,22.62927 56.37993,35.71993 5.47039,4.86194 6.62277,5.55322 3.03201,1.81883 -9.05437,-9.41655 -22.96068,-20.67932 -35.41866,-28.68569 -19.30844,-12.40897 -48.17357,-25.53266 -67.1812,-30.54433 -17.34985,-4.57456 -42.02807,-7.33817 -59.41193,-6.65328 -21.92973,0.86398 -39.87906,3.82412 -59.86896,9.87337 -28.95361,8.76181 -55.74492,23.28637 -82.47638,44.71348 -8.55496,6.85738 -8.15432,6.11063 0.89921,-1.67606 26.77833,-23.03128 55.58469,-38.79963 88.20389,-48.28205 12.99527,-3.77773 26.33305,-6.36344 42.9594,-8.32828 9.31253,-1.10052 30.54265,-1.10368 39.9888,-0.006 30.19232,3.50862 55.08604,10.95479 82.94822,24.81129 22.85071,11.36419 38.39196,21.89758 52.50399,35.58563 19.78097,19.18667 38.28207,46.54834 48.05636,71.07156 16.09332,40.37737 21.00567,79.72227 14.55026,116.53881 -5.18114,29.54915 -18.48067,59.56853 -38.26721,86.37583 -4.21214,5.70672 -11.36573,14.67515 -14.03455,17.59507 -1.58369,1.73269 -1.61196,1.74461 -0.54196,0.22851 z M 644.45037,781.12547 c -5.3696,-2.59133 -9.76425,-9.48736 -11.11831,-17.44668 -0.62365,-3.66593 -0.64288,-4.77071 -0.13558,-7.78984 0.82818,-4.92877 3.00246,-9.95347 6.16739,-14.25274 6.98274,-9.48539 18.53374,-16.73291 40.04814,-25.12767 2.89062,-1.1279 5.52635,-2.16167 5.85718,-2.29727 0.33082,-0.1356 -1.13821,2.40281 -3.26452,5.64089 -4.85817,7.39834 -7.09361,11.58009 -9.13276,17.08431 -2.13434,5.76116 -2.99839,10.19249 -3.50709,17.9863 -0.23204,3.5552 -0.81067,7.92248 -1.28583,9.70508 -1.79685,6.741 -6.47934,13.1672 -11.64161,15.97687 -1.92159,1.04586 -3.08165,1.32607 -6.04016,1.45899 -3.14213,0.14117 -3.98606,0.008 -5.94685,-0.93824 z m -179.95729,-0.58981 c -0.59378,-0.59378 0.95133,-18.58321 1.63335,-19.01682 0.91661,-0.58276 3.25618,-0.39992 4.30779,0.33665 0.54749,0.38349 1.46609,1.97732 2.04131,3.54187 l 1.04588,2.84463 0.4597,-3.42761 0.4597,-3.42761 h 2.05657 2.05657 l -0.0143,3.08485 c -0.008,1.69667 -0.0592,6.06687 -0.11425,9.71157 l -0.1,6.62672 h -2.47363 -2.47363 l -1.24712,-3.31336 c -2.50309,-6.65023 -2.41002,-6.59818 -2.45162,-1.37105 l -0.0373,4.68441 h -2.43742 c -1.34057,0 -2.56082,-0.12342 -2.71166,-0.27425 z m 15.23216,-5.32419 c 0.0277,-5.39491 0.55804,-12.97483 0.93256,-13.3289 0.0997,-0.0942 3.009,-0.32056 6.46518,-0.50294 l 6.28396,-0.33161 v 2.33149 c 0,2.65102 0.1683,2.55127 -5.14142,3.04742 -2.77202,0.25903 -3.08494,0.38886 -3.08567,1.28017 -7.6e-4,0.92001 0.22285,0.99191 3.08485,0.99191 h 3.08567 v 1.77825 c 0,2.11511 -0.43239,2.41817 -3.99888,2.80279 -2.33605,0.25192 -2.62784,0.39751 -2.62784,1.31112 0,1.00101 0.10098,1.02242 3.88463,0.82383 l 3.88463,-0.20389 v 2.50315 2.50315 l -3.77038,0.29352 c -2.0737,0.16142 -4.9529,0.29473 -6.39821,0.29623 l -2.62783,0.003 z m 15.97422,4.30515 c -1.71162,-1.71161 -2.01146,-4.54285 -1.26663,-11.96015 l 0.57366,-5.71268 2.39933,-0.13814 c 2.80812,-0.16168 2.64924,-0.77747 1.95735,7.58584 -0.23489,2.83946 -0.31237,5.46158 -0.17217,5.82694 0.40641,1.05908 2.39536,0.81163 2.92555,-0.36397 0.25507,-0.56556 0.61057,-3.70182 0.78999,-6.96948 l 0.32622,-5.94119 2.47024,-0.1406 2.47024,-0.1406 -0.27127,6.69526 c -0.2331,5.75298 -0.41995,6.99043 -1.3277,8.7926 -1.35447,2.68903 -3.32236,3.75946 -6.9114,3.75946 -2.32178,0 -2.83885,-0.16872 -3.96341,-1.29329 z m 13.10689,0.97388 c -0.23458,-0.387 0.89712,-17.95753 1.17448,-18.23488 0.0891,-0.0891 1.69208,-0.38042 3.56218,-0.64737 4.5346,-0.64732 6.50898,-0.27532 8.01064,1.5093 1.05551,1.25441 1.17622,1.73586 1.0103,4.02963 -0.14029,1.93965 -0.50618,3.0216 -1.4325,4.23608 l -1.24409,1.63108 1.36622,2.70646 1.36622,2.70646 -1.80022,1.19133 c -0.99011,0.65522 -1.97951,1.19132 -2.19865,1.19132 -0.21914,0 -1.07694,-1.33677 -1.90623,-2.9706 -1.01511,-1.99991 -1.777,-2.9706 -2.33165,-2.9706 -0.69139,0 -0.84571,0.45922 -0.9599,2.85634 l -0.13606,2.85635 -2.12942,0.13761 c -1.17118,0.0757 -2.22928,-0.0272 -2.35132,-0.22851 z m 18.35059,-0.37535 c -0.66639,-0.36199 -1.67104,-1.60716 -2.23254,-2.76707 -0.88619,-1.83064 -0.9882,-2.6007 -0.77304,-5.83601 0.26135,-3.92993 0.95288,-6.07742 2.65288,-8.23837 3.19252,-4.05813 9.09187,-2.6596 10.48935,2.48666 0.79211,2.917 0.29939,8.21883 -1.00873,10.85409 -1.84892,3.72478 -5.87376,5.26836 -9.12792,3.5007 z m 11.68756,-8.10278 c 0.17941,-4.83865 0.48109,-8.95616 0.67041,-9.15003 0.18931,-0.19387 2.0091,-0.66651 4.04398,-1.0503 3.28307,-0.61922 3.88309,-0.62122 5.32734,-0.0177 2.09645,0.87595 3.47172,3.12977 3.47392,5.69313 0.004,3.94488 -2.03746,6.27652 -6.46888,7.39055 -2.3089,0.58044 -2.6522,1.12412 -2.66346,4.21815 l -0.006,1.7138 h -2.35163 -2.35164 z m 11.6893,7.90891 c 0,-1.20106 3.66861,-12.2619 5.18531,-15.6337 1.07871,-2.3981 1.29605,-2.60601 3.03057,-2.89905 2.32257,-0.3924 3.84114,0.48356 4.52452,2.60989 0.38761,1.206 3.25513,15.87109 3.25513,16.64734 0,0.11428 -1.28536,0.14653 -2.85635,0.0717 l -2.85634,-0.13606 -0.14488,-1.76481 c -0.13987,-1.70367 -0.1933,-1.75512 -1.54243,-1.4853 -0.76864,0.15373 -1.65057,0.27951 -1.95982,0.27951 -0.30926,0 -0.75312,0.66839 -0.98636,1.4853 -0.40794,1.42881 -0.52343,1.49051 -3.03671,1.62236 -2.37151,0.12442 -2.61264,0.0508 -2.61264,-0.79718 z m 16.75912,0.54586 c -0.23338,-0.39137 0.55501,-17.86669 0.84535,-18.73761 0.11961,-0.35881 1.06933,-0.57127 2.55371,-0.57127 h 2.36328 l -0.32532,6.83454 -0.32533,6.83454 3.34632,0.13494 3.34631,0.13494 0.13506,2.56055 0.13504,2.56057 -2.82992,0.29578 c -3.82902,0.40021 -8.9935,0.37397 -9.2445,-0.047 z m 12.66088,-4.11313 c 0.14831,-2.45074 0.39862,-6.76953 0.55626,-9.59731 l 0.28663,-5.14142 1.43535,-0.0541 c 3.3489,-0.12634 3.93557,0.40471 5.08582,4.60366 0.4851,1.77085 0.9933,3.21668 1.12935,3.21293 0.13604,-0.004 0.97785,-1.80324 1.8707,-3.99888 1.4223,-3.49765 1.77498,-4.00988 2.8476,-4.13584 0.83112,-0.0976 1.59393,0.22593 2.37552,1.00752 1.14976,1.14975 1.15128,1.16273 1.15128,9.85532 v 8.70406 h -2.74209 -2.74208 l -0.0202,-2.62783 -0.0202,-2.62784 -0.888,1.68116 c -0.95344,1.80503 -2.49223,2.62007 -3.345,1.77171 -0.28889,-0.28741 -0.76668,-1.18188 -1.06176,-1.98772 -0.52131,-1.42365 -0.53749,-1.39073 -0.57127,1.16269 l -0.0347,2.62783 h -2.79139 -2.79139 z m 17.65254,3.56727 c 0,-1.20106 3.6686,-12.2619 5.1853,-15.6337 1.07871,-2.3981 1.29605,-2.60601 3.03057,-2.89905 2.32257,-0.3924 3.84114,0.48356 4.52452,2.60989 0.38761,1.206 3.25513,15.87109 3.25513,16.64734 0,0.11428 -1.28536,0.14653 -2.85634,0.0717 l -2.85635,-0.13606 -0.14488,-1.76481 c -0.13987,-1.70367 -0.1933,-1.75512 -1.54243,-1.4853 -0.76864,0.15373 -1.65057,0.27951 -1.95982,0.27951 -0.30926,0 -0.75312,0.66839 -0.98636,1.4853 -0.40794,1.42881 -0.52343,1.49051 -3.03671,1.62236 -2.3715,0.12442 -2.61263,0.0508 -2.61263,-0.79718 z m -57.73822,-1.5107 c -0.12679,-0.3142 -0.23051,-0.0571 -0.23051,0.57127 0,0.62839 0.10372,0.88546 0.23051,0.57126 0.12678,-0.31419 0.12678,-0.82833 0,-1.14253 z m 23.91912,-1.05526 c 0,-0.39187 -0.20901,-0.58331 -0.46448,-0.42543 -0.25545,0.15788 -0.34614,0.4785 -0.20153,0.71249 0.39177,0.6339 0.66601,0.51571 0.66601,-0.28706 z m 47.07253,0 c 0,-0.39187 -0.20901,-0.58331 -0.46447,-0.42543 -0.25546,0.15788 -0.34615,0.4785 -0.20154,0.71249 0.39177,0.6339 0.66601,0.51571 0.66601,-0.28706 z m -79.25225,-2.25475 c 1.05922,-1.61659 1.42776,-8.36933 0.52205,-9.56564 -0.64583,-0.85304 -0.6889,-0.84328 -1.45758,0.32987 -1.10496,1.68638 -1.91968,7.74952 -1.24137,9.23825 0.65509,1.43778 1.23364,1.43712 2.1769,-0.003 z m 28.05958,-3.54522 c -0.008,-1.21944 -0.88384,-2.87514 -0.90627,-1.7138 -0.007,0.37703 -0.13724,1.14825 -0.2888,1.7138 -0.2026,0.75597 -0.0799,1.02829 0.46324,1.02829 0.46359,0 0.73623,-0.38307 0.73183,-1.02829 z m 47.07253,0 c -0.008,-1.21944 -0.88384,-2.87514 -0.90627,-1.7138 -0.007,0.37703 -0.13724,1.14825 -0.2888,1.7138 -0.2026,0.75597 -0.0799,1.02829 0.46325,1.02829 0.46358,0 0.73622,-0.38307 0.73182,-1.02829 z m -60.20471,-2.0776 c 0.43988,-0.38054 0.79978,-1.27699 0.79978,-1.99211 0,-1.17274 -0.15159,-1.30021 -1.54625,-1.30021 -1.64694,0 -2.09036,0.6894 -2.10363,3.27057 -0.005,1.02954 0.15001,1.17599 1.02204,0.96384 0.56556,-0.1376 1.38819,-0.56154 1.82806,-0.94209 z m -30.58995,-0.16163 c 1.27132,-0.66917 1.66802,-1.27469 1.67676,-2.55942 0.007,-1.1257 -0.64472,-1.27915 -2.47683,-0.58258 -0.95235,0.36208 -1.17229,0.74792 -1.17229,2.05657 0,1.71588 0.37867,1.92428 1.97236,1.08543 z m 105.92225,-25.83409 c -2.98371,-6.21823 -7.09188,-11.88268 -13.38845,-18.46036 -7.92874,-8.2827 -16.44511,-13.13371 -27.32496,-15.56456 -1.13112,-0.25272 -6.99233,-0.61248 -13.02493,-0.79947 -11.84523,-0.36716 -13.03436,-0.60701 -14.20174,-2.86446 -1.81959,-3.5187 0.43977,-7.77218 5.06347,-9.53253 2.91426,-1.10952 10.32955,-2.73927 16.45051,-3.6155 10.53531,-1.50818 16.5484,-4.02112 21.54156,-9.00249 9.66465,-9.64181 8.56849,-23.14955 -3.08998,-38.07677 -5.1386,-6.57933 -6.34265,-8.58003 -6.33052,-10.51897 0.0249,-3.98284 3.08145,-4.90183 8.0169,-2.41041 3.74578,1.89086 6.66454,4.27564 12.61384,10.30612 13.82861,14.01732 20.42279,26.65794 23.76205,45.55026 0.94256,5.33274 0.79492,23.17316 -0.24397,29.47746 -1.5119,9.17479 -3.62296,17.53902 -6.51709,25.82134 -0.65875,1.88519 -1.24579,3.48487 -1.30453,3.55484 -0.0588,0.07 -0.96871,-1.66905 -2.02216,-3.8645 z m 32.60289,-29.87935 c -3.0756,-1.18327 -5.6325,-3.4402 -7.29221,-6.43671 -1.22208,-2.20639 -1.35649,-2.8566 -1.35649,-6.56219 0,-3.69964 0.13549,-4.35772 1.34772,-6.54607 1.44889,-2.61558 3.38848,-4.37542 6.63708,-6.02199 2.60258,-1.31912 7.97204,-1.43744 10.75282,-0.23692 5.98246,2.58273 9.51838,9.04453 8.38237,15.31856 -1.52614,8.42859 -10.53091,13.5402 -18.47129,10.48532 z m 36.36429,-4.65838 c -0.005,-2.72009 -1.64731,-13.42078 -2.78252,-18.12095 -4.21697,-17.45973 -12.91026,-26.84952 -28.75837,-31.06243 -4.67578,-1.24297 -8.62857,-1.79606 -16.59456,-2.32197 -5.54593,-0.36614 -7.21183,-0.64587 -9.16115,-1.53831 -4.52918,-2.07353 -7.47362,-5.52058 -6.9095,-8.08898 0.79841,-3.63511 6.33615,-8.12404 12.61989,-10.22975 1.85576,-0.62188 6.5618,-1.57114 10.45785,-2.10948 17.78325,-2.45719 23.73372,-4.82505 30.5988,-12.1761 8.03181,-8.60039 10.24614,-20.4413 5.95558,-31.84693 -1.07686,-2.86262 -3.94662,-7.34306 -7.07156,-11.04055 -3.07871,-3.64278 -4.08205,-5.93459 -4.10159,-9.36881 -0.0198,-3.49015 1.06247,-5.43213 3.79196,-6.80378 3.99373,-2.00695 8.35447,-1.56451 12.78151,1.29683 2.16126,1.39689 3.67959,3.04008 7.47151,8.08595 12.53133,16.67533 21.03725,30.63679 25.85444,42.43698 1.82128,4.4614 2.19314,5.56923 3.60493,10.73985 2.1375,7.8285 2.64526,21.7701 1.11768,30.68884 -3.15109,18.39761 -13.12979,33.16094 -33.60391,49.71643 -2.5068,2.02702 -4.71761,3.68548 -4.91291,3.68548 -0.1953,0 -0.35644,-0.87404 -0.35808,-1.94232 z m -170.9206,-4.51809 c -9.91264,-1.01499 -18.58549,-3.51015 -26.93409,-7.74887 -8.92151,-4.52961 -12.38016,-8.53968 -12.35916,-14.32963 0.0229,-6.32388 4.71931,-11.7102 10.84252,-12.43541 4.02008,-0.47612 10.78785,1.98985 16.2797,5.93178 1.22372,0.87837 5.4761,4.7932 9.44973,8.69965 3.97363,3.90644 8.93645,8.37665 11.02849,9.93379 4.53565,3.37596 10.7519,6.45727 15.42193,7.64443 l 3.39196,0.86226 -2.93494,0.52391 c -7.23565,1.29163 -16.94036,1.66002 -24.18614,0.91809 z m 51.8712,-20.68726 c -4.92436,-1.56145 -8.68358,-4.70913 -10.93241,-9.15393 -1.74905,-3.457 -2.14113,-8.54081 -0.94088,-12.19985 2.49457,-7.60489 8.92596,-12.28869 16.85714,-12.2766 5.55335,0.008 9.92727,1.85733 13.45946,5.68931 3.06081,3.32057 3.91017,5.64456 3.93193,10.75829 0.0161,3.77605 -0.14093,4.68175 -1.20521,6.95242 -2.34772,5.00891 -5.90014,8.28313 -10.75853,9.91601 -3.2215,1.08273 -7.57384,1.21414 -10.4115,0.31435 z m -35.94786,-1.19679 c -2.32754,-1.22963 -4.34402,-3.84194 -4.96555,-6.43276 -0.97359,-4.05838 1.25095,-8.69663 5.17559,-10.79133 2.25174,-1.20182 6.49106,-1.05891 8.88191,0.29942 6.70576,3.80978 6.46034,13.44381 -0.43253,16.97868 -2.26331,1.16069 -6.40907,1.13483 -8.65942,-0.054 z m -74.64976,-3.74098 c -3.65102,-1.27622 -6.2643,-4.62397 -9.02348,-11.55949 -3.58729,-9.01712 -5.27335,-16.74452 -5.68386,-26.04985 -0.64981,-14.72969 3.68868,-29.04915 13.00075,-42.90969 14.41436,-21.45505 35.78486,-32.75016 62.26107,-32.90732 8.11769,-0.0482 10.6969,0.24834 18.2806,2.10168 11.1364,2.72156 21.54446,8.82688 24.31899,14.26541 1.88797,3.70071 1.02009,9.74043 -1.83524,12.77195 -3.62097,3.84437 -7.88987,5.03088 -19.97017,5.55053 -20.77966,0.89388 -33.90388,5.90718 -45.30244,17.305 -6.35803,6.35764 -10.56349,12.96876 -14.12339,22.20251 -2.25328,5.84461 -3.84454,12.26669 -7.11817,28.72774 -0.4992,2.5102 -1.94508,5.7856 -3.3905,7.68065 -2.03395,2.66666 -7.78751,4.08858 -11.41416,2.82088 z m 184.4711,-2.43414 c -1.91988,-1.61547 -2.58361,-3.80406 -1.75071,-5.7728 1.03755,-2.45246 2.37181,-3.35255 4.96971,-3.35255 1.99154,0 2.44052,0.18572 3.60813,1.49251 1.06243,1.18905 1.33356,1.91849 1.33356,3.58757 0,1.77326 -0.23867,2.33373 -1.55385,3.64891 -2.00272,2.00272 -4.51842,2.15364 -6.60684,0.39636 z m -126.86701,-16.7244 c -5.85622,-1.37187 -11.93913,-6.57038 -14.73335,-12.59126 -1.47394,-3.17599 -1.68237,-4.08754 -1.86964,-8.17689 -0.32824,-7.16718 1.31696,-11.69716 6.01425,-16.56 4.43088,-4.58704 9.51992,-6.67275 16.28122,-6.67275 6.35907,0 10.7921,1.69894 15.00017,5.74875 5.41168,5.20817 7.78047,12.94277 6.30113,20.57453 -2.12456,10.96031 -10.84743,18.28522 -21.61039,18.14704 -1.96654,-0.0252 -4.38907,-0.23649 -5.38339,-0.46942 z m 95.49591,-29.76168 c -3.97071,-6.11771 -10.71076,-11.5674 -19.56928,-15.82284 -7.94617,-3.81717 -12.03169,-7.56894 -14.78044,-13.57299 -1.7753,-3.87776 -1.77107,-8.74354 0.0102,-11.7831 3.15103,-5.37682 11.58725,-6.83658 19.2461,-3.33025 4.67906,2.14215 10.43339,8.69839 13.27608,15.12622 1.78338,4.03256 2.92162,8.66241 3.65566,14.8697 0.70554,5.96626 0.92433,17.38375 0.33246,17.34956 -0.18852,-0.0109 -1.16539,-1.28723 -2.17082,-2.8363 z m -51.09851,-0.78632 c -2.48168,-0.47846 -5.32113,-2.64724 -6.59967,-5.04086 -1.53333,-2.87064 -1.33149,-7.26097 0.45817,-9.96532 3.44065,-5.19918 10.95952,-5.87773 15.28946,-1.37982 1.53176,1.59118 2.87578,4.7062 2.87578,6.66518 0,6.04331 -5.98806,10.88447 -12.02374,9.72082 z m 235.62175,-5.81956 c -0.74993,-0.95419 -1.71742,-2.42641 -2.14999,-3.27161 -0.90809,-1.77436 -1.57461,-6.96588 -0.80016,-6.23253 0.62047,0.58757 4.78683,10.76587 4.51722,11.03548 -0.11195,0.11195 -0.81712,-0.57716 -1.56707,-1.53134 z m -149.56159,-1.37615 c -0.6284,-0.11127 -2.60383,-0.89932 -4.38984,-1.75122 -8.11331,-3.86993 -13.30978,-13.56629 -11.68135,-21.79682 1.80386,-9.1172 9.04632,-16.26277 17.9201,-17.68036 12.04327,-1.92392 23.74392,8.30036 23.74392,20.74794 0,9.49928 -6.29168,17.75355 -15.32598,20.10669 -2.50673,0.65292 -7.63585,0.83965 -10.26685,0.37377 z m -27.19239,-45.42429 c -4.11229,-0.5926 -10.04282,-2.39877 -17.75844,-5.40843 -9.80559,-3.8249 -17.40515,-6.23398 -27.25753,-8.64071 -13.40052,-3.27345 -30.67148,-5.38297 -41.13824,-5.02471 -2.76114,0.0945 -5.02027,0.0419 -5.02027,-0.11683 0,-0.60022 10.11446,-7.3589 13.91432,-9.29782 9.64575,-4.92186 22.70856,-8.74558 36.3033,-10.62665 7.37559,-1.02054 23.92221,-0.99858 31.58805,0.042 6.83137,0.92723 16.02519,2.73433 19.0601,3.74636 5.39945,1.80053 10.84356,5.35164 13.71409,8.94548 4.7385,5.93253 4.4503,15.54883 -0.62874,20.97873 -4.3193,4.61768 -13.35337,6.76057 -22.77664,5.40265 z M 419.82753,526.52902 c 0,-0.43543 7.97856,-8.76777 10.81731,-11.29697 1.21419,-1.0818 -0.67158,1.00669 -4.1906,4.64107 -3.51901,3.63438 -6.44962,6.69365 -6.51246,6.79838 -0.0629,0.10474 -0.11425,0.0406 -0.11425,-0.14248 z m 28.33492,-12.38734 c 1.3653,-1.38247 2.58519,-2.51358 2.71087,-2.51358 0.12568,0 -0.88855,1.13111 -2.25385,2.51358 -1.3653,1.38247 -2.58519,2.51358 -2.71087,2.51358 -0.12568,0 0.88856,-1.13111 2.25385,-2.51358 z"
   id="path2-0"
   style="stroke-width:0.457015" /></svg>
